<?xml version="1.0" encoding="UTF-8"?>
<svg width="713px" height="313px" viewBox="0 0 713 313" version="1.1" xmlns="http://www.w3.org/2000/svg" xmlns:xlink="http://www.w3.org/1999/xlink">
    <title>header_m1</title>
    <defs>
        <path d="M0,1.17656501 L4.50667862,0 C15.3072644,8.69144807 21.3834303,31.3110236 28.2897348,33.7712432 C34.8193663,36.0972814 43.4755761,32.5362771 53.7255156,27.8538231 L57.5917189,34.7320524 C48.8801503,45.8615647 29.1640247,56.3453111 20.4298474,52.109215 C6.46571345,45.3365779 0.92311645,17.2679781 0,1.17656501 Z" id="path-1"></path>
        <path d="M52.3014186,0 C62.8229035,35.4861142 65.7234907,59.1305814 61.00318,70.9334014 L61.00318,70.9334014 L24.4284013,70.9334014 C25.0071093,62.2962279 26.8627997,53.1620513 29.4044718,44.2561469 C21.1213933,59.0406315 14.1586425,69.6843472 8.51672059,76.1877274 L0,74.537249 C5.48608402,40.8737554 21.3730512,16.0280057 47.6609015,0 L52.3014186,0 Z" id="path-3"></path>
        <path d="M8.8817842e-16,2.42802927 L5.63810205,0 C15.2354013,18.9857408 28.64697,36.9944679 49.6790087,51.3567855 L45.5584456,60.1541396 C27.4217155,51.5030159 10.4040241,45.0389021 2.44485727,30.3728757 C-0.22644487,25.4505782 0.35384461,8.56211864 8.8817842e-16,2.42802927 Z" id="path-5"></path>
        <polygon id="path-7" points="0 -1.1379786e-15 87.058 -1.1379786e-15 87.058 114.146 0 114.146"></polygon>
        <path d="M47.4155274,-3.44169138e-15 L47.4,0.275 L51.8072244,0.275444146 C52.8231382,6.25043054 56.0055154,86.4115203 65.7640853,113.955051 L66.061817,114.773467 L11.9979016,114.773467 C13.169988,90.2820998 22.415784,60.8620023 31.7818866,36.2429601 C23.4998601,43.8217433 16.2815471,56.6632746 10.1267605,74.7675635 L10.1267605,74.7675635 L3.55271367e-15,72.1680422 C7.52943431,39.7231979 23.0098071,15.8759514 46.4411183,0.626303036 L46.5939688,0.275444146 L46.985,0.275 L47.4155274,-3.44169138e-15 Z" id="path-9"></path>
        <polygon id="path-11" points="0 -1.3669621e-15 104.045 -1.3669621e-15 104.045 136.444 0 136.444"></polygon>
        <linearGradient x1="50%" y1="0%" x2="50%" y2="100%" id="linearGradient-13">
            <stop stop-color="#0F97E4" offset="0%"></stop>
            <stop stop-color="#1F6CBB" offset="100%"></stop>
        </linearGradient>
    </defs>
    <g id="Page-1" stroke="none" stroke-width="1" fill="none" fill-rule="evenodd">
        <g id="header_m1" transform="translate(0.000000, 0.204000)">
            <g id="Group" transform="translate(430.305000, 30.796000)" fill-rule="nonzero">
                <path d="M64.2469509,0.350375165 C62.4355586,-0.0453413109 60.4355027,-0.0150550362 58.5903807,0.0175888527 C48.6949966,0.152154217 38.9778978,4.83709634 32.6537774,12.3228841 C27.2700094,18.6956967 25.7896122,26.6189126 24.7260169,34.6282721 C24.6205654,35.4235135 24.5753455,36.213677 24.5158553,37.0105506 C24.5030677,37.1815683 24.483979,37.3340878 24.4635929,37.4777209 C24.0453084,37.8516748 23.8258805,38.287652 24.0734782,38.7666104 C23.1520292,40.783096 22.3725412,42.8507237 21.7036937,44.9832764 C19.7351435,51.2603335 17.7326783,57.6567222 18.9662191,64.2573165 C19.2544036,60.6249585 19.8606103,56.910628 20.585612,53.3379357 C20.6273108,53.1328233 20.6723454,52.929343 20.7192333,52.7265882 C20.7240518,52.7051883 20.7284997,52.6837884 20.7333182,52.6625699 C20.989997,51.5684556 21.3235867,50.5071665 21.7292689,49.462562 C21.7335315,49.4511366 21.7376087,49.4398926 21.7420565,49.4286486 C21.7956162,49.2911816 21.8525118,49.15444 21.9086661,49.0176983 C22.0248665,48.7346033 22.1442175,48.4520523 22.2707963,48.1709521 C22.313607,48.0751967 22.3547497,47.9785345 22.3942245,47.8811469 C22.9848637,46.4335718 23.2343147,44.8024655 23.7634251,43.3046551 C23.8900039,42.9640705 24.0223278,42.6247554 24.1609529,42.2872539 C24.1691073,42.2674862 24.177447,42.2477185 24.1857868,42.2279508 C24.5605193,41.3197253 24.9745412,40.4225624 25.4122851,39.53483 C25.6502458,39.356014 25.7773806,38.9124198 25.9825383,38.5092678 C26.0249783,38.4298343 26.3567148,37.9000965 26.4554944,37.5948762 C26.7132852,37.0961501 26.9701493,36.5972427 27.2297933,36.0994234 C27.2220095,36.102325 27.2142258,36.1052267 27.206442,36.1081284 C27.4662714,35.6300768 27.726842,35.1540201 27.9853741,34.6799583 C28.0422697,34.5758605 28.0997212,34.4715814 28.1569875,34.367121 C28.2498366,34.2008185 28.3426858,34.0346974 28.4353496,33.868939 C29.302127,32.3178102 30.2211667,30.7976931 31.1756041,29.2964369 C31.5162363,28.7607144 32.33001,27.9924949 32.4860558,27.3909406 C32.491801,27.3684526 32.4930983,27.3477781 32.4966195,27.3261969 C34.5676559,24.417445 36.951896,21.73448 39.8111308,19.6086374 C39.4654948,19.9822286 38.730856,21.250081 38.5366327,21.5010762 C37.9422869,22.2696585 37.2969761,22.9851037 36.649256,23.709254 C35.4892903,25.0064858 34.356753,26.3448853 33.350424,27.7601792 C31.5101205,30.3484769 29.9224186,33.0724281 28.4216354,35.8511484 C28.4073651,35.8674704 28.3917976,35.8828856 28.3782687,35.8995702 C27.6239852,36.829377 27.1491758,38.2346964 26.6061658,39.2983431 C28.7550398,38.3030672 31.1311255,37.6547233 33.3365244,36.7709807 C35.5358075,35.8899584 37.6752298,34.9088282 39.7407063,33.7566803 C42.4859647,32.2255005 45.3337092,30.4966439 47.9275549,28.5401868 C50.9000249,26.6963512 53.3978708,24.1584701 55.6027138,21.4952729 C58.2113857,18.3442308 60.6021122,15.1656228 62.0806561,11.3395777 C62.8069552,9.45947102 63.3783203,7.49902413 63.7170992,5.51572652 C63.7319254,5.42922022 63.7508288,5.33545972 63.7714002,5.23807211 C64.1179629,4.55309451 64.4278307,3.85270174 64.6878454,3.13616838 C65.1007554,1.99979833 66.0759494,0.74971874 64.2469509,0.350375165" id="Path" fill="#00CB5C"></path>
                <path d="M67.9670091,35.2488783 C65.8723706,33.8285017 63.0869054,33.4562888 60.5802809,33.4562888 C50.7898758,33.4562888 41.5873498,37.0887116 33.6374498,42.5011001 C29.2813,45.4667531 25.384394,49.2433941 21.9439866,53.1755383 C19.9581784,55.4453483 18.1874814,57.9008822 16.933875,60.631846 C16.0879407,62.4751223 15.5073168,64.3956719 15.1137633,66.3766631 C14.634126,68.7908825 14.2531222,71.2540673 14.0807586,73.7084536 C14.0129113,74.6749447 13.4513082,79.8034874 15.0582697,79.8903243 C15.0490534,80.0167543 15.0468964,80.1372548 15.0567009,80.2453228 C11.567467,85.7011297 9.41164838,92.0951197 7.412506,98.157255 C5.6731835,103.432502 4.1232844,108.752316 3.11714418,114.209653 C1.79255303,121.394547 0.922499596,128.68751 0.508748697,135.975691 C0.419919712,137.542007 0.358935575,139.109088 0.306383328,140.677508 C0.26187079,142.015256 0.216769981,143.353004 0.172845715,144.690751 C0.123823097,146.189931 -0.140114681,147.915959 0.0983313355,149.40634 C0.305795056,150.704304 1.42919738,150.507869 1.47880827,149.216217 C1.53881195,147.656404 1.52900743,146.093531 1.59724692,144.53257 C1.6880368,142.460917 1.78157196,140.389263 1.88295074,138.318184 C2.58868035,123.930989 5.23629392,109.75534 10.1224763,96.1651701 C12.0998527,90.6655621 14.3656781,85.4593635 17.2778177,80.371944 C19.838171,75.8988862 22.917968,71.5685164 26.0660045,67.5353813 C29.1258002,63.6160523 32.306976,59.7873857 36.0560297,56.4667341 C39.0983734,53.7721118 42.4448535,51.4246458 45.8848686,49.2403338 C50.2541566,46.4661428 54.6150126,43.7592791 59.3478523,41.6296706 C61.8080034,40.5227867 64.3146279,39.531813 66.7939958,38.4696865 C67.2401017,38.278607 67.7183663,38.0932656 68.1474123,37.8719654 C69.5786767,37.1338515 69.1074713,36.0221859 67.9670091,35.2488783" id="Path" fill="#00DA7A"></path>
                <path d="M46.2079388,65.4994046 C42.2371077,65.4994046 38.7036878,66.0153676 35.0450034,67.5934053 C31.8868237,68.9553453 29.0086906,70.758327 26.2143132,72.7212608 C22.2836995,75.4819694 19.1876909,78.6950933 17.0205587,82.9524193 C15.7258508,85.4957663 14.7761278,89.094689 15.6456003,91.868757 C16.6698549,95.1360408 19.4821272,97.8610038 23.1860102,97.2852845 C25.4763776,96.9296348 27.5759888,95.4135198 29.3167787,93.986588 C31.3992328,92.2794693 33.0662292,90.2268106 34.4426635,87.9470416 C36.6880169,84.2282451 38.0074456,80.0241763 39.9148245,76.1382064 C40.8199025,74.2938826 41.6945406,72.43638 42.7785679,70.6835864 C43.3152315,69.8155844 43.8865781,68.9558869 44.7007055,68.310843 C45.136272,67.9658446 46.972809,67.3686419 46.2704789,66.5937949 C56.567816,66.729014 65.6901752,74.6374367 67.66692,84.4264702 C67.8510349,85.3388833 67.9949324,86.2586982 68.1469471,87.1767078 C68.2428787,87.7563989 68.2041371,89.8940885 68.7223523,90.2643614 C69.86523,91.0812726 69.384834,88.5996679 69.3357612,88.2423933 C69.2090208,87.3189677 69.0737941,86.3962643 68.931926,85.4751856 C68.1600454,80.4652181 65.9296353,75.8078312 62.2100711,72.2349053 C57.9566107,68.149266 52.2176859,65.4994046 46.2079388,65.4994046" id="Path" fill="#00E189" transform="translate(42.393816, 81.430971) scale(-1, 1) translate(-42.393816, -81.430971) "></path>
            </g>
            <g id="Group" transform="translate(239.750570, 64.704791)">
                <g transform="translate(0.000000, -0.000000)" fill-rule="nonzero" id="Path">
                    <path d="M224.24686,40.1644174 L224.24686,174.461495 C224.24686,179.660343 222.139611,184.367016 218.732649,187.773978 C215.325688,191.180939 210.619015,193.288188 205.420167,193.288188 L205.420167,193.288188 L18.8267198,193.288188 C13.6278721,193.288188 8.9211988,191.180939 5.51423745,187.773978 C2.10727611,184.367016 2.671e-05,179.660343 2.671e-05,174.461495 L2.671e-05,174.461495 L2.671e-05,40.1644174 L224.24686,40.1644174 Z" stroke="#DDE3E9" fill="#F5FCFF"></path>
                    <path d="M224.246833,2.13162821e-14 L224.246833,21.3369189 C224.246833,26.5357666 222.139584,31.2424399 218.732622,34.6494012 C215.325661,38.0563626 210.618988,40.163612 205.42014,40.163612 L205.42014,40.163612 L18.8266931,40.163612 C13.6278454,40.163612 8.92117209,38.0563626 5.51421074,34.6494012 C2.1072494,31.2424399 0,26.5357666 0,21.3369189 L0,21.3369189 L0,2.13162821e-14 L224.246833,2.13162821e-14 Z" stroke="#C5CFD6" fill="#C5CFD6" transform="translate(112.123417, 20.081806) rotate(-180.000000) translate(-112.123417, -20.081806) "></path>
                </g>
                <g transform="translate(25.748430, 67.171209)" fill="#DDE3E9" fill-rule="nonzero" id="Rectangle">
                    <rect x="5.32907052e-15" y="-1.22124533e-15" width="53.105" height="53.105" rx="7.58"></rect>
                    <rect x="5.32907052e-15" y="60.009" width="53.105" height="53.105" rx="7.58"></rect>
                    <rect x="60.54" y="-1.22124533e-15" width="53.105" height="53.105" rx="7.58"></rect>
                    <rect x="60.324" y="60.432" width="53.105" height="53.105" rx="7.58"></rect>
                    <rect x="122.142" y="-1.22124533e-15" width="53.105" height="53.105" rx="7.58"></rect>
                    <rect x="122.194" y="60.432" width="53.105" height="53.105" rx="7.58"></rect>
                </g>
                <g id="Aula_Logo" transform="translate(99.000000, 73.000000)" fill-rule="nonzero">
                    <path d="M14,0.871980279 C21.2603445,0.871980279 27.1457092,6.87921118 27.1457092,14.2898932 C27.1457092,14.3013969 27.1457092,14.3129006 27.1457092,14.3244043 C27.1276767,10.6731306 24.2785381,7.63385374 20.6990823,7.58323747 C17.0272098,7.53032046 14,10.5534922 14,14.2921939 C14,10.5580937 11.0088553,7.53492194 7.33923684,7.58323747 C3.74400258,7.631553 0.879085493,10.6777321 0.854290774,14.3405094 C0.852036709,14.3244043 0.852036709,14.3059984 0.852036709,14.2898932 C0.854290774,6.87921118 6.73965545,0.871980279 14,0.871980279 Z" id="Path" fill="#00C853"></path>
                    <path d="M20.5728546,10.9377157 C22.3873772,10.9377157 23.8592819,12.4400986 23.8592819,14.2921939 C23.8592819,16.1442892 22.3873772,17.6466721 20.5728546,17.6466721 C18.758332,17.6466721 17.2864273,16.1442892 17.2864273,14.2921939 C17.2864273,12.4400986 18.758332,10.9377157 20.5728546,10.9377157 Z M21.6683304,14.2921939 C21.6683304,13.6755957 21.1769441,13.1740345 20.5728546,13.1740345 C19.9687651,13.1740345 19.4773788,13.6755957 19.4773788,14.2921939 C19.4773788,14.9087921 19.9687651,15.4103533 20.5728546,15.4103533 C21.1791982,15.4103533 21.6683304,14.9087921 21.6683304,14.2921939 Z" id="Shape" fill="#8C9EFF"></path>
                    <path d="M7.42714539,10.9377157 C9.24166801,10.9377157 10.7135727,12.4400986 10.7135727,14.2921939 C10.7135727,16.1442892 9.24166801,17.6466721 7.42714539,17.6466721 C5.61262277,17.6466721 4.14071808,16.1442892 4.14071808,14.2921939 C4.14071808,12.4400986 5.61262277,10.9377157 7.42714539,10.9377157 Z M8.52262116,14.2921939 C8.52262116,13.6755957 8.03123491,13.1740345 7.42714539,13.1740345 C6.82305587,13.1740345 6.33166962,13.6755957 6.33166962,14.2921939 C6.33166962,14.9087921 6.82305587,15.4103533 7.42714539,15.4103533 C8.03123491,15.4103533 8.52262116,14.9087921 8.52262116,14.2921939 Z" id="Shape" fill="#8C9EFF"></path>
                    <ellipse id="Oval" fill="#69F0AE" cx="20.5728546" cy="14.2921939" rx="1.09547577" ry="1.11815941"></ellipse>
                    <ellipse id="Oval" fill="#69F0AE" cx="7.42714539" cy="14.2921939" rx="1.09547577" ry="1.11815941"></ellipse>
                    <path d="M14,27.7101068 C21.2513283,27.7101068 27.1276767,21.7212818 27.1457092,14.3244043 C27.1457092,14.335908 27.1457092,14.3474117 27.1457092,14.3589154 L27.1457092,27.7722268 C27.1457092,35.1506984 21.2851393,41.1303205 14.0586057,41.1303205 L0.912896474,41.1303205 C8.1619707,41.1303205 14.033811,35.1115859 14,27.7101068 Z" id="Path" fill="#69F0AE"></path>
                    <path d="M14,14.2921939 C14,10.5534922 17.0272098,7.53032046 20.6990823,7.58323747 C24.2785381,7.63615448 27.1299308,10.6731306 27.1457092,14.3244043 C27.1276767,21.7212818 21.2490742,27.7101068 14,27.7101068 C6.75543391,27.7101068 0.879085493,21.7304848 0.854290774,14.3405094 C0.879085493,10.6754314 3.74400258,7.62925226 7.33923684,7.58093673 C11.0088553,7.5326212 14,10.5557929 14,14.2921939 Z M23.8592819,14.2921939 C23.8592819,12.4400986 22.3873772,10.9377157 20.5728546,10.9377157 C18.758332,10.9377157 17.2864273,12.4400986 17.2864273,14.2921939 C17.2864273,16.1442892 18.758332,17.6466721 20.5728546,17.6466721 C22.3873772,17.6466721 23.8592819,16.1442892 23.8592819,14.2921939 Z M10.7135727,14.2921939 C10.7135727,12.4400986 9.24166801,10.9377157 7.42714539,10.9377157 C5.61262277,10.9377157 4.14071808,12.4400986 4.14071808,14.2921939 C4.14071808,16.1442892 5.61262277,17.6466721 7.42714539,17.6466721 C9.24166801,17.6466721 10.7135727,16.1442892 10.7135727,14.2921939 Z" id="Shape" fill="#FFF9C4"></path>
                    <path d="M14,27.7101068 C14.033811,35.1115859 8.1619707,41.1280197 0.912896474,41.1280197 L0.854290774,41.1280197 L0.854290774,14.3911257 C0.854290774,14.3750205 0.854290774,14.3566146 0.85654484,14.3405094 C0.879085493,21.7304848 6.75543391,27.7101068 14,27.7101068 Z" id="Path" fill="#00C853"></path>
                    <path d="M14,19.6345111 C13.5289003,19.6345111 13.1479633,19.2456861 13.1479633,18.7648316 L13.1479633,14.2921939 C13.1479633,12.2583402 13.9346321,10.3464256 15.3614555,8.91076417 C16.7972951,7.46589975 18.6974722,6.68594906 20.7126067,6.71355793 C24.7113186,6.77107642 27.9797134,10.1853739 28,14.3198028 L28,14.3566146 C28,14.8374692 27.619063,15.2262942 27.1479633,15.2262942 C26.6768636,15.2262942 26.2959266,14.8374692 26.2959266,14.3566146 L26.2959266,14.3221035 C26.2801481,11.1309778 23.7668652,8.49433032 20.690066,8.45061627 C19.1325068,8.43451109 17.6673644,9.03040263 16.5583642,10.1462613 C15.4583803,11.252917 14.8542908,12.7230896 14.8542908,14.2898932 L14.8542908,18.7625308 C14.8520367,19.2456861 14.4710997,19.6345111 14,19.6345111 Z" id="Path" fill="#1A237E"></path>
                    <path d="M14.0586057,42 L0.912896474,42 C0.441796812,42 0.0608597649,41.611175 0.0608597649,41.1303205 C0.0608597649,40.6494659 0.441796812,40.2606409 0.912896474,40.2606409 L14.0586057,40.2606409 C20.8050233,40.2606409 26.2936725,34.6583402 26.2936725,27.7722268 L26.2936725,14.3589154 C26.2936725,13.8780608 26.6746096,13.4892358 27.1457092,13.4892358 C27.6168089,13.4892358 27.9977465,13.8780608 27.9977465,14.3589154 L27.9977465,27.7722268 C28,35.6177486 21.7449686,42 14.0586057,42 Z" id="Path" fill="#1A237E"></path>
                    <path d="M0.854290774,42 C0.383191113,42 0.00225406537,41.611175 0.00225406537,41.1303205 L0.00225406537,14.3911257 C0.00225406537,13.9102712 0.383191113,13.5214462 0.854290774,13.5214462 C1.32539044,13.5214462 1.70632748,13.9102712 1.70632748,14.3911257 L1.70632748,41.1303205 C1.70632748,41.611175 1.32313637,42 0.854290774,42 Z" id="Path" fill="#1A237E"></path>
                    <path d="M0.912896474,42 L0.854290774,42 C0.383191113,42 0.00225406537,41.611175 0.00225406537,41.1303205 C0.00225406537,40.6494659 0.383191113,40.2606409 0.854290774,40.2606409 L0.912896474,40.2606409 C4.19030752,40.2606409 7.27161488,38.9538209 9.58428594,36.5817584 C11.896957,34.209696 13.1637417,31.0599836 13.1479633,27.7147083 C13.1457092,27.2338537 13.5266463,26.842728 13.9954919,26.8404273 C13.9977459,26.8404273 13.9977459,26.8404273 14,26.8404273 C14.4688456,26.8404273 14.8497826,27.2269515 14.8520367,27.7055053 C14.8700692,31.5178307 13.4274674,35.1046836 10.792465,37.8080526 C8.15746257,40.5114215 4.64788279,42 0.912896474,42 Z" id="Path" fill="#1A237E"></path>
                    <path d="M14,28.5797864 C6.31589116,28.5797864 0.0405731766,22.2044371 0.00225406537,14.3635168 C0.00225406537,14.3382087 0,14.3152013 0,14.2898932 C0,6.41216105 6.27982611,0 14,0 C21.7201739,0 28,6.40986031 28,14.2898932 L28,14.3244043 C27.9797134,22.1860312 21.6998873,28.5797864 14,28.5797864 Z M1.70632748,14.2921939 L1.70858155,14.3382087 C1.7311222,21.2312243 7.24456609,26.8404273 14,26.8404273 C20.7621961,26.8404273 26.2778941,21.2243221 26.2936725,14.3221035 L26.2936725,14.2898932 C26.2936725,7.36926869 20.7779746,1.74165982 14,1.74165982 C7.22202544,1.74165982 1.70632748,7.37156943 1.70632748,14.2921939 L1.70632748,14.2921939 C1.70632748,14.2921939 1.70632748,14.2921939 1.70632748,14.2921939 Z" id="Shape" fill="#1A237E"></path>
                    <path d="M20.5728546,18.5163517 C18.2917405,18.5163517 16.4343906,16.6205423 16.4343906,14.2921939 C16.4343906,11.9638455 18.2917405,10.0680362 20.5728546,10.0680362 C22.8539688,10.0680362 24.7113186,11.9638455 24.7113186,14.2921939 C24.7113186,16.6205423 22.8562228,18.5163517 20.5728546,18.5163517 Z M20.5728546,11.8073952 C19.2294317,11.8073952 18.138464,12.9232539 18.138464,14.2921939 C18.138464,15.6634347 19.2316857,16.7769926 20.5728546,16.7769926 C21.9162776,16.7769926 23.0072452,15.6611339 23.0072452,14.2921939 C23.0072452,12.9209532 21.9162776,11.8073952 20.5728546,11.8073952 Z" id="Shape" fill="#1A237E"></path>
                    <path d="M7.42714539,18.5163517 C5.14603123,18.5163517 3.28868137,16.6205423 3.28868137,14.2921939 C3.28868137,11.9638455 5.14603123,10.0680362 7.42714539,10.0680362 C9.70825954,10.0680362 11.5656094,11.9615448 11.5656094,14.2921939 C11.5656094,16.6228431 9.70825954,18.5163517 7.42714539,18.5163517 Z M7.42714539,11.8073952 C6.08372243,11.8073952 4.99275479,12.9232539 4.99275479,14.2921939 C4.99275479,15.6634347 6.08597649,16.7769926 7.42714539,16.7769926 C8.77056835,16.7769926 9.86153598,15.6611339 9.86153598,14.2921939 C9.86153598,12.9209532 8.76831428,11.8073952 7.42714539,11.8073952 Z" id="Shape" fill="#1A237E"></path>
                    <path d="M0.854290774,15.2562038 C0.383191113,15.2562038 0.00225406537,14.8719803 0.00225406537,14.3911257 C0.00225406537,14.3658176 0.00225406537,14.3405094 0.00450813074,14.3152013 C0.042827242,10.1738702 3.32474642,6.76647494 7.33022058,6.71125719 C7.36403156,6.71125719 7.39558847,6.71125719 7.42939945,6.71125719 C9.39494445,6.71125719 11.2432781,7.48430567 12.6453067,8.89695974 C14.069876,10.3326212 14.8542908,12.2491372 14.8542908,14.2921939 C14.8542908,14.7730485 14.4733537,15.1618735 14.0022541,15.1618735 C13.5311544,15.1618735 13.1502174,14.7730485 13.1502174,14.2921939 C13.1502174,12.7184881 12.5461278,11.2414133 11.448398,10.1347576 C10.3506682,9.02810189 8.89228788,8.43451109 7.35276123,8.45061627 C4.26243761,8.49202958 1.7311222,11.13788 1.70858155,14.3451109 L1.70632748,14.388825 C1.69956529,14.8673788 1.32088231,15.2562038 0.854290774,15.2562038 Z" id="Path" fill="#1A237E"></path>
                    <path d="M7.42714539,16.031553 C6.48720013,16.031553 5.72307197,15.2516023 5.72307197,14.2921939 C5.72307197,13.3327855 6.48720013,12.5528348 7.42714539,12.5528348 C8.36709065,12.5528348 9.13121881,13.3327855 9.13121881,14.2921939 C9.13121881,15.2516023 8.36709065,16.031553 7.42714539,16.031553 Z M7.42714539,13.7952342 C7.15891161,13.7952342 6.94026727,14.0184059 6.94026727,14.2921939 C6.94026727,14.5659819 7.15891161,14.7891537 7.42714539,14.7891537 C7.69537917,14.7891537 7.91402351,14.5659819 7.91402351,14.2921939 C7.91402351,14.0184059 7.69537917,13.7952342 7.42714539,13.7952342 Z" id="Shape" fill="#1A237E"></path>
                    <path d="M20.5728546,16.031553 C19.6329094,16.031553 18.8687812,15.2516023 18.8687812,14.2921939 C18.8687812,13.3327855 19.6329094,12.5528348 20.5728546,12.5528348 C21.5127999,12.5528348 22.276928,13.3327855 22.276928,14.2921939 C22.276928,15.2516023 21.5127999,16.031553 20.5728546,16.031553 Z M20.5728546,13.7952342 C20.3046208,13.7952342 20.0859765,14.0184059 20.0859765,14.2921939 C20.0859765,14.5659819 20.3046208,14.7891537 20.5728546,14.7891537 C20.8410884,14.7891537 21.0597327,14.5659819 21.0597327,14.2921939 C21.0597327,14.0184059 20.8410884,13.7952342 20.5728546,13.7952342 Z" id="Shape" fill="#1A237E"></path>
                </g>
                <g transform="translate(15.866430, 13.362209)">
                    <g id="voty_header_subsite_toolbox-a-link" fill="#D8D8D8" fill-rule="nonzero">
                        <path d="M7.64511823,0.000249781704 C10.7716044,-0.0248524758 13.603139,1.84401059 14.8118127,4.72825998 C16.0204864,7.61250936 15.3640624,10.9410687 13.1538086,13.1525776 C10.9422998,15.3640865 7.61374041,16.0192554 4.72949103,14.8105817 C1.84398653,13.6031631 -0.0236214297,10.7716285 0.000225714878,7.64388719 C0.0341137625,3.43549372 3.43672476,0.0328827164 7.64511823,0.000249781704 Z" id="voty_header_subsite_toolbox-a"></path>
                    </g>
                    <g id="voty_header_subsite_toolbox-a-link" fill="#98AAB2" fill-rule="nonzero">
                        <path d="M7.64511823,0.000249781704 C10.7716044,-0.0248524758 13.603139,1.84401059 14.8118127,4.72825998 C16.0204864,7.61250936 15.3640624,10.9410687 13.1538086,13.1525776 C10.9422998,15.3640865 7.61374041,16.0192554 4.72949103,14.8105817 C1.84398653,13.6031631 -0.0236214297,10.7716285 0.000225714878,7.64388719 C0.0341137625,3.43549372 3.43672476,0.0328827164 7.64511823,0.000249781704 Z" id="voty_header_subsite_toolbox-a"></path>
                    </g>
                    <g id="voty_header_subsite_toolbox-b-link" transform="translate(30.576307, 0.000000)" fill="#D8D8D8" fill-rule="nonzero">
                        <path d="M7.64511822,0.000249781704 C10.7716044,-0.0248524758 13.6043941,1.84401059 14.8118127,4.72825998 C16.0204864,7.61250936 15.3640624,10.9410687 13.1538086,13.1525776 C10.9422997,15.3640865 7.61374042,16.0192554 4.72949102,14.8105817 C1.84398652,13.6031631 -0.0236214841,10.7716285 0.000225715916,7.64388719 C0.0341137159,3.43549372 3.43672472,0.0328827164 7.64511822,0.000249781704 Z" id="voty_header_subsite_toolbox-b"></path>
                    </g>
                    <g id="voty_header_subsite_toolbox-b-link" transform="translate(30.576307, 0.000000)" fill="#98AAB2" fill-rule="nonzero">
                        <path d="M7.64511822,0.000249781704 C10.7716044,-0.0248524758 13.6043941,1.84401059 14.8118127,4.72825998 C16.0204864,7.61250936 15.3640624,10.9410687 13.1538086,13.1525776 C10.9422997,15.3640865 7.61374042,16.0192554 4.72949102,14.8105817 C1.84398652,13.6031631 -0.0236214841,10.7716285 0.000225715916,7.64388719 C0.0341137159,3.43549372 3.43672472,0.0328827164 7.64511822,0.000249781704 Z" id="voty_header_subsite_toolbox-b"></path>
                    </g>
                    <g id="voty_header_subsite_toolbox-c-link" transform="translate(61.152488, 0.000000)" fill="#D8D8D8" fill-rule="nonzero">
                        <path d="M7.64511807,0.000249781704 C10.7716042,-0.0248524758 13.604394,1.84401059 14.8118126,4.72825998 C16.0204863,7.61250936 15.3640622,10.9410687 13.1538085,13.1525776 C10.9422996,15.3640865 7.61374017,16.0192554 4.72949087,14.8105817 C1.84524147,13.6031631 -0.0236216331,10.7716285 0.000225566893,7.64388719 C0.0341135669,3.43549372 3.43672457,0.0328827164 7.64511807,0.000249781704 Z" id="voty_header_subsite_toolbox-c"></path>
                    </g>
                    <g id="voty_header_subsite_toolbox-c-link" transform="translate(61.152488, 0.000000)" fill="#98AAB2" fill-rule="nonzero">
                        <path d="M7.64511807,0.000249781704 C10.7716042,-0.0248524758 13.604394,1.84401059 14.8118126,4.72825998 C16.0204863,7.61250936 15.3640622,10.9410687 13.1538085,13.1525776 C10.9422996,15.3640865 7.61374017,16.0192554 4.72949087,14.8105817 C1.84524147,13.6031631 -0.0236216331,10.7716285 0.000225566893,7.64388719 C0.0341135669,3.43549372 3.43672457,0.0328827164 7.64511807,0.000249781704 Z" id="voty_header_subsite_toolbox-c"></path>
                    </g>
                    <line x1="2.317" y1="42.09" x2="190.705" y2="41.861" id="Path" stroke="#DDE3E9" stroke-width="6.276" stroke-linecap="round" stroke-linejoin="round"></line>
                </g>
                <g stroke-linecap="round" stroke-linejoin="round" transform="translate(94.831430, 135.339612)" stroke="#1687D4" stroke-width="2.694">
                    <path d="M2.01717503,27.6641148 C2.01717503,29.2084017 2.84104227,30.6353817 4.17843398,31.4075251 C5.51582569,32.1796686 7.16356024,32.1796686 8.50095195,31.4075251 C9.83834366,30.6353817 10.6622109,29.2084017 10.6622109,27.6641148 C10.6622109,26.1198279 9.83834366,24.6928479 8.50095195,23.9207044 C7.16356024,23.148561 5.51582569,23.148561 4.17843398,23.9207044 C2.84104227,24.6928479 2.01717503,26.1198279 2.01717503,27.6641148 L2.01717503,27.6641148 Z M12.3912181,36.8854864 C11.1708914,34.7570096 8.78880317,33.427472 6.19560903,33.427472 C3.6024149,33.427472 1.22032665,34.7570096 0,36.8854864 M14.4083931,27.6641148 C14.4083931,30.0513755 16.3436503,31.9866327 18.730911,31.9866327 C21.1181718,31.9866327 23.053429,30.0513755 23.053429,27.6641148 C23.053429,25.276854 21.1181718,23.3415969 18.730911,23.3415969 C16.3436503,23.3415969 14.4083931,25.276854 14.4083931,27.6641148 L14.4083931,27.6641148 Z M24.7824361,36.8854864 C23.5621095,34.7570096 21.1800212,33.427472 18.5868271,33.427472 C15.993633,33.427472 13.6115447,34.7570096 12.3912181,36.8854864 M26.7996112,27.6641148 C26.7996112,30.0513755 28.7348684,31.9866327 31.1221291,31.9866327 C33.5093898,31.9866327 35.444647,30.0513755 35.444647,27.6641148 C35.444647,25.276854 33.5093898,23.3415969 31.1221291,23.3415969 C28.7348684,23.3415969 26.7996112,25.276854 26.7996112,27.6641148 L26.7996112,27.6641148 Z M37.1736542,36.8854864 C35.9533275,34.7570096 33.5712393,33.427472 30.9780452,33.427472 C28.384851,33.427472 26.0027628,34.7570096 24.7824361,36.8854864 M9.79770731,18.4427432 L2.44942683,18.4427432 C1.09664574,18.4427432 0,17.3417969 0,15.9837108 L0,2.45903242 C0,1.10094632 1.09664574,-1.51788304e-15 2.44942683,-1.51788304e-15 L9.79770731,-1.51788304e-15 M23.3415968,-1.51788304e-15 L34.422961,-1.51788304e-15 C35.7829762,-1.51788304e-15 36.8854863,1.10094632 36.8854863,2.45903242 L36.8854863,15.9837108 C36.8854863,17.3417969 35.7829762,18.4427432 34.422961,18.4427432 L23.3415968,18.4427432" id="Shape"></path>
                    <polygon id="Path" points="14.985 3.45759627 14.985 15.8495963 24.782 9.65359627"></polygon>
                </g>
                <g stroke-linecap="round" stroke-linejoin="round" transform="translate(34.758789, 75.200079)" id="Path" stroke="#1687D4" stroke-width="2.811">
                    <path d="M11.1175721,33.1471677 L2.46947403,33.1471677 C1.10562118,33.1471677 -8.32667268e-16,32.0055913 -8.32667268e-16,30.5973855 L-8.32667268e-16,2.54978213 C-8.32667268e-16,1.14157634 1.10562118,-8.60422844e-16 2.46947403,-8.60422844e-16 L19.968167,-8.60422844e-16 C20.6228916,0.000595126 21.25059,0.269622504 21.713262,0.74793609 L26.4414816,5.62821908 C26.9045298,6.1066321 27.1645111,6.75540346 27.1642148,7.43176497 L27.1642148,10.1991285"></path>
                    <polygon points="9.87764146 7.64912986 14.8166415 7.64912986 14.8166415 15.2991299 9.87764146 15.2991299"></polygon>
                    <line x1="4.93864146" y1="7.64912986" x2="4.93864146" y2="15.2991299"></line>
                    <line x1="19.7556415" y1="7.64912986" x2="19.7556415" y2="12.7491299"></line>
                    <polygon points="4.93864146 20.3981299 9.87764146 20.3981299 9.87764146 28.0471299 4.93864146 28.0471299"></polygon>
                    <path d="M16.0515812,25.4978213 C16.0515812,28.6861443 17.698958,31.6322762 20.3731607,33.2264377 C23.0473635,34.8205992 26.3421171,34.8205992 29.0163199,33.2264377 C31.6905226,31.6322762 33.3378994,28.6861443 33.3378994,25.4978213 C33.3378994,22.3094983 31.6905226,19.3633664 29.0163199,17.7692048 C26.3421171,16.1750433 23.0473635,16.1750433 20.3731607,17.7692048 C17.698958,19.3633664 16.0515812,22.3094983 16.0515812,25.4978213 Z"></path>
                    <line x1="37.0416415" y1="38.2471299" x2="30.8056415" y2="31.8091299"></line>
                </g>
                <g stroke-linecap="round" stroke-linejoin="round" transform="translate(155.552601, 136.575715)" id="Path" stroke="#1687D4" stroke-width="2.649">
                    <line x1="22.420829" y1="11.8134933" x2="14.475829" y2="11.8134933"></line>
                    <line x1="14.475829" y1="6.51649331" x2="22.420829" y2="6.51649331"></line>
                    <line x1="27.704829" y1="17.9684933" x2="27.704829" y2="36.5554933"></line>
                    <line x1="9.16382899" y1="36.5554933" x2="9.16382899" y2="17.9684933"></line>
                    <line x1="14.460829" y1="17.9684933" x2="14.460829" y2="36.5554933"></line>
                    <line x1="22.406829" y1="17.9684933" x2="22.406829" y2="36.5554933"></line>
                    <path d="M4.95725626,6.3725866 C5.5660321,5.81404374 6.35286789,5.53283668 7.15091836,5.58859423 C8.17336507,5.65710186 9.12843158,6.16114623 9.80519431,6.98941065 C10.481957,7.81767507 10.8247386,8.90201805 10.7578366,10.0029657 C10.674886,11.3759337 10.0887515,12.6571289 9.12845566,13.5645292 C8.1681598,14.4719294 6.91241895,14.9311541 5.6376522,14.8411168 C4.04348182,14.7322133 2.55489712,13.9452518 1.49980057,12.6535825 C0.444704018,11.3619132 -0.090349968,9.67149769 0.01249924,7.95469732 L0.01249924,7.94586858 C0.01249924,3.55748654 3.31564714,0 7.39028657,0 L29.4974164,0 C33.5720559,0 36.8752038,3.55748654 36.8752038,7.94586858 L36.8752038,7.95646307 C36.978053,9.67326344 36.442999,11.363679 35.3879024,12.6553483 C34.3328059,13.9470176 32.8442212,14.7339791 31.2500508,14.8428825 C29.9747773,14.9309008 28.7193182,14.4693575 27.7601845,13.559906 C26.8010509,12.6504545 26.2169126,11.3676897 26.1364244,9.99413691 C26.0717878,8.89466076 26.4155943,7.8126034 27.0921224,6.98628213 C27.7686504,6.15996086 28.7224107,5.65715119 29.7433427,5.58859423 C30.5594811,5.53128199 31.3631549,5.82679112 31.976353,6.40966732"></path>
                </g>
                <g stroke-linecap="round" stroke-linejoin="round" transform="translate(38.389028, 138.899806)" stroke="#1687D4" stroke-width="2.937">
                    <path d="M31.8142563,20.5309551 L20.7199795,31.6252319 L15.2673533,32.7157571 L16.3578785,27.2631309 L27.4521553,16.1688542 C28.0287482,15.5913528 28.8113215,15.2668394 29.6273896,15.2668394 C30.4434578,15.2668394 31.2260311,15.5913528 31.802624,16.1688542 L31.8142563,16.1804864 C32.3917577,16.7570793 32.7162711,17.5396526 32.7162711,18.3557208 C32.7162711,19.1717889 32.3917577,19.9543622 31.8142563,20.5309551 L31.8142563,20.5309551 Z M10.9052524,28.3536562 L2.18105047,28.3536562 C0.976489563,28.3536562 0,27.3771666 0,26.1726057 L0,2.18105047 C0,0.976489563 0.976489563,0 2.18105047,0 L23.9915552,0 C25.1961161,0 26.1726057,0.976489563 26.1726057,2.18105047 L26.1726057,11.9957776" id="Shape"></path>
                    <path d="M13.0863028,23.9915552 L6.54315143,23.9915552 C5.94087097,23.9915552 5.45262619,23.5033104 5.45262619,22.90103 L5.45262619,17.4484038 C5.45262619,16.8461233 5.94087097,16.3578785 6.54315143,16.3578785 L20.7199795,16.3578785" id="Path"></path>
                    <polygon id="Path" points="5.45240243 4.36240243 20.7204024 4.36240243 20.7204024 11.9954024 5.45240243 11.9954024"></polygon>
                </g>
                <g stroke-linecap="round" stroke-linejoin="round" transform="translate(158.511430, 75.933209)" id="Path" stroke-width="2.941">
                    <path d="M23.5374986,32.9252366 C28.2993326,29.7685804 31.1320992,24.4305776 31.0654017,18.739822 C31.0790185,15.3849389 30.1112457,12.0985242 28.279974,9.28091749 L23.842224,14.4678688 C22.5409088,10.2174603 22.5321598,5.67933494 23.8170768,1.42399543 C23.9286704,1.06102595 23.844548,0.66649215 23.5944324,0.379794416 C23.3443169,0.0930966828 22.9634264,-0.045395745 22.5863408,0.0132505812 C16.2409157,1.0494599 10.7931683,5.07783173 7.96839255,10.8225865 L4.43890211,7.15818045 C1.55669504,10.3318485 -0.0264408711,14.4635172 0.00115218123,18.739822 C-0.0655452903,24.4305776 2.76722125,29.7685804 7.52905531,32.9252366" stroke="#1687D4"></path>
                    <path d="M15.6672704,33.1907627 L7.9723002,25.3662442 C6.58864937,24.0306699 6.24190189,21.953623 7.11730351,20.2447412 L7.11730351,20.2447412 C7.79232349,18.9630669 9.03636969,18.0741038 10.4727152,17.8470513 C11.9090607,17.6199988 13.3687802,18.0815599 14.4098356,19.091963 L15.6657962,20.3166065 L16.923231,19.091963 C17.9640087,18.0815588 19.4235314,17.6199779 20.8596742,17.8470443 C22.2958171,18.0741106 23.5396141,18.9631093 24.2142889,20.2447412 L24.2142889,20.2447412 C25.0900602,21.9533117 24.7439177,24.0303161 23.3607664,25.3662442 L15.6672704,33.1907627 Z" stroke="#197ECC"></path>
                </g>
            </g>
            <g id="Group" opacity="0.5" fill-rule="nonzero">
                <path d="M100.622523,62.9202167 C102.995107,59.5372014 107.397943,50.9454531 110.73731,49.7366002 C112.888171,48.9579872 112.261057,57.0121425 112.287619,58.5478933 C112.391059,64.4894709 111.812625,70.3933744 111.098306,76.2850671 C109.81139,86.910711 105.603286,96.3736544 99.8315592,105.417171 C96.8615512,110.07061 93.3779674,114.780474 88.5530408,117.683997 C86.3321225,119.021129 83.6597999,119.245009 81.4665036,120.397056 C78.9120899,121.738189 80.3032185,120.654024 79.1520312,123.315852 C77.5533641,127.011443 77.0420191,131.779151 76.302341,135.722479 C72.9061014,153.824497 64.683869,249.516486 66.1092888,267.929699 C66.2358889,269.561765 63.9601822,269.952048 63.8465776,267.959637 C63.2427496,257.395312 68.467811,184.237526 71.103943,160.312826 C73.740075,136.388126 76.4077203,115.251851 79.0825632,106.974654 C82.3275463,96.9326545 88.1881715,84.856375 93.0667327,75.4917761 C95.3327877,71.1411949 97.8028323,66.9404887 100.622523,62.9202167 Z" id="Path" fill="#00BF46"></path>
                <path d="M118.232667,180.260335 C124.406455,175.727786 131.089116,184.282058 125.502474,188.815305 C122.414046,191.321008 119.185275,190.429661 117.367565,188.341526 C116.187581,189.779864 115.083156,191.283787 114.021947,192.554079 C110.788714,196.4249 107.732821,200.388108 104.812273,204.443727 C98.7452846,212.869175 93.5459855,221.770482 88.1097482,230.509021 C82.7448929,239.133483 77.4229353,247.80212 72.5603026,256.64509 C68.4409625,264.137231 62.9504054,272.951133 61.5400717,281.164731 C63.679922,263.74511 71.7996842,247.00177 81.4689047,231.645039 C91.0594463,216.414463 102.065707,199.780983 116.915424,187.761346 C115.404086,185.538823 115.362131,182.366341 118.232667,180.260335 Z" id="Path" fill="#C1DEE2"></path>
                <path d="M1.08016749,137.776798 C4.53501809,138.452453 10.180205,146.267864 13.0280322,149.245596 C16.4124833,152.784213 19.4830205,156.555875 22.377363,160.507638 C28.60829,169.013645 34.180759,178.057297 38.9192532,187.488242 C46.6442394,202.862569 52.8329578,218.644848 57.3243756,235.386629 C60.0737353,245.634878 61.8538319,256.25679 62.908813,266.804526 C63.1080506,268.793766 65.1936324,284.130428 62.1884367,284.543793 C59.4855801,284.916003 60.3203916,272.898351 60.1899983,271.263654 C58.7160439,252.821218 54.3004944,234.876883 48.1585055,217.493963 C46.8206923,213.707259 45.5778165,209.069222 43.4383375,205.661554 C41.8976129,203.207065 43.4272885,204.063024 40.7196676,203.134119 C38.3947436,202.336028 35.7458235,202.531046 33.3650487,201.554117 C28.1930506,199.433114 24.0517638,195.315617 20.4216425,191.173899 C13.3670444,183.124833 7.77663423,174.417004 4.8625896,164.103314 C3.2460791,158.38471 1.76058847,152.632843 0.936232376,146.737407 C0.722985811,145.213611 -1.14507571,137.341613 1.08016749,137.776798 Z" id="Path" fill="#00D97A"></path>
                <path d="M14.7139279,7.74390444 C27.7276347,30.312952 38.4217658,55.1044591 45.3270433,80.2145064 C49.5108174,95.4284121 52.4366561,111.040115 55.3437099,126.539044 C59.8447583,150.537204 64.1022338,174.533513 65.313284,198.957952 C66.5316782,223.523937 68.9409705,251.857914 60.8969126,275.518853 C64.9149599,251.496571 61.0895061,225.926723 60.4121736,201.755353 C60.0884926,190.216333 59.1505252,178.790126 57.9200874,167.318534 C56.7260701,156.190473 54.7753835,145.115402 52.9588548,134.074808 C52.07399,128.697839 51.1446826,123.32896 50.1985186,117.963018 C49.9160562,116.362082 49.7967381,111.611548 48.7811993,110.517879 C47.7590834,109.417008 42.5441129,108.968221 40.9068538,108.160468 C37.6099762,106.533554 34.5088179,104.222641 31.7642122,101.780866 C26.5027672,97.100044 21.9255749,90.9839818 18.3128885,84.954935 C9.95406914,71.0046695 6.61221726,53.9802658 6.78112796,37.8240833 C6.81358198,34.6872827 11.8582625,0.908958894 9.83223769,0.443803434 C9.95422157,0.300941891 10.069609,0.15343305 10.1784096,0 C11.7122841,2.56818831 13.2174593,5.15378089 14.7139279,7.74390444 Z" id="Path" fill="#00DC7F"></path>
                <path d="M155.174794,89.1412385 C155.37559,88.8516145 156.68246,86.8373663 156.024362,86.9660953 C157.364274,86.7039984 154.181396,89.1875968 157.52,87.6636721 C155.934808,89.1607844 156.849673,91.1055567 156.870831,93.1205057 C156.90535,96.3918877 156.358,99.6364437 155.741863,102.837634 C154.768271,107.89774 153.31788,112.817641 151.212666,117.524148 C146.624285,127.780695 138.832979,137.654496 129.583251,144.066814 C125.016916,147.232833 120.541705,148.310746 115.333797,149.768262 C112.044262,150.68907 111.783397,152.390697 110.037304,155.582822 C106.402069,162.231335 102.831574,168.855933 99.6256201,175.728768 C95.7974981,183.935656 92.0813148,192.15159 88.5758755,200.50295 C76.7666787,228.634062 67.155088,257.778314 62.1073742,287.939785 C61.983785,270.165722 66.0955242,251.859958 71.2820855,234.918319 C75.0601835,222.575026 79.9785574,210.676465 85.2244836,198.898357 C86.4956777,196.044972 88.422057,192.374552 88.9618918,189.224291 C89.3398843,187.017062 88.1842496,184.894355 87.655136,182.56921 C85.5923588,173.514666 85.7399985,163.370659 87.5514237,154.267701 C89.5486588,144.229962 95.3245705,139.571107 105.095271,138.149326 C108.668612,137.629253 113.21042,137.819863 116.486997,136.296257 C120.05678,134.6371 121.529368,129.183471 123.559277,125.682671 C129.011543,116.27878 135.489624,107.259875 142.928251,99.3363172 C144.987936,97.1421833 147.202935,95.1179459 149.552802,93.2417262 C151.034627,92.0579358 154.164939,90.5995079 155.174794,89.1412385 Z" id="Path" fill="#00E087"></path>
                <path d="M45.61387,268.743799 L80.2892125,268.743799 C81.8482787,268.743799 83.1121515,270.007672 83.1121515,271.566738 C83.1121515,271.704578 83.1020559,271.842232 83.0819456,271.978596 L80.4018564,290.151803 C79.5848402,295.691845 74.8308861,299.796129 69.230924,299.796129 L56.6721585,299.796129 C51.0721963,299.796129 46.3182422,295.691845 45.501226,290.151803 L42.8211368,271.978596 C42.5936742,270.436212 43.6596284,269.001468 45.2020124,268.774005 C45.3383767,268.753895 45.4760308,268.743799 45.61387,268.743799 Z" id="Path" fill="#C1DEE2"></path>
            </g>
            <g id="Group" opacity="0.5" transform="translate(555.000000, 9.000000)" fill-rule="nonzero">
                <path d="M100.622523,62.9202167 C102.995107,59.5372014 107.397943,50.9454531 110.73731,49.7366002 C112.888171,48.9579872 112.261057,57.0121425 112.287619,58.5478933 C112.391059,64.4894709 111.812625,70.3933744 111.098306,76.2850671 C109.81139,86.910711 105.603286,96.3736544 99.8315592,105.417171 C96.8615512,110.07061 93.3779674,114.780474 88.5530408,117.683997 C86.3321225,119.021129 83.6597999,119.245009 81.4665036,120.397056 C78.9120899,121.738189 80.3032185,120.654024 79.1520312,123.315852 C77.5533641,127.011443 77.0420191,131.779151 76.302341,135.722479 C72.9061014,153.824497 64.683869,249.516486 66.1092888,267.929699 C66.2358889,269.561765 63.9601822,269.952048 63.8465776,267.959637 C63.2427496,257.395312 68.467811,184.237526 71.103943,160.312826 C73.740075,136.388126 76.4077203,115.251851 79.0825632,106.974654 C82.3275463,96.9326545 88.1881715,84.856375 93.0667327,75.4917761 C95.3327877,71.1411949 97.8028323,66.9404887 100.622523,62.9202167 Z" id="Path" fill="#00BD41"></path>
                <path d="M118.232667,180.260335 C124.406455,175.727786 131.089116,184.282058 125.502474,188.815305 C122.414046,191.321008 119.185275,190.429661 117.367565,188.341526 C116.187581,189.779864 115.083156,191.283787 114.021947,192.554079 C110.788714,196.4249 107.732821,200.388108 104.812273,204.443727 C98.7452846,212.869175 93.5459855,221.770482 88.1097482,230.509021 C82.7448929,239.133483 77.4229353,247.80212 72.5603026,256.64509 C68.4409625,264.137231 62.9504054,272.951133 61.5400717,281.164731 C63.679922,263.74511 71.7996842,247.00177 81.4689047,231.645039 C91.0594463,216.414463 102.065707,199.780983 116.915424,187.761346 C115.404086,185.538823 115.362131,182.366341 118.232667,180.260335 Z" id="Path" fill="#00D672"></path>
                <path d="M1.08016749,137.776798 C4.53501809,138.452453 10.180205,146.267864 13.0280322,149.245596 C16.4124833,152.784213 19.4830205,156.555875 22.377363,160.507638 C28.60829,169.013645 34.180759,178.057297 38.9192532,187.488242 C46.6442394,202.862569 52.8329578,218.644848 57.3243756,235.386629 C60.0737353,245.634878 61.8538319,256.25679 62.908813,266.804526 C63.1080506,268.793766 65.1936324,284.130428 62.1884367,284.543793 C59.4855801,284.916003 60.3203916,272.898351 60.1899983,271.263654 C58.7160439,252.821218 54.3004944,234.876883 48.1585055,217.493963 C46.8206923,213.707259 45.5778165,209.069222 43.4383375,205.661554 C41.8976129,203.207065 43.4272885,204.063024 40.7196676,203.134119 C38.3947436,202.336028 35.7458235,202.531046 33.3650487,201.554117 C28.1930506,199.433114 24.0517638,195.315617 20.4216425,191.173899 C13.3670444,183.124833 7.77663423,174.417004 4.8625896,164.103314 C3.2460791,158.38471 1.76058847,152.632843 0.936232376,146.737407 C0.722985811,145.213611 -1.14507571,137.341613 1.08016749,137.776798 Z" id="Path" fill="#00C34B"></path>
                <path d="M14.7139279,7.74390444 C27.7276347,30.312952 38.4217658,55.1044591 45.3270433,80.2145064 C49.5108174,95.4284121 52.4366561,111.040115 55.3437099,126.539044 C59.8447583,150.537204 64.1022338,174.533513 65.313284,198.957952 C66.5316782,223.523937 68.9409705,251.857914 60.8969126,275.518853 C64.9149599,251.496571 61.0895061,225.926723 60.4121736,201.755353 C60.0884926,190.216333 59.1505252,178.790126 57.9200874,167.318534 C56.7260701,156.190473 54.7753835,145.115402 52.9588548,134.074808 C52.07399,128.697839 51.1446826,123.32896 50.1985186,117.963018 C49.9160562,116.362082 49.7967381,111.611548 48.7811993,110.517879 C47.7590834,109.417008 42.5441129,108.968221 40.9068538,108.160468 C37.6099762,106.533554 34.5088179,104.222641 31.7642122,101.780866 C26.5027672,97.100044 21.9255749,90.9839818 18.3128885,84.954935 C9.95406914,71.0046695 6.61221726,53.9802658 6.78112796,37.8240833 C6.81358198,34.6872827 11.8582625,0.908958894 9.83223769,0.443803434 C9.95422157,0.300941891 10.069609,0.15343305 10.1784096,0 C11.7122841,2.56818831 13.2174593,5.15378089 14.7139279,7.74390444 Z" id="Path" fill="#00D26A"></path>
                <path d="M155.174794,89.1412385 C155.37559,88.8516145 156.68246,86.8373663 156.024362,86.9660953 C157.364274,86.7039984 154.181396,89.1875968 157.52,87.6636721 C155.934808,89.1607844 156.849673,91.1055567 156.870831,93.1205057 C156.90535,96.3918877 156.358,99.6364437 155.741863,102.837634 C154.768271,107.89774 153.31788,112.817641 151.212666,117.524148 C146.624285,127.780695 138.832979,137.654496 129.583251,144.066814 C125.016916,147.232833 120.541705,148.310746 115.333797,149.768262 C112.044262,150.68907 111.783397,152.390697 110.037304,155.582822 C106.402069,162.231335 102.831574,168.855933 99.6256201,175.728768 C95.7974981,183.935656 92.0813148,192.15159 88.5758755,200.50295 C76.7666787,228.634062 67.155088,257.778314 62.1073742,287.939785 C61.983785,270.165722 66.0955242,251.859958 71.2820855,234.918319 C75.0601835,222.575026 79.9785574,210.676465 85.2244836,198.898357 C86.4956777,196.044972 88.422057,192.374552 88.9618918,189.224291 C89.3398843,187.017062 88.1842496,184.894355 87.655136,182.56921 C85.5923588,173.514666 85.7399985,163.370659 87.5514237,154.267701 C89.5486588,144.229962 95.3245705,139.571107 105.095271,138.149326 C108.668612,137.629253 113.21042,137.819863 116.486997,136.296257 C120.05678,134.6371 121.529368,129.183471 123.559277,125.682671 C129.011543,116.27878 135.489624,107.259875 142.928251,99.3363172 C144.987936,97.1421833 147.202935,95.1179459 149.552802,93.2417262 C151.034627,92.0579358 154.164939,90.5995079 155.174794,89.1412385 Z" id="Path" fill="#00DF87"></path>
                <path d="M45.61387,268.743799 L80.2892125,268.743799 C81.8482787,268.743799 83.1121515,270.007672 83.1121515,271.566738 C83.1121515,271.704578 83.1020559,271.842232 83.0819456,271.978596 L80.4018564,290.151803 C79.5848402,295.691845 74.8308861,299.796129 69.230924,299.796129 L56.6721585,299.796129 C51.0721963,299.796129 46.3182422,295.691845 45.501226,290.151803 L42.8211368,271.978596 C42.5936742,270.436212 43.6596284,269.001468 45.2020124,268.774005 C45.3383767,268.753895 45.4760308,268.743799 45.61387,268.743799 Z" id="Path" fill="#C1DEE2"></path>
            </g>
            <g id="Group" transform="translate(438.180000, 149.221000)" fill-rule="nonzero">
                <path d="M5.27752033,18.9778781 C15.1904017,35.6080319 26.7357574,51.710593 33.6691531,69.8932242 C33.3897545,67.7500456 33.0934994,65.6090869 32.7619027,63.4711748 C31.0026485,52.1381155 28.8161817,40.8877529 26.5185773,29.6511823 C25.3485005,23.9300662 24.111004,18.2296835 22.8417685,12.5297882 C22.1591343,9.46837247 21.4848698,6.40509144 20.7881696,3.34659099 C20.6194136,2.60529118 20.4744177,1.31139587 20.2631434,0 C27.0013032,22.1112496 33.4991612,44.2391719 38.2521137,66.8819839 C38.8756377,69.8536113 39.4066153,72.8199589 39.8415586,75.7811454 C39.9903472,75.1056269 40.1366943,74.429994 40.2968774,73.7563269 C42.2200103,65.6804547 45.1047717,57.6688599 48.5395852,50.1177626 C50.1816298,46.5066466 52.0677495,42.9746123 54.2884848,39.6834756 C55.6732939,37.6319648 58.9391043,35.1932985 60.2023934,33.0922525 C53.2935197,45.7639426 50.7988538,61.6188545 46.8096674,75.3952516 C45.8359844,78.7570865 44.8562527,82.1134638 43.8962887,85.4757537 C49.9121506,73.4111989 59.2458915,63.4987011 72.2230996,59.2030625 C56.5146895,69.5821464 47.0926312,87.7585171 40.7434581,106.348385 C40.7225369,106.56885 40.6976629,106.789318 40.6761606,107.010133 C42.5444848,103.464282 44.8979202,100.257071 48.08757,98.0107861 C54.9142987,93.20204 62.4873715,94.6029096 69.109544,98.7278373 C63.9122532,95.4240817 54.5192337,98.4324687 50.1461994,101.79033 C47.0155809,104.194038 44.3401129,107.418793 42.0167552,110.564857 C41.4600511,111.318991 40.7005415,112.198892 39.8981643,113.137743 C38.7731985,120.440134 36.9399444,127.692478 34.3444527,134.88726 C34.7727767,132.822135 34.4630897,129.519319 34.5818699,127.980032 C34.5947988,127.813378 34.6052862,127.646609 34.6180991,127.48042 C34.2235683,129.055695 33.8423976,130.613064 33.4753967,132.145322 C34.2049421,129.221423 34.6014455,126.169118 34.9109683,123.085265 C34.9906871,121.759949 35.0684294,120.434635 35.1505897,119.109434 C35.12455,116.594319 35.0209589,114.069266 34.8457489,111.540196 C34.2244856,109.082215 33.5288927,106.763739 32.9552409,104.835642 C30.8852027,97.8784591 27.8505942,91.2133011 24.1155296,84.9953527 C20.7076913,79.3211506 16.6285103,74.181411 11.9193517,69.533107 C9.38068957,67.0280307 6.7238562,64.6421538 4.10444045,62.2231304 C3.15724477,61.3486266 1.4642275,59.1984352 0,58.0775854 C10.6637871,63.956617 21.6397683,70.3168845 29.419022,79.7893223 C28.5069937,76.2870528 27.5164006,72.8343447 26.4685292,69.4508222 C21.1524185,52.284459 14.4400187,34.4931821 5.27752033,18.9778781 Z" id="Path" fill="#00DBA5"></path>
                <path d="M15.9315661,113.114119 C15.9315661,132.178101 17.4412475,147.632512 37.7047064,147.632512 C57.9681653,147.632512 59.4778467,132.178101 59.4778467,113.114119" id="Path" fill="#C5CFD6"></path>
            </g>
            <g id="Group" transform="translate(485.838908, 207.817249) scale(-1, 1) translate(-485.838908, -207.817249) translate(412.287920, 121.255409)">
                <g transform="translate(50.449827, 0.000000)" fill-rule="nonzero" id="Path">
                    <path d="M19.9144576,1.77635684e-15 C25.6394409,1.77635684e-15 30.380296,4.2135539 31.2050442,9.7086832 C33.0349469,16.4502937 35.4224365,31.6202088 32.9875124,33.9992715 L17.5869985,33.9992715 L17.5827921,33.9175534 C11.8744946,33.2860576 7.43473081,28.4463693 7.43473081,22.5697186 L7.43473081,11.4176223 C7.43473081,5.1118436 12.5465745,1.77635684e-15 18.8523532,1.77635684e-15 L19.9144576,1.77635684e-15 Z" fill="#191847"></path>
                    <path d="M29.284174,6.9751857 C32.361521,12.7111452 31.9958521,27.2608822 28.0186553,28.2860582 C26.4324866,28.6949145 23.0533987,27.6933197 19.6143487,25.6203597 L21.7733214,40.8914013 L9.02806851,40.8914013 L13.4158212,20.4407116 C10.9687511,17.568371 9.31251651,14.0482693 9.58927191,10.1038909 C10.3866754,-1.26087822 26.206827,1.23922619 29.284174,6.9751857 Z" fill="#EEB695"></path>
                    <path d="M19.1186325,0.5310522 C25.2682333,0.5310522 27.2093015,3.3925326 28.8619867,5.8219708 C27.9731586,8.8717728 25.2428114,10.053371 22.1942067,11.4598036 L21.7104253,11.6840454 L21.7104253,11.6840454 L21.2226869,11.9138551 C20.3391097,12.3349976 19.4426933,12.7923337 18.5687523,13.3343879 C18.0667538,12.9265102 17.426033,12.6817459 16.7281444,12.6817459 C15.1150382,12.6817459 13.8073573,13.9894269 13.8073573,15.6025331 C13.8073573,17.2156392 15.1150382,18.5233202 16.7281444,18.5233202 L16.8608229,18.5196517 C17.4481317,24.8276614 17.2129193,32.0315526 15.4627897,33.7415312 L0.062275811,33.7415312 C-0.795794989,18.8329617 7.49700671,24.6062272 7.49700671,10.5694218 L7.74104871,10.3296127 C8.16871951,9.9075373 8.57887231,9.4962551 8.98539371,9.1336053 L8.96887531,8.7202491 C11.6356463,3.2607845 15.0188987,0.5310522 19.1186325,0.5310522 Z" fill="#191847"></path>
                </g>
                <g transform="translate(21.772896, 84.968590)" fill-rule="nonzero" id="Path">
                    <g transform="translate(0.000000, 22.304000)">
                        <polygon fill="#B0B9C0" points="14.669 0 55.695 0 61.071 65.85 0 65.85"></polygon>
                        <polygon fill-opacity="0.1" fill="#000000" points="14.669 0 27.287 0 34.839 65.85 0 65.85"></polygon>
                    </g>
                    <path d="M102.468848,11.0227807 L102.621924,10.9336754 C107.011952,8.47428333 114.181598,11.814156 114.176622,15.5271249 C114.169985,20.4724837 112.180469,33.4971662 109.908671,46.819194 L109.440588,49.5458345 C106.667261,65.598087 103.652599,81.3119185 103.368761,83.0866808 C102.833217,86.435289 97.096199,87.3197828 96.762114,83.0976548 C96.230528,76.3795363 95.242907,53.1228095 96.231062,42.3581321 C96.638948,37.9147345 97.07822,33.6829892 97.510674,29.9076718 C92.128344,39.6274295 83.804272,53.543864 72.538475,71.65688 L66.422583,68.8626941 C71.225203,53.0394222 75.163279,41.8686133 78.236811,35.3502674 C83.499445,24.1892767 88.434024,14.6313761 90.510829,11.2646832 C93.777711,5.96876617 99.46429,7.81673413 102.468848,11.0227807 Z" fill="#F1C0A6"></path>
                    <path d="M76.3757885,65.5000288 L79.0935535,11.5928258 C81.0523075,2.27151323 97.6308485,6.59753637 97.6240376,11.5928258 C97.6085535,22.9336792 90.7961395,62.1101367 90.7915275,65.4889558 L76.3757885,65.5000288 Z" fill="#0D5094" transform="translate(86.999913, 35.803334) rotate(20.000000) translate(-86.999913, -35.803334) "></path>
                    <g transform="translate(61.046347, 62.489841)" fill="#E4E4E4">
                        <path d="M1.57184584,10.1884755 C0.977729406,11.7744546 0.680671188,12.9611335 0.680671188,13.7485124 C0.680671188,14.7061515 0.840206813,16.1035852 1.15927806,17.9408133 C2.27020664,17.9408133 12.2543089,17.9408133 31.1115847,17.9408133 C31.889939,15.3676037 31.4406277,13.9784107 29.763651,13.7732341 C28.0866743,13.5680576 26.6935812,13.3827996 25.5843719,13.2174602 L11.6628269,7.01116604 C11.3949486,6.89174464 11.0809802,7.01209264 10.9615588,7.27997084 C10.9595158,7.28455354 10.9575379,7.28916484 10.9556256,7.29380354 L10.0607594,9.46452724 L10.0607594,9.46452724 C8.50831757,10.1888596 7.24679741,10.5510258 6.27619891,10.5510258 C5.4876166,10.5510258 4.39858002,10.2325452 3.00908915,9.59558394 L3.00910709,9.59554484 C2.47585872,9.35109654 1.84541107,9.58521534 1.60096285,10.1184637 C1.590427,10.141447 1.58071514,10.1647991 1.57184584,10.1884755 Z" transform="translate(16.081185, 12.452916) rotate(30.000000) translate(-16.081185, -12.452916) "></path>
                    </g>
                    <g transform="translate(94.528052, 77.179293)" fill="#E4E4E4">
                        <path d="M0.891174657,3.22345747 C0.297058218,4.80943657 2.22044605e-16,5.99611547 2.22044605e-16,6.78349437 C2.22044605e-16,7.74113347 0.159535625,9.13856717 0.478606877,10.9757953 C1.58953546,10.9757953 11.5736377,10.9757953 30.4309135,10.9757953 C31.2092678,8.40258567 30.7599565,7.01339267 29.0829798,6.80821607 C27.4060031,6.60303957 26.01291,6.41778157 24.9037007,6.25244217 L10.9821557,0.0461479704 C10.7142774,-0.0732734296 10.400309,0.0470745704 10.2808876,0.31495277 C10.2788446,0.31953547 10.2768667,0.32414677 10.2749544,0.32878547 L9.38008822,2.49950917 L9.38008822,2.49950917 C7.82764639,3.22384157 6.56612623,3.58600777 5.59552773,3.58600777 C4.80694542,3.58600777 3.71790884,3.26752717 2.32841797,2.63056587 L2.32843591,2.63052677 C1.79518754,2.38607847 1.16473989,2.62019727 0.920291667,3.15344567 C0.909755817,3.17642897 0.900043957,3.19978107 0.891174657,3.22345747 Z"></path>
                    </g>
                    <path d="M115.64783,19.3478397 C115.64783,33.4562888 108.947664,66.3657496 108.943424,69.4723084 L94.527685,69.4833814 C96.637703,40.1185941 97.385899,25.2780279 96.772275,24.9616828 C95.851837,24.4871652 59.0405666,28.6370063 48.0002676,28.6370063 C32.0801018,28.6370063 25.494248,18.597659 24.9598467,0 L56.4971029,0 C62.9183714,0.687110886 96.412297,7.44283297 108.851277,9.76520715 C114.176617,10.7594553 115.64783,15.4613251 115.64783,19.3478397 Z" fill="#105BA7"></path>
                </g>
                <g transform="translate(0.000000, 30.257590)">
                    <path d="M26.2914827,43.0863386 L37.1736542,45.2226659 C26.2297741,65.4020176 20.3607679,76.0970857 19.5666353,77.3078703 C17.7798372,80.0321355 19.446956,85.0249179 20.0627828,87.6541515 C16.1994312,88.5439404 17.7230184,82.7906559 12.8340216,83.9918894 C11.925004,84.2152363 11.0441547,84.5098471 10.1825454,84.8053432 L9.714431,84.9661877 C6.52795493,86.0601107 3.58621824,86.9885633 0.426901395,84.1072506 C-0.0846754279,83.64069 -0.459173852,82.1823536 1.28505069,81.4343799 C5.6305501,79.5709046 12.0506595,76.0815846 13.0916808,74.7268898 C14.5112992,72.8795215 18.9112332,62.3326711 26.2914827,43.0863386 Z M133.925082,26.9320017 C132.214068,29.4046716 130.526732,32.0816856 131.210408,32.9482723 C131.894085,33.8148589 133.874546,32.8583832 134.656966,34.2676231 C135.17858,35.2071163 131.840234,36.3309465 124.641931,37.6391136 L110.230474,48.5714803 L104.086232,40.7834136 L123.328679,32.4222499 C126.699507,29.0988089 129.954522,26.57284 133.093723,24.8443433 C134.032404,24.548661 135.636097,24.4593318 133.925082,26.9320017 Z" id="Shape" fill="#F1C0A6" fill-rule="nonzero"></path>
                    <g transform="translate(64.430660, 4.038987)" id="Clipped">
                        <mask id="mask-2" fill="white">
                            <use xlink:href="#path-1"></use>
                        </mask>
                        <g id="voty_header_subsite_toolbox-f"></g>
                        <g id="Group" mask="url(#mask-2)" fill-rule="nonzero">
                            <g transform="translate(-34.691764, -71.293987)" id="Path">
                                <polygon fill="#302A36" points="53.105 157.63 106.21 157.63 106.21 105.087 53.105 105.087"></polygon>
                                <polyline fill="#00C853" points="106.21 105.086 53.105 105.086 79.658 131.358"></polyline>
                                <polyline fill="#302A36" points="0 52.543 53.105 52.543 53.105 105.087 0 105.087"></polyline>
                                <polyline fill="#00C853" points="0 94.578 53.105 94.578 53.105 105.086 0 105.086"></polyline>
                                <polyline fill="#00C853" points="0 73.56 53.105 73.56 53.105 84.069 0 84.069"></polyline>
                                <polyline fill="#302A36" points="106.21 105.086 53.105 105.086 53.105 52.543 106.21 52.543"></polyline>
                                <polygon fill="#302A36" points="69.037 105.086 90.279 105.086 79.658 115.595"></polygon>
                                <polygon fill="#00C853" points="106.21 0 53.105 52.543 53.105 105.087 106.21 52.543"></polygon>
                            </g>
                        </g>
                    </g>
                    <path d="M46.7325939,59.9001819 C65.1451062,59.9001819 78.6889643,59.9001819 87.3641683,59.9001819 C89.220824,59.9001819 88.8709727,57.2476075 88.6025818,55.9091039 C85.5050273,40.4611545 73.4133491,23.8090127 73.4133491,1.81924573 L61.6932904,0.00086521 C51.9992961,15.4267293 48.6469448,34.4190914 46.7325939,59.9001819 Z" id="Path" fill="#DDE3E9" fill-rule="nonzero"></path>
                    <g transform="translate(13.275896, 0.000000)" id="Clipped">
                        <mask id="mask-4" fill="white">
                            <use xlink:href="#path-3"></use>
                        </mask>
                        <g id="voty_header_subsite_toolbox-h"></g>
                        <g id="Group" mask="url(#mask-4)">
                            <g transform="translate(-16.463000, -79.866000)" id="Path">
                                <polygon fill="#302A36" fill-rule="nonzero" points="0 157.104 53.105 157.104 53.105 104.561 0 104.561"></polygon>
                                <polygon fill="none" points="0 157.63 53.105 157.63 26.553 131.358"></polygon>
                                <polyline fill="#00C853" fill-rule="nonzero" points="26.553 131.358 53.105 105.086 0 105.086"></polyline>
                                <polygon fill="#302A36" fill-rule="nonzero" points="52.574 157.63 105.679 157.63 105.679 105.087 52.574 105.087"></polygon>
                                <polygon fill="none" points="53.105 157.63 106.21 157.63 79.658 131.358"></polygon>
                                <polyline fill="#00C853" fill-rule="nonzero" points="106.21 105.086 53.105 105.086 79.658 131.358"></polyline>
                                <polyline fill="#302A36" fill-rule="nonzero" points="0 52.543 53.105 52.543 53.105 105.087 0 105.087"></polyline>
                                <polyline fill="#00C853" fill-rule="nonzero" points="0 94.578 53.105 94.578 53.105 105.086 0 105.086"></polyline>
                                <polyline fill="#302A36" fill-rule="nonzero" points="106.21 105.086 53.105 105.086 53.105 52.543 106.21 52.543"></polyline>
                                <polyline fill="#00C853" fill-rule="nonzero" points="106.21 94.578 53.105 94.578 53.105 99.832 106.21 99.832"></polyline>
                                <polygon fill="#00C853" fill-rule="nonzero" points="53.105 157.63 106.21 157.63 106.21 105.087"></polygon>
                                <polygon fill="#00C853" fill-rule="nonzero" points="106.21 0 53.105 52.543 53.105 105.087 106.21 52.543"></polygon>
                                <polygon fill="#00C853" fill-rule="nonzero" points="0 157.63 53.105 157.63 26.553 131.358"></polygon>
                            </g>
                        </g>
                    </g>
                </g>
            </g>
            <g id="Group" transform="translate(171.699745, 65.319679)">
                <g transform="translate(43.555280, 0.000000)" fill-rule="nonzero" id="Path">
                    <path d="M16.6851594,34.3627199 C22.754522,34.3627199 24.9618721,27.0964521 28.4100585,23.1089216 C30.8771651,20.2559252 35.0877536,21.1066402 36.3340909,17.1125074 C39.468118,7.06890156 31.0799181,8.8817842e-16 20.1369987,8.8817842e-16 C9.1940793,8.8817842e-16 1.8156977,6.19963746 0.222541099,15.5193508 C-1.3706155,24.839064 5.74224,34.3627199 16.6851594,34.3627199 Z" fill="#191847"></path>
                    <path d="M33.2240805,14.4099166 C36.3014275,20.1458761 35.9357586,34.6956131 31.9585618,35.7207891 C30.3723931,36.1296454 26.9933052,35.1280506 23.5542552,33.0550906 L25.7132279,48.3261322 L12.967975,48.3261322 L17.3557277,27.8754425 C14.9086576,25.0031019 13.252423,21.4830002 13.5291784,17.5386218 C14.3265819,6.17385264 30.1467335,8.67395704 33.2240805,14.4099166 Z" fill="#F1C0A6"></path>
                    <path d="M33.9885186,14.4417134 C31.551002,14.8992919 26.6417866,17.2264696 22.7277893,20.5646598 C22.2656096,20.3192073 21.7348785,20.1799837 21.1707812,20.1799837 C19.3650925,20.1799837 17.9012926,21.6065448 17.9012926,23.366297 C17.9012926,24.0847259 18.1452681,24.7476209 18.5568786,25.2805836 C17.7818879,26.55705 17.2531647,27.898652 17.079858,29.2778493 C14.3947498,29.2778493 4.595002,19.1178793 14.3574461,9.55893966 C24.1198902,-8.8817842e-16 38.2278304,13.6458961 33.9885186,14.4417134 Z" fill="#191847"></path>
                </g>
                <g transform="translate(28.908255, 92.403321)" fill-rule="nonzero" id="Path">
                    <polygon fill="#F1C0A6" points="23.367 0 42.82 67.033 51.969 117.363 61.153 117.363 51.986 0"></polygon>
                    <polygon fill-opacity="0.1" fill="#000000" points="23.367 0 42.82 67.033 51.969 117.363 61.153 117.363 51.986 0"></polygon>
                    <path d="M14.6243558,0 C15.9817134,34.8233363 15.4463913,53.8169302 15.1425984,56.9807817 C14.8388056,60.1446332 13.1141511,81.3339893 1.3618369,118.424641 L10.9134934,118.424641 C26.4775008,82.8424983 31.9107467,61.6531422 33.6958206,56.9807817 C35.4808944,52.3084213 40.7530141,33.3148274 48.4500752,0 L14.6243558,0 Z" fill="#F1C0A6"></path>
                    <path d="M22.949083,6.03736456e-14 C28.0090823,23.0662658 36.7607125,59.8858852 49.2039736,110.458858 L62.6359,110.458858 C63.628001,58.5505382 59.40765,24.3861799 52.0990557,6.03736456e-14 L22.949083,6.03736456e-14 Z" fill="#64717D"></path>
                    <path d="M14.5564827,0 C15.8858369,34.8233363 12.4407313,69.1309183 1.7690585,111.00104 L16.1001849,111.00104 C31.6928059,75.9499493 42.8685396,41.8116626 50.506411,0 L14.5564827,0 Z" fill="#73899D"></path>
                    <path d="M7.10542736e-15,125.328931 L0.527028245,116.832096 C3.61270454,117.73458 7.47757833,117.380545 12.1216496,115.769992 C17.1151505,119.307127 23.4013162,121.722381 30.9801465,123.015754 C31.558362,123.114443 31.947107,123.663174 31.8484307,124.241392 C31.8420406,124.278836 31.8336463,124.315911 31.823284,124.352456 L31.0946665,126.922088 L31.0946665,126.922088 L12.1216496,126.922088 L1.05405649,126.922088 L7.10542736e-15,125.328931 Z" fill="#191847"></path>
                    <path d="M49.919,125.328931 L50.4460282,116.832096 C53.5317045,117.73458 57.3965783,117.380545 62.0406496,115.769992 C67.0341505,119.307127 73.3203162,121.722381 80.8991465,123.015754 C81.477362,123.114443 81.866107,123.663174 81.7674307,124.241392 C81.7610406,124.278836 81.7526463,124.315911 81.742284,124.352456 L81.0136665,126.922088 L81.0136665,126.922088 L62.0406496,126.922088 L50.9730565,126.922088 L49.919,125.328931 Z" fill="#191847"></path>
                </g>
                <g transform="translate(0.000000, 36.366929)">
                    <path d="M26.076308,41.4510125 L35.4821869,42.8169932 C25.3858096,64.7226442 19.9730221,76.3076211 19.2438243,77.571924 C17.6031292,80.4166056 19.5326968,85.3713658 20.2870127,87.9942974 C16.4749085,89.0951161 17.6923656,83.2053133 12.8722025,84.6743429 C8.47258125,86.015205 4.84195324,89.0548719 0.48453328,85.4403724 C-0.0511859001,84.9959909 -0.50246364,83.5428735 1.20029842,82.6962084 C5.44249968,80.5868569 11.6710319,76.7270129 12.6392365,75.3044551 C13.9595564,73.3645434 18.4385803,62.0800625 26.076308,41.4510125 L26.076308,41.4510125 Z M98.6667538,47.3319391 L114.697425,60.9224416 C119.194135,62.4796393 122.915647,64.2860725 125.861961,66.3417412 C126.542051,67.0544172 127.326211,68.4562285 124.329961,68.0139189 C121.333712,67.5716093 118.162215,67.2411184 117.674705,68.2395523 C117.187196,69.2379862 118.924243,70.5942377 117.98707,71.9218493 C117.362288,72.8069237 114.877959,70.3043627 110.534082,64.4141663 L94.285479,56.3049252 L98.6667538,47.3319391 Z" id="Shape" fill="#F1C0A6" fill-rule="nonzero"></path>
                    <g transform="translate(62.884508, 2.738641)" id="Clipped">
                        <mask id="mask-6" fill="white">
                            <use xlink:href="#path-5"></use>
                        </mask>
                        <g id="voty_header_subsite_toolbox-j"></g>
                        <g id="Group" mask="url(#mask-6)">
                            <g transform="translate(-28.666253, -50.258249)">
                                <g id="Clipped" stroke="none" stroke-width="1" fill="none" fill-rule="evenodd" transform="translate(0.000000, 0.030000)">
                                    <mask id="mask-8" fill="white">
                                        <use xlink:href="#path-7"></use>
                                    </mask>
                                    <g id="voty_header_subsite_toolbox-l"></g>
                                    <path d="M72.5480591,104.373094 L72.5480591,104.373094 C64.5346548,104.373094 58.038705,97.8783775 58.038705,89.8664942 L58.038705,3.23452e-05 L-4.44349802e-05,3.23452e-05 L-4.44349802e-05,114.146046 L0.067496735,114.146046 L0.067496735,71.6156247 C0.067496735,55.6145156 13.0238483,42.6392985 29.0191081,42.6028688 L29.0191081,42.6019802 L29.0191081,24.4763937 C29.0191081,16.4645103 35.5155022,9.96979357 43.5289066,9.96979357 C51.5423109,9.96979357 58.038705,16.4645103 58.038705,24.4763937 L58.038705,66.8690925 C58.038705,67.5363793 57.9924926,68.1925594 57.9054001,68.8358557 C57.9924926,69.7505983 58.038705,70.6777803 58.038705,71.6156247 L58.038705,114.146046 L87.0578575,114.146046 L87.0578575,89.8664942 C87.0578575,97.8783775 80.5614634,104.373094 72.5480591,104.373094" id="Path" fill="#0671B5" fill-rule="nonzero" mask="url(#mask-8)"></path>
                                </g>
                                <path d="M28.7112559,42.7673771 C28.7224367,42.7673771 28.7336175,42.7669322 28.7452455,42.7669322 L28.7452455,42.767822 C43.9010662,42.8020773 56.3439736,54.3189949 57.7505203,69.0367864 C57.8381779,68.3926077 57.8846901,67.7355277 57.8846901,67.0673258 L57.8846901,24.6164872 C57.8846901,16.5936159 51.3461485,10.0899919 43.2807545,10.0899919 C35.2153606,10.0899919 28.676819,16.5936159 28.676819,24.6164872 L28.676819,42.7669322 L28.6772662,42.7669322 C28.688447,42.7669322 28.6996278,42.7673771 28.7112559,42.7673771" id="Path" stroke="none" fill="#154EA2" fill-rule="nonzero"></path>
                                <path d="M57.8846901,0 L57.8846901,90.0762946 C57.8846901,98.1069249 64.4233318,104.617284 72.4884021,104.617284 C80.5543668,104.617284 87.0925613,98.1069249 87.0925613,90.0762946 L87.0925613,0 L57.8846901,0 Z M29.2078712,42.4841762 C13.070584,42.5206818 0,55.5228983 0,71.5573032 L0,114.176224 L29.2078712,114.176224 L29.2078712,66.8008942 L29.2078712,42.4841762 Z" id="Shape" stroke="none" fill="#0061AA" fill-rule="nonzero"></path>
                                <path d="M58.2812574,69.0674433 C57.3125181,76.1171138 51.1885257,81.5519812 43.7775131,81.5519812 C36.1706009,81.5519812 29.9197444,75.8269712 29.2078712,68.5057342 L29.2078712,114.176224 L58.4157423,114.176224 L58.4157423,71.8348558 C58.4157423,70.9011803 58.3691209,69.978562 58.2812574,69.0674433" id="Path" stroke="none" fill="#00A5D3" fill-rule="nonzero"></path>
                                <path d="M29.2078712,42.4841762 L29.2078712,68.1489652 C29.9100343,75.5017509 36.0756277,81.250987 43.57878,81.250987 C50.8887048,81.250987 56.9291646,75.7931439 57.8846901,68.7130949 C56.4936289,54.01774 44.1920673,42.5183794 29.2078712,42.4841762" id="Path" stroke="#00A5D3" stroke-width="1.062" fill="#00A5D3" fill-rule="nonzero"></path>
                            </g>
                        </g>
                    </g>
                    <path d="M45.3709531,58.6911342 C62.0663454,60.4613082 75.2074505,60.4613082 84.7942685,58.6911342 C85.9820109,58.4718215 86.1693928,56.4832254 85.6185787,55.1335974 C77.0409695,34.1163763 71.1590083,15.7776695 71.1590083,1.17958125 C69.585125,1.97305335 66.8306808,2.09196507 62.8956757,1.53631639 C52.3204093,16.5801157 47.4593359,33.8411543 45.3709531,58.6911342 Z" id="Path" fill="#323337" fill-rule="nonzero"></path>
                    <g transform="translate(12.866255, -0.000000)" id="Clipped">
                        <mask id="mask-10" fill="white">
                            <use xlink:href="#path-9"></use>
                        </mask>
                        <g id="voty_header_subsite_toolbox-n"></g>
                        <g id="Group" mask="url(#mask-10)">
                            <g transform="translate(0.641000, -18.311608)">
                                <g id="Group" stroke="none" stroke-width="1" fill="none" fill-rule="evenodd" transform="translate(0.000000, -0.000000)">
                                    <g id="Clipped">
                                        <mask id="mask-12" fill="white">
                                            <use xlink:href="#path-11"></use>
                                        </mask>
                                        <g id="voty_header_subsite_toolbox-p"></g>
                                        <path d="M86.7037779,124.762117 L86.7037779,124.762117 C77.1267825,124.762117 69.3633304,116.998665 69.3633304,107.42167 L69.3633304,-0.0001008711 L-5.31052203e-05,-0.0001008711 L-5.31052203e-05,136.444204 L0.0806668296,136.444204 L0.0806668296,85.6055142 C0.0806668296,66.478607 15.565087,50.9686964 34.6813731,50.9251501 L34.6813731,50.924088 L34.6813731,29.2576892 C34.6813731,19.6806938 42.4453563,11.9172416 52.0223517,11.9172416 C61.5993472,11.9172416 69.3633304,19.6806938 69.3633304,29.2576892 L69.3633304,79.9317525 C69.3633304,80.7293929 69.3081009,81.513757 69.2040147,82.2827206 C69.3081009,83.3761571 69.3633304,84.484463 69.3633304,85.6055142 L69.3633304,136.444204 L104.044757,136.444204 L104.044757,107.42167 C104.044757,116.998665 96.2807734,124.762117 86.7037779,124.762117" id="Path" fill="#0671B5" fill-rule="nonzero" mask="url(#mask-12)"></path>
                                    </g>
                                </g>
                                <path d="M34.7221579,50.9245597 C34.7354342,50.9245597 34.7487105,50.9240287 34.7625179,50.9240287 L34.7625179,50.9250908 C52.7588149,50.9659818 67.5337493,64.7138612 69.2039085,82.2826612 C69.3079947,81.5136976 69.3632242,80.7293335 69.3632242,79.9316931 L69.3632242,29.2576298 C69.3632242,19.6806344 61.5992409,11.9171823 52.0222455,11.9171823 C42.4452501,11.9171823 34.6812669,19.6806344 34.6812669,29.2576298 L34.6812669,50.9240287 L34.6817979,50.9240287 C34.6950742,50.9240287 34.7083506,50.9245597 34.7221579,50.9245597" id="Path" stroke="none" fill="#154EA2" fill-rule="nonzero"></path>
                                <path d="M34.6814262,50.9250908 C15.564609,50.968637 0.0807199348,66.4785477 0.0807199348,85.6054549 L0.0807199348,136.444144 L34.6814262,136.444144 L34.6814262,79.9316931 L34.6814262,50.9250908 Z" id="Path" stroke="#0061AA" stroke-width="0.531" fill="#0061AA" fill-rule="nonzero"></path>
                                <path d="M69.2039616,82.282555 C68.0563578,90.7469961 60.8016536,97.2725656 52.0222986,97.2725656 C43.0108738,97.2725656 35.6058819,90.3986258 34.762571,81.6081187 L34.762571,136.444038 L69.3632773,136.444038 L69.3632773,85.6053487 C69.3632773,84.4842975 69.3080478,83.3765226 69.2039616,82.282555" id="Path" stroke="#00A5D3" stroke-width="0.531" fill="#00A5D3" fill-rule="nonzero"></path>
                                <path d="M34.762571,50.9250908 L34.762571,81.6082249 C35.6058819,90.3987321 43.0108738,97.2721407 52.0222986,97.2721407 C60.8016536,97.2721407 68.0563578,90.7471023 69.2039616,82.2826612 C67.5332714,64.7138612 52.758868,50.9659818 34.762571,50.9250908" id="Path" stroke="#0671B5" stroke-width="0.531" fill="#0671B5" fill-rule="nonzero"></path>
                            </g>
                        </g>
                    </g>
                </g>
            </g>
            <g id="Group" transform="translate(570.994658, 204.135066) scale(-1, 1) translate(-570.994658, -204.135066) translate(495.198315, 105.017131)" fill-rule="nonzero">
                <g transform="translate(39.979145, 0.000000)" id="Path">
                    <path d="M29.5101957,20.0647846 C32.7279543,26.0624617 32.345601,41.276067 28.1869346,42.3480191 C26.5283968,42.7755296 22.9951421,41.7282404 19.3991855,39.5607066 L21.6566415,55.5285127 L8.32985454,55.5285127 L12.9179469,34.1448703 C10.3591477,31.1414424 8.62727601,27.4606693 8.91666425,23.3362448 C9.75045129,11.4529296 26.292437,14.0671075 29.5101957,20.0647846 Z" fill="#D4A181"></path>
                    <path d="M24.246471,13.5322285 C22.4254535,12.9769457 19.7819759,12.7886315 18.6699434,12.9160245 C19.3025182,11.4004244 19.5535331,9.71186343 19.3488954,8.06775133 C19.1499963,6.4701918 18.4361446,5.10991618 17.7759391,3.6845117 C17.471618,3.02749351 17.1267434,2.3740563 16.6125559,1.87151214 C16.0887614,1.35952318 15.4257078,1.02156928 14.7304325,0.860336177 C14.0189188,0.695298297 13.2749283,0.709040257 12.5623093,0.858814267 C12.2470635,0.925062177 11.9642093,1.06919616 11.6550422,1.14932033 C11.338436,1.23141403 11.1848514,1.03325219 10.9550484,0.834105587 C10.4012426,0.354255817 9.58936554,0.117374747 8.88873404,0.0325953265 C8.10265974,-0.0624793935 7.28699924,0.0560954265 6.53731254,0.314507067 C5.80760504,0.566070097 5.10659104,0.974569067 4.57901324,1.56968126 C4.34410914,1.8345834 4.13088454,2.13610095 3.99230564,2.46899673 C3.93547124,2.60561067 3.92607674,2.68654056 3.78975074,2.73658459 C3.66366944,2.78291337 3.51620614,2.78425623 3.38608644,2.82834691 C2.12790844,3.25448215 1.05217854,4.22662556 0.466448638,5.47481687 C0.124719738,6.2030068 -0.0371541621,7.4850919 0.00718263788,8.92209863 C0.0515194379,10.3591054 1.34906064,14.108666 2.56264674,15.4763274 C3.64590074,16.6970795 5.23815604,17.5026631 6.77480974,17.855299 C5.75485154,19.021128 5.07589964,20.4779555 4.57382714,21.9595812 C4.02848064,23.5690027 3.69096014,25.2412702 3.56632404,26.9451398 C3.44793684,28.5640061 3.43696954,30.2759775 3.81648884,31.8602875 C4.17152304,33.3418684 4.93077424,34.5572939 6.19826174,35.3283659 C6.77884804,35.6815837 7.40351614,35.9469334 8.03179744,36.1894545 C8.65098184,36.4284394 9.27203664,36.6607995 9.92063724,36.7949068 C11.1481663,37.0486184 12.5625644,37.0050648 13.508132,36.0279976 C13.8489258,35.6757646 14.2237266,35.2331569 14.4723611,34.8028588 C14.5617573,34.6481162 14.6156585,34.5469091 14.5070483,34.3956579 C14.3769286,34.2145057 14.1664671,34.0756984 13.9993222,33.9339816 C13.0461455,33.1259808 12.4561222,32.0473036 12.3073836,30.7654064 C12.156477,29.4647539 12.5058575,27.7859511 13.7704119,27.2183229 C15.3313806,26.5176169 17.0504399,27.3219024 18.4378449,28.0716229 C19.0274857,25.9905431 20.2381812,24.1167566 22.1363305,23.1621599 C24.2363119,22.1060876 26.6460131,21.9824994 28.8040617,21.0763801 C29.3664117,20.84026 29.9391764,20.5722245 30.353213,20.0911214 C30.5262241,19.89005 30.729204,19.6292212 30.798281,19.3632896 C30.8890374,19.0139661 30.6637404,18.7210876 30.489709,18.448755 C29.5669261,17.0047742 26.0674885,14.0875113 24.246471,13.5322285 Z" fill="#EDBA09"></path>
                </g>
                <g transform="translate(0.000000, 101.616869)">
                    <ellipse id="Oval" fill="#C5CFD6" cx="42.757" cy="55.806" rx="42.757" ry="40.813"></ellipse>
                    <path d="M116.659346,20.8241202 C119.478993,28.1254887 124.401457,52.1147386 130.316173,88.3496077 L123.555417,90.3222153 C116.440698,74.5753373 111.295405,60.8635925 109.230103,53.6292435 C105.693805,41.2422817 103.003603,30.3424786 102.323665,26.2719708 C100.702265,16.5653227 114.796398,16.0000852 116.659346,20.8241202 Z M95.330014,41.1795252 C74.747341,44.1418167 45.5679268,47.200864 43.0708066,47.5441591 C39.5709859,48.0253018 36.9262988,42.5256979 41.0287843,40.9040971 C44.700642,39.4527117 53.5400704,36.2627841 62.534019,33.3428561 L63.7336877,32.9553087 C70.3320607,30.8345376 76.893713,28.906973 81.441646,27.9647242 C84.609873,27.3083255 87.680611,26.6984569 90.567644,26.1473054 C99.148927,24.5090878 103.594836,39.9900388 95.330014,41.1795252 Z" id="Shape" fill="#D4A181"></path>
                    <path d="M64.724833,5.68434189e-14 C98.884548,8.7044588 116.340135,14.2828006 117.091593,16.7350253 L117.114399,16.8150237 C117.131394,16.8373419 117.148104,16.8597935 117.164526,16.8823784 C123.93426,26.1927037 127.988626,71.6464539 129.319342,75.0498766 L116.347,76.9851712 C111.384735,58.5841645 95.508497,45.7653532 95.930228,23.7266844 C95.816348,23.0801878 95.787576,22.4670967 95.834519,21.8871241 L60.5256814,3.91292093 L60.5256814,5.68434189e-14 L64.724833,5.68434189e-14 Z" id="Path" fill="#00AA47"></path>
                    <path d="M66.6014539,0 C69.4224646,0.810369326 78.992054,4.66323251 89.171674,8.889292 L90.245201,9.33540344 L90.245201,9.33540344 L91.321643,9.78357978 L91.321643,9.78357978 L92.938292,10.4582026 C93.297481,10.608289 93.656492,10.7584314 94.015061,10.9085143 L95.089177,11.3584695 C100.80789,13.7560496 106.345504,16.1088967 110.615866,17.9447059 C119.447941,21.7415746 116.664115,35.42875 111.662633,38.9913656 C111.635282,39.2098079 111.545241,39.3585541 111.384735,39.4250783 C84.478841,50.5766298 63.1938103,44.7254392 56.083419,46.5949827 L52.7945456,36.2202173 L63.4589753,32.561975 C60.2284383,31.9152933 57.2534595,31.3381401 54.7078196,30.8916363 C38.2639998,28.0073998 33.468842,19.2051497 36.3039953,0 L66.6014539,0 Z" id="Path" fill="#03B94F"></path>
                    <path d="M32.6119094,51.5616461 C31.9906849,53.2199894 31.6800726,54.4608136 31.6800726,55.2841186 C31.6800726,56.2854524 31.8468875,57.7466474 32.1805171,59.6677037 C33.3421346,59.6677037 43.7817865,59.6677037 63.4994729,59.6677037 C64.3133416,56.977085 63.8435294,55.5245065 62.0900364,55.3099683 C60.3365434,55.0954301 58.879887,54.9017192 57.7200672,54.7288358 L43.1633167,48.2393639 C42.8832159,48.1144935 42.5549219,48.2403327 42.4300515,48.5204335 C42.4279153,48.5252253 42.4258472,48.530047 42.4238476,48.5348974 L41.4881509,50.8046657 L41.4881509,50.8046657 C39.864875,51.5620477 38.5457948,51.9407386 37.5309104,51.9407386 C36.706347,51.9407386 35.5676204,51.6077265 34.1147305,50.9417023 L34.1147493,50.9416613 C33.5571701,50.6860596 32.8979567,50.9308606 32.6423549,51.4884398 C32.6313383,51.5124717 32.6211833,51.5368894 32.6119094,51.5616461 Z" id="Path" fill="#E4E4E4" transform="translate(47.783274, 53.929407) rotate(64.000000) translate(-47.783274, -53.929407) "></path>
                    <path d="M120.31812,87.4022541 C119.696895,89.0605974 119.386283,90.3014216 119.386283,91.1247266 C119.386283,92.1260604 119.553098,93.5872554 119.886727,95.5083117 C121.048345,95.5083117 131.487997,95.5083117 151.205683,95.5083117 C152.019552,92.817693 151.54974,91.3651145 149.796247,91.1505763 C148.042754,90.9360381 146.586097,90.7423272 145.426277,90.5694438 L130.869527,84.0799719 C130.589426,83.9551015 130.261132,84.0809407 130.136262,84.3610415 C130.134125,84.3658333 130.132057,84.370655 130.130058,84.3755054 L129.194361,86.6452737 L129.194361,86.6452737 C127.571085,87.4026557 126.252005,87.7813466 125.237121,87.7813466 C124.412557,87.7813466 123.273831,87.4483345 121.820941,86.7823103 L121.820959,86.7822693 C121.26338,86.5266676 120.604167,86.7714686 120.348565,87.3290478 C120.337549,87.3530797 120.327394,87.3774974 120.31812,87.4022541 Z" id="Path" fill="#E4E4E4"></path>
                </g>
                <g transform="translate(3.976992, 43.311869)">
                    <path d="M18.9602253,51.6523452 L30.5641874,51.6979781 C24.6889602,70.6642215 21.0305847,82.3301086 19.5890606,86.6956395 L19.4397463,87.1454688 C19.2057252,87.8463271 19.0458848,88.3028992 18.9602253,88.5151851 C17.6753323,91.6994743 20.3943387,96.5490915 21.5570938,99.1552396 C19.8092225,99.9373599 18.9540168,99.0216504 18.0701241,98.0272456 L17.84802,97.7779419 C16.8783585,96.6986421 15.7849203,95.6853373 13.3962867,96.7966146 C12.6034743,97.1654591 11.8451568,97.588754 11.104719,98.015822 L10.6624689,98.2721102 C7.50648137,100.106276 4.61964517,101.822802 0.680930474,99.3924946 C0.061551474,99.0103187 -0.617187126,97.5713575 1.02273107,96.4468854 C2.32665687,95.5527991 3.81412847,94.4446515 5.26103627,93.2976825 L5.83710477,92.8372399 C8.70131797,90.5288279 11.2837506,88.1585918 11.7915253,87.1284519 C12.8763505,84.9276301 15.2659171,73.1022612 18.9602253,51.6523452 L18.9602253,51.6523452 Z M88.7795302,49.4881971 L104.509528,64.83345 C109.086377,66.7857192 112.836453,68.9414187 115.759756,71.3005484 C116.417163,72.0935322 117.132858,73.6129301 114.039791,72.9330213 C110.946723,72.2531125 107.662702,71.6770572 107.081366,72.6829455 C106.500029,73.6888338 108.212984,75.2302121 107.138603,76.5466611 C106.422348,77.4242937 104.013528,74.6327161 99.9121422,68.1719283 L83.5550252,58.5281762 L88.7795302,49.4881971 Z" id="Shape" fill="#D4A181"></path>
                    <path d="M48.7850129,5.12636697 L53.4965605,3.88743628 C63.5317606,23.7394492 79.5451999,41.1742728 101.536878,56.1919072 L87.6785761,76.3875018 C65.0658101,54.2432154 50.2573898,30.6508241 48.7850129,5.12636697 Z" id="Path" fill="#0968AB" transform="translate(75.160945, 40.137469) rotate(5.000000) translate(-75.160945, -40.137469) "></path>
                    <path d="M31.0054596,63.3022385 L73.7622347,63.3022385 C63.8564725,39.2169288 58.9035914,18.756744 58.9035914,1.92168399 L46.0059845,0 C35.8696774,16.3022182 33.0071576,36.3735495 31.0054596,63.3022385 Z" id="Path" fill="#DDE3E9"></path>
                    <path d="M46.5798938,0 C47.5873033,0.0346902573 49.1217174,0.0971916437 51.183136,0.187504159 L51.183136,0.187504159 L54.2996606,9.09379971 C54.6293199,19.9526562 56.5544795,41.8361819 60.0751396,74.7443769 L60.0751396,74.7443769 L32.0472276,74.7447527 C32.1207038,77.017463 32.2418482,79.3114023 32.4106609,81.6265707 L32.4106609,81.6265707 L11.5705618,81.6265707 C14.6878731,46.4571593 26.0719038,19.2483024 45.7226541,0 L45.7226541,0 L45.7325618,0.009 L45.737991,0 L46.5798938,0 Z" id="Path" fill="url(#linearGradient-13)"></path>
                    <path d="M39.8899843,74.9631771 L32.0544178,74.9627033 C31.7114583,64.7708038 32.3259859,55.0053196 33.8980006,45.6662507 C34.6967184,59.8326854 36.6937557,69.5979873 39.8899843,74.9631771 Z" id="Path" fill-opacity="0.1" fill="#000000"></path>
                    <polygon id="Path" fill-opacity="0.2" fill="#FFFFFF" points="38.2860082 57.749 52.1060082 51.324 52.1060082 57.749"></polygon>
                </g>
            </g>
            <g id="Group" transform="translate(29.950000, 101.185620)" fill-rule="nonzero">
                <g transform="translate(55.969667, 0.000000)" id="Path">
                    <path d="M27.1122163,10.3772573 C30.8402112,17.3244577 30.3972285,34.9466077 25.5791272,36.1882662 C23.6577361,36.6834221 19.564671,35.4705426 15.3988199,32.960225 L18.0133333,51.4554319 L2.57333332,51.4554319 L7.88894105,26.686419 C4.92440317,23.2075056 2.91791706,18.9440158 3.25319276,14.1666394 C4.21919243,0.402014953 23.3842213,3.43005695 27.1122163,10.3772573 Z" fill="#D4A181"></path>
                    <path d="M6.70233562,29.7846491 C4.76446372,21.1651871 -0.756217278,15.2895887 0.0869231216,11.4370578 C0.649016722,8.8687039 2.14716472,7.2715348 4.58136702,6.6455504 C5.84031342,1.553632 9.90067392,-0.612159297 16.7624484,0.148176303 C27.0551101,1.2886799 33.3371779,5.5621735 30.6242633,14.9657243 C28.1304568,14.9657243 25.1198994,14.0640384 20.9569242,15.6089168 C19.636029,16.0991005 18.691286,17.6192031 18.1226953,20.1692246 L16.2414632,20.1692246 C14.4156483,17.1430462 12.6153831,16.0310082 10.8406676,16.8331107 C9.06595212,17.6352131 8.66253042,19.5835231 9.63040252,22.6780408 L8.70370552,29.7846491 L6.70233562,29.7846491 Z" fill="#191847"></path>
                </g>
                <g transform="translate(0.000000, 104.840380)" id="Path">
                    <g transform="translate(0.000000, 27.014000)">
                        <polygon fill="#C5CFD6" points="30.637 0 80.338 0 86.85 79.756 12.867 79.756"></polygon>
                        <polygon fill-opacity="0.1" fill="#000000" points="17.771 0 33.056 0 42.205 79.756 0 79.756"></polygon>
                    </g>
                    <path d="M137.000206,13.3504544 L137.185616,13.2424983 C142.503834,10.2637657 151.189368,14.3089066 151.183339,18.8059291 C151.16507,32.4187735 138.739132,96.5760599 138.090357,100.631781 C137.441583,104.687502 130.491578,105.758771 130.086857,100.645072 C129.746778,96.3481326 129.25263,86.464968 129.038277,76.1738425 L129.012466,74.8582646 L129.012466,74.8582646 L128.989896,73.5406484 C128.857635,65.1943454 128.93241,56.8694456 129.443524,51.3027387 C129.937717,45.9203224 130.469941,40.7943212 130.993898,36.2213184 C124.474258,47.9939063 114.389927,64.8495447 100.741579,86.7883924 L93.332595,83.4041688 C99.15064,64.2395564 103.921349,50.7098501 107.644723,42.8150497 C114.020043,29.2972348 119.997947,17.7210285 122.513854,13.6434037 C126.471469,7.22914879 133.360399,9.46737769 137.000206,13.3504544 Z" fill="#D4A181"></path>
                    <path d="M105.388041,79.3333104 L108.684843,14.040823 C111.058472,2.75070797 131.141355,7.98896211 131.132676,14.0392435 C131.112954,27.7752552 122.857053,75.2262532 122.851179,79.31867 L105.388041,79.3333104 Z" fill="#0064A9" transform="translate(118.260359, 43.364293) rotate(20.000000) translate(-118.260359, -43.364293) "></path>
                    <path d="M88.7239772,88.0252513 C88.0042571,89.9461128 87.6443971,91.3833632 87.6443971,92.3370024 C87.6443971,93.4968625 87.8376636,95.189387 88.2241965,97.4145756 C89.5700103,97.4145756 101.665066,97.4145756 124.509362,97.4145756 C125.452285,94.2979911 124.907975,92.6154474 122.876433,92.3669445 C120.844891,92.1184416 119.157254,91.8940634 117.813523,91.6938099 L100.948452,84.1769231 C100.623924,84.0322786 100.243585,84.178103 100.09894,84.5026308 C100.096479,84.5081515 100.094097,84.5137066 100.091793,84.5192945 L99.0077309,87.1483842 L99.0077309,87.1483842 C97.127054,88.0256711 95.5988089,88.4643146 94.4229953,88.4643146 C93.467646,88.4643146 92.1482897,88.0785527 90.4649262,87.3070287 L90.4649242,87.307033 C89.8189368,87.0109622 89.0552476,87.2946257 88.7591768,87.9406132 C88.746442,87.9683988 88.7347014,87.9966294 88.7239772,88.0252513 Z" fill="#E4E4E4" transform="translate(106.301064, 90.767807) rotate(30.000000) translate(-106.301064, -90.767807) "></path>
                    <path d="M128.459913,97.3803752 C127.740193,99.3012367 127.380333,100.738487 127.380333,101.692126 C127.380333,102.851986 127.5736,104.544511 127.960133,106.7697 C129.305947,106.7697 141.401002,106.7697 164.245299,106.7697 C165.188221,103.653115 164.643912,101.970571 162.612369,101.722068 C160.580827,101.473566 158.89319,101.249187 157.549459,101.048934 L140.684388,93.532047 C140.35986,93.3874025 139.979521,93.5332269 139.834876,93.8577547 C139.832416,93.8632754 139.830033,93.8688305 139.827729,93.8744184 L138.743667,96.5035081 L138.743667,96.5035081 C136.86299,97.380795 135.334745,97.8194385 134.158932,97.8194385 C133.203582,97.8194385 131.884226,97.4336766 130.200862,96.6621526 L130.20086,96.6621569 C129.554873,96.3660861 128.791184,96.6497496 128.495113,97.2957371 C128.482378,97.3235227 128.470638,97.3517533 128.459913,97.3803752 Z" fill="#E4E4E4"></path>
                    <path d="M152.965607,23.4334498 C152.965607,40.5211268 144.848816,80.379954 144.84368,84.1425131 L127.38,84.1559243 C129.936142,48.5902859 130.84253,30.6158935 130.099166,30.232747 C128.984119,29.6580273 84.389789,34.6841746 71.0152235,34.6841746 C51.7290342,34.6841746 43.7507239,22.5248564 43.1033333,2.84217094e-14 L81.308557,2.84217094e-14 C89.087483,0.832205493 129.663078,9.01450787 144.732049,11.827289 C151.183333,13.0314888 152.965607,18.7262347 152.965607,23.4334498 Z" fill="#206DBB"></path>
                </g>
                <g transform="translate(36.624426, 37.305380)">
                    <path d="M44.4527981,63.7601763 L56.2912548,86.2952436 C60.6353758,90.084142 63.9956738,93.8012094 66.3721478,97.4464458 C66.8126188,98.5553268 67.0572468,100.485306 63.8925248,98.6291728 C60.7278028,96.7730398 57.3154948,94.9629645 56.3148148,95.8629914 C55.3141358,96.7630183 56.6497398,99.0741699 54.9946048,100.139837 C53.8911818,100.850282 52.2364228,96.912805 50.0303258,88.3274051 L35.4596319,71.8487725 L44.4527981,63.7601763 Z M61.2098698,53.1331811 L79.1211008,71.2231012 C84.3834138,73.5766227 88.6838858,76.1490311 92.0225168,78.9403264 C92.7680178,79.8720014 93.5663518,81.6461431 89.9971128,80.7961868 L89.7149278,80.7293591 L89.7149278,80.7293591 L89.1492268,80.5979292 C85.8483668,79.8421679 82.5805678,79.3037333 81.9415838,80.365897 C81.2478288,81.5191033 83.2009368,83.3388613 81.9297628,84.8417728 C81.0823138,85.8437138 78.3483998,82.5619844 73.7280218,74.9965845 L54.9750568,63.4971159 L61.2098698,53.1331811 Z" id="Shape" fill="#D4A181"></path>
                    <path d="M25.7722331,14.5698457 C41.9575289,31.8003198 61.6989935,43.0431719 88.6236895,53.0146982 L82.6433125,64.9700019 C54.8625545,62.353402 40.010521,60.2629918 28.3686944,43.0055469 C25.446832,38.6742781 20.2229862,23.7707786 17.0936803,16.0314047 L25.7722331,14.5698457 Z" id="Path" fill="#047652" transform="translate(52.858685, 39.769924) rotate(26.000000) translate(-52.858685, -39.769924) "></path>
                    <path d="M6.47857382,73.3239437 L56.0152408,73.3239437 C44.7943561,39.1095643 39.0623023,15.6269414 38.8190792,2.87607475 C38.8066794,2.22602325 37.6058573,1.08054069 37.0745873,1.23055183 C33.1894672,2.32756711 29.032082,1.91738317 24.6024319,1.42108547e-13 C12.8588225,18.8831067 8.79767872,42.1320345 6.47857382,73.3239437 Z" id="Path" fill="#F2F2F2"></path>
                    <path d="M28.8194582,0 C33.2768541,13.4180895 36.894569,26.821178 39.1818026,39.0069322 C42.6037329,51.1484297 47.7538038,65.6430027 57.5463208,80.2683113 L45.6701411,86.4011955 C43.4888871,84.4885114 41.3479192,82.5603967 39.2632958,80.6174162 C36.9819234,86.0323858 33.1145595,89.1503163 27.327381,89.1503163 L27.327381,89.1503163 L0.914465423,89.1503163 C-3.28051528,60.9643227 7.74471492,21.8837337 17.9659049,2.17180008 C18.3562214,1.41906071 19.1872443,0 21.1446442,0 L21.1446442,0 L28.8194582,0 Z" id="Path" fill="#009F6C"></path>
                    <polygon id="Path" fill="#49821B" transform="translate(20.632276, 74.609914) rotate(-52.000000) translate(-20.632276, -74.609914) " points="12.2697757 73.3224138 28.9937757 73.3244138 28.9947757 75.8974138 12.2697757 75.8954138"></polygon>
                </g>
            </g>
        </g>
    </g>
</svg>