<?xml version="1.0" encoding="UTF-8"?>
<svg width="636px" height="544px" viewBox="0 0 636 544" version="1.1" xmlns="http://www.w3.org/2000/svg" xmlns:xlink="http://www.w3.org/1999/xlink">
    <title>start_teaser_m3</title>
    <defs>
        <path d="M72.1148166,0.0099088618 L99.049046,1.89333365 C101.252804,2.0474354 102.914378,3.9588581 102.760276,6.16261575 L102.040802,16.4072315 C101.020857,80.204214 137.897478,96.4677813 129.68645,122.049128 C122.907949,143.167456 58.0265186,165.869569 46.7991874,145.168623 C42.2539326,136.788086 40.1920457,126.652196 39.9585257,115.632311 C37.0897958,124.099324 34.819951,131.387828 33.1503143,137.498362 C30.2703714,148.038372 19.1054472,149.713754 19.1054472,153.774145 L19.1054472,153.774145 L4.39581739,149.713754 C5.39353692,144.197545 -1.54093801,141.51148 0.318375519,129.187788 C8.6490867,73.9711065 31.0320292,33.9460774 67.4672029,9.11270019 L67.8455346,3.72113917 C67.9996363,1.51738152 69.911059,-0.144192885 72.1148166,0.0099088618 Z" id="path-1"></path>
        <linearGradient x1="50%" y1="-2.48949813e-15%" x2="50%" y2="85.432146%" id="linearGradient-3">
            <stop stop-color="#304FFE" offset="0%"></stop>
            <stop stop-color="#00C853" offset="100%"></stop>
        </linearGradient>
    </defs>
    <g id="Page-1" stroke="none" stroke-width="1" fill="none" fill-rule="evenodd">
        <g id="start_teaser_m3" transform="translate(0.000000, 0.026677)">
            <g id="Group" transform="translate(495.284987, 127.373457) rotate(77.000000) translate(-495.284987, -127.373457) translate(392.284499, 7.290161)" fill="#F2F2F2" fill-rule="nonzero">
                <path d="M172.908372,136.644472 C173.146372,126.258472 168.891372,116.686472 164.181372,107.652472 C155.012372,90.0654719 150.426372,79.5434719 151.908372,58.6564719 C152.780372,46.3724719 153.822372,33.3934719 147.552372,22.2384719 C142.987372,14.1154719 133.411372,5.42547195 123.299372,6.89447195 C107.292372,10.5404719 98.3563719,25.7924719 94.9303719,40.9364719 C90.6843719,59.7064719 95.5463719,73.7104719 109.720372,85.7374719 C117.707372,92.5124719 122.212372,99.4914719 124.390372,109.809472 C126.133372,118.060472 125.638372,127.522472 128.619372,135.457472 C133.076372,147.319472 141.123372,154.563472 153.227372,156.766472 C148.859372,133.254472 142.723372,108.960472 132.884372,87.1624719 C132.001372,85.0054719 125.654372,75.7854719 128.295372,73.4564719 C131.204372,70.8924719 136.005372,85.6344719 135.967372,85.5424719 C138.756372,92.0934719 141.109372,98.8564719 143.371372,105.647472 C143.359372,105.649472 143.346372,105.648472 143.333372,105.650472 C145.668372,112.623472 147.943372,119.668472 150.116372,126.759472 C150.960372,129.734472 151.750372,132.726472 152.452372,135.758472 C153.482372,140.207472 153.604372,151.924472 156.525372,155.403472 C157.150372,156.147472 157.786372,156.656472 158.427372,156.989472 C159.597372,161.895472 160.689372,166.812472 161.646372,171.739472 C164.145372,184.607472 165.590372,197.806472 163.970372,210.891472 C163.497372,214.710472 158.638372,227.992472 160.248372,231.383472 C163.191372,237.585472 164.846372,228.021472 165.474372,225.176472 C170.667372,201.614472 168.790372,179.493472 163.124372,156.425472 C168.333372,152.837472 172.811372,140.852472 172.908372,136.644472" id="Path" transform="translate(133.183144, 120.083296) rotate(-18.000000) translate(-133.183144, -120.083296) "></path>
                <path d="M69.0666717,47.1726687 C61.4651607,48.2845902 54.2896781,57.8923051 50.7491777,64.2982149 C46.3680732,72.224824 43.3125807,81.2691039 41.0106542,89.9764728 C37.2182016,104.319916 36.705708,120.239826 36.6587533,134.929954 C36.6530271,136.700174 36.2836881,158.323426 38.811799,157.968692 C41.3164325,157.617407 39.7302791,135.172576 39.9438658,130.524813 C40.3985249,120.606059 39.7188267,110.824139 42.0453759,101.031296 C44.4538094,90.8911921 48.8698436,81.3352213 54.4500113,72.5766833 C55.1663571,71.4526882 56.6820787,67.2734961 58.4039427,68.2388095 C60.0880137,69.1828505 55.4228902,74.7499322 54.7603705,75.8319572 C52.0249718,80.3003409 49.6497501,85.0320441 47.6828054,89.8931074 C43.9974325,99.0006301 42.0825961,108.531304 42.1478746,118.344845 C47.9330397,119.233117 52.9732281,115.845609 54.9138323,110.200911 C56.5904597,105.322025 56.7542287,99.6468558 58.6587577,95.0335885 C59.9706267,91.8565056 62.0572487,89.1583423 64.6088367,86.8770059 C71.3399677,80.8597512 78.3671427,79.3545751 80.3735977,69.3679791 C81.9465807,61.5391087 79.9933787,45.5818275 69.0666717,47.1726687" id="Path" transform="translate(58.743970, 102.517497) scale(-1, 1) rotate(58.000000) translate(-58.743970, -102.517497) "></path>
            </g>
            <g id="Group" transform="translate(0.000000, 170.973323)" fill-rule="nonzero">
                <path d="M9.93785602,35.7363701 C28.6043474,67.0518486 50.3448762,97.3738414 63.400835,131.612719 C62.8747124,127.576998 62.316848,123.545457 61.6924335,119.519653 C58.3796628,98.1788894 54.2624276,76.9938487 49.9359142,55.8347788 C47.7325965,45.061608 45.4023236,34.3274793 43.0122847,23.5942683 C41.7268475,17.8294571 40.457171,12.0611334 39.145247,6.30181171 C38.8274703,4.90590411 38.5544351,2.4694293 38.1565942,0 C50.8449133,41.636678 63.0807311,83.3047517 72.0307975,125.94239 C73.204927,131.538126 74.2047864,137.123918 75.0238081,142.699993 C75.3039851,141.427955 75.5795646,140.155702 75.8811982,138.88715 C79.5025613,123.679846 84.9347228,108.59358 91.4026624,94.3744557 C94.494721,87.5745292 98.0463864,80.9235176 102.228151,74.7261293 C104.835821,70.8630236 110.985519,66.2708832 113.364361,62.3144999 C100.354578,86.1759773 95.6569872,116.031633 88.1451337,141.973334 C86.3116359,148.30385 84.4667482,154.62409 82.659084,160.955464 C93.9872772,138.237255 111.563216,119.571486 136,111.482566 C106.420215,131.026943 88.6779699,165.254031 76.7221336,200.259757 C76.682738,200.674905 76.6358989,201.090058 76.5954089,201.505863 C80.1135643,194.828835 84.5452103,188.789483 90.5514934,184.559607 C103.406592,175.504479 117.667098,178.142392 130.137007,185.909854 C120.350227,179.688703 102.662664,185.353659 94.4280037,191.676694 C88.5328799,196.203004 83.4948291,202.275393 79.119821,208.199601 C78.071517,209.619676 76.6413193,211.276578 75.1303997,213.044484 C73.0120284,226.795282 69.5599117,240.451838 64.6724606,254 C65.4790179,250.11126 64.8958605,243.891877 65.11953,240.993318 C65.1438759,240.679499 65.1636243,240.365464 65.1877517,240.052521 C64.4448288,243.018848 63.7270637,245.951459 63.0359813,248.836783 C64.4097546,243.330925 65.1563919,237.583268 65.7392402,231.776207 C65.8893549,229.280566 66.0357479,226.784927 66.1904602,224.289502 C66.141426,219.553405 65.9463583,214.798592 65.6164284,210.036217 C64.4465561,205.407706 63.1367171,201.041891 62.0564998,197.41118 C58.158506,184.310429 52.4441742,171.759576 45.4108456,160.050843 C38.9937018,149.366014 31.3123836,139.687606 22.4447835,130.934599 C17.6643455,126.217405 12.6613846,121.724669 7.7288832,117.169517 C5.94526254,115.52278 2.75721952,111.473853 0,109.363232 C20.0804874,120.433766 40.7488532,132.410494 55.3976085,150.247606 C53.6802099,143.652644 51.8148695,137.151008 49.841671,130.779652 C39.8311473,98.4544622 27.1913357,64.9525261 9.93785602,35.7363701 Z" id="Path" fill="#DDE3E9"></path>
                <path d="M30,213 C30,248.898509 32.8428117,278 71,278 C109.157188,278 112,248.898509 112,213" id="Path" fill="#C5CFD6"></path>
            </g>
            <g id="Group" transform="translate(32.000000, 12.488365)">
                <g transform="translate(67.014706, 0.000000)">
                    <path d="M422.268907,75.629916 L422.268907,328.518571 C422.268907,338.308283 418.300843,347.171203 411.885351,353.586695 C405.469858,360.002188 396.606938,363.970252 386.817227,363.970252 L386.817227,363.970252 L35.4516807,363.970252 C25.6619694,363.970252 16.7990492,360.002188 10.3835568,353.586695 C3.96806452,347.171203 -1.42108547e-14,338.308283 -1.42108547e-14,328.518571 L-1.42108547e-14,328.518571 L-1.42108547e-14,75.629916 L422.268907,75.629916 Z" id="Path" stroke="#DDE3E9" stroke-width="11.029" fill="#F5FCFF" fill-rule="nonzero"></path>
                    <path d="M422.270588,2.13162821e-14 L422.270588,40.1785714 C422.270588,49.9682827 418.302524,58.8312029 411.887032,65.2466952 C405.471539,71.6621876 396.608619,75.6302521 386.818908,75.6302521 L386.818908,75.6302521 L35.4533618,75.6302521 C25.6636505,75.6302521 16.8007303,71.6621876 10.3852379,65.2466952 C3.96974564,58.8312029 0.00168112,49.9682827 0.00168112,40.1785714 L0.00168112,40.1785714 L0.00168112,2.13162821e-14 L422.270588,2.13162821e-14 Z" id="Path" stroke="#C5CFD6" stroke-width="11.029" fill="#C5CFD6" fill-rule="nonzero" transform="translate(211.136135, 37.815126) rotate(-180.000000) translate(-211.136135, -37.815126) "></path>
                    <g id="screen_modul_3_g1-a-link" transform="translate(29.877385, 25.158516)" fill="#D8D8D8" fill-rule="nonzero">
                        <path d="M14.3961708,0.000470352307 C20.2835132,-0.0467985477 25.615446,3.47237155 27.8914439,8.90356905 C30.1674418,14.3347666 28.9313598,20.6026237 24.7693325,24.7670145 C20.6049418,28.9314052 14.3370846,30.1651237 8.90588713,27.8891258 C3.47232623,25.6154914 -0.044480466,20.2835586 0.00042503403,14.3938527 C0.064238034,6.46922035 6.47153843,0.0619198523 14.3961708,0.000470352307 Z" id="screen_modul_3_g1-a"></path>
                    </g>
                    <g id="screen_modul_3_g1-a-link" transform="translate(29.877385, 25.158516)" fill="#98AAB2" fill-rule="nonzero">
                        <path d="M14.3961708,0.000470352307 C20.2835132,-0.0467985477 25.615446,3.47237155 27.8914439,8.90356905 C30.1674418,14.3347666 28.9313598,20.6026237 24.7693325,24.7670145 C20.6049418,28.9314052 14.3370846,30.1651237 8.90588713,27.8891258 C3.47232623,25.6154914 -0.044480466,20.2835586 0.00042503403,14.3938527 C0.064238034,6.46922035 6.47153843,0.0619198523 14.3961708,0.000470352307 Z" id="screen_modul_3_g1-a"></path>
                    </g>
                    <g id="screen_modul_3_g1-b-link" transform="translate(87.454223, 25.158516)" fill="#D8D8D8" fill-rule="nonzero">
                        <path d="M14.396171,0.000470352307 C20.283513,-0.0467985477 25.617809,3.47237155 27.891444,8.90356905 C30.167442,14.3347666 28.93136,20.6026237 24.769333,24.7670145 C20.604942,28.9314052 14.337085,30.1651237 8.90588703,27.8891258 C3.47232633,25.6154914 -0.044480466,20.2835586 0.000425034018,14.3938527 C0.064238034,6.46922035 6.47153843,0.0619198523 14.396171,0.000470352307 Z" id="screen_modul_3_g1-b"></path>
                    </g>
                    <g id="screen_modul_3_g1-b-link" transform="translate(87.454223, 25.158516)" fill="#98AAB2" fill-rule="nonzero">
                        <path d="M14.396171,0.000470352307 C20.283513,-0.0467985477 25.617809,3.47237155 27.891444,8.90356905 C30.167442,14.3347666 28.93136,20.6026237 24.769333,24.7670145 C20.604942,28.9314052 14.337085,30.1651237 8.90588703,27.8891258 C3.47232633,25.6154914 -0.044480466,20.2835586 0.000425034018,14.3938527 C0.064238034,6.46922035 6.47153843,0.0619198523 14.396171,0.000470352307 Z" id="screen_modul_3_g1-b"></path>
                    </g>
                    <g id="screen_modul_3_g1-c-link" transform="translate(145.030825, 25.158516)" fill="#D8D8D8" fill-rule="nonzero">
                        <path d="M14.3961708,0.000470352307 C20.2835128,-0.0467985477 25.6178088,3.47237155 27.8914438,8.90356905 C30.1674418,14.3347666 28.9313598,20.6026237 24.7693318,24.7670145 C20.6049418,28.9314052 14.3370848,30.1651237 8.90588676,27.8891258 C3.47468976,25.6154914 -0.0444812373,20.2835586 0.000424762712,14.3938527 C0.0642377627,6.46922035 6.47153776,0.0619198523 14.3961708,0.000470352307 Z" id="screen_modul_3_g1-c"></path>
                    </g>
                    <g id="screen_modul_3_g1-c-link" transform="translate(145.030825, 25.158516)" fill="#98AAB2" fill-rule="nonzero">
                        <path d="M14.3961708,0.000470352307 C20.2835128,-0.0467985477 25.6178088,3.47237155 27.8914438,8.90356905 C30.1674418,14.3347666 28.9313598,20.6026237 24.7693318,24.7670145 C20.6049418,28.9314052 14.3370848,30.1651237 8.90588676,27.8891258 C3.47468976,25.6154914 -0.0444812373,20.2835586 0.000424762712,14.3938527 C0.0642377627,6.46922035 6.47153776,0.0619198523 14.3961708,0.000470352307 Z" id="screen_modul_3_g1-c"></path>
                    </g>
                    <g stroke-linecap="round" stroke-linejoin="round" transform="translate(70.767294, 199.463940)" id="Path" stroke="#DDE3E9">
                        <path d="M93.1640964,115.684463 C83.5651759,99.0298228 65.804855,88.7670185 46.5820482,88.7670185 C27.3592414,88.7670185 9.59892048,99.0298228 5.56449128e-16,115.684463" stroke-width="11.06"></path>
                        <g transform="translate(6.244266, 0.000000)">
                            <path d="M10.4203035,29.4808061 C25.873547,45.4056742 49.5388743,50.1678084 69.9489782,41.4596615" stroke-width="9.217" transform="translate(40.184641, 37.622000) rotate(-23.000000) translate(-40.184641, -37.622000) "></path>
                            <path d="M10.0401728,42.2992089 C10.0401728,60.1153826 24.4830352,74.5582451 42.2992089,74.5582451 C60.1153826,74.5582451 74.5582451,60.1153826 74.5582451,42.2992089 C74.5582451,24.4830352 60.1153826,10.0401728 42.2992089,10.0401728 C24.4830352,10.0401728 10.0401728,24.4830352 10.0401728,42.2992089 Z" stroke-width="11.06" transform="translate(42.299209, 42.299209) rotate(-23.000000) translate(-42.299209, -42.299209) "></path>
                        </g>
                    </g>
                    <g stroke-linecap="round" stroke-linejoin="round" transform="translate(161.245294, 178.091958)" id="Path" stroke="#DDE3E9">
                        <path d="M85.6268772,95.8077525 C76.8045345,80.5005166 60.4810701,71.068 42.8134386,71.068 C25.1458071,71.068 8.82234269,80.5005166 0,95.8077525" stroke-width="10.165"></path>
                        <g transform="translate(17.845000, 0.000000)">
                            <path d="M1.84337349,16.5903614 C16.1991943,31.0135432 38.1839121,35.3266167 57.1445783,27.4396324" stroke-width="8.471"></path>
                            <path d="M0,29.4939759 C0,45.783049 13.2049028,58.9879518 29.4939759,58.9879518 C45.783049,58.9879518 58.9879518,45.783049 58.9879518,29.4939759 C58.9879518,13.2049028 45.783049,0 29.4939759,0 C13.2049028,0 0,13.2049028 0,29.4939759 Z" stroke-width="10.165"></path>
                        </g>
                    </g>
                    <g stroke-linecap="round" stroke-linejoin="round" transform="translate(252.573294, 210.159106)" id="Path" stroke="#DDE3E9">
                        <path d="M93.1640964,104.989243 C83.5651759,88.334603 65.804855,78.0717987 46.5820482,78.0717987 C27.3592414,78.0717987 9.59892048,88.334603 0,104.989243" stroke-width="11.06"></path>
                        <g transform="translate(46.540472, 32.668924) rotate(-1.000000) translate(-46.540472, -32.668924) translate(8.575985, 0.657696)">
                            <path d="M75.9289732,64.0224562 C71.7646249,57.1894058 69.688316,49.2859419 69.9551862,41.2886336 L69.9551862,31.9892333 C69.9551862,14.323012 55.6321742,-1.77635684e-15 37.9659529,-1.77635684e-15 C20.296799,-1.77635684e-15 5.97378697,14.323012 5.97378697,31.9892333 L5.97378697,41.2886336 C6.24065718,49.2859419 4.1643483,57.1894058 -5.55111512e-16,64.0224562" stroke-width="11.06"></path>
                            <path d="M5.97525329,37.2747297 C18.2571481,37.2542013 29.9319866,31.9021339 37.9644866,22.6085988 C45.9969866,31.9021339 57.671825,37.2542013 69.9537199,37.2747297" stroke-width="9.217"></path>
                            <path d="M9.8844619,37.0873341 C11.3273206,51.5129885 23.4713814,62.5015893 37.9703519,62.5015893 C52.4693223,62.5015893 64.6104504,51.5129885 66.0562418,37.0873341" stroke-width="11.06"></path>
                        </g>
                    </g>
                    <g transform="translate(54.615187, 68.552991)" fill-rule="nonzero">
                        <path d="M112.315814,99.4978018 C112.315814,104.588137 107.529036,108.714669 101.624247,108.714669 L80.2411152,108.714669 L77.0333133,130.140952 L53.5121995,108.714669 L16.0917176,108.714669 C10.1869286,108.714669 5.4001513,104.588137 5.4001513,99.4978018 L5.4001513,44.196597 C5.4001513,39.1062616 10.1869286,34.9797295 16.0917176,34.9797295 L101.624247,34.9797295 C107.529036,34.9797295 112.315814,39.1062616 112.315814,44.196597 L112.315814,99.4978018 Z" id="Path" stroke="#DDE3E9" stroke-width="9.217" fill="#FFFFFF" transform="translate(58.857983, 82.560341) rotate(-7.000000) translate(-58.857983, -82.560341) "></path>
                        <path d="M301.436631,101.321841 C301.436631,106.412177 296.649854,110.538709 290.745065,110.538709 L269.361933,110.538709 L266.079985,131.194125 L242.633017,110.538709 L205.212535,110.538709 C199.307746,110.538709 194.520969,106.412177 194.520969,101.321841 L194.520969,46.0206371 C194.520969,40.9303017 199.307746,36.8037696 205.212535,36.8037696 L290.745065,36.8037696 C296.649854,36.8037696 301.436631,40.9303017 301.436631,46.0206371 L301.436631,101.321841 Z" id="Path" stroke="#DDE3E9" stroke-width="9.217" fill="#FFFFFF" transform="translate(247.978800, 83.998947) scale(-1, 1) rotate(-4.000000) translate(-247.978800, -83.998947) "></path>
                        <g transform="translate(153.849931, 48.801610) scale(-1, 1) rotate(-4.000000) translate(-153.849931, -48.801610) translate(100.392099, 3.618967)" id="screen_modul_3_g1-d-link">
                            <g fill="#D8D8D8">
                                <path d="M106.915663,61.9373494 C106.915663,66.8240713 102.128886,70.7855422 96.224097,70.7855422 L69.324315,70.3997805 L56.592919,90.3652864 L38.917633,70.142606 L10.691567,70.7855422 C4.786778,70.7855422 0,66.8240713 0,61.9373494 L0,8.8481928 C0,3.96147084 4.786778,0 10.691567,0 L96.224097,0 C102.128886,0 106.915663,3.96147084 106.915663,8.8481928 L106.915663,61.9373494 Z" id="screen_modul_3_g1-d"></path>
                            </g>
                            <g fill="#FFFFFF" stroke="#DDE3E9" stroke-width="9.217">
                                <path d="M106.915663,61.9373494 C106.915663,66.8240713 102.128886,70.7855422 96.224097,70.7855422 L69.324315,70.3997805 L56.592919,90.3652864 L38.917633,70.142606 L10.691567,70.7855422 C4.786778,70.7855422 0,66.8240713 0,61.9373494 L0,8.8481928 C0,3.96147084 4.786778,0 10.691567,0 L96.224097,0 C102.128886,0 106.915663,3.96147084 106.915663,8.8481928 L106.915663,61.9373494 Z" id="screen_modul_3_g1-d"></path>
                            </g>
                        </g>
                    </g>
                    <g stroke-linecap="round" stroke-linejoin="round" transform="translate(208.876157, 110.119495) rotate(5.000000) translate(-208.876157, -110.119495) translate(177.249157, 86.587495)" id="Path" stroke="#0078F0" stroke-width="6.152">
                        <path d="M47.007697,15.7903253 C47.0096045,8.10804634 41.3427034,1.60243578 33.7327609,0.550681041 C26.1228183,-0.501073696 18.9038023,4.22360038 16.8219368,11.6184127 C14.7400713,19.0132251 18.4338641,26.8101881 25.4747892,29.8831 L25.4747892,37.3355364 L37.7793072,37.3355364 L37.7793072,29.8831 C43.3853126,27.4399358 47.0093812,21.9055804 47.007697,15.7903253 L47.007697,15.7903253 Z"></path>
                        <line x1="25.475" y1="46.564" x2="37.779" y2="46.564"></line>
                        <line x1="57.102" y1="18.456" x2="63.254" y2="18.456"></line>
                        <line x1="55.826" y1="32.561" x2="60.178" y2="36.913"></line>
                        <line x1="55.826" y1="4.347" x2="60.178" y2="-1.42108547e-14"></line>
                        <line x1="6.153" y1="18.456" x2="0" y2="18.456"></line>
                        <line x1="7.428" y1="32.561" x2="3.076" y2="36.913"></line>
                        <line x1="7.428" y1="4.347" x2="3.076" y2="0"></line>
                    </g>
                    <path d="M280.104342,152.484958 C282.339262,152.484958 284.167834,151.715727 285.590056,150.177266 C287.012278,148.638804 287.723389,146.741368 287.723389,144.484958 C287.723389,142.228548 287.012278,140.331112 285.590056,138.79265 C284.167834,137.254189 282.339262,136.484958 280.104342,136.484958 C277.869421,136.484958 276.04085,137.254189 274.618627,138.79265 C273.196405,140.331112 272.485294,142.228548 272.485294,144.484958 C272.485294,146.741368 273.196405,148.638804 274.618627,150.177266 C276.04085,151.715727 277.869421,152.484958 280.104342,152.484958 Z M304.485294,152.484958 C306.720215,152.484958 308.548786,151.715727 309.971008,150.177266 C311.393231,148.638804 312.104342,146.741368 312.104342,144.484958 C312.104342,142.228548 311.393231,140.331112 309.971008,138.79265 C308.548786,137.254189 306.720215,136.484958 304.485294,136.484958 C302.250373,136.484958 300.421802,137.254189 298.99958,138.79265 C297.577357,140.331112 296.866246,142.228548 296.866246,144.484958 C296.866246,146.741368 297.577357,148.638804 298.99958,150.177266 C300.421802,151.715727 302.250373,152.484958 304.485294,152.484958 Z M328.866246,152.484958 C331.101167,152.484958 332.929738,151.715727 334.351961,150.177266 C335.774183,148.638804 336.485294,146.741368 336.485294,144.484958 C336.485294,142.228548 335.774183,140.331112 334.351961,138.79265 C332.929738,137.254189 331.101167,136.484958 328.866246,136.484958 C326.631326,136.484958 324.802754,137.254189 323.380532,138.79265 C321.95831,140.331112 321.247199,142.228548 321.247199,144.484958 C321.247199,146.741368 321.95831,148.638804 323.380532,150.177266 C324.802754,151.715727 326.631326,152.484958 328.866246,152.484958 Z" id="Shape" fill="#0078F0" fill-rule="nonzero" transform="translate(304.485294, 144.484958) rotate(4.000000) translate(-304.485294, -144.484958) "></path>
                    <path d="M87.2233893,150.484958 C89.4932306,150.484958 91.3503735,149.715727 92.7948179,148.177266 C94.2392624,146.638804 94.9614841,144.741368 94.9614841,142.484958 C94.9614841,140.228548 94.2392624,138.331112 92.7948179,136.79265 C91.3503735,135.254189 89.4932306,134.484958 87.2233893,134.484958 C84.9535481,134.484958 83.0964052,135.254189 81.6519608,136.79265 C80.2075163,138.331112 79.4852941,140.228548 79.4852941,142.484958 C79.4852941,144.741368 80.2075163,146.638804 81.6519608,148.177266 C83.0964052,149.715727 84.9535481,150.484958 87.2233893,150.484958 Z M111.985294,150.484958 C114.255135,150.484958 116.112278,149.715727 117.556723,148.177266 C119.001167,146.638804 119.723389,144.741368 119.723389,142.484958 C119.723389,140.228548 119.001167,138.331112 117.556723,136.79265 C116.112278,135.254189 114.255135,134.484958 111.985294,134.484958 C109.715453,134.484958 107.85831,135.254189 106.413865,136.79265 C104.969421,138.331112 104.247199,140.228548 104.247199,142.484958 C104.247199,144.741368 104.969421,146.638804 106.413865,148.177266 C107.85831,149.715727 109.715453,150.484958 111.985294,150.484958 Z M136.747199,150.484958 C139.01704,150.484958 140.874183,149.715727 142.318627,148.177266 C143.763072,146.638804 144.485294,144.741368 144.485294,142.484958 C144.485294,140.228548 143.763072,138.331112 142.318627,136.79265 C140.874183,135.254189 139.01704,134.484958 136.747199,134.484958 C134.477357,134.484958 132.620215,135.254189 131.17577,136.79265 C129.731326,138.331112 129.009104,140.228548 129.009104,142.484958 C129.009104,144.741368 129.731326,146.638804 131.17577,148.177266 C132.620215,149.715727 134.477357,150.484958 136.747199,150.484958 Z" id="Shape" fill="#0078F0" fill-rule="nonzero" transform="translate(111.985294, 142.484958) rotate(-6.000000) translate(-111.985294, -142.484958) "></path>
                </g>
                <g transform="translate(450.000000, 96.484958)" fill-rule="nonzero" id="Path">
                    <path d="M120.980481,0.659775373 C117.569531,-0.0853801391 113.803318,-0.0283494469 110.328853,0.0331207603 C91.6953105,0.286514614 73.3974882,9.10851385 61.4888276,23.2046569 C51.3509016,35.2050073 48.5632336,50.1248511 46.5604261,65.2069079 C46.3618554,66.7043905 46.2767038,68.192311 46.1646806,69.6928671 C46.1406008,70.0149026 46.1046557,70.3021051 46.0662677,70.572574 C45.2786154,71.2767494 44.8654207,72.0977182 45.3316606,72.9996227 C43.5965223,76.796774 42.1287042,80.6902286 40.8692283,84.7059407 C37.1623418,96.5259785 33.3915917,108.570724 35.7144157,121 C36.2570826,114.160073 37.3986026,107.165788 38.7638201,100.438216 C38.842341,100.051978 38.9271436,99.6688136 39.0154361,99.2870153 C39.0245096,99.2467182 39.0328852,99.206421 39.0419587,99.1664654 C39.5252987,97.106189 40.1534663,95.1077242 40.9173878,93.1406776 C40.9254144,93.119163 40.933092,93.09799 40.9414675,93.0768169 C41.0423233,92.817959 41.1494608,92.5604671 41.2552023,92.3029753 C41.474014,91.769892 41.6987584,91.2378332 41.9371131,90.7085064 C42.0177279,90.5281938 42.0952019,90.3461737 42.1695351,90.1627876 C43.2817406,87.4369254 43.7514703,84.365464 44.7478138,81.545006 C44.9861685,80.9036668 45.2353416,80.2647182 45.4963801,79.6291846 C45.5117353,79.5919609 45.5274395,79.5547373 45.5431437,79.5175137 C46.2487852,77.8072759 47.028411,76.1178697 47.8527064,74.4462216 C48.3007992,74.1095014 48.5402008,73.2741896 48.9265239,72.5150326 C49.0064407,72.3654551 49.6311184,71.3679302 49.8171258,70.7931838 C50.3025597,69.8540556 50.7862487,68.9145859 51.2751725,67.9771653 C51.2605152,67.9826293 51.245858,67.9880933 51.2312007,67.9935573 C51.7204735,67.0933603 52.2111421,66.1969198 52.6979719,65.3042358 C52.8051094,65.1082141 52.9132938,64.9118509 53.0211292,64.7151463 C53.1959692,64.4019897 53.3708092,64.0891747 53.5453002,63.7770426 C55.1774888,60.8561833 56.9080904,57.9937206 58.7053475,55.1667741 C59.3467763,54.1579797 60.8791561,52.7113808 61.1729989,51.5786215 C61.1838174,51.5362754 61.1862603,51.4973442 61.1928909,51.4567056 C65.0927644,45.9793686 69.5824173,40.9272006 74.9665111,36.9241241 C74.3156597,37.6276165 72.9322952,40.015051 72.5665621,40.4876886 C71.4473769,41.9349705 70.2322217,43.2821925 69.0125298,44.6458066 C66.8282517,47.0885644 64.6956229,49.6088429 62.8006508,52.2739178 C59.3352599,57.1478223 56.3455314,62.2771696 53.5194755,67.5096502 C53.4926039,67.5403853 53.4632894,67.5694129 53.4378137,67.600831 C52.0174571,69.3517074 51.1233653,71.9979998 50.1008482,74.0009041 C54.147294,72.1267458 58.6215918,70.9058791 62.7744772,69.241744 C66.9158461,67.5827314 70.9444939,65.7352102 74.8338979,63.5656534 C80.0033678,60.6823592 85.3658246,57.4268287 90.2501762,53.7427143 C95.8474979,50.2706721 100.551077,45.491705 104.702915,40.4767606 C109.615185,34.5431781 114.117053,28.5576874 116.901231,21.3530376 C118.268891,17.8126952 119.344803,14.1210677 119.982742,10.3864112 C120.01066,10.2235151 120.046256,10.046959 120.084993,9.8635729 C120.73759,8.57372305 121.321087,7.2548456 121.810709,5.90557455 C122.588241,3.76572834 124.424584,1.41176091 120.980481,0.659775373" fill="#00C853"></path>
                    <path d="M127.985552,66.3755429 C124.041234,63.700897 118.796053,63 114.075943,63 C95.6400811,63 78.3112274,69.8400486 63.3411361,80.0318686 C55.1382704,85.6163535 47.8001859,92.7279727 41.3217129,100.132413 C37.5823286,104.406588 34.2480105,109.030491 31.8874019,114.173043 C30.2944619,117.644032 29.2011157,121.260531 28.4600331,124.990844 C27.5568501,129.53695 26.8393994,134.17526 26.5148296,138.797002 C26.3870694,140.616957 25.3295404,150.27428 28.3555356,150.437799 C28.3381809,150.675873 28.3341192,150.902782 28.3525816,151.10628 C21.7821656,161.379859 17.7226426,173.420088 13.9581494,184.835416 C10.6829112,194.768992 7.76436737,204.786488 5.86975096,215.062949 C3.37547423,228.592494 1.7371166,242.325536 0.958001292,256.049575 C0.790731513,258.999033 0.675895087,261.949932 0.576936366,264.903351 C0.493116852,267.422403 0.408189591,269.941454 0.325477824,272.460505 C0.233165584,275.283542 -0.263843516,278.533745 0.185163219,281.340214 C0.575828619,283.784349 2.69125591,283.414451 2.7846759,280.982202 C2.89766608,278.04499 2.87920363,275.102015 3.00770227,272.162642 C3.17866454,268.261606 3.35479629,264.360571 3.545698,260.460615 C4.87462501,233.36875 9.86022447,206.675236 19.0611701,181.084213 C22.7846766,170.728154 27.0513483,160.9246 32.5350646,151.344715 C37.3563483,142.921705 43.1557724,134.767384 49.0836952,127.172773 C54.845456,119.792465 60.8357819,112.582879 67.8954528,106.329912 C73.6243504,101.255793 79.9259531,96.8353874 86.4036876,92.7222099 C94.631293,87.4982583 102.843021,82.4010877 111.755213,78.3909197 C116.387811,76.3065976 121.10792,74.4405404 125.776704,72.4404988 C126.616746,72.0806858 127.517344,71.731678 128.325261,71.3149577 C131.020409,69.9250494 130.133103,67.831723 127.985552,66.3755429" fill="#69F0AE"></path>
                    <path d="M68.1822005,161 C60.7049108,161 54.0512902,161.971586 47.1617897,164.943116 C41.2147667,167.507723 35.7950865,170.902835 30.5331228,174.599146 C23.1315648,179.797709 17.3016133,185.848195 13.2207862,193.86497 C10.7827812,198.65423 8.99440135,205.431196 10.6316652,210.654916 C12.5603919,216.807388 17.8560527,221.93864 24.8306646,220.85453 C29.1435502,220.184822 33.0972314,217.329896 36.375233,214.642906 C40.2966066,211.428309 43.435651,207.563042 46.0275511,203.270114 C50.2556729,196.267419 52.7402285,188.35093 56.3319261,181.033439 C58.0362368,177.560477 59.6832276,174.062699 61.7245096,170.762094 C62.7350762,169.1276 63.8109527,167.508743 65.3439986,166.29409 C66.1641938,165.64444 69.6224924,164.519875 68.2999667,163.060796 C87.690409,163.315421 104.868304,178.207408 108.590622,196.640687 C108.93732,198.358811 109.208287,200.090872 109.494539,201.819534 C109.675183,202.911123 109.60223,206.936508 110.578058,207.633752 C112.730158,209.17204 111.825546,204.499044 111.73314,203.826277 C111.494481,202.087417 111.239842,200.349916 110.972696,198.615475 C109.519203,189.181436 105.319221,180.411324 98.3150805,173.683312 C90.3055845,165.989832 79.498879,161 68.1822005,161" fill="#3EE081" transform="translate(61.000000, 191.000000) scale(-1, 1) translate(-61.000000, -191.000000) "></path>
                </g>
                <g transform="translate(65.000000, 237.984958) scale(-1, 1) translate(-65.000000, -237.984958) translate(0.000000, 96.484958)" fill-rule="nonzero" id="Path">
                    <path d="M120.980481,0.659775373 C117.569531,-0.0853801391 113.803318,-0.0283494469 110.328853,0.0331207603 C91.6953105,0.286514614 73.3974882,9.10851385 61.4888276,23.2046569 C51.3509016,35.2050073 48.5632336,50.1248511 46.5604261,65.2069079 C46.3618554,66.7043905 46.2767038,68.192311 46.1646806,69.6928671 C46.1406008,70.0149026 46.1046557,70.3021051 46.0662677,70.572574 C45.2786154,71.2767494 44.8654207,72.0977182 45.3316606,72.9996227 C43.5965223,76.796774 42.1287042,80.6902286 40.8692283,84.7059407 C37.1623418,96.5259785 33.3915917,108.570724 35.7144157,121 C36.2570826,114.160073 37.3986026,107.165788 38.7638201,100.438216 C38.842341,100.051978 38.9271436,99.6688136 39.0154361,99.2870153 C39.0245096,99.2467182 39.0328852,99.206421 39.0419587,99.1664654 C39.5252987,97.106189 40.1534663,95.1077242 40.9173878,93.1406776 C40.9254144,93.119163 40.933092,93.09799 40.9414675,93.0768169 C41.0423233,92.817959 41.1494608,92.5604671 41.2552023,92.3029753 C41.474014,91.769892 41.6987584,91.2378332 41.9371131,90.7085064 C42.0177279,90.5281938 42.0952019,90.3461737 42.1695351,90.1627876 C43.2817406,87.4369254 43.7514703,84.365464 44.7478138,81.545006 C44.9861685,80.9036668 45.2353416,80.2647182 45.4963801,79.6291846 C45.5117353,79.5919609 45.5274395,79.5547373 45.5431437,79.5175137 C46.2487852,77.8072759 47.028411,76.1178697 47.8527064,74.4462216 C48.3007992,74.1095014 48.5402008,73.2741896 48.9265239,72.5150326 C49.0064407,72.3654551 49.6311184,71.3679302 49.8171258,70.7931838 C50.3025597,69.8540556 50.7862487,68.9145859 51.2751725,67.9771653 C51.2605152,67.9826293 51.245858,67.9880933 51.2312007,67.9935573 C51.7204735,67.0933603 52.2111421,66.1969198 52.6979719,65.3042358 C52.8051094,65.1082141 52.9132938,64.9118509 53.0211292,64.7151463 C53.1959692,64.4019897 53.3708092,64.0891747 53.5453002,63.7770426 C55.1774888,60.8561833 56.9080904,57.9937206 58.7053475,55.1667741 C59.3467763,54.1579797 60.8791561,52.7113808 61.1729989,51.5786215 C61.1838174,51.5362754 61.1862603,51.4973442 61.1928909,51.4567056 C65.0927644,45.9793686 69.5824173,40.9272006 74.9665111,36.9241241 C74.3156597,37.6276165 72.9322952,40.015051 72.5665621,40.4876886 C71.4473769,41.9349705 70.2322217,43.2821925 69.0125298,44.6458066 C66.8282517,47.0885644 64.6956229,49.6088429 62.8006508,52.2739178 C59.3352599,57.1478223 56.3455314,62.2771696 53.5194755,67.5096502 C53.4926039,67.5403853 53.4632894,67.5694129 53.4378137,67.600831 C52.0174571,69.3517074 51.1233653,71.9979998 50.1008482,74.0009041 C54.147294,72.1267458 58.6215918,70.9058791 62.7744772,69.241744 C66.9158461,67.5827314 70.9444939,65.7352102 74.8338979,63.5656534 C80.0033678,60.6823592 85.3658246,57.4268287 90.2501762,53.7427143 C95.8474979,50.2706721 100.551077,45.491705 104.702915,40.4767606 C109.615185,34.5431781 114.117053,28.5576874 116.901231,21.3530376 C118.268891,17.8126952 119.344803,14.1210677 119.982742,10.3864112 C120.01066,10.2235151 120.046256,10.046959 120.084993,9.8635729 C120.73759,8.57372305 121.321087,7.2548456 121.810709,5.90557455 C122.588241,3.76572834 124.424584,1.41176091 120.980481,0.659775373" fill="#3EE081"></path>
                    <path d="M127.985552,66.3755429 C124.041234,63.700897 118.796053,63 114.075943,63 C95.6400811,63 78.3112274,69.8400486 63.3411361,80.0318686 C55.1382704,85.6163535 47.8001859,92.7279727 41.3217129,100.132413 C37.5823286,104.406588 34.2480105,109.030491 31.8874019,114.173043 C30.2944619,117.644032 29.2011157,121.260531 28.4600331,124.990844 C27.5568501,129.53695 26.8393994,134.17526 26.5148296,138.797002 C26.3870694,140.616957 25.3295404,150.27428 28.3555356,150.437799 C28.3381809,150.675873 28.3341192,150.902782 28.3525816,151.10628 C21.7821656,161.379859 17.7226426,173.420088 13.9581494,184.835416 C10.6829112,194.768992 7.76436737,204.786488 5.86975096,215.062949 C3.37547423,228.592494 1.7371166,242.325536 0.958001292,256.049575 C0.790731513,258.999033 0.675895087,261.949932 0.576936366,264.903351 C0.493116852,267.422403 0.408189591,269.941454 0.325477824,272.460505 C0.233165584,275.283542 -0.263843516,278.533745 0.185163219,281.340214 C0.575828619,283.784349 2.69125591,283.414451 2.7846759,280.982202 C2.89766608,278.04499 2.87920363,275.102015 3.00770227,272.162642 C3.17866454,268.261606 3.35479629,264.360571 3.545698,260.460615 C4.87462501,233.36875 9.86022447,206.675236 19.0611701,181.084213 C22.7846766,170.728154 27.0513483,160.9246 32.5350646,151.344715 C37.3563483,142.921705 43.1557724,134.767384 49.0836952,127.172773 C54.845456,119.792465 60.8357819,112.582879 67.8954528,106.329912 C73.6243504,101.255793 79.9259531,96.8353874 86.4036876,92.7222099 C94.631293,87.4982583 102.843021,82.4010877 111.755213,78.3909197 C116.387811,76.3065976 121.10792,74.4405404 125.776704,72.4404988 C126.616746,72.0806858 127.517344,71.731678 128.325261,71.3149577 C131.020409,69.9250494 130.133103,67.831723 127.985552,66.3755429" fill="#69F0AE"></path>
                    <path d="M68.1822005,161 C60.7049108,161 54.0512902,161.971586 47.1617897,164.943116 C41.2147667,167.507723 35.7950865,170.902835 30.5331228,174.599146 C23.1315648,179.797709 17.3016133,185.848195 13.2207862,193.86497 C10.7827812,198.65423 8.99440135,205.431196 10.6316652,210.654916 C12.5603919,216.807388 17.8560527,221.93864 24.8306646,220.85453 C29.1435502,220.184822 33.0972314,217.329896 36.375233,214.642906 C40.2966066,211.428309 43.435651,207.563042 46.0275511,203.270114 C50.2556729,196.267419 52.7402285,188.35093 56.3319261,181.033439 C58.0362368,177.560477 59.6832276,174.062699 61.7245096,170.762094 C62.7350762,169.1276 63.8109527,167.508743 65.3439986,166.29409 C66.1641938,165.64444 69.6224924,164.519875 68.2999667,163.060796 C87.690409,163.315421 104.868304,178.207408 108.590622,196.640687 C108.93732,198.358811 109.208287,200.090872 109.494539,201.819534 C109.675183,202.911123 109.60223,206.936508 110.578058,207.633752 C112.730158,209.17204 111.825546,204.499044 111.73314,203.826277 C111.494481,202.087417 111.239842,200.349916 110.972696,198.615475 C109.519203,189.181436 105.319221,180.411324 98.3150805,173.683312 C90.3055845,165.989832 79.498879,161 68.1822005,161" fill="#3EE081" transform="translate(61.000000, 191.000000) scale(-1, 1) translate(-61.000000, -191.000000) "></path>
                </g>
                <g transform="translate(398.418621, 273.984958) scale(-1, 1) translate(-398.418621, -273.984958) translate(264.000000, 101.484958)">
                    <g transform="translate(86.837242, -0.000000)" fill-rule="nonzero" id="Path">
                        <path d="M42.1433414,16.1339329 C47.9381521,26.9350547 47.249578,54.3329958 39.7603014,56.2634576 C36.773664,57.0333035 30.4113241,55.1475566 23.935865,51.2446031 L28,80 L3.99999997,80 L12.2616017,41.4893378 C7.65406106,36.0807313 4.53566011,29.452516 5.0567763,22.0254539 C6.55833019,0.624979451 36.3485306,5.33281116 42.1433414,16.1339329 Z" fill="#D4A181"></path>
                        <path d="M10.4181384,46.3075201 C7.40590207,32.9064588 -1.17546733,23.7714043 0.135113674,17.781703 C1.00883427,13.7885688 3.33756167,11.3053788 7.12129587,10.3321331 C9.07820737,2.41550092 15.3896485,-0.951751379 26.0556193,0.230376321 C42.0545754,2.00356792 51.819448,8.64775872 47.6024819,23.2678779 C43.7260987,23.2678779 39.0464758,21.8659867 32.57553,24.2678779 C30.5223249,25.0299883 29.0538125,27.3933595 28.1699927,31.3579915 L25.2457978,31.3579915 C22.4077436,26.6530572 19.6094038,24.9241222 16.8507787,26.1711866 C14.0921535,27.418251 13.4650732,30.4473753 14.9695377,35.2585597 L13.529076,46.3075201 L10.4181384,46.3075201 Z" fill="#191847"></path>
                    </g>
                    <g transform="translate(4.837242, 171.000000)" fill-rule="nonzero">
                        <ellipse id="Oval" fill="#C5CFD6" cx="77" cy="100.5" rx="77" ry="73.5"></ellipse>
                        <path d="M204.090229,37.5018287 C209.168086,50.6507477 218.032873,93.8526085 228.684593,159.107411 L216.509253,162.659849 C203.696468,134.301545 194.430392,109.608281 190.711023,96.5800564 C184.34256,74.2725728 179.497817,54.6432898 178.273327,47.3127766 C175.353374,29.8322277 200.735275,28.8143004 204.090229,37.5018287 Z M170.678573,75.1595557 C162.894501,76.2798518 154.427684,77.4078323 145.866506,78.49659 L143.418396,78.8065559 C143.010119,78.8580254 142.601755,78.909396 142.193368,78.9606623 L139.743273,79.2669705 C109.534511,83.0283592 79.89359,86.1640304 76.565792,86.6215241 C70.26302,87.4880065 65.500245,77.5838567 72.888346,74.6635414 C79.471548,72.0613813 95.278407,66.3560763 111.40084,61.1167633 L113.129045,60.5573541 C113.417145,60.4644706 113.705245,60.3717763 113.993293,60.2792917 L115.720555,59.7270609 C126.938467,56.1560209 137.923673,52.9655533 145.66723,51.3612296 C151.37284,50.1791314 156.902884,49.0808288 162.102095,48.0882686 C177.555991,45.1380286 185.56256,73.0174283 170.678573,75.1595557 Z" id="Shape" fill="#F1C0A6"></path>
                        <path d="M116.56215,3.99998377 C178.07984,19.675706 209.51533,29.7216534 210.868619,34.1378261 C210.883678,34.1869684 210.897443,34.2361774 210.909912,34.285453 C210.941594,34.32383 210.971028,34.3633962 210.999964,34.4031921 C223.19147,51.1700095 230.492914,133.02695 232.88938,139.15612 L209.527694,142.641361 C200.591229,109.503279 171.999964,86.4180845 172.759451,46.7289944 C172.554414,45.5649934 172.502576,44.4611243 172.587034,43.416871 L108.999964,11.0467012 L108.999964,3.99998377 L116.56215,3.99998377 Z" id="Path" fill="#70716F" transform="translate(170.944672, 73.320672) rotate(3.000000) translate(-170.944672, -73.320672) "></path>
                        <path d="M119.941763,0 C125.200333,1.51058766 143.480145,8.89160388 162.521413,16.8119804 L164.459961,17.6190941 C177.071374,22.8747191 189.833914,28.2870523 199.206622,32.316337 C215.112045,39.1540062 210.098892,63.8027037 201.091931,70.2187883 C201.042683,70.6119747 200.880506,70.8801196 200.591265,71 C152.136867,91.0826527 113.804991,80.5453361 101,83.9121674 L95.07712,65.2284164 L114.282146,58.6402703 C108.464468,57.475702 103.107008,56.4363434 98.522705,55.6322592 C68.90929,50.4380832 60.273766,34.5862504 65.379549,0 L119.941763,0 Z" id="Path" fill="#919191"></path>
                        <path d="M58.7302558,92.8553985 C57.6115013,95.8418852 57.052124,98.0764674 57.052124,99.5591451 C57.052124,101.362431 57.3525382,103.993874 57.9533666,107.453474 C60.0453052,107.453474 78.8459092,107.453474 114.355179,107.453474 C115.820862,102.607982 114.974785,99.9920559 111.816947,99.6056975 C108.659109,99.219339 106.03584,98.8704882 103.947138,98.5591451 L77.7321166,86.8723578 C77.2276875,86.6474807 76.636468,86.8741025 76.411591,87.3785316 C76.407744,87.387161 76.4040194,87.3958445 76.4004185,87.4045795 L74.7153371,91.4921693 L74.7153371,91.4921693 C71.7920052,92.8561265 69.4164946,93.538105 67.5888051,93.538105 C66.1038509,93.538105 64.0531165,92.9383797 61.4366019,91.7389292 L61.4366074,91.7389173 C60.4325067,91.2786221 59.2453794,91.7194635 58.7850842,92.7235642 C58.7652448,92.7668424 58.746957,92.8108152 58.7302558,92.8553985 Z" id="Path" fill="#E4E4E4" transform="translate(86.052124, 97.119466) rotate(64.000000) translate(-86.052124, -97.119466) "></path>
                        <path d="M207.678132,157.401924 C206.559377,160.388411 206,162.622993 206,164.105671 C206,165.908957 206.300414,168.5404 206.901243,172 C208.993181,172 227.793785,172 263.303055,172 C264.768738,167.154507 263.922661,164.538582 260.764823,164.152223 C257.606985,163.765865 254.983716,163.417014 252.895014,163.105671 L226.679993,151.418884 C226.175564,151.194006 225.584344,151.420628 225.359467,151.925057 C225.35562,151.933687 225.351895,151.94237 225.348295,151.951105 L223.663213,156.038695 L223.663213,156.038695 C220.739881,157.402652 218.364371,158.084631 216.536681,158.084631 C215.051727,158.084631 213.000992,157.484905 210.384478,156.285455 L210.384483,156.285443 C209.380383,155.825148 208.193255,156.265989 207.73296,157.27009 C207.713121,157.313368 207.694833,157.357341 207.678132,157.401924 Z" id="Path" fill="#E4E4E4"></path>
                    </g>
                    <g transform="translate(0.000000, 61.270000)">
                        <path d="M38.8070337,72.1796834 L60.7044255,72.2618631 C44.0266744,126.29567 35.1735892,154.586914 34.1451699,157.135597 C31.8312264,162.870133 36.727842,171.603732 38.8218292,176.297103 C35.8726199,177.616786 34.3346325,176.252357 32.8431495,174.602095 L32.5637082,174.289907 L32.5637082,174.289907 L32.2833578,173.974533 C30.5007058,171.97449 28.5430742,169.994122 24.1251607,172.049492 C22.5740105,172.771142 21.0961826,173.608532 19.6533075,174.444633 L19.1137928,174.757882 C19.0241217,174.810004 18.9345685,174.862064 18.8451237,174.914033 L18.3096812,175.224529 C12.9667688,178.314029 7.94676431,180.871118 1.22627701,176.724371 C0.110847007,176.036117 -1.11148249,173.444714 1.84182021,171.41967 C9.19957411,166.374547 19.8025433,157.544672 21.2351715,154.638251 C23.1888159,150.674826 29.0461033,123.188637 38.8070337,72.1796834 L38.8070337,72.1796834 Z M177.330366,97.1903344 L205.65827,124.825357 C213.900646,128.341168 220.654099,132.223333 225.918629,136.471853 C227.102543,137.899925 228.391426,140.636184 222.821169,139.411747 C217.250913,138.18731 211.336772,137.149902 210.289852,138.96139 C209.242933,140.772878 212.327767,143.548722 210.39293,145.919494 C209.103038,147.500009 204.765032,142.472701 197.378912,130.83757 L167.921638,113.47029 L177.330366,97.1903344 Z" id="Shape" fill="#F1C0A6" fill-rule="nonzero"></path>
                        <path d="M100.605492,14.4440071 L109.090444,12.2128365 C126.857158,58.994245 199.440117,85.5916649 205.289116,103.149085 C207.434099,109.587855 202.992129,113.32619 205.612113,115.11532 L195.13241,124.291416 C193.042786,122.245084 189.350601,126.645745 180.653148,124.554367 C171.955695,122.462989 105.574753,71.2429137 100.605492,14.4440071 Z" id="Path" fill="#304FFE" fill-rule="nonzero" transform="translate(153.250486, 68.673263) rotate(5.000000) translate(-153.250486, -68.673263) "></path>
                        <g transform="translate(18.037242, 0.000000)" id="Clipped">
                            <mask id="mask-2" fill="white">
                                <use xlink:href="#path-1"></use>
                            </mask>
                            <g id="screen_modul_3_g1-e"></g>
                            <g id="Group" mask="url(#mask-2)" fill-rule="nonzero">
                                <g transform="translate(-97.000420, -10.796975)">
                                    <path d="M293.64967,8.40776699 C283.480475,24.6894078 262.578767,35.9474078 244.245631,39.6173981 C221.868359,44.094534 196.233077,39.8864466 178.24466,53.9316214 C165.242048,64.084 160.054456,81.1938059 157.002437,97.4081845 C153.950417,113.626767 152.079689,130.669311 143.24733,144.605185 C136.214233,155.690825 123.863223,164.312991 110.780737,163.295651 C97.6940486,162.274107 85.8601165,148.893146 89.4712524,136.277292 C91.9431359,127.613088 100.20797,121.979884 108.338281,118.091292 C116.468592,114.206903 125.34299,111.117049 131.547922,104.584214 C142.831145,92.7166505 141.544757,73.7319127 136.777553,58.0682428 C132.010349,42.4045729 124.430747,26.9384855 125.511145,10.6021942 C125.603631,9.19389321 125.771786,7.76457282 126.040835,6.36047573 L151.999815,6.36047573 C152.155359,7.11297088 152.323514,7.85705826 152.512689,8.5843301 C156.582048,24.105068 173.704466,33.740369 189.72967,32.9500389 C205.754873,32.1555049 220.325534,22.915369 231.520475,11.4135437 C233.109543,9.78243686 234.669184,8.07986408 236.220417,6.36047573 L294.805737,6.36047573 C294.465223,7.02889321 294.086873,7.71412622 293.64967,8.40776699 L293.64967,8.40776699 Z M0,0 L0,202.543107 L8.6095534,202.543107 L8.6095534,183.974554 C13.8770194,180.481126 20.0483204,178.084913 26.1691748,177.155855 C42.5559126,174.658748 59.106602,179.203146 75.6572913,180.144816 C103.571077,181.733884 130.887912,173.090699 158.12067,166.772262 C185.353427,160.449622 214.74698,156.565233 240.626087,167.146408 C247.007582,169.75702 253.086398,173.229427 259.749553,175.024486 C266.412708,176.827952 274.055369,176.722855 279.604495,172.619864 C285.157825,168.521078 287.276582,159.600437 282.618679,154.509534 C277.393252,148.80066 267.324951,150.499029 261.729582,145.155893 C257.609776,141.212651 257.365951,134.309874 260.182553,129.357699 C262.999155,124.397117 268.254009,121.227389 273.719058,119.60469 C284.724825,116.32566 296.554553,118.591554 307.694844,121.39134 C318.830932,124.191126 330.173009,127.537418 341.590757,126.36033 C353.016912,125.187447 364.754155,118.158554 367.432029,106.988835 C369.264922,99.337767 366.620679,91.3966311 366.431504,83.535369 C365.948058,63.5416991 384.071,45.0193884 404.06467,45.0656311 C415.953252,45.0908544 422.96533,50.3078738 428.997903,57.0677185 L428.997903,30.1124175 C417.69366,32.403534 405.750427,30.6967573 394.097262,30.5874564 C380.800378,30.4697476 365.998504,33.3620195 358.250747,44.1617962 C346.727903,60.2290389 355.812495,86.6336311 340.859281,99.5731848 C333.010631,106.36666 321.155679,106.36666 311.301776,103.083427 C301.447873,99.8001938 292.779466,93.7676214 283.392194,89.3283204 C273.996514,84.8890195 263.028582,82.0724175 253.288184,85.6751457 C231.29767,93.8054564 228.329728,128.39501 206.007106,135.55002 C193.319786,139.610971 178.644029,131.699262 173.195796,119.541631 C167.743359,107.388204 170.67767,92.5064564 178.648233,81.8327962 C186.614592,71.159136 198.957194,64.3656602 211.816873,60.9058641 C224.684961,57.446068 238.158407,57.0424952 251.480514,57.1433884 C270.01964,57.2821165 291.001223,57.4208447 303.860903,44.0651068 C309.552961,38.1544466 312.75632,30.3604466 316.838291,23.239068 C320.340126,17.1308253 324.586048,11.4681942 329.43733,6.36047573 L428.997903,6.36047573 L428.997903,0 L0,0 Z" id="Shape" stroke="none" fill="#304FFE"></path>
                                    <path d="M404.063641,45.064479 C384.069971,45.0184087 365.951234,63.5449233 366.43468,83.5343894 C366.623855,91.3956515 369.268098,99.3409913 367.431001,106.987855 C364.753127,118.157574 353.015884,125.186467 341.593933,126.35935 C330.171981,127.540642 318.834107,124.190147 307.693816,121.394564 C296.557729,118.594778 284.723797,116.328884 273.71803,119.60371 C268.252981,121.230613 262.998127,124.400341 260.181525,129.356719 C257.364923,134.308894 257.608748,141.215875 261.732758,145.154914 C267.328127,150.502254 277.392224,148.799681 282.617651,154.512758 C287.279758,159.603661 285.161001,168.524302 279.60767,172.618885 C274.05434,176.721875 266.41168,176.826972 259.748525,175.02771 C253.08537,173.228448 247.010758,169.760244 240.625059,167.149632 C214.745952,156.564254 185.356603,160.452846 158.123845,166.775487 C130.891088,173.093924 103.574253,181.732904 75.6562631,180.143836 C59.1097777,179.20637 42.5548845,174.661972 26.1681466,177.154875 C20.0472922,178.083933 13.8801951,180.480147 8.61272913,183.973574 L8.61272913,202.542127 L429.001078,202.542127 L429.001078,57.0667389 C422.964302,50.3110981 415.952224,45.0898748 404.063641,45.064479" id="Path" stroke="none" fill="#A22161"></path>
                                    <path d="M316.83669,23.2405622 C312.754719,30.3577369 309.555564,38.1517369 303.859302,44.066601 C290.999622,57.4223389 270.01804,57.2836107 251.478914,57.1448826 C238.156807,57.0439894 224.68336,57.4433583 211.819477,60.9031544 C198.955593,64.3671544 186.612991,71.1606301 178.646632,81.8342903 C170.676069,92.5079505 167.741758,107.389698 173.194195,119.543125 C178.642428,131.696553 193.318185,139.612465 206.005506,135.54731 C228.328127,128.3923 231.296069,93.8069505 253.290787,85.6766398 C263.026982,82.0739117 273.999117,84.8905136 283.390593,89.3256107 C292.777865,93.7649117 301.450476,99.7974845 311.304379,103.084921 C321.154078,106.363951 333.013234,106.368155 340.861884,99.5746787 C355.810894,86.6351253 346.726302,60.2305331 358.25335,44.1632903 C365.996903,33.3635136 380.802981,30.4670379 394.095661,30.5889505 C405.748826,30.6940476 417.692059,32.4008243 429.000505,30.1097078 L429.000505,6.3619699 L329.435729,6.3619699 C324.588651,11.4696883 320.338525,17.1281156 316.83669,23.2405622" id="Path" stroke="none" fill="#8C9EFF"></path>
                                    <path d="M231.519214,11.4148224 C220.324272,22.9124437 205.757816,32.1567835 189.732612,32.9513175 C173.703204,33.7416476 156.580787,24.1063466 152.515632,8.58560874 C152.322253,7.8583369 152.158302,7.11424952 151.998554,6.36175437 L126.039573,6.36175437 C125.774729,7.76585146 125.606573,9.19096796 125.509884,10.6034729 C124.429486,26.9355602 132.009088,42.4058515 136.776292,58.0695214 C141.5477,73.7331913 142.829884,92.7179292 131.550865,104.585492 C125.341729,111.118327 116.467331,114.208182 108.33702,118.09257 C100.210913,121.981162 91.9418748,127.614366 89.4699913,136.27857 C85.8630592,148.894425 97.6969913,162.275386 110.779476,163.296929 C123.861962,164.314269 136.217175,155.6879 143.246069,144.606463 C152.082632,130.67059 153.949156,113.623842 157.001175,97.4094631 C160.053195,81.1950845 165.240787,64.0810748 178.243399,53.9329 C196.231816,39.8835214 221.867098,44.0958127 244.24437,39.6144729 C262.581709,35.9486865 283.479214,24.6864826 293.648408,8.40904563 C294.085612,7.71540486 294.468166,7.03017185 294.80868,6.36175437 L236.219156,6.36175437 C234.667923,8.08114272 233.108282,9.77951166 231.519214,11.4148224" id="Path" stroke="#000000" stroke-width="1" fill="#1E2229"></path>
                                </g>
                            </g>
                        </g>
                    </g>
                </g>
                <g transform="translate(43.297529, 89.932820)" fill-rule="nonzero">
                    <g transform="translate(81.592665, 37.793777) rotate(-7.000000) translate(-81.592665, -37.793777) translate(54.167177, 3.083602)">
                        <path d="M51.2935347,10.5090617 C56.6387572,20.4721825 56.0036058,45.7444647 49.095382,47.5251522 C46.3404008,48.2352857 40.4714818,46.4957511 34.4982819,42.8954447 L38.2474992,69.4201039 L16.1095302,69.4201039 L23.7304858,33.897661 C19.4802399,28.9086089 16.603619,22.7945033 17.0843169,15.9434913 C18.4693733,-3.79663542 45.9483122,0.545940937 51.2935347,10.5090617 Z" id="Path" fill="#915B3C"></path>
                        <g>
                            <path d="M46.3052743,3.93944023 C45.7981956,3.63679197 44.7372981,2.99841661 44.1998374,2.76704893 C44.0726507,2.71137453 43.1821241,2.07605275 43.1581761,2.08395324 C42.4839376,2.31156969 40.5315341,3.1513905 40.3639575,3.87707747 C40.337984,3.93207065 40.3124871,3.98365771 40.2876454,4.02874221 C40.010992,4.53166967 39.7571548,5.04710683 39.5149937,5.56879885 C38.9836094,6.71399458 38.5249032,7.91090124 38.0868091,9.09839465 C37.2334965,11.4110807 36.4921797,13.7776451 35.8106139,16.1495974 C35.1167166,18.5642189 34.5277855,21.0070183 33.8684997,23.4316104 C32.919812,26.9204568 31.7056109,30.3237169 30.7634761,33.8111389 C30.1618562,36.037929 29.827239,38.2908533 29.9852245,40.582731 C29.9867734,40.6102895 29.987667,40.6374765 29.990169,40.6654685 C29.9911222,40.6769254 29.9925519,40.6882585 29.9935646,40.6997154 C30.0204317,41.0520309 30.0587367,41.4052134 30.1097901,41.7594487 C30.1544692,42.0623447 30.1992675,42.3663554 30.2470445,42.6703042 C31.1076249,40.9542446 31.764647,39.0633588 32.4618803,37.268649 C32.5300905,37.0929557 32.5951434,36.9159619 32.6587069,36.7384108 C32.8835325,36.3744526 33.1127664,36.0130954 33.344562,35.6531006 C34.8063453,33.383022 36.2739071,31.1213037 37.6756416,28.810166 C40.1968574,24.6534126 42.6945421,20.4087817 45.6836382,16.5917103 C46.5662603,15.464536 47.4694348,14.35464 48.3409765,13.2182382 C48.8369153,12.5715729 49.3199865,11.9140701 49.7873901,11.2448626 C50.1215308,10.7663352 51.5742318,9.09839465 51.0481768,8.09625549 C50.7790247,7.58351865 47.6206887,4.72464122 46.3052743,3.93944023 Z" id="Path" fill="#2C2C2C"></path>
                            <path d="M44.3599159,2.85070798 C44.8530397,3.01642287 44.6131295,1.99027404 44.1354991,1.62917019 C41.9227389,-0.0437468884 33.4630874,-0.650814017 26.1013179,0.877401167 C21.1696223,1.90116214 15.4339358,4.44925092 11.494844,7.72502032 C7.94385866,10.6781342 5.50175455,15.4121302 4.24444522,19.9859655 C2.92431291,24.7885818 2.72437195,29.7954954 3.45985603,34.7203456 C3.62143552,35.8021184 3.9686311,36.8330169 4.16207732,37.891844 C4.37992434,39.0842241 4.49167033,40.2322505 4.88001952,41.3923342 C5.11783636,42.1025457 5.52196716,42.7987928 5.72488235,43.5130643 C5.95650794,44.3281003 5.81532316,45.0821117 5.64639915,45.911112 C5.37113132,47.2622669 5.02982349,48.6106536 4.54478154,49.9010914 C3.81639919,51.8388705 2.93250721,53.653739 2.37832964,55.6646001 C1.6409639,58.3402116 -1.44347824,67.0471008 0.810630654,69.42035 L43.7201048,69.42035 C42.6396103,66.4730188 39.3962989,63.0042921 38.7397229,59.8492186 C38.3530126,57.9906117 38.1690353,53.9316719 38.1285494,53.7841547 C37.1615795,47.1185022 35.2734872,43.9353632 34.0909647,42.7801623 C32.9084423,41.6249614 31.3334098,41.2697313 31.2522558,40.2676842 C30.9168358,36.1232976 32.5648615,32.1523269 33.7733085,28.2844583 C35.2135632,23.6745742 36.26905,18.9503303 37.7538574,14.3560714 C38.4113439,12.3216494 41.7994915,1.99027404 44.3599159,2.85070798 Z" id="Path" fill="#304FFE"></path>
                            <path d="M12.7648888,43.4824292 C21.6268436,46.258191 20.6397078,51.988883 31.8014063,57.792487 L30.8686529,58.3576513 C21.0951337,54.3241596 18.8104404,45.6730731 12.1154443,44.2719103 L12.7648888,43.4824292 Z M19.9965632,13.4226392 C21.3661275,23.8078948 21.76597,29.7399609 28.9006298,41.1000189 L28.1415539,41.3320917 C20.7987599,31.4409528 19.6348145,23.3679297 19.2879039,13.4796758 L19.9965632,13.4226392 Z M7.60726533,20.8683788 C10.6226156,28.1850397 11.997446,32.5056358 20.4178193,38.4264098 L19.7676097,38.8816915 C11.4085709,34.1442863 8.97433246,28.4933422 6.97302407,21.1731857 L7.60726533,20.8683788 Z M29.3153383,7.61851994 C27.6972437,12.7526388 27.3492274,15.4932127 27.6972437,22.508249 L26.9034843,22.508249 C25.4206589,15.8881633 26.7403854,9.65604977 28.3176746,7.61851994 L29.3153383,7.61851994 Z" id="Shape" fill-opacity="0.2" fill="#000000"></path>
                        </g>
                    </g>
                    <g transform="translate(27.185471, 154.590138)" id="Path">
                        <polygon fill="#915B3C" points="40.586 0 74.375 116.434 90.268 203.854 106.219 203.854 90.296 0"></polygon>
                        <polygon fill-opacity="0.1" fill="#000000" points="40.586 0 74.375 116.434 90.268 203.854 106.219 203.854 90.296 0"></polygon>
                        <path d="M25.401114,0 C27.758788,60.4866727 26.828956,93.4777477 26.30128,98.9732248 C25.773605,104.468702 22.777952,141.273724 2.3646761,205.698628 L18.9555023,205.698628 C45.98953,143.89394 55.42685,107.088919 58.527448,98.9732248 C61.628046,90.857531 70.785497,57.866456 84.154969,0 L25.401114,0 Z" fill="#784931"></path>
                        <path d="M39.860816,1.13686838e-13 C48.649822,40.0651351 63.851036,104.019268 85.464458,191.862398 L108.79515,191.862398 C110.518387,101.699826 103.187815,42.3577703 90.493094,1.13686838e-13 L39.860816,1.13686838e-13 Z" fill="#2F3676"></path>
                        <path d="M25.283222,0 C27.592254,60.4866727 21.6082504,120.077502 3.072003,192.804145 L27.964568,192.804145 C55.048296,131.921872 74.460076,72.625102 87.726737,0 L25.283222,0 Z" fill="#223AC5"></path>
                        <path d="M0,217.689369 L0.915425929,202.930723 C6.27511606,204.498299 12.9882395,203.883355 21.0547964,201.085892 C29.7095205,207.216447 40.5998377,211.406769 53.7257482,213.656859 C54.7730545,213.836384 55.4765229,214.830932 55.2969902,215.878237 C55.2854448,215.945587 55.2703196,216.012274 55.2516789,216.078015 L54.0101298,220.456615 L54.0101298,220.456615 L21.0547964,220.456615 L1.83085186,220.456615 L0,217.689369 Z" fill="#191847"></path>
                        <path d="M86.707,217.689369 L87.6224259,202.930723 C92.9821161,204.498299 99.6952395,203.883355 107.761796,201.085892 C116.416521,207.216447 127.306838,211.406769 140.432748,213.656859 C141.480054,213.836384 142.183523,214.830932 142.00399,215.878237 C141.992445,215.945587 141.97732,216.012274 141.958679,216.078015 L140.71713,220.456615 L140.71713,220.456615 L107.761796,220.456615 L88.5378519,220.456615 L86.707,217.689369 Z" fill="#191847"></path>
                    </g>
                    <g transform="translate(98.067262, 138.261149) rotate(1.000000) translate(-98.067262, -138.261149) translate(1.443448, 54.710260)">
                        <path d="M31.4960296,85.802978 L50.7721051,85.8787817 C38.8700179,124.300765 32.4446594,144.687229 31.4960296,147.038173 C29.3616125,152.327797 33.8783261,160.383803 35.8098521,164.713041 C32.8923259,166.018547 31.4720249,164.476365 29.996143,162.81531 L29.7183847,162.503135 C28.0899057,160.681763 26.2788356,158.922213 22.2534191,160.79498 C21.0944672,161.334165 19.9798898,161.943396 18.8908776,162.565304 L18.3484149,162.877048 C18.0781617,163.033183 17.8093104,163.189513 17.5415671,163.345141 L17.0074708,163.655195 C12.0347349,166.53535 7.37981023,168.962783 1.13113683,165.10716 C0.102247027,164.472304 -1.02524857,162.081954 1.69892323,160.214022 C8.48582863,155.560323 18.2661704,147.415511 19.5876486,144.734583 C21.3897202,141.078659 25.3591806,121.43479 31.4960296,85.802978 L31.4960296,85.802978 Z M147.477294,82.2079748 L173.607388,107.698945 C181.210282,110.941983 187.439771,114.522952 192.295855,118.441851 C193.387915,119.759127 194.576801,122.283095 189.438711,121.153655 C184.30062,120.024216 178.845326,119.067294 177.879631,120.738239 C176.913936,122.409183 179.759434,124.969664 177.974711,127.156501 C176.784896,128.614392 172.783452,123.977126 165.970381,113.244703 L138.798538,97.2248558 L147.477294,82.2079748 Z" id="Shape" fill="#915B3C"></path>
                        <path d="M81.0399491,8.51573225 L88.8665981,6.45766612 C105.536704,39.4351006 132.137641,68.397189 168.669409,93.3439315 L145.648506,126.892111 C108.085011,90.1068362 83.4858071,50.9160226 81.0399491,8.51573225 Z" id="Path" fill="#191847" transform="translate(124.854679, 66.674888) rotate(5.000000) translate(-124.854679, -66.674888) "></path>
                        <path d="M51.5051303,105.155353 L122.531114,105.155353 C106.076026,65.1457212 97.8484816,31.1580139 97.8484816,3.19223083 L76.4234506,0 C59.5853902,27.0806458 54.8302775,60.4224039 51.5051303,105.155353 Z" id="Path" fill="#DDE3E9"></path>
                        <path d="M77.3768076,0 C79.0502796,0.0576261808 81.5991916,0.161451187 85.0235446,0.31147502 L85.0235446,0.31147502 L90.2006006,15.1062859 C90.7482186,33.1446193 93.9462236,69.4967282 99.7946146,124.162613 L99.7946146,124.162613 L53.2356476,124.162329 C53.3577006,127.937969 53.5589511,131.748879 53.839399,135.59506 L53.839399,135.59506 L19.2205922,135.59506 C24.398955,77.172926 43.3096886,31.9745727 75.9527926,0 L75.9527926,0 L75.9695926,0.015 L75.9782696,0 L77.3768076,0 Z" id="Path" fill="#1A237E"></path>
                        <path d="M66.2637763,124.526075 L53.2476298,124.525546 C52.6778723,107.59425 53.6988226,91.3713721 56.3104807,75.8569136 C57.6365973,99.3903114 60.9540655,115.613194 66.2637763,124.526075 Z" id="Path" fill-opacity="0.1" fill="#000000"></path>
                        <polygon id="Path" fill-opacity="0.2" fill="#FFFFFF" points="63.5987466 95.931 86.5567466 85.258 86.5567466 95.931"></polygon>
                    </g>
                </g>
                <g transform="translate(292.568617, 335.839519) scale(-1, 1) translate(-292.568617, -335.839519) translate(201.475056, 140.193878)" fill-rule="nonzero">
                    <g transform="translate(63.787703, 0.000000)" id="Path">
                        <path d="M49.2476373,33.5043369 C54.6174953,43.5194615 53.9794165,68.9236557 47.0393536,70.7136379 C44.271638,71.4274875 38.3755493,69.6788168 32.3747366,66.0596198 L36.1414743,92.7228732 L13.9014743,92.7228732 L21.5574537,57.0148984 C17.287674,51.9998269 14.3978441,45.8538501 14.8807537,38.9671321 C16.2721937,19.1239692 43.8777794,23.4892122 49.2476373,33.5043369 Z" fill="#915B3C"></path>
                        <path d="M40.4629797,22.5965743 C37.4240305,21.6693442 33.012544,21.3548908 31.1567627,21.5676159 C32.2124157,19.0368154 32.6313143,16.2171991 32.2898108,13.4718049 C31.9578842,10.8041458 30.7665947,8.53271141 29.664831,6.15252262 C29.156974,5.05541137 28.5814406,3.96427974 27.7233546,3.12511446 C26.8492363,2.27017792 25.7427196,1.70585104 24.5824307,1.43661853 C23.3950428,1.16103268 22.1534571,1.18397948 20.9642248,1.43407719 C20.4381364,1.54470021 19.9661039,1.78538002 19.4501599,1.91917407 C18.9218014,2.05625692 18.6654964,1.72535956 18.2819967,1.3928178 C17.3577949,0.591548375 16.0029185,0.195996345 14.8336912,0.0544287747 C13.5218752,-0.104330205 12.1606852,0.0936700547 10.9095936,0.525174565 C9.69184353,0.945243055 8.52197783,1.62736849 7.64154583,2.62110702 C7.24953333,3.0634496 6.89370003,3.56693382 6.66243673,4.12281448 C6.56759043,4.35093709 6.55191283,4.48607656 6.32440933,4.56964178 C6.11400233,4.64700315 5.86791273,4.64924551 5.65076643,4.72286961 C3.55109463,5.4344447 1.75589593,7.05776271 0.778418425,9.14203491 C0.208134625,10.3579912 -0.0620035746,12.4988604 0.0119865254,14.898423 C0.0859765254,17.2979856 2.25133843,23.5591292 4.27659443,25.8428965 C6.08434953,27.8813499 8.74153603,29.2265407 11.3059334,29.8153841 C9.60380743,31.7621249 8.47075943,34.1947849 7.63289113,36.6688537 C6.72280643,39.3563203 6.15954563,42.1487293 5.95155053,44.9939085 C5.75398363,47.6971464 5.73568123,50.5558545 6.36903033,53.201389 C6.96151833,55.6753831 8.22857143,57.7049417 10.3437789,58.9925039 C11.3126727,59.582319 12.3551308,60.025409 13.4036188,60.4303789 C14.4369258,60.829444 15.473354,61.2174468 16.5557512,61.4413836 C18.6042755,61.8650399 20.9646505,61.7923127 22.542632,60.1607727 C23.1113552,59.5726021 23.7368301,58.8335207 24.1517561,58.1149943 C24.3009422,57.8565999 24.3908937,57.6876008 24.2096428,57.4350365 C23.9924966,57.1325423 23.6412744,56.9007572 23.3623397,56.6641137 C21.7716599,55.3148866 20.7870176,53.5136748 20.5387997,51.3731194 C20.286964,49.2012457 20.870017,46.3979239 22.9803297,45.450079 C25.5853045,44.2800163 28.454104,45.6230396 30.7694323,46.8749483 C31.7534361,43.3998906 33.7738683,40.2709784 36.9415365,38.6769605 C40.4460261,36.913495 44.467382,36.7071233 48.0687752,35.1940546 C49.0072358,34.7997732 49.9630767,34.3521984 50.6540289,33.5488362 C50.9427532,33.2130803 51.2814901,32.7775396 51.396767,32.3334779 C51.5482232,31.7501657 51.172243,31.2611073 50.8818161,30.806357 C49.3418582,28.3951489 43.5019289,23.5238043 40.4629797,22.5965743 Z" fill="#191847"></path>
                    </g>
                    <g transform="translate(29.502177, 169.683080)" id="Path">
                        <polygon fill="#F1C0A6" points="40.773 0 74.718 117.041 90.684 204.918 106.709 204.918 90.712 0"></polygon>
                        <polygon fill-opacity="0.1" fill="#000000" points="40.773 0 74.718 117.041 90.684 204.918 106.709 204.918 90.712 0"></polygon>
                        <path d="M25.518294,0 C27.886833,60.8023911 26.952716,93.9656675 26.422608,99.4898291 C25.892501,105.013991 22.883042,142.011121 2.3756836,206.7723 L19.0429748,206.7723 C46.201598,144.645014 55.682414,107.647884 58.797302,99.4898291 C61.912191,91.3317742 71.111847,58.1684979 84.542937,0 L25.518294,0 Z" fill="#D4A181"></path>
                        <path d="M40.044639,1.05413852e-13 C48.874152,40.2742605 64.145427,104.56221 85.858462,192.86385 L109.296682,192.86385 C111.027861,102.230662 103.663503,42.5788624 90.910274,1.05413852e-13 L40.044639,1.05413852e-13 Z" fill="#64717D"></path>
                        <path d="M25.399858,0 C27.719532,60.8023911 21.7079491,120.704263 3.0862706,193.810512 L28.093562,193.810512 C55.302115,132.610457 74.803361,73.0041786 88.131168,0 L25.399858,0 Z" fill="#73899D"></path>
                        <path d="M-1.42108547e-14,218.826512 L0.919645008,203.990831 C6.30403726,205.566589 13.0481006,204.948436 21.1518352,202.136371 C29.8654303,208.312379 40.8347396,212.529503 54.0597631,214.787741 C55.0687244,214.96003 55.7469849,215.91762 55.5746997,216.926582 C55.5635694,216.991765 55.5489585,217.056305 55.5309297,217.119926 L54.2590555,221.608202 L54.2590555,221.608202 L21.1518352,221.608202 L1.83929002,221.608202 L-1.42108547e-14,218.826512 Z" fill="#191847"></path>
                        <path d="M87.107,218.826512 L88.026645,203.990831 C93.4110373,205.566589 100.155101,204.948436 108.258835,202.136371 C116.97243,208.312379 127.94174,212.529503 141.166763,214.787741 C142.175724,214.96003 142.853985,215.91762 142.6817,216.926582 C142.670569,216.991765 142.655958,217.056305 142.63793,217.119926 L141.366055,221.608202 L141.366055,221.608202 L108.258835,221.608202 L88.94629,221.608202 L87.107,218.826512 Z" fill="#191847"></path>
                    </g>
                    <g transform="translate(0.000000, 70.469620)">
                        <path d="M31.6411907,88.1052984 L51.0061165,88.1814959 C39.0491679,126.80403 32.5941927,147.296904 31.6411907,149.660119 C29.4969364,154.977353 34.0344669,163.075408 35.974895,167.427243 C29.6549853,170.256934 30.3283784,159.777434 22.3559823,163.488731 C21.3027564,163.979027 20.2860099,164.526941 19.2917553,165.089784 L18.7515811,165.398014 L18.7515811,165.398014 L18.2153636,165.707665 C12.7822239,168.857795 7.88433829,171.989667 1.13634999,167.823419 C0.102718285,167.185249 -1.02997381,164.782423 1.70675339,162.904741 C8.52493869,158.226751 18.3503568,150.039426 19.6779256,147.344505 C21.4883027,143.669498 25.4760577,123.923096 31.6411907,88.1052984 L31.6411907,88.1052984 Z M120.969847,104.329838 L143.400896,133.360079 C150.511075,137.65196 156.207699,142.088091 160.490767,146.668472 C161.39301,148.132515 162.222864,150.811291 157.269239,148.968189 L156.673458,148.747827 C151.898708,146.993017 146.97453,145.470467 145.827977,146.937558 C144.633651,148.465777 147.106451,151.412658 145.025199,153.339834 C143.637698,154.624618 140.305291,149.448712 135.027978,137.812117 L110.236365,118.064042 L120.969847,104.329838 Z" id="Shape" fill="#915B3C"></path>
                        <path d="M70.010474,20.003499 L77.8743246,17.9366746 C109.738572,40.9495629 126.216298,89.0656624 164.80703,111.947789 L157.018478,123.547459 C93.3491026,121.244071 72.4782796,62.6213743 70.010474,20.003499 Z" id="Path" fill="#019D42" transform="translate(117.408752, 70.742067) rotate(24.000000) translate(-117.408752, -70.742067) "></path>
                        <path d="M51.7425107,107.558685 C83.8716714,107.558685 107.505208,107.558685 122.643121,107.558685 C125.882918,107.558685 125.27244,102.877692 124.804108,100.515637 C119.398988,73.2546659 98.2994524,43.8686587 98.2994524,5.06335321 L77.8483784,1.85446009 C60.9327135,29.076457 55.0829831,62.592247 51.7425107,107.558685 Z" id="Path" fill="#DDE3E9"></path>
                        <path d="M75.3761824,0 L77.6759624,2.046 L77.7823364,1.85446009 L86.4661814,2.35028703 C104.834937,64.642023 109.900931,106.202099 101.664161,127.030516 L101.664161,127.030516 L42.2773453,127.030868 C39.2606964,133.936373 36.3643071,139.808713 33.5881772,144.647887 L33.5881772,144.647887 L18.3825107,144.647887 C16.9988097,99.8810217 27.2378612,61.6609289 49.099665,29.987609 C41.2488579,20.2192212 42.5009427,13.3165069 49.0426426,9.38479405 C54.5238433,6.09046575 60.5723486,7.16780653 68.6470767,6.47240196 C70.8193274,4.27447997 73.0626124,2.11744534 75.3761824,0 L75.3761824,0 Z" id="Path" fill="url(#linearGradient-3)"></path>
                        <path d="M68.4225107,127.030516 L47.7128012,127.031428 C51.5696396,118.032654 55.6203155,107.368596 59.8648288,95.0392539 C61.6198427,109.731582 64.4724064,120.39584 68.4225107,127.030516 Z" id="Path" fill-opacity="0.223639642" fill="#000000"></path>
                    </g>
                </g>
            </g>
        </g>
    </g>
</svg>