<?xml version="1.0" encoding="UTF-8"?>
<svg width="608px" height="535px" viewBox="0 0 608 535" version="1.1" xmlns="http://www.w3.org/2000/svg" xmlns:xlink="http://www.w3.org/1999/xlink">
    <title>start_teaser_m2a</title>
    <defs>
        <path d="M71.6411957,0.00873273579 L99.5226669,1.95839512 C101.464851,2.09420586 102.929205,3.77875347 102.793395,5.7209375 L102.040769,16.4411737 C101.021627,80.2364966 137.897392,96.5 129.686449,122.081071 C122.907948,143.199399 58.0265185,165.901512 46.7991874,145.200566 C42.2539325,136.820029 40.1920456,126.684139 39.9585257,115.664254 C37.0897957,124.131267 34.8199509,131.419771 33.1503142,137.530305 C30.2703713,148.070315 19.1054472,149.745697 19.1054472,153.806088 L19.1054472,153.806088 L4.3958174,149.745697 C5.39353693,144.229488 -1.54093801,141.543423 0.31837552,129.219731 C8.6490867,74.0030492 31.0320291,33.9780201 67.4672028,9.14464286 L67.8786533,3.27946092 C68.014464,1.33727688 69.6990116,-0.127078002 71.6411957,0.00873273579 Z" id="path-1"></path>
        <polygon id="path-3" points="0 5.21804822e-15 61.978 5.21804822e-15 61.978 164.188 0 164.188"></polygon>
        <polygon id="path-5" points="-1.30451205e-15 5.21804822e-15 61.547 5.21804822e-15 61.547 164.188 -1.30451205e-15 164.188"></polygon>
        <polygon id="path-7" points="5.10702591e-15 5.21804822e-15 236.595 5.21804822e-15 236.595 164.188 5.10702591e-15 164.188"></polygon>
        <linearGradient x1="50%" y1="0%" x2="50%" y2="100%" id="linearGradient-9">
            <stop stop-color="#304FFE" offset="0%"></stop>
            <stop stop-color="#1F6CBB" offset="100%"></stop>
        </linearGradient>
    </defs>
    <g id="Page-1" stroke="none" stroke-width="1" fill="none" fill-rule="evenodd">
        <g id="start_teaser_m2a" transform="translate(0.000000, 0.000000)">
            <g id="Group" transform="translate(73.514706, 113.515042)">
                <g fill-rule="nonzero" id="Path">
                    <path d="M422.268907,75.629916 L422.268907,328.518571 C422.268907,338.308283 418.300843,347.171203 411.885351,353.586695 C405.469858,360.002188 396.606938,363.970252 386.817227,363.970252 L386.817227,363.970252 L35.4516807,363.970252 C25.6619694,363.970252 16.7990492,360.002188 10.3835568,353.586695 C3.96806452,347.171203 -7.99360578e-15,338.308283 -7.99360578e-15,328.518571 L-7.99360578e-15,328.518571 L-7.99360578e-15,75.629916 L422.268907,75.629916 Z" stroke="#DDE3E9" fill="#F5FCFF"></path>
                    <path d="M422.270588,2.13162821e-14 L422.270588,40.1785714 C422.270588,49.9682827 418.302524,58.8312029 411.887032,65.2466952 C405.471539,71.6621876 396.608619,75.6302521 386.818908,75.6302521 L386.818908,75.6302521 L35.4533618,75.6302521 C25.6636505,75.6302521 16.8007303,71.6621876 10.3852379,65.2466952 C3.96974564,58.8312029 0.00168112,49.9682827 0.00168112,40.1785714 L0.00168112,40.1785714 L0.00168112,2.13162821e-14 L422.270588,2.13162821e-14 Z" stroke="#C5CFD6" fill="#C5CFD6" transform="translate(211.136135, 37.815126) rotate(-180.000000) translate(-211.136135, -37.815126) "></path>
                </g>
                <g transform="translate(29.877294, 25.158958)" fill-rule="nonzero">
                    <g id="voty_screen_modul_2_g1-a-link" fill="#D8D8D8">
                        <path d="M14.3961708,0.000470352447 C20.2835133,-0.0467985551 25.615446,3.47237161 27.8914439,8.90356909 C30.1674418,14.3347666 28.9313599,20.6026237 24.7693326,24.7670145 C20.6049418,28.9314052 14.3370847,30.1651237 8.90588722,27.8891258 C3.47232629,25.6154914 -0.0444804289,20.2835586 0.000425033317,14.3938527 C0.0642380585,6.46922035 6.47153848,0.0619199323 14.3961708,0.000470352447 Z" id="voty_screen_modul_2_g1-a"></path>
                    </g>
                    <g id="voty_screen_modul_2_g1-a-link" fill="#98AAB2">
                        <path d="M14.3961708,0.000470352447 C20.2835133,-0.0467985551 25.615446,3.47237161 27.8914439,8.90356909 C30.1674418,14.3347666 28.9313599,20.6026237 24.7693326,24.7670145 C20.6049418,28.9314052 14.3370847,30.1651237 8.90588722,27.8891258 C3.47232629,25.6154914 -0.0444804289,20.2835586 0.000425033317,14.3938527 C0.0642380585,6.46922035 6.47153848,0.0619199323 14.3961708,0.000470352447 Z" id="voty_screen_modul_2_g1-a"></path>
                    </g>
                    <g id="voty_screen_modul_2_g1-b-link" transform="translate(57.576838, 0.000000)" fill="#D8D8D8">
                        <path d="M14.3961708,0.000470352447 C20.2835132,-0.0467985551 25.6178094,3.47237161 27.8914439,8.90356909 C30.1674418,14.3347666 28.9313598,20.6026237 24.7693325,24.7670145 C20.6049418,28.9314052 14.3370846,30.1651237 8.90588723,27.8891258 C3.47232623,25.6154914 -0.044480466,20.2835586 0.00042503403,14.3938527 C0.064238034,6.46922035 6.47153843,0.0619199323 14.3961708,0.000470352447 Z" id="voty_screen_modul_2_g1-b"></path>
                    </g>
                    <g id="voty_screen_modul_2_g1-b-link" transform="translate(57.576838, 0.000000)" fill="#98AAB2">
                        <path d="M14.3961708,0.000470352447 C20.2835132,-0.0467985551 25.6178094,3.47237161 27.8914439,8.90356909 C30.1674418,14.3347666 28.9313598,20.6026237 24.7693325,24.7670145 C20.6049418,28.9314052 14.3370846,30.1651237 8.90588723,27.8891258 C3.47232623,25.6154914 -0.044480466,20.2835586 0.00042503403,14.3938527 C0.064238034,6.46922035 6.47153843,0.0619199323 14.3961708,0.000470352447 Z" id="voty_screen_modul_2_g1-b"></path>
                    </g>
                    <g id="voty_screen_modul_2_g1-c-link" transform="translate(115.153440, 0.000000)" fill="#D8D8D8">
                        <path d="M14.3961707,0.000470352447 C20.2835127,-0.0467985551 25.6178097,3.47237161 27.8914437,8.90356909 C30.1674417,14.3347666 28.9313597,20.6026237 24.7693327,24.7670145 C20.6049417,28.9314052 14.3370847,30.1651237 8.90588674,27.8891258 C3.47468974,25.6154914 -0.044480256,20.2835586 0.000424744023,14.3938527 C0.064237744,6.46922035 6.47153874,0.0619199323 14.3961707,0.000470352447 Z" id="voty_screen_modul_2_g1-c"></path>
                    </g>
                    <g id="voty_screen_modul_2_g1-c-link" transform="translate(115.153440, 0.000000)" fill="#98AAB2">
                        <path d="M14.3961707,0.000470352447 C20.2835127,-0.0467985551 25.6178097,3.47237161 27.8914437,8.90356909 C30.1674417,14.3347666 28.9313597,20.6026237 24.7693327,24.7670145 C20.6049417,28.9314052 14.3370847,30.1651237 8.90588674,27.8891258 C3.47468974,25.6154914 -0.044480256,20.2835586 0.000424744023,14.3938527 C0.064237744,6.46922035 6.47153874,0.0619199323 14.3961707,0.000470352447 Z" id="voty_screen_modul_2_g1-c"></path>
                    </g>
                </g>
                <g transform="translate(34.485294, 103.484958)">
                    <g stroke-linecap="round" stroke-linejoin="round" id="Path" stroke="#DDE3E9" stroke-width="12.502">
                        <path d="M60.9147595,17.178197 C60.9147595,23.8519305 55.5037593,29.2629307 48.8275253,29.2629307 L12.6908458,29.2629307 C9.3827343,29.4304617 6.1496367,28.2302398 3.75169346,25.9448174 C1.35124976,23.659395 -0.0040007395,20.4913094 0.000972678158,17.178197 L0.000972678158,12.1022587 C-0.0040007395,8.78914634 1.35124976,5.61856029 3.75169346,3.33313785 C6.1496367,1.05021588 9.3827343,-0.150005972 12.6908458,0.0150245317 L48.2249139,0.0150245317 C54.8986475,0.0150245317 60.3096476,5.4260247 60.3096476,12.1022587 L60.9147595,17.178197 Z"></path>
                        <line x1="0" y1="76.789" x2="152.528" y2="76.789"></line>
                        <line x1="98.716" y1="14.34" x2="350.012" y2="15.591"></line>
                        <line x1="0" y1="107.367" x2="152.528" y2="107.367"></line>
                        <line x1="0" y1="137.825" x2="152.528" y2="137.825"></line>
                        <line x1="0" y1="168.161" x2="152.528" y2="168.161"></line>
                        <line x1="0" y1="198.619" x2="152.528" y2="198.619"></line>
                        <line x1="0" y1="229.077" x2="95.018" y2="229.077"></line>
                    </g>
                    <g transform="translate(188.252000, 36.980000)" fill-rule="nonzero" id="Path">
                        <path d="M77.6226996,83.4524868 C84.9076778,83.5359729 90.8605023,77.6615865 90.8605023,70.3982949 L90.8605023,32.9738013 C90.8605023,25.7560475 84.9990255,19.9120197 77.7673334,19.9120197 L13.0931689,19.9120197 C5.86147677,19.9120197 0,25.7560475 0,32.9738013 L0,70.3982949 C0,77.608459 5.86147677,83.4524868 13.0931689,83.4524868 L49.1602818,83.4524868 C50.5913956,83.4524868 51.7484664,84.6061131 51.7484664,86.0329666 L57.457697,101.864969 L72.2788597,83.9306345 L77.6226996,83.4524868 Z" stroke="#DDE3E9" stroke-width="7.417" fill="#FFFFFF"></path>
                        <path d="M87.1681326,61.8074801 C79.874931,61.8909662 73.9292207,56.0241695 73.9292207,48.7532882 L73.9292207,13.0617816 C73.9292207,5.85161743 79.7911886,0 87.0158737,0 L151.70307,0 C158.935368,0 164.789723,5.85161743 164.789723,13.0617816 L164.789723,48.7532882 C164.789723,55.9634523 158.935368,61.8074801 151.70307,61.8074801 L115.625322,61.8074801 C114.201701,61.8074801 113.036921,62.9611063 113.036921,64.3879599 L113.036921,80.2199624 L92.5124202,62.2856278 L87.1681326,61.8074801 Z" stroke="#DDE3E9" stroke-width="7.417" fill="#FFFFFF"></path>
                        <path d="M107.493038,27.4021039 L113.547072,34.0879947 L133.296561,14.6508944 C134.531843,13.4398178 136.535176,13.4398178 137.776859,14.6508944 L141.581708,18.3715806 C142.823391,19.5889321 142.823391,21.5530096 141.581708,22.7640861 L116.536841,47.3181921 C115.218353,48.6108437 113.087011,48.6108437 111.768523,47.3181921 L99.1822889,34.99447 C98.1390195,33.9716437 98.1646212,32.2962166 99.2398928,31.2984904 L103.601579,27.3519039 C104.150285,26.8422632 104.858254,26.5928588 105.562569,26.6028999 C106.263111,26.6128872 106.960038,26.8795479 107.493038,27.4021039 Z" fill="#0078F0"></path>
                        <path d="M50.3231648,73.7661454 L50.3231648,58.0110259 L50.3231648,58.0110259 L66.1781341,58.0110259 C68.0923387,58.0110259 69.6441081,56.4592565 69.6441081,54.5450519 L69.6441081,50.5434428 C69.6441081,48.6292382 68.0923387,47.0774688 66.1781341,47.0774688 L50.3231648,47.0774688 L50.3231648,47.0774688 L50.3231648,31.0727247 C50.3231648,29.1585201 48.7713953,27.6067507 46.8571908,27.6067507 L42.8555817,27.6067507 C40.9413771,27.6067507 39.3896077,29.1585201 39.3896077,31.0727247 L39.3896077,47.0774688 L39.3896077,47.0774688 L23.5346383,47.0774688 C21.6204337,47.0774688 20.0686643,48.6292382 20.0686643,50.5434428 L20.0686643,54.5450519 C20.0686643,56.4592565 21.6204337,58.0110259 23.5346383,58.0110259 L39.3896077,58.0110259 L39.3896077,58.0110259 L39.3896077,73.7661454 C39.3896077,75.68035 40.9413771,77.2321194 42.8555817,77.2321194 L46.8571908,77.2321194 C48.7713953,77.2321194 50.3231648,75.68035 50.3231648,73.7661454 Z" fill="#0078F0" transform="translate(44.856386, 52.419435) rotate(-44.000000) translate(-44.856386, -52.419435) "></path>
                    </g>
                    <g stroke-linecap="round" stroke-linejoin="round" transform="translate(186.000000, 141.070777)" id="Path" stroke="#DDE3E9">
                        <path d="M12.8308575,21.8415535 C24.2799524,33.6400686 41.813267,37.1682681 56.9348314,30.7165222" stroke-width="6.829" transform="translate(34.882844, 27.873252) rotate(-23.000000) translate(-34.882844, -27.873252) "></path>
                        <path d="M12.5489428,31.3389004 C12.5489428,44.5386577 23.2494604,55.2391753 36.4492177,55.2391753 C49.648975,55.2391753 60.3494926,44.5386577 60.3494926,31.3389004 C60.3494926,18.139143 49.648975,7.43862553 36.4492177,7.43862553 C23.2494604,7.43862553 12.5489428,18.139143 12.5489428,31.3389004 Z" stroke-width="8.194" transform="translate(36.449218, 31.338900) rotate(-23.000000) translate(-36.449218, -31.338900) "></path>
                        <path d="M69,85.9292234 C61.8907644,73.5546163 48.7369617,65.9292234 34.5,65.9292234 C20.2630383,65.9292234 7.10923562,73.5546163 0,85.9292234" stroke-width="8.194"></path>
                    </g>
                    <g stroke-linecap="round" stroke-linejoin="round" transform="translate(315.172029, 187.909474) rotate(-1.000000) translate(-315.172029, -187.909474) translate(280.672029, 149.418247)" stroke="#DDE3E9">
                        <path d="M63.1073357,47.4333546 C60.0220275,42.3708419 58.4837189,36.5152745 58.6814393,30.5901791 L58.6814393,23.7003817 C58.6814393,10.611722 48.0697173,0 34.9810576,0 C21.8902253,0 11.2785032,10.611722 11.2785032,23.7003817 L11.2785032,30.5901791 C11.4762237,36.5152745 9.9379151,42.3708419 6.85260686,47.4333546 M69,76.9824534 C61.8907644,64.6078463 48.7369617,56.9824534 34.5,56.9824534 C20.2630383,56.9824534 7.10923562,64.6078463 0,76.9824534" id="Shape" stroke-width="8.194"></path>
                        <path d="M11.2795896,27.6163331 C20.3790761,27.6011238 29.0288028,23.6358509 34.9799713,16.750399 C40.9311397,23.6358509 49.5808665,27.6011238 58.680353,27.6163331" id="Path" stroke-width="6.829"></path>
                        <path d="M14.1758684,27.4774942 C15.2448625,38.1652626 24.2422296,46.3065653 34.9843168,46.3065653 C45.726404,46.3065653 54.7215983,38.1652626 55.7927652,27.4774942" id="Path" stroke-width="8.194"></path>
                    </g>
                </g>
            </g>
            <g id="Group" transform="translate(478.427409, 225.876762) rotate(-34.000000) translate(-478.427409, -225.876762) translate(374.507154, 148.576980)" fill-rule="nonzero">
                <path d="M121.449168,0.580287766 C118.437254,-0.0750938157 115.111637,-0.024933997 112.043638,0.0291304781 C95.5899706,0.251996259 79.4327483,8.01114952 68.9172414,20.4090347 C59.9653169,30.9636217 57.5037687,44.0859709 55.7352629,57.3509903 C55.5599222,58.6680609 55.4847322,59.9767216 55.3858142,61.2964955 C55.3645515,61.5797333 55.3328115,61.8323345 55.2989143,62.0702182 C54.6034068,62.6895568 54.2385504,63.4116179 54.6502465,64.2048639 C53.1180961,67.5445467 51.821993,70.9689305 50.7098589,74.5008425 C47.4366285,84.8968403 44.1070056,95.4904739 46.1580903,106.422311 C46.6372725,100.406436 47.6452499,94.2548003 48.8507552,88.3377438 C48.9200903,87.9980387 48.9949721,87.6610368 49.0729355,87.3252363 C49.0809476,87.2897941 49.0883433,87.2543518 49.0963554,87.2192099 C49.5231511,85.4071489 50.0778314,83.6494528 50.7523844,81.9193895 C50.759472,81.900467 50.7662514,81.8818448 50.7736471,81.8632226 C50.8627041,81.6355511 50.957308,81.409081 51.0506791,81.1826109 C51.2438928,80.7137518 51.4423451,80.2457937 51.6528155,79.7802385 C51.7239995,79.6216494 51.79241,79.4615584 51.8580472,79.3002661 C52.8401396,76.902807 53.2549172,74.2013854 54.1347019,71.720727 C54.3451723,71.1566543 54.5651955,70.5946842 54.795696,70.0357176 C54.8092548,70.0029785 54.8231218,69.9702395 54.8369889,69.9375004 C55.4600798,68.4333066 56.1484997,66.9474346 56.8763636,65.4771812 C57.2720356,65.181028 57.4834304,64.4463519 57.8245589,63.7786556 C57.8951265,63.6470987 58.4467253,62.7697525 58.6109723,62.2642496 C59.039617,61.4382646 59.4667209,60.6119792 59.8984471,59.7874959 C59.8855045,59.7923017 59.872562,59.7971074 59.8596194,59.8019131 C60.2916538,59.0101689 60.7249208,58.2217287 61.1547981,57.4365923 C61.2494019,57.2641867 61.3449302,57.0914808 61.4401503,56.9184744 C61.5945363,56.643046 61.7489224,56.3679179 61.9030002,56.0933905 C63.3442447,53.5244268 64.872389,51.0068245 66.4593912,48.5204593 C67.0257814,47.6332012 68.3788933,46.3608839 68.6383605,45.3645958 C68.6479133,45.3273513 68.6500704,45.2931105 68.6559254,45.2573679 C72.0995659,40.4399228 76.0639896,35.9964236 80.8182165,32.4756249 C80.2435061,33.0943628 79.0219767,35.1941669 78.6990294,35.6098626 C77.7107739,36.8827807 76.6377756,38.0676938 75.5607713,39.267024 C73.6320244,41.4154862 71.7488846,43.6321297 70.0755989,45.976125 C67.0156123,50.2628372 64.375642,54.7742173 61.8801967,59.3763056 C61.8564687,59.4033378 61.8305836,59.4288682 61.8080883,59.4565012 C60.5538943,60.9964377 59.7643993,63.3239133 58.861503,65.0855141 C62.4345689,63.4371484 66.3854338,62.3633678 70.0524872,60.8997223 C73.7093715,59.4405822 77.2667215,57.8156444 80.7011173,55.9074688 C85.2658285,53.3715445 90.0009498,50.5082298 94.3138976,47.2679656 C99.2564074,44.2142239 103.409731,40.0110113 107.07586,35.6002512 C111.41346,30.3815275 115.388669,25.1171495 117.847136,18.7804926 C119.054798,15.6666792 120.004842,12.4198071 120.568151,9.13508988 C120.592803,8.99181902 120.624235,8.83653384 120.658441,8.67524149 C121.234692,7.54078858 121.749928,6.38080523 122.182271,5.19409 C122.868842,3.31204555 124.490357,1.24167651 121.449168,0.580287766" id="Path" fill="#7FE4A9"></path>
                <path d="M207.583824,76.0970343 C208.248583,78.2889835 207.69402,80.2179308 205.071208,79.6742164 C204.284935,79.5112778 203.47268,79.2504019 202.695989,79.0305788 C198.379145,77.8090319 194.101549,76.4670588 189.762694,75.323431 C181.415411,73.1235584 172.944717,72.0584962 164.392646,71.0715862 C157.659304,70.294761 150.876085,69.8265399 144.122616,70.124918 C135.800278,70.4927253 127.680239,72.1108186 119.622201,73.9729999 C111.330965,75.8898886 102.816798,78.2621242 94.8247404,81.3620556 C85.7348293,84.8876186 77.3560568,89.2427074 69.0430182,94.2785557 C48.500721,106.722872 30.2392963,122.265198 14.2666567,140.112138 C11.967623,142.681481 9.67812776,145.259771 7.39218136,147.840932 C5.66997314,149.785977 4.0466484,151.815131 2.33628773,153.767308 C0.920070222,155.38395 -0.737752133,154.462547 0.352758212,152.568834 C1.60463993,150.394149 3.75261281,148.440587 5.38530873,146.555248 C6.84242832,144.873111 8.3010688,143.192206 9.75894886,141.510685 C11.4686872,139.539594 13.1879236,137.579054 14.9423536,135.648629 C23.1063883,126.666669 31.8652802,118.155854 41.0986182,110.260118 C48.1119137,104.262896 55.6841555,99.0121335 63.4546092,94.0170906 C72.3846318,88.277346 81.8645681,82.2728101 92.0860997,78.875049 C92.18655,78.7251921 92.315477,78.5717874 92.4597362,78.4181078 C90.4733541,76.6249422 96.5678283,70.587436 97.6672454,69.4099088 C100.45928,66.4196702 103.53023,63.6363177 106.677425,61.0193953 C109.259843,58.8720617 112.020812,56.998494 115.043853,55.5022798 C119.523105,53.2858156 124.38247,51.9660598 129.325491,51.1112406 C137.888952,49.6306504 146.879739,48.8284656 155.615247,49.5543043 C171.557529,50.8787904 187.255803,55.8129435 199.911634,66.0543723 C203.151889,68.6764719 206.362968,72.0710772 207.583824,76.0970343 Z" id="Path" fill="#62CC94"></path>
                <path d="M86.56434,84.6179908 C93.1894021,84.6179908 99.0846734,85.4796444 105.188939,88.1149539 C110.458147,90.3893818 115.260117,93.4003457 119.922346,96.6784282 C126.480308,101.288788 131.645788,106.654677 135.261501,113.764375 C137.421633,118.011742 139.006181,124.021912 137.555526,128.654581 C135.846626,134.110917 131.154541,138.661582 124.974864,137.700136 C121.153541,137.106204 117.650483,134.574305 114.746093,132.191341 C111.27166,129.340467 108.49039,125.912545 106.193902,122.10535 C102.447683,115.894993 100.246306,108.874234 97.0639738,102.384698 C95.5539128,99.304693 94.0946385,96.2026797 92.2860125,93.2755295 C91.3906257,91.8259737 90.4373727,90.3902863 89.0790565,89.3130685 C88.3523434,88.7369243 85.2882061,87.7396009 86.4599962,86.445613 C69.2795887,86.6714278 54.059552,99.8784253 50.7614875,116.226027 C50.4543043,117.749749 50.2142212,119.285832 49.960595,120.8189 C49.8005396,121.786979 49.8651773,125.356902 49.0005704,125.975255 C47.0937566,127.339489 47.8952648,123.195231 47.9771393,122.598585 C48.1885971,121.056473 48.4142136,119.515566 48.6509109,117.977372 C49.9387412,109.61077 53.6600291,101.832974 59.8658692,95.8662187 C66.9624791,89.0432364 76.5374852,84.6179908 86.56434,84.6179908 Z" id="Path" fill="#1ED96C"></path>
            </g>
            <g id="Group" opacity="0.5" fill-rule="nonzero">
                <path d="M178.22298,111.444518 C182.425309,105.452509 190.223629,90.2347729 196.138329,88.0936482 C199.947942,86.7145659 198.837195,100.980115 198.884241,103.700243 C199.067454,114.223987 198.04293,124.681002 196.777726,135.11639 C194.498335,153.936569 187.044926,170.697369 176.822023,186.715278 C171.561534,194.957467 165.391397,203.299596 156.84547,208.442327 C152.911771,210.810658 148.178543,211.207195 144.293769,213.247706 C139.769382,215.623126 142.233354,213.702848 140.194367,218.417487 C137.362802,224.963133 136.457106,233.407714 135.146985,240.392151 C129.131553,272.454512 114.568305,441.944513 117.093014,474.558062 C117.317249,477.448784 113.286509,478.140055 113.085292,474.611088 C112.015789,455.899518 121.270437,326.322179 125.939564,283.946664 C130.608691,241.571148 135.333634,204.134499 140.071325,189.473898 C145.818851,171.687472 156.199212,150.297922 164.840137,133.71131 C168.853782,126.005544 173.228734,118.565238 178.22298,111.444518 Z" id="Path" fill="#00C853"></path>
                <path d="M209.414132,319.277765 C220.349167,311.249697 232.185522,326.401056 222.290441,334.430358 C216.820206,338.868469 211.101395,337.289712 207.88186,333.591199 C205.791868,336.13879 203.835706,338.802543 201.956089,341.052489 C196.229376,347.9085 190.816767,354.92815 185.643881,362.111477 C174.898009,377.034662 165.688992,392.800688 156.060308,408.278421 C146.558057,423.5541 137.131786,438.908021 128.519073,454.570722 C121.222883,467.840829 111.497988,483.452044 109,498 C112.790111,467.146303 127.171863,437.490438 144.298022,410.29054 C161.284824,383.314089 180.779154,353.852808 207.081026,332.563583 C204.404139,328.627042 204.329828,323.00793 209.414132,319.277765 Z" id="Path" fill="#C1DEE2"></path>
                <path d="M1.9131966,244.030768 C8.03244063,245.227492 18.0312164,259.070175 23.0752982,264.344345 C29.0698505,270.611956 34.5083971,277.292338 39.6348672,284.291716 C50.6711078,299.357587 60.5410853,315.375735 68.9339235,332.079859 C82.6164473,359.310923 93.5779281,387.264554 101.533144,416.917658 C106.40282,435.069395 109.555733,453.882964 111.42432,472.565152 C111.77721,476.088501 115.4712,503.252852 110.148387,503.985007 C105.361077,504.644266 106.839698,483.358557 106.608745,480.463176 C103.998072,447.797866 96.1772343,416.014794 85.2985211,385.226103 C82.9289815,378.519078 80.7275953,370.304171 76.9381423,364.268497 C74.2092052,359.921096 76.9185722,361.437175 72.1228242,359.791894 C68.0049102,358.378312 63.3131333,358.72373 59.0962962,356.993389 C49.9356343,353.236662 42.6005721,345.943735 36.1708879,338.607909 C23.6757579,324.351374 13.774003,308.928035 8.61263648,290.66039 C5.74946717,280.531578 3.11836073,270.343849 1.65825821,259.901833 C1.28055511,257.202878 -2.02816228,243.259967 1.9131966,244.030768 Z" id="Path" fill="#00C853"></path>
                <path d="M26.061363,13.7160319 C49.111288,53.6904115 68.0527721,97.6012194 80.2834249,142.076227 C87.6937407,169.023152 92.875997,196.674657 98.0249813,224.126418 C105.997255,266.632047 113.538111,309.134396 115.683127,352.395051 C117.841152,395.906414 122.108499,446.091658 107.860834,488 C114.977614,445.451647 108.201957,400.162237 107.002263,357.34982 C106.428958,336.911865 104.767627,316.673726 102.588271,296.3552 C100.473423,276.645138 97.0183596,257.028931 93.8009172,237.47379 C92.2336415,227.950082 90.5876488,218.440705 88.9117997,208.936528 C88.4115013,206.100946 88.2001646,197.686783 86.4014385,195.749671 C84.5910631,193.799805 75.3542884,193.004911 72.454369,191.574216 C66.6149274,188.69262 61.1221445,184.599523 56.2608889,180.274642 C46.9417982,171.983953 38.8346584,161.151161 32.435855,150.472492 C17.6306837,125.76373 11.7115834,95.6100441 12.0107586,66.9941546 C12.0682413,61.4382419 21.003398,1.60995132 17.4148953,0.786066265 C17.6309536,0.533029377 17.8353283,0.27176118 18.0280364,0 C20.7448404,4.54878452 23.4108122,9.12839556 26.061363,13.7160319 Z" id="Path" fill="#0DA159"></path>
                <path d="M274.846162,157.887288 C275.201814,157.374304 277.516546,153.806661 276.35092,154.034666 C278.724178,153.570439 273.086653,157.969398 279,155.270217 C276.192302,157.921907 277.812715,161.366495 277.85019,164.93538 C277.91133,170.729664 276.941861,176.476433 275.850557,182.146394 C274.126127,191.108872 271.55719,199.823019 267.828427,208.1592 C259.70147,226.325634 245.90148,243.814146 229.518328,255.171668 C221.430419,260.779333 213.503908,262.688536 204.279644,265.270093 C198.453207,266.901031 197.991162,269.91496 194.898475,275.568863 C188.459734,287.344734 182.135661,299.078246 176.457263,311.251437 C169.676879,325.787507 163.094762,340.339599 156.885915,355.131559 C135.969422,404.957486 118.945337,456.577892 110.004808,510 C109.785907,478.518515 117.068634,446.095278 126.255091,416.088186 C132.946871,394.2257 141.658313,373.150925 150.949917,352.289498 C153.201461,347.235572 156.613471,340.734509 157.569628,335.154756 C158.23913,331.245304 156.192265,327.485558 155.255097,323.367253 C151.601499,307.329812 151.862999,289.362708 155.071402,273.239515 C158.608912,255.460636 168.839228,247.208854 186.145128,244.690591 C192.474243,243.769436 200.51871,244.107045 206.322196,241.408429 C212.645007,238.469723 215.253262,228.810237 218.848644,222.609606 C228.505717,205.953401 239.979718,189.979083 253.15504,175.944848 C256.803162,172.05859 260.726377,168.473254 264.88847,165.150086 C267.513083,163.053353 273.057504,160.47018 274.846162,157.887288 Z" id="Path" fill="#69F0AE"></path>
                <path d="M80.7914533,476 L142.208547,476 C144.96997,476 147.208547,478.238576 147.208547,481 C147.208547,481.244141 147.190665,481.487955 147.155046,481.729484 L142.408062,513.917935 C140.96096,523.730477 132.540739,531 122.622066,531 L100.377934,531 C90.4592609,531 82.03904,523.730477 80.5919379,513.917935 L75.8449542,481.729484 C75.4420714,478.997608 77.3300935,476.456384 80.0619696,476.053501 C80.3034985,476.017881 80.547312,476 80.7914533,476 Z" id="Path" fill="#C1DEE2"></path>
            </g>
            <g id="Group" transform="translate(5.962758, 193.785982)">
                <g transform="translate(57.137242, 0.000000)" fill-rule="nonzero" id="Path">
                    <path d="M75.381908,16.9749586 C81.1187706,27.6755744 80.4370822,54.8185739 73.0226984,56.7310724 C70.0659274,57.4937548 63.7672108,55.6255551 57.3565063,51.7589191 L61.38,80.2467431 L37.62,80.2467431 L45.7989858,42.0944279 C41.2375205,36.7361492 38.1503035,30.1696103 38.6662086,22.8116581 C40.1527469,1.610318 69.6450453,6.27434269 75.381908,16.9749586 Z" fill="#B28B67"></path>
                    <path d="M77.6250051,21.779072 C77.3896508,20.3920499 76.8144596,18.8517769 76.3503482,17.5395237 C75.7519898,15.8478563 74.846474,14.3226046 73.849977,12.8851177 C71.9738931,10.1787538 69.7232982,7.73484043 67.238423,5.70645983 C62.6994906,2.00143323 56.9216493,-0.13564067 51.2398523,0.55837663 C48.3711071,0.90876093 45.5862855,2.00379613 43.2160189,3.82643563 C41.0745093,5.47320793 39.014622,7.89737423 36.2416142,8.07155363 C33.2243533,8.26092313 30.4585565,5.59590993 28.0387335,3.94998153 C25.3103724,2.09443023 22.4078737,0.74234533 19.2190834,0.21676893 C13.8771233,-0.66341117 8.858737,1.14268803 5.1771448,5.52856733 C1.2594312,10.1958004 -1.5884482,17.0402768 0.984339802,23.2243227 C1.4625662,24.3738733 2.0778015,25.3429998 2.9607637,26.1462169 C3.7705422,26.8827664 5.0073031,27.6664052 5.3356331,28.843298 C5.6843687,30.0942846 4.6426113,31.708145 4.2386426,32.836936 C3.6599226,34.454172 3.1847646,36.1517466 3.3536858,37.9095752 C3.6312321,40.7963634 5.4441047,43.5521795 7.3583915,45.4495879 C9.3064318,47.3804145 11.7040081,48.4876017 14.2648288,48.9979881 C15.9747532,49.3387519 17.7222667,49.5267712 19.4601144,49.3988371 C20.3228246,49.3353764 21.0841206,49.0955421 21.9199814,48.9048223 C22.7328283,48.7193347 23.1871205,48.9353712 23.8767669,49.3814529 C27.0804394,51.4540534 30.525143,52.2559203 34.2243791,51.9477307 C37.3464293,51.6874742 40.944865,50.9303336 43.4917241,48.7897153 C46.3201184,46.4123007 46.2638114,43.1339463 45.5982527,39.6312851 C46.3033951,39.9809942 48.254197,40.1975371 47.088472,38.8035951 C46.6266621,38.2515205 45.7541327,38.0268762 45.1616044,37.7021463 C44.4716511,37.3240824 43.7711114,36.8354685 43.2353505,36.2187517 C41.0720545,33.728593 43.2569834,28.6608484 45.9759856,27.8257322 C50.0156723,26.5850411 50.9201141,32.3020767 53.803895,33.7809144 C55.4619616,34.6312207 57.1964339,33.4690116 58.4387181,32.2823297 C60.1027683,30.6926045 61.2368877,28.5865858 62.2160476,26.4434359 C63.0226042,24.6785186 63.7731604,22.8887909 64.5952129,21.1326502 C64.9790829,20.3125552 66.3080523,17.9942131 65.6406525,17.0669438 C68.5340992,16.4895524 71.7567964,17.6927746 74.2487292,19.2706852 C75.2786729,19.9230143 76.0639033,20.6421797 76.6133191,21.7937557 C76.7309962,22.0405099 76.9872164,22.7740215 77.3089491,22.8040641 C77.9079213,22.8600986 77.6840739,22.1275997 77.6250051,21.779072" fill="#191847"></path>
                </g>
                <g transform="translate(10.507242, 170.763435)" fill-rule="nonzero">
                    <path d="M131.42911,41.3105836 C139.216816,41.3105836 145.53,47.6237672 145.53,55.4114738 L145.53,150.055857 C145.53,157.843563 139.216816,164.156747 131.42911,164.156747 L14.1008902,164.156747 C6.3131836,164.156747 0,157.843563 0,150.055857 L0,55.4114738 C0,47.6237672 6.3131836,41.3105836 14.1008902,41.3105836 L131.42911,41.3105836 Z M114.284777,69.0500397 L31.2452226,69.0500397 C29.2982959,69.0500397 27.72,70.6283356 27.72,72.5752623 L27.72,72.5752623 L27.72,132.892068 C27.72,134.838995 29.2982959,136.41729 31.2452226,136.41729 L31.2452226,136.41729 L114.284777,136.41729 C116.231704,136.41729 117.81,134.838995 117.81,132.892068 L117.81,132.892068 L117.81,72.5752623 C117.81,70.6283356 116.231704,69.0500397 114.284777,69.0500397 L114.284777,69.0500397 Z" id="Shape" fill="#C5CFD6"></path>
                    <path d="M243.697374,159.202457 C224.178664,135.350661 210.971838,117.668005 204.076897,106.154491 C192.271084,86.4405594 182.60859,68.8988015 179.559348,62.1979289 C172.288038,46.2188388 196.299077,38.736555 201.73332,46.1897326 C209.958263,57.4704129 227.523823,92.9675377 254.43,152.681108 L243.697374,159.202457 Z" id="Path" fill="#997659"></path>
                    <path d="M203.699991,152.267593 L167.374545,60.7638218 C159.605255,44.0832945 197.1246,33.1187784 202.834441,40.8815616 C215.797549,58.5054825 246.607857,128.029295 250.47,133.280049 L203.699991,152.267593 Z" id="Path" fill="#1A237E"></path>
                    <path d="M134.890545,153.397693 C133.889416,140.917453 132.022573,97.7140129 133.868731,77.717671 C134.399243,71.9715243 134.958344,66.4159381 135.521916,61.2043189 C137.197051,45.7135423 165.917276,46.2130899 163.641594,60.9298691 C157.974245,97.5804659 147.994553,148.943456 147.279531,153.381559 C146.277397,159.601748 135.519723,161.241134 134.890545,153.397693 Z" id="Path" fill="#997659" transform="translate(148.427854, 104.210369) rotate(39.000000) translate(-148.427854, -104.210369) "></path>
                    <path d="M102.963921,141.995697 C101.799568,145.067963 101.217392,147.357129 101.217392,148.863195 C101.217392,150.649702 101.514802,153.256659 102.109622,156.684067 C104.180641,156.684067 122.793239,156.684067 157.947416,156.684067 C159.398442,151.883662 158.560826,149.292078 155.434566,148.909314 C152.308307,148.526551 149.71127,148.180946 147.643456,147.8725 L121.588779,136.249043 C121.144274,136.050741 120.623177,136.250328 120.424876,136.694833 C120.421422,136.702573 120.418081,136.710363 120.414853,136.7182 L118.703973,140.871284 L118.703973,140.871284 C115.809874,142.222549 113.458119,142.898182 111.648706,142.898182 C110.140567,142.898182 108.042949,142.272896 105.35585,141.022325 L105.355849,141.022328 C104.473285,140.611584 103.424853,140.99407 103.01411,141.876633 C102.995931,141.915694 102.97919,141.955409 102.963921,141.995697 Z" id="Path" fill="#E4E4E4" transform="translate(129.927392, 146.428216) rotate(30.000000) translate(-129.927392, -146.428216) "></path>
                    <path d="M235.38653,155.412009 C234.222177,158.484275 233.64,160.773441 233.64,162.279507 C233.64,164.066013 233.93741,166.67297 234.53223,170.100378 C236.603249,170.100378 255.215847,170.100378 290.370024,170.100378 C291.821051,165.299973 290.983434,162.708389 287.857175,162.325626 C284.730915,161.942863 282.133878,161.597258 280.066064,161.288812 L254.011387,149.665354 C253.566882,149.467053 253.045785,149.66664 252.847484,150.111144 C252.844031,150.118885 252.840689,150.126675 252.837461,150.134512 L251.126581,154.287595 L251.126581,154.287595 C248.232482,155.638861 245.880727,156.314493 244.071314,156.314493 C242.563175,156.314493 240.465557,155.689208 237.778458,154.438637 L237.778457,154.438639 C236.895894,154.027896 235.847461,154.410381 235.436718,155.292945 C235.418539,155.332006 235.401798,155.371721 235.38653,155.412009 Z" id="Path" fill="#E4E4E4"></path>
                    <path d="M154.30347,65.33417 C124.111619,60.4120838 103.888709,57.0463802 93.634737,55.2370594 C64.406877,50.0797817 55.883784,34.340557 60.923091,6.9388939e-15 L114.774928,6.9388939e-15 C121.901352,2.05942176 151.678321,14.7962772 204.105833,38.2105664 C213.538577,42.8963986 211.78189,56.7125944 210.057752,61.2644198 C209.987435,61.4500606 194.085637,88.7175038 162.352357,143.06675 L118.299285,114.983277 L154.386202,68.643423 C155.339223,66.7225646 155.311646,65.6194802 154.30347,65.33417 Z" id="Path" fill="#2A349E"></path>
                </g>
                <g transform="translate(0.000000, 60.689075)">
                    <path d="M38.8070337,72.2116261 L60.7044255,72.2938058 C44.0266744,126.327613 35.1735892,154.618857 34.1451699,157.16754 C31.8312264,162.902076 36.727842,171.635675 38.8218292,176.329046 C35.8726199,177.648729 34.3346325,176.2843 32.8431495,174.634038 L32.5637082,174.32185 L32.5637082,174.32185 L32.2833578,174.006476 C30.5007058,172.006433 28.5430742,170.026065 24.1251607,172.081435 C22.5740105,172.803085 21.0961826,173.640475 19.6533075,174.476576 L19.1137928,174.789825 C19.0241217,174.841947 18.9345685,174.894007 18.8451237,174.945976 L18.3096812,175.256472 C12.9667688,178.345972 7.94676431,180.903061 1.22627701,176.756314 C0.110847007,176.06806 -1.11148249,173.476657 1.84182021,171.451613 C9.19957411,166.40649 19.8025433,157.576615 21.2351715,154.670194 C23.1888159,150.706769 29.0461033,123.22058 38.8070337,72.2116261 L38.8070337,72.2116261 Z M177.330366,97.2222771 L205.65827,124.8573 C213.900646,128.373111 220.654099,132.255276 225.918629,136.503796 C227.102543,137.931868 228.391426,140.668127 222.821169,139.44369 C217.250913,138.219253 211.336772,137.181845 210.289852,138.993333 C209.242933,140.804821 212.327767,143.580665 210.39293,145.951437 C209.103038,147.531952 204.765032,142.504644 197.378912,130.869513 L167.921638,113.502233 L177.330366,97.2222771 Z" id="Shape" fill="#997659" fill-rule="nonzero"></path>
                    <path d="M100.605492,14.4759498 L109.090444,12.2447791 C126.857158,59.0261877 199.440117,85.6236076 205.289116,103.181028 C207.434099,109.619798 202.992129,113.358133 205.612113,115.147263 L195.13241,124.323359 C193.042786,122.277027 189.350601,126.677688 180.653148,124.58631 C171.955695,122.494932 105.574753,71.2748564 100.605492,14.4759498 Z" id="Path" fill="#304FFE" fill-rule="nonzero" transform="translate(153.250486, 68.705206) rotate(5.000000) translate(-153.250486, -68.705206) "></path>
                    <g transform="translate(18.038054, 0.000000)">
                        <g id="voty_screen_modul_2_g1-d-link" fill="#693DE3" fill-rule="nonzero">
                            <path d="M71.6411957,0.00873273579 L99.5226669,1.95839512 C101.464851,2.09420586 102.929205,3.77875347 102.793395,5.7209375 L102.040769,16.4411737 C101.021627,80.2364966 137.897392,96.5 129.686449,122.081071 C122.907948,143.199399 58.0265185,165.901512 46.7991874,145.200566 C42.2539325,136.820029 40.1920456,126.684139 39.9585257,115.664254 C37.0897957,124.131267 34.8199509,131.419771 33.1503142,137.530305 C30.2703713,148.070315 19.1054472,149.745697 19.1054472,153.806088 L19.1054472,153.806088 L4.3958174,149.745697 C5.39353693,144.229488 -1.54093801,141.543423 0.31837552,129.219731 C8.6490867,74.0030492 31.0320291,33.9780201 67.4672028,9.14464286 L67.8786533,3.27946092 C68.014464,1.33727688 69.6990116,-0.127078002 71.6411957,0.00873273579 Z" id="voty_screen_modul_2_g1-d"></path>
                        </g>
                        <g id="Clipped">
                            <mask id="mask-2" fill="white">
                                <use xlink:href="#path-1"></use>
                            </mask>
                            <g id="voty_screen_modul_2_g1-d"></g>
                            <g id="Group" mask="url(#mask-2)">
                                <g transform="translate(-30.200813, -7.001057)">
                                    <g id="Clipped" stroke-width="1" fill="none" fill-rule="evenodd">
                                        <mask id="mask-4" fill="white">
                                            <use xlink:href="#path-3"></use>
                                        </mask>
                                        <g id="voty_screen_modul_2_g1-f"></g>
                                        <path d="M61.9779748,0.000402206 L8.67132867e-05,0.000402206 L8.67132867e-05,164.18813 L61.9779748,164.18813 C41.2179469,142.993693 28.4216671,114.0333 28.4216671,82.0942662 C28.4216671,50.154801 41.2179469,21.1948391 61.9779748,0.000402206" id="Path" fill="#6379F7" fill-rule="nonzero" mask="url(#mask-4)"></path>
                                    </g>
                                    <g id="Group" stroke-width="1" fill="none" fill-rule="evenodd" transform="translate(231.097000, 0.000000)">
                                        <g id="Clipped">
                                            <mask id="mask-6" fill="white">
                                                <use xlink:href="#path-5"></use>
                                            </mask>
                                            <g id="voty_screen_modul_2_g1-h"></g>
                                            <path d="M-0.0002972222,0.000402206 C20.6159944,21.1948391 33.3229806,50.154801 33.3229806,82.0942662 C33.3229806,114.0333 20.6159944,142.993693 -0.0002972222,164.18813 L61.5471889,164.18813 L61.5471889,0.000402206 L-0.0002972222,0.000402206 Z" id="Path" fill="#DE32C7" fill-rule="nonzero" mask="url(#mask-6)"></path>
                                        </g>
                                    </g>
                                    <g id="Group" stroke-width="1" fill="none" fill-rule="evenodd" transform="translate(28.240000, 0.000000)">
                                        <g id="Clipped">
                                            <mask id="mask-8" fill="white">
                                                <use xlink:href="#path-7"></use>
                                            </mask>
                                            <g id="voty_screen_modul_2_g1-j"></g>
                                            <path d="M118.29772,124.452499 C94.7683082,124.452499 75.6937148,105.488374 75.6937148,82.0942662 C75.6937148,58.7005899 94.7683082,39.7360334 118.29772,39.7360334 C141.827566,39.7360334 160.901726,58.7005899 160.901726,82.0942662 C160.901726,105.488374 141.827566,124.452499 118.29772,124.452499 M203.000479,0.000402206 L33.5949621,0.000402206 C12.811017,21.1948391 -4.94499999e-06,50.154801 -4.94499999e-06,82.0942662 C-4.94499999e-06,114.0333 12.811017,142.993693 33.5949621,164.18813 L203.000479,164.18813 C223.784858,142.993693 236.595446,114.0333 236.595446,82.0942662 C236.595446,50.154801 223.784858,21.1948391 203.000479,0.000402206" id="Shape" fill="#304FFE" fill-rule="nonzero" mask="url(#mask-8)"></path>
                                        </g>
                                    </g>
                                    <path d="M146.5,39.763 C123.028028,39.763 104,58.7910282 104,82.263 C104,105.735405 123.028028,124.763 146.5,124.763 C169.972405,124.763 189,105.735405 189,82.263 C189,58.7910282 169.972405,39.763 146.5,39.763" id="Path" fill="#6379F7" fill-rule="nonzero"></path>
                                </g>
                            </g>
                        </g>
                    </g>
                </g>
            </g>
            <g id="Group" transform="translate(441.418621, 350.000000) scale(-1, 1) translate(-441.418621, -350.000000) translate(319.000000, 188.000000)" fill-rule="nonzero">
                <g transform="translate(77.837242, -0.000000)" id="Path">
                    <path d="M40.1433414,11.1339329 C45.9381521,21.9350547 45.249578,49.3329958 37.7603014,51.2634576 C34.773664,52.0333035 28.4113241,50.1475566 21.935865,46.2446031 L26,75 L2,75 L10.2616018,36.4893378 C5.65406109,31.0807313 2.53566013,24.452516 3.05677633,17.0254539 C4.55833022,-4.37502057 34.3485306,0.33281114 40.1433414,11.1339329 Z" fill="#F1C0A6"></path>
                    <path d="M22,0 C34.8690713,0 39.7485692,5.3062174 40,10 C34.9777323,11.3802828 26.5371266,11.9875703 14.6089249,12.0100681 L13.1895125,12.0100283 C12.4717569,12.0086707 11.7419241,12.0053152 11,12 L11,13 L23,14 L25,20 C21.818039,19.7624584 19.5442321,21.9450202 17.7297608,24.8671184 C16.9456796,24.3278818 16.0076493,24 15,24 C12.2385763,24 10,26.4624339 10,29 C10,31.6396292 11.2463746,33.6806558 13.0263305,34.5467302 C12.0760809,36.4058117 11.1200109,37.7549645 10,38 C5.6781395,37.5628085 0,26.8205201 0,18 C0,8.3455086 7.6819829,0 22,0 Z" fill="#191847"></path>
                </g>
                <g transform="translate(8.837242, 158.000000)" id="Path">
                    <g transform="translate(0.000000, 42.000000)">
                        <polygon fill="#C5CFD6" points="27.623 0 104.877 0 115 124 0 124"></polygon>
                        <polygon fill-opacity="0.1" fill="#000000" points="27.623 0 51.383 0 65.604 124 0 124"></polygon>
                    </g>
                    <path d="M192.954028,20.756908 L193.24189,20.5887017 C201.50855,15.9575335 215.00938,22.2466943 215.00001,29.2384154 C214.971611,50.4029106 195.656682,150.1511 194.648224,156.456711 C193.639766,162.762321 182.83665,164.42787 182.20755,156.477375 C181.206544,143.826795 179.3468,100.033121 181.20755,79.7626522 C181.975689,71.3947628 182.802939,63.4254961 183.617343,56.3158982 C173.483775,74.6174738 157.808496,100.823961 136.593128,134.933778 L125.076573,129.672175 C134.120166,99.8760987 141.535776,78.8408618 147.323403,66.5664641 C150.899113,58.9831012 154.394396,51.7927571 157.58547,45.4013011 L158.129489,44.3135245 C163.53905,33.5155316 168.017031,25.1334494 170.436043,21.2120072 C176.587899,11.2392801 187.296386,14.7194928 192.954028,20.756908 Z" fill="#F1C0A6"></path>
                    <path d="M143.819348,123.340142 L148.937047,21.8299645 C152.625486,4.27742919 183.843775,12.4235645 183.830945,21.8299645 C183.801791,43.1854044 170.973647,116.956792 170.964964,123.319291 L143.819348,123.340142 Z" fill="#00923D" transform="translate(163.825147, 67.419660) rotate(20.000000) translate(-163.825147, -67.419660) "></path>
                    <g transform="translate(114.952251, 117.671481)" fill="#E4E4E4">
                        <path d="M2.95987245,19.1854454 C1.84111791,22.1719321 1.28174064,24.4065143 1.28174064,25.889192 C1.28174064,27.6924782 1.58215484,30.3239213 2.18298325,33.7835212 C4.27492181,33.7835212 23.0755258,33.7835212 58.5847954,33.7835212 C60.0504786,28.9380285 59.2044013,26.3221028 56.0465634,25.9357444 C52.8887256,25.5493859 50.2654561,25.2005351 48.1767549,24.889192 L21.9617332,13.2024047 C21.4573041,12.9775276 20.8660846,13.2041494 20.6412076,13.7085785 C20.6373606,13.7172079 20.633636,13.7258914 20.6300351,13.7346264 L18.9449537,17.8222162 L18.9449537,17.8222162 C16.0216218,19.1861734 13.6461112,19.8681519 11.8184217,19.8681519 C10.3334675,19.8681519 8.2827331,19.2684266 5.66621856,18.0689761 L5.66622403,18.0689642 C4.66212337,17.608669 3.47499598,18.0495104 3.01470078,19.0536111 C2.99486138,19.0968893 2.97657362,19.1408621 2.95987245,19.1854454 Z" transform="translate(30.281741, 23.449513) rotate(30.000000) translate(-30.281741, -23.449513) "></path>
                    </g>
                    <g transform="translate(178.000000, 145.331984)" fill="#E4E4E4">
                        <path d="M1.67813181,6.06993991 C0.55937727,9.05642661 0,11.2910088 0,12.7736865 C0,14.5769727 0.3004142,17.2084158 0.90124261,20.6680157 C2.99318117,20.6680157 21.7937852,20.6680157 57.3030548,20.6680157 C58.768738,15.822523 57.9226607,13.2065973 54.7648228,12.8202389 C51.606985,12.4338804 48.9837155,12.0850296 46.8950143,11.7736865 L20.6799926,0.0868992104 C20.1755635,-0.13797789 19.584344,0.0886439104 19.359467,0.59307301 C19.35562,0.60170241 19.3518954,0.61038591 19.3482945,0.61912091 L17.6632131,4.70671071 L17.6632131,4.70671071 C14.7398812,6.07066791 12.3643706,6.75264641 10.5366811,6.75264641 C9.0517269,6.75264641 7.00099246,6.15292111 4.38447792,4.95347061 L4.38448339,4.95345871 C3.38038273,4.49316351 2.19325534,4.93400491 1.73296014,5.93810561 C1.71312074,5.98138381 1.69483298,6.02535661 1.67813181,6.06993991 Z"></path>
                    </g>
                    <path d="M217.770373,36.4330278 C217.770373,63 205.1536,124.970293 205.145616,130.820112 L178,130.840963 C181.973277,75.5454811 183.382172,47.5998928 182.226683,47.0041979 C180.49345,46.1106556 111.175838,53.9250306 90.386358,53.9250306 C60.407825,53.9250306 48.006307,35.0203971 47,0 L106.386358,0 C118.477954,1.29386693 181.548825,14.0152568 204.972097,18.3884129 C215,20.2606358 217.770373,29.1145109 217.770373,36.4330278 Z" fill="#017C34"></path>
                </g>
                <g transform="translate(0.000000, 53.000000)">
                    <path d="M34.1451699,93.0198914 L55.0425616,93.1020711 C44.3329262,127.674615 37.7135505,148.777448 35.1844344,156.410568 L34.9262238,157.185464 C34.5494999,158.308737 34.2891486,159.048781 34.1451699,159.405597 C31.8312264,165.140133 36.727842,173.873732 38.8218292,178.567103 C32.0017827,181.61887 32.7284659,170.316929 24.1251607,174.319492 C22.3801167,175.131349 20.7278713,176.089688 19.1137928,177.027882 L18.5771052,177.339639 C18.3986306,177.443156 18.2205523,177.546197 18.0427953,177.648531 L17.5104132,177.953189 C12.4605171,180.822978 7.61074001,182.933781 1.22627701,178.994371 C0.110847007,178.306117 -1.11148249,175.714714 1.84182021,173.68967 C4.07144261,172.160845 6.59906461,170.284476 9.07920491,168.330709 L9.82147711,167.742526 C15.2492935,163.416125 20.2800861,158.845865 21.2351715,156.908251 C23.1888159,152.944826 27.4921486,131.648706 34.1451699,93.0198914 L34.1451699,93.0198914 Z M159.881652,89.1225115 L188.209556,116.757535 C196.451932,120.273345 203.205385,124.155511 208.469915,128.40403 C209.653829,129.832102 210.942712,132.568362 205.372456,131.343925 C204.836854,131.22619 204.298073,131.110185 203.760745,130.998275 L203.116946,130.866101 C198.298131,129.891811 193.747126,129.325933 192.841138,130.893567 C191.794219,132.705055 194.879053,135.480899 192.944216,137.851671 C191.654324,139.432186 187.316318,134.404878 179.930198,122.769747 L150.472924,105.402467 L159.881652,89.1225115 Z" id="Shape" fill="#F1C0A6"></path>
                    <path d="M87.8562371,9.23199917 L96.3411891,7.00082849 C114.413422,42.7520046 143.251772,74.1501028 182.856237,101.195123 L157.89904,137.565049 C117.176067,97.6857547 90.5078181,55.1985903 87.8562371,9.23199917 Z" id="Path" fill="#265FD7" transform="translate(135.356237, 72.282939) rotate(5.000000) translate(-135.356237, -72.282939) "></path>
                    <path d="M55.8372418,114 L132.837242,114 C114.998112,70.6251468 106.078546,33.7787236 106.078546,3.4607303 L82.8514498,2.84217094e-14 C64.5971347,29.3584068 59.4420681,65.5045499 55.8372418,114 Z" id="Path" fill="#DDE3E9"></path>
                    <path d="M83.8849938,0 C85.6992218,0.0624731357 88.4625238,0.175030894 92.1748998,0.337673275 L92.1748998,0.337673275 L97.7873998,16.3768801 C98.3810778,35.9324229 101.848068,75.3421183 108.188369,134.605966 L108.188369,134.605966 L57.7133093,134.60553 C57.8456278,138.698782 58.0638069,142.830272 58.3678465,147 L58.3678465,147 L20.8372418,147 C26.4511582,83.6639633 46.9524791,34.6639633 82.3412048,0 L82.3412048,0 L82.3592418,0.017 L82.3688248,0 L83.8849938,0 Z" id="Path" fill="url(#linearGradient-9)"></path>
                    <path d="M71.8372418,135 L57.7262988,134.999288 C57.1085989,116.643048 58.2155616,99.0548837 61.0471867,82.2347951 C62.4841649,107.748771 66.0807188,125.3371 71.8372418,135 Z" id="Path" fill-opacity="0.1" fill="#000000"></path>
                    <polygon id="Path" fill-opacity="0.2" fill="#FFFFFF" points="68.9482418 104 93.8372418 92.429 93.8372418 104"></polygon>
                </g>
            </g>
        </g>
    </g>
</svg>