<?xml version="1.0" encoding="UTF-8"?>
<svg width="627px" height="535px" viewBox="0 0 627 535" version="1.1" xmlns="http://www.w3.org/2000/svg" xmlns:xlink="http://www.w3.org/1999/xlink">
    <title>start_teaser_m1b</title>
    <defs>
        <path d="M2.66453526e-15,2.23117068 L8.48495155,1.77635684e-15 C28.8398886,16.5590651 40.3221196,59.6156622 53.3324228,64.3096367 C65.633138,68.7475997 81.9283465,61.9860001 101.222917,53.0930226 L108.515805,66.1893332 C92.1295793,87.3540149 55.0183649,107.270535 38.5626935,99.1937994 C12.2534955,86.2807775 1.7665569,32.8553984 2.66453526e-15,2.23117068 Z" id="path-1"></path>
        <path d="M98.486398,0 C118.298923,67.5369477 123.760885,112.536948 114.872285,135 L114.872285,135 L46,135 C47.0896915,118.562494 50.5838029,101.179176 55.3695915,84.2302075 C39.7719945,112.366884 26.6611932,132.623153 16.0374452,145 L0,141.85882 C10.3305927,77.7906722 40.2466105,30.5043988 89.7480534,0 L98.486398,0 Z" id="path-3"></path>
    </defs>
    <g id="Page-1" stroke="none" stroke-width="1" fill="none" fill-rule="evenodd">
        <g id="start_teaser_m1b" transform="translate(0.876602, -0.000000)">
            <g id="Group" transform="translate(494.123398, 0.000000)" fill-rule="nonzero">
                <path d="M120.980481,0.659775373 C117.569531,-0.0853801391 113.803318,-0.0283494469 110.328853,0.0331207603 C91.6953105,0.286514614 73.3974882,9.10851385 61.4888276,23.2046569 C51.3509016,35.2050073 48.5632336,50.1248511 46.5604261,65.2069079 C46.3618554,66.7043905 46.2767038,68.192311 46.1646806,69.6928671 C46.1406008,70.0149026 46.1046557,70.3021051 46.0662677,70.572574 C45.2786154,71.2767494 44.8654207,72.0977182 45.3316606,72.9996227 C43.5965223,76.796774 42.1287042,80.6902286 40.8692283,84.7059407 C37.1623418,96.5259785 33.3915917,108.570724 35.7144157,121 C36.2570826,114.160073 37.3986026,107.165788 38.7638201,100.438216 C38.842341,100.051978 38.9271436,99.6688136 39.0154361,99.2870153 C39.0245096,99.2467182 39.0328852,99.206421 39.0419587,99.1664654 C39.5252987,97.106189 40.1534663,95.1077242 40.9173878,93.1406776 C40.9254144,93.119163 40.933092,93.09799 40.9414675,93.0768169 C41.0423233,92.817959 41.1494608,92.5604671 41.2552023,92.3029753 C41.474014,91.769892 41.6987584,91.2378332 41.9371131,90.7085064 C42.0177279,90.5281938 42.0952019,90.3461737 42.1695351,90.1627876 C43.2817406,87.4369254 43.7514703,84.365464 44.7478138,81.545006 C44.9861685,80.9036668 45.2353416,80.2647182 45.4963801,79.6291846 C45.5117353,79.5919609 45.5274395,79.5547373 45.5431437,79.5175137 C46.2487852,77.8072759 47.028411,76.1178697 47.8527064,74.4462216 C48.3007992,74.1095014 48.5402008,73.2741896 48.9265239,72.5150326 C49.0064407,72.3654551 49.6311184,71.3679302 49.8171258,70.7931838 C50.3025597,69.8540556 50.7862487,68.9145859 51.2751725,67.9771653 C51.2605152,67.9826293 51.245858,67.9880933 51.2312007,67.9935573 C51.7204735,67.0933603 52.2111421,66.1969198 52.6979719,65.3042358 C52.8051094,65.1082141 52.9132938,64.9118509 53.0211292,64.7151463 C53.1959692,64.4019897 53.3708092,64.0891747 53.5453002,63.7770426 C55.1774888,60.8561833 56.9080904,57.9937206 58.7053475,55.1667741 C59.3467763,54.1579797 60.8791561,52.7113808 61.1729989,51.5786215 C61.1838174,51.5362754 61.1862603,51.4973442 61.1928909,51.4567056 C65.0927644,45.9793686 69.5824173,40.9272006 74.9665111,36.9241241 C74.3156597,37.6276165 72.9322952,40.015051 72.5665621,40.4876886 C71.4473769,41.9349705 70.2322217,43.2821925 69.0125298,44.6458066 C66.8282517,47.0885644 64.6956229,49.6088429 62.8006508,52.2739178 C59.3352599,57.1478223 56.3455314,62.2771696 53.5194755,67.5096502 C53.4926039,67.5403853 53.4632894,67.5694129 53.4378137,67.600831 C52.0174571,69.3517074 51.1233653,71.9979998 50.1008482,74.0009041 C54.147294,72.1267458 58.6215918,70.9058791 62.7744772,69.241744 C66.9158461,67.5827314 70.9444939,65.7352102 74.8338979,63.5656534 C80.0033678,60.6823592 85.3658246,57.4268287 90.2501762,53.7427143 C95.8474979,50.2706721 100.551077,45.491705 104.702915,40.4767606 C109.615185,34.5431781 114.117053,28.5576874 116.901231,21.3530376 C118.268891,17.8126952 119.344803,14.1210677 119.982742,10.3864112 C120.01066,10.2235151 120.046256,10.046959 120.084993,9.8635729 C120.73759,8.57372305 121.321087,7.2548456 121.810709,5.90557455 C122.588241,3.76572834 124.424584,1.41176091 120.980481,0.659775373" id="Path" fill="#00C853"></path>
                <path d="M127.985552,66.3755429 C124.041234,63.700897 118.796053,63 114.075943,63 C95.6400811,63 78.3112274,69.8400486 63.3411361,80.0318686 C55.1382704,85.6163535 47.8001859,92.7279727 41.3217129,100.132413 C37.5823286,104.406588 34.2480105,109.030491 31.8874019,114.173043 C30.2944619,117.644032 29.2011157,121.260531 28.4600331,124.990844 C27.5568501,129.53695 26.8393994,134.17526 26.5148296,138.797002 C26.3870694,140.616957 25.3295404,150.27428 28.3555356,150.437799 C28.3381809,150.675873 28.3341192,150.902782 28.3525816,151.10628 C21.7821656,161.379859 17.7226426,173.420088 13.9581494,184.835416 C10.6829112,194.768992 7.76436737,204.786488 5.86975096,215.062949 C3.37547423,228.592494 1.7371166,242.325536 0.958001292,256.049575 C0.790731513,258.999033 0.675895087,261.949932 0.576936366,264.903351 C0.493116852,267.422403 0.408189591,269.941454 0.325477824,272.460505 C0.233165584,275.283542 -0.263843516,278.533745 0.185163219,281.340214 C0.575828619,283.784349 2.69125591,283.414451 2.7846759,280.982202 C2.89766608,278.04499 2.87920363,275.102015 3.00770227,272.162642 C3.17866454,268.261606 3.35479629,264.360571 3.545698,260.460615 C4.87462501,233.36875 9.86022447,206.675236 19.0611701,181.084213 C22.7846766,170.728154 27.0513483,160.9246 32.5350646,151.344715 C37.3563483,142.921705 43.1557724,134.767384 49.0836952,127.172773 C54.845456,119.792465 60.8357819,112.582879 67.8954528,106.329912 C73.6243504,101.255793 79.9259531,96.8353874 86.4036876,92.7222099 C94.631293,87.4982583 102.843021,82.4010877 111.755213,78.3909197 C116.387811,76.3065976 121.10792,74.4405404 125.776704,72.4404988 C126.616746,72.0806858 127.517344,71.731678 128.325261,71.3149577 C131.020409,69.9250494 130.133103,67.831723 127.985552,66.3755429" id="Path" fill="#69F0AE"></path>
                <path d="M68.1822005,161 C60.7049108,161 54.0512902,161.971586 47.1617897,164.943116 C41.2147667,167.507723 35.7950865,170.902835 30.5331228,174.599146 C23.1315648,179.797709 17.3016133,185.848195 13.2207862,193.86497 C10.7827812,198.65423 8.99440135,205.431196 10.6316652,210.654916 C12.5603919,216.807388 17.8560527,221.93864 24.8306646,220.85453 C29.1435502,220.184822 33.0972314,217.329896 36.375233,214.642906 C40.2966066,211.428309 43.435651,207.563042 46.0275511,203.270114 C50.2556729,196.267419 52.7402285,188.35093 56.3319261,181.033439 C58.0362368,177.560477 59.6832276,174.062699 61.7245096,170.762094 C62.7350762,169.1276 63.8109527,167.508743 65.3439986,166.29409 C66.1641938,165.64444 69.6224924,164.519875 68.2999667,163.060796 C87.690409,163.315421 104.868304,178.207408 108.590622,196.640687 C108.93732,198.358811 109.208287,200.090872 109.494539,201.819534 C109.675183,202.911123 109.60223,206.936508 110.578058,207.633752 C112.730158,209.17204 111.825546,204.499044 111.73314,203.826277 C111.494481,202.087417 111.239842,200.349916 110.972696,198.615475 C109.519203,189.181436 105.319221,180.411324 98.3150805,173.683312 C90.3055845,165.989832 79.498879,161 68.1822005,161" id="Path" fill="#00C853" transform="translate(61.000000, 191.000000) scale(-1, 1) translate(-61.000000, -191.000000) "></path>
            </g>
            <g id="Group" transform="translate(95.990891, 413.270644) scale(-1, 1) rotate(-34.000000) translate(-95.990891, -413.270644) translate(20.055221, 354.190196)" fill-rule="nonzero">
                <path d="M138.102993,7.54856157 C135.902154,7.06966706 133.472089,7.10631939 131.230269,7.14582489 C119.207393,7.30867537 107.401134,12.9783738 99.7173369,22.0376446 C93.1760676,29.7499972 91.3773874,39.3386418 90.0851208,49.031537 C89.9569974,49.993935 89.9020553,50.9501877 89.8297748,51.914561 C89.8142379,52.1215259 89.7910451,52.3061044 89.7662761,52.4799286 C89.2580611,52.9324861 88.9914565,53.4601041 89.2922874,54.0397377 C88.1727283,56.4800805 87.2256515,58.9823153 86.4130029,61.5631222 C84.0212176,69.1595919 81.5882256,76.9004762 83.0869756,84.8884894 C83.4371193,80.4926241 84.1736595,75.997556 85.0545355,71.6738979 C85.1051994,71.4256716 85.1599163,71.1794206 85.2168851,70.9340476 C85.2227396,70.9081495 85.2281437,70.8822515 85.2339982,70.8565729 C85.5458625,69.53248 85.9511735,68.2481121 86.4440768,66.983936 C86.4492557,66.9701091 86.4542095,66.9565016 86.4596137,66.9428941 C86.5246886,66.7765321 86.5938167,66.6110479 86.662044,66.4455637 C86.8032274,66.1029632 86.9482386,65.7610211 87.1020317,65.4208348 C87.1540466,65.304952 87.2040349,65.1879718 87.2519967,65.0701137 C87.9696224,63.318264 88.272705,61.3443056 88.9155733,59.5316613 C89.0693663,59.1194872 89.2301397,58.7088495 89.3985689,58.3004064 C89.4084765,58.2764836 89.4186093,58.2525609 89.4287421,58.2286381 C89.8840415,57.1295071 90.3870775,56.0437642 90.9189356,54.9694339 C91.2080575,54.7530315 91.362526,54.2161956 91.6117923,53.7283026 C91.6633568,53.6321725 92.0664161,52.991086 92.1864332,52.6217095 C92.4996486,52.0181532 92.8117381,51.4143774 93.1272051,50.8119184 C93.1177479,50.81543 93.1082906,50.8189416 93.0988334,50.8224532 C93.4145256,50.243917 93.7311186,49.6677951 94.0452346,49.0940874 C94.1143627,48.9681087 94.1841662,48.8419105 94.2537446,48.7154929 C94.3665562,48.5142343 94.4793677,48.3131952 94.5919541,48.112595 C95.6450873,46.2354251 96.7617191,44.3957854 97.921359,42.5789711 C98.3352266,41.9306419 99.3239603,41.0009456 99.5135558,40.272947 C99.5205362,40.2457321 99.5221124,40.2207119 99.5263906,40.1945944 C102.042697,36.6744344 104.939545,33.4275208 108.41351,30.8548345 C107.993563,31.306953 107.100978,32.841303 106.864997,33.1450564 C106.142868,34.0751916 105.358816,34.9410206 104.571837,35.8173844 C103.162481,37.3872893 101.78645,39.007015 100.563762,40.7197981 C98.3277959,43.8521457 96.3987406,47.1486607 94.5752914,50.5114571 C94.5579531,50.5312098 94.5390385,50.5498652 94.5226009,50.5700569 C93.6061477,51.6953054 93.029255,53.3960174 92.3694987,54.6832385 C94.9803772,53.4787595 97.8673175,52.6941363 100.546874,51.6246344 C103.218999,50.5584248 105.818394,49.3710648 108.327945,47.97674 C111.663429,46.1237123 115.123434,44.0314568 118.274953,41.6637602 C121.886499,39.4323576 124.921378,36.361024 127.600259,33.1380332 C130.769791,29.3246546 133.67452,25.4779157 135.470948,20.847651 C136.3534,18.5723534 137.047608,16.1998283 137.459224,13.7996494 C137.477238,13.6949598 137.500205,13.5814912 137.5252,13.4636331 C137.946273,12.6346759 138.322762,11.7870634 138.638679,10.9199175 C139.140364,9.54468697 140.325223,8.03184559 138.102993,7.54856157" id="Path" fill="#69F0AE" transform="translate(111.016029, 46.006514) rotate(19.000000) translate(-111.016029, -46.006514) "></path>
                <path d="M151.683779,60.7982359 C152.169525,62.3999172 151.7643,63.8094201 149.847782,63.412122 C149.273244,63.293061 148.679721,63.1024362 148.112184,62.941809 C144.957819,62.0492113 141.832132,61.0686168 138.661684,60.2329554 C132.562232,58.6254844 126.372603,57.8472317 120.123511,57.1260857 C115.203384,56.558451 110.246811,56.2163168 105.311977,56.4343449 C99.2307541,56.7031058 93.2973523,57.8854642 87.4092552,59.2461806 C81.350758,60.6468722 75.129363,62.3802908 69.2894785,64.6454447 C62.6473806,67.2216123 56.5249197,70.4039234 50.4504911,74.0836731 C35.4400091,83.1768715 22.0961856,94.5338197 10.4248026,107.574775 C8.74487341,109.452222 7.07191418,111.336206 5.40154805,113.222289 C4.1431116,114.643555 2.9569304,116.12628 1.70715108,117.552757 C0.672305411,118.734055 -0.539083582,118.060776 0.257764298,116.677019 C1.17252801,115.087953 2.74207536,113.660464 3.93510419,112.282826 C4.99983747,111.05367 6.06568207,109.825414 7.13097102,108.596708 C8.38029554,107.156411 9.63656048,105.723822 10.9185417,104.31324 C16.8840915,97.7500226 23.2843099,91.5310773 30.0312114,85.7615762 C35.1559033,81.37934 40.6890235,77.5425503 46.3669793,73.8926177 C52.8922448,69.6985233 59.8193383,65.310943 67.2883237,62.8281617 C67.3617238,62.7186596 67.4559322,62.6065651 67.5613439,62.4942697 C66.1098728,61.1839839 70.5631719,56.7723119 71.366528,55.9118799 C73.4066989,53.7268797 75.6506756,51.6930534 77.9503654,49.7808395 C79.8373663,48.2117593 81.8548371,46.8427229 84.0638066,45.7494227 C87.3368447,44.129828 90.8876363,43.1654679 94.499556,42.5408421 C100.756971,41.4589586 107.326638,40.8727934 113.709769,41.4031717 C125.35897,42.3709882 136.829871,45.9764281 146.077625,53.4599525 C148.445316,55.3759494 150.791686,57.8564248 151.683779,60.7982359 Z" id="Path" fill="#00C853"></path>
                <path d="M79.6424343,62.3982258 C84.4834399,62.3982258 88.7911791,63.0278455 93.2516336,64.9534951 C97.1019019,66.6154445 100.610754,68.8155889 104.017496,71.2109198 C108.809471,74.57976 112.583943,78.5006741 115.225985,83.6958082 C116.804417,86.7994063 117.962264,91.1911033 116.902254,94.5762458 C115.653542,98.5632502 112.224984,101.888471 107.709426,101.185931 C104.917144,100.751939 102.35742,98.9018525 100.235151,97.1605948 C97.6963443,95.0774302 95.6640396,92.5726098 93.9859713,89.7906509 C91.2485675,85.2526742 89.639997,80.1225288 87.314632,75.3805535 C86.2112138,73.1299603 85.144906,70.8632851 83.8233232,68.7243843 C83.1690542,67.6651779 82.4725018,66.6161054 81.4799652,65.8289706 C80.948948,65.4079757 78.7099492,64.6792205 79.5661891,63.7336894 C67.0122768,63.8986947 55.890829,73.5491927 53.480897,85.4945645 C53.2564349,86.6079649 53.0810035,87.7303976 52.8956761,88.8506273 C52.7787218,89.5580132 52.8259533,92.1665953 52.1941756,92.6184323 C50.8008458,93.6152936 51.3865166,90.5870384 51.4463432,90.1510631 C51.6008578,89.0242243 51.7657182,87.8982668 51.9386756,86.774292 C52.8797073,80.6607237 55.5988932,74.977403 60.1335687,70.6174293 C65.3191394,65.6318013 72.3157015,62.3982258 79.6424343,62.3982258 Z" id="Path" fill="#00C853"></path>
            </g>
            <g id="Group" transform="translate(97.638103, 101.515042)">
                <g transform="translate(-0.000000, 0.000000)" fill-rule="nonzero" id="Path">
                    <path d="M422.268907,75.629916 L422.268907,328.518571 C422.268907,338.308283 418.300843,347.171203 411.885351,353.586695 C405.469858,360.002188 396.606938,363.970252 386.817227,363.970252 L386.817227,363.970252 L35.4516807,363.970252 C25.6619694,363.970252 16.7990492,360.002188 10.3835568,353.586695 C3.96806452,347.171203 -1.42108547e-14,338.308283 -1.42108547e-14,328.518571 L-1.42108547e-14,328.518571 L-1.42108547e-14,75.629916 L422.268907,75.629916 Z" stroke="#DDE3E9" fill="#F5FCFF"></path>
                    <path d="M422.270588,1.42108547e-14 L422.270588,40.1785714 C422.270588,49.9682827 418.302524,58.8312029 411.887032,65.2466952 C405.471539,71.6621876 396.608619,75.6302521 386.818908,75.6302521 L386.818908,75.6302521 L35.4533618,75.6302521 C25.6636505,75.6302521 16.8007303,71.6621876 10.3852379,65.2466952 C3.96974564,58.8312029 0.00168112,49.9682827 0.00168112,40.1785714 L0.00168112,40.1785714 L0.00168112,1.42108547e-14 L422.270588,1.42108547e-14 Z" stroke="#C5CFD6" fill="#C5CFD6" transform="translate(211.136135, 37.815126) rotate(-180.000000) translate(-211.136135, -37.815126) "></path>
                </g>
                <g transform="translate(48.485294, 126.484958)" fill="#DDE3E9" fill-rule="nonzero" id="Rectangle">
                    <rect x="-6.10622664e-15" y="8.65973959e-15" width="100" height="100" rx="14.273"></rect>
                    <rect x="-6.10622664e-15" y="113" width="100" height="100" rx="14.273"></rect>
                    <rect x="114" y="8.65973959e-15" width="100" height="100" rx="14.273"></rect>
                    <rect x="113.592" y="113.798" width="100" height="100" rx="14.273"></rect>
                    <rect x="230" y="8.65973959e-15" width="100" height="100" rx="14.273"></rect>
                    <rect x="230.096" y="113.798" width="100" height="100" rx="14.273"></rect>
                </g>
                <g stroke-linecap="round" stroke-linejoin="round" transform="translate(178.573294, 146.837958)" stroke="#0078F0" stroke-width="5.864">
                    <path d="M23.4491315,53.9330025 L14.0694789,60.9677419 L14.0694789,46.898263 L4.6898263,46.898263 C2.09970676,46.898263 0,44.7985563 0,42.2084367 L0,4.6898263 C0,2.09970676 2.09970676,0 4.6898263,0 L56.2779156,0 C58.8680352,0 60.9677419,2.09970676 60.9677419,4.6898263 L60.9677419,18.7593052 M15.8064516,31.0483871 C18.82433,32.6266185 22.0563997,33.767349 25.4032258,34.4354839" id="Shape"></path>
                    <line x1="18.629" y1="13.548" x2="18.629" y2="18.629" id="Path"></line>
                    <line x1="42.339" y1="13.548" x2="42.339" y2="18.629" id="Path"></line>
                    <polygon id="Path" points="70 55.887 60.685 55.887 60.685 70 46.714 55.887 32.742 55.887 32.742 27.661 70 27.661"></polygon>
                    <path d="M42.3387097,41.0685484 C41.637219,41.0685484 41.0685484,41.637219 41.0685484,42.3387097 C41.0685484,43.0402004 41.637219,43.608871 42.3387097,43.608871 C43.0402004,43.608871 43.608871,43.0402004 43.608871,42.3387097 C43.608871,41.637219 43.0402004,41.0685484 42.3387097,41.0685484 M51.3709677,41.0685484 C50.669477,41.0685484 50.1008065,41.637219 50.1008065,42.3387097 C50.1008065,43.0402004 50.669477,43.608871 51.3709677,43.608871 C52.0724585,43.608871 52.641129,43.0402004 52.641129,42.3387097 C52.641129,41.637219 52.0724585,41.0685484 51.3709677,41.0685484 M60.9677419,41.0685484 C60.2662512,41.0685484 59.6975806,41.637219 59.6975806,42.3387097 C59.6975806,43.0402004 60.2662512,43.608871 60.9677419,43.608871 C61.6692326,43.608871 62.2379032,43.0402004 62.2379032,42.3387097 C62.2379032,41.637219 61.6692326,41.0685484 60.9677419,41.0685484" id="Shape"></path>
                </g>
                <g transform="translate(29.877294, 25.158958)">
                    <g id="voty_screen_modul_1_g2-a-link" transform="translate(-0.000000, 0.000000)" fill="#D8D8D8" fill-rule="nonzero">
                        <path d="M14.3961708,0.000470352447 C20.2835133,-0.0467985551 25.615446,3.47237161 27.8914439,8.90356909 C30.1674418,14.3347666 28.9313599,20.6026237 24.7693326,24.7670145 C20.6049418,28.9314052 14.3370847,30.1651237 8.90588722,27.8891258 C3.47232629,25.6154914 -0.0444804289,20.2835586 0.000425033317,14.3938527 C0.0642380585,6.46922035 6.47153848,0.0619199323 14.3961708,0.000470352447 Z" id="voty_screen_modul_1_g2-a"></path>
                    </g>
                    <g id="voty_screen_modul_1_g2-a-link" transform="translate(-0.000000, 0.000000)" fill="#98AAB2" fill-rule="nonzero">
                        <path d="M14.3961708,0.000470352447 C20.2835133,-0.0467985551 25.615446,3.47237161 27.8914439,8.90356909 C30.1674418,14.3347666 28.9313599,20.6026237 24.7693326,24.7670145 C20.6049418,28.9314052 14.3370847,30.1651237 8.90588722,27.8891258 C3.47232629,25.6154914 -0.0444804289,20.2835586 0.000425033317,14.3938527 C0.0642380585,6.46922035 6.47153848,0.0619199323 14.3961708,0.000470352447 Z" id="voty_screen_modul_1_g2-a"></path>
                    </g>
                    <g id="voty_screen_modul_1_g2-b-link" transform="translate(57.576838, 0.000000)" fill="#D8D8D8" fill-rule="nonzero">
                        <path d="M14.3961708,0.000470352447 C20.2835132,-0.0467985551 25.6178094,3.47237161 27.8914439,8.90356909 C30.1674418,14.3347666 28.9313598,20.6026237 24.7693325,24.7670145 C20.6049418,28.9314052 14.3370846,30.1651237 8.90588723,27.8891258 C3.47232623,25.6154914 -0.044480466,20.2835586 0.00042503403,14.3938527 C0.064238034,6.46922035 6.47153843,0.0619199323 14.3961708,0.000470352447 Z" id="voty_screen_modul_1_g2-b"></path>
                    </g>
                    <g id="voty_screen_modul_1_g2-b-link" transform="translate(57.576838, 0.000000)" fill="#98AAB2" fill-rule="nonzero">
                        <path d="M14.3961708,0.000470352447 C20.2835132,-0.0467985551 25.6178094,3.47237161 27.8914439,8.90356909 C30.1674418,14.3347666 28.9313598,20.6026237 24.7693325,24.7670145 C20.6049418,28.9314052 14.3370846,30.1651237 8.90588723,27.8891258 C3.47232623,25.6154914 -0.044480466,20.2835586 0.00042503403,14.3938527 C0.064238034,6.46922035 6.47153843,0.0619199323 14.3961708,0.000470352447 Z" id="voty_screen_modul_1_g2-b"></path>
                    </g>
                    <g id="voty_screen_modul_1_g2-c-link" transform="translate(115.153440, 0.000000)" fill="#D8D8D8" fill-rule="nonzero">
                        <path d="M14.3961707,0.000470352447 C20.2835127,-0.0467985551 25.6178097,3.47237161 27.8914437,8.90356909 C30.1674417,14.3347666 28.9313597,20.6026237 24.7693327,24.7670145 C20.6049417,28.9314052 14.3370847,30.1651237 8.90588674,27.8891258 C3.47468974,25.6154914 -0.044480256,20.2835586 0.000424744023,14.3938527 C0.064237744,6.46922035 6.47153874,0.0619199323 14.3961707,0.000470352447 Z" id="voty_screen_modul_1_g2-c"></path>
                    </g>
                    <g id="voty_screen_modul_1_g2-c-link" transform="translate(115.153440, 0.000000)" fill="#98AAB2" fill-rule="nonzero">
                        <path d="M14.3961707,0.000470352447 C20.2835127,-0.0467985551 25.6178097,3.47237161 27.8914437,8.90356909 C30.1674417,14.3347666 28.9313597,20.6026237 24.7693327,24.7670145 C20.6049417,28.9314052 14.3370847,30.1651237 8.90588674,27.8891258 C3.47468974,25.6154914 -0.044480256,20.2835586 0.000424744023,14.3938527 C0.064237744,6.46922035 6.47153874,0.0619199323 14.3961707,0.000470352447 Z" id="voty_screen_modul_1_g2-c"></path>
                    </g>
                    <line x1="4.362" y1="79.257" x2="359.108" y2="78.826" id="Path" stroke="#DDE3E9" stroke-width="11.817" stroke-linecap="round" stroke-linejoin="round"></line>
                </g>
                <g stroke-linecap="round" stroke-linejoin="round" transform="translate(178.573294, 254.850017)" stroke="#0078F0" stroke-width="5.073">
                    <path d="M3.79844961,52.0930232 C3.79844961,55.0009989 5.34983614,57.6880793 7.86821702,59.1420672 C10.3865979,60.5960551 13.4893711,60.5960551 16.007752,59.1420672 C18.5261328,57.6880793 20.0775194,55.0009989 20.0775194,52.0930232 C20.0775194,49.1850475 18.5261328,46.4979671 16.007752,45.0439792 C13.4893711,43.5899914 10.3865979,43.5899914 7.86821702,45.0439792 C5.34983614,46.4979671 3.79844961,49.1850475 3.79844961,52.0930232 L3.79844961,52.0930232 Z M23.3333333,69.4573643 C21.0353923,65.4493276 16.5497914,62.9457364 11.6666667,62.9457364 C6.78354195,62.9457364 2.29794104,65.4493276 0,69.4573643 M27.1317829,52.0930232 C27.1317829,56.5883642 30.7759768,60.2325581 35.2713178,60.2325581 C39.7666588,60.2325581 43.4108527,56.5883642 43.4108527,52.0930232 C43.4108527,47.5976822 39.7666588,43.9534883 35.2713178,43.9534883 C30.7759768,43.9534883 27.1317829,47.5976822 27.1317829,52.0930232 L27.1317829,52.0930232 Z M46.6666667,69.4573643 C44.3687256,65.4493276 39.8831247,62.9457364 35,62.9457364 C30.1168753,62.9457364 25.6312744,65.4493276 23.3333333,69.4573643 M50.4651163,52.0930232 C50.4651163,56.5883642 54.1093102,60.2325581 58.6046512,60.2325581 C63.0999921,60.2325581 66.744186,56.5883642 66.744186,52.0930232 C66.744186,47.5976822 63.0999921,43.9534883 58.6046512,43.9534883 C54.1093102,43.9534883 50.4651163,47.5976822 50.4651163,52.0930232 L50.4651163,52.0930232 Z M70,69.4573643 C67.702059,65.4493276 63.216458,62.9457364 58.3333333,62.9457364 C53.4502086,62.9457364 48.9646077,65.4493276 46.6666667,69.4573643 M18.4496124,34.7286821 L4.6124031,34.7286821 C2.06504321,34.7286821 0,32.6555407 0,30.0981912 L0,4.63049096 C0,2.07314142 2.06504321,0 4.6124031,0 L18.4496124,0 M43.9534884,0 L64.820296,0 C67.3812781,0 69.4573643,2.07314142 69.4573643,4.63049096 L69.4573643,30.0981912 C69.4573643,32.6555407 67.3812781,34.7286821 64.820296,34.7286821 L43.9534884,34.7286821" id="Shape"></path>
                    <polygon id="Path" points="28.217 6.51194143 28.217 29.8449414 46.667 18.1779414"></polygon>
                </g>
                <g stroke-linecap="round" stroke-linejoin="round" transform="translate(65.452907, 141.603780)" id="Path" stroke-width="5.293">
                    <path d="M20.934989,62.4179082 L4.65015306,62.4179082 C2.08194444,62.4179082 0,60.2682583 0,57.6165307 L0,4.80137755 C0,2.14964995 2.08194444,0 4.65015306,0 L37.6011376,0 C38.8340194,0.001120654 40.0160095,0.507713748 40.8872458,1.40840408 L49.7907388,10.5982408 C50.6626836,11.4991183 51.1522425,12.7207899 51.1516846,13.9944151 L51.1516846,19.2055102" stroke="#A9CCDC"></path>
                    <polygon stroke="#A9CCDC" points="18.600387 14.4041779 27.901387 14.4041779 27.901387 28.8081779 18.600387 28.8081779"></polygon>
                    <line x1="9.30038704" y1="14.4041779" x2="9.30038704" y2="28.8081779" stroke="#A9CCDC"></line>
                    <line x1="37.201387" y1="14.4041779" x2="37.201387" y2="24.0071779" stroke="#A9CCDC"></line>
                    <polygon stroke="#A9CCDC" points="9.30038704 38.4111779 18.600387 38.4111779 18.600387 52.8151779 9.30038704 52.8151779"></polygon>
                    <path d="M30.2259949,48.0137756 C30.2259949,54.0175601 33.3280943,59.5652857 38.3637626,62.567178 C43.399431,65.5690703 49.6036302,65.5690703 54.6392985,62.567178 C59.6749668,59.5652857 62.7770663,54.0175601 62.7770663,48.0137756 C62.7770663,42.0099911 59.6749668,36.4622654 54.6392985,33.4603731 C49.6036302,30.4584808 43.399431,30.4584808 38.3637626,33.4603731 C33.3280943,36.4622654 30.2259949,42.0099911 30.2259949,48.0137756 Z" stroke="#0078F0"></path>
                    <line x1="69.752387" y1="72.0201779" x2="58.009387" y2="59.8991779" stroke="#A9CCDC"></line>
                </g>
                <g stroke-linecap="round" stroke-linejoin="round" transform="translate(292.914449, 257.177862)" id="Path" stroke-width="4.987">
                    <line x1="42.2208452" y1="22.2450962" x2="27.2578452" y2="22.2450962" stroke="#A9CCDC"></line>
                    <line x1="27.2578452" y1="12.2700962" x2="42.2208452" y2="12.2700962" stroke="#0078F0"></line>
                    <line x1="52.1688452" y1="33.8350962" x2="52.1688452" y2="68.8350962" stroke="#0078F0"></line>
                    <line x1="17.2568452" y1="68.8350962" x2="17.2568452" y2="33.8350962" stroke="#0078F0"></line>
                    <line x1="27.2318452" y1="33.8350962" x2="27.2318452" y2="68.8350962" stroke="#0078F0"></line>
                    <line x1="42.1938452" y1="33.8350962" x2="42.1938452" y2="68.8350962" stroke="#0078F0"></line>
                    <path d="M9.33478147,11.999925 C10.4811393,10.9481586 11.9627936,10.4186306 13.4655658,10.523625 C15.3908882,10.6526286 17.18933,11.6017714 18.4637108,13.1614381 C19.7380916,14.7211047 20.3835678,16.7629812 20.2575878,18.836125 C20.1013873,21.4214981 18.9976644,23.834058 17.1893754,25.5427416 C15.3810864,27.2514253 13.0164585,28.1161702 10.6160038,27.946625 C7.61409482,27.741554 4.81100937,26.2596629 2.82420554,23.8273798 C0.8374017,21.3950967 -0.170133873,18.2119529 0.0235367444,14.979125 L0.0235367444,14.9625 C0.0235367444,6.69893943 6.24354277,0 13.916309,0 L55.5452294,0 C63.2179957,0 69.4380017,6.69893943 69.4380017,14.9625 L69.4380017,14.98245 C69.6316723,18.2152779 68.6241368,21.3984217 66.6373329,23.8307048 C64.6505291,26.2629879 61.8474436,27.744879 58.8455347,27.94995 C56.4441258,28.1156933 54.0800283,27.2465822 52.2739278,25.5340359 C50.4678273,23.8214896 49.3678634,21.4059743 49.2162998,18.8195 C49.0945856,16.749127 49.7419918,14.7115545 51.0159307,13.1555469 C52.2898696,11.5995393 54.0858518,10.6527215 56.0083218,10.523625 C57.5451546,10.415703 59.0585158,10.9721626 60.2132009,12.06975" stroke="#0078F0"></path>
                </g>
                <g stroke-linecap="round" stroke-linejoin="round" transform="translate(72.289088, 261.553751)" stroke="#0078F0" stroke-width="5.531">
                    <path d="M59.9079641,38.6608982 L39.0168413,59.552021 L28.7492515,61.6055389 L30.8027695,51.3379491 L51.6938922,30.4468264 C52.7796478,29.35936 54.2532756,28.7482837 55.7899761,28.7482837 C57.3266765,28.7482837 58.8003043,29.35936 59.8860599,30.4468264 L59.9079641,30.4687306 C60.9954304,31.5544861 61.6065067,33.0281139 61.6065067,34.5648144 C61.6065067,36.1015148 60.9954304,37.5751426 59.9079641,38.6608982 L59.9079641,38.6608982 Z M20.5351797,53.3914671 L4.10703593,53.3914671 C1.83878262,53.3914671 0,51.5526845 0,49.2844312 L0,4.10703593 C0,1.83878262 1.83878262,0 4.10703593,0 L45.1773952,0 C47.4456485,0 49.2844312,1.83878262 49.2844312,4.10703593 L49.2844312,22.5886976" id="Shape"></path>
                    <path d="M24.6422156,45.1773952 L12.3211078,45.1773952 C11.1869811,45.1773952 10.2675898,44.2580039 10.2675898,43.1238773 L10.2675898,32.8562874 C10.2675898,31.7221608 11.1869811,30.8027695 12.3211078,30.8027695 L39.0168413,30.8027695" id="Path"></path>
                    <polygon id="Path" points="10.2672066 8.21420659 39.0172066 8.21420659 39.0172066 22.5882066 10.2672066 22.5882066"></polygon>
                </g>
                <g stroke-linecap="round" stroke-linejoin="round" transform="translate(298.485294, 142.984958)" id="Path" stroke="#0078F0" stroke-width="5.537">
                    <path d="M44.3223819,62 C53.2891728,56.0558458 58.6234253,46.004098 58.4978304,35.2880976 C58.5234717,28.9706714 56.7011032,22.7821749 53.2527195,17.4764692 L44.8961965,27.243779 C42.4457496,19.2400299 42.4292747,10.6944946 44.8488429,2.68146036 C45.0589797,1.99796922 44.9005726,1.25504074 44.4295915,0.715173413 C43.9586104,0.175306085 43.2413731,-0.0854826414 42.5313005,0.0249515606 C30.582522,1.97618971 20.3241193,9.5618316 15.0049139,20.3795154 L8.35869259,13.4792407 C2.9313409,19.4554291 -0.0497895893,27.2355846 0.00216961952,35.2880976 C-0.123425324,46.004098 5.21082717,56.0558458 14.1776181,62"></path>
                    <path d="M29.5023169,62.5 L15.0122722,47.7660088 C12.4067829,45.2510503 11.7538386,41.3398586 13.4022672,38.1219418 L13.4022672,38.1219418 C14.6733663,35.7084798 17.0159725,34.0345144 19.7206888,33.6069622 C22.425405,33.1794101 25.1741356,34.0485546 27.1344992,35.9511982 L29.499541,38.257268 L31.8673586,35.9511982 C33.8271994,34.0485525 36.5755594,33.1793707 39.279894,33.6069489 C41.9842286,34.0345272 44.3263655,35.7085598 45.5968148,38.1219418 L45.5968148,38.1219418 C47.2459395,41.3392725 46.5941343,45.2503841 43.9895857,47.7660088 L29.5023169,62.5 Z"></path>
                </g>
            </g>
            <g id="Group" transform="translate(490.123398, 223.000000)" fill-rule="nonzero">
                <path d="M9.93785602,35.7363701 C28.6043474,67.0518486 50.3448762,97.3738414 63.400835,131.612719 C62.8747124,127.576998 62.316848,123.545457 61.6924335,119.519653 C58.3796628,98.1788894 54.2624276,76.9938487 49.9359142,55.8347788 C47.7325965,45.061608 45.4023236,34.3274793 43.0122847,23.5942683 C41.7268475,17.8294571 40.457171,12.0611334 39.145247,6.30181171 C38.8274703,4.90590411 38.5544351,2.4694293 38.1565942,0 C50.8449133,41.636678 63.0807311,83.3047517 72.0307975,125.94239 C73.204927,131.538126 74.2047864,137.123918 75.0238081,142.699993 C75.3039851,141.427955 75.5795646,140.155702 75.8811982,138.88715 C79.5025613,123.679846 84.9347228,108.59358 91.4026624,94.3744557 C94.494721,87.5745292 98.0463864,80.9235176 102.228151,74.7261293 C104.835821,70.8630236 110.985519,66.2708832 113.364361,62.3144999 C100.354578,86.1759773 95.6569872,116.031633 88.1451337,141.973334 C86.3116359,148.30385 84.4667482,154.62409 82.659084,160.955464 C93.9872772,138.237255 111.563216,119.571486 136,111.482566 C106.420215,131.026943 88.6779699,165.254031 76.7221336,200.259757 C76.682738,200.674905 76.6358989,201.090058 76.5954089,201.505863 C80.1135643,194.828835 84.5452103,188.789483 90.5514934,184.559607 C103.406592,175.504479 117.667098,178.142392 130.137007,185.909854 C120.350227,179.688703 102.662664,185.353659 94.4280037,191.676694 C88.5328799,196.203004 83.4948291,202.275393 79.119821,208.199601 C78.071517,209.619676 76.6413193,211.276578 75.1303997,213.044484 C73.0120284,226.795282 69.5599117,240.451838 64.6724606,254 C65.4790179,250.11126 64.8958605,243.891877 65.11953,240.993318 C65.1438759,240.679499 65.1636243,240.365464 65.1877517,240.052521 C64.4448288,243.018848 63.7270637,245.951459 63.0359813,248.836783 C64.4097546,243.330925 65.1563919,237.583268 65.7392402,231.776207 C65.8893549,229.280566 66.0357479,226.784927 66.1904602,224.289502 C66.141426,219.553405 65.9463583,214.798592 65.6164284,210.036217 C64.4465561,205.407706 63.1367171,201.041891 62.0564998,197.41118 C58.158506,184.310429 52.4441742,171.759576 45.4108456,160.050843 C38.9937018,149.366014 31.3123836,139.687606 22.4447835,130.934599 C17.6643455,126.217405 12.6613846,121.724669 7.7288832,117.169517 C5.94526254,115.52278 2.75721952,111.473853 0,109.363232 C20.0804874,120.433766 40.7488532,132.410494 55.3976085,150.247606 C53.6802099,143.652644 51.8148695,137.151008 49.841671,130.779652 C39.8311473,98.4544622 27.1913357,64.9525261 9.93785602,35.7363701 Z" id="Path" fill="#69F0AE"></path>
                <path d="M30,213 C30,248.898509 32.8428117,278 71,278 C109.157188,278 112,248.898509 112,213" id="Path" fill="#C5CFD6"></path>
            </g>
            <g id="Group" transform="translate(445.623398, 371.000000) scale(-1, 1) translate(-445.623398, -371.000000) translate(307.123398, 208.000000)">
                <g transform="translate(95.000000, -0.000000)" fill-rule="nonzero" id="Path">
                    <path d="M37.5,0 C48.2821207,0 57.2105014,7.9368049 58.7615049,18.2867779 C62.2080531,30.9860871 66.701616,59.5432912 62.1172687,64.0224659 L33.1172687,64.0224659 L33.1089864,63.8685463 C22.3601277,62.6792412 14,53.5659268 14,42.5 L14,21.5 C14,9.6258779 23.6258779,0 35.5,0 L37.5,0 Z" fill="#191847"></path>
                    <path d="M55.1433414,13.1339329 C60.9381521,23.9350547 60.249578,51.3329958 52.7603014,53.2634576 C49.773664,54.0333035 43.4113241,52.1475566 36.935865,48.2446031 L41,77 L17,77 L25.2616018,38.4893378 C20.6540611,33.0807313 17.5356601,26.452516 18.0567763,19.0254539 C19.5583302,-2.37502057 49.3485306,2.33281114 55.1433414,13.1339329 Z" fill="#EEB695"></path>
                    <path d="M36.0014183,1 C46.2947789,1 50.3264946,5.2574398 53.2810771,9.4165401 L53.5550718,9.8060348 L53.5550718,9.8060348 L53.8237044,10.1941556 C54.0012165,10.4522677 54.1757867,10.7089322 54.3486809,10.9630857 C52.0214598,18.9483908 42.9899431,20.1322506 34.9650913,25.1099145 C34.0199697,24.3410485 32.8137784,23.8804131 31.5,23.8804131 C28.4624339,23.8804131 26,26.3428469 26,29.3804131 C26,32.4179792 28.4624339,34.8804131 31.5,34.8804131 C31.5838976,34.8804131 31.6673564,34.8785346 31.7503367,34.8748173 C32.8557449,46.7527524 32.4127451,60.3172545 29.1172687,63.5371269 L0.117268717,63.5371269 C-0.674470183,49.7810423 2.67109502,45.3756552 6.28950282,41.3504123 L6.73367402,40.8588154 C10.3679166,36.8496599 14.1172687,32.8545035 14.1172687,19.9027926 C14.3165886,19.7080455 14.5136608,19.5137062 14.7088627,19.3208029 L15.00031,19.0326534 C15.0970229,18.9370483 15.1933155,18.8419307 15.2892348,18.7474291 L15.5759201,18.465901 C16.0299154,18.0218182 16.4764982,17.5946612 16.9207807,17.19836 L16.888877,16.4207004 C21.9105508,6.1402335 28.2813979,1 36.0014183,1 Z" fill="#191847"></path>
                </g>
                <g transform="translate(41.000000, 160.000000)" fill-rule="nonzero" id="Path">
                    <g transform="translate(0.000000, 42.000000)">
                        <polygon fill="#C5CFD6" points="27.623 0 104.877 0 115 124 0 124"></polygon>
                        <polygon fill-opacity="0.1" fill="#000000" points="27.623 0 51.383 0 65.604 124 0 124"></polygon>
                    </g>
                    <path d="M192.954028,20.756908 L193.24189,20.5887017 C201.50855,15.9575335 215.00938,22.2466943 215.00001,29.2384154 C214.971611,50.4029106 195.656682,150.1511 194.648224,156.456711 C193.639766,162.762321 182.83665,164.42787 182.20755,156.477375 C181.206544,143.826795 179.3468,100.033121 181.20755,79.7626522 C181.975689,71.3947628 182.802939,63.4254961 183.617343,56.3158982 C173.483775,74.6174738 157.808496,100.823961 136.593128,134.933778 L125.076573,129.672175 C134.120166,99.8760987 141.535776,78.8408618 147.323403,66.5664641 C150.899113,58.9831012 154.394396,51.7927571 157.58547,45.4013011 L158.129489,44.3135245 C163.53905,33.5155316 168.017031,25.1334494 170.436043,21.2120072 C176.587899,11.2392801 187.296386,14.7194928 192.954028,20.756908 Z" fill="#F1C0A6"></path>
                    <path d="M143.819348,123.340142 L148.937047,21.8299645 C152.625486,4.27742919 183.843775,12.4235645 183.830945,21.8299645 C183.801791,43.1854044 170.973647,116.956792 170.964964,123.319291 L143.819348,123.340142 Z" fill="#112491" transform="translate(163.825147, 67.419660) rotate(20.000000) translate(-163.825147, -67.419660) "></path>
                    <g transform="translate(114.952251, 117.671481)" fill="#E4E4E4">
                        <path d="M2.95987245,19.1854454 C1.84111791,22.1719321 1.28174064,24.4065143 1.28174064,25.889192 C1.28174064,27.6924782 1.58215484,30.3239213 2.18298325,33.7835212 C4.27492181,33.7835212 23.0755258,33.7835212 58.5847954,33.7835212 C60.0504786,28.9380285 59.2044013,26.3221028 56.0465634,25.9357444 C52.8887256,25.5493859 50.2654561,25.2005351 48.1767549,24.889192 L21.9617332,13.2024047 C21.4573041,12.9775276 20.8660846,13.2041494 20.6412076,13.7085785 C20.6373606,13.7172079 20.633636,13.7258914 20.6300351,13.7346264 L18.9449537,17.8222162 L18.9449537,17.8222162 C16.0216218,19.1861734 13.6461112,19.8681519 11.8184217,19.8681519 C10.3334675,19.8681519 8.2827331,19.2684266 5.66621856,18.0689761 L5.66622403,18.0689642 C4.66212337,17.608669 3.47499598,18.0495104 3.01470078,19.0536111 C2.99486138,19.0968893 2.97657362,19.1408621 2.95987245,19.1854454 Z" transform="translate(30.281741, 23.449513) rotate(30.000000) translate(-30.281741, -23.449513) "></path>
                    </g>
                    <g transform="translate(178.000000, 145.331984)" fill="#E4E4E4">
                        <path d="M1.67813181,6.06993991 C0.55937727,9.05642661 0,11.2910088 0,12.7736865 C0,14.5769727 0.3004142,17.2084158 0.90124261,20.6680157 C2.99318117,20.6680157 21.7937852,20.6680157 57.3030548,20.6680157 C58.768738,15.822523 57.9226607,13.2065973 54.7648228,12.8202389 C51.606985,12.4338804 48.9837155,12.0850296 46.8950143,11.7736865 L20.6799926,0.0868992104 C20.1755635,-0.13797789 19.584344,0.0886439104 19.359467,0.59307301 C19.35562,0.60170241 19.3518954,0.61038591 19.3482945,0.61912091 L17.6632131,4.70671071 L17.6632131,4.70671071 C14.7398812,6.07066791 12.3643706,6.75264641 10.5366811,6.75264641 C9.0517269,6.75264641 7.00099246,6.15292111 4.38447792,4.95347061 L4.38448339,4.95345871 C3.38038273,4.49316351 2.19325534,4.93400491 1.73296014,5.93810561 C1.71312074,5.98138381 1.69483298,6.02535661 1.67813181,6.06993991 Z"></path>
                    </g>
                    <path d="M217.770373,36.4330278 C217.770373,63 205.1536,124.970293 205.145616,130.820112 L178,130.840963 C181.973277,75.5454811 183.382172,47.5998928 182.226683,47.0041979 C180.49345,46.1106556 111.175838,53.9250306 90.386358,53.9250306 C60.407825,53.9250306 48.006307,35.0203971 47,0 L106.386358,0 C118.477954,1.29386693 181.548825,14.0152568 204.972097,18.3884129 C215,20.2606358 217.770373,29.1145109 217.770373,36.4330278 Z" fill="#1F37BF"></path>
                </g>
                <g transform="translate(0.000000, 55.000000)">
                    <path d="M49.5082829,82 L70,86.0658446 C49.3920824,124.471059 38.3404263,144.825845 36.8450319,147.130202 C33.4803944,152.315007 36.6196693,161.817238 37.7793043,166.821179 C34.3384733,167.622131 33.1668668,165.594787 31.9135738,163.477279 L31.6974848,163.113905 C30.3545909,160.873954 28.7702788,158.708095 24.1671562,159.851185 C23.0260035,160.134567 21.9084251,160.478228 20.8094396,160.842481 L20.2118069,161.042969 L20.2118069,161.042969 L19.6176824,161.246109 C19.3214673,161.348105 19.0265003,161.450558 18.7326806,161.552664 L18.1465406,161.756176 C12.2023925,163.815664 6.70467558,165.509853 0.803878401,160.07074 C-0.159448409,159.182785 -0.864649179,156.407288 2.41981989,154.983749 C5.02344134,153.8553 8.022566,152.413585 10.9650665,150.889147 L11.8038496,150.451542 C17.798488,147.302092 23.3751777,143.897863 24.6523424,142.218096 C27.3255608,138.702197 35.6108743,118.629498 49.5082829,82 Z M252.188168,51.2551684 L251.816855,51.7996726 C251.755087,51.8906382 251.693398,51.9816932 251.631819,52.0728101 L251.26393,52.6200377 C248.396486,56.9090654 245.912678,61.214599 247.076289,62.7052963 C248.363689,64.3545786 252.093006,62.5342201 253.566345,65.2162765 C254.548571,67.0043141 248.262286,69.1431805 234.707491,71.6328758 L207.56994,92.4392868 L196,77.6170876 L232.234567,61.7041739 C238.582018,55.3790221 244.711387,50.5716141 250.622674,47.2819501 C252.390261,46.7192094 255.410101,46.5491987 252.188168,51.2551684 Z" id="Shape" fill="#F1C0A6" fill-rule="nonzero"></path>
                    <g transform="translate(121.280247, 7.646010)" id="Clipped">
                        <mask id="mask-2" fill="white">
                            <use xlink:href="#path-1"></use>
                        </mask>
                        <g id="voty_screen_modul_1_g2-f"></g>
                        <g id="Group" mask="url(#mask-2)" fill-rule="nonzero">
                            <g transform="translate(-65.280247, -135.646010)" id="Path">
                                <polygon fill="#302A36" points="100 300 200 300 200 200 100 200"></polygon>
                                <polyline fill="#49DB94" points="200 200 100 200 150 250"></polyline>
                                <polyline fill="#302A36" points="0 100 100 100 100 200 0 200"></polyline>
                                <polyline fill="#49DB94" points="0 180 100 180 100 200 0 200"></polyline>
                                <polyline fill="#00AC47" points="0 140 100 140 100 160 0 160"></polyline>
                                <polyline fill="#302A36" points="200 200 100 200 100 100 200 100"></polyline>
                                <polygon fill="#302A36" points="130 200 170 200 150 220"></polygon>
                                <polygon fill="#00AC47" points="200 0 100 100 100 200 200 100"></polygon>
                            </g>
                        </g>
                    </g>
                    <path d="M88,114 C122.671756,114 148.175573,114 164.511451,114 C168.007634,114 167.348845,108.951637 166.84345,106.404206 C161.010588,77.0037663 138.241304,45.3115155 138.241304,3.4607303 L116.1718,1.13686838e-13 C97.917485,29.3584068 91.6048263,65.5045499 88,114 Z" id="Path" fill="#DDE3E9" fill-rule="nonzero"></path>
                    <g transform="translate(25.000000, 0.000000)" id="Clipped">
                        <mask id="mask-4" fill="white">
                            <use xlink:href="#path-3"></use>
                        </mask>
                        <g id="voty_screen_modul_1_g2-h"></g>
                        <g id="Group" mask="url(#mask-4)">
                            <g transform="translate(-31.000000, -152.000000)" id="Path">
                                <polygon fill="#302A36" fill-rule="nonzero" points="0 299 100 299 100 199 0 199"></polygon>
                                <polygon fill="none" points="0 300 100 300 50 250"></polygon>
                                <polyline fill="#00AC47" fill-rule="nonzero" points="50 250 100 200 0 200"></polyline>
                                <polygon fill="#302A36" fill-rule="nonzero" points="100 300 200 300 200 200 100 200"></polygon>
                                <polygon fill="none" points="100 300 200 300 150 250"></polygon>
                                <polyline fill="#00AB47" fill-rule="nonzero" points="200 200 100 200 150 250"></polyline>
                                <polyline fill="#302A36" fill-rule="nonzero" points="0 100 100 100 100 200 0 200"></polyline>
                                <polyline fill="#49DB94" fill-rule="nonzero" points="0 180 100 180 100 200 0 200"></polyline>
                                <polyline fill="#302A36" fill-rule="nonzero" points="200 200 100 200 100 100 200 100"></polyline>
                                <polyline fill="#49DB94" fill-rule="nonzero" points="200 180 100 180 100 190 200 190"></polyline>
                                <polygon fill="#00AB47" fill-rule="nonzero" points="100 300 200 300 200 200"></polygon>
                                <polygon fill="#00AC47" fill-rule="nonzero" points="200 0 100 100 100 200 200 100"></polygon>
                                <polygon fill="#00AC47" fill-rule="nonzero" points="0 300 100 300 50 250"></polygon>
                            </g>
                        </g>
                    </g>
                </g>
            </g>
            <g id="Group" transform="translate(75.286156, 121.500000)" fill-rule="nonzero">
                <g transform="translate(55.418185, 0.000000)" id="Path">
                    <path d="M31.4190569,64.7068588 C42.8479948,64.7068588 47.0045543,51.0240838 53.4976756,43.5153483 C58.1433707,38.143002 66.0721364,39.7449442 68.4190569,32.2237762 C74.3205989,13.3111237 58.5251655,0 37.9190569,0 C17.3129483,0 3.41905692,11.6742524 0.41905692,29.2237762 C-2.58094308,46.7733 10.8129483,64.7068588 31.4190569,64.7068588 Z" fill="#191847"></path>
                    <path d="M62.5623983,27.1339329 C68.357209,37.9350547 67.6686349,65.3329958 60.1793583,67.2634576 C57.1927209,68.0333035 50.830381,66.1475566 44.3549219,62.2446031 L48.4190569,91 L24.4190569,91 L32.6806587,52.4893378 C28.073118,47.0807313 24.9547171,40.452516 25.4758332,33.0254539 C26.9773871,11.6249794 56.7675875,16.3328111 62.5623983,27.1339329 Z" fill="#D4A181"></path>
                    <path d="M64.0022175,27.1945268 C59.4123878,28.0561444 50.1685109,32.438095 42.7983574,38.7237673 C41.9270339,38.2620835 40.927785,38 39.8657253,38 C36.4655158,38 33.7091014,40.6862915 33.7091014,44 C33.7091014,45.352507 34.1682941,46.6004922 34.9430322,47.6039629 C33.4841379,50.0086601 32.4886223,52.5348236 32.1622957,55.1317726 C27.106092,55.1317726 8.65263722,36 27.035847,18 C45.4190569,-1.77635684e-15 71.9850709,25.6959598 64.0022175,27.1945268 Z" fill="#191847"></path>
                </g>
                <g transform="translate(28.837242, 174.000000)" id="Path">
                    <polygon fill="#D4A181" points="43 0 80.631 123.024 98.86 227.648 113.153 227.648 93.891 0"></polygon>
                    <polygon fill-opacity="0.05" fill="#000000" points="43 0 80.631 123.024 98.86 227.648 113.153 227.648 93.891 0"></polygon>
                    <path d="M29.537727,0 C32.093705,67.5468821 29.085665,102.388787 28.513606,108.525715 C27.941548,114.662643 20.108196,154.454812 1.5636874,229.708469 L16.793992,224.477699 C46.10186,155.458959 56.088936,119.5887 59.450326,110.525715 C62.811717,101.46273 71.739403,64.6208249 86.233385,0 L29.537727,0 Z" fill="#D4A181"></path>
                    <path d="M1.67813181,224.401924 C0.55937727,227.388411 0,229.622993 0,231.105671 C0,232.908957 0.3004142,235.5404 0.90124261,239 C2.99318117,239 21.7937852,239 57.3030548,239 C58.768738,234.154507 57.9226607,231.538582 54.7648228,231.152223 C51.606985,230.765865 48.9837155,230.417014 46.8950143,230.105671 L20.6799926,218.418883 C20.1755635,218.194006 19.584344,218.420628 19.359467,218.925057 C19.35562,218.933687 19.3518954,218.94237 19.3482945,218.951105 L17.6632131,223.038695 L17.6632131,223.038695 C14.7398812,224.402652 12.3643706,225.084631 10.5366811,225.084631 C9.0517269,225.084631 7.00099246,224.484905 4.38447792,223.285455 L4.38448339,223.285443 C3.38038273,222.825148 2.19325534,223.265989 1.73296014,224.27009 C1.71312074,224.313368 1.69483298,224.357341 1.67813181,224.401924 Z" fill="#E4E4E4"></path>
                    <path d="M95.6781318,224.401924 C94.5593773,227.388411 94,229.622993 94,231.105671 C94,232.908957 94.3004142,235.5404 94.9012426,239 C96.9931812,239 115.793785,239 151.303055,239 C152.768738,234.154507 151.922661,231.538582 148.764823,231.152223 C145.606985,230.765865 142.983716,230.417014 140.895014,230.105671 L114.679993,218.418883 C114.175564,218.194006 113.584344,218.420628 113.359467,218.925057 C113.35562,218.933687 113.351895,218.94237 113.348295,218.951105 L111.663213,223.038695 L111.663213,223.038695 C108.739881,224.402652 106.364371,225.084631 104.536681,225.084631 C103.051727,225.084631 101.000992,224.484905 98.3844779,223.285455 L98.3844834,223.285443 C97.3803827,222.825148 96.1932553,223.265989 95.7329601,224.27009 C95.7131207,224.313368 95.694833,224.357341 95.6781318,224.401924 Z" fill="#E4E4E4"></path>
                    <polygon fill="#00C853" points="38 0 54 62.68 102.87 62.68 95.584 0"></polygon>
                    <path d="M29,0 C23.735439,15.7805461 22.735439,36.6737195 26,62.6795201 L75.870318,62.6795201 L89.583554,0 L29,0 Z" fill="#00A645"></path>
                </g>
                <g transform="translate(0.000000, 69.000000)">
                    <path d="M34.1451699,93.0198914 L55.0425616,93.1020711 C44.3329262,127.674615 37.7135505,148.777448 35.1844344,156.410568 L34.9262238,157.185464 C34.5494999,158.308737 34.2891486,159.048781 34.1451699,159.405597 C31.8312264,165.140133 36.727842,173.873732 38.8218292,178.567103 C32.0017827,181.61887 32.7284659,170.316929 24.1251607,174.319492 C22.3801167,175.131349 20.7278713,176.089688 19.1137928,177.027882 L18.5771052,177.339639 C18.3986306,177.443156 18.2205523,177.546197 18.0427953,177.648531 L17.5104132,177.953189 C12.4605171,180.822978 7.61074001,182.933781 1.22627701,178.994371 C0.110847007,178.306117 -1.11148249,175.714714 1.84182021,173.68967 C4.07144261,172.160845 6.59906461,170.284476 9.07920491,168.330709 L9.82147711,167.742526 C15.2492935,163.416125 20.2800861,158.845865 21.2351715,156.908251 C23.1888159,152.944826 27.4921486,131.648706 34.1451699,93.0198914 L34.1451699,93.0198914 Z M159.881652,89.1225115 L188.209556,116.757535 C196.451932,120.273345 203.205385,124.155511 208.469915,128.40403 C209.653829,129.832102 210.942712,132.568362 205.372456,131.343925 C204.836854,131.22619 204.298073,131.110185 203.760745,130.998275 L203.116946,130.866101 C198.298131,129.891811 193.747126,129.325933 192.841138,130.893567 C191.794219,132.705055 194.879053,135.480899 192.944216,137.851671 C191.654324,139.432186 187.316318,134.404878 179.930198,122.769747 L150.472924,105.402467 L159.881652,89.1225115 Z" id="Shape" fill="#D4A181"></path>
                    <path d="M87.8562371,9.23199917 L96.3411891,7.00082849 C114.413422,42.7520046 143.251772,74.1501028 182.856237,101.195123 L157.89904,137.565049 C117.176067,97.6857547 90.5078181,55.1985903 87.8562371,9.23199917 Z" id="Path" fill="#1A237E" transform="translate(135.356237, 72.282939) rotate(5.000000) translate(-135.356237, -72.282939) "></path>
                    <path d="M55.8372418,114 L132.837242,114 C114.998112,70.6251468 106.078546,33.7787236 106.078546,3.4607303 L82.8514498,5.68434189e-14 C64.5971347,29.3584068 59.4420681,65.5045499 55.8372418,114 Z" id="Path" fill="#DDE3E9"></path>
                    <path d="M83.8849938,0 C85.6992218,0.0624731357 88.4625238,0.175030894 92.1748998,0.337673275 L92.1748998,0.337673275 L97.7873998,16.3768801 C98.3810778,35.9324229 101.848068,75.3421183 108.188369,134.605966 L108.188369,134.605966 L57.7133093,134.60553 C57.8456278,138.698782 58.0638069,142.830272 58.3678465,147 L58.3678465,147 L20.8372418,147 C26.4511582,83.6639633 46.9524791,34.6639633 82.3412048,0 L82.3412048,0 L82.3592418,0.017 L82.3688248,0 L83.8849938,0 Z" id="Path" fill="#1A237E"></path>
                    <path d="M71.8372418,135 L57.7262988,134.999288 C57.1085989,116.643048 58.2155616,99.0548837 61.0471867,82.2347951 C62.4841649,107.748771 66.0807188,125.3371 71.8372418,135 Z" id="Path" fill-opacity="0.1" fill="#000000"></path>
                    <polygon id="Path" fill="#304FFE" points="68.9482418 104 93.8372418 92.429 93.8372418 104"></polygon>
                </g>
            </g>
        </g>
    </g>
</svg>