<svg xmlns="http://www.w3.org/2000/svg" width="140" height="140" viewBox="0 0 140 140">
  <g fill="none" fill-rule="evenodd" stroke="#FFF" stroke-linecap="round" stroke-linejoin="round" stroke-width="10.387" opacity=".1" transform="translate(8 9)">
    <path d="M41.5384615 95.5384615L24.9230769 108 24.9230769 83.0769231 8.30769231 83.0769231C3.71948054 83.0769231 0 79.3574425 0 74.7692308L0 8.30769231C0 3.71948054 3.71948054 0 8.30769231 0L99.6923077 0C104.280519 0 108 3.71948054 108 8.30769231L108 33.2307692M28 55C33.345956 57.7957242 39.0713367 59.8164468 45 61"/>
    <line x1="33" x2="33" y1="24" y2="33"/>
    <line x1="75" x2="75" y1="24" y2="33"/>
    <polygon points="124 99 107.5 99 107.5 124 82.75 99 58 99 58 49 124 49"/>
    <path d="M75 72.75C73.7573593 72.75 72.75 73.7573593 72.75 75 72.75 76.2426407 73.7573593 77.25 75 77.25 76.2426407 77.25 77.25 76.2426407 77.25 75 77.25 73.7573593 76.2426407 72.75 75 72.75M91 72.75C89.7573593 72.75 88.75 73.7573593 88.75 75 88.75 76.2426407 89.7573593 77.25 91 77.25 92.2426407 77.25 93.25 76.2426407 93.25 75 93.25 73.7573593 92.2426407 72.75 91 72.75M108 72.75C106.757359 72.75 105.75 73.7573593 105.75 75 105.75 76.2426407 106.757359 77.25 108 77.25 109.242641 77.25 110.25 76.2426407 110.25 75 110.25 73.7573593 109.242641 72.75 108 72.75"/>
  </g>
</svg>
