<svg xmlns="http://www.w3.org/2000/svg" width="140" height="140" viewBox="0 0 140 140">
  <g fill="none" fill-rule="evenodd" stroke="#FFFCFC" stroke-linecap="round" stroke-linejoin="round" stroke-width="9.262" opacity=".097" transform="translate(5 5)">
    <line x1="79.043" x2="51.256" y1="41.944" y2="41.944"/>
    <line x1="51.256" x2="79.043" y1="23.419" y2="23.419"/>
    <line x1="97.519" x2="97.519" y1="63.469" y2="128.469"/>
    <line x1="32.681" x2="32.681" y1="128.469" y2="63.469"/>
    <line x1="51.206" x2="51.206" y1="63.469" y2="128.469"/>
    <line x1="78.994" x2="78.994" y1="63.469" y2="128.469"/>
    <path d="M17.9695959,22.916825 C20.0985461,20.9635445 22.8501899,19.9801353 25.6410525,20.175125 C29.2166512,20.414703 32.5566147,22.1773968 34.9233219,25.0739206 C37.2900291,27.9704444 38.4887705,31.7625007 38.2548076,35.612625 C37.964721,40.414032 35.9149499,44.8945004 32.5566989,48.0677701 C29.1984479,51.2410397 24.8069961,52.8469946 20.3490088,52.532125 C14.774035,52.1512788 9.56830489,49.3991954 5.87852634,44.8820982 C2.18874779,40.365001 0.317610293,34.4534482 0.677284295,28.449625 L0.677284295,28.41875 C0.677284295,13.0721375 12.2287241,0.63125 26.4781471,0.63125 L103.788999,0.63125 C118.038422,0.63125 129.589862,13.0721375 129.589862,28.41875 L129.589862,28.4558 C129.949536,34.4596232 128.078399,40.371176 124.38862,44.8882732 C120.698842,49.4053704 115.493111,52.1574538 109.918138,52.5383 C105.458378,52.8461089 101.067912,51.2320454 97.7137249,48.0516023 C94.3595382,44.8711592 92.316748,40.3852021 92.0352729,35.58175 C91.8092322,31.7367715 93.011558,27.9527083 95.3774445,25.0629798 C97.7433311,22.1732514 101.078727,20.4148755 104.649028,20.175125 C107.503146,19.9746983 110.313674,21.0081234 112.458089,23.0465"/>
  </g>
</svg>
