<svg xmlns="http://www.w3.org/2000/svg" width="132" height="140" viewBox="0 0 132 140">
  <g fill="none" fill-rule="evenodd" stroke="currentColor" stroke-linecap="round" stroke-linejoin="round" stroke-width="11.075" opacity=".1" transform="translate(8 9)">
    <path d="M88.6447638,124 C106.578346,112.111692 117.246851,92.0081961 116.995661,70.5761952 C117.046943,57.9413428 113.402206,45.5643498 106.505439,34.9529385 L89.792393,54.487558 C84.8914992,38.4800598 84.8585494,21.3889893 89.6976857,5.36292073 C90.1179594,3.99593844 89.8011452,2.51008148 88.859183,1.43034683 C87.9172208,0.350612171 86.4827461,-0.170965283 85.062601,0.0499031212 C61.165044,3.95237941 40.6482387,19.1236632 30.0098277,40.7590307 L16.7173852,26.9584813 C5.8626818,38.9108582 -0.0995791787,54.4711693 0.00433923906,70.5761952 C-0.246850648,92.0081961 10.4216543,112.111692 28.3552362,124"/>
    <path d="M59.0046337,125 L30.0245443,95.5320175 C24.8135657,90.5021006 23.5076772,82.6797173 26.8045344,76.2438836 L26.8045344,76.2438836 C29.3467326,71.4169596 34.0319451,68.0690288 39.4413775,67.2139245 C44.85081,66.3588202 50.3482712,68.0971093 54.2689984,71.9023964 L58.999082,76.5145361 L63.7347173,71.9023964 C67.6543987,68.0971049 73.1511188,66.3587413 78.559788,67.2138979 C83.9684573,68.0690544 88.6527311,71.4171196 91.1936296,76.2438836 L91.1936296,76.2438836 C94.4918789,82.678545 93.1882687,90.5007682 87.9791714,95.5320175 L59.0046337,125 Z"/>
  </g>
</svg>
