<svg xmlns="http://www.w3.org/2000/svg" width="140" height="140" viewBox="0 0 140 140">
  <g fill="none" fill-rule="evenodd" stroke="currentColor" stroke-linecap="round" stroke-linejoin="round" stroke-width="11.063" opacity=".1" transform="translate(9 9)">
    <path d="M120.247515 77.7533832L78.4652695 119.535629 57.9300898 123.642665 62.0371257 103.107485 103.819371 61.3252395C105.990882 59.1503068 108.938138 57.9281543 112.011539 57.9281543 115.08494 57.9281543 118.032195 59.1503068 120.203707 61.3252395L120.247515 61.3690479C122.422448 63.5405591 123.6446 66.4878147 123.6446 69.5612156 123.6446 72.6346165 122.422448 75.581872 120.247515 77.7533832L120.247515 77.7533832zM41.5019461 107.214521L8.64565868 107.214521C4.10915206 107.214521.431586826 103.536956.431586826 99.0004491L.431586826 8.64565868C.431586826 4.10915206 4.10915206.431586826 8.64565868.431586826L90.7863772.431586826C95.3228839.431586826 99.0004491 4.10915206 99.0004491 8.64565868L99.0004491 45.608982"/>
    <path d="M49.716018,90.7863772 L25.0738024,90.7863772 C22.8055491,90.7863772 20.9667665,88.9475946 20.9667665,86.6793413 L20.9667665,66.1441617 C20.9667665,63.8759084 22.8055491,62.0371257 25.0738024,62.0371257 L78.4652695,62.0371257"/>
    <polygon points="20.967 16.86 78.465 16.86 78.465 45.609 20.967 45.609"/>
  </g>
</svg>
