<svg xmlns="http://www.w3.org/2000/svg" width="140" height="140" viewBox="0 0 140 140">
  <g fill="none" fill-rule="evenodd" stroke="currentColor" stroke-linecap="round" stroke-linejoin="round" stroke-width="9.262" opacity=".1">
    <path d="M42.3125,121.062275 L9.875225,121.062275 C4.7596875,121.062275 0.612725,116.915312 0.612725,111.799775 L0.612725,9.912275 C0.612725,4.7967375 4.7596875,0.649775 9.875225,0.649775 L75.5093,0.649775 C77.9650401,0.651936893 80.3194106,1.62922278 82.0548,3.366775 L99.7894,21.0952 C101.5262,22.8331134 102.501338,25.1898813 102.500226,27.646875 L102.500226,37.699775"/>
    <polygon points="37.663 28.437 56.188 28.437 56.188 56.225 37.663 56.225"/>
    <line x1="19.138" x2="19.138" y1="28.437" y2="56.225"/>
    <line x1="74.713" x2="74.713" y1="28.437" y2="46.962"/>
    <polygon points="19.138 74.75 37.663 74.75 37.663 102.537 19.138 102.537"/>
    <path d="M60.818975,93.274775 C60.818975,104.856879 66.9979536,115.559184 77.0283499,121.350236 C87.0587461,127.141288 99.4167039,127.141288 109.4471,121.350236 C119.477496,115.559184 125.656475,104.856879 125.656475,93.274775 C125.656475,81.692671 119.477496,70.9903656 109.4471,65.1993135 C99.4167039,59.4082615 87.0587461,59.4082615 77.0283499,65.1993135 C66.9979536,70.9903656 60.818975,81.692671 60.818975,93.274775 Z"/>
    <line x1="139.55" x2="116.159" y1="139.587" y2="116.203"/>
  </g>
</svg>
