<svg xmlns="http://www.w3.org/2000/svg" width="140" height="140" viewBox="0 0 140 140">
  <g fill="none" fill-rule="evenodd" stroke="#FFF" stroke-linecap="round" stroke-linejoin="round" stroke-width="9.35" opacity=".1" transform="translate(6 5.978)">
    <path d="M7 96.0222222C7 101.381206 9.85898375 106.333111 14.5 109.012603 19.1410161 111.692095 24.8589839 111.692095 29.5 109.012603 34.1410162 106.333111 37 101.381206 37 96.0222222 37 90.6632384 34.1410162 85.7113331 29.5 83.0318412 24.8589839 80.3523492 19.1410161 80.3523492 14.5 83.0318412 9.85898375 85.7113331 7 90.6632384 7 96.0222222L7 96.0222222zM43 128.022222C38.7652229 120.635983 30.4989013 116.022222 21.5 116.022222 12.5010987 116.022222 4.23477706 120.635983 0 128.022222M50 96.0222222C50 104.306493 56.7157288 111.022222 65 111.022222 73.2842712 111.022222 80 104.306493 80 96.0222222 80 87.737951 73.2842712 81.0222222 65 81.0222222 56.7157288 81.0222222 50 87.737951 50 96.0222222L50 96.0222222zM86 128.022222C81.7652229 120.635983 73.4989013 116.022222 64.5 116.022222 55.5010987 116.022222 47.2347771 120.635983 43 128.022222M93 96.0222222C93 104.306493 99.7157288 111.022222 108 111.022222 116.284271 111.022222 123 104.306493 123 96.0222222 123 87.737951 116.284271 81.0222222 108 81.0222222 99.7157288 81.0222222 93 87.737951 93 96.0222222L93 96.0222222zM129 128.022222C124.765223 120.635983 116.498901 116.022222 107.5 116.022222 98.5010987 116.022222 90.2347771 120.635983 86 128.022222M34 64.0222222L8.5 64.0222222C3.80557963 64.0222222 0 60.2017188 0 55.4888889L0 8.55555556C0 3.84272569 3.80557963.0222222222 8.5.0222222222L34 .0222222222M81 .0222222222L119.454545.0222222222C124.17407.0222222222 128 3.84272569 128 8.55555556L128 55.4888889C128 60.2017188 124.17407 64.0222222 119.454545 64.0222222L81 64.0222222"/>
    <polygon points="52 12.022 52 55.022 86 33.522"/>
  </g>
</svg>
