<?xml version="1.0" encoding="UTF-8"?>
<svg width="60px" height="60px" viewBox="0 0 60 60" version="1.1" xmlns="http://www.w3.org/2000/svg" xmlns:xlink="http://www.w3.org/1999/xlink">
    <title>icon chaty</title>
    <defs>
        <filter id="filter-1">
            <feColorMatrix in="SourceGraphic" type="matrix" values="0 0 0 0 1.000000 0 0 0 0 1.000000 0 0 0 0 1.000000 0 0 0 1.000000 0"></feColorMatrix>
        </filter>
    </defs>
    <g id="Schüler" stroke="none" stroke-width="1" fill="none" fill-rule="evenodd" stroke-linecap="round" stroke-linejoin="round">
        <g id="DT-Detailansicht-Schulklasse-Module" transform="translate(-375.000000, -926.000000)">
            <g id="Card-Lerninhalte" transform="translate(320.000000, 385.000000)">
                <g id="Auswahl-Lerninhalte" transform="translate(32.000000, 177.000000)">
                    <g id="icon-chaty" transform="translate(0.000000, 348.000000)" filter="url(#filter-1)">
                        <g transform="translate(24.000000, 17.000000)">
                            <path d="M19.625,44 L12.125,49.625 L12.125,38.375 L4.625,38.375 C2.55393219,38.375 0.875,36.6960678 0.875,34.625 L0.875,4.625 C0.875,2.55393219 2.55393219,0.875 4.625,0.875 L45.875,0.875 C47.9460678,0.875 49.625,2.55393219 49.625,4.625 L49.625,15.875" id="Path" stroke="#000000" stroke-width="3.75"></path>
                            <path d="M13.9825,25.75 C16.3465132,27.0010866 18.8783102,27.9053599 21.5,28.435" id="Path" stroke="#000000" stroke-width="3.75"></path>
                            <line x1="15.875" y1="12.125" x2="15.875" y2="15.875" id="Path" stroke="#000000" stroke-width="3.75"></line>
                            <line x1="34.625" y1="12.125" x2="34.625" y2="15.875" id="Path" stroke="#000000" stroke-width="3.75"></line>
                            <polygon id="Path" stroke="#000000" stroke-width="3.75" points="57.125 45.875 49.625 45.875 49.625 57.125 38.375 45.875 27.125 45.875 27.125 23.375 57.125 23.375"></polygon>
                            <path d="M34.625,33.6875 C34.107233,33.6875 33.6875,34.107233 33.6875,34.625 C33.6875,35.142767 34.107233,35.5625 34.625,35.5625 C35.142767,35.5625 35.5625,35.142767 35.5625,34.625 C35.5625,34.107233 35.142767,33.6875 34.625,33.6875" id="Path" stroke="#000000" stroke-width="3.75"></path>
                            <path d="M42.125,33.6875 C41.607233,33.6875 41.1875,34.107233 41.1875,34.625 C41.1875,35.142767 41.607233,35.5625 42.125,35.5625 C42.642767,35.5625 43.0625,35.142767 43.0625,34.625 C43.0625,34.107233 42.642767,33.6875 42.125,33.6875" id="Path" stroke="#000000" stroke-width="3.75"></path>
                            <path d="M49.625,33.6875 C49.107233,33.6875 48.6875,34.107233 48.6875,34.625 C48.6875,35.142767 49.107233,35.5625 49.625,35.5625 C50.142767,35.5625 50.5625,35.142767 50.5625,34.625 C50.5625,34.107233 50.142767,33.6875 49.625,33.6875" id="Path" stroke="#000000" stroke-width="3.75"></path>
                        </g>
                    </g>
                </g>
            </g>
        </g>
    </g>
</svg>