<?xml version="1.0" encoding="UTF-8"?>
<svg width="60px" height="60px" viewBox="0 0 60 60" version="1.1" xmlns="http://www.w3.org/2000/svg" xmlns:xlink="http://www.w3.org/1999/xlink">
    <title>Icon Historic</title>
    <g id="Schüler" stroke="none" stroke-width="1" fill="none" fill-rule="evenodd" stroke-linecap="round" stroke-linejoin="round">
        <g id="DT-Detailansicht-Schulklasse-Module" transform="translate(-375.000000, -691.000000)" stroke="#FFFCFC" stroke-width="3.75">
            <g id="Card-Lerninhalte" transform="translate(320.000000, 385.000000)">
                <g id="Auswahl-Lerninhalte" transform="translate(32.000000, 177.000000)">
                    <g id="Historisches-Plakat" transform="translate(0.000000, 116.000000)">
                        <g id="Icon-Historic" transform="translate(24.000000, 14.000000)">
                            <line x1="34.645" y1="19.625" x2="23.395" y2="19.625" id="Path"></line>
                            <line x1="23.395" y1="12.125" x2="34.645" y2="12.125" id="Path"></line>
                            <line x1="42.125" y1="27.125" x2="42.125" y2="57.125" id="Path"></line>
                            <line x1="15.875" y1="57.125" x2="15.875" y2="27.125" id="Path"></line>
                            <line x1="23.375" y1="27.125" x2="23.375" y2="57.125" id="Path"></line>
                            <line x1="34.625" y1="27.125" x2="34.625" y2="57.125" id="Path"></line>
                            <path d="M8.435,9.8975 C9.36329027,9.1066982 10.5630948,8.70855678 11.78,8.7875 C13.3390752,8.88449515 14.7954059,9.59813635 15.8273658,10.7708181 C16.8593257,11.9434998 17.3820153,13.4787452 17.28,15.0375 C17.153513,16.9813895 16.2597473,18.7953443 14.7954427,20.0800689 C13.331138,21.3647934 11.4163248,22.0149776 9.4725,21.8875 C7.04163341,21.7333113 4.77176886,20.6191074 3.1629076,18.7903231 C1.55404634,16.9615389 0.738170651,14.5681977 0.895,12.1375 L0.895,12.125 C0.895,5.91179656 5.93179656,0.875 12.145,0.875 L45.855,0.875 C52.0682034,0.875 57.105,5.91179656 57.105,12.125 L57.105,12.14 C57.2618293,14.5706977 56.4459537,16.9640389 54.8370924,18.7928231 C53.2282311,20.6216074 50.9583666,21.7358113 48.5275,21.89 C46.5829025,22.014619 44.6685189,21.361152 43.2059864,20.0735232 C41.7434539,18.7858944 40.8527322,16.9697175 40.73,15.025 C40.631439,13.4683285 41.1556915,11.9363191 42.1872936,10.7663886 C43.2188956,9.59645807 44.6732345,8.884565 46.23,8.7875 C47.4744866,8.7063556 48.6999665,9.12474632 49.635,9.95" id="Path"></path>
                        </g>
                    </g>
                </g>
            </g>
        </g>
    </g>
</svg>