<svg xmlns="http://www.w3.org/2000/svg" width="58" height="53" viewBox="0 0 58 53">
  <g fill="none" fill-rule="evenodd" stroke="#FFF" stroke-linecap="round" stroke-linejoin="round" stroke-width="3.75" transform="translate(3 3)">
    <path d="M17.6923077 37.1538462L10.6153846 42 10.6153846 32.3076923 3.53846154 32.3076923C1.58422319 32.3076923 0 30.8612277 0 29.0769231L0 3.23076923C0 1.44646465 1.58422319 0 3.53846154 0L42.4615385 0C44.4157768 0 46 1.44646465 46 3.23076923L46 12.9230769M12 21C14.201276 21.9319081 16.5587857 22.6054823 19 23"/>
    <line x1="14" x2="14" y1="10" y2="13"/>
    <line x1="32" x2="32" y1="10" y2="13"/>
    <polygon points="53 38.333 46 38.333 46 48 35.5 38.333 25 38.333 25 19 53 19"/>
    <path d="M32 28.25C31.5857864 28.25 31.25 28.5857864 31.25 29 31.25 29.4142136 31.5857864 29.75 32 29.75 32.4142136 29.75 32.75 29.4142136 32.75 29 32.75 28.5857864 32.4142136 28.25 32 28.25M39 28.25C38.5857864 28.25 38.25 28.5857864 38.25 29 38.25 29.4142136 38.5857864 29.75 39 29.75 39.4142136 29.75 39.75 29.4142136 39.75 29 39.75 28.5857864 39.4142136 28.25 39 28.25M46 28.25C45.5857864 28.25 45.25 28.5857864 45.25 29 45.25 29.4142136 45.5857864 29.75 46 29.75 46.4142136 29.75 46.75 29.4142136 46.75 29 46.75 28.5857864 46.4142136 28.25 46 28.25"/>
  </g>
</svg>
