<svg xmlns="http://www.w3.org/2000/svg" width="57" height="52" viewBox="0 0 57 52">
  <g fill="none" fill-rule="evenodd" stroke="#FFFCFC" stroke-linecap="round" stroke-linejoin="round" stroke-width="3.75" transform="translate(4 2.356)">
    <line x1="29" x2="20" y1="15.644" y2="15.644"/>
    <line x1="20" x2="29" y1="9.644" y2="9.644"/>
    <line x1="36" x2="36" y1="21.644" y2="45.644"/>
    <line x1="13" x2="13" y1="45.644" y2="21.644"/>
    <line x1="20" x2="20" y1="21.644" y2="45.644"/>
    <line x1="29" x2="29" y1="21.644" y2="45.644"/>
    <path d="M6.58500088,7.93772476 C7.39367189,7.29846644 8.4388699,6.97662194 9.498965,7.04043705 C10.8571382,7.11884476 12.1258065,7.69572897 13.0247883,8.64368652 C13.9237701,9.59164407 14.3791059,10.8326863 14.2902363,12.0927327 C14.1800484,13.6641094 13.4014532,15.1304512 12.1258384,16.1689805 C10.8502237,17.2075098 9.18215288,17.7330974 7.48880888,17.6300487 C5.37118317,17.5054076 3.39381281,16.6047216 1.99226902,15.1263922 C0.590725232,13.6480628 -0.120016918,11.713364 0.0166034397,9.74846752 L0.0166034397,9.73836293 C0.0166034397,4.71581242 4.40435963,0.644230769 9.81693119,0.644230769 L39.1830688,0.644230769 C44.5956404,0.644230769 48.9833966,4.71581242 48.9833966,9.73836293 L48.9833966,9.75048843 C49.1200169,11.7153849 48.4092748,13.6500837 47.007731,15.1284131 C45.6061872,16.6067426 43.6288168,17.5074285 41.5111911,17.6320696 C39.817174,17.7328076 38.1494773,17.2045662 36.8754064,16.1636892 C35.6013355,15.1228122 34.825392,13.6546741 34.7184751,12.0826281 C34.6326146,10.8242658 35.089312,9.58583949 35.9879821,8.6401059 C36.8866522,7.6943723 38.1535854,7.11890122 39.5097464,7.04043705 C40.5938688,6.97484258 41.6614336,7.31305595 42.4759789,7.98016404"/>
  </g>
</svg>
