<svg xmlns="http://www.w3.org/2000/svg" width="51" height="46" viewBox="0 0 51 46">
  <g fill="none" fill-rule="evenodd" stroke="currentColor" stroke-linecap="round" stroke-linejoin="round" stroke-width="3.306" transform="translate(3 2)">
    <path d="M2 31C2 32.7863279 3.04829404 34.436963 4.74999998 35.330127 6.45170591 36.223291 8.54829409 36.223291 10.25 35.330127 11.951706 34.436963 13 32.7863279 13 31 13 29.2136721 11.951706 27.563037 10.25 26.669873 8.54829409 25.776709 6.45170591 25.776709 4.74999998 26.669873 3.04829404 27.563037 2 29.2136721 2 31L2 31zM15 42C13.5227522 39.5379203 10.6391516 38 7.5 38 4.3608484 38 1.47724781 39.5379203 0 42M17 31C17 33.7614237 19.4624339 36 22.5 36 25.5375661 36 28 33.7614237 28 31 28 28.2385763 25.5375661 26 22.5 26 19.4624339 26 17 28.2385763 17 31L17 31zM30 42C28.5227522 39.5379203 25.6391516 38 22.5 38 19.3608484 38 16.4772478 39.5379203 15 42M32 31C32 33.7614237 34.4624339 36 37.5 36 40.5375661 36 43 33.7614237 43 31 43 28.2385763 40.5375661 26 37.5 26 34.4624339 26 32 28.2385763 32 31L32 31zM45 42C43.5227522 39.5379203 40.6391516 38 37.5 38 34.3608484 38 31.4772478 39.5379203 30 42M12 21L3 21C1.34314575 21 0 19.7463973 0 18.2L0 2.8C0 1.2536027 1.34314575 0 3 0L12 0M29 0L42.9090909 0C44.6161529 0 46 1.2536027 46 2.8L46 18.2C46 19.7463973 44.6161529 21 42.9090909 21L29 21"/>
    <polygon points="18 5 18 19 30 12"/>
  </g>
</svg>
