<?xml version="1.0" encoding="UTF-8"?>
<svg width="56px" height="56px" viewBox="0 0 56 56" version="1.1" xmlns="http://www.w3.org/2000/svg" xmlns:xlink="http://www.w3.org/1999/xlink">
    <title>Icon myschool</title>
    <defs>
        <filter id="filter-1">
            <feColorMatrix in="SourceGraphic" type="matrix" values="0 0 0 0 1.000000 0 0 0 0 1.000000 0 0 0 0 1.000000 0 0 0 1.000000 0"></feColorMatrix>
        </filter>
    </defs>
    <g id="Schüler" stroke="none" stroke-width="1" fill="none" fill-rule="evenodd" stroke-linecap="round" stroke-linejoin="round">
        <g id="DT-Detailansicht-Schulklasse-Module" transform="translate(-377.000000, -1043.000000)">
            <g id="Card-Lerninhalte" transform="translate(320.000000, 385.000000)">
                <g id="Auswahl-Lerninhalte" transform="translate(32.000000, 177.000000)">
                    <g id="Icon-myschool" transform="translate(0.000000, 464.000000)" filter="url(#filter-1)">
                        <g transform="translate(26.000000, 18.000000)">
                            <path d="M3.3925,39.6175 C3.3925,41.774491 4.54324096,43.7676329 6.41124997,44.8461285 C8.27925899,45.924624 10.580741,45.924624 12.44875,44.8461285 C14.316759,43.7676329 15.4675,41.774491 15.4675,39.6175 C15.4675,37.460509 14.316759,35.4673671 12.44875,34.3888715 C10.580741,33.310376 8.27925899,33.310376 6.41124997,34.3888715 C4.54324096,35.4673671 3.3925,37.460509 3.3925,39.6175 L3.3925,39.6175 Z" id="Path" stroke="#000000" stroke-width="3.45"></path>
                            <path d="M18.055,52.555 C16.356165,49.3696844 13.0400243,47.38 9.43,47.38 C5.81997566,47.38 2.50383499,49.3696844 0.805,52.555" id="Path" stroke="#000000" stroke-width="3.45"></path>
                            <path d="M20.6425,39.6175 C20.6425,42.9519192 23.3455808,45.655 26.68,45.655 C30.0144192,45.655 32.7175,42.9519192 32.7175,39.6175 C32.7175,36.2830808 30.0144192,33.58 26.68,33.58 C23.3455808,33.58 20.6425,36.2830808 20.6425,39.6175 L20.6425,39.6175 Z" id="Path" stroke="#000000" stroke-width="3.45"></path>
                            <path d="M35.305,52.555 C33.606165,49.3696844 30.2900243,47.38 26.68,47.38 C23.0699757,47.38 19.753835,49.3696844 18.055,52.555" id="Path" stroke="#000000" stroke-width="3.45"></path>
                            <path d="M37.8925,39.6175 C37.8925,42.9519192 40.5955808,45.655 43.93,45.655 C47.2644192,45.655 49.9675,42.9519192 49.9675,39.6175 C49.9675,36.2830808 47.2644192,33.58 43.93,33.58 C40.5955808,33.58 37.8925,36.2830808 37.8925,39.6175 L37.8925,39.6175 Z" id="Path" stroke="#000000" stroke-width="3.45"></path>
                            <path d="M52.555,52.555 C50.856165,49.3696844 47.5400243,47.38 43.93,47.38 C40.3199757,47.38 37.003835,49.3696844 35.305,52.555" id="Path" stroke="#000000" stroke-width="3.45"></path>
                            <path d="M14.605,26.68 L4.255,26.68 C2.34961761,26.68 0.805,25.1353824 0.805,23.23 L0.805,4.255 C0.805,2.34961761 2.34961761,0.805 4.255,0.805 L14.605,0.805" id="Path" stroke="#000000" stroke-width="3.45"></path>
                            <path d="M33.58,0.805 L49.105,0.805 C51.0103824,0.805 52.555,2.34961761 52.555,4.255 L52.555,23.23 C52.555,25.1353824 51.0103824,26.68 49.105,26.68 L33.58,26.68" id="Path" stroke="#000000" stroke-width="3.45"></path>
                            <polygon id="Path" stroke="#000000" stroke-width="3.45" points="21.505 5.98 21.505 23.23 35.305 14.605"></polygon>
                        </g>
                    </g>
                </g>
            </g>
        </g>
    </g>
</svg>