<?xml version="1.0" encoding="UTF-8"?>
<svg width="58px" height="60px" viewBox="0 0 58 60" version="1.1" xmlns="http://www.w3.org/2000/svg" xmlns:xlink="http://www.w3.org/1999/xlink">
    <title>Icon Passion</title>
    <g id="Schüler" stroke="none" stroke-width="1" fill="none" fill-rule="evenodd" stroke-linecap="round" stroke-linejoin="round">
        <g id="DT-Detailansicht-Schulklasse-Module" transform="translate(-376.000000, -574.000000)" stroke="#FFFFFF" stroke-width="3.75">
            <g id="Card-Lerninhalte" transform="translate(320.000000, 385.000000)">
                <g id="Auswahl-Lerninhalte" transform="translate(32.000000, 177.000000)">
                    <g id="Icon-Passion" transform="translate(26.000000, 13.000000)">
                        <path d="M40.5275,56.83 C48.575217,51.465399 53.3627218,42.3936936 53.25,32.7225 C53.2730131,27.0210209 51.6374329,21.435901 48.5425,16.6475 L41.0425,25.4625 C38.8432179,18.239114 38.8284316,10.5267659 41,3.295 C41.1885983,2.67814903 41.0464276,2.00765586 40.6237209,1.52042543 C40.2010142,1.033195 39.5572919,0.797833099 38.92,0.8975 C28.1959418,2.65849302 18.9890001,9.50453713 14.215,19.2675 L8.25,13.04 C3.37893846,18.4335119 0.703366482,25.4551046 0.75,32.7225 C0.637278228,42.3936936 5.42478301,51.465399 13.4725,56.83" id="Path"></path>
                        <path d="M27,57.125 L13.95,43.7875 C11.6034486,41.5109099 11.015395,37.9704219 12.5,35.0575 L12.5,35.0575 C13.6447752,32.8727865 15.7545693,31.35748 18.1904864,30.9704513 C20.6264034,30.5834226 23.1019606,31.3701895 24.8675,33.0925 L26.9975,35.18 L29.13,33.0925 C30.8950685,31.3701875 33.3702919,30.583387 35.8058653,30.9704393 C38.2414387,31.3574916 40.3508101,32.8728589 41.495,35.0575 L41.495,35.0575 C42.9802319,37.9698914 42.3932043,41.5103068 40.0475,43.7875 L27,57.125 Z" id="Path"></path>
                    </g>
                </g>
            </g>
        </g>
    </g>
</svg>