<?xml version="1.0" encoding="UTF-8"?>
<svg width="60px" height="52px" viewBox="0 0 60 52" version="1.1" xmlns="http://www.w3.org/2000/svg" xmlns:xlink="http://www.w3.org/1999/xlink">
    <title>card_ballot</title>
    <g id="Page-1" stroke="none" stroke-width="1" fill="none" fill-rule="evenodd" stroke-linecap="round" stroke-linejoin="round">
        <g id="card_ballot" transform="translate(2.000000, 2.000000)" stroke="currentColor">
            <g id="Group">
                <path d="M24.7914355,47.7112937 C22.6933603,44.0827143 18.8114146,41.8467368 14.6098073,41.8467368 C10.4082001,41.8467368 6.52625429,44.0827143 4.4281791,47.7112937" id="Path" stroke-width="3.06"></path>
                <g transform="translate(5.541493, 22.268632)" id="Path">
                    <path d="M2.52899858,6.65359646 C5.909042,10.1287883 11.0803349,11.1728104 15.5370678,9.2797698" stroke-width="2.55" transform="translate(9.033033, 8.433072) rotate(-23.000000) translate(-9.033033, -8.433072) "></path>
                    <path d="M2.44918058,9.44622653 C2.45373725,13.3297519 5.61264819,16.4816185 9.50486321,16.4861758 C13.3970785,16.4906164 16.5486952,13.3460441 16.5442539,9.46251839 C16.5396973,5.57899304 13.3807863,2.42712644 9.48857134,2.42256908 C5.59635599,2.4181285 2.44473931,5.56270084 2.44918058,9.44622653 Z" stroke-width="3.06" transform="translate(9.496717, 9.454372) rotate(-23.000000) translate(-9.496717, -9.454372) "></path>
                </g>
                <path d="M50.4277774,47.7113846 C48.3297021,44.0828052 44.4477564,41.8468278 40.2461491,41.8468278 C36.0445419,41.8468278 32.1625961,44.0828052 30.0645209,47.7113846" id="Path" stroke-width="3.06"></path>
                <path d="M24.6123153,15.667676 C24.6127461,16.7767705 23.566881,17.6754627 22.2763087,17.6749612 L17.6027332,17.6731453 L16.903444,22.3412829 L11.7607639,17.6708753 L3.58200675,17.6676973 C2.29143452,17.6671958 1.24486856,16.7676905 1.24443625,15.658596 L1.23973811,3.60943635 C1.23930742,2.50034183 2.28517248,1.6016496 3.57574472,1.60214853 L22.2700467,1.60941504 C23.5606189,1.60991651 24.6071849,2.50942179 24.6076172,3.61851631 L24.6123153,15.667676 Z" id="Path" stroke-width="2.55" transform="translate(12.926027, 11.971716) rotate(-7.000000) translate(-12.926027, -11.971716) "></path>
                <path d="M18.1100969,6.3782404 L13.5596954,12.4283341 C13.3551974,12.7001082 13.0423231,12.8698791 12.7022575,12.8935949 C12.3621918,12.9173106 12.0284569,12.7926331 11.7876505,12.551914 L9.43661853,10.2082667" id="Path" stroke-width="2.975" transform="translate(13.773358, 9.637347) rotate(-6.000000) translate(-13.773358, -9.637347) "></path>
                <path d="M55.191485,15.2208763 C55.1917333,16.3299351 54.1456858,17.2287711 52.8550722,17.2284826 L48.1813467,17.2274379 L47.4650183,21.7275844 L42.33919,17.226132 L34.1601705,17.2243038 C32.8695568,17.2240153 31.8231062,16.3247116 31.8228575,15.2156528 L31.820155,3.16688085 C31.8199069,2.05782202 32.8659544,1.15898606 34.156568,1.1592737 L52.8514697,1.16345337 C54.1420833,1.16374186 55.188534,2.06304555 55.1887827,3.17210438 L55.191485,15.2208763 Z" id="Path" stroke-width="2.55" transform="translate(43.505820, 11.443429) scale(-1, 1) rotate(-4.000000) translate(-43.505820, -11.443429) "></path>
            </g>
            <g id="Group" transform="translate(40.142666, 31.970561) rotate(-1.000000) translate(-40.142666, -31.970561) translate(31.642666, 24.470561)">
                <path d="M16.7244511,14.2716289 C15.8116032,12.7780859 15.356465,11.050576 15.4149643,9.30255386 L15.4149643,7.2699253 C15.4149643,3.40850788 12.2752819,0.277836797 8.40274964,0.277836797 C4.5295746,0.277836797 1.38989212,3.40850788 1.38989212,7.2699253 L1.38989212,9.30255386 C1.44839153,11.050576 0.993253274,12.7780859 0.0804053783,14.2716289" id="Path" stroke-width="3.06"></path>
                <path d="M1.39021354,8.42520959 C4.08247199,8.42072255 6.64166035,7.25088743 8.40242826,5.21954085 C10.1631961,7.25088743 12.7223845,8.42072255 15.4146429,8.42520959" id="Path" stroke-width="2.55"></path>
                <path d="M2.24713343,8.38424934 C2.56341594,11.5373557 5.22546041,13.9392034 8.40371394,13.9392034 C11.5819675,13.9392034 14.2433691,11.5373557 14.5602944,8.38424934" id="Path" stroke-width="3.06"></path>
            </g>
            <path d="M47,6 L40,13 M40,6 L47,13" id="Shape" stroke-width="2.975"></path>
        </g>
    </g>
</svg>