<?xml version="1.0" encoding="UTF-8"?>
<svg width="60px" height="60px" viewBox="0 0 60 60" version="1.1" xmlns="http://www.w3.org/2000/svg" xmlns:xlink="http://www.w3.org/1999/xlink">
    <title>Icon Design Wahlplakat</title>
    <g id="Schüler" stroke="none" stroke-width="1" fill="none" fill-rule="evenodd" stroke-linecap="round" stroke-linejoin="round">
        <g id="DT-Detailansicht-Schulklasse-Module" transform="translate(-378.000000, -811.000000)" stroke="currentColor" stroke-width="3.75">
            <g id="Card-Lerninhalte" transform="translate(320.000000, 385.000000)">
                <g id="Auswahl-Lerninhalte" transform="translate(32.000000, 177.000000)">
                    <g id="Gestalte-ein-Wahlplakat" transform="translate(0.000000, 232.000000)">
                        <g id="Icon-Design-Wahlplakat" transform="translate(27.000000, 18.000000)">
                            <path d="M55.575,36.175 L36.5,55.25 L27.125,57.125 L29,47.75 L48.075,28.675 C49.0663679,27.6820701 50.4118891,27.1241164 51.815,27.1241164 C53.2181109,27.1241164 54.5636321,27.6820701 55.555,28.675 L55.575,28.695 C56.5679299,29.6863679 57.1258836,31.0318891 57.1258836,32.435 C57.1258836,33.8381109 56.5679299,35.1836321 55.575,36.175 L55.575,36.175 Z" id="Path"></path>
                            <path d="M19.625,49.625 L4.625,49.625 C2.55393219,49.625 0.875,47.9460678 0.875,45.875 L0.875,4.625 C0.875,2.55393219 2.55393219,0.875 4.625,0.875 L42.125,0.875 C44.1960678,0.875 45.875,2.55393219 45.875,4.625 L45.875,21.5" id="Path"></path>
                            <path d="M23.375,42.125 L12.125,42.125 C11.0894661,42.125 10.25,41.2855339 10.25,40.25 L10.25,30.875 C10.25,29.8394661 11.0894661,29 12.125,29 L36.5,29" id="Path"></path>
                            <polygon id="Path" points="10.25 8.375 36.5 8.375 36.5 21.5 10.25 21.5"></polygon>
                        </g>
                    </g>
                </g>
            </g>
        </g>
    </g>
</svg>