<svg xmlns="http://www.w3.org/2000/svg" width="58" height="52" viewBox="0 0 58 52">
  <g fill="none" fill-rule="evenodd" stroke="#FFF" stroke-linecap="round" stroke-linejoin="round" stroke-width="3.75" transform="translate(2 2)">
    <path d="M51.5525512 29.5421809L33.7497423 45.437546 25 47 26.7499485 39.1877301 44.5527574 23.292365C45.4780068 22.4649477 46.7337897 22 48.0433213 22 49.3528528 22 50.6086357 22.4649477 51.5338851 23.292365L51.5525512 23.3090311C52.4792585 24.1351467 53 25.2563814 53 26.425606 53 27.5948306 52.4792585 28.7160653 51.5525512 29.5421809L51.5525512 29.5421809zM17.5 41L3.5 41C1.56700338 41 0 39.587975 0 37.8461538L0 3.15384615C0 1.41202502 1.56700338 0 3.5 0L38.5 0C40.4329966 0 42 1.41202502 42 3.15384615L42 17.3461538"/>
    <path d="M21.5,34 L10.7857143,34 C9.79949152,34 9,33.2964475 9,32.4285714 L9,24.5714286 C9,23.7035525 9.79949152,23 10.7857143,23 L34,23"/>
    <polygon points="9 6 34 6 34 17 9 17"/>
  </g>
</svg>
