<svg xmlns="http://www.w3.org/2000/svg" width="74" height="62" viewBox="0 0 74 62">
  <g fill="none" fill-rule="evenodd" stroke="#FFF" stroke-linecap="round" stroke-linejoin="round" transform="translate(3 3)">
    <g transform="translate(.82 .815)">
      <path stroke-width="3.06" d="M24.3631818,6.96416127 C21.8529847,2.65522328 17.2085139,1.69437114e-15 12.1815909,1.69437114e-15 C7.15466792,1.69437114e-15 2.5101971,2.65522328 -1.71261198e-15,6.96416127" transform="translate(5.298 49.693)"/>
      <g transform="translate(6.63 26.444)">
        <path stroke-width="2.55" d="M3.02611843,7.87904583 C7.07665152,12.0214277 13.2600377,13.2792339 18.5800459,11.0429798" transform="rotate(-23 10.803 10.008)"/>
        <path stroke-width="3.06" d="M2.93975563,11.1948015 C2.95766698,15.811831 6.74292205,19.5691416 11.3944228,19.5870534 C16.0459236,19.6048376 19.8022413,15.8764644 19.7844566,11.2594348 C19.7665453,6.64240533 15.9812902,2.88509472 11.3297895,2.86718289 C6.6782887,2.8493987 2.92197096,6.57777197 2.93975563,11.1948015 Z" transform="rotate(-23 11.362 11.227)"/>
      </g>
      <path stroke-width="3.06" d="M60.3332337,56.6572692 C57.8230365,52.3483312 53.1785657,49.693108 48.1516427,49.693108 C43.1247198,49.693108 38.4802489,52.3483312 35.9700518,56.6572692"/>
      <path stroke-width="2.55" d="M29.4490022,18.6188325 C29.4507155,19.9360298 28.2005219,21.0022164 26.656615,21.000227 L21.0656335,20.9930228 L20.2341183,26.5363001 L14.0769067,20.9840175 L4.29268916,20.9714101 C2.74878226,20.9694207 1.49580816,19.9000086 1.49409316,18.5828113 L1.47545976,4.27283134 C1.47374653,2.95563406 2.72394008,1.8894474 4.26784698,1.89143402 L26.6317728,1.92025373 C28.1756797,1.92224312 29.4286538,2.99165522 29.4303688,4.30885251 L29.4490022,18.6188325 Z" transform="rotate(-7 15.462 14.214)"/>
      <path stroke-width="2.975" d="M21.6641572,7.5779645 L16.2259862,14.7588174 C15.9815912,15.0813858 15.6074476,15.282715 15.2006385,15.3105641 C14.7938294,15.3384132 14.3944563,15.1900368 14.1061487,14.9039358 L11.2913609,12.1184438" transform="rotate(-6 16.478 11.446)"/>
      <path stroke-width="2.55" d="M66.0374352,18.0823173 C66.0384213,19.399373 64.7875041,20.4661299 63.243433,20.4649854 L57.6518567,20.4608409 L56.7976481,25.8045154 L50.6623865,20.4556604 L40.8771281,20.4484076 C39.3330569,20.4472631 38.0805402,19.3786507 38.0795536,18.061595 L38.0688345,3.75315322 C38.0678485,2.43609752 39.3187657,1.36934068 40.8628368,1.37048422 L63.2291417,1.38706298 C64.7732128,1.38820744 66.0257296,2.45681981 66.0267162,3.77387551 L66.0374352,18.0823173 Z" transform="scale(-1 1) rotate(-4 0 1504.194)"/>
    </g>
    <g transform="rotate(-1 1756.967 -2207.208)">
      <path stroke-width="3.06" d="M19.9519767,16.8929485 C18.8629652,15.1250813 18.3199933,13.0802736 18.389782,11.0111862 L18.389782,8.6052177 C18.389782,4.03456035 14.6441959,0.328868046 10.0243329,0.328868046 C5.40370303,0.328868046 1.65811691,4.03456035 1.65811691,8.6052177 L1.65811691,11.0111862 C1.72790568,13.0802736 1.18493373,15.1250813 0.0959222057,16.8929485"/>
      <path stroke-width="2.55" d="M1.65850036,9.97269707 C4.87031746,9.96738588 7.92338428,8.58268308 10.0239495,6.17823203 C12.1245147,8.58268308 15.1775815,9.96738588 18.3893986,9.97269707"/>
      <path stroke-width="3.06" d="M2.68079076,9.9242135 C3.05811025,13.6564618 6.2338826,16.4994652 10.0254833,16.4994652 C13.817084,16.4994652 16.9920894,13.6564618 17.3701758,9.9242135"/>
    </g>
    <path stroke-width="2.975" d="M8.43600478,0 L0,8.34615385 M0,0 L8.43600478,8.34615385" transform="translate(48.768 7.904)"/>
  </g>
</svg>
