<svg xmlns="http://www.w3.org/2000/svg" width="50" height="54" viewBox="0 0 50 54">
  <g fill="none" fill-rule="evenodd" stroke="currentColor" stroke-linecap="round" stroke-linejoin="round" stroke-width="3.75" transform="translate(2 2)">
    <path d="M34.8517875,49 C41.9025974,44.3022007 46.0970524,36.3580775 45.998294,27.8889804 C46.0184564,22.8961758 44.5854828,18.0052673 41.8739333,13.8120483 L35.3029921,21.5313737 C33.376145,15.2058301 33.3631903,8.45210061 35.2657568,2.11921867 C35.4309926,1.57904019 35.3064332,0.991887037 34.936089,0.565217697 C34.5657449,0.138548358 34.0017634,-0.0675588617 33.4434158,0.0197197818 C24.0477951,1.56182735 15.9813588,7.55693143 11.7987357,16.1063912 L6.57264716,10.6529483 C2.30498601,15.3760649 -0.0391507882,21.5248975 0.00170602561,27.8889804 C-0.0970523917,36.3580775 4.09740256,44.3022007 11.1482125,49"/>
    <path d="M22.0017717,49 L10.9211493,36.8063521 C8.9287163,34.7250071 8.42940601,31.4881589 9.68996902,28.8250553 L9.68996902,28.8250553 C10.661986,26.8277074 12.4533908,25.4423567 14.5217032,25.0885205 C16.5900156,24.7346842 18.691986,25.4539763 20.1910876,27.0285778 L21.999649,28.9370494 L23.8103331,27.0285778 C25.3090348,25.4539745 27.4107219,24.7346516 29.4787425,25.0885095 C31.5467631,25.4423673 33.3378089,26.8277736 34.309329,28.8250553 L34.309329,28.8250553 C35.5704243,31.4876738 35.0719851,34.7244558 33.0802714,36.8063521 L22.0017717,49 Z"/>
  </g>
</svg>
