<svg xmlns="http://www.w3.org/2000/svg" xmlns:xlink="http://www.w3.org/1999/xlink" width="713" height="340" viewBox="0 0 713 340">
  <defs>
    <path id="voty_header_subsite_toolbox-a" d="M7.64511823,0.000249781703 C10.7716044,-0.0248524758 13.603139,1.84401059 14.8118127,4.72825998 C16.0204864,7.61250936 15.3640624,10.9410687 13.1538086,13.1525776 C10.9422998,15.3640865 7.61374041,16.0192554 4.72949103,14.8105817 C1.84398653,13.6031631 -0.0236214297,10.7716285 0.000225714878,7.64388719 C0.0341137625,3.43549372 3.43672476,0.0328827164 7.64511823,0.000249781703 Z"/>
    <path id="voty_header_subsite_toolbox-b" d="M38.221425,0.000249781703 C41.3479112,-0.0248524758 44.1807009,1.84401059 45.3881195,4.72825998 C46.5967932,7.61250936 45.9403692,10.9410687 43.7301154,13.1525776 C41.5186065,15.3640865 38.1900472,16.0192554 35.3057978,14.8105817 C32.4202933,13.6031631 30.5526853,10.7716285 30.5765325,7.64388719 C30.6104205,3.43549372 34.0130315,0.0328827164 38.221425,0.000249781703 Z"/>
    <path id="voty_header_subsite_toolbox-c" d="M68.7976063,0.000249781703 C71.9240924,-0.0248524758 74.7568822,1.84401059 75.9643008,4.72825998 C77.1729745,7.61250936 76.5165504,10.9410687 74.3062967,13.1525776 C72.0947878,15.3640865 68.7662284,16.0192554 65.8819791,14.8105817 C62.9977297,13.6031631 61.1288666,10.7716285 61.1527138,7.64388719 C61.1866018,3.43549372 64.5892128,0.0328827164 68.7976063,0.000249781703 Z"/>
    <filter id="voty_header_subsite_toolbox-d">
      <feColorMatrix in="SourceGraphic" values="0 0 0 0 0.079914 0 0 0 0 0.482360 0 0 0 0 0.237152 0 0 0 1.000000 0"/>
    </filter>
    <filter id="voty_header_subsite_toolbox-e">
      <feColorMatrix in="SourceGraphic" values="0 0 0 0 0.079914 0 0 0 0 0.482360 0 0 0 0 0.237152 0 0 0 1.000000 0"/>
    </filter>
    <path id="voty_header_subsite_toolbox-f" d="M2.29776425,3.63855164 L6.80444287,2.46198663 C17.6050287,11.1534347 23.6811946,33.7730102 30.5874991,36.2332298 C37.1171306,38.559268 45.7733404,34.9982637 56.0232799,30.3158097 L59.8894832,37.194039 C51.1779146,48.3235513 31.461789,58.8072977 22.7276117,54.5712016 C8.7634777,47.7985645 3.2208807,19.7299647 2.29776425,3.63855164 Z"/>
    <path id="voty_header_subsite_toolbox-h" d="M52.3014186,-4.92116636e-14 C62.8229035,35.4861142 65.7234907,59.1305814 61.00318,70.9334014 L61.00318,70.9334014 L24.4284013,70.9334014 C25.0071093,62.2962279 26.8627997,53.1620513 29.4044718,44.2561469 C21.1213933,59.0406315 14.1586425,69.6843472 8.51672059,76.1877274 L1.42108547e-14,74.537249 C5.48608402,40.8737554 21.3730512,16.0280057 47.6609015,-9.89496551e-14 Z"/>
    <path id="voty_header_subsite_toolbox-j" d="M2.64425326,4.89127873 L8.28235531,2.46324946 C17.8796546,21.4489903 31.2912233,39.4577174 52.323262,53.820035 L48.2026989,62.6173891 C30.0659688,53.9662654 13.0482774,47.5021516 5.08911053,32.8361252 C2.41780839,27.9138277 2.99809787,11.0253681 2.64425326,4.89127873 Z"/>
    <polygon id="voty_header_subsite_toolbox-l" points="0 .03 87.058 .03 87.058 114.176 0 114.176"/>
    <path id="voty_header_subsite_toolbox-n" d="M47.4155274,0.255608057 L47.4,0.530608057 L51.8072244,0.531052203 C52.8231382,6.5060386 56.0055154,86.6671284 65.7640853,114.210659 L66.061817,115.029075 L11.9979016,115.029075 C13.169988,90.5377079 22.415784,61.1176104 31.7818866,36.4985682 C23.4998601,44.0773514 16.2815471,56.9188827 10.1267605,75.0231716 L10.1267605,75.0231716 L3.19744231e-14,72.4236503 C7.52943431,39.978806 23.0098071,16.1315595 46.4411183,0.881911093 L46.5939688,0.531052203 L46.985,0.530608057 L47.4155274,0.255608057 Z"/>
    <polygon id="voty_header_subsite_toolbox-p" points="0 .036 104.045 .036 104.045 136.48 0 136.48"/>
    <linearGradient id="voty_header_subsite_toolbox-r" x1="50%" x2="50%" y1="0%" y2="100%">
      <stop offset="0%" stop-color="#0F97E4"/>
      <stop offset="100%" stop-color="#1F6CBB"/>
    </linearGradient>
  </defs>
  <g fill="none" fill-rule="evenodd">
    <g transform="translate(430.305 31)">
      <path fill="#69A1AC" d="M64.2469509,0.350375165 C62.4355586,-0.0453413109 60.4355027,-0.0150550362 58.5903807,0.0175888527 C48.6949966,0.152154217 38.9778978,4.83709634 32.6537774,12.3228841 C27.2700094,18.6956967 25.7896122,26.6189126 24.7260169,34.6282721 C24.6205654,35.4235135 24.5753455,36.213677 24.5158553,37.0105506 C24.5030677,37.1815683 24.483979,37.3340878 24.4635929,37.4777209 C24.0453084,37.8516748 23.8258805,38.287652 24.0734782,38.7666104 C23.1520292,40.783096 22.3725412,42.8507237 21.7036937,44.9832764 C19.7351435,51.2603335 17.7326783,57.6567222 18.9662191,64.2573165 C19.2544036,60.6249585 19.8606103,56.910628 20.585612,53.3379357 C20.6273108,53.1328233 20.6723454,52.929343 20.7192333,52.7265882 C20.7240518,52.7051883 20.7284997,52.6837884 20.7333182,52.6625699 C20.989997,51.5684556 21.3235867,50.5071665 21.7292689,49.462562 C21.7335315,49.4511366 21.7376087,49.4398926 21.7420565,49.4286486 C21.7956162,49.2911816 21.8525118,49.15444 21.9086661,49.0176983 C22.0248665,48.7346033 22.1442175,48.4520523 22.2707963,48.1709521 C22.313607,48.0751967 22.3547497,47.9785345 22.3942245,47.8811469 C22.9848637,46.4335718 23.2343147,44.8024655 23.7634251,43.3046551 C23.8900039,42.9640705 24.0223278,42.6247554 24.1609529,42.2872539 C24.1691073,42.2674862 24.177447,42.2477185 24.1857868,42.2279508 C24.5605193,41.3197253 24.9745412,40.4225624 25.4122851,39.53483 C25.6502458,39.356014 25.7773806,38.9124198 25.9825383,38.5092678 C26.0249783,38.4298343 26.3567148,37.9000965 26.4554944,37.5948762 C26.7132852,37.0961501 26.9701493,36.5972427 27.2297933,36.0994234 C27.2220095,36.102325 27.2142258,36.1052267 27.206442,36.1081284 C27.4662714,35.6300768 27.726842,35.1540201 27.9853741,34.6799583 C28.0422697,34.5758605 28.0997212,34.4715814 28.1569875,34.367121 C28.2498366,34.2008185 28.3426858,34.0346974 28.4353496,33.868939 C29.302127,32.3178102 30.2211667,30.7976931 31.1756041,29.2964369 C31.5162363,28.7607144 32.33001,27.9924949 32.4860558,27.3909406 C32.491801,27.3684526 32.4930983,27.3477781 32.4966195,27.3261969 C34.5676559,24.417445 36.951896,21.73448 39.8111308,19.6086374 C39.4654948,19.9822286 38.730856,21.250081 38.5366327,21.5010762 C37.9422869,22.2696585 37.2969761,22.9851037 36.649256,23.709254 C35.4892903,25.0064858 34.356753,26.3448853 33.350424,27.7601792 C31.5101205,30.3484769 29.9224186,33.0724281 28.4216354,35.8511484 C28.4073651,35.8674704 28.3917976,35.8828856 28.3782687,35.8995702 C27.6239852,36.829377 27.1491758,38.2346964 26.6061658,39.2983431 C28.7550398,38.3030672 31.1311255,37.6547233 33.3365244,36.7709807 C35.5358075,35.8899584 37.6752298,34.9088282 39.7407063,33.7566803 C42.4859647,32.2255005 45.3337092,30.4966439 47.9275549,28.5401868 C50.9000249,26.6963512 53.3978708,24.1584701 55.6027138,21.4952729 C58.2113857,18.3442308 60.6021122,15.1656228 62.0806561,11.3395777 C62.8069552,9.45947102 63.3783203,7.49902413 63.7170992,5.51572652 C63.7319254,5.42922022 63.7508288,5.33545972 63.7714002,5.23807211 C64.1179629,4.55309451 64.4278307,3.85270174 64.6878454,3.13616838 C65.1007554,1.99979833 66.0759494,0.74971874 64.2469509,0.350375165"/>
      <path fill="#C1DEE2" d="M67.9670091,35.2488783 C65.8723706,33.8285017 63.0869054,33.4562888 60.5802809,33.4562888 C50.7898758,33.4562888 41.5873498,37.0887116 33.6374498,42.5011001 C29.2813,45.4667531 25.384394,49.2433941 21.9439866,53.1755383 C19.9581784,55.4453483 18.1874814,57.9008822 16.933875,60.631846 C16.0879407,62.4751223 15.5073168,64.3956719 15.1137633,66.3766631 C14.634126,68.7908825 14.2531222,71.2540673 14.0807586,73.7084536 C14.0129113,74.6749447 13.4513082,79.8034874 15.0582697,79.8903243 C15.0490534,80.0167543 15.0468964,80.1372548 15.0567009,80.2453228 C11.567467,85.7011297 9.41164838,92.0951197 7.412506,98.157255 C5.6731835,103.432502 4.1232844,108.752316 3.11714418,114.209653 C1.79255303,121.394547 0.922499596,128.68751 0.508748697,135.975691 C0.419919712,137.542007 0.358935575,139.109088 0.306383328,140.677508 C0.26187079,142.015256 0.216769981,143.353004 0.172845715,144.690751 C0.123823097,146.189931 -0.140114681,147.915959 0.0983313353,149.40634 C0.305795056,150.704304 1.42919738,150.507869 1.47880827,149.216217 C1.53881195,147.656404 1.52900743,146.093531 1.59724692,144.53257 C1.6880368,142.460917 1.78157196,140.389263 1.88295074,138.318184 C2.58868035,123.930989 5.23629392,109.75534 10.1224763,96.1651701 C12.0998527,90.6655621 14.3656781,85.4593635 17.2778177,80.371944 C19.838171,75.8988862 22.917968,71.5685164 26.0660045,67.5353813 C29.1258002,63.6160523 32.306976,59.7873857 36.0560297,56.4667341 C39.0983734,53.7721118 42.4448535,51.4246458 45.8848686,49.2403338 C50.2541566,46.4661428 54.6150126,43.7592791 59.3478523,41.6296706 C61.8080034,40.5227867 64.3146279,39.531813 66.7939958,38.4696865 C67.2401017,38.278607 67.7183663,38.0932656 68.1474123,37.8719654 C69.5786767,37.1338515 69.1074713,36.0221859 67.9670091,35.2488783"/>
      <path fill="#89C5CC" d="M46.2083076,65.4994046 C42.2374765,65.4994046 38.7040566,66.0153676 35.0453722,67.5934053 C31.8871925,68.9553453 29.0090594,70.758327 26.214682,72.7212608 C22.2840683,75.4819694 19.1880597,78.6950933 17.0209275,82.9524193 C15.7262196,85.4957663 14.7764966,89.094689 15.6459691,91.868757 C16.6702237,95.1360408 19.482496,97.8610038 23.186379,97.2852845 C25.4767464,96.9296348 27.5763576,95.4135198 29.3171475,93.986588 C31.3996016,92.2794693 33.066598,90.2268106 34.4430323,87.9470416 C36.6883857,84.2282451 38.0078144,80.0241763 39.9151933,76.1382064 C40.8202713,74.2938826 41.6949094,72.43638 42.7789367,70.6835864 C43.3156003,69.8155844 43.8869469,68.9558869 44.7010743,68.310843 C45.1366408,67.9658446 46.9731778,67.3686419 46.2708477,66.5937949 C56.5681848,66.729014 65.690544,74.6374367 67.6672888,84.4264702 C67.8514037,85.3388833 67.9953012,86.2586982 68.1473159,87.1767078 C68.2432475,87.7563989 68.2045059,89.8940885 68.7227211,90.2643614 C69.8655988,91.0812726 69.3852028,88.5996679 69.33613,88.2423933 C69.2093896,87.3189677 69.0741629,86.3962643 68.9322948,85.4751856 C68.1604142,80.4652181 65.9300041,75.8078312 62.2104399,72.2349053 C57.9569795,68.149266 52.2180547,65.4994046 46.2083076,65.4994046" transform="matrix(-1 0 0 1 84.788 0)"/>
    </g>
    <g transform="translate(236.822 61.981)">
      <g stroke-width="5.857">
        <path fill="#F5FCFF" stroke="#DDE3E9" d="M227.17543,43.0922087 L227.17543,177.389286 C227.17543,182.588134 225.068181,187.294807 221.661219,190.701769 C218.254258,194.10873 213.547585,196.215979 208.348737,196.215979 L208.348737,196.215979 L21.7552898,196.215979 C16.5564421,196.215979 11.8497688,194.10873 8.44280745,190.701769 C5.03584611,187.294807 2.92859671,182.588134 2.92859671,177.389286 L2.92859671,177.389286 L2.92859671,43.0922087 L227.17543,43.0922087 Z"/>
        <path fill="#C5CFD6" stroke="#C5CFD6" d="M227.17543,2.92859671 L227.17543,24.2655156 C227.17543,29.4643633 225.068181,34.1710366 221.661219,37.5779979 C218.254258,40.9849593 213.547585,43.0922087 208.348737,43.0922087 L208.348737,43.0922087 L21.7552898,43.0922087 C16.5564421,43.0922087 11.8497688,40.9849593 8.44280745,37.5779979 C5.03584611,34.1710366 2.92859671,29.4643633 2.92859671,24.2655156 L2.92859671,24.2655156 L2.92859671,2.92859671 L227.17543,2.92859671 Z" transform="rotate(-180 115.052 23.01)"/>
      </g>
      <g fill="#DDE3E9" transform="translate(28.193 69.755)">
        <rect width="53.105" height="53.105" x=".484" y=".344" rx="7.58"/>
        <rect width="53.105" height="53.105" x=".484" y="60.353" rx="7.58"/>
        <rect width="53.105" height="53.105" x="61.024" y=".344" rx="7.58"/>
        <rect width="53.105" height="53.105" x="60.808" y="60.776" rx="7.58"/>
        <rect width="53.105" height="53.105" x="122.626" y=".344" rx="7.58"/>
        <rect width="53.105" height="53.105" x="122.678" y="60.776" rx="7.58"/>
      </g>
      <g stroke="#A9CCDC" stroke-linecap="round" stroke-linejoin="round" stroke-width="3.114" transform="translate(97.76 80.907)">
        <path d="M12.4527129 28.6412398L7.47162777 32.3770537 7.47162777 24.9054259 2.49054259 24.9054259C1.1150539 24.9054259 0 23.790372 0 22.4148833L0 2.49054259C0 1.1150539 1.1150539 0 2.49054259 0L29.8865111 0C31.2619998 0 32.3770537 1.1150539 32.3770537 2.49054259L32.3770537 9.96217036M8.39405095 16.4883144C9.99670192 17.3264376 11.7130997 17.9322251 13.490439 18.2870396"/>
        <line x1="9.893" x2="9.893" y1="7.195" y2="9.893"/>
        <line x1="22.484" x2="22.484" y1="7.195" y2="9.893"/>
        <polygon points="37.174 29.679 32.227 29.679 32.227 37.174 24.807 29.679 17.388 29.679 17.388 14.69 37.174 14.69"/>
        <path d="M22.484065 21.8095431C22.1115369 21.8095431 21.8095431 22.1115369 21.8095431 22.484065 21.8095431 22.8565932 22.1115369 23.158587 22.484065 23.158587 22.8565932 23.158587 23.158587 22.8565932 23.158587 22.484065 23.158587 22.1115369 22.8565932 21.8095431 22.484065 21.8095431M27.2806656 21.8095431C26.9081374 21.8095431 26.6061436 22.1115369 26.6061436 22.484065 26.6061436 22.8565932 26.9081374 23.158587 27.2806656 23.158587 27.6531938 23.158587 27.9551875 22.8565932 27.9551875 22.484065 27.9551875 22.1115369 27.6531938 21.8095431 27.2806656 21.8095431M32.3770537 21.8095431C32.0045255 21.8095431 31.7025317 22.1115369 31.7025317 22.484065 31.7025317 22.8565932 32.0045255 23.158587 32.3770537 23.158587 32.7495818 23.158587 33.0515756 22.8565932 33.0515756 22.484065 33.0515756 22.1115369 32.7495818 21.8095431 32.3770537 21.8095431"/>
      </g>
      <g transform="translate(18.795 16.29)">
        <use fill="#D8D8D8" xlink:href="#voty_header_subsite_toolbox-a"/>
        <use fill="#98AAB2" xlink:href="#voty_header_subsite_toolbox-a"/>
        <use fill="#D8D8D8" xlink:href="#voty_header_subsite_toolbox-b"/>
        <use fill="#98AAB2" xlink:href="#voty_header_subsite_toolbox-b"/>
        <use fill="#D8D8D8" xlink:href="#voty_header_subsite_toolbox-c"/>
        <use fill="#98AAB2" xlink:href="#voty_header_subsite_toolbox-c"/>
        <line x1="2.317" x2="190.705" y1="42.09" y2="41.861" stroke="#DDE3E9" stroke-linecap="round" stroke-linejoin="round" stroke-width="6.276"/>
      </g>
      <g stroke="#A9CCDC" stroke-linecap="round" stroke-linejoin="round" stroke-width="2.694" transform="translate(97.76 138.261)">
        <path d="M2.01717503 27.6705185C2.01717503 29.2148054 2.84104227 30.6417854 4.17843398 31.4139288 5.51582569 32.1860723 7.16356024 32.1860723 8.50095195 31.4139288 9.83834366 30.6417854 10.6622109 29.2148054 10.6622109 27.6705185 10.6622109 26.1262316 9.83834366 24.6992516 8.50095195 23.9271081 7.16356024 23.1549647 5.51582569 23.1549647 4.17843398 23.9271081 2.84104227 24.6992516 2.01717503 26.1262316 2.01717503 27.6705185L2.01717503 27.6705185zM12.3912181 36.8918901C11.1708914 34.7634133 8.78880317 33.4338757 6.19560903 33.4338757 3.6024149 33.4338757 1.22032665 34.7634133 0 36.8918901M14.4083931 27.6705185C14.4083931 30.0577792 16.3436503 31.9930364 18.730911 31.9930364 21.1181718 31.9930364 23.053429 30.0577792 23.053429 27.6705185 23.053429 25.2832577 21.1181718 23.3480006 18.730911 23.3480006 16.3436503 23.3480006 14.4083931 25.2832577 14.4083931 27.6705185L14.4083931 27.6705185zM24.7824361 36.8918901C23.5621095 34.7634133 21.1800212 33.4338757 18.5868271 33.4338757 15.993633 33.4338757 13.6115447 34.7634133 12.3912181 36.8918901M26.7996112 27.6705185C26.7996112 30.0577792 28.7348684 31.9930364 31.1221291 31.9930364 33.5093898 31.9930364 35.444647 30.0577792 35.444647 27.6705185 35.444647 25.2832577 33.5093898 23.3480006 31.1221291 23.3480006 28.7348684 23.3480006 26.7996112 25.2832577 26.7996112 27.6705185L26.7996112 27.6705185zM37.1736542 36.8918901C35.9533275 34.7634133 33.5712393 33.4338757 30.9780452 33.4338757 28.384851 33.4338757 26.0027628 34.7634133 24.7824361 36.8918901M9.79770731 18.4491469L2.44942683 18.4491469C1.09664574 18.4491469 0 17.3482006 0 15.9901145L0 2.46543615C0 1.10735005 1.09664574.00640373027 2.44942683.00640373027L9.79770731.00640373027M23.3415968.00640373027L34.422961.00640373027C35.7829762.00640373027 36.8854863 1.10735005 36.8854863 2.46543615L36.8854863 15.9901145C36.8854863 17.3482006 35.7829762 18.4491469 34.422961 18.4491469L23.3415968 18.4491469"/>
        <polygon points="14.985 3.464 14.985 15.856 24.782 9.66"/>
      </g>
      <g stroke="#A9CCDC" stroke-linecap="round" stroke-linejoin="round" stroke-width="2.811" transform="translate(37.524 77.949)">
        <path d="M11.2809306,33.3260378 L2.63283257,33.3260378 C1.26897972,33.3260378 0.16335854,32.1844614 0.16335854,30.7762556 L0.16335854,2.72865227 C0.16335854,1.32044648 1.26897972,0.178870141 2.63283257,0.178870141 L20.1315255,0.178870141 C20.7862501,0.179465267 21.4139485,0.448492645 21.8766205,0.926806231 L26.6048401,5.80708922 C27.0678883,6.28550224 27.3278696,6.9342736 27.3275731,7.61063511 L27.3275731,10.3779986"/>
        <polygon points="10.041 7.828 14.98 7.828 14.98 15.478 10.041 15.478"/>
        <line x1="5.102" x2="5.102" y1="7.828" y2="15.478"/>
        <line x1="19.919" x2="19.919" y1="7.828" y2="12.928"/>
        <polygon points="5.102 20.577 10.041 20.577 10.041 28.226 5.102 28.226"/>
        <path d="M16.2149397,25.6766914 C16.2149397,28.8650144 17.8623165,31.8111463 20.5365192,33.4053078 C23.210722,34.9994693 26.5054756,34.9994693 29.1796784,33.4053078 C31.8538811,31.8111463 33.5012579,28.8650144 33.5012579,25.6766914 C33.5012579,22.4883684 31.8538811,19.5422365 29.1796784,17.9480749 C26.5054756,16.3539134 23.210722,16.3539134 20.5365192,17.9480749 C17.8623165,19.5422365 16.2149397,22.4883684 16.2149397,25.6766914 Z"/>
        <line x1="37.205" x2="30.969" y1="38.426" y2="31.988"/>
      </g>
      <g stroke="#A9CCDC" stroke-linecap="round" stroke-linejoin="round" stroke-width="2.649" transform="translate(158.3 139.323)">
        <line x1="22.602" x2="14.657" y1="11.994" y2="11.994"/>
        <line x1="14.657" x2="22.602" y1="6.697" y2="6.697"/>
        <line x1="27.886" x2="27.886" y1="18.149" y2="36.736"/>
        <line x1="9.345" x2="9.345" y1="36.736" y2="18.149"/>
        <line x1="14.642" x2="14.642" y1="18.149" y2="36.736"/>
        <line x1="22.588" x2="22.588" y1="18.149" y2="36.736"/>
        <path d="M5.13842727,6.55309329 C5.74720311,5.99455043 6.5340389,5.71334337 7.33208937,5.76910092 C8.35453608,5.83760855 9.30960259,6.34165292 9.98636532,7.16991734 C10.663128,7.99818176 11.0059096,9.08252474 10.9390076,10.1834724 C10.856057,11.5564404 10.2699225,12.8376356 9.30962667,13.7450359 C8.34933081,14.6524361 7.09358996,15.1116608 5.81882321,15.0216235 C4.22465283,14.91272 2.73606813,14.1257585 1.68097158,12.8340892 C0.625875026,11.5424199 0.09082104,9.85200438 0.193670248,8.13520401 L0.193670248,8.12637527 C0.193670248,3.73799323 3.49681815,0.180506686 7.57145758,0.180506686 L29.6785874,0.180506686 C33.7532269,0.180506686 37.0563748,3.73799323 37.0563748,8.12637527 L37.0563748,8.13696976 C37.159224,9.85377013 36.62417,11.5441857 35.5690734,12.835855 C34.5139769,14.1275243 33.0253922,14.9144858 31.4312218,15.0233892 C30.1559483,15.1114075 28.9004892,14.6498642 27.9413555,13.7404127 C26.9822219,12.8309612 26.3980836,11.5481964 26.3175954,10.1746436 C26.2529588,9.07516745 26.5967653,7.99311009 27.2732934,7.16678882 C27.9498214,6.34046755 28.9035817,5.83765788 29.9245137,5.76910092 C30.7406521,5.71178868 31.5443259,6.00729781 32.157524,6.59017401"/>
      </g>
      <g stroke="#A9CCDC" stroke-linecap="round" stroke-linejoin="round" stroke-width="2.937" transform="translate(41.203 141.713)">
        <path d="M31.9288539 20.6455527L20.8345771 31.7398295 15.3819509 32.8303547 16.4724761 27.3777285 27.5667529 16.2834518C28.1433458 15.7059504 28.9259191 15.381437 29.7419872 15.381437 30.5580554 15.381437 31.3406287 15.7059504 31.9172216 16.2834518L31.9288539 16.295084C32.5063553 16.8716769 32.8308687 17.6542502 32.8308687 18.4703184 32.8308687 19.2863865 32.5063553 20.0689598 31.9288539 20.6455527L31.9288539 20.6455527zM11.01985 28.4682538L2.29564804 28.4682538C1.09108713 28.4682538.114597567 27.4917642.114597567 26.2872033L.114597567 2.29564804C.114597567 1.09108713 1.09108713.114597567 2.29564804.114597567L24.1061528.114597567C25.3107137.114597567 26.2872033 1.09108713 26.2872033 2.29564804L26.2872033 12.1103752"/>
        <path d="M13.2009004,24.1061528 L6.657749,24.1061528 C6.05546854,24.1061528 5.56722376,23.617908 5.56722376,23.0156276 L5.56722376,17.5630014 C5.56722376,16.9607209 6.05546854,16.4724761 6.657749,16.4724761 L20.8345771,16.4724761"/>
        <polygon points="5.567 4.477 20.835 4.477 20.835 12.11 5.567 12.11"/>
      </g>
      <g stroke="#A9CCDC" stroke-linecap="round" stroke-linejoin="round" stroke-width="2.941" transform="translate(161.44 78.861)">
        <path d="M23.5374986,32.9252366 C28.2993326,29.7685804 31.1320992,24.4305776 31.0654017,18.739822 C31.0790185,15.3849389 30.1112457,12.0985242 28.279974,9.28091749 L23.842224,14.4678688 C22.5409088,10.2174603 22.5321598,5.67933494 23.8170768,1.42399543 C23.9286704,1.06102595 23.844548,0.66649215 23.5944324,0.379794416 C23.3443169,0.0930966828 22.9634264,-0.045395745 22.5863408,0.0132505812 C16.2409157,1.0494599 10.7931683,5.07783173 7.96839255,10.8225865 L4.43890211,7.15818045 C1.55669504,10.3318485 -0.0264408711,14.4635172 0.00115218123,18.739822 C-0.0655452903,24.4305776 2.76722125,29.7685804 7.52905531,32.9252366"/>
        <path d="M15.6672704,33.1907627 L7.9723002,25.3662442 C6.58864937,24.0306699 6.24190189,21.953623 7.11730351,20.2447412 L7.11730351,20.2447412 C7.79232349,18.9630669 9.03636969,18.0741038 10.4727152,17.8470513 C11.9090607,17.6199988 13.3687802,18.0815599 14.4098356,19.091963 L15.6657962,20.3166065 L16.923231,19.091963 C17.9640087,18.0815588 19.4235314,17.6199779 20.8596742,17.8470443 C22.2958171,18.0741106 23.5396141,18.9631093 24.2142889,20.2447412 L24.2142889,20.2447412 C25.0900602,21.9533117 24.7439177,24.0303161 23.3607664,25.3662442 L15.6672704,33.1907627 Z"/>
      </g>
    </g>
    <g opacity=".5" transform="translate(0 .204)">
      <path fill="#69A1AC" d="M100.622523,62.9202167 C102.995107,59.5372014 107.397943,50.9454531 110.73731,49.7366002 C112.888171,48.9579872 112.261057,57.0121425 112.287619,58.5478933 C112.391059,64.4894709 111.812625,70.3933744 111.098306,76.2850671 C109.81139,86.910711 105.603286,96.3736544 99.8315592,105.417171 C96.8615512,110.07061 93.3779674,114.780474 88.5530408,117.683997 C86.3321225,119.021129 83.6597999,119.245009 81.4665036,120.397056 C78.9120899,121.738189 80.3032185,120.654024 79.1520312,123.315852 C77.5533641,127.011443 77.0420191,131.779151 76.302341,135.722479 C72.9061014,153.824497 64.683869,249.516486 66.1092888,267.929699 C66.2358889,269.561765 63.9601822,269.952048 63.8465776,267.959637 C63.2427496,257.395312 68.467811,184.237526 71.103943,160.312826 C73.740075,136.388126 76.4077203,115.251851 79.0825632,106.974654 C82.3275463,96.9326545 88.1881715,84.856375 93.0667327,75.4917761 C95.3327877,71.1411949 97.8028323,66.9404887 100.622523,62.9202167 Z"/>
      <path fill="#C1DEE2" d="M118.232667,180.260335 C124.406455,175.727786 131.089116,184.282058 125.502474,188.815305 C122.414046,191.321008 119.185275,190.429661 117.367565,188.341526 C116.187581,189.779864 115.083156,191.283787 114.021947,192.554079 C110.788714,196.4249 107.732821,200.388108 104.812273,204.443727 C98.7452846,212.869175 93.5459855,221.770482 88.1097482,230.509021 C82.7448929,239.133483 77.4229353,247.80212 72.5603026,256.64509 C68.4409625,264.137231 62.9504054,272.951133 61.5400717,281.164731 C63.679922,263.74511 71.7996842,247.00177 81.4689047,231.645039 C91.0594463,216.414463 102.065707,199.780983 116.915424,187.761346 C115.404086,185.538823 115.362131,182.366341 118.232667,180.260335 Z"/>
      <path fill="#69A1AC" d="M1.08016749,137.776798 C4.53501809,138.452453 10.180205,146.267864 13.0280322,149.245596 C16.4124833,152.784213 19.4830205,156.555875 22.377363,160.507638 C28.60829,169.013645 34.180759,178.057297 38.9192532,187.488242 C46.6442394,202.862569 52.8329578,218.644848 57.3243756,235.386629 C60.0737353,245.634878 61.8538319,256.25679 62.908813,266.804526 C63.1080506,268.793766 65.1936324,284.130428 62.1884367,284.543793 C59.4855801,284.916003 60.3203916,272.898351 60.1899983,271.263654 C58.7160439,252.821218 54.3004944,234.876883 48.1585055,217.493963 C46.8206923,213.707259 45.5778165,209.069222 43.4383375,205.661554 C41.8976129,203.207065 43.4272885,204.063024 40.7196676,203.134119 C38.3947436,202.336028 35.7458235,202.531046 33.3650487,201.554117 C28.1930506,199.433114 24.0517638,195.315617 20.4216425,191.173899 C13.3670444,183.124833 7.77663423,174.417004 4.8625896,164.103314 C3.2460791,158.38471 1.76058847,152.632843 0.936232377,146.737407 C0.722985812,145.213611 -1.14507571,137.341613 1.08016749,137.776798 Z"/>
      <path fill="#89C5CC" d="M14.7139279,7.74390444 C27.7276347,30.312952 38.4217658,55.1044591 45.3270433,80.2145064 C49.5108174,95.4284121 52.4366561,111.040115 55.3437099,126.539044 C59.8447583,150.537204 64.1022338,174.533513 65.313284,198.957952 C66.5316782,223.523937 68.9409705,251.857914 60.8969126,275.518853 C64.9149599,251.496571 61.0895061,225.926723 60.4121736,201.755353 C60.0884926,190.216333 59.1505252,178.790126 57.9200874,167.318534 C56.7260701,156.190473 54.7753835,145.115402 52.9588548,134.074808 C52.07399,128.697839 51.1446826,123.32896 50.1985186,117.963018 C49.9160562,116.362082 49.7967381,111.611548 48.7811993,110.517879 C47.7590834,109.417008 42.5441129,108.968221 40.9068538,108.160468 C37.6099762,106.533554 34.5088179,104.222641 31.7642122,101.780866 C26.5027672,97.100044 21.9255749,90.9839818 18.3128885,84.954935 C9.95406914,71.0046695 6.61221726,53.9802658 6.78112796,37.8240833 C6.81358198,34.6872827 11.8582625,0.908958894 9.83223769,0.443803434 C9.95422157,0.300941891 10.069609,0.15343305 10.1784096,0 C11.7122841,2.56818831 13.2174593,5.15378089 14.7139279,7.74390444 Z"/>
      <path fill="#89C5CC" d="M155.174794,89.1412385 C155.37559,88.8516145 156.68246,86.8373663 156.024362,86.9660953 C157.364274,86.7039984 154.181396,89.1875968 157.52,87.6636721 C155.934808,89.1607844 156.849673,91.1055567 156.870831,93.1205057 C156.90535,96.3918877 156.358,99.6364437 155.741863,102.837634 C154.768271,107.89774 153.31788,112.817641 151.212666,117.524148 C146.624285,127.780695 138.832979,137.654496 129.583251,144.066814 C125.016916,147.232833 120.541705,148.310746 115.333797,149.768262 C112.044262,150.68907 111.783397,152.390697 110.037304,155.582822 C106.402069,162.231335 102.831574,168.855933 99.6256201,175.728768 C95.7974981,183.935656 92.0813148,192.15159 88.5758755,200.50295 C76.7666787,228.634062 67.155088,257.778314 62.1073742,287.939785 C61.983785,270.165722 66.0955242,251.859958 71.2820855,234.918319 C75.0601835,222.575026 79.9785574,210.676465 85.2244836,198.898357 C86.4956777,196.044972 88.422057,192.374552 88.9618918,189.224291 C89.3398843,187.017062 88.1842496,184.894355 87.655136,182.56921 C85.5923588,173.514666 85.7399985,163.370659 87.5514237,154.267701 C89.5486588,144.229962 95.3245705,139.571107 105.095271,138.149326 C108.668612,137.629253 113.21042,137.819863 116.486997,136.296257 C120.05678,134.6371 121.529368,129.183471 123.559277,125.682671 C129.011543,116.27878 135.489624,107.259875 142.928251,99.3363172 C144.987936,97.1421833 147.202935,95.1179459 149.552802,93.2417262 C151.034627,92.0579358 154.164939,90.5995079 155.174794,89.1412385 Z"/>
      <path fill="#C1DEE2" d="M45.61387,268.743799 L80.2892125,268.743799 C81.8482787,268.743799 83.1121515,270.007672 83.1121515,271.566738 C83.1121515,271.704578 83.1020559,271.842232 83.0819456,271.978596 L80.4018564,290.151803 C79.5848402,295.691845 74.8308861,299.796129 69.230924,299.796129 L56.6721585,299.796129 C51.0721963,299.796129 46.3182422,295.691845 45.501226,290.151803 L42.8211368,271.978596 C42.5936742,270.436212 43.6596284,269.001468 45.2020124,268.774005 C45.3383767,268.753895 45.4760308,268.743799 45.61387,268.743799 Z"/>
    </g>
    <g opacity=".5" transform="translate(555 9.204)">
      <path fill="#69A1AC" d="M100.622523,62.9202167 C102.995107,59.5372014 107.397943,50.9454531 110.73731,49.7366002 C112.888171,48.9579872 112.261057,57.0121425 112.287619,58.5478933 C112.391059,64.4894709 111.812625,70.3933744 111.098306,76.2850671 C109.81139,86.910711 105.603286,96.3736544 99.8315592,105.417171 C96.8615512,110.07061 93.3779674,114.780474 88.5530408,117.683997 C86.3321225,119.021129 83.6597999,119.245009 81.4665036,120.397056 C78.9120899,121.738189 80.3032185,120.654024 79.1520312,123.315852 C77.5533641,127.011443 77.0420191,131.779151 76.302341,135.722479 C72.9061014,153.824497 64.683869,249.516486 66.1092888,267.929699 C66.2358889,269.561765 63.9601822,269.952048 63.8465776,267.959637 C63.2427496,257.395312 68.467811,184.237526 71.103943,160.312826 C73.740075,136.388126 76.4077203,115.251851 79.0825632,106.974654 C82.3275463,96.9326545 88.1881715,84.856375 93.0667327,75.4917761 C95.3327877,71.1411949 97.8028323,66.9404887 100.622523,62.9202167 Z"/>
      <path fill="#C1DEE2" d="M118.232667,180.260335 C124.406455,175.727786 131.089116,184.282058 125.502474,188.815305 C122.414046,191.321008 119.185275,190.429661 117.367565,188.341526 C116.187581,189.779864 115.083156,191.283787 114.021947,192.554079 C110.788714,196.4249 107.732821,200.388108 104.812273,204.443727 C98.7452846,212.869175 93.5459855,221.770482 88.1097482,230.509021 C82.7448929,239.133483 77.4229353,247.80212 72.5603026,256.64509 C68.4409625,264.137231 62.9504054,272.951133 61.5400717,281.164731 C63.679922,263.74511 71.7996842,247.00177 81.4689047,231.645039 C91.0594463,216.414463 102.065707,199.780983 116.915424,187.761346 C115.404086,185.538823 115.362131,182.366341 118.232667,180.260335 Z"/>
      <path fill="#69A1AC" d="M1.08016749,137.776798 C4.53501809,138.452453 10.180205,146.267864 13.0280322,149.245596 C16.4124833,152.784213 19.4830205,156.555875 22.377363,160.507638 C28.60829,169.013645 34.180759,178.057297 38.9192532,187.488242 C46.6442394,202.862569 52.8329578,218.644848 57.3243756,235.386629 C60.0737353,245.634878 61.8538319,256.25679 62.908813,266.804526 C63.1080506,268.793766 65.1936324,284.130428 62.1884367,284.543793 C59.4855801,284.916003 60.3203916,272.898351 60.1899983,271.263654 C58.7160439,252.821218 54.3004944,234.876883 48.1585055,217.493963 C46.8206923,213.707259 45.5778165,209.069222 43.4383375,205.661554 C41.8976129,203.207065 43.4272885,204.063024 40.7196676,203.134119 C38.3947436,202.336028 35.7458235,202.531046 33.3650487,201.554117 C28.1930506,199.433114 24.0517638,195.315617 20.4216425,191.173899 C13.3670444,183.124833 7.77663423,174.417004 4.8625896,164.103314 C3.2460791,158.38471 1.76058847,152.632843 0.936232377,146.737407 C0.722985812,145.213611 -1.14507571,137.341613 1.08016749,137.776798 Z"/>
      <path fill="#89C5CC" d="M14.7139279,7.74390444 C27.7276347,30.312952 38.4217658,55.1044591 45.3270433,80.2145064 C49.5108174,95.4284121 52.4366561,111.040115 55.3437099,126.539044 C59.8447583,150.537204 64.1022338,174.533513 65.313284,198.957952 C66.5316782,223.523937 68.9409705,251.857914 60.8969126,275.518853 C64.9149599,251.496571 61.0895061,225.926723 60.4121736,201.755353 C60.0884926,190.216333 59.1505252,178.790126 57.9200874,167.318534 C56.7260701,156.190473 54.7753835,145.115402 52.9588548,134.074808 C52.07399,128.697839 51.1446826,123.32896 50.1985186,117.963018 C49.9160562,116.362082 49.7967381,111.611548 48.7811993,110.517879 C47.7590834,109.417008 42.5441129,108.968221 40.9068538,108.160468 C37.6099762,106.533554 34.5088179,104.222641 31.7642122,101.780866 C26.5027672,97.100044 21.9255749,90.9839818 18.3128885,84.954935 C9.95406914,71.0046695 6.61221726,53.9802658 6.78112796,37.8240833 C6.81358198,34.6872827 11.8582625,0.908958894 9.83223769,0.443803434 C9.95422157,0.300941891 10.069609,0.15343305 10.1784096,0 C11.7122841,2.56818831 13.2174593,5.15378089 14.7139279,7.74390444 Z"/>
      <path fill="#89C5CC" d="M155.174794,89.1412385 C155.37559,88.8516145 156.68246,86.8373663 156.024362,86.9660953 C157.364274,86.7039984 154.181396,89.1875968 157.52,87.6636721 C155.934808,89.1607844 156.849673,91.1055567 156.870831,93.1205057 C156.90535,96.3918877 156.358,99.6364437 155.741863,102.837634 C154.768271,107.89774 153.31788,112.817641 151.212666,117.524148 C146.624285,127.780695 138.832979,137.654496 129.583251,144.066814 C125.016916,147.232833 120.541705,148.310746 115.333797,149.768262 C112.044262,150.68907 111.783397,152.390697 110.037304,155.582822 C106.402069,162.231335 102.831574,168.855933 99.6256201,175.728768 C95.7974981,183.935656 92.0813148,192.15159 88.5758755,200.50295 C76.7666787,228.634062 67.155088,257.778314 62.1073742,287.939785 C61.983785,270.165722 66.0955242,251.859958 71.2820855,234.918319 C75.0601835,222.575026 79.9785574,210.676465 85.2244836,198.898357 C86.4956777,196.044972 88.422057,192.374552 88.9618918,189.224291 C89.3398843,187.017062 88.1842496,184.894355 87.655136,182.56921 C85.5923588,173.514666 85.7399985,163.370659 87.5514237,154.267701 C89.5486588,144.229962 95.3245705,139.571107 105.095271,138.149326 C108.668612,137.629253 113.21042,137.819863 116.486997,136.296257 C120.05678,134.6371 121.529368,129.183471 123.559277,125.682671 C129.011543,116.27878 135.489624,107.259875 142.928251,99.3363172 C144.987936,97.1421833 147.202935,95.1179459 149.552802,93.2417262 C151.034627,92.0579358 154.164939,90.5995079 155.174794,89.1412385 Z"/>
      <path fill="#C1DEE2" d="M45.61387,268.743799 L80.2892125,268.743799 C81.8482787,268.743799 83.1121515,270.007672 83.1121515,271.566738 C83.1121515,271.704578 83.1020559,271.842232 83.0819456,271.978596 L80.4018564,290.151803 C79.5848402,295.691845 74.8308861,299.796129 69.230924,299.796129 L56.6721585,299.796129 C51.0721963,299.796129 46.3182422,295.691845 45.501226,290.151803 L42.8211368,271.978596 C42.5936742,270.436212 43.6596284,269.001468 45.2020124,268.774005 C45.3383767,268.753895 45.4760308,268.743799 45.61387,268.743799 Z"/>
    </g>
    <g transform="translate(438.18 149.425)">
      <path fill="#DDE3E9" d="M5.27752033,18.9778781 C15.1904017,35.6080319 26.7357574,51.710593 33.6691531,69.8932242 C33.3897545,67.7500456 33.0934994,65.6090869 32.7619027,63.4711748 C31.0026485,52.1381155 28.8161817,40.8877529 26.5185773,29.6511823 C25.3485005,23.9300662 24.111004,18.2296835 22.8417685,12.5297882 C22.1591343,9.46837247 21.4848698,6.40509144 20.7881696,3.34659099 C20.6194136,2.60529118 20.4744177,1.31139587 20.2631434,0 C27.0013032,22.1112496 33.4991612,44.2391719 38.2521137,66.8819839 C38.8756377,69.8536113 39.4066153,72.8199589 39.8415586,75.7811454 C39.9903472,75.1056269 40.1366943,74.429994 40.2968774,73.7563269 C42.2200103,65.6804547 45.1047717,57.6688599 48.5395852,50.1177626 C50.1816298,46.5066466 52.0677495,42.9746123 54.2884848,39.6834756 C55.6732939,37.6319648 58.9391043,35.1932985 60.2023934,33.0922525 C53.2935197,45.7639426 50.7988538,61.6188545 46.8096674,75.3952516 C45.8359844,78.7570865 44.8562527,82.1134638 43.8962887,85.4757537 C49.9121506,73.4111989 59.2458915,63.4987011 72.2230996,59.2030625 C56.5146895,69.5821464 47.0926312,87.7585171 40.7434581,106.348385 C40.7225369,106.56885 40.6976629,106.789318 40.6761606,107.010133 C42.5444848,103.464282 44.8979202,100.257071 48.08757,98.0107861 C54.9142987,93.20204 62.4873715,94.6029096 69.109544,98.7278373 C63.9122532,95.4240817 54.5192337,98.4324687 50.1461994,101.79033 C47.0155809,104.194038 44.3401129,107.418793 42.0167552,110.564857 C41.4600511,111.318991 40.7005415,112.198892 39.8981643,113.137743 C38.7731985,120.440134 36.9399444,127.692478 34.3444527,134.88726 C34.7727767,132.822135 34.4630897,129.519319 34.5818699,127.980032 C34.5947988,127.813378 34.6052862,127.646609 34.6180991,127.48042 C34.2235683,129.055695 33.8423976,130.613064 33.4753967,132.145322 C34.2049421,129.221423 34.6014455,126.169118 34.9109683,123.085265 C34.9906871,121.759949 35.0684294,120.434635 35.1505897,119.109434 C35.12455,116.594319 35.0209589,114.069266 34.8457489,111.540196 C34.2244856,109.082215 33.5288927,106.763739 32.9552409,104.835642 C30.8852027,97.8784591 27.8505942,91.2133011 24.1155296,84.9953527 C20.7076913,79.3211506 16.6285103,74.181411 11.9193517,69.533107 C9.38068957,67.0280307 6.7238562,64.6421538 4.10444045,62.2231304 C3.15724477,61.3486266 1.4642275,59.1984352 0,58.0775854 C10.6637871,63.956617 21.6397683,70.3168845 29.419022,79.7893223 C28.5069937,76.2870528 27.5164006,72.8343447 26.4685292,69.4508222 C21.1524185,52.284459 14.4400187,34.4931821 5.27752033,18.9778781 Z"/>
      <path fill="#C5CFD6" d="M15.9315661,113.114119 C15.9315661,132.178101 17.4412475,147.632512 37.7047064,147.632512 C57.9681653,147.632512 59.4778467,132.178101 59.4778467,113.114119"/>
    </g>
    <g transform="matrix(-1 0 0 1 572.135 68.354)">
      <g transform="translate(43.546 38.767)">
        <path fill="#191847" d="M39.5633891,14.3384095 C45.2883724,14.3384095 50.0292275,18.5519634 50.8539757,24.0470927 C52.6838784,30.7887032 55.071368,45.9586183 52.6364439,48.337681 L37.23593,48.337681 L37.2317236,48.2559629 C31.5234261,47.6244671 27.0836623,42.7847788 27.0836623,36.9081281 L27.0836623,25.7560318 C27.0836623,19.4502531 32.195506,14.3384095 38.5012847,14.3384095 L39.5633891,14.3384095 Z"/>
        <path fill="#EEB695" d="M20.2561055,4.8505952 C23.3334525,10.5865547 22.9677836,25.1362917 18.9905868,26.1614677 C17.4044181,26.570324 14.0253302,25.5687292 10.5862802,23.4957692 L12.7452529,38.7668108 L0,38.7668108 L4.38775269,18.3161211 C1.94068258,15.4437805 0.284448004,11.9236788 0.5612034,7.97930039 C1.3586069,-3.38546872 17.1787585,-0.885364315 20.2561055,4.8505952 Z" transform="translate(28.677 16.463)"/>
        <path fill="#191847" d="M38.767564,14.8694617 C44.9171648,14.8694617 46.858233,17.7309421 48.5109182,20.1603803 C47.6220901,23.2101823 44.8917429,24.3917805 41.8431382,25.7982131 L41.3593568,26.0224549 L41.3593568,26.0224549 L40.8716184,26.2522646 C39.9880412,26.6734071 39.0916248,27.1307432 38.2176838,27.6727974 C37.7156853,27.2649197 37.0749645,27.0201554 36.3770759,27.0201554 C34.7639697,27.0201554 33.4562888,28.3278364 33.4562888,29.9409426 C33.4562888,31.5540487 34.7639697,32.8617297 36.3770759,32.8617297 L36.5097544,32.8580612 C37.0970632,39.1660709 36.8618508,46.3699621 35.1117212,48.0799407 L19.7112073,48.0799407 C18.8531365,33.1713712 27.1459382,38.9446367 27.1459382,24.9078313 L27.3899802,24.6680222 C27.817651,24.2459468 28.2278038,23.8346646 28.6343252,23.4720148 L28.6178068,23.0586586 C31.2845778,17.599194 34.6678302,14.8694617 38.767564,14.8694617 Z"/>
      </g>
      <g transform="translate(0 138.074)">
        <g transform="translate(34.518 22.304)">
          <polygon fill="#C5CFD6" points="14.669 0 55.695 0 61.071 65.85 0 65.85"/>
          <polygon fill="#000" fill-opacity=".1" points="14.669 0 27.287 0 34.839 65.85 0 65.85"/>
        </g>
        <path fill="#F1C0A6" d="M136.986848,11.0227807 L137.139924,10.9336754 C141.529952,8.47428333 148.699598,11.814156 148.694619,15.5271249 C148.687985,20.4724837 146.698469,33.4971662 144.426671,46.819194 L143.958588,49.5458345 C141.185261,65.598087 138.170599,81.3119185 137.886761,83.0866808 C137.351217,86.435289 131.614199,87.3197828 131.280114,83.0976548 C130.748528,76.3795363 129.760907,53.1228095 130.749062,42.3581321 C131.156948,37.9147345 131.59622,33.6829892 132.028674,29.9076718 C126.646344,39.6274295 118.322272,53.543864 107.056475,71.65688 L100.940583,68.8626941 C105.743203,53.0394222 109.681279,41.8686133 112.754811,35.3502674 C118.017445,24.1892767 122.952024,14.6313761 125.028829,11.2646832 C128.295711,5.96876617 133.98229,7.81673413 136.986848,11.0227807 Z"/>
        <path fill="#0D5094" d="M110.893908,65.5000384 L113.611673,11.5928354 C115.570427,2.27152282 132.148968,6.59754596 132.142155,11.5928354 C132.126673,22.9336888 125.314259,62.1101463 125.309647,65.4889654 L110.893908,65.5000384 Z" transform="rotate(20 121.518 35.803)"/>
        <g filter="url(#voty_header_subsite_toolbox-d)" transform="translate(98.245 60.009)">
          <path fill="#E4E4E4" d="M1.42222686,13.4897503 C0.828110421,15.0757294 0.531052203,16.2624083 0.531052203,17.0497872 C0.531052203,18.0074263 0.690587828,19.40486 1.00965908,21.2420881 C2.12058766,21.2420881 12.1046899,21.2420881 30.9619657,21.2420881 C31.74032,18.6688785 31.2910087,17.2796855 29.614032,17.0745089 C27.9370553,16.8693324 26.5439622,16.6840744 25.4347529,16.518735 L11.5132079,10.3124408 C11.2453296,10.1930194 10.9313612,10.3133674 10.8119398,10.5812456 C10.8098968,10.5858283 10.8079189,10.5904396 10.8060066,10.5950783 L9.91114042,12.765802 L9.91114042,12.765802 C8.35869859,13.4901344 7.09717843,13.8523006 6.12657993,13.8523006 C5.33799762,13.8523006 4.24896104,13.53382 2.85947017,12.8968587 L2.85948811,12.8968196 C2.32623974,12.6523713 1.69579209,12.8864901 1.45134387,13.4197385 C1.44080802,13.4427218 1.43109616,13.4660739 1.42222686,13.4897503 Z" transform="rotate(30 16.197 10.621)"/>
        </g>
        <g filter="url(#voty_header_subsite_toolbox-e)" transform="translate(128.515 66.913)">
          <path fill="#E4E4E4" d="M1.42222686,13.4897503 C0.828110421,15.0757294 0.531052203,16.2624083 0.531052203,17.0497872 C0.531052203,18.0074263 0.690587828,19.40486 1.00965908,21.2420881 C2.12058766,21.2420881 12.1046899,21.2420881 30.9619657,21.2420881 C31.74032,18.6688785 31.2910087,17.2796855 29.614032,17.0745089 C27.9370553,16.8693324 26.5439622,16.6840744 25.4347529,16.518735 L11.5132079,10.3124408 C11.2453296,10.1930194 10.9313612,10.3133674 10.8119398,10.5812456 C10.8098968,10.5858283 10.8079189,10.5904396 10.8060066,10.5950783 L9.91114042,12.765802 L9.91114042,12.765802 C8.35869859,13.4901344 7.09717843,13.8523006 6.12657993,13.8523006 C5.33799762,13.8523006 4.24896104,13.53382 2.85947017,12.8968587 L2.85948811,12.8968196 C2.32623974,12.6523713 1.69579209,12.8864901 1.45134387,13.4197385 C1.44080802,13.4427218 1.43109616,13.4660739 1.42222686,13.4897503 Z"/>
        </g>
        <path fill="#105BA7" d="M150.16583,19.3478397 C150.16583,33.4562888 143.465664,66.3657496 143.461424,69.4723084 L129.045685,69.4833814 C131.155703,40.1185941 131.903899,25.2780279 131.290275,24.9616828 C130.369837,24.4871652 93.5585666,28.6370063 82.5182676,28.6370063 C66.5981018,28.6370063 60.012248,18.597659 59.4778467,-2.33947877e-13 L91.0151029,-2.33947877e-13 C97.4363714,0.687110886 130.930297,7.44283297 143.369277,9.76520715 C148.694617,10.7594553 150.16583,15.4613251 150.16583,19.3478397 Z"/>
      </g>
      <g transform="translate(11.683 82.313)">
        <path fill="#F1C0A6" d="M27.3535871,44.1363386 L38.2357586,46.2726659 C27.2918785,66.4520176 21.4228723,77.1470857 20.6287397,78.3578703 C18.8419416,81.0821355 20.5090604,86.0749179 21.1248872,88.7041515 C17.2615356,89.5939404 18.7851228,83.8406559 13.896126,85.0418894 C12.9871084,85.2652363 12.1062591,85.5598471 11.2446498,85.8553432 L10.7765354,86.0161877 C7.59005933,87.1101107 4.64832264,88.0385633 1.4890058,85.1572506 C0.977428977,84.69069 0.602930553,83.2323536 2.34715509,82.4843799 C6.6926545,80.6209046 13.1127639,77.1315846 14.1537852,75.7768898 C15.5734036,73.9295215 19.9733376,63.3826711 27.3535871,44.1363386 Z M134.987186,27.9820017 C133.276172,30.4546716 131.588836,33.1316856 132.272512,33.9982723 C132.956189,34.8648589 134.93665,33.9083832 135.71907,35.3176231 C136.240684,36.2571163 132.902338,37.3809465 125.704035,38.6891136 L111.292578,49.6214803 L105.148336,41.8334136 L124.390783,33.4722499 C127.761611,30.1488089 131.016626,27.62284 134.155827,25.8943433 C135.094508,25.598661 136.698201,25.5093318 134.987186,27.9820017 Z"/>
        <g transform="translate(63.195 2.627)">
          <mask id="voty_header_subsite_toolbox-g" fill="#fff">
            <use xlink:href="#voty_header_subsite_toolbox-f"/>
          </mask>
          <g mask="url(#voty_header_subsite_toolbox-g)">
            <g transform="translate(-32.394 -68.832)">
              <polygon fill="#302A36" points="53.105 157.63 106.21 157.63 106.21 105.087 53.105 105.087"/>
              <polyline fill="#BD64C4" points="106.21 105.086 53.105 105.086 79.658 131.358"/>
              <polyline fill="#302A36" points="0 52.543 53.105 52.543 53.105 105.087 0 105.087"/>
              <polyline fill="#BD64C4" points="0 94.578 53.105 94.578 53.105 105.086 0 105.086"/>
              <polyline fill="#A2D10C" points="0 73.56 53.105 73.56 53.105 84.069 0 84.069"/>
              <polyline fill="#302A36" points="106.21 105.086 53.105 105.086 53.105 52.543 106.21 52.543"/>
              <polygon fill="#302A36" points="69.037 105.086 90.279 105.086 79.658 115.595"/>
              <polygon fill="#A2D10C" points="106.21 0 53.105 52.543 53.105 105.087 106.21 52.543"/>
            </g>
          </g>
        </g>
        <path fill="#DDE3E9" d="M47.7946983,60.9501819 C66.2072106,60.9501819 79.7510687,60.9501819 88.4262727,60.9501819 C90.2829284,60.9501819 89.9330771,58.2976075 89.6646862,56.9591039 C86.5671317,41.5111545 74.4754535,24.8590127 74.4754535,2.86924573 L62.7553948,1.05086521 C53.0614005,16.4767293 49.7090492,35.4690914 47.7946983,60.9501819 Z"/>
        <g transform="translate(14.338 1.05)">
          <mask id="voty_header_subsite_toolbox-i" fill="#fff">
            <use xlink:href="#voty_header_subsite_toolbox-h"/>
          </mask>
          <g mask="url(#voty_header_subsite_toolbox-i)">
            <g transform="translate(-16.463 -79.866)">
              <polygon fill="#302A36" points="0 157.104 53.105 157.104 53.105 104.561 0 104.561"/>
              <polygon points="0 157.63 53.105 157.63 26.553 131.358"/>
              <polyline fill="#BD64C4" points="26.553 131.358 53.105 105.086 0 105.086"/>
              <polygon fill="#302A36" points="52.574 157.63 105.679 157.63 105.679 105.087 52.574 105.087"/>
              <polygon points="53.105 157.63 106.21 157.63 79.658 131.358"/>
              <polyline fill="#BD64C4" points="106.21 105.086 53.105 105.086 79.658 131.358"/>
              <polyline fill="#302A36" points="0 52.543 53.105 52.543 53.105 105.087 0 105.087"/>
              <polyline fill="#BD64C4" points="0 94.578 53.105 94.578 53.105 105.086 0 105.086"/>
              <polyline fill="#302A36" points="106.21 105.086 53.105 105.086 53.105 52.543 106.21 52.543"/>
              <polyline fill="#BD64C4" points="106.21 94.578 53.105 94.578 53.105 99.832 106.21 99.832"/>
              <polygon fill="#A2D10C" points="53.105 157.63 106.21 157.63 106.21 105.087"/>
              <polygon fill="#A2D10C" points="106.21 0 53.105 52.543 53.105 105.087 106.21 52.543"/>
              <polygon fill="#A2D10C" points="0 157.63 53.105 157.63 26.553 131.358"/>
            </g>
          </g>
        </g>
      </g>
    </g>
    <g transform="translate(156 58.62)">
      <g transform="translate(43.546)">
        <path fill="#191847" d="M32.3941844,41.2663985 C38.463547,41.2663985 40.6708971,34.0001307 44.1190835,30.0126002 C46.5861901,27.1596038 50.7967786,28.0103188 52.0431159,24.016186 C55.177143,13.9725802 46.7889431,6.90367864 35.8460237,6.90367864 C24.9031043,6.90367864 17.5247227,13.1033161 15.9315661,22.4230294 C14.3384095,31.7427426 21.451265,41.2663985 32.3941844,41.2663985 Z"/>
        <path fill="#F1C0A6" d="M20.2561055,4.8505952 C23.3334525,10.5865547 22.9677836,25.1362917 18.9905868,26.1614677 C17.4044181,26.570324 14.0253302,25.5687292 10.5862802,23.4957692 L12.7452529,38.7668108 L0,38.7668108 L4.38775269,18.3161211 C1.94068258,15.4437805 0.284448004,11.9236788 0.5612034,7.97930039 C1.3586069,-3.38546872 17.1787585,-0.885364315 20.2561055,4.8505952 Z" transform="translate(28.677 16.463)"/>
        <path fill="#191847" d="M49.6975436,21.345392 C47.260027,21.8029705 42.3508116,24.1301482 38.4368143,27.4683384 C37.9746346,27.2228859 37.4439035,27.0836623 36.8798062,27.0836623 C35.0741175,27.0836623 33.6103176,28.5102234 33.6103176,30.2699756 C33.6103176,30.9884045 33.8542931,31.6512995 34.2659036,32.1842622 C33.4909129,33.4607286 32.9621897,34.8023306 32.788883,36.1815279 C30.1037748,36.1815279 20.304027,26.0215579 30.0664711,16.4626183 C39.8289152,6.90367864 53.9368554,20.5495747 49.6975436,21.345392 Z"/>
      </g>
      <g transform="translate(0 99.307)">
        <polygon fill="#F1C0A6" points="67.975 0 87.428 67.033 96.577 117.363 105.761 117.363 96.594 0"/>
        <polygon fill="#000" fill-opacity=".1" points="67.975 0 87.428 67.033 96.577 117.363 105.761 117.363 96.594 0"/>
        <path fill="#F1C0A6" d="M59.2323558,0 C60.5897134,34.8233363 60.0543913,53.8169302 59.7505984,56.9807817 C59.4468056,60.1446332 57.7221511,81.3339893 45.9698369,118.424641 L55.5214934,118.424641 C71.0855008,82.8424983 76.5187467,61.6531422 78.3038206,56.9807817 C80.0888944,52.3084213 85.3610141,33.3148274 93.0580752,0 L59.2323558,0 Z"/>
        <path fill="#64717D" d="M67.557083,6.03736456e-14 C72.6170823,23.0662658 81.3687125,59.8858852 93.8119736,110.458858 L107.2439,110.458858 C108.236001,58.5505382 104.01565,24.3861799 96.7070557,6.03736456e-14 L67.557083,6.03736456e-14 Z"/>
        <path fill="#73899D" d="M59.1644827,0 C60.4938369,34.8233363 57.0487313,69.1309183 46.3770585,111.00104 L60.7081849,111.00104 C76.3008059,75.9499493 87.4765396,41.8116626 95.114411,0 L59.1644827,0 Z"/>
        <path fill="#191847" d="M0,19.6489315 L0.527028245,11.1520963 C3.61270454,12.0545797 7.47757833,11.7005449 12.1216496,10.0899919 C17.1151505,13.6271272 23.4013162,16.0423814 30.9801465,17.3357545 C31.558362,17.4344433 31.947107,17.9831743 31.8484307,18.5613919 C31.8420406,18.5988362 31.8336463,18.6359108 31.823284,18.6724558 L31.0946665,21.2420881 L31.0946665,21.2420881 L12.1216496,21.2420881 L1.05405649,21.2420881 L0,19.6489315 Z" transform="translate(44.608 105.68)"/>
        <path fill="#191847" d="M0,19.6489315 L0.527028245,11.1520963 C3.61270454,12.0545797 7.47757833,11.7005449 12.1216496,10.0899919 C17.1151505,13.6271272 23.4013162,16.0423814 30.9801465,17.3357545 C31.558362,17.4344433 31.947107,17.9831743 31.8484307,18.5613919 C31.8420406,18.5988362 31.8336463,18.6359108 31.823284,18.6724558 L31.0946665,21.2420881 L31.0946665,21.2420881 L12.1216496,21.2420881 L1.05405649,21.2420881 L0,19.6489315 Z" transform="translate(94.527 105.68)"/>
      </g>
      <g transform="translate(13.276 43.546)">
        <path fill="#F1C0A6" d="M28.5000532,41.1756206 L37.9059321,42.5416013 C27.8095548,64.4472523 22.3967673,76.0322292 21.6675695,77.2965321 C20.0268744,80.1412137 21.956442,85.0959739 22.7107579,87.7189055 C18.8986537,88.8197242 20.1161108,82.9299214 15.2959477,84.398951 C10.8963264,85.7398131 7.26569839,88.77948 2.90827843,85.1649805 C2.37255925,84.720599 1.92128151,83.2674816 3.62404357,82.4208165 C7.86624483,80.311465 14.0947771,76.451621 15.0629817,75.0290632 C16.3833016,73.0891515 20.8623255,61.8046706 28.5000532,41.1756206 L28.5000532,41.1756206 Z M101.090499,47.0565472 L117.12117,60.6470497 C121.61788,62.2042474 125.339392,64.0106806 128.285706,66.0663493 C128.965796,66.7790253 129.749956,68.1808366 126.753706,67.738527 C123.757457,67.2962174 120.58596,66.9657265 120.09845,67.9641604 C119.610941,68.9625943 121.347988,70.3188458 120.410815,71.6464574 C119.786033,72.5315318 117.301704,70.0289708 112.957827,64.1387744 L96.7092242,56.0295333 L101.090499,47.0565472 Z"/>
        <g transform="translate(62.664)">
          <mask id="voty_header_subsite_toolbox-k" fill="#fff">
            <use xlink:href="#voty_header_subsite_toolbox-j"/>
          </mask>
          <g mask="url(#voty_header_subsite_toolbox-k)">
            <g transform="translate(-26.022 -47.795)">
              <mask id="voty_header_subsite_toolbox-m" fill="#fff">
                <use xlink:href="#voty_header_subsite_toolbox-l"/>
              </mask>
              <path fill="#0671B5" d="M72.5480591,104.403094 L72.5480591,104.403094 C64.5346548,104.403094 58.038705,97.9083775 58.038705,89.8964942 L58.038705,0.0300323452 L-4.44349802e-05,0.0300323452 L-4.44349802e-05,114.176046 L0.067496735,114.176046 L0.067496735,71.6456247 C0.067496735,55.6445156 13.0238483,42.6692985 29.0191081,42.6328688 L29.0191081,42.6319802 L29.0191081,24.5063937 C29.0191081,16.4945103 35.5155022,9.99979357 43.5289066,9.99979357 C51.5423109,9.99979357 58.038705,16.4945103 58.038705,24.5063937 L58.038705,66.8990925 C58.038705,67.5663793 57.9924926,68.2225594 57.9054001,68.8658557 C57.9924926,69.7805983 58.038705,70.7077803 58.038705,71.6456247 L58.038705,114.176046 L87.0578575,114.176046 L87.0578575,89.8964942 C87.0578575,97.9083775 80.5614634,104.403094 72.5480591,104.403094" mask="url(#voty_header_subsite_toolbox-m)"/>
              <path fill="#154EA2" d="M28.7112559,42.7673771 C28.7224367,42.7673771 28.7336175,42.7669322 28.7452455,42.7669322 L28.7452455,42.767822 C43.9010662,42.8020773 56.3439736,54.3189949 57.7505203,69.0367864 C57.8381779,68.3926077 57.8846901,67.7355277 57.8846901,67.0673258 L57.8846901,24.6164872 C57.8846901,16.5936159 51.3461485,10.0899919 43.2807545,10.0899919 C35.2153606,10.0899919 28.676819,16.5936159 28.676819,24.6164872 L28.676819,42.7669322 L28.6772662,42.7669322 C28.688447,42.7669322 28.6996278,42.7673771 28.7112559,42.7673771"/>
              <path fill="#0061AA" d="M57.8846901 0L57.8846901 90.0762946C57.8846901 98.1069249 64.4233318 104.617284 72.4884021 104.617284 80.5543668 104.617284 87.0925613 98.1069249 87.0925613 90.0762946L87.0925613 0 57.8846901 0zM29.2078712 42.4841762C13.070584 42.5206818 0 55.5228983 0 71.5573032L0 114.176224 29.2078712 114.176224 29.2078712 66.8008942 29.2078712 42.4841762z"/>
              <path fill="#00A5D3" d="M58.2812574,69.0674433 C57.3125181,76.1171138 51.1885257,81.5519812 43.7775131,81.5519812 C36.1706009,81.5519812 29.9197444,75.8269712 29.2078712,68.5057342 L29.2078712,114.176224 L58.4157423,114.176224 L58.4157423,71.8348558 C58.4157423,70.9011803 58.3691209,69.978562 58.2812574,69.0674433"/>
              <path fill="#00A5D3" stroke="#00A5D3" stroke-width="1.062" d="M29.2078712,42.4841762 L29.2078712,68.1489652 C29.9100343,75.5017509 36.0756277,81.250987 43.57878,81.250987 C50.8887048,81.250987 56.9291646,75.7931439 57.8846901,68.7130949 C56.4936289,54.01774 44.1920673,42.5183794 29.2078712,42.4841762"/>
            </g>
          </g>
        </g>
        <path fill="#323337" d="M47.7946983,58.4157423 C64.4900906,60.1859163 77.6311957,60.1859163 87.2180137,58.4157423 C88.4057561,58.1964296 88.593138,56.2078335 88.0423239,54.8582055 C79.4647147,33.8409844 73.5827535,15.5022776 73.5827535,0.904189309 C72.0088702,1.69766141 69.254426,1.81657313 65.3194209,1.26092445 C54.7441545,16.3047238 49.8830811,33.5657624 47.7946983,58.4157423 Z"/>
        <g transform="translate(15.29 -.531)">
          <mask id="voty_header_subsite_toolbox-o" fill="#fff">
            <use xlink:href="#voty_header_subsite_toolbox-n"/>
          </mask>
          <g mask="url(#voty_header_subsite_toolbox-o)">
            <g transform="translate(.641 -18.587)">
              <g transform="translate(0 .495)">
                <mask id="voty_header_subsite_toolbox-q" fill="#fff">
                  <use xlink:href="#voty_header_subsite_toolbox-p"/>
                </mask>
                <path fill="#0671B5" d="M86.7037779,124.798117 L86.7037779,124.798117 C77.1267825,124.798117 69.3633304,117.034665 69.3633304,107.45767 L69.3633304,0.0358991289 L-5.31052203e-05,0.0358991289 L-5.31052203e-05,136.480204 L0.0806668296,136.480204 L0.0806668296,85.6415142 C0.0806668296,66.514607 15.565087,51.0046964 34.6813731,50.9611501 L34.6813731,50.960088 L34.6813731,29.2936892 C34.6813731,19.7166938 42.4453563,11.9532416 52.0223517,11.9532416 C61.5993472,11.9532416 69.3633304,19.7166938 69.3633304,29.2936892 L69.3633304,79.9677525 C69.3633304,80.7653929 69.3081009,81.549757 69.2040147,82.3187206 C69.3081009,83.4121571 69.3633304,84.520463 69.3633304,85.6415142 L69.3633304,136.480204 L104.044757,136.480204 L104.044757,107.45767 C104.044757,117.034665 96.2807734,124.798117 86.7037779,124.798117" mask="url(#voty_header_subsite_toolbox-q)"/>
              </g>
              <path fill="#154EA2" d="M34.7221579,51.4555597 C34.7354342,51.4555597 34.7487105,51.4550287 34.7625179,51.4550287 L34.7625179,51.4560908 C52.7588149,51.4969818 67.5337493,65.2448612 69.2039085,82.8136612 C69.3079947,82.0446976 69.3632242,81.2603335 69.3632242,80.4626931 L69.3632242,29.7886298 C69.3632242,20.2116344 61.5992409,12.4481823 52.0222455,12.4481823 C42.4452501,12.4481823 34.6812669,20.2116344 34.6812669,29.7886298 L34.6812669,51.4550287 L34.6817979,51.4550287 C34.6950742,51.4550287 34.7083506,51.4555597 34.7221579,51.4555597"/>
              <path fill="#0061AA" stroke="#0061AA" stroke-width=".531" d="M34.6814262,51.4560908 C15.564609,51.499637 0.0807199348,67.0095477 0.0807199348,86.1364549 L0.0807199348,136.975144 L34.6814262,136.975144 L34.6814262,80.4626931 L34.6814262,51.4560908 Z"/>
              <path fill="#00A5D3" stroke="#00A5D3" stroke-width=".531" d="M69.2039616,82.813555 C68.0563578,91.2779961 60.8016536,97.8035656 52.0222986,97.8035656 C43.0108738,97.8035656 35.6058819,90.9296258 34.762571,82.1391187 L34.762571,136.975038 L69.3632773,136.975038 L69.3632773,86.1363487 C69.3632773,85.0152975 69.3080478,83.9075226 69.2039616,82.813555"/>
              <path fill="#0671B5" stroke="#0671B5" stroke-width=".531" d="M34.762571,51.4560908 L34.762571,82.1392249 C35.6058819,90.9297321 43.0108738,97.8031407 52.0222986,97.8031407 C60.8016536,97.8031407 68.0563578,91.2781023 69.2039616,82.8136612 C67.5332714,65.2448612 52.758868,51.4969818 34.762571,51.4560908"/>
            </g>
          </g>
        </g>
      </g>
    </g>
    <g transform="matrix(-1 0 0 1 674 103)">
      <g transform="translate(45.533)">
        <path fill="#D4A181" d="M21.1803412,5.07191579 C24.3980998,11.0695929 24.0157465,26.2831982 19.8570801,27.3551503 C18.1985423,27.7826608 14.6652876,26.7353716 11.069331,24.5678378 L13.326787,40.5356439 L0,40.5356439 L4.58809241,19.1520015 C2.02929313,16.1485736 0.297421476,12.4678005 0.586809715,8.34337601 C1.42059675,-3.53993923 17.9625825,-0.925761286 21.1803412,5.07191579 Z" transform="translate(29.985 17.214)"/>
        <path fill="#EDBA09" d="M45.9016165,15.7533597 C44.080599,15.1980769 41.4371214,15.0097627 40.3250889,15.1371557 C40.9576637,13.6215556 41.2086786,11.9329946 41.0040409,10.2888825 C40.8051418,8.69132297 40.0912901,7.33104735 39.4310846,5.90564287 C39.1267635,5.24862468 38.7818889,4.59518747 38.2677014,4.09264331 C37.7439069,3.58065435 37.0808533,3.24270045 36.385578,3.08146735 C35.6740643,2.91642947 34.9300738,2.93017143 34.2174548,3.07994544 C33.902209,3.14619335 33.6193548,3.29032733 33.3101877,3.3704515 C32.9935815,3.4525452 32.8399969,3.25438336 32.6101939,3.05523676 C32.0563881,2.57538699 31.244511,2.33850592 30.5438795,2.2537265 C29.7578052,2.15865178 28.9421447,2.2772266 28.192458,2.53563824 C27.4627505,2.78720127 26.7617365,3.19570024 26.2341587,3.79081243 C25.9992546,4.05571457 25.78603,4.35723212 25.6474511,4.6901279 C25.5906167,4.82674184 25.5812222,4.90767173 25.4448962,4.95771576 C25.3188149,5.00404454 25.1713516,5.0053874 25.0412319,5.04947808 C23.7830539,5.47561332 22.707324,6.44775673 22.1215941,7.69594804 C21.7798652,8.42413797 21.6179913,9.70622307 21.6623281,11.1432298 C21.7066649,12.5802366 23.0042061,16.3297972 24.2177922,17.6974586 C25.3010462,18.9182107 26.8933015,19.7237943 28.4299552,20.0764302 C27.409997,21.2422592 26.7310451,22.6990867 26.2289726,24.1807124 C25.6836261,25.7901339 25.3461056,27.4624014 25.2214695,29.166271 C25.1030823,30.7851373 25.092115,32.4971087 25.4716343,34.0814187 C25.8266685,35.5629996 26.5859197,36.7784251 27.8534072,37.5494971 C28.4339935,37.9027149 29.0586616,38.1680646 29.6869429,38.4105857 C30.3061273,38.6495706 30.9271821,38.8819307 31.5757827,39.016038 C32.8033118,39.2697496 34.2177099,39.226196 35.1632775,38.2491288 C35.5040713,37.8968958 35.8788721,37.4542881 36.1275066,37.02399 C36.2169028,36.8692474 36.270804,36.7680403 36.1621938,36.6167891 C36.0320741,36.4356369 35.8216126,36.2968296 35.6544677,36.1551128 C34.701291,35.347112 34.1112677,34.2684348 33.9625291,32.9865376 C33.8116225,31.6858851 34.161003,30.0070823 35.4255574,29.4394541 C36.9865261,28.7387481 38.7055854,29.5430336 40.0929904,30.2927541 C40.6826312,28.2116743 41.8933267,26.3378878 43.791476,25.3832911 C45.8914574,24.3272188 48.3011586,24.2036306 50.4592072,23.2975113 C51.0215572,23.0613912 51.5943219,22.7933557 52.0083585,22.3122526 C52.1813696,22.1111812 52.3843495,21.8503524 52.4534265,21.5844208 C52.5441829,21.2350973 52.3188859,20.9422188 52.1448545,20.6698862 C51.2220716,19.2259054 47.722634,16.3086425 45.9016165,15.7533597 Z"/>
      </g>
      <g transform="translate(0 103.838)">
        <ellipse cx="64.413" cy="40.813" fill="#C5CFD6" rx="42.757" ry="40.813" transform="translate(5.553 14.993)"/>
        <path fill="#D4A181" d="M143.868346,20.8241202 C146.687993,28.1254887 151.610457,52.1147386 157.525173,88.3496077 L150.764417,90.3222153 C143.649698,74.5753373 138.504405,60.8635925 136.439103,53.6292435 C132.902805,41.2422817 130.212603,30.3424786 129.532665,26.2719708 C127.911265,16.5653227 142.005398,16.0000852 143.868346,20.8241202 Z M122.539014,41.1795252 C101.956341,44.1418167 72.7769268,47.200864 70.2798066,47.5441591 C66.7799859,48.0253018 64.1352988,42.5256979 68.2377843,40.9040971 C71.909642,39.4527117 80.7490704,36.2627841 89.743019,33.3428561 L90.9426877,32.9553087 C97.5410607,30.8345376 104.102713,28.906973 108.650646,27.9647242 C111.818873,27.3083255 114.889611,26.6984569 117.776644,26.1473054 C126.357927,24.5090878 130.803836,39.9900388 122.539014,41.1795252 Z"/>
        <path fill="#7BA459" d="M91.933833,0 C126.093548,8.7044588 143.549135,14.2828006 144.300593,16.7350253 L144.323399,16.8150237 C144.340394,16.8373419 144.357104,16.8597935 144.373526,16.8823784 C151.14326,26.1927037 155.197626,71.6464539 156.528342,75.0498766 L143.556,76.9851712 C138.593735,58.5841645 122.717497,45.7653532 123.139228,23.7266844 C123.025348,23.0801878 122.996576,22.4670967 123.043519,21.8871241 L87.7346814,3.91292093 L87.7346814,0 L91.933833,0 Z"/>
        <path fill="#84B35E" d="M93.8104539,-5.68434189e-14 C96.6314646,0.810369326 106.201054,4.66323251 116.380674,8.889292 L117.454201,9.33540344 L117.454201,9.33540344 L118.530643,9.78357978 L118.530643,9.78357978 L120.147292,10.4582026 C120.506481,10.608289 120.865492,10.7584314 121.224061,10.9085143 L122.298177,11.3584695 C128.01689,13.7560496 133.554504,16.1088967 137.824866,17.9447059 C146.656941,21.7415746 143.873115,35.42875 138.871633,38.9913656 C138.844282,39.2098079 138.754241,39.3585541 138.593735,39.4250783 C111.687841,50.5766298 90.4028103,44.7254392 83.292419,46.5949827 L80.0035456,36.2202173 L90.6679753,32.561975 C87.4374383,31.9152933 84.4624595,31.3381401 81.9168196,30.8916363 C65.4729998,28.0073998 60.677842,19.2051497 63.5129953,-5.68434189e-14 L93.8104539,-5.68434189e-14 Z"/>
        <path fill="#E4E4E4" d="M1.48711953,14.1052541 C0.865895039,15.7635974 0.555282794,17.0044216 0.555282794,17.8277266 C0.555282794,18.8290604 0.722097632,20.2902554 1.05572731,22.2113117 C2.2173448,22.2113117 12.6569967,22.2113117 32.3746831,22.2113117 C33.1885518,19.520693 32.7187396,18.0681145 30.9652466,17.8535763 C29.2117536,17.6390381 27.7550972,17.4453272 26.5952774,17.2724438 L12.0385269,10.7829719 C11.7584261,10.6581015 11.4301321,10.7839407 11.3052617,11.0640415 C11.3031255,11.0688333 11.3010574,11.073655 11.2990578,11.0785054 L10.3633611,13.3482737 L10.3633611,13.3482737 C8.74008521,14.1056557 7.42100502,14.4843466 6.40612053,14.4843466 C5.58155717,14.4843466 4.44283056,14.1513345 2.98994068,13.4853103 L2.98995944,13.4852693 C2.43238027,13.2296676 1.77316686,13.4744686 1.51756508,14.0320478 C1.50654851,14.0560797 1.49639352,14.0804974 1.48711953,14.1052541 Z" transform="rotate(64 15.854 81.878)"/>
        <path fill="#E4E4E4" d="M1.48711953,14.1052541 C0.865895039,15.7635974 0.555282794,17.0044216 0.555282794,17.8277266 C0.555282794,18.8290604 0.722097632,20.2902554 1.05572731,22.2113117 C2.2173448,22.2113117 12.6569967,22.2113117 32.3746831,22.2113117 C33.1885518,19.520693 32.7187396,18.0681145 30.9652466,17.8535763 C29.2117536,17.6390381 27.7550972,17.4453272 26.5952774,17.2724438 L12.0385269,10.7829719 C11.7584261,10.6581015 11.4301321,10.7839407 11.3052617,11.0640415 C11.3031255,11.0688333 11.3010574,11.073655 11.2990578,11.0785054 L10.3633611,13.3482737 L10.3633611,13.3482737 C8.74008521,14.1056557 7.42100502,14.4843466 6.40612053,14.4843466 C5.58155717,14.4843466 4.44283056,14.1513345 2.98994068,13.4853103 L2.98995944,13.4852693 C2.43238027,13.2296676 1.77316686,13.4744686 1.51756508,14.0320478 C1.50654851,14.0560797 1.49639352,14.0804974 1.48711953,14.1052541 Z" transform="translate(146.04 73.297)"/>
      </g>
      <g transform="translate(12.216 45.533)">
        <path fill="#D4A181" d="M37.9302171,51.6523452 L49.5341792,51.6979781 C43.658952,70.6642215 40.0005765,82.3301086 38.5590524,86.6956395 L38.4097381,87.1454688 C38.175717,87.8463271 38.0158766,88.3028992 37.9302171,88.5151851 C36.6453241,91.6994743 39.3643305,96.5490915 40.5270856,99.1552396 C38.7792143,99.9373599 37.9240086,99.0216504 37.0401159,98.0272456 L36.8180118,97.7779419 C35.8483503,96.6986421 34.7549121,95.6853373 32.3662785,96.7966146 C31.5734661,97.1654591 30.8151486,97.588754 30.0747108,98.015822 L29.6324607,98.2721102 C26.4764732,100.106276 23.589637,101.822802 19.6509223,99.3924946 C19.0315433,99.0103187 18.3528047,97.5713575 19.9927229,96.4468854 C21.2966487,95.5527991 22.7841203,94.4446515 24.2310281,93.2976825 L24.8070966,92.8372399 C27.6713098,90.5288279 30.2537424,88.1585918 30.7615171,87.1284519 C31.8463423,84.9276301 34.2359089,73.1022612 37.9302171,51.6523452 L37.9302171,51.6523452 Z M107.749522,49.4881971 L123.47952,64.83345 C128.056369,66.7857192 131.806445,68.9414187 134.729748,71.3005484 C135.387155,72.0935322 136.10285,73.6129301 133.009783,72.9330213 C129.916715,72.2531125 126.632694,71.6770572 126.051358,72.6829455 C125.470021,73.6888338 127.182976,75.2302121 126.108595,76.5466611 C125.39234,77.4242937 122.98352,74.6327161 118.882134,68.1719283 L102.525017,58.5281762 L107.749522,49.4881971 Z"/>
        <path fill="#0968AB" d="M67.7550458,5.12637065 L72.4665934,3.88743996 C82.5017935,23.7394529 98.5152328,41.1742765 120.506911,56.1919109 L106.648609,76.3875055 C84.035843,54.2432191 69.2274227,30.6508278 67.7550458,5.12637065 Z" transform="rotate(5 94.131 40.137)"/>
        <path fill="#DDE3E9" d="M49.9754514,63.3022385 L92.7322265,63.3022385 C82.8264643,39.2169288 77.8735832,18.756744 77.8735832,1.92168399 L64.9759763,0 C54.8396692,16.3022182 51.9771494,36.3735495 49.9754514,63.3022385 Z"/>
        <path fill="url(#voty_header_subsite_toolbox-r)" d="M65.5498856,0 C66.5572951,0.0346902573 68.0917092,0.0971916437 70.1531278,0.187504159 L70.1531278,0.187504159 L73.2696524,9.09379971 C73.5993117,19.9526562 75.5244713,41.8361819 79.0451314,74.7443769 L79.0451314,74.7443769 L51.0172194,74.7447527 C51.0906956,77.017463 51.21184,79.3114023 51.3806527,81.6265707 L51.3806527,81.6265707 L30.5405536,81.6265707 C33.6578649,46.4571593 45.0418956,19.2483024 64.6926459,2.84217094e-14 L64.6926459,2.84217094e-14 L64.7025536,0.009 L64.7079828,0 Z"/>
        <path fill="#000" fill-opacity=".1" d="M58.8599761,74.9631771 L51.0244096,74.9627033 C50.6814501,64.7708038 51.2959777,55.0053196 52.8679924,45.6662507 C53.6667102,59.8326854 55.6637475,69.5979873 58.8599761,74.9631771 Z"/>
        <polygon fill="#FFF" fill-opacity=".2" points="57.256 57.749 71.076 51.324 71.076 57.749"/>
      </g>
    </g>
    <g transform="translate(1 39)">
      <g transform="translate(52.753 46.953)">
        <path fill="#D4A181" d="M24.538883,5.87487704 C28.2668779,12.8220774 27.8238952,30.4442274 23.0057939,31.6858859 C21.0844028,32.1810418 16.9913377,30.9681623 12.8254866,28.4578447 L15.44,46.9530516 L0,46.9530516 L5.31560773,22.1840387 C2.35106985,18.7051253 0.344583743,14.4416355 0.679859442,9.66425907 C1.64585911,-4.10036535 20.810888,-1.07232335 24.538883,5.87487704 Z" transform="translate(34.74 19.939)"/>
        <path fill="#191847" d="M38.8690023,45.2212688 C36.9311304,36.6018068 31.4104494,30.7262084 32.2535898,26.8736775 C32.8156834,24.3053236 34.3138314,22.7081545 36.7480337,22.0821701 C38.0069801,16.9902517 42.0673406,14.8244604 48.9291151,15.584796 C59.2217768,16.7252996 65.5038446,20.9987932 62.79093,30.402344 C60.2971235,30.402344 57.2865661,29.5006581 53.1235909,31.0455365 C51.8026957,31.5357202 50.8579527,33.0558228 50.289362,35.6058443 L48.4081299,35.6058443 C46.582315,32.5796659 44.7820498,31.4676279 43.0073343,32.2697304 C41.2326188,33.0718328 40.8291971,35.0201428 41.7970692,38.1146605 L40.8703722,45.2212688 L38.8690023,45.2212688 Z"/>
      </g>
      <g transform="translate(0 167.23)">
        <g transform="translate(28.95 27.014)">
          <polygon fill="#C5CFD6" points="30.637 0 80.338 0 86.85 79.756 12.867 79.756"/>
          <polygon fill="#000" fill-opacity=".1" points="17.771 0 33.056 0 42.205 79.756 0 79.756"/>
        </g>
        <path fill="#D4A181" d="M165.950206,13.3504544 L166.135616,13.2424983 C171.453834,10.2637657 180.139368,14.3089066 180.133336,18.8059291 C180.11507,32.4187735 167.689132,96.5760599 167.040357,100.631781 C166.391583,104.687502 159.441578,105.758771 159.036857,100.645072 C158.696778,96.3481326 158.20263,86.464968 157.988277,76.1738425 L157.962466,74.8582646 L157.962466,74.8582646 L157.939896,73.5406484 C157.807635,65.1943454 157.88241,56.8694456 158.393524,51.3027387 C158.887717,45.9203224 159.419941,40.7943212 159.943898,36.2213184 C153.424258,47.9939063 143.339927,64.8495447 129.691579,86.7883924 L122.282595,83.4041688 C128.10064,64.2395564 132.871349,50.7098501 136.594723,42.8150497 C142.970043,29.2972348 148.947947,17.7210285 151.463854,13.6434037 C155.421469,7.22914879 162.310399,9.46737769 165.950206,13.3504544 Z"/>
        <path fill="#0064A9" d="M134.33812,79.33317 L137.634922,14.0406826 C140.008551,2.75056758 160.091434,7.98882172 160.082752,14.0391031 C160.063033,27.7751148 151.807132,75.2261128 151.801258,79.3185296 L134.33812,79.33317 Z" transform="rotate(20 147.21 43.364)"/>
        <path fill="#E4E4E4" d="M1.72291336,16.3383752 C1.00319334,18.2592367 0.643333333,19.6964871 0.643333333,20.6501263 C0.643333333,21.8099864 0.836599805,23.5025109 1.22313275,25.7276995 C2.56894655,25.7276995 14.6640018,25.7276995 37.5082986,25.7276995 C38.4512214,22.611115 37.9069117,20.9285713 35.8753694,20.6800684 C33.843827,20.4315655 32.1561903,20.2071873 30.8124592,20.0069338 L13.947388,12.490047 C13.6228601,12.3454025 13.2425208,12.4912269 13.0978763,12.8157547 C13.0954157,12.8212754 13.093033,12.8268305 13.0907289,12.8324184 L12.0066671,15.4615081 L12.0066671,15.4615081 C10.1259902,16.338795 8.59774506,16.7774385 7.42193153,16.7774385 C6.46658225,16.7774385 5.14722586,16.3916766 3.46386238,15.6201526 L3.46386041,15.6201569 C2.81787296,15.3240861 2.05418385,15.6077496 1.75811304,16.2537371 C1.74537824,16.2815227 1.73363757,16.3097533 1.72291336,16.3383752 Z" transform="rotate(30 -56.494 271.292)"/>
        <path fill="#E4E4E4" d="M1.72291336,16.3383752 C1.00319334,18.2592367 0.643333333,19.6964871 0.643333333,20.6501263 C0.643333333,21.8099864 0.836599805,23.5025109 1.22313275,25.7276995 C2.56894655,25.7276995 14.6640018,25.7276995 37.5082986,25.7276995 C38.4512214,22.611115 37.9069117,20.9285713 35.8753694,20.6800684 C33.843827,20.4315655 32.1561903,20.2071873 30.8124592,20.0069338 L13.947388,12.490047 C13.6228601,12.3454025 13.2425208,12.4912269 13.0978763,12.8157547 C13.0954157,12.8212754 13.093033,12.8268305 13.0907289,12.8324184 L12.0066671,15.4615081 L12.0066671,15.4615081 C10.1259902,16.338795 8.59774506,16.7774385 7.42193153,16.7774385 C6.46658225,16.7774385 5.14722586,16.3916766 3.46386238,15.6201526 L3.46386041,15.6201569 C2.81787296,15.3240861 2.05418385,15.6077496 1.75811304,16.2537371 C1.74537824,16.2815227 1.73363757,16.3097533 1.72291336,16.3383752 Z" transform="translate(155.687 81.042)"/>
        <path fill="#206DBB" d="M181.915607,23.4334498 C181.915607,40.5211268 173.798816,80.379954 173.79368,84.1425131 L156.33,84.1559243 C158.886142,48.5902859 159.79253,30.6158935 159.049166,30.232747 C157.934119,29.6580273 113.339789,34.6841746 99.9652235,34.6841746 C80.6790342,34.6841746 72.7007239,22.5248564 72.0533333,-2.83349765e-13 L110.258557,-2.83349765e-13 C118.037483,0.832205493 158.613078,9.01450787 173.682049,11.827289 C180.133333,13.0314888 181.915607,18.7262347 181.915607,23.4334498 Z"/>
      </g>
      <g transform="translate(14.153 99.695)">
        <path fill="#D4A181" d="M95.8742243,63.7601763 L107.712681,86.2952436 C112.056802,90.084142 115.4171,93.8012094 117.793574,97.4464458 C118.234045,98.5553268 118.478673,100.485306 115.313951,98.6291728 C112.149229,96.7730398 108.736921,94.9629645 107.736241,95.8629914 C106.735562,96.7630183 108.071166,99.0741699 106.416031,100.139837 C105.312608,100.850282 103.657849,96.912805 101.451752,88.3274051 L86.8810581,71.8487725 L95.8742243,63.7601763 Z M112.631296,53.1331811 L130.542527,71.2231012 C135.80484,73.5766227 140.105312,76.1490311 143.443943,78.9403264 C144.189444,79.8720014 144.987778,81.6461431 141.418539,80.7961868 L141.136354,80.7293591 L141.136354,80.7293591 L140.570653,80.5979292 C137.269793,79.8421679 134.001994,79.3037333 133.36301,80.365897 C132.669255,81.5191033 134.622363,83.3388613 133.351189,84.8417728 C132.50374,85.8437138 129.769826,82.5619844 125.149448,74.9965845 L106.396483,63.4971159 L112.631296,53.1331811 Z"/>
        <path fill="#256D41" d="M77.1936146,14.5698047 C93.3789104,31.8002788 113.120375,43.0431309 140.045071,53.0146572 L134.064694,64.9699609 C106.283936,62.353361 91.4319025,60.2629508 79.7900759,43.0055059 C76.8682135,38.6742371 71.6443677,23.7707376 68.5150618,16.0313637 L77.1936146,14.5698047 Z" transform="rotate(26 104.28 39.77)"/>
        <path fill="#F2F2F2" d="M57.9,73.3239437 L107.436667,73.3239437 C96.2157823,39.1095643 90.4837285,15.6269414 90.2405054,2.87607475 C90.2281056,2.22602325 89.0272835,1.08054069 88.4960135,1.23055183 C84.6108934,2.32756711 80.4535082,1.91738317 76.0238581,0 C64.2802487,18.8831067 60.2191049,42.1320345 57.9,73.3239437 Z"/>
        <path fill="#0A6B54" d="M80.2408844,-1.27869692e-13 C84.6982803,13.4180895 88.3159952,26.821178 90.6032288,39.0069322 C94.0251591,51.1484297 99.17523,65.6430027 108.967747,80.2683113 L97.0915673,86.4011955 C94.9103133,84.4885114 92.7693454,82.5603967 90.684722,80.6174162 C88.4033496,86.0323858 84.5359857,89.1503163 78.7488072,89.1503163 L78.7488072,89.1503163 L52.3358916,89.1503163 C48.1409109,60.9643227 59.1661411,21.8837337 69.3873311,2.17180008 C69.7776476,1.41906071 70.6086705,-1.27869692e-13 72.5660704,-1.27869692e-13 L72.5660704,-1.27869692e-13 Z"/>
        <polygon fill="#49821B" points="63.691 73.323 80.415 73.325 80.416 75.898 63.691 75.896" transform="rotate(-52 72.053 74.61)"/>
      </g>
    </g>
  </g>
</svg>
