<svg xmlns="http://www.w3.org/2000/svg" width="19" height="22" viewBox="0 0 19 22">
  <g fill="none" transform="translate(-1.897 .001)">
    <path fill="currentColor" d="M13.8062486,21.9986422 L7.98806677,21.9986422 C7.38557431,21.9986422 6.89715768,21.550927 6.89715768,20.9986422 C6.89715768,20.4463575 7.38557431,19.9986422 7.98806677,19.9986422 L13.8062486,19.9986422 C14.408741,19.9986422 14.8971577,20.4463575 14.8971577,20.9986422 C14.8971577,21.550927 14.408741,21.9986422 13.8062486,21.9986422 L13.8062486,21.9986422 Z"/>
    <path stroke="currentColor" stroke-width="2" d="M11,1 C12.8019801,1 14.4955356,1.54374842 15.860456,2.48651886 C17.1995717,3.41146563 18.2224724,4.72172365 18.7042504,6.27710599 C19.1800331,7.81313311 19.0673873,9.3998598 18.4643766,10.8115905 C17.7846528,12.4029173 16.4853394,13.7695986 14.7138817,14.6103835 L14.7138817,14.6103835 L14.7138844,16.0415833 C14.7134388,16.2964895 14.5920733,16.5221848 14.4109783,16.687559 C14.1956263,16.8842163 13.8965553,16.9995247 13.5712088,17 L13.5712088,17 L8.43024879,17.0000011 C8.10344474,16.9995247 7.8043737,16.8842163 7.58902166,16.687559 C7.4079267,16.5221848 7.28656119,16.2964895 7.28611717,16.0433312 L7.28611717,16.0433312 L7.28611717,14.610383 C5.51466009,13.769598 4.21534709,12.402917 3.53562337,10.8115905 C2.93261269,9.3998598 2.81996688,7.81313311 3.29574961,6.27710599 C3.77752761,4.72172365 4.80042828,3.41146563 6.13954402,2.48651886 C7.50446444,1.54374842 9.19801987,1 11,1 Z"/>
  </g>
</svg>
