<?xml version="1.0" encoding="UTF-8"?>
<svg width="31px" height="40px" viewBox="0 0 31 40" version="1.1" xmlns="http://www.w3.org/2000/svg" xmlns:xlink="http://www.w3.org/1999/xlink">
    <title>Icon Hint</title>
    <g id="Page-1" stroke="none" stroke-width="1" fill="none" fill-rule="evenodd">
        <g id="Desktop-Lehrer-Schulklasse-XY-Detailsansicht" transform="translate(-352.000000, -1683.000000)" fill="#FFFFFF" fill-rule="nonzero">
            <g id="Card" transform="translate(320.000000, 216.000000)">
                <g id="Modul-Emails-versenden" transform="translate(32.000000, 1202.000000)">
                    <g id="Group" transform="translate(0.000000, 265.000000)">
                        <path d="M21.3490566,40 L9.6509434,40 C8.43956411,40 7.45754717,39.0406102 7.45754717,37.8571429 C7.45754717,36.6736755 8.43956411,35.7142857 9.6509434,35.7142857 L21.3490566,35.7142857 C22.5604359,35.7142857 23.5424528,36.6736755 23.5424528,37.8571429 C23.5424528,39.0406102 22.5604359,40 21.3490566,40 L21.3490566,40 Z" id="Path"></path>
                        <path d="M23.5424528,29.2857143 C23.5392323,31.2568551 21.9044225,32.8539966 19.8867925,32.8571429 L11.1132075,32.8571429 C9.09557754,32.8539966 7.46076765,31.2568551 7.45754717,29.2857143 L7.45754717,27.78 C1.60527196,24.2642453 -1.14404383,17.378255 0.725890027,10.9197594 C2.59582389,4.46126378 8.62980528,0.0024687 15.5,0.0024687 C22.3701947,0.0024687 28.4041761,4.46126378 30.27411,10.9197594 C32.1440438,17.378255 29.394728,24.2642453 23.5424528,27.78 L23.5424528,29.2857143 Z M11.8443396,27.8571429 C11.8443396,28.251632 12.1716786,28.5714286 12.5754717,28.5714286 L18.4245283,28.5714286 C18.8283214,28.5714286 19.1556604,28.251632 19.1556604,27.8571429 L19.1556604,26.52 C19.1551314,25.7062331 19.6264612,24.9623975 20.3722642,24.6 C24.9350425,22.3894909 27.3397041,17.4010661 26.1777363,12.5566585 C25.0157685,7.71225088 20.5929857,4.2868436 15.5,4.2868436 C10.4070143,4.2868436 5.98423145,7.71225088 4.82226366,12.5566585 C3.66029587,17.4010661 6.06495752,22.3894909 10.6277358,24.6 C11.3735388,24.9623975 11.8448686,25.7062331 11.8443396,26.52 L11.8443396,27.8571429 Z" id="Shape"></path>
                    </g>
                </g>
            </g>
        </g>
    </g>
</svg>