<?xml version="1.0" encoding="UTF-8"?>
<svg width="17px" height="18px" viewBox="0 0 17 18" version="1.1" xmlns="http://www.w3.org/2000/svg" xmlns:xlink="http://www.w3.org/1999/xlink">
    <title>Icon Calendar</title>
    <defs>
        <filter id="filter-1">
            <feColorMatrix in="SourceGraphic" type="matrix" values="0 0 0 0 0.858824 0 0 0 0 0.164706 0 0 0 0 0.105882 0 0 0 1.000000 0"></feColorMatrix>
        </filter>
    </defs>
    <g id="Desktop-/-Schüler" stroke="none" stroke-width="1" fill="none" fill-rule="evenodd">
        <g id="Desktop-Schüler-Abstimmungen-Liste-/-Bubble-offen" transform="translate(-387.000000, -652.000000)">
            <g id="Textfelder" transform="translate(361.000000, 497.000000)">
                <g id="Group-31" transform="translate(26.000000, 156.000000)" filter="url(#filter-1)">
                    <g>
                        <g id="Group-6" stroke="#000000" stroke-width="1.12689394">
                            <path d="M16.3882576,2.8655303 L16.3882576,16.3882576 L0.611742424,16.3882576 L0.611742424,2.8655303 L16.3882576,2.8655303 Z" id="Stroke-1"></path>
                            <line x1="0.0482954545" y1="6.80968485" x2="16.9517045" y2="6.80968485" id="Stroke-3" stroke-linejoin="round"></line>
                            <line x1="4.55587121" y1="3.99245" x2="4.55587121" y2="0.0483212121" id="Stroke-4" stroke-linecap="round" stroke-linejoin="round"></line>
                            <line x1="12.4441288" y1="3.99245" x2="12.4441288" y2="0.0483212121" id="Stroke-5" stroke-linecap="round" stroke-linejoin="round"></line>
                        </g>
                        <line x1="3.71070076" y1="9.6269197" x2="3.71070076" y2="9.6269197" id="Stroke-7" stroke="#000000" stroke-width="1.12689394" stroke-linecap="round" stroke-linejoin="round"></line>
                        <g id="Group-30" transform="translate(3.348485, 9.530303)" stroke="#000000" stroke-linecap="round" stroke-linejoin="round" stroke-width="1.12689394">
                            <path d="M0.362215909,0.0966166667 C0.206640152,0.0966166667 0.0804280303,0.2227 0.0804280303,0.378404545 C0.0804280303,0.533980303 0.206640152,0.660063636 0.362215909,0.660063636 C0.517791667,0.660063636 0.644003788,0.533980303 0.644003788,0.378404545 C0.644003788,0.2227 0.517791667,0.0966166667 0.362215909,0.0966166667" id="Stroke-8"></path>
                            <line x1="0.362215909" y1="4.04074545" x2="0.362215909" y2="4.04074545" id="Stroke-10"></line>
                            <path d="M0.362215909,4.04074545 C0.206640152,4.04074545 0.0804280303,4.16682879 0.0804280303,4.32253333 C0.0804280303,4.47810909 0.206640152,4.60419242 0.362215909,4.60419242 C0.517791667,4.60419242 0.644003788,4.47810909 0.644003788,4.32253333 C0.644003788,4.16682879 0.517791667,4.04074545 0.362215909,4.04074545" id="Stroke-12"></path>
                            <line x1="5.15151515" y1="0.0966166667" x2="5.15151515" y2="0.0966166667" id="Stroke-14"></line>
                            <path d="M5.15151515,0.0966166667 C4.99593939,0.0966166667 4.86972727,0.2227 4.86972727,0.378404545 C4.86972727,0.533980303 4.99593939,0.660063636 5.15151515,0.660063636 C5.30709091,0.660063636 5.43330303,0.533980303 5.43330303,0.378404545 C5.43330303,0.2227 5.30709091,0.0966166667 5.15151515,0.0966166667" id="Stroke-16"></path>
                            <line x1="5.15151515" y1="4.04074545" x2="5.15151515" y2="4.04074545" id="Stroke-18"></line>
                            <path d="M5.15151515,4.04074545 C4.99593939,4.04074545 4.86972727,4.16682879 4.86972727,4.32253333 C4.86972727,4.47810909 4.99593939,4.60419242 5.15151515,4.60419242 C5.30709091,4.60419242 5.43330303,4.47810909 5.43330303,4.32253333 C5.43330303,4.16682879 5.30709091,4.04074545 5.15151515,4.04074545" id="Stroke-20"></path>
                            <line x1="9.94081439" y1="0.0966166667" x2="9.94081439" y2="0.0966166667" id="Stroke-22"></line>
                            <path d="M9.94081439,0.0966166667 C9.78523864,0.0966166667 9.65902652,0.2227 9.65902652,0.378404545 C9.65902652,0.533980303 9.78523864,0.660063636 9.94081439,0.660063636 C10.0963902,0.660063636 10.2226023,0.533980303 10.2226023,0.378404545 C10.2226023,0.2227 10.0963902,0.0966166667 9.94081439,0.0966166667" id="Stroke-24"></path>
                            <line x1="9.94081439" y1="4.04074545" x2="9.94081439" y2="4.04074545" id="Stroke-26"></line>
                            <path d="M9.94081439,4.04074545 C9.78523864,4.04074545 9.65902652,4.16682879 9.65902652,4.32253333 C9.65902652,4.47810909 9.78523864,4.60419242 9.94081439,4.60419242 C10.0963902,4.60419242 10.2226023,4.47810909 10.2226023,4.32253333 C10.2226023,4.16682879 10.0963902,4.04074545 9.94081439,4.04074545" id="Stroke-28"></path>
                        </g>
                    </g>
                </g>
            </g>
        </g>
    </g>
</svg>