<svg xmlns="http://www.w3.org/2000/svg" width="24" height="24" viewBox="0 0 24 24">
  <path fill="#FFF" d="M12,0 C5.372583,0 0,5.372583 0,12 C0,18.627417 5.372583,24 12,24 C18.627417,24 24,18.627417 24,12 C23.9924423,5.37571601 18.624284,0.00755766167 12,0 Z M17.1428571,13.7142857 L13.7142857,13.7142857 L13.7142857,17.1428571 C13.7142857,18.089631 12.9467739,18.8571429 12,18.8571429 C11.0532261,18.8571429 10.2857143,18.089631 10.2857143,17.1428571 L10.2857143,13.7142857 L6.85714286,13.7142857 C5.910369,13.7142857 5.14285714,12.9467739 5.14285714,12 C5.14285714,11.0532261 5.910369,10.2857143 6.85714286,10.2857143 L10.2857143,10.2857143 L10.2857143,6.85714286 C10.2857143,5.910369 11.0532261,5.14285714 12,5.14285714 C12.9467739,5.14285714 13.7142857,5.910369 13.7142857,6.85714286 L13.7142857,10.2857143 L17.1428571,10.2857143 C18.089631,10.2857143 18.8571429,11.0532261 18.8571429,12 C18.8571429,12.9467739 18.089631,13.7142857 17.1428571,13.7142857 Z"/>
</svg>
