<svg xmlns="http://www.w3.org/2000/svg" width="22" height="22" viewBox="0 0 22 22">
  <g fill="none" fill-rule="evenodd" stroke-linecap="round" stroke-linejoin="round">
    <path stroke="#FFF" stroke-width="1.389" d="M0 9.02777778C0 10.5619021 1.24365347 11.8055556 2.77777778 11.8055556 4.31190208 11.8055556 5.55555556 10.5619021 5.55555556 9.02777778 5.55555556 7.49365347 4.31190208 6.25 2.77777778 6.25 1.24365347 6.25 0 7.49365347 0 9.02777778zM9.72222222 9.02777778C9.72222222 10.5619021 10.9658757 11.8055556 12.5 11.8055556 14.0341243 11.8055556 15.2777778 10.5619021 15.2777778 9.02777778 15.2777778 7.49365347 14.0341243 6.25 12.5 6.25 10.9658757 6.25 9.72222222 7.49365347 9.72222222 9.02777778zM4.86111111 2.77777778C4.86111111 4.31190208 6.10476458 5.55555556 7.63888889 5.55555556 9.17301319 5.55555556 10.4166667 4.31190208 10.4166667 2.77777778 10.4166667 1.24365347 9.17301319 0 7.63888889 0 6.10476458 0 4.86111111 1.24365347 4.86111111 2.77777778z" transform="translate(3 2)"/>
    <path stroke="#FFF" stroke-width="1.5" d="M10.0694444 3.47222222C9.34784475 1.39286857 7.39782875 0 5.20833333 0 3.01883792 0 1.06882192 1.39286857.347222222 3.47222222M19.7916667 3.47222222C19.070067 1.39286857 17.120051 0 14.9305556 0 12.7410601 0 10.7910441 1.39286857 10.0694444 3.47222222" transform="translate(1 17)"/>
  </g>
</svg>
