<svg xmlns="http://www.w3.org/2000/svg" width="22" height="22" viewBox="0 0 22 22">
  <g fill="none">
    <path fill="#FFF" d="M3 4.5C3 6.98528137 5.01471863 9 7.5 9 9.98528137 9 12 6.98528137 12 4.5 12 2.01471863 9.98528137 0 7.5 0 5.01471863 0 3 2.01471863 3 4.5zM11.1359896 18.3978105L11.8857517 17.656138C11.9588937 17.5839678 12 17.4859744 12 17.3837811 12 17.2815878 11.9588937 17.1835943 11.8857517 17.1114242L11.1359896 16.3697517C10.2320756 15.4753678 9.89279526 14.1647405 10.2508969 12.9506722 10.3048617 12.761195 10.2055155 12.5619902 10.0206795 12.4890503 9.41029076 12.2497162 8.76877824 12.0968964 8.11516378 12.0351221 6.03976098 11.8332586 3.97471855 12.507994 2.42917517 13.8929717.883631796 15.2779494.00140178213 17.2442957-2.04281037e-14 19.3072056L-2.04281037e-14 20.4612604C-2.04281037e-14 21.3110828.696431394 22 1.55552306 22L9.79979525 22C9.91658497 22 10.0272017 21.948123 10.1010753 21.8586416 10.1749488 21.7691602 10.2042563 21.6515735 10.1808984 21.5383781 9.94575697 20.3992814 10.3045438 19.2195047 11.1359896 18.3978105z"/>
    <path fill="#DB2A1B" d="M19.3835705,17.7374221 C19.2383188,17.5902223 19.2383188,17.3536237 19.3835705,17.206424 L21.6980625,14.891932 C22.1110993,14.4486689 22.0989119,13.7579214 21.6704953,13.3295047 C21.2420786,12.9010881 20.5513311,12.8889007 20.108068,13.3019375 L17.793576,15.6164295 C17.6463763,15.7616812 17.4097777,15.7616812 17.2625779,15.6164295 L14.9480859,13.3019375 C14.5048228,12.8889007 13.8140753,12.9010881 13.3856586,13.3295047 C12.957242,13.7579214 12.9450546,14.4486689 13.3580914,14.891932 L15.6725834,17.206424 C15.8178351,17.3536237 15.8178351,17.5902223 15.6725834,17.7374221 L13.3580914,20.0519141 C13.0571127,20.332369 12.9332191,20.754745 13.0350142,21.1533436 C13.1368094,21.5519423 13.4480577,21.8631906 13.8466564,21.9649858 C14.245255,22.0667809 14.667631,21.9428873 14.9480859,21.6419086 L17.2625779,19.3274166 C17.4097777,19.1821649 17.6463763,19.1821649 17.793576,19.3274166 L20.108068,21.6419086 C20.5513311,22.0549454 21.2420786,22.042758 21.6704953,21.6143414 C22.0989119,21.1859247 22.1110993,20.4951772 21.6980625,20.0519141 L19.3835705,17.7374221 Z"/>
  </g>
</svg>
