<svg xmlns="http://www.w3.org/2000/svg" width="24" height="24" viewBox="0 0 24 24">
  <path fill="#FFF" d="M12,0 C5.372583,0 0,5.372583 0,12 C0,18.627417 5.372583,24 12,24 C18.627417,24 24,18.627417 24,12 C23.9920653,5.37587244 18.6241276,0.0079346792 12,0 Z M17.8608,10.0608 L11.2608,16.6608 C10.9794841,16.9421901 10.5978933,17.1002797 10.2,17.1002797 C9.80210674,17.1002797 9.42051593,16.9421901 9.1392,16.6608 L6.1392,13.6608 C5.55333635,13.0749363 5.55333636,12.1250637 6.13920002,11.5392 C6.72506367,10.9533364 7.67493633,10.9533364 8.2608,11.5392 L10.2,13.4784 L15.7392,7.9392 C16.1181873,7.56021266 16.6705734,7.41220126 17.1882797,7.55092025 C17.7059861,7.68963925 18.1103608,8.09401392 18.2490797,8.61172025 C18.3877987,9.12942658 18.2397873,9.68181266 17.8608,10.0608 L17.8608,10.0608 Z"/>
</svg>
