<svg xmlns="http://www.w3.org/2000/svg" width="22" height="22" viewBox="0 0 22 22">
  <path fill="#FFF" d="M10.9844167,-2.1467203e-15 C8.04521921,0.0481179274 5.24302272,1.25098794 3.18358333,3.34858333 C1.10152633,5.42147875 -0.047745588,8.2521358 1.16399945e-15,11.18975 C-0.00341478768,14.0589644 1.1353038,16.8115516 3.16474808,18.839792 C5.19419236,20.8680324 7.94745478,22.0051174 10.8166667,22.0000172 L11.0128333,22.0000172 C17.134546,21.9370163 22.0498624,16.9302503 22,10.8084167 L22,10.8084167 C22.0068332,7.90363743 20.8416935,5.11890158 18.7682943,3.08449623 C16.6948952,1.05009087 13.8885427,-0.0619748574 10.9844167,-2.1467203e-15 Z M9.625,15.1635 C9.61165125,14.8004207 9.74488915,14.4472291 9.99472069,14.1834318 C10.2445522,13.9196345 10.5899817,13.7674009 10.95325,13.761 L10.978,13.761 C11.7296858,13.7624452 12.3460257,14.3573367 12.3740833,15.1085 C12.387686,15.471648 12.254533,15.8249843 12.0046478,16.0888383 C11.7547626,16.3526922 11.409184,16.5048489 11.0458333,16.511 L11.0210833,16.511 C10.2697801,16.5086112 9.65398712,15.9142477 9.625,15.1635 Z M10.0833333,11.4583333 L10.0833333,5.95833333 C10.0833333,5.45207231 10.493739,5.04166667 11,5.04166667 C11.506261,5.04166667 11.9166667,5.45207231 11.9166667,5.95833333 L11.9166667,11.4583333 C11.9166667,11.9645944 11.506261,12.375 11,12.375 C10.493739,12.375 10.0833333,11.9645944 10.0833333,11.4583333 Z"/>
</svg>
