<?xml version="1.0" encoding="UTF-8"?>
<svg width="22px" height="23px" viewBox="0 0 22 23" version="1.1" xmlns="http://www.w3.org/2000/svg" xmlns:xlink="http://www.w3.org/1999/xlink">
    <title>Icon Status Check</title>
    <defs>
        <filter id="filter-1">
            <feColorMatrix in="SourceGraphic" type="matrix" values="0 0 0 0 0.079914 0 0 0 0 0.482360 0 0 0 0 0.237152 0 0 0 1.000000 0"></feColorMatrix>
        </filter>
    </defs>
    <g id="Page-1" stroke="none" stroke-width="1" fill="none" fill-rule="evenodd">
        <g id="Desktop-Lehrer-Schulklasse-XY-Detailsansicht" transform="translate(-1050.000000, -713.000000)">
            <g id="Card" transform="translate(320.000000, 216.000000)">
                <g id="Liste-Schüler" transform="translate(32.000000, 410.000000)">
                    <g id="Liste-Schulklassen" transform="translate(0.000000, 49.000000)">
                        <g id="Schülerin-1" transform="translate(8.000000, 37.543029)">
                            <g id="Group" transform="translate(690.000000, 1.000000)" filter="url(#filter-1)">
                                <g>
                                    <path d="M3.14285714,4.32142857 C3.14285714,6.70808767 5.07762662,8.64285714 7.46428571,8.64285714 C9.85094481,8.64285714 11.7857143,6.70808767 11.7857143,4.32142857 C11.7857143,1.93476947 9.85094481,-5.58283578e-16 7.46428571,-5.58283578e-16 C5.07762662,-5.58283578e-16 3.14285714,1.93476947 3.14285714,4.32142857 Z" id="Path" fill="#000000" fill-rule="nonzero"></path>
                                    <path d="M10.4641429,20.9644286 C9.48904169,19.9895776 9.16959473,18.5368054 9.64580811,17.242828 C10.1220215,15.9488506 11.307013,15.0497463 12.6814286,14.9395714 C12.8294877,14.9276938 12.9581884,14.8333275 13.01404,14.6956932 C13.0698916,14.558059 13.0433431,14.4006931 12.9454286,14.289 C11.7370389,12.8891463 10.038098,12.0056521 8.19814286,11.8202857 C6.10097427,11.6140807 4.01430476,12.3035631 2.4528504,13.7186591 C0.891396047,15.1337552 0.000529620444,17.1427183 0,19.25 L0,20.4285714 C0,21.2964475 0.703552536,22 1.57142857,22 L10.5521429,22 C10.710971,21.999649 10.8539624,21.9036963 10.9144882,21.7568524 C10.975014,21.6100086 10.9411652,21.4411663 10.8287143,21.329 L10.4641429,20.9644286 Z" id="Path" fill="#000000" fill-rule="nonzero"></path>
                                    <path d="M15.3214286,22.0000035 C15.0087495,22.0007696 14.7087913,21.8762586 14.4885714,21.6542857 L12.1314286,19.2971429 C11.6987218,18.8327704 11.7114896,18.1091276 12.1603086,17.6603086 C12.6091276,17.2114896 13.3327704,17.1987218 13.7971429,17.6314286 L15.0432857,18.8775714 C15.1974955,19.0297404 15.4453616,19.0297404 15.5995714,18.8775714 L19.9885714,14.4885714 C20.4529439,14.0558646 21.1765867,14.0686325 21.6254057,14.5174515 C22.0742247,14.9662704 22.0869925,15.6899132 21.6542857,16.1542857 L16.1542857,21.6542857 C15.9340658,21.8762586 15.6341076,22.0007696 15.3214286,22.0000035 L15.3214286,22.0000035 Z" id="Path" fill="#000000" fill-rule="nonzero"></path>
                                </g>
                            </g>
                        </g>
                    </g>
                </g>
            </g>
        </g>
    </g>
</svg>