<?xml version="1.0" encoding="utf-8"?>
<!-- Generator: Adobe Illustrator 24.3.0, SVG Export Plug-In . SVG Version: 6.00 Build 0)  -->
<svg version="1.1" id="Ebene_1" xmlns="http://www.w3.org/2000/svg" xmlns:xlink="http://www.w3.org/1999/xlink" x="0px" y="0px"
	 viewBox="0 0 41 41" style="enable-background:new 0 0 41 41;" xml:space="preserve">
<style type="text/css">
	.st0{fill:#D90000;}
</style>
<g id="Kreuz">
	<g>
		<path class="st0" d="M39.5,32.2L28.4,20.7l0,0L39.9,9.6c1.4-1.3,1.4-3.6,0.1-5l-2.8-2.9c-1.3-1.4-3.6-1.4-5-0.1L20.7,12.8l0,0
			L9.4,1.1C8-0.3,5.8-0.4,4.4,1L1.5,3.8c-1.4,1.3-1.4,3.6-0.1,5l11.3,11.7l0,0L1.1,31.6c-1.4,1.3-1.4,3.6-0.1,5l2.8,2.9
			c1.3,1.4,3.6,1.4,5,0.1l11.6-11.2l0,0l11.1,11.5c1.3,1.4,3.6,1.4,5,0.1l2.9-2.8C40.8,35.8,40.8,33.6,39.5,32.2z"/>
	</g>
</g>
</svg>
