<?xml version="1.0" encoding="UTF-8"?>
<svg width="41px" height="41px" viewBox="0 0 41 41" version="1.1" xmlns="http://www.w3.org/2000/svg" xmlns:xlink="http://www.w3.org/1999/xlink">
    <title>Kreuz</title>
    <g id="Kreuz" stroke="none" stroke-width="1" fill="none" fill-rule="evenodd">
        <g transform="translate(-8.000000, -8.000000)" fill="currentColor" fill-rule="nonzero">
            <path d="M32.7143429,46.3380121 L32.7143429,32.8294522 L32.7143429,32.8294522 L46.3034668,32.8294522 C47.4080363,32.8294522 48.3034668,31.9340217 48.3034668,30.8294522 L48.3034668,26.0076999 C48.3034668,24.9031304 47.4080363,24.0076999 46.3034668,24.0076999 L32.7143429,24.0076999 L32.7143429,24.0076999 L32.7143429,10.2977301 C32.7143429,9.19316061 31.8189124,8.29773011 30.7143429,8.29773011 L25.8925907,8.29773011 C24.7880212,8.29773011 23.8925907,9.19316061 23.8925907,10.2977301 L23.8925907,24.0076999 L23.8925907,24.0076999 L10.3034668,24.0076999 C9.1988973,24.0076999 8.3034668,24.9031304 8.3034668,26.0076999 L8.3034668,30.8294522 C8.3034668,31.9340217 9.1988973,32.8294522 10.3034668,32.8294522 L23.8925907,32.8294522 L23.8925907,32.8294522 L23.8925907,46.3380121 C23.8925907,47.4425816 24.7880212,48.3380121 25.8925907,48.3380121 L30.7143429,48.3380121 C31.8189124,48.3380121 32.7143429,47.4425816 32.7143429,46.3380121 Z" transform="translate(28.303467, 28.317871) rotate(-44.000000) translate(-28.303467, -28.317871) "></path>
        </g>
    </g>
</svg>