<?xml version="1.0" encoding="UTF-8"?>
<svg width="135px" height="131px" viewBox="0 0 135 131" version="1.1" xmlns="http://www.w3.org/2000/svg" xmlns:xlink="http://www.w3.org/1999/xlink">
    <title>Untitled 5</title>
    <defs>
        <filter id="filter-1">
            <feColorMatrix in="SourceGraphic" type="matrix" values="0 0 0 0 1.000000 0 0 0 0 1.000000 0 0 0 0 1.000000 0 0 0 1.000000 0"></feColorMatrix>
        </filter>
    </defs>
    <g id="Page-1" stroke="none" stroke-width="1" fill="none" fill-rule="evenodd">
        <g filter="url(#filter-1)" id="icon_qr">
            <g transform="translate(4.000000, 4.000000)">
                <g id="Group" stroke="#000000" stroke-width="8">
                    <rect id="Rectangle" x="0" y="0" width="48" height="48"></rect>
                    <rect id="Rectangle" x="20" y="20" width="8" height="8"></rect>
                </g>
                <g id="Group-Copy" transform="translate(73.000000, 0.000000)" stroke="#000000" stroke-width="8">
                    <rect id="Rectangle" x="0" y="0" width="48" height="48"></rect>
                    <rect id="Rectangle" x="20" y="20" width="8" height="8"></rect>
                </g>
                <g id="Group-Copy-2" transform="translate(0.000000, 71.000000)" stroke="#000000" stroke-width="8">
                    <rect id="Rectangle" x="0" y="0" width="48" height="48"></rect>
                    <rect id="Rectangle" x="20" y="20" width="8" height="8"></rect>
                </g>
                <g id="Group-Copy-3" transform="translate(67.000000, 64.000000)" stroke="#000000" stroke-width="8">
                    <polyline id="Rectangle" transform="translate(18.000000, 42.000000) rotate(90.000000) translate(-18.000000, -42.000000) " points="30 30 30 54 6 54"></polyline>
                    <g id="Group-2">
                        <line x1="24" y1="12" x2="-1.31450406e-13" y2="12" id="Rectangle-Copy-2" transform="translate(12.000000, 12.000000) rotate(90.000000) translate(-12.000000, -12.000000) "></line>
                        <line x1="24" y1="12" x2="0" y2="12" id="Rectangle-Copy-3"></line>
                    </g>
                    <g id="Group-2-Copy" transform="translate(36.000000, 35.000000)">
                        <line x1="24" y1="12" x2="-1.31450406e-13" y2="12" id="Rectangle-Copy-2" transform="translate(12.000000, 12.000000) rotate(90.000000) translate(-12.000000, -12.000000) "></line>
                        <line x1="24" y1="12" x2="0" y2="12" id="Rectangle-Copy-3"></line>
                    </g>
                    <polyline id="Rectangle-Copy" transform="translate(43.000000, 18.000000) rotate(-90.000000) translate(-43.000000, -18.000000) " points="55 6 55 30 31 30"></polyline>
                </g>
            </g>
        </g>
    </g>
</svg>