<?xml version="1.0" encoding="UTF-8"?>
<svg width="22px" height="22px" viewBox="0 0 22 22" version="1.1" xmlns="http://www.w3.org/2000/svg" xmlns:xlink="http://www.w3.org/1999/xlink">
    <title>icon results vote copy</title>
    <g id="Page-1" stroke="none" stroke-width="1" fill="none" fill-rule="evenodd">
        <g id="Desktop-Lehrer-Schulklasse-XY-Detailsansicht" transform="translate(-936.000000, -473.000000)" fill="#FFFFFF" fill-rule="nonzero">
            <g id="Card" transform="translate(320.000000, 216.000000)">
                <g id="Auswahl-Abstimmungen" transform="translate(32.000000, 137.000000)">
                    <g id="Group" transform="translate(584.000000, 120.000000)">
                        <path d="M13.6028169,0.177571429 C13.256001,0.0906047354 12.8890213,0.17029066 12.6077047,0.393649959 C12.3263881,0.617009258 12.1619718,0.959210217 12.1619718,1.32157143 L12.1619718,9.88114286 C12.1619718,10.1941243 12.2846074,10.4942756 12.5028169,10.7155714 L18.4691549,16.7671429 C18.6877787,16.9876018 18.9835469,17.1113279 19.291831,17.1112857 C19.3377633,17.1136746 19.383786,17.1136746 19.4297183,17.1112857 C19.7844994,17.0682983 20.099975,16.8619329 20.2849296,16.5518571 C22.0703122,13.5588363 22.3456774,9.88292116 21.0266352,6.65065394 C19.707593,3.41838672 16.9514304,1.01519375 13.6028169,0.177571429 Z" id="Path"></path>
                        <path d="M11,21.857001 C5.51603493,21.8588984 0.893665334,17.7082157 0.230755649,12.1866966 C-0.432154036,6.66517751 3.07303581,1.5106269 8.3971831,0.177571429 C8.74399903,0.0906047354 9.11097873,0.17029066 9.39229529,0.393649959 C9.67361185,0.617009258 9.83799022,0.959210217 9.83802817,1.32157143 L9.83802817,10.857 C9.83702801,11.1701886 9.95979055,11.4707257 10.1788732,11.6914286 L16.8269014,18.4328571 C17.0792382,18.6891436 17.2013783,19.0488812 17.1581281,19.4084149 C17.114878,19.7679486 16.9110414,20.0873444 16.6053521,20.2745714 C14.9141405,21.3106583 12.9757647,21.8578748 11,21.857001 Z M7.51408451,3.597 C7.51386711,3.45900376 7.44228209,3.3312417 7.32550592,3.26043255 C7.20872976,3.18962339 7.06388753,3.18615123 6.94394366,3.25128571 C3.08973689,5.35156419 1.43006906,10.071191 3.10387842,14.1713472 C4.77768778,18.2715033 9.24098027,20.4196235 13.4308451,19.1415714 C13.5606697,19.1006498 13.6596743,18.9934391 13.6914493,18.8593671 C13.7232242,18.7252951 13.6830779,18.5841568 13.5857746,18.4878571 L8.53507042,13.3571429 L8.53507042,13.3571429 C7.87915626,12.6955412 7.51150344,11.7952501 7.51408451,10.857 L7.51408451,3.597 Z" id="Shape"></path>
                    </g>
                </g>
            </g>
        </g>
    </g>
</svg>