<svg xmlns="http://www.w3.org/2000/svg" width="22" height="22" viewBox="0 0 22 22">
  <g fill="#FFF">
    <path d="M11,-1.77635684e-15 C4.92486775,-1.77635684e-15 0,4.92486775 0,11 C0,17.0751322 4.92486775,22 11,22 C17.0751322,22 22,17.0751322 22,11 C21.9929281,4.92779943 17.0722006,0.00707186544 11,-1.77635684e-15 Z M11,20.1666667 C5.93738979,20.1666667 1.83333333,16.0626102 1.83333333,11 C1.83333333,5.93738979 5.93738979,1.83333333 11,1.83333333 C16.0626102,1.83333333 20.1666667,5.93738979 20.1666667,11 C20.1611095,16.0603066 16.0603066,20.1611095 11,20.1666667 L11,20.1666667 Z"/>
    <path d="M15.7061667,14.4925 L11.4583333,10.5975833 L11.4583333,5.95833333 C11.4583333,5.45207231 11.0479277,5.04166667 10.5416667,5.04166667 C10.0354056,5.04166667 9.62499945,5.45207231 9.62499945,5.95833333 L9.62499945,11 C9.62471766,11.2571787 9.73248435,11.5026473 9.922,11.6765 L14.46775,15.84275 C14.8426824,16.179957 15.4185232,16.1550976 15.763,15.7868333 C16.1044159,15.4136062 16.0789818,14.8343658 15.7061667,14.4925 L15.7061667,14.4925 Z"/>
  </g>
</svg>
