<?xml version="1.0" encoding="UTF-8"?>
<svg width="24px" height="24px" viewBox="0 0 24 24" version="1.1" xmlns="http://www.w3.org/2000/svg" xmlns:xlink="http://www.w3.org/1999/xlink">
    <title>Icon Chaty</title>
    <defs>
        <filter id="filter-1">
            <feColorMatrix in="SourceGraphic" type="matrix" values="0 0 0 0 1.000000 0 0 0 0 1.000000 0 0 0 0 1.000000 0 0 0 1.000000 0"></feColorMatrix>
        </filter>
    </defs>
    <g id="Lehrer-" stroke="none" stroke-width="1" fill="none" fill-rule="evenodd" stroke-linecap="round" stroke-linejoin="round">
        <g id="DT-Detailansicht-Schulklasse-Module" transform="translate(-1039.000000, -801.000000)">
            <g id="Card-Lerninhalte" transform="translate(320.000000, 383.000000)">
                <g id="Icon-Chaty" transform="translate(32.000000, 287.000000)" filter="url(#filter-1)">
                    <g transform="translate(687.000000, 131.000000)">
                        <path d="M23.25,13.5 C23.25,10.6005051 20.8994949,8.25 18,8.25 L15,8.25 C12.1005051,8.25 9.75,10.6005051 9.75,13.5 C9.75,16.3994949 12.1005051,18.75 15,18.75 L15.75,18.75 L20.25,23.25 L20.25,18.226 C22.0783314,17.3617226 23.2459626,15.5223143 23.25,13.5 L23.25,13.5 Z" id="Path" stroke="#000000" stroke-width="1.5"></path>
                        <path d="M6.75,12.75 L3.75,15.75 L3.75,10.726 C1.53124897,9.67783864 0.33730048,7.23007427 0.877189008,4.83632852 C1.41707754,2.44258276 3.54613248,0.744292904 6,0.749985659 L9,0.749985659 C11.3218497,0.750284463 13.3679828,2.27512533 14.032,4.5" id="Path" stroke="#000000" stroke-width="1.5"></path>
                    </g>
                </g>
            </g>
        </g>
    </g>
</svg>