<?xml version="1.0" encoding="UTF-8"?>
<svg width="34px" height="34px" viewBox="0 0 34 34" version="1.1" xmlns="http://www.w3.org/2000/svg" xmlns:xlink="http://www.w3.org/1999/xlink">
    <title>Icon User</title>
    <g id="Symbols" stroke="none" stroke-width="1" fill="none" fill-rule="evenodd" stroke-linecap="round" stroke-linejoin="round">
        <g id="Nav-Stripe-N2" transform="translate(-1146.000000, -16.000000)" stroke="#FFFFFF" stroke-width="2.12121212">
            <g id="Icon-User" transform="translate(1147.000000, 17.000000)">
                <g id="Group" transform="translate(0.800000, 0.800000)">
                    <path d="M0.0909090909,8.57717172 L0.0909090909,2.21212121 C0.0909090909,1.04060811 1.04060811,0.0909090909 2.21212121,0.0909090909 L8.57575758,0.0909090909" id="Path"></path>
                    <path d="M30.3090909,8.57717172 L30.3090909,2.21212121 C30.3090909,1.04060811 29.3593919,0.0909090909 28.1878788,0.0909090909 L21.8242424,0.0909090909" id="Path"></path>
                    <path d="M0.0909090909,21.8242424 L0.0909090909,28.1878788 C0.0909090909,29.3593919 1.04060811,30.3090909 2.21212121,30.3090909 L8.57575758,30.3090909" id="Path"></path>
                    <path d="M30.3090909,21.8242424 L30.3090909,28.1878788 C30.3090909,29.3593919 29.3593919,30.3090909 28.1878788,30.3090909 L21.8242424,30.3090909" id="Path"></path>
                    <path d="M9.36666667,10.4272727 C9.36666667,13.6489338 11.978339,16.2606061 15.2,16.2606061 C18.421661,16.2606061 21.0333333,13.6489338 21.0333333,10.4272727 C21.0333333,7.20561169 18.421661,4.59393939 15.2,4.59393939 C11.978339,4.59393939 9.36666667,7.20561169 9.36666667,10.4272727 Z" id="Path"></path>
                    <path d="M24.1614141,24.7454545 C22.8311517,20.9346489 19.2363149,18.3819559 15.2,18.3819559 C11.1636851,18.3819559 7.56884834,20.9346489 6.23858586,24.7454545" id="Path"></path>
                </g>
            </g>
        </g>
    </g>
</svg>