<svg xmlns="http://www.w3.org/2000/svg" width="22" height="21" viewBox="0 0 22 21">
  <g fill="currentColor">
    <path d="M19.25,0 L2.75,0 C1.23121694,0 0,1.23121694 0,2.75 L0,16.5 C0,18.0187831 1.23121694,19.25 2.75,19.25 C3.25626102,19.25 3.66666667,18.8395944 3.66666667,18.3333333 C3.66666667,17.8270723 3.25626102,17.4166667 2.75,17.4166667 C2.24373898,17.4166667 1.83333333,17.006261 1.83333333,16.5 L1.83333333,6.875 C1.83333333,6.62186949 2.03853616,6.41666667 2.29166667,6.41666667 L19.7083333,6.41666667 C19.9614638,6.41666667 20.1666667,6.62186949 20.1666667,6.875 L20.1666667,16.5 C20.1666667,17.006261 19.756261,17.4166667 19.25,17.4166667 C18.743739,17.4166667 18.3333333,17.8270723 18.3333333,18.3333333 C18.3333333,18.8395944 18.743739,19.25 19.25,19.25 C20.7687831,19.25 22,18.0187831 22,16.5 L22,2.75 C22,1.23121694 20.7687831,0 19.25,0 Z M3.66666667,4.125 C3.16040565,4.125 2.75,3.71459435 2.75,3.20833333 C2.75,2.70207231 3.16040565,2.29166667 3.66666667,2.29166667 C4.17292769,2.29166667 4.58333333,2.70207231 4.58333333,3.20833333 C4.58333333,3.45144845 4.48675623,3.6846062 4.31484788,3.85651455 C4.14293954,4.0284229 3.90978178,4.125 3.66666667,4.125 Z M6.41666667,4.125 C5.91040565,4.125 5.5,3.71459435 5.5,3.20833333 C5.5,2.70207231 5.91040565,2.29166667 6.41666667,2.29166667 C6.92292769,2.29166667 7.33333333,2.70207231 7.33333333,3.20833333 C7.33333333,3.45144845 7.23675623,3.6846062 7.06484788,3.85651455 C6.89293954,4.0284229 6.65978178,4.125 6.41666667,4.125 Z M9.16666667,4.125 C8.66040565,4.125 8.25,3.71459435 8.25,3.20833333 C8.25,2.70207231 8.66040565,2.29166667 9.16666667,2.29166667 C9.67292769,2.29166667 10.0833333,2.70207231 10.0833333,3.20833333 C10.0833333,3.45144845 9.98675623,3.6846062 9.81484788,3.85651455 C9.64293954,4.0284229 9.40978178,4.125 9.16666667,4.125 Z"/>
    <path d="M11.0416667,9.00916667 C7.75097003,9.00916667 5.08333333,11.6768034 5.08333333,14.9675 C5.08333333,18.2581966 7.75097003,20.9258333 11.0416667,20.9258333 C14.3323633,20.9258333 17,18.2581966 17,14.9675 C16.9959594,11.6784785 14.3306882,9.01320724 11.0416667,9.00916667 Z M11.0416667,19.0925 C9.37325991,19.0925 7.86913522,18.087476 7.2306636,16.5460692 C6.59219197,15.0046623 6.94510946,13.2304263 8.12485119,12.0506845 C9.30459293,10.8709428 11.078829,10.5180253 12.6202358,11.1564969 C14.1616427,11.7949686 15.1666667,13.2990932 15.1666667,14.9675 C15.1641407,17.2446275 13.3187942,19.0899741 11.0416667,19.0925 L11.0416667,19.0925 Z"/>
    <path d="M12.5208333,15.2916667 L11.375,15.2916667 L11.375,13.6875 C11.375,13.3078042 11.0671958,13 10.6875,13 C10.3078042,13 10,13.3078042 10,13.6875 L10,15.9791667 C10,16.3588624 10.3078042,16.6666667 10.6875,16.6666667 L12.5208333,16.6666667 C12.9005291,16.6666667 13.2083333,16.3588624 13.2083333,15.9791667 C13.2083333,15.5994709 12.9005291,15.2916667 12.5208333,15.2916667 Z"/>
  </g>
</svg>
