<?xml version="1.0" encoding="UTF-8"?>
<!DOCTYPE svg PUBLIC "-//W3C//DTD SVG 1.1//EN" "http://www.w3.org/Graphics/SVG/1.1/DTD/svg11.dtd">
<svg version="1.1" xmlns="http://www.w3.org/2000/svg" xmlns:xlink="http://www.w3.org/1999/xlink" x="0" y="0" width="32" height="31" viewBox="0, 0, 32, 31">
  <g id="Layer_1">
    <g>
      <path d="M4.63,16.559 C4.63,18.898 6.481,20.794 8.765,20.794 C11.048,20.794 12.899,18.898 12.899,16.559 C12.899,14.22 11.048,12.324 8.765,12.324 C6.481,12.324 4.63,14.22 4.63,16.559 z M19.101,16.559 C19.101,18.898 20.952,20.794 23.235,20.794 C25.519,20.794 27.37,18.898 27.37,16.559 C27.37,14.22 25.519,12.324 23.235,12.324 C20.952,12.324 19.101,14.22 19.101,16.559 z M11.866,7.03 C11.866,9.369 13.717,11.265 16,11.265 C18.283,11.265 20.134,9.369 20.134,7.03 C20.134,4.69 18.283,2.794 16,2.794 C13.717,2.794 11.866,4.69 11.866,7.03 z" fill-opacity="0" stroke="#FFFFFF" stroke-width="2" stroke-linecap="round" stroke-linejoin="round"/>
      <path d="M16,28.206 C14.926,25.035 12.024,22.912 8.765,22.912 C5.506,22.912 2.604,25.035 1.53,28.206 M30.47,28.206 C29.396,25.035 26.494,22.912 23.235,22.912 C19.976,22.912 17.074,25.035 16,28.206" fill-opacity="0" stroke="#FFFFFF" stroke-width="2" stroke-linecap="round" stroke-linejoin="round"/>
    </g>
  </g>
</svg>
