<?xml version="1.0" encoding="UTF-8"?>
<svg width="28px" height="32px" viewBox="0 0 28 32" version="1.1" xmlns="http://www.w3.org/2000/svg" xmlns:xlink="http://www.w3.org/1999/xlink">
    <title>Group</title>
    <g id="Page-1" stroke="none" stroke-width="1" fill="none" fill-rule="evenodd">
        <g id="Group" transform="translate(1.000000, 1.000000)">
            <rect id="Rectangle" stroke="#fff" stroke-width="2" x="0" y="0" width="26" height="30" rx="3"></rect>
            <line x1="4" y1="5" x2="22" y2="5" id="Path" stroke="#fff" stroke-width="2" stroke-linecap="round" stroke-linejoin="round"></line>
            <line x1="4" y1="9" x2="17" y2="9" id="Path" stroke="#fff" stroke-width="2" stroke-linecap="round" stroke-linejoin="round"></line>
            <path d="M14.4165039,21.7260742 C14.4213867,21.5356445 14.4348145,21.361084 14.4567871,21.2023926 C14.4787598,21.0437012 14.5178223,20.8947754 14.5739746,20.7556152 C14.630127,20.6164551 14.7033691,20.4833984 14.7937012,20.3564453 C14.8840332,20.2294922 14.9975586,20.1025391 15.1342773,19.9755859 C15.3735352,19.7558594 15.6005859,19.5397949 15.8154297,19.3273926 C16.0302734,19.1149902 16.2207031,18.894043 16.3867188,18.6645508 C16.5527344,18.4350586 16.6845703,18.190918 16.7822266,17.9321289 C16.8798828,17.6733398 16.9287109,17.3828125 16.9287109,17.0605469 C16.9287109,16.6015625 16.854248,16.192627 16.7053223,15.8337402 C16.5563965,15.4748535 16.3427734,15.1745605 16.0644531,14.9328613 C15.7861328,14.6911621 15.4443359,14.5068359 15.0390625,14.3798828 C14.6337891,14.2529297 14.1748047,14.1894531 13.6621094,14.1894531 C13.1982422,14.1894531 12.7648926,14.2492676 12.3620605,14.3688965 C11.9592285,14.4885254 11.6088867,14.6704102 11.3110352,14.9145508 C11.0131836,15.1586914 10.7763672,15.4675293 10.6005859,15.8410645 C10.4248047,16.2145996 10.3344727,16.6577148 10.3295898,17.1704102 L10.3295898,17.1704102 L12.4536133,17.1704102 C12.4584961,16.9506836 12.4951172,16.7614746 12.5634766,16.6027832 C12.6318359,16.4440918 12.722168,16.3134766 12.8344727,16.2109375 C12.9467773,16.1083984 13.0749512,16.0339355 13.2189941,15.9875488 C13.3630371,15.9411621 13.5107422,15.9179688 13.6621094,15.9179688 C14.0380859,15.9179688 14.3225098,16.0205078 14.5153809,16.2255859 C14.708252,16.4306641 14.8046875,16.7407227 14.8046875,17.1557617 C14.8046875,17.331543 14.7766113,17.4963379 14.720459,17.6501465 C14.6643066,17.8039551 14.5849609,17.9504395 14.4824219,18.0895996 C14.3798828,18.2287598 14.2578125,18.3679199 14.1162109,18.5070801 C13.9746094,18.6462402 13.8208008,18.7890625 13.6547852,18.9355469 C13.4448242,19.1259766 13.269043,19.3151855 13.1274414,19.5031738 C12.9858398,19.6911621 12.8710938,19.8950195 12.7832031,20.1147461 C12.6953125,20.3344727 12.6330566,20.5749512 12.5964355,20.8361816 C12.5598145,21.0974121 12.5415039,21.394043 12.5415039,21.7260742 L12.5415039,21.7260742 L14.4165039,21.7260742 Z M13.515625,25.0878906 C13.6962891,25.0878906 13.8598633,25.0598145 14.0063477,25.0036621 C14.152832,24.9475098 14.2773438,24.8693848 14.3798828,24.7692871 C14.4824219,24.6691895 14.5617676,24.5507812 14.6179199,24.4140625 C14.6740723,24.2773438 14.7021484,24.1308594 14.7021484,23.9746094 C14.7021484,23.8134766 14.6740723,23.6645508 14.6179199,23.527832 C14.5617676,23.3911133 14.4824219,23.2727051 14.3798828,23.1726074 C14.2773438,23.0725098 14.152832,22.9931641 14.0063477,22.9345703 C13.8598633,22.8759766 13.6962891,22.8466797 13.515625,22.8466797 C13.3349609,22.8466797 13.1713867,22.8759766 13.0249023,22.9345703 C12.878418,22.9931641 12.7539062,23.0725098 12.6513672,23.1726074 C12.5488281,23.2727051 12.4694824,23.3911133 12.4133301,23.527832 C12.3571777,23.6645508 12.3291016,23.8134766 12.3291016,23.9746094 C12.3291016,24.1308594 12.3571777,24.2773438 12.4133301,24.4140625 C12.4694824,24.5507812 12.5488281,24.6691895 12.6513672,24.7692871 C12.7539062,24.8693848 12.878418,24.9475098 13.0249023,25.0036621 C13.1713867,25.0598145 13.3349609,25.0878906 13.515625,25.0878906 Z" id="?" fill="#fff" fill-rule="nonzero"></path>
        </g>
    </g>
</svg>