<?xml version="1.0" encoding="UTF-8"?>
<svg width="24px" height="24px" viewBox="0 0 24 24" version="1.1" xmlns="http://www.w3.org/2000/svg" xmlns:xlink="http://www.w3.org/1999/xlink">
    <title>Icon Video</title>
    <defs>
        <filter id="filter-1">
            <feColorMatrix in="SourceGraphic" type="matrix" values="0 0 0 0 1.000000 0 0 0 0 1.000000 0 0 0 0 1.000000 0 0 0 1.000000 0"></feColorMatrix>
        </filter>
    </defs>
    <g id="Lehrer-" stroke="none" stroke-width="1" fill="none" fill-rule="evenodd" stroke-linecap="round" stroke-linejoin="round">
        <g id="DT-Detailansicht-Schulklasse-Module" transform="translate(-1042.000000, -841.000000)">
            <g id="Card-Lerninhalte" transform="translate(320.000000, 383.000000)">
                <g id="Icon-Video" transform="translate(32.000000, 287.000000)" filter="url(#filter-1)">
                    <g transform="translate(691.000000, 171.000000)">
                        <path d="M21.5,21.7499998 C21.5,22.5784271 20.8284271,23.2499998 20,23.2499998 L2,23.2499998 C1.17157288,23.2499998 0.5,22.5784271 0.5,21.7499998 L0.5,2.24999976 C0.5,1.42157288 1.17157288,0.749999759 2,0.749999759 L17.045,0.749999759 C17.4365438,0.749999759 17.8126547,0.902663066 18.093,1.176 L21.047,4.059 C21.3366114,4.34129213 21.5,4.72857002 21.5,5.133 L21.5,21.7499998 Z" id="Path" stroke="#000000" stroke-width="1.5"></path>
                        <path d="M16.689,10.932 C16.4927608,10.7921411 16.2413268,10.7549467 16.013,10.832 L12.5,12 L12.5,11.25 C12.5,10.4215729 11.8284271,9.75 11,9.75 L6.5,9.75 C5.67157288,9.75 5,10.4215729 5,11.25 L5,15.75 C5,16.5784271 5.67157288,17.25 6.5,17.25 L11,17.25 C11.8284271,17.25 12.5,16.5784271 12.5,15.75 L12.5,15 L16.013,16.171 C16.2417895,16.2476741 16.4935058,16.2094295 16.6891975,16.0682619 C16.8848892,15.9270942 17.0005863,15.7002948 17,15.459 L17,11.541 C17.0001266,11.2998408 16.8844339,11.0732916 16.689,10.932 L16.689,10.932 Z" id="Path" stroke="#000000" stroke-width="1.5"></path>
                    </g>
                </g>
            </g>
        </g>
    </g>
</svg>