<svg xmlns="http://www.w3.org/2000/svg" width="24" height="24" viewBox="0 0 24 24">
  <g fill="none" fill-rule="evenodd" stroke="#FFF" stroke-linecap="round" stroke-linejoin="round" stroke-width="1.5">
    <path d="M0.75,12 C0.75,18.2132034 5.78679656,23.25 12,23.25 C18.2132034,23.25 23.25,18.2132034 23.25,12 C23.25,5.78679656 18.2132034,0.75 12,0.75 C5.78679656,0.75 0.75,5.78679656 0.75,12 Z"/>
    <path d="M4.267,10.731 C3.57857214,11.4392792 3.57857214,12.5667208 4.267,13.275 C5.818,14.83 8.591,17.258 12,17.258 C15.409,17.258 18.182,14.831 19.734,13.276 C20.4219023,12.5675075 20.4219023,11.4404925 19.734,10.732 C18.183,9.177 15.406,6.748 12,6.748 C8.594,6.748 5.819,9.175 4.267,10.731 Z"/>
    <path d="M9.75,12 C9.75,13.2426407 10.7573593,14.25 12,14.25 C13.2426407,14.25 14.25,13.2426407 14.25,12 C14.25,10.7573593 13.2426407,9.75 12,9.75 C10.7573593,9.75 9.75,10.7573593 9.75,12 Z"/>
  </g>
</svg>
