<?xml version="1.0" encoding="utf-8"?>
<!-- Generator: Adobe Illustrator 24.3.0, SVG Export Plug-In . SVG Version: 6.00 Build 0)  -->
<svg version="1.1" id="Ebene_1" xmlns="http://www.w3.org/2000/svg" xmlns:xlink="http://www.w3.org/1999/xlink" x="0px" y="0px"
	 viewBox="0 0 22 22" style="enable-background:new 0 0 22 22;" xml:space="preserve">
<style type="text/css">
	.st0{fill:none;stroke:#141412;stroke-width:2;}
	.st1{fill:none;stroke:#141412;stroke-linecap:round;stroke-linejoin:round;}
	.st2{fill:none;stroke:#141412;stroke-width:2;stroke-linecap:round;stroke-linejoin:round;}
	.st3{fill:none;stroke:#141412;stroke-width:1.375;stroke-linecap:round;stroke-linejoin:round;}
</style>
<g transform="translate(0 1)">
	<path class="st0" d="M21,4v16H1V4H21z"/>
	<line class="st1" x1="0.5" y1="7.5" x2="21.5" y2="7.5"/>
	<line class="st2" x1="6" y1="4" x2="6" y2="0"/>
	<line class="st2" x1="16" y1="4" x2="16" y2="0"/>
	<path class="st3" d="M5.2,10.4c-0.2,0-0.3,0.2-0.3,0.3s0.2,0.3,0.3,0.3s0.3-0.2,0.3-0.3S5.3,10.4,5.2,10.4 M5.2,15.2
		c-0.2,0-0.3,0.2-0.3,0.3s0.2,0.3,0.3,0.3s0.3-0.2,0.3-0.3S5.3,15.2,5.2,15.2 M11,10.4c-0.2,0-0.3,0.2-0.3,0.3s0.2,0.3,0.3,0.3
		s0.3-0.2,0.3-0.3S11.2,10.4,11,10.4 M11,15.2c-0.2,0-0.3,0.2-0.3,0.3s0.2,0.3,0.3,0.3s0.3-0.2,0.3-0.3S11.2,15.2,11,15.2
		 M16.8,10.4c-0.2,0-0.3,0.2-0.3,0.3s0.2,0.3,0.3,0.3s0.3-0.2,0.3-0.3S17,10.4,16.8,10.4 M16.8,15.2c-0.2,0-0.3,0.2-0.3,0.3
		s0.2,0.3,0.3,0.3s0.3-0.2,0.3-0.3S17,15.2,16.8,15.2"/>
</g>
</svg>
