<?xml version="1.0" encoding="UTF-8"?>
<svg width="22px" height="22px" viewBox="0 0 22 22" version="1.1" xmlns="http://www.w3.org/2000/svg" xmlns:xlink="http://www.w3.org/1999/xlink">
    <title>icon check NO Copy</title>
    <defs>
        <filter id="filter-1">
            <feColorMatrix in="SourceGraphic" type="matrix" values="0 0 0 0 0.858824 0 0 0 0 0.164706 0 0 0 0 0.105882 0 0 0 1.000000 0"></feColorMatrix>
        </filter>
    </defs>
    <g id="Page-1" stroke="none" stroke-width="1" fill="none" fill-rule="evenodd">
        <g id="Desktop-Lehrer-Schulklasse-XY-Detailsansicht" transform="translate(-1050.000000, -778.000000)">
            <g id="Card" transform="translate(320.000000, 216.000000)">
                <g id="Liste-Schüler" transform="translate(32.000000, 410.000000)">
                    <g id="Liste-Schulklassen" transform="translate(0.000000, 49.000000)">
                        <g id="icon-check-NO-Copy" transform="translate(698.000000, 103.000000)" filter="url(#filter-1)">
                            <g id="Group" fill="#FFFFFF" fill-rule="nonzero">
                                <path d="M3.14285714,4.29078014 C3.14285714,6.66051258 5.07762662,8.58156028 7.46428571,8.58156028 C9.85094481,8.58156028 11.7857143,6.66051258 11.7857143,4.29078014 C11.7857143,1.9210477 9.85094481,-5.5432412e-16 7.46428571,-5.5432412e-16 C5.07762662,-5.5432412e-16 3.14285714,1.9210477 3.14285714,4.29078014 Z" id="Path"></path>
                                <path d="M11.2498571,18.1913475 L12.0072857,17.4392908 C12.0811756,17.3661101 12.1227023,17.2667447 12.1227023,17.1631206 C12.1227023,17.0594965 12.0811756,16.960131 12.0072857,16.8869504 L11.2498571,16.1348936 C10.3367005,15.2279875 9.99395095,13.8990099 10.3557143,12.6679433 C10.4102309,12.4758132 10.3098688,12.2738193 10.1231429,12.1998582 C9.50651275,11.9571731 8.85844064,11.8022136 8.19814286,11.7395745 C6.10151868,11.5348846 4.0153608,12.2190671 2.45401395,13.623436 C0.892667097,15.0278049 0.00141611562,17.0216822 -1.11656716e-15,19.1134752 L-1.11656716e-15,20.2836879 C-1.11656716e-15,21.1454088 0.703552536,21.8439716 1.57142857,21.8439716 L9.9,21.8439716 C10.0179839,21.8439716 10.1297318,21.7913683 10.2043607,21.7006341 C10.2789896,21.6098998 10.3085968,21.4906668 10.285,21.3758865 C10.0474542,20.2208412 10.4099097,19.0245463 11.2498571,18.1913475 Z" id="Path"></path>
                                <path d="M19.2295714,17.4392908 C19.0774025,17.2861746 19.0774025,17.0400665 19.2295714,16.8869504 L21.6542857,14.4794326 C22.0869925,14.0183536 22.0742247,13.299843 21.6254057,12.8542071 C21.1765867,12.4085713 20.4529439,12.395894 19.9885714,12.8255319 L17.5638571,15.2330496 C17.4096473,15.3841394 17.1617813,15.3841394 17.0075714,15.2330496 L14.5828571,12.8255319 C14.1184847,12.395894 13.3948419,12.4085713 12.9460229,12.8542071 C12.4972039,13.299843 12.4844361,14.0183536 12.9171429,14.4794326 L15.3418571,16.8869504 C15.4940261,17.0400665 15.4940261,17.2861746 15.3418571,17.4392908 L12.9171429,19.8468085 C12.6018307,20.1385357 12.472037,20.5778881 12.5786799,20.9925075 C12.6853227,21.407127 13.0113936,21.7308852 13.4289746,21.8367718 C13.8465556,21.9426583 14.2890462,21.8137851 14.5828571,21.5007092 L17.0075714,19.0931915 C17.1617813,18.9421018 17.4096473,18.9421018 17.5638571,19.0931915 L19.9885714,21.5007092 C20.4529439,21.9303472 21.1765867,21.9176699 21.6254057,21.472034 C22.0742247,21.0263981 22.0869925,20.3078876 21.6542857,19.8468085 L19.2295714,17.4392908 Z" id="Path"></path>
                            </g>
                        </g>
                    </g>
                </g>
            </g>
        </g>
    </g>
</svg>