<svg xmlns="http://www.w3.org/2000/svg" width="24" height="24" viewBox="0 0 24 24">
  <g fill="none" fill-rule="evenodd" stroke="currentColor" stroke-linecap="round" stroke-linejoin="round" stroke-width="1.5" transform="translate(1 1)">
    <line x1=".5" x2="21.5" y1="3.5" y2="3.5"/>
    <path d="M13.25,0.5 L8.75,0.5 C7.92157288,0.5 7.25,1.17157288 7.25,2 L7.25,3.5 L14.75,3.5 L14.75,2 C14.75,1.17157288 14.0784271,0.5 13.25,0.5 Z"/>
    <line x1="8.75" x2="8.75" y1="16.25" y2="8.75"/>
    <line x1="13.25" x2="13.25" y1="16.25" y2="8.75"/>
    <path d="M17.865,20.124 C17.8004867,20.9017323 17.1504035,21.5 16.37,21.5 L5.631,21.5 C4.85059655,21.5 4.20051335,20.9017323 4.136,20.124 L2.75,3.5 L19.25,3.5 L17.865,20.124 Z"/>
  </g>
</svg>
