<?xml version="1.0" encoding="UTF-8"?>
<svg width="41px" height="41px" viewBox="0 0 41 41" version="1.1" xmlns="http://www.w3.org/2000/svg" xmlns:xlink="http://www.w3.org/1999/xlink">
    <title>Kreuz</title>
    <g id="Kreuz" stroke="none" stroke-width="1" fill="none" fill-rule="evenodd">
        <g fill="#D90000" fill-rule="nonzero">
            <path d="M23.4580078,32.6357422 L23.4580078,23.5444336 L23.4580078,23.5444336 L32.6069336,23.5444336 C33.7115031,23.5444336 34.6069336,22.6490031 34.6069336,21.5444336 L34.6069336,19.2353516 C34.6069336,18.1307821 33.7115031,17.2353516 32.6069336,17.2353516 L23.4580078,17.2353516 L23.4580078,17.2353516 L23.4580078,8 C23.4580078,6.8954305 22.5625773,6 21.4580078,6 L19.1489258,6 C18.0443563,6 17.1489258,6.8954305 17.1489258,8 L17.1489258,17.2353516 L17.1489258,17.2353516 L8,17.2353516 C6.8954305,17.2353516 6,18.1307821 6,19.2353516 L6,21.5444336 C6,22.6490031 6.8954305,23.5444336 8,23.5444336 L17.1489258,23.5444336 L17.1489258,23.5444336 L17.1489258,32.6357422 C17.1489258,33.7403117 18.0443563,34.6357422 19.1489258,34.6357422 L21.4580078,34.6357422 C22.5625773,34.6357422 23.4580078,33.7403117 23.4580078,32.6357422 Z" transform="translate(20.303467, 20.317871) rotate(-44.000000) translate(-20.303467, -20.317871) "></path>
        </g>
    </g>
</svg>