<?xml version="1.0" encoding="utf-8"?>
<!-- Generator: Adobe Illustrator 24.3.0, SVG Export Plug-In . SVG Version: 6.00 Build 0)  -->
<svg version="1.1" id="Ebene_1" xmlns="http://www.w3.org/2000/svg" xmlns:xlink="http://www.w3.org/1999/xlink" x="0px" y="0px"
	 viewBox="0 0 31 31" style="enable-background:new 0 0 31 31;" xml:space="preserve">
<style type="text/css">
	.st0{fill:#FFFFFF;}
</style>
<g>
	<g>
		<polygon class="st0" points="11.5,30.5 11.5,19.5 0.5,19.5 0.5,11.5 11.5,11.5 11.5,0.5 19.5,0.5 19.5,11.5 30.5,11.5 30.5,19.5 
			19.5,19.5 19.5,30.5 		"/>
		<path class="st0" d="M19,1v10v1h1h10v7H20h-1v1v10h-7V20v-1h-1H1v-7h10h1v-1V1H19 M20,0h-9v11H0v9h11v11h9V20h11v-9H20V0L20,0z"/>
	</g>
</g>
</svg>
