<?xml version="1.0" encoding="UTF-8"?>
<svg width="30px" height="27px" viewBox="0 0 30 27" version="1.1" xmlns="http://www.w3.org/2000/svg" xmlns:xlink="http://www.w3.org/1999/xlink">
    <title>icon_team</title>
    <g id="Page-1" stroke="none" stroke-width="1" fill="none" fill-rule="evenodd">
        <g id="icon_team" transform="translate(1.000000, 1.000000)" stroke="#fff" stroke-width="2">
            <path d="M13,0 C15.209139,0 17,1.790861 17,4 C17,4.4600986 16.9223185,4.90205371 16.7793555,5.31346531 C19.004237,5.82679816 20.910915,6.94268258 22.205257,8.4259006 C22.7439067,8.15310221 23.3540739,8 24,8 C26.209139,8 28,9.790861 28,12 C28,14.209139 26.209139,16 24,16 C23.7623677,16 23.5295753,15.9792782 23.303331,15.9395431 C22.4522616,17.6625815 20.8737798,19.0931713 18.8706757,19.9885665 C18.9551621,20.3113641 19,20.6504458 19,21 C19,23.209139 17.209139,25 15,25 C12.790861,25 11,23.209139 11,21 C11,20.8776665 11.0054917,20.7566157 11.016242,20.6370806 C8.51594828,20.0133695 6.43724457,18.6247867 5.20728436,16.8137733 C4.82660487,16.9349928 4.42089405,17 4,17 C1.790861,17 0,15.209139 0,13 C0,10.790861 1.790861,9 4,9 C4.42089405,9 4.82660487,9.06500719 5.20763978,9.1855289 C6.17218668,7.76548882 7.65943834,6.60473099 9.46282984,5.86892081 C9.16747204,5.31200271 9,4.67555895 9,4 C9,1.790861 10.790861,0 13,0 Z"></path>
            <path d="M0,13 C0,15.209139 1.790861,17 4,17 C6.209139,17 8,15.209139 8,13 C8,10.790861 6.209139,9 4,9 C1.790861,9 0,10.790861 0,13 Z" ></path>
            <path d="M20,12 C20,14.209139 21.790861,16 24,16 C26.209139,16 28,14.209139 28,12 C28,9.790861 26.209139,8 24,8 C21.790861,8 20,9.790861 20,12 Z"></path>
            <path d="M9,4 C9,6.209139 10.790861,8 13,8 C15.209139,8 17,6.209139 17,4 C17,1.790861 15.209139,0 13,0 C10.790861,0 9,1.790861 9,4 Z"></path>
            <path d="M11,21 C11,23.209139 12.790861,25 15,25 C17.209139,25 19,23.209139 19,21 C19,18.790861 17.209139,17 15,17 C12.790861,17 11,18.790861 11,21 Z" ></path>
        </g>
    </g>
</svg>