<svg xmlns="http://www.w3.org/2000/svg" width="24" height="24" viewBox="0 0 24 24">
  <g fill="#FFF">
    <path d="M12,0 C5.372583,0 0,5.372583 0,12 C0,18.627417 5.372583,24 12,24 C18.627417,24 24,18.627417 24,12 C23.9928352,5.37555305 18.624447,0.00716484761 12,0 Z M12,21 C7.02943725,21 3,16.9705627 3,12 C3,7.02943725 7.02943725,3 12,3 C16.9705627,3 21,7.02943725 21,12 C20.9944889,16.9682782 16.9682782,20.9944889 12,21 L12,21 Z"/>
    <path d="M17.25,10.568 L13.682,10.568 C13.5439288,10.568 13.432,10.4560712 13.432,10.318 L13.432,6.75 C13.430353,6.22325176 13.0037482,5.79664696 12.477,5.795 L11.523,5.795 C10.9962518,5.79664696 10.569647,6.22325176 10.568,6.75 L10.568,10.318 C10.568,10.4560712 10.4560712,10.568 10.318,10.568 L6.75,10.568 C6.22341356,10.5690979 5.7966496,10.995415 5.795,11.522 L5.795,12.477 C5.79664696,13.0037482 6.22325176,13.430353 6.75,13.432 L10.318,13.432 C10.4560712,13.432 10.568,13.5439288 10.568,13.682 L10.568,17.25 C10.5696496,17.776585 10.9964136,18.2029021 11.523,18.204 L12.477,18.204 C13.0035864,18.2029021 13.4303504,17.776585 13.432,17.25 L13.432,13.682 C13.432,13.5439288 13.5439288,13.432 13.682,13.432 L17.25,13.432 C17.7767482,13.430353 18.203353,13.0037482 18.205,12.477 L18.205,11.522 C18.2033504,10.995415 17.7765864,10.5690979 17.25,10.568 Z"/>
  </g>
</svg>
