<?xml version="1.0" encoding="UTF-8"?>
<svg width="34px" height="34px" viewBox="0 0 34 34" version="1.1" xmlns="http://www.w3.org/2000/svg" xmlns:xlink="http://www.w3.org/1999/xlink">
    <title>icon LogIn</title>
    <g id="Symbols" stroke="none" stroke-width="1" fill="none" fill-rule="evenodd" stroke-linecap="round" stroke-linejoin="round">
        <g id="Nav-Stripe-N1" transform="translate(-1202.000000, -16.000000)" stroke="#FFFFFF" stroke-width="2.12121212">
            <g id="Path" transform="translate(1203.000000, 17.000000)">
                <path d="M0.0909090909,27.6666667 C0.0909090909,30.0096929 1.99030712,31.9090909 4.33333333,31.9090909 C6.67635954,31.9090909 8.57575758,30.0096929 8.57575758,27.6666667 C8.57575758,25.3236405 6.67635954,23.4242424 4.33333333,23.4242424 C1.99030712,23.4242424 0.0909090909,25.3236405 0.0909090909,27.6666667 Z"></path>
                <polyline points="8.57575758 27.6666667 19.1818182 27.6666667 19.1818182 30.8484848"></polyline>
                <line x1="14.9393939" y1="27.6666667" x2="14.9393939" y2="29.7878788"></line>
                <path d="M8.57575758,20.2424242 L8.57575758,14.9393939 C8.57575758,13.7678808 9.52545659,12.8181818 10.6969697,12.8181818 L29.7878788,12.8181818 C30.9593919,12.8181818 31.9090909,13.7678808 31.9090909,14.9393939 L31.9090909,29.7878788 C31.9090909,30.9593919 30.9593919,31.9090909 29.7878788,31.9090909 L23.4242424,31.9090909"></path>
                <path d="M12.8181818,12.8181818 L12.8181818,7.51515152 C12.8181818,3.41485569 16.1421284,0.0909092015 20.2424242,0.0909092015 C24.3427201,0.0909092015 27.6666667,3.41485569 27.6666667,7.51515152 L27.6666667,12.8181818"></path>
                <path d="M17.2925253,23.5557576 C16.6884897,22.0628154 17.2952214,20.3539644 18.7054765,19.5762011 C20.1157315,18.7984377 21.8847427,19.1970536 22.8251334,20.504494 C23.7655241,21.8119345 23.5807132,23.615858 22.3947475,24.7054545"></path>
            </g>
        </g>
    </g>
</svg>