<svg xmlns="http://www.w3.org/2000/svg" width="24" height="24" viewBox="0 0 24 24">
  <defs>
    <filter id="card-chaty-a">
      <feColorMatrix in="SourceGraphic" values="0 0 0 0 1.000000 0 0 0 0 1.000000 0 0 0 0 1.000000 0 0 0 1.000000 0"/>
    </filter>
  </defs>
  <g fill="none" fill-rule="evenodd" stroke-linecap="round" stroke-linejoin="round">
    <g filter="url(#card-chaty-a)">
      <path stroke="currentColor" stroke-width="1.5" d="M21.5,21.7499998 C21.5,22.5784271 20.8284271,23.2499998 20,23.2499998 L2,23.2499998 C1.17157288,23.2499998 0.5,22.5784271 0.5,21.7499998 L0.5,2.24999976 C0.5,1.42157288 1.17157288,0.749999759 2,0.749999759 L17.045,0.749999759 C17.4365438,0.749999759 17.8126547,0.902663066 18.093,1.176 L21.047,4.059 C21.3366114,4.34129213 21.5,4.72857002 21.5,5.133 L21.5,21.7499998 Z"/>
    </g>
    <path stroke="currentColor" stroke-width="1.25" d="M6.88888889 11.3C6.39796911 11.3 6 10.8970563 6 10.4L6 5.9C6 5.40294373 6.39796911 5 6.88888889 5L13.1111111 5C13.6020309 5 14 5.40294373 14 5.9L14 10.4C14 10.8970563 13.6020309 11.3 13.1111111 11.3L12.2222222 11.3 12.2222222 14 9.55555556 11.3 6.88888889 11.3zM4.55555556 7.2L2.77777778 9 2.77777778 6.3.888888889 6.3C.397969111 6.3 0 5.89705627 0 5.4L0 .9C0 .402943725.397969111 0 .888888889 0L7.11111111 0C7.60203089 0 8 .402943725 8 .9L8 2.7" transform="translate(4 5)"/>
  </g>
</svg>
