<svg xmlns="http://www.w3.org/2000/svg" width="32" height="32" viewBox="0 0 32 32">
  <g fill="none" fill-rule="evenodd" stroke="#fff" stroke-linecap="round" stroke-linejoin="round" stroke-width="2.121" transform="translate(1 1)">
    <path d="M0.0852272727,25.9375 C0.0852272727,28.1340871 1.86591293,29.9147727 4.0625,29.9147727 C6.25908707,29.9147727 8.03977273,28.1340871 8.03977273,25.9375 C8.03977273,23.7409129 6.25908707,21.9602273 4.0625,21.9602273 C1.86591293,21.9602273 0.0852272727,23.7409129 0.0852272727,25.9375 Z"/>
    <polyline points="8.04 25.938 17.983 25.938 17.983 28.92"/>
    <line x1="14.006" x2="14.006" y1="25.938" y2="27.926"/>
    <path d="M8.03977273 18.9772727L8.03977273 14.0056818C8.03977273 12.9073883 8.93011555 12.0170455 10.0284091 12.0170455L27.9261364 12.0170455C29.0244299 12.0170455 29.9147727 12.9073883 29.9147727 14.0056818L29.9147727 27.9261364C29.9147727 29.0244299 29.0244299 29.9147727 27.9261364 29.9147727L21.9602273 29.9147727M12.0170455 12.0170455L12.0170455 7.04545455C12.0170455 3.20142721 15.1332454.0852273764 18.9772727.0852273764 22.8213001.0852273764 25.9375 3.20142721 25.9375 7.04545455L25.9375 12.0170455"/>
    <path d="M16.2117424,22.0835227 C15.6454591,20.6838895 16.21427,19.0818416 17.5363842,18.3526885 C18.8584983,17.6235353 20.5169463,17.9972377 21.3985626,19.2229632 C22.2801788,20.4486886 22.1069186,22.1398669 20.9950758,23.1613636"/>
  </g>
</svg>
