<?xml version="1.0" encoding="UTF-8"?>
<svg width="132px" height="136px" viewBox="0 0 132 136" version="1.1" xmlns="http://www.w3.org/2000/svg" xmlns:xlink="http://www.w3.org/1999/xlink">
    <title>Group 31</title>
    <g id="Symbols" stroke="none" stroke-width="1" fill="none" fill-rule="evenodd">
        <g id="Icon-Calendar" transform="translate(0.000000, 4.000000)" stroke="#000000" stroke-width="8.75">
            <g id="Group-31">
                <g id="Group-6">
                    <path d="M127.25,22.25 L127.25,127.25 L4.75,127.25 L4.75,22.25 L127.25,22.25 Z" id="Stroke-1"></path>
                    <line x1="0.375" y1="52.8752" x2="131.625" y2="52.8752" id="Stroke-3" stroke-linejoin="round"></line>
                    <line x1="35.375" y1="31.0002" x2="35.375" y2="0.3752" id="Stroke-4" stroke-linecap="round" stroke-linejoin="round"></line>
                    <line x1="96.625" y1="31.0002" x2="96.625" y2="0.3752" id="Stroke-5" stroke-linecap="round" stroke-linejoin="round"></line>
                </g>
                <line x1="28.8125" y1="74.7502" x2="28.8125" y2="74.7502" id="Stroke-7" stroke-linecap="round" stroke-linejoin="round"></line>
                <g id="Group-30" transform="translate(26.000000, 74.000000)" stroke-linecap="round" stroke-linejoin="round">
                    <path d="M2.8125,0.7502 C1.6045,0.7502 0.6245,1.7292 0.6245,2.9382 C0.6245,4.1462 1.6045,5.1252 2.8125,5.1252 C4.0205,5.1252 5.0005,4.1462 5.0005,2.9382 C5.0005,1.7292 4.0205,0.7502 2.8125,0.7502" id="Stroke-8"></path>
                    <line x1="2.8125" y1="31.3752" x2="2.8125" y2="31.3752" id="Stroke-10"></line>
                    <path d="M2.8125,31.3752 C1.6045,31.3752 0.6245,32.3542 0.6245,33.5632 C0.6245,34.7712 1.6045,35.7502 2.8125,35.7502 C4.0205,35.7502 5.0005,34.7712 5.0005,33.5632 C5.0005,32.3542 4.0205,31.3752 2.8125,31.3752" id="Stroke-12"></path>
                    <line x1="40" y1="0.7502" x2="40" y2="0.7502" id="Stroke-14"></line>
                    <path d="M40,0.7502 C38.792,0.7502 37.812,1.7292 37.812,2.9382 C37.812,4.1462 38.792,5.1252 40,5.1252 C41.208,5.1252 42.188,4.1462 42.188,2.9382 C42.188,1.7292 41.208,0.7502 40,0.7502" id="Stroke-16"></path>
                    <line x1="40" y1="31.3752" x2="40" y2="31.3752" id="Stroke-18"></line>
                    <path d="M40,31.3752 C38.792,31.3752 37.812,32.3542 37.812,33.5632 C37.812,34.7712 38.792,35.7502 40,35.7502 C41.208,35.7502 42.188,34.7712 42.188,33.5632 C42.188,32.3542 41.208,31.3752 40,31.3752" id="Stroke-20"></path>
                    <line x1="77.1875" y1="0.7502" x2="77.1875" y2="0.7502" id="Stroke-22"></line>
                    <path d="M77.1875,0.7502 C75.9795,0.7502 74.9995,1.7292 74.9995,2.9382 C74.9995,4.1462 75.9795,5.1252 77.1875,5.1252 C78.3955,5.1252 79.3755,4.1462 79.3755,2.9382 C79.3755,1.7292 78.3955,0.7502 77.1875,0.7502" id="Stroke-24"></path>
                    <line x1="77.1875" y1="31.3752" x2="77.1875" y2="31.3752" id="Stroke-26"></line>
                    <path d="M77.1875,31.3752 C75.9795,31.3752 74.9995,32.3542 74.9995,33.5632 C74.9995,34.7712 75.9795,35.7502 77.1875,35.7502 C78.3955,35.7502 79.3755,34.7712 79.3755,33.5632 C79.3755,32.3542 78.3955,31.3752 77.1875,31.3752" id="Stroke-28"></path>
                </g>
            </g>
        </g>
    </g>
</svg>