<svg xmlns="http://www.w3.org/2000/svg" width="22" height="22" viewBox="0 0 22 22">
  <g fill="none">
    <path fill="#FFF" d="M9.83333333 12.25C9.37309604 12.25 9 12.6417508 9 13.125 9 13.6082492 9.37309604 14 9.83333333 14L13.1666667 14C13.626904 14 14 13.6082492 14 13.125 14 12.6417508 13.626904 12.25 13.1666667 12.25L12.3333333 12.25 12.3333333 8.75C12.3333333 7.78350169 11.5871412 7 10.6666667 7L9.83333333 7C9.37309604 7 9 7.39175084 9 7.875 9 8.35824916 9.37309604 8.75 9.83333333 8.75L10.6666667 8.75 10.6666667 12.25 9.83333333 12.25zM10.0833333 4.81158333C10.0833333 5.44440961 10.5963404 5.95741667 11.2291667 5.95741667 11.8619929 5.95741667 12.375 5.44440961 12.375 4.81158333 12.375 4.17875706 11.8619929 3.66575 11.2291667 3.66575 10.5963404 3.66575 10.0833333 4.17875706 10.0833333 4.81158333L10.0833333 4.81158333z"/>
    <path stroke="#FFF" stroke-width="2" d="M20.1666667,1 C20.387567,1 20.5827573,1.10538921 20.7258698,1.26151439 C20.8991197,1.45051713 21,1.71328885 21,2.00003045 L21,2.00003045 L21,15.500236 C21,15.7869776 20.8991197,16.0497493 20.7258698,16.238752 C20.5827573,16.3948772 20.387567,16.5002664 20.1666667,16.5002664 L20.1666667,16.5002664 L10.9508062,16.5002664 L5.558,20.573 L5.125,16.5002664 L1.81715941,16.5002664 C1.61070167,16.5089642 1.4152191,16.4165234 1.26934907,16.2615275 C1.09338783,16.0745578 1.00055195,15.8163962 1,15.5522368 L1,15.5522368 L1,2.00003045 C1,1.71328885 1.10088029,1.45051713 1.27413017,1.26151439 C1.41724274,1.10538921 1.61243295,1 1.83333333,1 L1.83333333,1 Z"/>
  </g>
</svg>
