<svg xmlns="http://www.w3.org/2000/svg" width="24" height="24" viewBox="0 0 24 24">
  <g fill="#FFF">
    <path d="M12,-1.77635684e-15 C5.372583,-1.77635684e-15 0,5.372583 0,12 C0,18.627417 5.372583,24 12,24 C18.627417,24 24,18.627417 24,12 C23.9922852,5.37578119 18.6242188,0.0077147623 12,-1.77635684e-15 Z M12,22 C6.4771525,22 2,17.5228475 2,12 C2,6.4771525 6.4771525,2 12,2 C17.5228475,2 22,6.4771525 22,12 C21.9939376,17.5203344 17.5203344,21.9939376 12,22 L12,22 Z"/>
    <path d="M20.764,11.545 C20.638,11.3 17.61,5.5 12,5.5 C6.39,5.5 3.36,11.3 3.234,11.545 C3.08798858,11.8307625 3.08798858,12.1692375 3.234,12.455 C3.36,12.7 6.389,18.5 12,18.5 C17.611,18.5 20.639,12.7 20.765,12.455 C20.9116886,12.1693153 20.9113162,11.8303616 20.764,11.545 Z M12,16.5 C8.426,16.5 6.048,13.227 5.282,12 C6.047,10.773 8.425,7.5 12,7.5 C15.575,7.5 17.953,10.773 18.719,12 C17.952,13.227 15.574,16.5 12,16.5 Z"/>
    <path d="M9.499,12 C9.499,13.3807119 10.6182881,14.5 11.999,14.5 C13.3797119,14.5 14.499,13.3807119 14.499,12 C14.499,11.106836 14.0225027,10.2815185 13.249,9.83493649 C12.4754973,9.3883545 11.5225027,9.3883545 10.749,9.83493649 C9.97549731,10.2815185 9.499,11.106836 9.499,12 Z"/>
  </g>
</svg>
