<svg xmlns="http://www.w3.org/2000/svg" width="22" height="22" viewBox="0 0 22 22">
  <defs>
    <filter id="icon_check_yes-a">
      <feColorMatrix in="SourceGraphic" values="0 0 0 0 1.000000 0 0 0 0 1.000000 0 0 0 0 1.000000 0 0 0 1.000000 0"/>
    </filter>
  </defs>
  <g fill="none" fill-rule="evenodd" filter="url(#icon_check_yes-a)">
    <path fill="#000" fill-rule="nonzero" d="M3 4.5C3 6.98528137 5.01471863 9 7.5 9 9.98528137 9 12 6.98528137 12 4.5 12 2.01471863 9.98528137 0 7.5 0 5.01471863 0 3 2.01471863 3 4.5zM9.62745493 20.9862825C8.73032053 20.0320042 8.43641579 18.6098902 8.87455228 17.34322 9.31268877 16.0765498 10.4029312 15.1964195 11.6674518 15.0885697 11.8036725 15.0769427 11.9220825 14.9845679 11.9734684 14.8498382 12.0248542 14.7151084 12.0004285 14.5610635 11.910343 14.4517275 10.7985733 13.0814153 9.23547565 12.2165657 7.54263889 12.0351112 5.61315491 11.8332578 3.69333052 12.5081898 2.25672633 13.8934227.820122143 15.2786556.000487273255 17.2452229 0 19.3080341L0 20.4617337C0 21.3112947.647298152 22 1.44578089 22L9.70841866 22C9.85454725 21.9996564 9.98610541 21.9057286 10.0417917 21.7619836 10.097478 21.6182387 10.0663357 21.4529595 9.9628761 21.3431603L9.62745493 20.9862825zM15.3214286 22.0000035C15.0087495 22.0007696 14.7087913 21.8762586 14.4885714 21.6542857L12.1314286 19.2971429C11.6987218 18.8327704 11.7114896 18.1091276 12.1603086 17.6603086 12.6091276 17.2114896 13.3327704 17.1987218 13.7971429 17.6314286L15.0432857 18.8775714C15.1974955 19.0297404 15.4453616 19.0297404 15.5995714 18.8775714L19.9885714 14.4885714C20.4529439 14.0558646 21.1765867 14.0686325 21.6254057 14.5174515 22.0742247 14.9662704 22.0869925 15.6899132 21.6542857 16.1542857L16.1542857 21.6542857C15.9340658 21.8762586 15.6341076 22.0007696 15.3214286 22.0000035L15.3214286 22.0000035z"/>
  </g>
</svg>
