<svg xmlns="http://www.w3.org/2000/svg" width="32" height="32" viewBox="0 0 32 32">
  <path fill="none" stroke="#fff" stroke-linecap="round" stroke-linejoin="round" stroke-width="2" d="M0 9L0 2.24962506C0 1.00719145 1.00735931 2.84217094e-13 2.25 2.84217094e-13L9 2.84217094e-13M30 9L30 2.24962506C30 1.00719145 28.9926407 2.84217094e-13 27.75 2.84217094e-13L21 2.84217094e-13M0 21L0 27.75C0 28.9926407 1.00735931 30 2.25 30L9 30M30 21L30 27.75C30 28.9926407 28.9926407 30 27.75 30L21 30M9 10C9 13.3137085 11.6862915 16 15 16 18.3137085 16 21 13.3137085 21 10 21 6.6862915 18.3137085 4 15 4 11.6862915 4 9 6.6862915 9 10zM24 25C22.589788 20.808023 18.7788996 18 14.5 18 10.2211004 18 6.41021198 20.808023 5 25" transform="translate(1 1)"/>
</svg>
