<?xml version="1.0" encoding="UTF-8"?>
<svg width="578px" height="543px" viewBox="0 0 578 543" version="1.1" xmlns="http://www.w3.org/2000/svg" xmlns:xlink="http://www.w3.org/1999/xlink">
    <title>Screen Logo GLAS plants</title>
    <defs>
        <path d="M0,0 L578,0 L578,543 L0,543 L0,0 Z" id="path-1"></path>
        <filter x="-6.0%" y="-5.9%" width="112.0%" height="113.9%" filterUnits="objectBoundingBox" id="filter-2">
            <feOffset dx="0" dy="4" in="SourceAlpha" result="shadowOffsetOuter1"></feOffset>
            <feGaussianBlur stdDeviation="8" in="shadowOffsetOuter1" result="shadowBlurOuter1"></feGaussianBlur>
            <feColorMatrix values="0 0 0 0 0.658823529   0 0 0 0 0.815686275   0 0 0 0 0.839215686  0 0 0 0.46 0" type="matrix" in="shadowBlurOuter1" result="shadowMatrixOuter1"></feColorMatrix>
            <feMerge>
                <feMergeNode in="shadowMatrixOuter1"></feMergeNode>
                <feMergeNode in="SourceGraphic"></feMergeNode>
            </feMerge>
        </filter>
        <path d="M0,0 L226,0 L226,226 L0,226 L0,0 Z" id="path-3"></path>
        <polygon id="path-4" points="2.84217094e-14 0 67.5051072 0 67.5051072 163.871964 2.84217094e-14 163.871964"></polygon>
        <polygon id="path-6" points="0 0 30.2684312 0 30.2684312 50.6926969 0 50.6926969"></polygon>
    </defs>
    <g id="Screen-Logo-GLAS-plants" stroke="none" fill="none" xlink:href="#path-1" fill-rule="evenodd">
        <use fill="#FFFFFF" xlink:href="#path-1"></use>
        <g id="Group" filter="url(#filter-2)" stroke-width="1" transform="translate(72, 84)" stroke="#DDE3E9">
            <rect id="Rectangle" stroke-width="10" fill="#F5FCFF" x="5" y="5" width="423" height="365" rx="45"></rect>
            <path d="M428,46 L428,76.9999996 L5.00000005,76.9999996 L5,46 C5,25.4543515 20.5656456,8.30604189 40.8391128,6.21647755 L45.126162,6.00000036 L388,6 C410.09139,6 428,23.90861 428,46 Z" id="Rectangle-Copy" stroke-width="10" fill="#DDE3E9"></path>
        </g>
        <g id="Plant" stroke-width="1" transform="translate(440, 252)">
            <g id="Succulents" transform="translate(13, 0)">
                <path d="M3.38092413,0.208187006 C12.213925,21.197225 27.2292006,35.7805339 35.1818951,57.6048833 C39.8977667,70.5473636 41.863552,84.6195065 41.9827844,99.0319481 C42.0475621,106.860255 41.9112966,114.693588 41.8746494,122.521895 C41.8390346,130.156002 41.6315393,137.74129 40.9835037,145.326577 C40.3323712,152.952069 39.603299,160.486743 39.2817329,168.159259 C39.0313966,174.137461 38.9170678,181.09097 36.890634,186.544007 C35.2791907,190.880662 31.1834821,191.51603 30.0967128,186.256476 C29.4928087,183.332706 29.5689419,180.068279 29.6355262,177.063384 C29.7209502,173.208101 29.9452206,169.358561 30.0595494,165.503996 C30.5191876,150.036197 29.9232839,134.565527 30.2347849,119.091626 C30.5390596,103.9731 32.4823921,88.871087 30.3320805,73.8534305 C28.5564992,61.4519104 24.045542,50.802498 18.8615156,40.5931767 C13.873887,30.7708195 8.44546012,21.187174 5.07495258,10.0143908 C4.10715753,6.80560332 3.35898744,3.48051124 3,0.0301404047 C3.15691184,-0.0427294746 3.28388655,0.0164997376 3.38092413,0.208187006 Z" id="Thi-Succs!" fill="#C1DEE2"></path>
                <path d="M0.973588404,41.6169557 C2.7226644,42.8799919 3.70001184,44.7275773 4.88222633,46.55055 C6.35238241,48.8169596 8.08078375,50.8630865 9.55056393,53.131137 C12.6152999,57.8596264 15.3078921,62.8785444 18.1016022,67.7986018 C23.4055915,77.1374401 27.4326388,87.0907728 29.4271794,97.8948808 C31.4946451,109.09156 32.052109,120.648403 32.9193169,132.012037 C33.8391512,144.05621 34.7653759,156.188167 34.8871684,168.278693 C34.9416743,173.695515 35.2345026,179.445837 34.5841907,184.824509 C34.1793433,188.173053 32.6682138,191.026883 29.2614062,191 C22.0249003,190.94238 18.6274903,182.927289 17.2080811,176.353675 C15.118813,166.674363 14.7019367,156.392862 15.0327312,146.494087 C15.432316,134.55821 17.5039166,122.801595 18.4004449,110.911661 C19.3499755,98.3247808 18.8135622,85.9602344 14.4861685,74.1088605 C12.2999174,68.1197961 9.76257314,62.2743052 7.48422591,56.3250312 C6.51402064,53.7919851 5.71936199,51.1900238 4.40896463,48.831317 C2.95121334,46.2076145 1.14161698,43.8259359 -3.0475622e-14,41 C0.324404167,41.2059254 0.649184237,41.4114405 0.973588404,41.6169557 Z" id="Thi-Succs!" fill="#89C5CC"></path>
                <path d="M84.3341427,16.5176702 C84.5560133,16.345237 84.7781571,16.1728402 85,16 C84.3609397,18.6926575 83.2065589,20.8798938 82.3241537,23.3413066 C81.5309592,25.5541267 81.1289139,28.058225 80.5946654,30.4769505 C79.3401416,36.1577567 77.8904265,41.7105156 76.7055048,47.4397171 C74.3598951,58.7767524 74.8035283,70.9901843 76.3418843,83.5681524 C77.7947507,95.4496261 80.092478,107.312713 81.1873452,119.191609 C82.0949201,129.04307 82.4850091,139.201741 81.6192928,148.601 C81.0309846,154.984369 79.1025548,162.605994 73.8481376,161.961759 C71.3744617,161.658503 70.0840672,158.681129 69.5641892,155.320205 C68.7291114,149.921644 68.5543005,144.245802 68.2287956,138.877693 C67.5023548,126.895908 67.3576487,114.950973 67.2142162,103.092499 C67.078414,91.904007 66.7045185,80.493842 67.4521172,69.5872699 C68.1731866,59.0630547 70.4284885,49.5797393 73.6530782,40.8297246 C75.3514544,36.2198206 76.9696914,31.5020505 78.8779164,27.1084404 C79.7930343,25.0009936 80.9110333,23.1387509 81.826535,21.0329683 C82.5626976,19.3391662 83.148338,17.6010976 84.3341427,16.5176702 Z" id="Thi-Succs!" fill="#C1DEE2"></path>
                <path d="M3.20880772,76.3018223 C4.16572159,74.6953252 6.27206517,79.9934093 6.59263271,80.6597751 C6.45704992,80.3283084 6.32092787,79.9973172 6.18360206,79.666614 C8.08298767,82.8249267 9.82062484,86.1127294 10.9009829,89.7341519 C11.9700503,93.3191128 12.888301,96.9765376 13.89141,100.586979 C15.7735895,107.360999 18.2016657,113.942756 19.9069626,120.7778 C21.5685818,127.438224 21.9875459,133.985891 21.5852981,140.875198 C21.1672391,148.035491 20.9114736,155.305643 21.3991881,162.462075 C21.632116,165.880018 22.7427231,169.063767 23.5039187,172.354313 C24.2660416,175.648102 24.8662939,178.985809 25.7672782,182.238759 C25.974095,181.814996 26.0004407,183.231705 26,183.339248 C25.99434,184.151918 25.8808641,184.833382 25.6194022,185.603962 C24.9475372,187.585538 23.69062,189.268993 21.7779741,189.815552 C18.3215161,190.803119 15.1122443,187.659032 13.9975999,184.339008 C12.398575,179.575285 11.5174472,174.310953 10.7554023,169.304056 C10.0567643,164.712777 9.89144111,160.094092 10.0990013,155.439587 C10.5078659,146.260651 12.1689639,137.201885 12.618303,128.025744 C13.1073521,118.035719 11.1280407,108.649277 9.47082403,98.9248264 C8.67258323,94.2391921 7.90974363,89.5977685 6.35630439,85.1336672 C5.7273694,83.3259909 4.90736765,81.7307159 4.04759418,80.0614309 C3.55838288,79.1117083 2.56905129,77.4176151 3.20880772,76.3018223 Z" id="Thi-Succs!" fill="#C1DEE2"></path>
                <path d="M31.2520927,60.6970481 C30.8556379,72.1418193 30.1720216,83.4997745 28.6461885,94.8239462 C27.0889362,106.380282 25.300327,117.896941 23.8019539,129.46349 C22.3433779,140.722452 20.8145443,152.168401 21.0183676,163.584496 C21.1684795,171.99346 19.7741408,186.218697 29.1133695,190.368969 C38.572085,194.57188 40.6010206,176.62338 41.2221153,170.699078 C42.4123367,159.332874 42.027006,147.846855 41.4493767,136.418583 C40.8563654,124.689401 39.8664321,113.01993 38.6395466,101.333567 C37.2768349,88.3528226 36.2076085,75.3135458 35.3494633,62.2958749 C34.92489,55.8569635 34.820295,49.4286586 34.9374389,42.9881759 C35.048171,36.9106701 34.8172608,30.7703111 32.6564941,25 C32.5432773,25.0821019 32.4308129,25.1642038 32.3175887,25.2459129" id="Thi-Succs!" fill="#69A1AC"></path>
                <path d="M80.0827466,96.9552251 C78.3816844,99.4332953 76.6669438,101.887253 75.0605101,104.512188 C72.1861393,109.208575 69.5869207,114.431593 68.8049844,121.146824 C67.1686355,135.200365 68.4814231,150.378956 68.7982735,164.862679 C68.863082,167.822444 68.4887518,170.692884 69.6553203,173.509621 C70.713019,176.063863 72.6905254,178.01037 74.5755064,178 C78.6108036,177.976942 77.9951288,168.09535 78.0017787,163.745849 C78.0139471,156.122577 77.1591232,148.422037 77.232697,140.805889 C77.3061571,133.260434 77.7650203,125.694154 78.8589994,118.527917 C79.96657,111.274547 81.5885624,104.309427 83.7291347,97.809562 C84.0261843,96.9075488 86.1579416,89.9374968 84.1438969,91.1387197" id="Thi-Succs!" fill="#89C5CC"></path>
                <path d="M62.262195,22 C59.6091513,22 59.625416,35.2259973 59.5456053,36.9248132 C59.257379,43.055394 59.3250857,49.1876151 59.1427693,55.3194261 C58.7437159,68.7008304 58.2535042,82.1995075 56.243485,95.4263249 C55.1613125,102.546754 53.9066581,109.63561 52.557063,116.701913 C51.2036854,123.788718 49.3869518,130.866913 48.4965519,138.043518 C47.6417075,144.942523 48.1247324,151.977253 48.2419898,158.910292 C48.3592472,165.885155 48.5699324,172.87396 49.4837837,179.787726 C49.7092206,181.494333 49.9736172,183.194789 50.256548,184.891145 C50.4921976,186.304569 50.3548929,188.057511 50.7535682,189.400818 C51.3928102,191.552324 54.1328514,192.256371 55.9779537,191.920134 C60.9704721,191.008604 64.1594958,184.739838 65.8650239,180.159637 C68.0429859,174.311167 69.1985389,167.967363 70.3389619,161.803978 C71.6310631,154.821324 72.3883191,147.732059 72.7434956,140.623111 C73.4655743,126.17518 72.5388625,111.711667 71.5039711,97.310071 C70.928275,89.3006645 70.263312,81.3265219 69.2458201,73.3667309 C68.2324891,65.4409736 66.9324447,57.5504802 66.0859217,49.6013503 C65.4708876,43.8246382 64.8649315,38.0401352 64.4666346,32.2412807 C64.3713156,30.8586094 64.2911267,22 62.262195,22" id="Thi-Succs!" fill="#69A1AC"></path>
                <path d="M58.9407927,118.138703 C58.5083549,104.252695 52.9265288,43.2589078 51.6565806,26.4671323 C51.3390091,22.2641696 48.2815387,4.76463908 47.8849122,-1.2490009e-14 C46.809561,1.346742 46.901454,22.3094454 46.9132785,27.1261944 C46.9257786,31.8908335 46.3348929,36.5764535 46.0308351,41.3154647 C45.7210339,46.1510074 38.5722965,108.600882 37.6445823,113.247206 C35.7989512,122.490734 34.5638007,131.976445 33.6110862,141.427558 C32.6830341,150.639478 31.2401108,160.357975 32.4820181,169.618161 C32.7674946,171.749969 33.2191894,173.847606 33.9546715,175.805999 C34.749276,177.922003 35.2938774,179.878687 35.9317231,182.09293 C36.9580872,185.659469 38.8148671,188.78948 41.667943,190.261798 C47.51734,193.280756 50.6582574,186.44667 52.2505069,180.496744 C54.7934439,170.994802 56.4255588,161.337812 57.190771,151.358766 C58.0374031,140.318301 59.2870808,129.255197 58.9407927,118.138703" id="Thi-Succs!" fill="#89C5CC"></path>
            </g>
            <g id="Planter" transform="translate(0, 159)">
                <rect id="Vase" fill="#EDEDED" x="10" y="0" width="91" height="91" rx="2"></rect>
                <rect id="Leg" fill="#C5CFD6" x="0" y="10" width="10" height="113" rx="2"></rect>
                <rect id="Leg" fill="#C5CFD6" x="50" y="10" width="10" height="113" rx="2"></rect>
                <rect id="Leg" fill="#C5CFD6" x="101" y="10" width="10" height="113" rx="2"></rect>
            </g>
        </g>
        <g id="Group" stroke-width="1" transform="translate(110, 115)" fill="#98AAB2">
            <circle id="Oval" cx="14" cy="14" r="14"></circle>
            <circle id="Oval-Copy" cx="59.5" cy="14" r="14"></circle>
            <circle id="Oval-Copy-2" cx="105" cy="14" r="14"></circle>
        </g>
        <g id="Artboard-1-Copy" transform="translate(173, 198)" xlink:href="#path-3">
            <g id="Group-3" stroke-width="1" transform="translate(158.4949, 0.0002)">
                <mask id="mask-5" fill="white">
                    <use xlink:href="#path-4"></use>
                </mask>
                <g id="Clip-2"></g>
                <path d="M7.60160721,0.101964063 C7.15760721,-0.120035937 6.56460721,0.0279640625 6.34260721,0.472964063 L0.122607214,11.2969641 C-0.0253927855,11.5189641 -0.0253927855,11.7419641 0.0486072145,11.9639641 C0.122607214,12.1859641 0.270607214,12.4089641 0.493607214,12.5569641 C32.9996072,31.3139641 53.1406072,66.1589641 53.1406072,103.597964 C53.1406072,141.037964 48.2526072,140.296964 38.9976072,156.235964 C38.8496072,156.458964 38.8496072,156.680964 38.9236072,156.902964 C38.9236072,157.125964 39.1456072,157.347964 39.3676072,157.496964 L50.1786072,163.723964 C50.3266072,163.797964 50.4746072,163.871964 50.6226072,163.871964 C50.9186072,163.871964 51.2146072,163.723964 51.4366072,163.427964 C61.9516072,145.337964 67.5056072,124.652964 67.5056072,103.597964 C67.5056072,61.1169641 44.5506072,21.4539641 7.67560721,0.101964063 L7.60160721,0.101964063 Z" id="Fill-1" fill="#CF253F" mask="url(#mask-5)"></path>
            </g>
            <path d="M152.1017,24.3452 C151.6577,24.1232 151.0647,24.2712 150.8427,24.7162 L144.6227,35.5402 C144.4747,35.7622 144.4747,35.9852 144.5487,36.2072 C144.5487,36.4292 144.7707,36.6522 144.9937,36.8002 C168.8357,50.5162 183.6457,76.0932 183.6457,103.5982 C183.6457,131.1032 180.0167,130.5102 173.2787,142.2242 C173.1307,142.4462 173.1307,142.6692 173.2047,142.8912 C173.2787,143.1142 173.4267,143.3362 173.6497,143.4842 L184.4597,149.7122 C184.6077,149.7862 184.7557,149.8602 184.9047,149.8602 C185.2007,149.8602 185.4967,149.7122 185.7187,149.4152 C193.7897,135.5522 198.0107,119.6862 198.0107,103.5982 C198.0107,71.0522 180.4617,40.6552 152.1757,24.3452 L152.1017,24.3452 Z" id="Fill-4" fill="#CF253F"></path>
            <path d="M138.1069,48.5883 C137.6629,48.3663 137.0699,48.5143 136.8479,48.9593 L130.6279,59.7833 C130.4799,60.0053 130.4799,60.2283 130.5539,60.4503 C130.5539,60.6723 130.7759,60.8953 130.9989,61.0433 C146.2519,69.7913 155.6559,86.1023 155.6559,103.5983 C155.6559,121.0953 153.3609,120.7243 148.9919,128.2123 C148.8439,128.4343 148.8439,128.6573 148.9179,128.8793 C148.9179,129.1023 149.1399,129.3243 149.3619,129.4723 L160.1729,135.7003 C160.3209,135.7743 160.4689,135.8483 160.6169,135.8483 C160.9129,135.8483 161.2089,135.7003 161.4319,135.4033 C167.0589,125.7653 170.0209,114.7933 170.0209,103.5983 C170.0209,80.9863 157.8029,59.9313 138.1809,48.5883 L138.1069,48.5883 Z" id="Fill-6" fill="#CF253F"></path>
            <path d="M102.1944,205.3156 L102.1944,205.3156 C99.6024,204.3516 97.5294,202.4986 96.3444,199.9776 L96.3444,199.8296 C95.2344,195.6036 94.0494,190.8586 90.1244,187.9676 L84.2754,183.2966 C81.6834,181.2206 80.7214,177.6626 81.7574,173.9556 C82.3504,171.9536 83.3124,162.0196 83.3124,161.6486 C83.3124,161.3516 83.1644,160.9816 82.9424,160.8326 C82.6464,160.6106 82.3504,160.6106 82.0534,160.7586 L53.8424,174.0296 C53.3974,174.2516 53.2494,174.6966 53.3234,175.1416 C53.3974,175.4376 55.7674,183.4446 56.6554,185.7436 C58.2104,189.8206 61.3204,193.3796 65.5414,195.9006 C67.9114,197.3826 69.8364,199.6066 70.8724,202.2016 L78.7214,221.7746 C79.8324,224.4436 82.4244,225.9996 85.1634,225.9996 C87.9034,225.9996 86.9404,225.8516 87.7554,225.4806 L103.5274,218.9566 C106.2674,217.6226 107.8224,215.3246 107.7474,212.6556 C107.7474,209.6156 105.5264,206.5756 102.3424,205.2416 L102.1944,205.3156 Z" id="Fill-8" fill="#000000"></path>
            <g id="Group-12" stroke-width="1" transform="translate(0, 122.8174)">
                <mask id="mask-7" fill="white">
                    <use xlink:href="#path-6"></use>
                </mask>
                <g id="Clip-11"></g>
                <path d="M30.0732,1.53969688 C30.2952,1.24269688 30.3692,0.798696875 30.0732,0.427696875 C29.7772,0.0566968754 29.4812,-0.0913031246 29.0362,0.0566968754 C27.9262,0.353696875 26.5192,0.723696875 24.9642,1.16869688 C18.1522,3.02269688 7.8592,5.83969688 2.2322,8.50869688 C2.0092,8.58269688 1.7872,8.80569688 1.7132,9.10169688 C-1.2488,18.9616969 -0.8778,35.7916969 6.8962,49.3586969 C6.8962,49.4326969 7.0452,49.5806969 7.1192,49.6546969 C8.0812,50.3966969 9.6362,50.6926969 11.1912,50.6926969 C12.7462,50.6926969 14.0052,50.3966969 14.9682,50.0256969 C15.1902,49.9516969 15.4122,49.7296969 15.4862,49.5066969 C15.5602,49.2846969 15.5602,48.9876969 15.4862,48.7656969 C10.0802,37.1256969 10.7472,20.9636969 11.1172,13.9206969 C12.0802,13.6986969 13.0422,13.4756969 13.9312,13.2536969 C16.4482,12.6606969 18.8922,12.1416969 21.2612,11.3256969 C21.4102,11.3256969 21.5582,11.1776969 21.6322,11.0296969 C22.7422,9.69469688 23.7792,8.50869688 24.8902,7.32269688 C26.3712,5.61769688 28.0002,3.83769688 29.9252,1.46569688 L30.0732,1.53969688 Z" id="Fill-10" fill="#000000" mask="url(#mask-7)"></path>
            </g>
            <path d="M58.6552,165.9484 C58.8772,165.8744 59.0992,165.6514 59.1732,165.3554 C59.2472,165.0584 59.1732,164.8364 59.0992,164.6144 C52.5092,154.0124 45.7712,138.0724 50.9542,122.4294 C52.7312,117.0174 54.8792,112.7914 57.9152,108.7144 C58.2112,108.3434 58.1372,107.8244 57.8402,107.5274 C57.5442,107.2314 57.0262,107.1574 56.6562,107.4534 C54.6562,108.9364 48.5852,114.0524 42.8832,119.1674 C22.3722,137.3314 21.4102,145.9314 26.6672,171.8794 C26.7412,172.3244 27.1112,172.6204 27.5562,172.6204 L28.3702,172.6204 C30.2952,172.6204 32.4432,172.3244 34.6642,172.0274 C34.8862,172.0274 35.1822,171.8794 35.2562,171.6574 C35.4042,171.4344 35.4782,171.2124 35.4042,170.9154 C32.2202,156.1624 31.8502,144.1514 39.6992,131.6224 C38.5142,137.7764 39.4032,143.9294 40.5882,148.5264 C42.4392,156.0144 46.1412,163.4274 50.7322,168.9884 C50.9542,169.2844 51.3982,169.4324 51.7692,169.2844 C53.7682,168.4694 55.0272,167.8764 56.7302,167.0604 C57.3222,166.7644 58.0632,166.4674 58.8772,166.0964 L58.6552,165.9484 Z" id="Fill-13" fill="#000000"></path>
            <path d="M69.0217,130.8071 C69.6137,122.8001 70.5767,117.5361 72.8717,110.7161 C73.0207,115.7571 74.2047,120.2051 76.8707,126.3591 C74.6497,127.6191 73.0207,128.5091 71.2427,129.5471 L69.0217,130.8071 Z M62.1357,164.1691 C62.2837,164.2431 62.4317,164.2431 62.5797,164.2431 C62.7277,164.2431 62.8757,164.2431 62.9497,164.1691 C64.8007,163.3531 66.0597,162.6861 67.5407,162.0191 L70.4287,160.6851 C70.7987,160.5361 71.0207,160.0911 70.9467,159.7211 C70.5767,157.5711 70.4287,155.7911 70.2067,153.7161 C70.0587,151.9361 69.8357,149.9351 69.5397,147.2661 L71.1687,146.4501 C75.8337,144.0781 79.0177,142.4471 84.5717,139.8521 C85.1637,140.7411 85.7557,141.5571 86.2747,142.3721 C88.6437,145.7831 90.3467,148.3041 93.5307,150.7501 C93.7527,150.9721 94.1237,150.9721 94.4197,150.8981 L103.7497,147.4141 C104.0457,147.3401 104.2677,147.0431 104.3417,146.7471 C104.4157,146.4501 104.3417,146.1541 104.1197,145.9311 C90.1247,129.9911 81.9057,104.4881 83.2387,81.0611 C83.2387,80.6901 83.0167,80.3191 82.6467,80.1711 C82.2757,80.0231 81.8317,80.1711 81.6097,80.4671 C80.0547,82.3951 77.3887,86.3981 75.0937,89.9571 C74.2787,91.1431 73.6127,92.2551 72.9457,93.2191 C57.9887,118.2041 57.3967,135.1071 61.7647,163.5761 C61.7647,163.8721 61.9877,164.0951 62.2097,164.2431 L62.1357,164.1691 Z" id="Fill-15" fill="#000000"></path>
            <path d="M142.0314,138.8881 L142.0314,138.8881 C141.5874,138.8881 141.2164,139.1851 141.1424,139.6291 C139.9584,145.7831 138.0324,149.1931 135.7374,149.4901 C131.4424,150.0831 124.7044,141.4831 115.6704,123.9861 C107.8964,108.7141 104.7124,91.1431 102.7864,77.5021 C101.2314,64.2311 102.1944,49.7001 107.0814,47.6241 C109.4514,46.5861 113.0054,48.6621 117.3744,53.7781 C117.6704,54.0741 118.1144,54.2231 118.5584,54.0001 C118.9294,53.7781 119.1514,53.3331 119.0034,52.8881 C118.9294,52.5921 116.7814,46.1421 112.3384,40.5811 C109.0064,36.3551 104.7864,34.0571 100.7874,34.2051 C97.9734,34.2801 95.5304,35.6141 93.9754,37.9121 C89.6804,44.1401 87.3854,55.3351 87.6074,68.6051 C87.8294,84.3971 91.1614,101.7451 94.2714,111.9021 C100.8614,133.3281 108.9324,147.7851 120.2614,158.8311 C122.1874,160.6851 127.3704,165.2071 132.7754,165.9481 C133.2944,166.0221 133.8124,166.0221 134.3304,166.0221 C136.5524,166.0221 138.4774,165.2811 139.9584,163.7241 C146.1044,157.4221 143.2164,140.2971 143.1424,139.6291 C143.0684,139.1851 142.6974,138.8881 142.2534,138.8881 L142.0314,138.8881 Z" id="Fill-17" fill="#000000"></path>
            <path d="M113.8938,77.4279 C113.6718,77.6499 113.5978,78.0209 113.6718,78.3179 L125.7408,121.4659 C125.8148,121.7619 126.1118,122.0589 126.4078,122.1329 L126.6298,122.1329 C126.9258,122.1329 127.1478,122.0589 127.2958,121.8369 C131.7388,116.7949 134.2568,110.2709 134.2568,103.5989 C134.2568,91.4399 126.4818,80.8379 114.8568,77.2059 C114.5598,77.1309 114.1898,77.2059 113.9678,77.4279 L113.8938,77.4279 Z" id="Fill-19" fill="#CF253F"></path>
        </g>
        <g id="Group" stroke-width="1" transform="translate(150.4499, 177.2073) rotate(-122) translate(-150.4499, -177.2073)translate(66.1418, 45.7073)">
            <path d="M23.7360736,87.935297 C37.6568005,87.3950469 54.8727601,93.4732988 56.3579684,104.792386 C57.4367974,113.016699 57.1026981,121.217364 58.7722824,129.429392 C60.1073754,135.992482 62.9309179,142.292784 66.7818779,148.271122 C70.4848479,154.019936 78.1661971,158.913576 80.164026,165.055063 C81.4373219,168.968288 80.7245751,174.473075 78.9685885,178.300837 C76.833054,182.954803 77.9680677,182.586977 82.2231974,186.492027 C90.5613084,194.144789 98.0693673,201.992439 103.378727,211.132414 C111.026546,224.297224 116.040552,239.685524 113.20212,254.096093 C112.840953,255.926126 112.41287,262.493114 109.044211,262.952133 C105.281886,263.465326 107.041121,259.709528 107.241983,258.496299 C108.522056,250.75515 109.659492,243.98858 108.11537,236.126494 C102.15706,205.79201 73.0655561,185.805877 54.1230104,160.060329 C53.0816789,158.732647 50.883344,155.571168 49.3548458,153.485446 C46.9417027,150.192552 44.5157075,143.926757 41.2489465,141.485098 C35.0964862,136.885193 40.7527657,146.132652 41.9516052,147.898032 C43.4673634,150.13113 45.1348629,152.504472 46.688117,154.461218 C53.7951247,163.531392 61.7279001,173.432279 69.0679539,182.782032 C37.3229009,188.192566 14.9659874,159.644262 6.44703758,140.875476 C-0.571887581,125.412072 -8.96977084,89.2584311 23.7360736,87.935297" id="Leaf-Me-Alone!" fill="#69A1AC"></path>
            <path d="M164.346616,2.06686031 C140.462461,20.6615082 128.923574,46.4526045 119.786777,70.6988042 C109.582135,97.7793567 102.841821,125.277725 102.583051,153.433243 C102.413515,171.931525 101.74074,190.545312 103.184137,209.022119 C103.696183,215.584151 104.57068,222.157648 105.961073,228.649138 C106.07559,229.182562 109.18641,243.676917 112.162896,240.299418 C113.855717,238.378697 108.974235,225.263649 108.605268,223.079254 C106.53037,210.775888 106.048226,198.38174 106.14942,185.989401 C106.315791,165.58585 105.51156,145.286749 108.276144,124.958215 C108.688273,121.923047 109.01445,118.735168 109.978221,115.765949 C111.001421,112.609246 109.698178,113.987207 113.031415,112.737535 C116.270166,111.522596 120.272397,111.696108 123.632827,110.172022 C136.962285,104.125858 143.780962,88.5953822 149.087874,78.4052877 C155.157945,66.7523585 158.847018,54.3262215 161.79364,42.0631841 C163.957068,33.0532146 165.504047,24.0980475 166.379471,14.9720676 C166.655233,12.0958754 166.671658,9.08815996 167.427309,6.26007875 C167.630786,5.49721574 168.65225,4.14771227 168.615221,3.47213091 C168.536732,2.04232943 167.382985,1.20143412 167.288536,0 C166.288738,0.673061588 165.307131,1.36251034 164.346616,2.06686031" id="Leaf-Me-Alone!" fill="#89C5CC"></path>
        </g>
    </g>
</svg>