<?xml version="1.0" encoding="UTF-8"?>
<svg width="578px" height="543px" viewBox="0 0 578 543" version="1.1" xmlns="http://www.w3.org/2000/svg" xmlns:xlink="http://www.w3.org/1999/xlink">
    <title>Screen Logo TFB plants</title>
    <defs>
        <path d="M0,0 L578,0 L578,543 L0,543 L0,0 Z" id="path-1"></path>
        <filter x="-6.0%" y="-5.9%" width="128.9%" height="134.9%" filterUnits="objectBoundingBox" id="filter-2">
            <feOffset dx="0" dy="4" in="SourceAlpha" result="shadowOffsetOuter1"></feOffset>
            <feGaussianBlur stdDeviation="8" in="shadowOffsetOuter1" result="shadowBlurOuter1"></feGaussianBlur>
            <feColorMatrix values="0 0 0 0 0.658823529   0 0 0 0 0.815686275   0 0 0 0 0.839215686  0 0 0 0.46 0" type="matrix" in="shadowBlurOuter1" result="shadowMatrixOuter1"></feColorMatrix>
            <feMerge>
                <feMergeNode in="shadowMatrixOuter1"></feMergeNode>
                <feMergeNode in="SourceGraphic"></feMergeNode>
            </feMerge>
        </filter>
        <path d="M0,0 L378,0 L378,137 L0,137 L0,0 Z" id="path-3"></path>
    </defs>
    <g id="Screen-Logo-TFB-plants" stroke="none" fill="none" xlink:href="#path-1" fill-rule="evenodd">
        <use fill="#FFFFFF" xlink:href="#path-1"></use>
        <path d="M93.1026222,25.5385446 C90.8723858,24.9303081 88.4098617,24.9768596 86.1380965,25.027035 C73.9546261,25.2338688 61.9906653,32.4348647 54.2042334,43.9409037 C47.5755895,53.7362427 45.7528835,65.9146311 44.4433556,78.2254266 C44.3135208,79.4477534 44.2578448,80.6622751 44.1845989,81.8871106 C44.1688544,82.1499735 44.1453518,82.3844038 44.1202519,82.6051753 C43.6052485,83.1799615 43.3350828,83.8500809 43.639932,84.5862645 C42.5054184,87.685706 41.5456912,90.8637555 40.7221877,94.1415982 C38.2984543,103.789756 35.8329638,113.621333 37.3517333,123.766784 C37.706554,118.183664 38.4529325,112.474548 39.3455747,106.983137 C39.3969153,106.667869 39.4523631,106.355109 39.5100928,106.043465 C39.5160255,106.010572 39.5215018,105.977679 39.5274345,105.945065 C39.8434646,104.263356 40.2541895,102.6321 40.7536766,101.026489 C40.7589248,101.008928 40.7639447,100.991646 40.7694211,100.974363 C40.8353653,100.763069 40.9054167,100.55289 40.9745554,100.342711 C41.1176245,99.9075797 41.2645728,99.4732843 41.4204201,99.041219 C41.4731298,98.894038 41.5237859,98.7454633 41.5723883,98.5957736 C42.2995996,96.3707765 42.6067306,93.8636826 43.258186,91.5614713 C43.4140333,91.0379754 43.5769541,90.5164308 43.7476332,89.9976736 C43.7576731,89.9672897 43.7679412,89.9369057 43.7782094,89.9065218 C44.2395904,88.5105326 44.7493456,87.1315474 45.288308,85.7670572 C45.5812918,85.4922079 45.7378236,84.8103809 45.9904194,84.1907156 C46.0426728,84.0686223 46.4511159,83.2543883 46.5727361,82.7852489 C46.8901352,82.0186814 47.2063934,81.2518352 47.5260743,80.4866614 C47.5164907,80.4911214 47.5069071,80.4955815 47.4973236,80.5000415 C47.8172326,79.7652517 48.1380545,79.0335282 48.4563663,78.3048709 C48.5264177,78.1448673 48.5971536,77.984585 48.6676614,77.824024 C48.7819799,77.5684086 48.8962983,77.3130719 49.0103886,77.0582927 C50.0775888,74.6741284 51.209136,72.3376306 52.3842657,70.030123 C52.8036614,69.2066901 53.8056021,68.0258974 53.9977301,67.1012776 C54.0048037,67.0667124 54.0064009,67.0349347 54.0107364,67.0017632 C56.5606536,62.5308627 59.4961959,58.4070083 63.0165649,55.1394794 C62.5910083,55.7137082 61.6865007,57.6624621 61.4473675,58.0482547 C60.7155926,59.2296049 59.9210681,60.3292808 59.1235772,61.4423369 C57.6953953,63.4362487 56.3009842,65.4934371 55.061964,67.6688163 C52.7961315,71.6471624 50.841309,75.8340147 48.9935032,80.1050502 C48.9759333,80.1301378 48.9567661,80.1538317 48.940109,80.1794769 C48.0114143,81.6086375 47.4268158,83.7686854 46.7582469,85.4035648 C49.404,83.8737748 52.3295023,82.877237 55.0448505,81.5188794 C57.7526686,80.1647031 60.3867845,78.6566557 62.9298563,76.8857454 C66.3098943,74.5322437 69.8161161,71.8749026 73.0097306,68.8677279 C76.6695179,66.0336581 79.7449348,62.1328051 82.4595984,58.0393346 C85.6714674,53.1960217 88.614996,48.3103385 90.4354202,42.4295113 C91.3296596,39.5396911 92.0331401,36.5263839 92.4502541,33.477954 C92.4685085,33.3449894 92.491783,33.2008747 92.517111,33.0511849 C92.9438086,31.9983393 93.3253264,30.9217998 93.6454636,29.8204513 C94.1538498,28.0737924 95.3545357,26.1523561 93.1026222,25.5385446" id="Fill-10" fill="#69A1AC" transform="translate(65.6538, 74.3834) scale(-1, 1) rotate(-13) translate(-65.6538, -74.3834)"></path>
        <path d="M89.6828606,54.1793301 C87.1038839,51.9961385 83.6743421,51.4240283 80.5881167,51.4240283 C68.5338992,51.4240283 57.2034949,57.0072481 47.4153582,65.3263663 C42.0519461,69.8847267 37.2539677,75.6896173 33.018043,81.7335241 C30.573061,85.2223382 28.39293,88.9966196 26.8494551,93.1942507 C25.8079174,96.0274606 25.0930372,98.9794437 24.6084832,102.024329 C24.0179405,105.735107 23.5488381,109.521148 23.3366193,113.293666 C23.2530839,114.779212 22.5616226,122.662045 24.5401579,122.795518 C24.5288106,122.989847 24.5261549,123.175062 24.5382265,123.341168 C20.2421852,131.727023 17.5878817,141.554913 15.1264823,150.872725 C12.9849804,158.98105 11.0767017,167.157876 9.83791409,175.546082 C8.20704084,186.589633 7.13580701,197.799289 6.62638546,209.001596 C6.51701676,211.409105 6.4419314,213.817789 6.37722762,216.228531 C6.32242256,218.284717 6.26689319,220.340904 6.21281242,222.397091 C6.15245442,224.701407 5.82748693,227.354399 6.12106826,229.645192 C6.37650333,231.640228 7.75966733,231.338298 7.82074963,229.352963 C7.89462782,226.955451 7.88255622,224.553235 7.96657456,222.153958 C8.07835758,218.969721 8.19352065,215.785483 8.318341,212.602128 C9.18725481,190.488273 12.4470698,168.699575 18.4630727,147.810789 C20.8976731,139.35761 23.68742,131.355416 27.2729269,123.535792 C30.4253046,116.660473 34.2172358,110.004473 38.0931854,103.805338 C41.8604905,97.7811285 45.777242,91.8962719 50.3931807,86.7922605 C54.1389983,82.650488 58.259277,79.0423127 62.4947188,75.6849134 C67.8743069,71.4208398 73.2435135,67.2602518 79.0707165,63.9869344 C82.0997225,62.2855973 85.1859479,60.7624199 88.2386143,59.1298771 C88.7878721,58.8361782 89.3767248,58.551299 89.9049781,58.2111492 C91.6671903,57.0766305 91.0870292,55.3679435 89.6828606,54.1793301" id="Fill-1" fill="#C1DEE2" transform="translate(48.5, 141.212) scale(-1, 1) translate(-48.5, -141.212)"></path>
        <path d="M53.5806694,116.416961 C48.6916723,116.416961 44.3412281,117.210023 39.8365546,119.635547 C35.9481165,121.728919 32.4044795,124.500194 28.9639648,127.517324 C24.1244845,131.760674 20.3125932,136.69941 17.6443601,143.243138 C16.0502799,147.152393 14.8809546,152.684121 15.9514733,156.948005 C17.2125638,161.969988 20.6751113,166.158395 25.2354344,165.273485 C28.0553981,164.726834 30.6404974,162.396487 32.7838061,160.20322 C35.3477811,157.579291 37.4002332,154.42425 39.0949371,150.920128 C41.8594783,145.204148 43.4839954,138.742279 45.8324131,132.769344 C46.9467701,129.934524 48.0236487,127.079447 49.3583331,124.385314 C50.0190882,123.05115 50.7225459,121.729751 51.724922,120.738286 C52.2612035,120.208006 54.5223987,119.290075 53.6576704,118.099095 C66.3360365,118.306934 77.5677374,130.462584 80.0015603,145.50883 C80.2282477,146.911255 80.4054182,148.325058 80.5925829,149.736086 C80.7106965,150.6271 80.6629968,153.912839 81.3010377,154.481967 C82.7081803,155.737602 82.1167034,151.923248 82.0562837,151.374099 C81.9002374,149.954746 81.7337426,148.536504 81.5590707,147.120759 C80.6087099,139.420182 77.8625673,132.26154 73.2829371,126.76977 C68.045959,120.489934 60.9800362,116.416961 53.5806694,116.416961" id="Fill-20" fill="#89C5CC"></path>
        <g id="Group" filter="url(#filter-2)" stroke-width="1" transform="translate(72, 84)">
            <rect id="Rectangle" stroke="#DDE3E9" stroke-width="10" fill="#F5FCFF" x="5" y="5" width="423" height="365" rx="45"></rect>
            <path d="M428,46 L428,76.9999996 L5.00000005,76.9999996 L5,46 C5,25.4543515 20.5656456,8.30604189 40.8391128,6.21647755 L45.126162,6.00000036 L388,6 C410.09139,6 428,23.90861 428,46 Z" id="Rectangle-Copy" stroke="#DDE3E9" stroke-width="10" fill="#DDE3E9"></path>
            <g id="Plant" transform="translate(370, 176)">
                <path d="M9.93785602,35.7363701 C28.6043474,67.0518486 50.3448762,97.3738414 63.400835,131.612719 C62.8747124,127.576998 62.316848,123.545457 61.6924335,119.519653 C58.3796628,98.1788894 54.2624276,76.9938487 49.9359142,55.8347788 C47.7325965,45.061608 45.4023236,34.3274793 43.0122847,23.5942683 C41.7268475,17.8294571 40.457171,12.0611334 39.145247,6.30181171 C38.8274703,4.90590411 38.5544351,2.4694293 38.1565942,0 C50.8449133,41.636678 63.0807311,83.3047517 72.0307975,125.94239 C73.204927,131.538126 74.2047864,137.123918 75.0238081,142.699993 C75.3039851,141.427955 75.5795646,140.155702 75.8811982,138.88715 C79.5025613,123.679846 84.9347228,108.59358 91.4026624,94.3744557 C94.494721,87.5745292 98.0463864,80.9235176 102.228151,74.7261293 C104.835821,70.8630236 110.985519,66.2708832 113.364361,62.3144999 C100.354578,86.1759773 95.6569872,116.031633 88.1451337,141.973334 C86.3116359,148.30385 84.4667482,154.62409 82.659084,160.955464 C93.9872772,138.237255 111.563216,119.571486 136,111.482566 C106.420215,131.026943 88.6779699,165.254031 76.7221336,200.259757 C76.682738,200.674905 76.6358989,201.090058 76.5954089,201.505863 C80.1135643,194.828835 84.5452103,188.789483 90.5514934,184.559607 C103.406592,175.504479 117.667098,178.142392 130.137007,185.909854 C120.350227,179.688703 102.662664,185.353659 94.4280037,191.676694 C88.5328799,196.203004 83.4948291,202.275393 79.119821,208.199601 C78.071517,209.619676 76.6413193,211.276578 75.1303997,213.044484 C73.0120284,226.795282 69.5599117,240.451838 64.6724606,254 C65.4790179,250.11126 64.8958605,243.891877 65.11953,240.993318 C65.1438759,240.679499 65.1636243,240.365464 65.1877517,240.052521 C64.4448288,243.018848 63.7270637,245.951459 63.0359813,248.836783 C64.4097546,243.330925 65.1563919,237.583268 65.7392402,231.776207 C65.8893549,229.280566 66.0357479,226.784927 66.1904602,224.289502 C66.141426,219.553405 65.9463583,214.798592 65.6164284,210.036217 C64.4465561,205.407706 63.1367171,201.041891 62.0564998,197.41118 C58.158506,184.310429 52.4441742,171.759576 45.4108456,160.050843 C38.9937018,149.366014 31.3123836,139.687606 22.4447835,130.934599 C17.6643455,126.217405 12.6613846,121.724669 7.7288832,117.169517 C5.94526254,115.52278 2.75721952,111.473853 0,109.363232 C20.0804874,120.433766 40.7488532,132.410494 55.3976085,150.247606 C53.6802099,143.652644 51.8148695,137.151008 49.841671,130.779652 C39.8311473,98.4544622 27.1913357,64.9525261 9.93785602,35.7363701 Z" id="Fill-19" fill="#69A1AC"></path>
                <path d="M30,213 C30,248.898509 32.8428117,278 71,278 C109.157188,278 112,248.898509 112,213" id="Base" fill="#9FC3CA"></path>
            </g>
        </g>
        <circle id="Oval" fill="#98AAB2" cx="125" cy="128" r="14"></circle>
        <circle id="Oval-Copy" fill="#98AAB2" cx="170.5" cy="128" r="14"></circle>
        <circle id="Oval-Copy-2" fill="#98AAB2" cx="216" cy="128" r="14"></circle>
        <g id="Group-Copy" stroke-width="1" transform="translate(100, 241)">
            <g id="Logo-Teach-for-Bulgaria" xlink:href="#path-3">
                <path d="M46.4953769,66.6515035 C68.048473,61.5285274 68.048473,40.4556669 68.048473,36.1249036 L68.048473,4.27794911 C68.048473,1.32035466 66.6716167,-3.00213893e-14 63.9179042,-3.00213893e-14 L4.55421687,-3.00213893e-14 C1.5886803,-3.00213893e-14 0.26478005,1.37316885 0.26478005,4.27794911 L0.26478005,11.3022359 C0.26478005,14.0485736 1.64163631,15.4217425 4.55421687,15.4217425 L50.7848137,15.4217425 L50.7848137,38.6599846 C50.7848137,41.9872783 50.7848137,59.3631457 28.4373774,59.3631457 L20.3351079,59.3631457 C17.4225273,59.3631457 16.0456711,60.7363146 16.0456711,63.6410948 L16.0456711,71.0878951 C16.0456711,73.8342328 17.4225273,75.3658443 20.3351079,75.3658443 L28.3844214,75.3658443 C51.3143738,75.3658443 51.3143738,93.5339244 51.3143738,97.4421742 L51.3143738,121.261372 L4.28943682,121.261372 C1.32390025,121.261372 0,122.634541 0,125.539322 L0,132.563608 C0,135.309946 1.37685626,136.683115 4.28943682,136.683115 L64.4474643,136.683115 C67.2011768,136.683115 68.5780331,135.309946 68.5780331,132.405166 L68.5780331,99.8188126 C68.6309891,94.7486507 68.6309891,71.8272938 46.4953769,66.6515035" id="Fill-1" fill="#00C19F"></path>
                <path d="M332.140095,105.83963 C331.186887,105.786816 330.021855,105.681187 329.227515,105.681187 C323.402354,105.681187 322.078453,108.269082 322.078453,111.01542 C322.078453,114.184271 324.090782,115.821511 327.109274,115.821511 C328.962735,115.821511 330.869151,114.976484 332.140095,114.025829 L332.140095,105.83963 Z M341.036705,113.075173 C341.036705,115.346184 341.778089,115.504626 343.313813,115.610254 C345.061362,115.768697 345.432054,116.56091 345.432054,118.303778 C345.432054,121.050116 343.472681,122.000771 339.395069,122.000771 C336.111796,122.000771 333.9406,121.419815 332.828523,118.515035 C330.710283,120.46916 328.380219,122.053585 323.98487,122.053585 C317.2065,122.053585 313.340712,117.82845 313.340712,111.543562 C313.340712,104.043948 318.053797,100.29414 328.644999,100.29414 C329.968899,100.29414 331.133931,100.452583 332.140095,100.505397 L332.140095,96.7027756 C332.140095,93.9036237 329.545251,93.0057826 326.791538,93.0057826 C322.92575,93.0057826 320.013169,94.9599075 318.265621,94.9599075 C316.835808,94.9599075 315.35304,93.6395528 315.35304,91.7382421 C315.35304,90.6291442 315.935556,89.6784888 316.782852,89.0447186 C318.636313,87.6187355 323.296442,86.2983809 328.433175,86.2983809 C336.906136,86.2983809 341.036705,89.3087895 341.036705,97.3893601 L341.036705,113.075173 Z M302.114038,82.7070162 C299.201457,82.7070162 296.924349,80.4888204 296.924349,77.6896685 C296.924349,74.8905166 299.201457,72.6195066 302.114038,72.6195066 C305.026618,72.6195066 307.197815,74.8905166 307.197815,77.6896685 C307.144859,80.5416345 305.026618,82.7070162 302.114038,82.7070162 L302.114038,82.7070162 Z M295.865228,121.261372 C294.11768,121.261372 292.687868,119.835389 292.687868,118.092521 C292.687868,116.349653 294.11768,114.92367 295.865228,114.92367 L297.612777,114.92367 L297.612777,94.3261372 L294.435416,93.2170393 C293.429252,92.9001542 292.687868,92.002313 292.687868,90.8932151 C292.687868,89.7841172 293.429252,88.886276 294.700196,88.4109483 C296.024096,87.9356207 300.949005,86.3511951 303.437938,86.3511951 C305.503222,86.3511951 306.509386,87.3546646 306.509386,89.5200463 L306.509386,115.029298 L308.309891,115.029298 C310.057439,115.029298 311.487251,116.455281 311.487251,118.19815 C311.487251,119.941018 310.057439,121.367001 308.309891,121.367001 L295.865228,121.261372 Z M267.057159,121.261372 C265.309611,121.261372 263.879798,119.835389 263.879798,118.092521 C263.879798,116.349653 265.309611,114.92367 267.057159,114.92367 L268.804707,114.92367 L268.804707,94.3261372 L265.627347,93.2170393 C264.621182,92.9001542 263.879798,92.002313 263.879798,90.8932151 C263.879798,89.7841172 264.621182,88.886276 265.892127,88.4109483 C267.216027,87.9356207 272.140936,86.3511951 274.629868,86.3511951 C276.695153,86.3511951 277.701317,87.3546646 277.701317,89.5200463 L277.701317,92.4248265 C279.925469,89.2559753 282.30849,86.4040093 286.068366,86.4040093 C288.610255,86.4040093 290.516671,88.4637625 290.516671,90.9988435 C290.516671,94.1676947 288.557299,95.5408635 286.01541,95.5408635 C284.214906,95.5408635 283.473522,94.8014649 281.461194,94.8014649 C280.296161,94.8014649 278.707481,95.8049345 277.701317,96.5971473 L277.701317,114.976484 L280.190249,114.976484 C281.937798,114.976484 283.36761,116.402467 283.36761,118.145335 C283.36761,119.888204 281.937798,121.314187 280.190249,121.314187 L267.057159,121.261372 Z M248.098907,105.83963 C247.145699,105.786816 245.980667,105.681187 245.186327,105.681187 C239.361166,105.681187 238.037265,108.269082 238.037265,111.01542 C238.037265,114.184271 240.049594,115.821511 243.068086,115.821511 C244.921547,115.821511 246.827963,114.976484 248.098907,114.025829 L248.098907,105.83963 Z M256.995517,113.075173 C256.995517,115.346184 257.736901,115.504626 259.272625,115.610254 C261.020174,115.768697 261.390866,116.56091 261.390866,118.303778 C261.390866,121.050116 259.431493,122.000771 255.353881,122.000771 C252.070608,122.000771 249.899412,121.419815 248.787335,118.515035 C246.669095,120.46916 244.339031,122.053585 239.943682,122.053585 C233.165312,122.053585 229.299524,117.82845 229.299524,111.543562 C229.299524,104.043948 234.012609,100.29414 244.603811,100.29414 C245.927711,100.29414 247.092743,100.452583 248.098907,100.505397 L248.098907,96.7027756 C248.098907,93.9036237 245.504063,93.0057826 242.75035,93.0057826 C238.884562,93.0057826 235.971981,94.9599075 234.224433,94.9599075 C232.79462,94.9599075 231.311852,93.6395528 231.311852,91.7382421 C231.311852,90.6291442 231.894368,89.6784888 232.741664,89.0447186 C234.595125,87.6187355 239.255254,86.2983809 244.391987,86.2983809 C252.864948,86.2983809 256.995517,89.3087895 256.995517,97.3893601 L256.995517,113.075173 Z M215.954609,98.9209715 C215.954609,95.2239784 213.836369,93.0585968 210.447184,93.0585968 C207.110955,93.0585968 204.886803,95.1711642 204.886803,98.9209715 C204.886803,102.512336 207.110955,104.941789 210.447184,104.941789 C213.677501,104.941789 215.954609,102.512336 215.954609,98.9209715 L215.954609,98.9209715 Z M201.762398,126.067463 C201.762398,128.760987 205.840011,130.609483 210.817876,130.609483 C215.636873,130.609483 220.45587,128.866615 220.45587,125.433693 C220.45587,123.585197 218.920146,122.423285 216.748949,122.264842 C213.147941,122.053585 209.546932,121.947957 205.945923,121.789514 C205.363407,121.7367 204.727935,121.631072 204.198375,121.525443 C202.715607,122.634541 201.762398,124.324595 201.762398,126.067463 L201.762398,126.067463 Z M218.443542,114.976484 C224.957131,115.240555 228.717008,119.307247 228.717008,124.430224 C228.717008,132.141095 220.349958,137 210.288316,137 C201.285794,137 193.977865,133.197379 193.977865,127.440632 C193.977865,123.638011 196.943402,120.944487 199.803026,119.729761 C198.320258,118.515035 197.578874,116.824981 197.578874,115.134927 C197.578874,112.916731 198.796862,110.38165 201.33875,108.163454 C198.532082,106.103701 196.572709,102.882035 196.572709,98.8153431 C196.572709,91.6854279 202.291959,86.4040093 210.447184,86.4040093 C212.406556,86.4040093 214.154105,86.7208944 215.689829,87.1962221 L225.910339,87.1962221 C227.657887,87.1962221 229.0877,88.6222051 229.0877,90.3650732 C229.0877,92.1079414 227.657887,93.5339244 225.910339,93.5339244 L222.944802,93.5339244 C223.845055,95.0655359 224.268703,96.9668466 224.268703,98.8681573 C224.268703,106.103701 217.913982,111.173863 210.394228,111.173863 C208.858504,111.173863 207.640516,110.962606 206.528439,110.645721 C205.945923,111.437934 205.575231,112.071704 205.575231,112.705474 C205.575231,113.814572 206.475483,114.553971 209.811712,114.712413 L218.443542,114.976484 Z M177.402634,121.261372 C175.655085,121.261372 174.278229,119.835389 174.278229,118.092521 C174.278229,116.349653 175.708041,114.92367 177.402634,114.92367 L179.150182,114.92367 L179.150182,78.8515806 L175.655085,77.7424827 C174.648921,77.4255975 173.907537,76.5277564 173.907537,75.4186584 C173.907537,74.3095605 174.648921,73.4117194 175.919866,72.9363917 C177.243766,72.461064 182.486411,70.8766384 184.975343,70.8766384 C187.040628,70.8766384 188.046792,71.8801079 188.046792,74.0454896 L188.046792,115.029298 L189.79434,115.029298 C191.541888,115.029298 192.918745,116.455281 192.918745,118.19815 C192.918745,119.941018 191.488932,121.367001 189.79434,121.367001 L177.402634,121.261372 Z M169.6181,115.187741 C170.677221,115.610254 171.418605,116.508096 171.418605,117.617194 C171.418605,118.726291 170.677221,119.676947 169.406276,120.09946 C168.082376,120.574788 163.263379,122.106399 160.827403,122.106399 C158.232558,122.106399 157.755954,120.416345 157.755954,118.620663 L157.755954,117.036237 C155.16111,119.254433 150.977585,122.106399 146.158588,122.106399 C141.392547,122.106399 136.57355,120.046646 136.57355,110.804163 L136.57355,94.4317656 L133.078453,93.3226677 C132.019333,93.0057826 131.542729,92.1079414 131.542729,90.9988435 C131.542729,89.8897456 132.019333,88.9919044 133.290277,88.5165767 C134.614178,88.041249 139.909779,86.4568234 142.398711,86.4568234 C144.199215,86.4568234 145.47016,87.5659214 145.47016,89.3616037 L145.47016,110.751349 C145.47016,113.761758 146.741104,115.240555 149.547772,115.240555 C152.301485,115.240555 155.372934,113.28643 157.438218,111.807633 L157.438218,94.4845798 L153.890165,93.3754819 C152.884001,93.0585968 152.354441,92.1607556 152.354441,91.0516577 C152.354441,89.9425598 152.884001,89.0447186 154.154945,88.5693909 C155.478846,88.0940632 160.774447,86.5096376 163.263379,86.5096376 C165.169795,86.5096376 166.334828,87.6187355 166.334828,89.3087895 L166.334828,114.184271 L169.6181,115.187741 Z M110.413281,114.976484 C116.13253,114.976484 120.051275,113.233616 120.051275,107.635312 C120.051275,101.772938 115.708882,100.558211 110.254413,100.558211 L105.64724,100.558211 L105.64724,115.029298 L110.413281,115.029298 L110.413281,114.976484 Z M109.936677,94.4845798 C116.026618,94.4845798 119.098067,92.3720123 119.098067,87.6715497 C119.098067,83.1823439 116.344354,81.3866615 111.843093,81.3866615 L105.64724,81.3866615 L105.64724,94.4845798 L109.936677,94.4845798 Z M93.6262258,121.261372 C91.8786775,121.261372 90.5018212,119.835389 90.5018212,118.092521 C90.5018212,116.349653 91.9316335,114.92367 93.6262258,114.92367 L96.4328944,114.92367 L96.4328944,81.3866615 L93.6262258,81.3866615 C91.8786775,81.3866615 90.5018212,79.9606785 90.5018212,78.2178103 C90.5018212,76.4749422 91.9316335,75.0489591 93.6262258,75.0489591 L110.942841,75.0489591 C122.063603,75.0489591 128.259456,77.7952968 128.259456,86.5096376 C128.259456,92.6360833 124.49958,95.5408635 119.362847,96.9668466 L119.362847,97.1252891 C125.452788,98.1287587 129.371533,101.561681 129.371533,107.899383 C129.371533,117.458751 122.010647,121.261372 110.572149,121.261372 L93.6262258,121.261372 Z M354.540488,59.3103315 C352.792939,59.3103315 351.363127,57.8843485 351.363127,56.1942945 C351.363127,54.5042406 352.792939,53.0782575 354.540488,53.0782575 L356.288036,53.0782575 L356.288036,32.4807247 L353.110675,31.3716268 C352.104511,31.0547417 351.363127,30.1569005 351.363127,29.0478026 C351.363127,27.9387047 352.104511,27.0408635 353.375455,26.5655359 C354.699356,26.0902082 359.624264,24.5057826 362.113197,24.5057826 C364.178481,24.5057826 365.184646,25.5092521 365.184646,27.6218196 L365.184646,30.4737857 C367.408798,27.3577487 369.791818,24.4529684 373.551695,24.4529684 C376.093584,24.4529684 378,26.5127217 378,29.0478026 C378,32.1638396 376.040628,33.5898227 373.498739,33.5898227 C371.698235,33.5898227 370.956851,32.8504241 368.944522,32.8504241 C367.77949,32.8504241 366.19081,33.8538936 365.184646,34.6461064 L365.184646,53.0254433 L367.673578,53.0254433 C369.421126,53.0254433 370.850939,54.4514264 370.850939,56.1414803 C370.850939,57.8315343 369.421126,59.2575173 367.673578,59.2575173 L354.540488,59.3103315 Z M340.771925,42.2513493 C340.771925,35.7552043 337.753432,31.2131843 332.510787,31.2131843 C327.268142,31.2131843 324.302606,35.8080185 324.302606,42.2513493 C324.302606,48.69468 327.109274,53.3423285 332.563743,53.3423285 C338.018212,53.3423285 340.771925,48.69468 340.771925,42.2513493 L340.771925,42.2513493 Z M315.247128,42.5682344 C315.247128,31.424441 322.237321,24.4529684 332.563743,24.4529684 C342.890165,24.4529684 349.827403,30.843485 349.827403,41.9872783 C349.827403,52.8670008 342.678341,60.1028539 332.510787,60.1028539 C322.131409,60.1553585 315.247128,53.4479568 315.247128,42.5682344 L315.247128,42.5682344 Z M283.049874,59.3103315 C281.302326,59.3103315 279.872513,57.8843485 279.872513,56.1942945 C279.872513,54.5042406 281.302326,53.0782575 283.049874,53.0782575 L285.856542,53.0782575 L285.856542,19.4884348 L283.049874,19.4884348 C281.302326,19.4884348 279.872513,18.0624518 279.872513,16.3723978 C279.872513,14.6823439 281.302326,13.2563608 283.049874,13.2563608 L311.063603,13.2563608 C312.811152,13.2563608 314.346876,14.6823439 314.346876,16.3723978 L314.346876,22.1291442 C314.346876,23.8191981 313.075932,25.1395528 311.275427,25.1395528 C309.421967,25.1395528 308.362847,23.8720123 307.727375,21.9178874 L306.933034,19.4884348 L295.070888,19.4884348 L295.070888,33.3257517 L303.861586,33.3257517 C305.609134,31.0019275 306.297562,30.2097147 307.992155,30.2097147 C309.686747,30.2097147 311.169515,31.6356978 311.169515,33.3257517 L311.169515,39.5578258 C311.169515,41.3006939 309.739703,42.6738628 307.992155,42.6738628 C306.244606,42.6738628 305.39731,41.6703932 303.861586,39.4521974 L295.070888,39.4521974 L295.070888,53.0254433 L298.565985,53.0254433 C300.313533,53.0254433 301.743345,54.4514264 301.743345,56.1414803 C301.743345,57.8315343 300.313533,59.2575173 298.565985,59.2575173 L283.049874,59.3103315 Z M247.728215,59.3103315 C245.980667,59.3103315 244.550855,57.8843485 244.550855,56.1942945 C244.550855,54.5042406 245.980667,53.0782575 247.728215,53.0782575 L249.475764,53.0782575 L249.475764,36.1777178 C249.475764,32.9560524 247.887083,31.3716268 244.921547,31.3716268 C242.379658,31.3716268 239.04343,33.2729375 237.031101,34.6461064 L237.031101,53.0782575 L238.778649,53.0782575 C240.526198,53.0782575 242.326702,54.5042406 242.326702,56.1942945 C242.326702,57.8843485 240.526198,59.3103315 238.778649,59.3103315 L226.386943,59.3103315 C224.639395,59.3103315 223.209583,57.8843485 223.209583,56.1942945 C223.209583,54.5042406 224.639395,53.0782575 226.386943,53.0782575 L228.134491,53.0782575 L228.134491,16.9533539 L224.639395,15.844256 C223.633231,15.580185 222.891846,14.6295297 222.891846,13.5204318 C222.891846,12.4113338 223.633231,11.5134927 224.904175,11.038165 C226.228075,10.5628373 231.47072,8.97841172 233.959653,8.97841172 C236.024937,8.97841172 237.031101,9.98188126 237.031101,12.0944487 L237.031101,28.8365459 C239.731858,26.6711642 243.650602,24.5057826 248.045951,24.5057826 C252.811992,24.5057826 258.425329,26.6711642 258.425329,35.9664611 L258.425329,53.1838859 L260.172878,53.1838859 C261.920426,53.1838859 263.350238,54.6098689 263.350238,56.2999229 C263.350238,57.9899769 261.920426,59.4159599 260.172878,59.4159599 L247.728215,59.3103315 Z M220.45587,33.5370085 C220.45587,35.4383192 218.655366,36.6530455 216.643037,36.6530455 C214.895489,36.6530455 213.306809,35.5967618 212.830205,33.695451 L212.247688,31.2131843 L210.976744,31.2131843 C205.892967,31.2131843 202.133091,33.959522 202.133091,42.2513493 C202.133091,49.5925212 205.840011,53.2367001 211.771084,53.2367001 C214.577753,53.2367001 216.325301,52.4444873 217.966938,52.4444873 C219.66153,52.4444873 220.826562,53.5535852 220.826562,55.4548959 C220.826562,58.4124904 217.225553,60.1553585 210.182404,60.1553585 C199.114598,60.1553585 193.077613,54.3986122 193.077613,43.0435621 C193.077613,30.4737857 200.650322,24.4529684 211.612216,24.4529684 C217.384421,24.4529684 220.508826,25.9317656 220.508826,28.6781033 L220.45587,33.5370085 Z M178.355842,43.9414032 C177.402634,43.8885891 176.237602,43.7829607 175.443261,43.7829607 C169.6181,43.7829607 168.2942,46.3708558 168.2942,49.1171935 C168.2942,52.2332305 170.306528,53.9232845 173.325021,53.9232845 C175.178481,53.9232845 177.084898,53.0782575 178.355842,52.1276022 L178.355842,43.9414032 Z M187.252452,51.1769468 C187.252452,53.4479568 187.993836,53.6063994 189.52956,53.7120278 C191.277108,53.8704703 191.700757,54.6626831 191.700757,56.4055513 C191.700757,59.151889 189.741384,60.1025443 185.663771,60.1025443 C182.380499,60.1025443 180.209302,59.5215883 179.097226,56.616808 C176.978986,58.5709329 174.648921,60.1553585 170.253572,60.1553585 C163.475203,60.1553585 159.609414,55.9302236 159.609414,49.6453354 C159.609414,42.1457209 164.322499,38.3959136 174.913701,38.3959136 C176.237602,38.3959136 177.402634,38.5543562 178.408798,38.6071704 L178.408798,34.804549 C178.408798,32.0053971 175.813953,31.1075559 173.060241,31.1075559 C169.194452,31.1075559 166.281872,33.0616808 164.534323,33.0616808 C163.104511,33.0616808 161.674699,31.7413261 161.674699,29.8400154 C161.674699,28.7309175 162.257215,27.7802621 163.104511,27.1464919 C164.957971,25.7205089 169.6181,24.4001542 174.754833,24.4001542 C183.227795,24.4001542 187.358364,27.4105628 187.358364,35.4911334 L187.252452,51.1769468 Z M148.276828,38.6599846 C147.85318,33.695451 145.523116,31.2131843 141.763239,31.2131843 C137.261978,31.2131843 135.143738,34.6989206 134.773046,38.6599846 L148.276828,38.6599846 Z M134.667134,44.15266 C134.826002,50.0150347 138.215186,53.6063994 144.040347,53.6063994 C148.329784,53.6063994 151.189409,51.5994603 152.884001,51.5994603 C154.578593,51.5994603 155.902494,53.0254433 155.902494,54.7154973 C155.902494,55.8245952 155.319978,56.880879 154.366769,57.4090208 C151.824881,58.8350039 148.11796,60.1553585 143.087139,60.1553585 C132.284113,60.1553585 125.452788,53.9232845 125.452788,43.1491904 C125.452788,32.1110254 132.337069,24.4001542 142.080975,24.4001542 C150.077333,24.4001542 156.696834,29.4703161 156.696834,39.1881264 L156.696834,40.8781804 C156.696834,43.2020046 155.849538,44.15266 153.413561,44.15266 L134.667134,44.15266 Z M102.258055,59.3103315 C100.510507,59.3103315 99.0806949,57.8843485 99.0806949,56.1942945 C99.0806949,54.5042406 100.510507,53.0782575 102.258055,53.0782575 L105.064724,53.0782575 L105.064724,19.4884348 L97.2272345,19.4884348 L96.4328944,21.9178874 C95.7444662,23.8720123 94.738302,25.1395528 92.8848417,25.1395528 C91.0843373,25.1395528 89.8133931,23.8191981 89.8133931,22.1291442 L89.8133931,16.3723978 C89.8133931,14.6295297 91.3491174,13.2563608 93.0966657,13.2563608 L126.300084,13.2563608 C128.047632,13.2563608 129.583357,14.6823439 129.583357,16.3723978 L129.583357,22.1291442 C129.583357,23.8191981 128.312412,25.1395528 126.511908,25.1395528 C124.658448,25.1395528 123.599328,23.8720123 122.963855,21.9178874 L122.169515,19.4884348 L114.384982,19.4884348 L114.384982,53.0782575 L117.19165,53.0782575 C118.939199,53.0782575 120.369011,54.5042406 120.369011,56.1942945 C120.369011,57.8843485 118.939199,59.3103315 117.19165,59.3103315 L102.258055,59.3103315 Z" id="Fill-3" fill="#3F4443"></path>
            </g>
        </g>
    </g>
</svg>