<?xml version="1.0" encoding="UTF-8"?>
<svg width="578px" height="543px" viewBox="0 0 578 543" version="1.1" xmlns="http://www.w3.org/2000/svg" xmlns:xlink="http://www.w3.org/1999/xlink">
    <title>Screen Logo SWISS-BULGARIA plants</title>
    <defs>
        <path d="M0,0 L578,0 L578,543 L0,543 L0,0 Z" id="path-1"></path>
        <filter x="-6.0%" y="-5.9%" width="112.0%" height="113.9%" filterUnits="objectBoundingBox" id="filter-2">
            <feOffset dx="0" dy="4" in="SourceAlpha" result="shadowOffsetOuter1"></feOffset>
            <feGaussianBlur stdDeviation="8" in="shadowOffsetOuter1" result="shadowBlurOuter1"></feGaussianBlur>
            <feColorMatrix values="0 0 0 0 0.658823529   0 0 0 0 0.815686275   0 0 0 0 0.839215686  0 0 0 0.46 0" type="matrix" in="shadowBlurOuter1" result="shadowMatrixOuter1"></feColorMatrix>
            <feMerge>
                <feMergeNode in="shadowMatrixOuter1"></feMergeNode>
                <feMergeNode in="SourceGraphic"></feMergeNode>
            </feMerge>
        </filter>
        <path d="M0,0 L367,0 L367,57 L0,57 L0,0 Z" id="path-3"></path>
        <polygon id="path-4" points="0 0 14.507813 0 14.507813 7.40078054 0 7.40078054"></polygon>
        <polygon id="path-6" points="0 0 16.2985582 0 16.2985582 18.8842148 0 18.8842148"></polygon>
        <polygon id="path-8" points="0 56.9571544 366.828963 56.9571544 366.828963 0 0 0"></polygon>
    </defs>
    <g id="Screen-Logo-SWISS-BULGARIA-plants" stroke="none" fill="none" xlink:href="#path-1" fill-rule="evenodd">
        <use fill="#FFFFFF" xlink:href="#path-1"></use>
        <g id="Group" stroke-width="1" transform="translate(87.2358, 170.6179) rotate(7) translate(-87.2358, -170.6179)translate(2.7358, -2.8821)">
            <path d="M23.7360736,115.980736 C37.6568005,115.268182 54.8727601,123.284987 56.3579684,138.214102 C57.4367974,149.061416 57.1026981,159.877541 58.7722824,170.708653 C60.1073754,179.364928 62.9309179,187.674602 66.7818779,195.559627 C70.4848479,203.141925 78.1661971,209.596306 80.164026,217.696515 C81.4373219,222.857794 80.7245751,230.118238 78.9685885,235.166799 C76.833054,241.305066 77.9680677,240.819929 82.2231974,245.970427 C90.5613084,256.063904 98.0693673,266.414426 103.378727,278.469438 C111.026546,295.832936 116.040552,316.129068 113.20212,335.135638 C112.840953,337.549328 112.41287,346.210743 109.044211,346.816158 C105.281886,347.493025 107.041121,342.53938 107.241983,340.939213 C108.522056,330.729158 109.659492,321.804508 108.11537,311.434947 C102.15706,271.425805 73.0655561,245.06544 54.1230104,211.108797 C53.0816789,209.357674 50.883344,205.187896 49.3548458,202.436969 C46.9417027,198.093864 44.5157075,189.829702 41.2489465,186.609317 C35.0964862,180.542353 40.7527657,192.739128 41.9516052,195.067545 C43.4673634,198.012852 45.1348629,201.14313 46.688117,203.723946 C53.7951247,215.686895 61.7279001,228.745499 69.0679539,241.077193 C37.3229009,248.213323 14.9659874,210.560032 6.44703758,185.805267 C-0.571887581,165.410079 -8.96977084,117.725861 23.7360736,115.980736" id="Leaf-Me-Alone!" fill="#69A1AC"></path>
            <path d="M164.346616,2.72604959 C140.462461,27.2511381 128.923574,61.2678576 119.786777,93.2469625 C109.582135,128.964388 102.841821,165.232884 102.583051,202.368117 C102.413515,226.766104 101.74074,251.316437 103.184137,275.686101 C103.696183,284.340979 104.57068,293.010979 105.961073,301.572817 C106.07559,302.276368 109.18641,321.393446 112.162896,316.938752 C113.855717,314.40545 108.974235,297.107586 108.605268,294.226516 C106.53037,277.999204 106.048226,261.652157 106.14942,245.307497 C106.315791,218.396587 105.51156,191.623439 108.276144,164.811471 C108.688273,160.80829 109.01445,156.603692 109.978221,152.687492 C111.001421,148.524013 109.698178,150.34145 113.031415,148.693218 C116.270166,147.090795 120.272397,147.319646 123.632827,145.309479 C136.962285,137.334996 143.780962,116.851344 149.087874,103.411295 C155.157945,88.0418662 158.847018,71.6526282 161.79364,55.4785076 C163.957068,43.5949644 165.504047,31.7837021 166.379471,19.7471491 C166.655233,15.9536452 166.671658,11.9866711 167.427309,8.25662237 C167.630786,7.25045742 168.65225,5.47055321 168.615221,4.57950688 C168.536732,2.693695 167.382985,1.5846107 167.288536,8.52651283e-14 C166.288738,0.887722916 165.307131,1.7970594 164.346616,2.72604959" id="Leaf-Me-Alone!" fill="#89C5CC"></path>
            <path d="M124.65982,114.395017 C100.775666,138.920105 89.2367783,172.936825 80.0999814,204.91593 C69.8953395,240.633355 63.1550257,276.901851 62.896255,314.037084 C62.7267198,338.435072 62.0539448,362.985404 63.4973409,387.355069 C64.0093871,396.009947 64.8838847,404.679947 66.2742775,413.241784 C66.3887949,413.945336 69.4996148,433.062413 72.4761007,428.60772 C74.1689211,426.074418 69.2874398,408.776553 68.9184719,405.895483 C66.843574,389.668172 66.3614299,373.321124 66.4626242,356.976465 C66.6289951,330.065555 65.8247641,303.292406 68.5893484,276.480439 C69.0014774,272.477257 69.3276545,268.272659 70.2914251,264.356459 C71.3146256,260.192981 70.0113826,262.010418 73.3446197,260.362185 C76.5833705,258.759762 80.5856013,258.988613 83.9460318,256.978446 C97.2754897,249.003963 104.094166,228.520311 109.401079,215.080262 C115.471149,199.710833 119.160223,183.321596 122.106844,167.147475 C124.270272,155.263932 125.817251,143.452669 126.692676,131.416116 C126.968437,127.622612 126.984862,123.655638 127.740513,119.92559 C127.94399,118.919425 128.965454,117.13952 128.928426,116.248474 C128.849936,114.362662 127.696189,113.253578 127.60174,111.668967 C126.601943,112.55669 125.620335,113.466027 124.65982,114.395017" id="Leaf-Me-Alone!-Copy" fill="#89C5CC" transform="translate(95.7605, 270.4745) scale(-1, 1) rotate(-210) translate(-95.7605, -270.4745)"></path>
        </g>
        <g id="Group" filter="url(#filter-2)" stroke-width="1" transform="translate(72, 84)">
            <rect id="Rectangle" stroke="#DDE3E9" stroke-width="10" fill="#F5FCFF" x="5" y="5" width="423" height="365" rx="45"></rect>
            <path d="M428,46 L428,76.9999996 L5.00000005,76.9999996 L5,46 C5,25.4543515 20.5656456,8.30604189 40.8391128,6.21647755 L45.126162,6.00000036 L388,6 C410.09139,6 428,23.90861 428,46 Z" id="Rectangle-Copy" stroke="#DDE3E9" stroke-width="10" fill="#DDE3E9"></path>
            <g transform="translate(34, 28)" fill="#98AAB2">
                <g transform="translate(0, 2)">
                    <g transform="translate(0, 1)">
                        <circle id="Oval" cx="14" cy="14" r="14"></circle>
                        <circle id="Oval-Copy" cx="59.5" cy="14" r="14"></circle>
                        <circle id="Oval-Copy-2" cx="105" cy="14" r="14"></circle>
                    </g>
                </g>
            </g>
        </g>
        <g id="Group-Copy" stroke-width="1" transform="translate(109, 261)">
            <g id="Logo-SWISS-BULGARIAN--Copy" xlink:href="#path-3">
                <path d="M329.47308,22.5801483 L331.064948,16.6544436 L327.210489,12.8098128 L323.751025,25.6895174 C323.60875,26.2201148 323.613352,26.7686919 323.751025,27.2816919 L329.47308,25.7522557 C329.198501,24.7304638 329.188914,23.6375174 329.47308,22.5801483" id="Fill-1" fill="#D7153A" fill-rule="evenodd"></path>
                <path d="M336.487229,3.55584362 L330.890958,5.05161544 C330.358674,5.19392416 329.88468,5.47203826 329.508476,5.84770268 C329.131889,6.22336711 328.852708,6.69581678 328.710434,7.22641409 L327.210604,12.8097362 L331.065063,16.6543671 L332.107389,12.7730114 C332.391555,11.7160248 332.947615,10.7745685 333.697339,10.0266826 C334.446678,9.27879664 335.390447,8.72448121 336.449647,8.44139396 L340.341688,7.40085705 L336.487229,3.55584362 Z" id="Fill-3" fill="#D7153A" fill-rule="evenodd"></path>
                <path d="M331.062225,28.4977812 C330.286808,27.7242644 329.747621,26.7736268 329.473425,25.7522174 L323.750987,27.2816537 C323.889043,27.7946537 324.159787,28.2720765 324.549413,28.6607477 L331.323765,35.4184993 L334.661663,32.0887812 L331.062225,28.4977812 Z" id="Fill-5" fill="#D7153A" fill-rule="evenodd"></path>
                <path d="M361.002062,20.4969705 L359.410195,26.4226752 L363.264653,30.267306 L366.724117,17.3876013 C366.866392,16.857004 366.861407,16.3084268 366.724117,15.7954268 L361.001678,17.3248631 C361.276257,18.346655 361.286228,19.4396013 361.002062,20.4969705" id="Fill-7" fill="#D7153A" fill-rule="evenodd"></path>
                <path d="M359.412917,14.5793376 C360.188334,15.3528544 360.727138,16.3038745 361.001717,17.3249013 L366.724156,15.7954651 C366.586099,15.2824651 366.315355,14.8050423 365.925729,14.4163711 L359.151377,7.65861946 L355.81348,10.9887201 L359.412917,14.5793376 Z" id="Fill-9" fill="#D7153A" fill-rule="evenodd"></path>
                <path d="M359.410233,26.4224456 L358.367523,30.3041839 C358.083741,31.361553 357.52768,32.3030094 356.777957,33.0505128 C356.028234,33.7983987 355.084465,34.3527141 354.025265,34.6361839 L350.133608,35.6767208 L353.987683,39.5213517 L359.584337,38.0251973 C360.116238,37.8832711 360.590232,37.6047745 360.966819,37.2291101 C361.343406,36.8538282 361.622204,36.3806134 361.764862,35.8500161 L363.264308,30.2674591 L359.410233,26.4224456 Z" id="Fill-11" fill="#D7153A" fill-rule="evenodd"></path>
                <g id="Group-15" stroke-width="1" fill-rule="evenodd" transform="translate(336.4871, 0)">
                    <mask id="mask-5" fill="white">
                        <use xlink:href="#path-4"></use>
                    </mask>
                    <g id="Clip-14"></g>
                    <path d="M9.79471996,5.81243154 C10.8546865,5.52896174 11.9499342,5.53890805 12.9746196,5.81243154 L14.507813,0.104780537 C13.9935528,-0.0329375839 13.443628,-0.0371456376 12.9113438,0.104780537 L0,3.55576711 L3.85445873,7.40078054 L9.79471996,5.81243154 Z" id="Fill-13" fill="#D7153A" mask="url(#mask-5)"></path>
                </g>
                <path d="M352.214655,7.39794966 L355.813326,10.9885671 L359.151607,7.65884899 L352.377255,0.901097315 C351.987629,0.512426174 351.509034,0.241963087 350.994773,0.104627517 L349.46158,5.81266107 C350.485882,6.08618456 351.438855,6.62405034 352.214655,7.39794966" id="Fill-16" fill="#ECECEC" fill-rule="evenodd"></path>
                <path d="M309.283632,42.3778933 C308.508215,41.6043765 307.969028,40.6537389 307.694832,39.6323295 L301.972394,41.1617658 C302.11045,41.6747658 302.381194,42.1521886 302.77082,42.5408597 L309.545172,49.2986114 L312.88307,45.9688933 L309.283632,42.3778933 Z" id="Fill-18" fill="#C80000" fill-rule="evenodd"></path>
                <path d="M316.481932,49.559243 L312.882878,45.9686255 L309.54498,49.2983436 L316.319332,56.0560953 C316.708958,56.4447664 317.187554,56.714847 317.701814,56.8525651 L319.235008,51.1445315 C318.210706,50.8710081 317.257733,50.3331423 316.481932,49.559243" id="Fill-20" fill="#C80000" fill-rule="evenodd"></path>
                <path d="M307.694487,36.4602221 L309.286355,30.5345174 L305.431896,26.6898866 L301.972432,39.5695913 C301.830157,40.1001886 301.834759,40.6487658 301.972432,41.1617658 L307.694487,39.6323295 C307.419908,38.6105376 307.410321,37.5175913 307.694487,36.4602221" id="Fill-22" fill="#008000" fill-rule="evenodd"></path>
                <path d="M322.414562,51.1449523 C321.354596,51.4284221 320.259348,51.4188584 319.235046,51.1445698 L317.701853,56.8526034 C318.216113,56.9895564 318.766038,56.9945295 319.297938,56.8522208 L332.209282,53.4012342 L328.355207,49.5566034 L322.414562,51.1449523 Z" id="Fill-24" fill="#C80000" fill-rule="evenodd"></path>
                <path d="M339.223507,34.3770443 L337.63164,40.302749 L341.486099,44.1473799 L344.945563,31.2676752 C345.087837,30.7370779 345.082852,30.1885007 344.945563,29.6755007 L339.223124,31.2049369 C339.497703,32.2267289 339.507673,33.3196752 339.223507,34.3770443" id="Fill-26" fill="#008000" fill-rule="evenodd"></path>
                <path d="M337.634324,28.4594114 C338.409741,29.2329282 338.948545,30.1839483 339.223124,31.2049752 L344.945563,29.6755389 C344.807506,29.1625389 344.536762,28.6851161 344.147136,28.296445 L337.372784,21.5386933 L334.034887,24.868794 L337.634324,28.4594114 Z" id="Fill-28" fill="#ECECEC" fill-rule="evenodd"></path>
                <path d="M337.631678,40.3025577 L336.588969,44.184296 C336.305186,45.2416651 335.749125,46.1831215 334.999402,46.9306248 C334.249679,47.6785107 333.306294,48.2328262 332.246711,48.516296 L328.355053,49.5568329 L332.209129,53.4010812 L337.805783,51.9053094 C338.337683,51.7633832 338.811677,51.4848866 339.188264,51.1092221 C339.564852,50.7335577 339.843649,50.2611081 339.986307,49.7301282 L341.485754,44.1475711 L337.631678,40.3025577 Z" id="Fill-30" fill="#C80000" fill-rule="evenodd"></path>
                <path d="M314.708674,17.4356879 L309.11202,18.9318423 C308.580119,19.0737685 308.106126,19.3522651 307.729922,19.7279295 C307.353335,20.103594 307.074154,20.5760436 306.931879,21.1070235 L305.432049,26.6899631 L309.286125,30.534594 L310.328834,26.6528557 C310.613,25.5958691 311.169061,24.6547953 311.918784,23.9065268 C312.668124,23.1590235 313.611893,22.6043255 314.671092,22.3212383 L318.563133,21.2807013 L314.708674,17.4356879 Z" id="Fill-32" fill="#ECECEC" fill-rule="evenodd"></path>
                <path d="M324.503241,19.6925054 C325.563207,19.4090356 326.658455,19.4189819 327.68314,19.6925054 L329.216334,13.9848544 C328.702074,13.8471362 328.152149,13.8429282 327.619865,13.9848544 L314.708521,17.4358409 L318.56298,21.2808544 L324.503241,19.6925054 Z" id="Fill-34" fill="#ECECEC" fill-rule="evenodd"></path>
                <path d="M330.436062,21.2780235 L334.034733,24.8686409 L337.373014,21.5389228 L330.598662,14.7811711 C330.209036,14.3925 329.730441,14.1220369 329.21618,13.9847013 L327.682987,19.6927349 C328.707289,19.9662584 329.660262,20.5041242 330.436062,21.2780235" id="Fill-36" fill="#ECECEC" fill-rule="evenodd"></path>
                <path d="M338.260487,35.6791691 L334.661433,32.0885517 L331.323535,35.4182698 L338.097887,42.1760215 C338.487513,42.5646926 338.966109,42.8347732 339.480369,42.9724913 L341.013562,37.2644577 C339.98926,36.9909342 339.036287,36.4530685 338.260487,35.6791691" id="Fill-38" fill="#D7153A" fill-rule="evenodd"></path>
                <path d="M344.193117,37.2648785 C343.13315,37.5483483 342.037903,37.5387846 341.013601,37.264496 L339.480407,42.9725295 C339.994667,43.1094826 340.544592,43.1144557 341.076493,42.972147 L353.987837,39.5211604 L350.133761,35.6765295 L344.193117,37.2648785 Z" id="Fill-40" fill="#D7153A" fill-rule="evenodd"></path>
                <g id="Group-44" stroke-width="1" fill-rule="evenodd" transform="translate(0, 6.5197)">
                    <mask id="mask-7" fill="white">
                        <use xlink:href="#path-6"></use>
                    </mask>
                    <g id="Clip-43"></g>
                    <path d="M5.56773898,12.3957785 C5.56773898,12.825 5.64367001,13.2289732 5.77022173,13.5824497 C6.17518725,14.667745 7.38970031,14.8949799 8.42780794,14.8949799 C9.33859687,14.8949799 10.7306658,14.5923826 10.7306658,13.2542215 C10.7306658,12.3452819 9.94604514,12.0679329 6.83325622,11.1842416 C3.97318725,10.3762953 0.708536259,9.59359732 0.708536259,5.95822148 C0.708536259,1.79224832 4.27691139,0 7.99714859,0 C11.9198685,0 15.4126961,1.51489933 15.5392479,5.88247651 L10.2750796,5.88247651 C10.376321,5.20038926 10.0979072,4.74630201 9.61701066,4.44332215 C9.13611411,4.11509396 8.55435967,3.98885235 7.97222173,3.98885235 C7.21291139,3.98885235 5.97270449,4.19083893 5.97270449,5.20038926 C6.04863553,6.46280537 8.6805279,6.81628188 11.2115624,7.47312081 C13.7675237,8.2049396 16.2985582,9.34111409 16.2985582,12.6738926 C16.2985582,17.3693154 11.9961831,18.8842148 7.94691139,18.8842148 C5.9220838,18.8842148 -0.000153396029,18.1520134 -0.000153396029,12.3957785 L5.56773898,12.3957785 Z" id="Fill-42" fill="#000000" mask="url(#mask-7)"></path>
                </g>
                <polygon id="Fill-45" fill="#000000" fill-rule="evenodd" points="36.0654773 24.9746839 30.649447 24.9746839 28.700934 13.9928114 28.6503133 13.9928114 26.7520374 24.9746839 21.3106968 24.9746839 16.4012568 6.94891208 21.8679078 6.94891208 24.0695243 18.0822745 24.120145 18.0822745 26.2964512 6.94891208 31.2062746 6.94891208 33.3323436 18.234147 33.3829643 18.234147 35.6352015 6.94891208 41.1271628 6.94891208"></polygon>
                <mask id="mask-9" fill="white">
                    <use xlink:href="#path-8"></use>
                </mask>
                <g id="Clip-48"></g>
                <polygon id="Fill-47" fill="#000000" fill-rule="evenodd" mask="url(#mask-9)" points="42.3948276 24.9747987 47.96272 24.9747987 47.96272 6.94902685 42.3948276 6.94902685"></polygon>
                <path d="M55.2519842,18.9155074 C55.2519842,19.3447289 55.3279153,19.748702 55.454467,20.1021785 C55.8594325,21.1874738 57.074329,21.4147087 58.1120532,21.4147087 C59.0228421,21.4147087 60.4149111,21.1121114 60.4149111,19.7739503 C60.4149111,18.8650107 59.6302904,18.5876617 56.5175015,17.7039705 C53.6574325,16.8960242 50.3927815,16.1133262 50.3927815,12.4779503 C50.3927815,8.31197718 53.9611566,6.51972886 57.6813938,6.51972886 C61.6041138,6.51972886 65.0969414,8.03462819 65.2234931,12.4022054 L59.9593249,12.4022054 C60.0605662,11.7201181 59.7821525,11.2660309 59.3012559,10.963051 C58.8203594,10.6348228 58.2386049,10.5085812 57.656467,10.5085812 C56.8971566,10.5085812 55.6569497,10.7105678 55.6569497,11.7201181 C55.7328808,12.9825342 58.3647731,13.3360107 60.8958076,13.9928497 C63.451769,14.7246685 65.98242,15.860843 65.98242,19.1936215 C65.98242,23.8890443 61.6804283,25.4039436 57.6311566,25.4039436 C55.606329,25.4039436 49.6840918,24.6717423 49.6840918,18.9155074 L55.2519842,18.9155074 Z" id="Fill-49" fill="#000000" fill-rule="evenodd" mask="url(#mask-9)"></path>
                <path d="M72.1339459,18.9155074 C72.1339459,19.3447289 72.2098769,19.748702 72.3364286,20.1021785 C72.7413941,21.1874738 73.9559072,21.4147087 74.9940148,21.4147087 C75.9048038,21.4147087 77.2968727,21.1121114 77.2968727,19.7739503 C77.2968727,18.8650107 76.512252,18.5876617 73.3994631,17.7039705 C70.5393941,16.8960242 67.2747432,16.1133262 67.2747432,12.4779503 C67.2747432,8.31197718 70.8431183,6.51972886 74.5633555,6.51972886 C78.4860754,6.51972886 81.978903,8.03462819 82.1054548,12.4022054 L76.8412865,12.4022054 C76.9425279,11.7201181 76.6641141,11.2660309 76.1832176,10.963051 C75.702321,10.6348228 75.1205666,10.5085812 74.5384286,10.5085812 C73.7791183,10.5085812 72.5389114,10.7105678 72.5389114,11.7201181 C72.6148424,12.9825342 75.2467348,13.3360107 77.7777693,13.9928497 C80.3337306,14.7246685 82.8647651,15.860843 82.8647651,19.1936215 C82.8647651,23.8890443 78.56239,25.4039436 74.5131183,25.4039436 C72.4882907,25.4039436 66.5660535,24.6717423 66.5660535,18.9155074 L72.1339459,18.9155074 Z" id="Fill-50" fill="#000000" fill-rule="evenodd" mask="url(#mask-9)"></path>
                <polygon id="Fill-51" fill="#000000" fill-rule="evenodd" mask="url(#mask-9)" points="86.3082759 20.2284966 98.9622978 20.2284966 98.9622978 16.2396443 86.3082759 16.2396443"></polygon>
                <path d="M112.402283,20.6829282 C113.541248,20.6829282 114.578972,20.3547 114.578972,18.9660423 C114.578972,17.880747 113.920903,17.3252839 112.630076,17.3252839 L109.137632,17.3252839 L109.137632,20.6829282 L112.402283,20.6829282 Z M112.073248,13.967257 C113.262834,13.967257 113.971524,13.6642772 113.971524,12.4779886 C113.971524,11.569049 113.212214,11.2408208 112.073248,11.2408208 L109.137632,11.2408208 L109.137632,13.967257 L112.073248,13.967257 Z M103.569739,6.94898859 L113.465317,6.94898859 C118.223278,6.94898859 119.235692,9.62492819 119.235692,11.4680557 C119.235692,13.2855523 118.34983,14.2702369 117.008382,15.0024383 C118.628244,15.532653 120.146481,16.8455658 120.146481,19.496257 C120.146481,23.1063846 116.983072,24.9747604 113.819662,24.9747604 L103.569739,24.9747604 L103.569739,6.94898859 Z" id="Fill-52" fill="#000000" fill-rule="evenodd" mask="url(#mask-9)"></path>
                <path d="M138.724351,18.0065678 C138.724351,23.0306013 136.067148,25.4039436 130.499256,25.4039436 C124.931364,25.4039436 122.24885,23.0306013 122.24885,18.0065678 L122.24885,6.94895034 L127.816743,6.94895034 L127.816743,16.7697826 C127.816743,18.5876617 127.791432,20.9101248 130.524566,20.9101248 C133.156459,20.9101248 133.156459,18.5876617 133.156459,16.7697826 L133.156459,6.94895034 L138.724351,6.94895034 L138.724351,18.0065678 Z" id="Fill-53" fill="#000000" fill-rule="evenodd" mask="url(#mask-9)"></path>
                <polygon id="Fill-54" fill="#000000" fill-rule="evenodd" mask="url(#mask-9)" points="141.535372 6.94887383 147.103264 6.94887383 147.103264 20.3545852 155.100566 20.3545852 155.100566 24.9746456 141.535372 24.9746456"></polygon>
                <path d="M164.642873,6.51961409 C169.274282,6.51961409 172.159662,8.99394966 172.969593,13.2605336 L167.629493,13.2605336 C167.427011,11.9476208 166.312972,11.0134329 164.997218,11.0134329 C161.403532,11.0134329 161.302291,14.4215738 161.302291,16.2650839 C161.302291,17.9563389 162.01098,20.9100101 165.376873,20.9100101 C166.6677,20.9100101 167.983838,20.2535537 168.262252,18.9153926 L165.807149,18.9153926 L165.807149,15.0531644 L173.197386,15.0531644 L173.197386,24.9746074 L169.679248,24.9746074 L169.502075,23.1318624 C168.262252,24.7473725 166.363976,25.4038289 164.364459,25.4038289 C159.024743,25.4038289 155.734782,21.2634866 155.734782,16.1388423 C155.734782,9.27129866 160.593601,6.51961409 164.642873,6.51961409" id="Fill-55" fill="#000000" fill-rule="evenodd" mask="url(#mask-9)"></path>
                <path d="M185.346466,18.5370503 L183.726604,12.9824195 L183.676367,12.9824195 L181.929953,18.5370503 L185.346466,18.5370503 Z M180.96816,6.94883557 L186.409501,6.94883557 L192.989807,24.9746074 L187.219432,24.9746074 L186.460122,22.3996611 L180.71544,22.3996611 L179.905509,24.9746074 L174.312306,24.9746074 L180.96816,6.94883557 Z" id="Fill-56" fill="#000000" fill-rule="evenodd" mask="url(#mask-9)"></path>
                <path d="M199.799248,14.8258913 L202.709938,14.8258913 C203.747279,14.8258913 205.164658,14.649153 205.164658,13.0332604 C205.164658,11.8974685 204.531899,11.2410121 202.406214,11.2410121 L199.799248,11.2410121 L199.799248,14.8258913 Z M194.231356,6.94879732 L204.835624,6.94879732 C207.973723,6.94879732 210.73255,8.69093154 210.73255,12.0990725 C210.73255,13.9674483 209.871999,15.9364349 208.024344,16.6185221 C209.542964,17.198851 210.479447,18.8652403 210.68193,21.1123409 C210.757477,21.9704013 210.757477,24.1918711 211.289378,24.9745691 L205.721102,24.9745691 C205.443072,24.0656295 205.341831,23.1318242 205.265899,22.1976362 C205.139348,20.4807503 204.962175,18.688502 202.760559,18.688502 L199.799248,18.688502 L199.799248,24.9745691 L194.231356,24.9745691 L194.231356,6.94879732 Z" id="Fill-57" fill="#000000" fill-rule="evenodd" mask="url(#mask-9)"></path>
                <polygon id="Fill-58" fill="#000000" fill-rule="evenodd" mask="url(#mask-9)" points="212.986552 24.9747987 218.554444 24.9747987 218.554444 6.94902685 212.986552 6.94902685"></polygon>
                <path d="M230.803922,18.5370503 L229.18406,12.9824195 L229.133823,12.9824195 L227.387409,18.5370503 L230.803922,18.5370503 Z M226.425616,6.94883557 L231.866957,6.94883557 L238.447263,24.9746074 L232.676888,24.9746074 L231.917578,22.3996611 L226.172896,22.3996611 L225.362965,24.9746074 L219.769762,24.9746074 L226.425616,6.94883557 Z" id="Fill-59" fill="#000000" fill-rule="evenodd" mask="url(#mask-9)"></path>
                <polygon id="Fill-60" fill="#000000" fill-rule="evenodd" mask="url(#mask-9)" points="239.714429 6.94887383 245.408873 6.94887383 250.672658 16.5929678 250.723279 16.5929678 250.723279 6.94887383 255.987447 6.94887383 255.987447 24.9746456 250.5718 24.9746456 245.028835 15.1289477 244.978597 15.1289477 244.978597 24.9746456 239.714429 24.9746456"></polygon>
                <path d="M9.33878861,31.5766611 C13.1096465,31.5766611 16.2477458,33.5965268 16.779263,37.4342718 L14.3751637,37.4342718 C13.8436465,34.8841913 11.8441293,33.5965268 9.31347827,33.5965268 C5.01110313,33.5965268 3.18875831,37.1312919 3.18875831,40.8929094 C3.18875831,45.0076208 5.01110313,48.4413926 9.33878861,48.4413926 C12.4768879,48.4413926 14.3494699,46.2195403 14.5523362,43.2402383 L16.9564354,43.2402383 C16.4755389,47.7596879 13.7170948,50.4608758 9.13630585,50.4608758 C3.54310313,50.4608758 0.784659039,46.3205336 0.784659039,41.0692651 C0.784659039,35.8183792 3.77089624,31.5766611 9.33878861,31.5766611" id="Fill-61" fill="#000000" fill-rule="evenodd" mask="url(#mask-9)"></path>
                <path d="M25.2337619,48.4413544 C27.4863825,48.4413544 29.3083439,46.6739718 29.3083439,43.5183141 C29.3083439,40.3626564 27.4863825,38.5700255 25.2337619,38.5700255 C22.9811412,38.5700255 21.1591798,40.3626564 21.1591798,43.5183141 C21.1591798,46.6739718 22.9811412,48.4413544 25.2337619,48.4413544 M25.2337619,36.6764013 C29.3842749,36.6764013 31.5858914,39.6809517 31.5858914,43.5183141 C31.5858914,47.3304282 29.3842749,50.334596 25.2337619,50.334596 C21.0832488,50.334596 18.8816323,47.3304282 18.8816323,43.5183141 C18.8816323,39.6809517 21.0832488,36.6764013 25.2337619,36.6764013" id="Fill-62" fill="#000000" fill-rule="evenodd" mask="url(#mask-9)"></path>
                <path d="M39.7620148,48.4413544 C42.0146355,48.4413544 43.8365969,46.6739718 43.8365969,43.5183141 C43.8365969,40.3626564 42.0146355,38.5700255 39.7620148,38.5700255 C37.5093941,38.5700255 35.6874328,40.3626564 35.6874328,43.5183141 C35.6874328,46.6739718 37.5093941,48.4413544 39.7620148,48.4413544 M39.7620148,36.6764013 C43.9125279,36.6764013 46.1141444,39.6809517 46.1141444,43.5183141 C46.1141444,47.3304282 43.9125279,50.334596 39.7620148,50.334596 C35.6115018,50.334596 33.4098853,47.3304282 33.4098853,43.5183141 C33.4098853,39.6809517 35.6115018,36.6764013 39.7620148,36.6764013" id="Fill-63" fill="#000000" fill-rule="evenodd" mask="url(#mask-9)"></path>
                <path d="M54.7962063,38.5701403 C51.8859001,38.5701403 50.7975553,41.0693416 50.7975553,43.492798 C50.7975553,46.0428785 51.9614476,48.4414691 54.922758,48.4414691 C57.8583745,48.4414691 58.845478,45.9418852 58.845478,43.3918047 C58.845478,40.9431 57.5799607,38.5701403 54.7962063,38.5701403 L54.7962063,38.5701403 Z M48.722107,36.979496 L50.8734863,36.979496 L50.8734863,38.7468785 L50.924107,38.7468785 C51.6324132,37.3077242 53.2779691,36.6765161 55.0999304,36.6765161 C59.1238917,36.6765161 61.123409,39.8574221 61.123409,43.5432946 C61.123409,47.2544154 59.1492021,50.3347107 55.1505511,50.3347107 C53.8344132,50.3347107 51.8605898,49.8297443 50.924107,48.2895966 L50.8734863,48.2895966 L50.8734863,55.0301336 L48.722107,55.0301336 L48.722107,36.979496 Z" id="Fill-64" fill="#000000" fill-rule="evenodd" mask="url(#mask-9)"></path>
                <path d="M72.7410107,42.2559362 C72.6144589,40.2108221 71.1211486,38.5700638 68.9701528,38.5700638 C66.7428424,38.5700638 65.3507735,40.236453 65.2246052,42.2559362 L72.7410107,42.2559362 Z M74.8164589,45.8913121 C74.234321,48.7948691 72.1841831,50.3346342 69.2232562,50.3346342 C65.0474328,50.3346342 63.0732259,47.4310772 62.9466742,43.4678557 C62.9466742,39.5295 65.5283294,36.6764396 69.0967045,36.6764396 C73.7281141,36.6764396 75.1454934,40.9935201 75.0185582,44.1491779 L65.2246052,44.1491779 C65.1486742,46.4215268 66.4391183,48.4413926 69.2991873,48.4413926 C71.0958382,48.4413926 72.3107348,47.6078154 72.69039,45.8913121 L74.8164589,45.8913121 Z" id="Fill-65" fill="#000000" fill-rule="evenodd" mask="url(#mask-9)"></path>
                <path d="M77.171203,36.9794195 L79.1956471,36.9794195 L79.1956471,39.731104 L79.2462678,39.731104 C80.283992,37.6106275 81.7266816,36.6006946 84.0548498,36.6764396 L84.0548498,38.948406 C80.5877161,38.948406 79.3221989,40.8925268 79.3221989,44.2249228 L79.3221989,50.0316544 L77.171203,50.0316544 L77.171203,36.9794195 Z" id="Fill-66" fill="#000000" fill-rule="evenodd" mask="url(#mask-9)"></path>
                <path d="M93.1665356,43.2911557 C91.4964364,44.5279409 86.6372336,43.3160215 86.6372336,46.5225584 C86.6372336,47.9364644 87.8517467,48.4414309 89.1678846,48.4414309 C92.0022598,48.4414309 93.1665356,46.6992966 93.1665356,45.4873772 L93.1665356,43.2911557 Z M96.6589797,49.981196 C96.2793246,50.2084309 95.7478073,50.3346725 95.1154322,50.3346725 C94.001777,50.3346725 93.2930874,49.7287128 93.2930874,48.3151893 C92.1035011,49.7287128 90.5093329,50.3346725 88.6869881,50.3346725 C86.3081992,50.3346725 84.3593026,49.2994913 84.3593026,46.6740483 C84.3593026,43.7199946 86.5609191,43.0635383 88.7882295,42.6599477 C91.1420915,42.1802295 93.191846,42.3822161 93.191846,40.7410752 C93.191846,38.8478336 91.6226046,38.570102 90.2815398,38.570102 C88.459195,38.570102 87.1181302,39.1251826 87.0165053,41.044055 L84.8655095,41.044055 C84.9920612,37.8126523 87.4720915,36.6764779 90.4080915,36.6764779 C92.7615701,36.6764779 95.3175315,37.2066926 95.3175315,40.261357 L95.3175315,46.9770282 C95.3175315,47.9865785 95.3175315,48.4414309 96.0012943,48.4414309 C96.2033935,48.4414309 96.4311866,48.3905517 96.6589797,48.3151893 L96.6589797,49.981196 Z" id="Fill-67" fill="#000000" fill-rule="evenodd" mask="url(#mask-9)"></path>
                <path d="M101.645846,36.9794195 L104.252812,36.9794195 L104.252812,38.8726611 L101.645846,38.8726611 L101.645846,46.9769899 C101.645846,47.9865403 101.92426,48.1384128 103.265708,48.1384128 L104.252812,48.1384128 L104.252812,50.0316544 L102.607639,50.0316544 C100.380713,50.0316544 99.4948505,49.5775671 99.4948505,47.1789765 L99.4948505,38.8726611 L97.2675401,38.8726611 L97.2675401,36.9794195 L99.4948505,36.9794195 L99.4948505,33.0663121 L101.645846,33.0663121 L101.645846,36.9794195 Z" id="Fill-68" fill="#000000" fill-rule="evenodd" mask="url(#mask-9)"></path>
                <path d="M106.759034,50.0318456 L108.91003,50.0318456 L108.91003,36.9796107 L106.759034,36.9796107 L106.759034,50.0318456 Z M106.759034,34.6315168 L108.91003,34.6315168 L108.91003,32.0060738 L106.759034,32.0060738 L106.759034,34.6315168 Z" id="Fill-69" fill="#000000" fill-rule="evenodd" mask="url(#mask-9)"></path>
                <path d="M117.894934,48.4413544 C120.147555,48.4413544 121.969516,46.6739718 121.969516,43.5183141 C121.969516,40.3626564 120.147555,38.5700255 117.894934,38.5700255 C115.642314,38.5700255 113.820352,40.3626564 113.820352,43.5183141 C113.820352,46.6739718 115.642314,48.4413544 117.894934,48.4413544 M117.894934,36.6764013 C122.045447,36.6764013 124.247064,39.6809517 124.247064,43.5183141 C124.247064,47.3304282 122.045447,50.334596 117.894934,50.334596 C113.744421,50.334596 111.542805,47.3304282 111.542805,43.5183141 C111.542805,39.6809517 113.744421,36.6764013 117.894934,36.6764013" id="Fill-70" fill="#000000" fill-rule="evenodd" mask="url(#mask-9)"></path>
                <path d="M126.779402,36.9794195 L128.80423,36.9794195 L128.80423,39.0497819 L128.85485,39.0497819 C129.765639,37.4338893 131.208329,36.6764396 133.106605,36.6764396 C136.548428,36.6764396 137.611463,38.6454262 137.611463,41.4479899 L137.611463,50.0316544 L135.460083,50.0316544 L135.460083,41.1955067 C135.460083,39.5799966 134.44767,38.5700638 132.802881,38.5700638 C130.195915,38.5700638 128.930398,40.3118154 128.930398,42.6599094 L128.930398,50.0316544 L126.779402,50.0316544 L126.779402,36.9794195 Z" id="Fill-71" fill="#000000" fill-rule="evenodd" mask="url(#mask-9)"></path>
                <path d="M150.646827,40.6401966 L155.354168,40.6401966 C158.087302,40.665445 159.302198,39.4787738 159.302198,37.3326664 C159.302198,35.1869416 158.087302,34.0255188 155.354168,34.0255188 L150.646827,34.0255188 L150.646827,40.6401966 Z M148.242345,32.0060356 L156.164099,32.0060356 C159.783095,32.0060356 161.706297,33.9750221 161.706297,37.3326664 C161.706297,40.6906933 159.783095,42.6853107 156.164099,42.6596799 L150.646827,42.6596799 L150.646827,50.0318074 L148.242345,50.0318074 L148.242345,32.0060356 Z" id="Fill-72" fill="#000000" fill-rule="evenodd" mask="url(#mask-9)"></path>
                <path d="M163.707004,36.9794195 L165.731831,36.9794195 L165.731831,39.731104 L165.782452,39.731104 C166.819792,37.6106275 168.262482,36.6006946 170.591034,36.6764396 L170.591034,38.948406 C167.123517,38.948406 165.857999,40.8925268 165.857999,44.2249228 L165.857999,50.0316544 L163.707004,50.0316544 L163.707004,36.9794195 Z" id="Fill-73" fill="#000000" fill-rule="evenodd" mask="url(#mask-9)"></path>
                <path d="M177.399555,48.4413544 C179.651792,48.4413544 181.474137,46.6739718 181.474137,43.5183141 C181.474137,40.3626564 179.651792,38.5700255 177.399555,38.5700255 C175.146934,38.5700255 173.324973,40.3626564 173.324973,43.5183141 C173.324973,46.6739718 175.146934,48.4413544 177.399555,48.4413544 M177.399555,36.6764013 C181.550068,36.6764013 183.751685,39.6809517 183.751685,43.5183141 C183.751685,47.3304282 181.550068,50.334596 177.399555,50.334596 C173.249042,50.334596 171.047425,47.3304282 171.047425,43.5183141 C171.047425,39.6809517 173.249042,36.6764013 177.399555,36.6764013" id="Fill-74" fill="#000000" fill-rule="evenodd" mask="url(#mask-9)"></path>
                <path d="M195.445294,43.2403148 C195.445294,40.9431 194.43288,38.5701403 191.725057,38.5701403 C188.966229,38.5701403 187.852957,40.8168584 187.852957,43.3160597 C187.852957,45.6641537 188.713509,48.2895966 191.547884,48.2895966 C194.382643,48.2895966 195.445294,45.689402 195.445294,43.2403148 L195.445294,43.2403148 Z M197.571363,48.9211872 C197.571363,53.1873886 195.647777,55.3331134 191.497264,55.3331134 C189.042544,55.3331134 186.207785,54.3235631 186.081233,51.4961336 L188.232613,51.4961336 C188.308544,53.0358987 190.231746,53.6166101 191.623815,53.6166101 C194.43288,53.6166101 195.546919,51.5971268 195.546919,48.6683215 L195.546919,47.8098785 L195.495915,47.8098785 C194.762298,49.4009054 193.091815,50.1828383 191.421333,50.1828383 C187.523923,50.1828383 185.57541,47.1285564 185.57541,43.568543 C185.57541,40.4886302 187.068337,36.6765161 191.623815,36.6765161 C193.268988,36.6765161 194.736604,37.4087174 195.521225,38.8478718 L195.546919,38.8478718 L195.546919,36.979496 L197.571363,36.979496 L197.571363,48.9211872 Z" id="Fill-75" fill="#000000" fill-rule="evenodd" mask="url(#mask-9)"></path>
                <path d="M200.736268,36.9794195 L202.761096,36.9794195 L202.761096,39.731104 L202.811716,39.731104 C203.849057,37.6106275 205.291747,36.6006946 207.620298,36.6764396 L207.620298,38.948406 C204.152781,38.948406 202.887264,40.8925268 202.887264,44.2249228 L202.887264,50.0316544 L200.736268,50.0316544 L200.736268,36.9794195 Z" id="Fill-76" fill="#000000" fill-rule="evenodd" mask="url(#mask-9)"></path>
                <path d="M216.731639,43.2911557 C215.06154,44.5279409 210.202337,43.3160215 210.202337,46.5225584 C210.202337,47.9364644 211.417234,48.4414309 212.732988,48.4414309 C215.567363,48.4414309 216.731639,46.6992966 216.731639,45.4873772 L216.731639,43.2911557 Z M220.224083,49.981196 C219.844428,50.2084309 219.312911,50.3346725 218.680536,50.3346725 C217.56688,50.3346725 216.858191,49.7287128 216.858191,48.3151893 C215.668988,49.7287128 214.074053,50.3346725 212.252092,50.3346725 C209.872919,50.3346725 207.924406,49.2994913 207.924406,46.6740483 C207.924406,43.7199946 210.126023,43.0635383 212.353333,42.6599477 C214.707195,42.1802295 216.756949,42.3822161 216.756949,40.7410752 C216.756949,38.8478336 215.188092,38.570102 213.846643,38.570102 C212.024298,38.570102 210.683234,39.1251826 210.581992,41.044055 L208.430613,41.044055 C208.557165,37.8126523 211.037195,36.6764779 213.973195,36.6764779 C216.326674,36.6764779 218.882635,37.2066926 218.882635,40.261357 L218.882635,46.9770282 C218.882635,47.9865785 218.882635,48.4414309 219.566398,48.4414309 C219.768497,48.4414309 219.996674,48.3905517 220.224083,48.3151893 L220.224083,49.981196 Z" id="Fill-77" fill="#000000" fill-rule="evenodd" mask="url(#mask-9)"></path>
                <path d="M222.224828,36.9794195 L224.249272,36.9794195 L224.249272,38.8982919 L224.299892,38.8982919 C225.286996,37.4086409 226.679065,36.6764396 228.52672,36.6764396 C230.146199,36.6764396 231.588888,37.2823993 232.120405,38.8982919 C233.005884,37.4843859 234.524505,36.6764396 236.220298,36.6764396 C238.82688,36.6764396 240.573294,37.7621174 240.573294,40.4633054 L240.573294,50.0316544 L238.421914,50.0316544 L238.421914,41.4732383 C238.421914,39.8573456 237.991638,38.5700638 235.891263,38.5700638 C233.790505,38.5700638 232.47475,39.8829765 232.47475,41.9024597 L232.47475,50.0316544 L230.323371,50.0316544 L230.323371,41.4732383 C230.323371,39.7816007 229.791854,38.5700638 227.868651,38.5700638 C225.337617,38.5700638 224.375823,40.8925268 224.375823,41.9024597 L224.375823,50.0316544 L222.224828,50.0316544 L222.224828,36.9794195 Z" id="Fill-78" fill="#000000" fill-rule="evenodd" mask="url(#mask-9)"></path>
                <path d="M243.814475,36.9794195 L245.838919,36.9794195 L245.838919,38.8982919 L245.88954,38.8982919 C246.876643,37.4086409 248.268712,36.6764396 250.116367,36.6764396 C251.735846,36.6764396 253.178536,37.2823993 253.710053,38.8982919 C254.595531,37.4843859 256.114152,36.6764396 257.809945,36.6764396 C260.416527,36.6764396 262.162941,37.7621174 262.162941,40.4633054 L262.162941,50.0316544 L260.011562,50.0316544 L260.011562,41.4732383 C260.011562,39.8573456 259.581286,38.5700638 257.480911,38.5700638 C255.380152,38.5700638 254.064398,39.8829765 254.064398,41.9024597 L254.064398,50.0316544 L251.913018,50.0316544 L251.913018,41.4732383 C251.913018,39.7816007 251.381501,38.5700638 249.458298,38.5700638 C246.927264,38.5700638 245.965471,40.8925268 245.965471,41.9024597 L245.965471,50.0316544 L243.814475,50.0316544 L243.814475,36.9794195 Z" id="Fill-79" fill="#000000" fill-rule="evenodd" mask="url(#mask-9)"></path>
                <path d="M274.489961,42.2559362 C274.363409,40.2108221 272.870099,38.5700638 270.71872,38.5700638 C268.491793,38.5700638 267.099724,40.236453 266.973172,42.2559362 L274.489961,42.2559362 Z M276.565026,45.8913121 C275.983271,48.7948691 273.933133,50.3346342 270.971823,50.3346342 C266.796383,50.3346342 264.822176,47.4310772 264.695625,43.4678557 C264.695625,39.5295 267.276896,36.6764396 270.845271,36.6764396 C275.476681,36.6764396 276.89406,40.9935201 276.767509,44.1491779 L266.973172,44.1491779 C266.897241,46.4215268 268.188069,48.4413926 271.047754,48.4413926 C272.844789,48.4413926 274.059685,47.6078154 274.438957,45.8913121 L276.565026,45.8913121 Z" id="Fill-80" fill="#000000" fill-rule="evenodd" mask="url(#mask-9)"></path>
            </g>
        </g>
        <g id="Plant-Right" opacity="0.641056504" stroke-width="1" transform="translate(358.7754, 268)">
            <path d="M82.4644143,75.4090664 C68.8364803,76.3579073 52.6102943,83.5032581 52.2147959,93.6751761 C51.9277295,101.065938 53.0165715,108.290922 52.1521652,115.73137 C51.4605927,121.677887 49.2928021,127.544372 46.0929582,133.231178 C43.0161027,138.699637 35.9793458,143.818937 34.6021443,149.460191 C33.7243069,153.054711 34.9316453,157.854485 37.0004866,161.06281 C39.5163911,164.96358 38.3751264,164.754336 34.5881778,168.647299 C27.167548,176.276302 20.574647,183.992729 16.2464974,192.627724 C10.0119794,205.065232 6.55323858,219.200971 10.6624565,231.666236 C11.1849868,233.249158 12.213502,239.018375 15.5418514,239.080469 C19.2592057,239.147951 17.1938915,236.003663 16.8851028,234.950303 C14.9163515,228.229058 13.1773952,222.35589 13.9519897,215.238073 C16.9411952,187.775157 43.4563035,167.101131 59.5367139,142.369279 C60.4288578,141.087263 62.2788792,138.063359 63.5756575,136.060384 C65.6229667,132.898131 67.4062175,127.102947 70.3653059,124.606699 C75.9381799,119.904147 71.2816597,128.669852 70.2766119,130.355465 C69.0059712,132.487591 67.6003766,134.759418 66.2674527,136.650761 C60.1794612,145.408253 53.3633399,154.985745 47.074057,164.014612 C78.5401846,165.549704 97.6900567,137.986829 104.252852,120.499375 C109.660117,106.091622 114.487371,73.2274957 82.4644143,75.4090664" id="Leaf-Me-Alone!" fill="#69A1AC" transform="translate(58.5288, 157.193) scale(-1, 1) rotate(6) translate(-58.5288, -157.193)"></path>
            <path d="M209.159083,52.7995474 C186.336347,54.0288928 171.684653,64.2528634 164.864239,78.5529343 C161.18828,86.2593471 160.766945,94.1760803 158.724185,102.095671 C155.651214,114.010778 149.039366,123.040266 136.117583,131.529093 C132.115321,134.158098 129.165976,136.8574 127.069392,139.745304 C122.907342,142.628637 119.284365,145.89146 116.622638,149.880689 C113.222523,154.975243 112.260432,161.087679 116.186165,166.166801 C117.241605,167.532169 119.874739,170.273192 122.603745,171.51854 C112.386581,186.291261 106.76878,202.470498 107.402044,218.629161 C107.784694,228.38334 108.486078,238.14152 109.304359,247.883696 C109.524698,250.499556 110.779452,254.819125 112.664107,250.432116 C114.388973,246.419455 112.225952,240.120131 112.025797,235.928012 C111.051933,215.506361 110.219354,196.938158 122.602063,177.858442 C123.900549,175.858684 125.277246,173.874929 126.711131,171.907176 C126.79523,171.874027 126.873442,171.834021 126.952495,171.795157 C127.007159,171.823733 127.056777,171.854596 127.111442,171.8826 C127.203109,171.771725 127.328416,171.639703 127.474748,171.49225 C127.885992,171.204203 128.245094,170.840143 128.586535,170.43379 C129.684865,169.400477 130.927846,168.186563 130.934574,167.521882 C130.934574,167.516738 130.930369,167.508737 130.930369,167.503593 C138.595975,159.008479 147.375891,150.981442 156.344188,143.111573 C156.276909,143.168726 166.071898,134.114662 164.557278,139.121773 C163.827301,141.534742 156.622555,146.129785 153.712737,148.685635 C147.275814,154.371715 139.717012,161.57633 133.435672,168.543193 C132.590479,168.872961 131.396276,170.492085 130.532581,171.697998 C130.055741,172.308956 129.610858,172.925058 129.173544,173.461718 C151.430295,178.453969 168.743717,168.398026 180.549508,156.701813 C180.563805,156.688096 180.57642,156.673808 180.589876,156.660092 C184.182577,153.428131 187.862741,150.21903 192.460423,147.664324 C200.131075,143.401335 208.345847,142.649211 217.389834,140.551151 C242.053492,134.830209 252.539773,113.130061 255.870086,97.0285504 C259.62762,78.8632711 241.247825,51.008395 209.159083,52.7995474" id="Leaf-Me-Alone!"></path>
            <path d="M178.512337,6.6022327 C153.013009,19.7318487 138.611755,40.8895367 126.734748,61.0133946 C113.469562,83.4897405 103.517121,106.807205 99.7780499,131.588564 C97.3219306,147.870075 94.3627643,164.184708 93.4757591,180.667442 C93.1601807,186.521201 93.1951891,192.434537 93.7413857,198.346005 C93.7865254,198.831804 95.0122217,212.031936 98.3213255,209.461224 C100.203295,207.999327 97.0870988,195.773257 96.9993542,193.797539 C96.5083213,182.66997 97.5753921,171.679781 99.2087677,160.770808 C101.897829,142.809533 103.631317,124.807842 108.83443,107.267321 C109.610664,104.648332 110.32234,101.88301 111.62615,99.3974438 C113.010902,96.7547384 111.574518,97.7914114 114.966509,97.1448902 C118.262434,96.5160859 122.127845,97.2152909 125.580239,96.3306084 C139.27457,92.8207848 147.820596,80.0626883 154.236883,71.8053386 C161.575545,62.3627897 166.6976,51.9137395 171.078393,41.5071094 C174.295589,33.8608813 176.90731,26.1788171 178.887986,18.2545348 C179.512089,15.7570565 179.900621,13.1082547 180.984825,10.7186829 C181.276939,10.0740573 182.436138,9.02400625 182.483864,8.42348504 C182.584752,7.15252432 181.568416,6.25387089 181.625517,5.18201819 C180.571153,5.63880089 179.532426,6.11251026 178.512337,6.6022327" id="Leaf-Me-Alone!" fill="#89C5CC" transform="translate(137.8832, 107.4875) rotate(-8) translate(-137.8832, -107.4875)"></path>
            <path d="M36.3537127,222.440744 C36.3537127,249.811565 69.036926,272 109.353713,272 C149.670499,272 182.353713,249.811565 182.353713,222.440744" id="Base" fill="#89C5CC"></path>
            <path d="M159.381278,179.049108 C177.448326,178.144837 197.624865,188.040175 206.339777,198.337729 C213.365243,206.640266 212.181705,217.54258 207.842348,226.363235 C204.936536,232.268536 198.594592,240.688122 188.018513,240.770172 C177.565324,240.85131 174.971937,233.93924 174.217532,227.832497 L174.163673,227.370369 C174.0037,225.912668 173.941283,224.512969 173.892662,223.279764 C173.552584,214.65075 171.946475,207.133713 161.931019,201.251937 C159.596773,199.88176 157.045348,198.676257 154.687532,197.325015 C154.498197,197.216557 154.307842,197.107966 154.117004,196.999069 L153.543584,196.671287 C150.196476,194.75186 146.866631,192.685788 146.439807,189.545763 C145.783221,184.718587 149.796811,183.84989 155.924944,184.746702 C156.342802,184.807751 158.277204,185.357291 160.348338,185.832598 L160.828091,185.94071 C163.79379,186.596117 166.821442,187.013531 165.934507,185.571218 C165.458904,184.797194 163.721477,184.183828 161.52865,183.724233 C160.898159,183.677694 160.254179,183.630325 159.604822,183.583285 L158.431924,183.499217 C153.600538,183.157117 148.741205,182.871003 147.141006,183.109719 C126.145418,186.236798 117.970927,205.980997 115.799986,218.525458 C115.565705,219.879411 115.37625,221.23778 115.211038,222.598237 L111.353746,222.598088 C111.621384,219.312702 111.974896,216.033066 112.783901,212.784257 C115.878271,200.358568 125.553649,182.108481 146.773992,180.091659 C147.556844,180.016494 150.436561,180.003871 153.924883,180.142725 C155.578132,179.515588 157.43004,179.136322 159.381278,179.049108 Z" id="Leaf-Me-Alone!" fill="#69A1AC"></path>
        </g>
    </g>
</svg>