<?xml version="1.0" encoding="UTF-8"?>
<svg width="578px" height="543px" viewBox="0 0 578 543" version="1.1" xmlns="http://www.w3.org/2000/svg" xmlns:xlink="http://www.w3.org/1999/xlink">
    <title>Screen Logo BCause plants</title>
    <defs>
        <path d="M0,0 L578,0 L578,543 L0,543 L0,0 Z" id="path-1"></path>
        <filter x="-6.0%" y="-5.9%" width="112.0%" height="113.9%" filterUnits="objectBoundingBox" id="filter-2">
            <feOffset dx="0" dy="4" in="SourceAlpha" result="shadowOffsetOuter1"></feOffset>
            <feGaussianBlur stdDeviation="8" in="shadowOffsetOuter1" result="shadowBlurOuter1"></feGaussianBlur>
            <feColorMatrix values="0 0 0 0 0.658823529   0 0 0 0 0.815686275   0 0 0 0 0.839215686  0 0 0 0.46 0" type="matrix" in="shadowBlurOuter1" result="shadowMatrixOuter1"></feColorMatrix>
            <feMerge>
                <feMergeNode in="shadowMatrixOuter1"></feMergeNode>
                <feMergeNode in="SourceGraphic"></feMergeNode>
            </feMerge>
        </filter>
        <path d="M0,0 L130,0 L130,264 L0,264 L0,0 Z" id="path-3"></path>
        <polygon id="path-4" points="0 0 58.4228394 0 58.4228394 208.315711 0 208.315711"></polygon>
        <polygon id="path-6" points="0 0 108.67157 0 108.67157 48.2136504 0 48.2136504"></polygon>
        <path d="M0,0 L347,0 L347,180 L0,180 L0,0 Z" id="path-8"></path>
    </defs>
    <g id="Screen-Logo-BCause-plants" stroke="none" fill="none" xlink:href="#path-1" fill-rule="evenodd">
        <use fill="#FFFFFF" xlink:href="#path-1"></use>
        <g id="Group" filter="url(#filter-2)" stroke-width="1" transform="translate(72, 84)" stroke="#DDE3E9">
            <rect id="Rectangle" stroke-width="10" fill="#F5FCFF" x="5" y="5" width="423" height="365" rx="45"></rect>
            <path d="M428,46 L428,76.9999996 L5.00000005,76.9999996 L5,46 C5,25.4543515 20.5656456,8.30604189 40.8391128,6.21647755 L45.126162,6.00000036 L388,6 C410.09139,6 428,23.90861 428,46 Z" id="Rectangle-Copy" stroke-width="10" fill="#DDE3E9"></path>
        </g>
        <g id="Artboard-1" transform="translate(3, 271.546)" xlink:href="#path-3">
            <g id="Group-3" stroke-width="1" transform="translate(31.01, 0)">
                <mask id="mask-5" fill="white">
                    <use xlink:href="#path-4"></use>
                </mask>
                <g id="Clip-2"></g>
                <path d="M26.3272757,202.271761 C26.2842198,204.26488 26.0607743,206.295569 25.3874684,208.315711 C24.0386296,208.189823 23.8664058,207.387698 23.2658496,206.790553 L22.1404563,197.93554 C21.2978961,191.308945 20.095299,184.700805 17.8942494,178.524376 C18.5935374,178.209326 19.0582446,177.974687 20.1754721,178.000391 C18.9981148,175.396945 19.4360976,172.866 19.3047028,170.281668 L18.9506048,163.296522 L19.1272826,131.67882 L19.5095897,118.424972 L21.554747,97.3673755 C18.1726284,96.608092 15.0265751,96.0702661 12.2606018,94.7125194 C12.0794699,94.3341958 11.6340636,94.019805 10.9429415,93.6236857 C11.9688607,90.3980487 13.0036881,86.8718619 11.6956782,83.4946318 C10.0550982,79.258594 5.29296233,76.6795344 0.573882375,76.0355934 C-1.03626147,63.4672093 0.826279289,50.9858263 5.10143761,38.9361541 C10.4774919,23.7821194 20.730003,9.08747759 35.7951294,-0.000197730099 L39.8305106,3.16084744 L46.903563,12.6848472 C54.9305272,23.4927744 59.0980457,42.5776835 58.3334315,55.8328502 C57.7900358,65.2388709 55.6520854,74.2573407 51.6798034,82.8731002 C48.8937869,88.9163911 42.1763173,95.4263251 35.3259681,96.1262896 C31.4873079,96.5191134 27.8327491,96.8849141 24.1574046,98.1642278 L23.4454969,102.676429 C22.2748206,114.459165 21.6594175,126.009239 21.6764914,137.907319 L21.7150933,164.31615 C21.7240014,170.356805 21.7321672,176.13316 22.5405797,182.134928 L25.1900049,194.344102 C25.7831377,197.07805 26.3836939,199.670292 26.3272757,202.271761" id="Fill-1" fill="#9FC3CA" mask="url(#mask-5)"></path>
            </g>
            <g id="Group-6" stroke-width="1" transform="translate(0, 215.7863)">
                <mask id="mask-7" fill="white">
                    <use xlink:href="#path-6"></use>
                </mask>
                <g id="Clip-5"></g>
                <path d="M54.4173686,0.0290004144 C56.0074691,0.0290004144 57.3741242,0.386891893 58.9181994,0 L102.003837,0.046137023 L108.67157,0.245185322 C108.463714,5.54171556 107.808966,10.5390142 105.9004,15.1968763 C102.706095,22.9920558 97.9083262,29.9949968 90.8256234,35.7351016 C80.2078791,44.3403155 66.1798071,48.6752183 51.8651904,48.1749612 C22.7341324,47.1566512 -0.0498855077,25.7115038 -0.000229743903,0.0217503108 L54.4173686,0.0290004144 Z" id="Fill-4" fill="#B4DADE" mask="url(#mask-7)"></path>
            </g>
            <path d="M31.584059,76.0355275 C36.3023966,76.6801276 41.0645325,79.2585281 42.7058548,83.4945659 C44.0131224,86.871796 42.978295,90.3979828 41.9523758,93.6236198 C42.6442403,94.0197391 43.0889042,94.3341299 43.2700361,94.7124535 C42.8721398,94.5173598 42.5284346,94.2906293 41.9546028,93.7850993 C38.513839,107.775163 37.4916315,123.289066 44.9982127,135.962248 C47.1042422,139.518094 48.10121,143.365262 47.4048915,147.233522 C46.8897048,150.094677 46.2460927,152.664509 44.9581261,155.415594 C44.6262984,156.122808 43.7495903,157.549101 44.2506724,158.351886 C46.8243786,162.479172 48.7143861,166.585367 49.9860211,170.954543 C50.4232616,170.686289 50.167153,170.358057 50.3148794,170.281602 C50.4462743,172.865934 50.0075491,175.396879 51.1849064,178.000326 C50.0676789,177.974621 49.603714,178.20926 48.9044261,178.52431 L41.9635109,159.0446 L36.7841778,146.250145 C34.0345361,139.457457 31.8008234,132.576449 30.3309826,125.334255 C29.9961855,123.683208 28.9650699,121.98273 27.4157982,121.039557 C27.2992502,124.402946 28.1670502,127.33792 29.2471605,130.307167 L34.9899327,146.088006 L39.3808966,158.168656 C34.8384945,159.267376 30.385916,157.955766 27.0542768,155.210614 C23.2000274,152.03375 20.3189909,148.323674 18.0162402,144.071159 C14.410676,137.412268 11.8807682,130.494351 10.414639,123.151314 C7.79639221,110.038513 7.12902507,83.3377 21.7658191,77.339228 C24.8487731,76.0757326 28.365256,75.5959076 31.584059,76.0355275" id="Fill-7" fill="#69A1AC"></path>
            <path d="M105.900697,230.983358 C107.809263,226.325496 108.463268,221.328197 108.671867,216.031008 L102.003392,215.832618 C101.542396,207.266951 100.074783,200.149985 91.926074,194.624747 C86.6732488,191.062969 78.5646267,186.877682 80.3135889,181.127032 C80.9460659,179.046252 84.2398456,178.409561 87.0897037,179.097003 L94.9637451,180.997848 C95.4158325,181.106599 95.6741681,180.957643 95.8256063,180.823186 C96.5998709,180.135745 94.862044,178.670565 92.7062774,178.397038 C89.3531101,177.971918 85.9219968,177.47957 82.5814494,177.728051 C78.7264577,178.014101 75.0303276,180.203632 72.1715614,182.787964 C63.146887,190.947626 59.6274347,204.673391 58.9184964,215.786481 C57.3744211,216.173373 56.0077661,215.815482 54.4176655,215.815482 L54.2758778,206.79108 C54.876434,207.388225 55.0486578,208.189691 56.3974966,208.315579 C57.0708025,206.295437 57.294248,204.264749 57.3373039,202.271629 C57.885896,202.184628 57.8806996,201.783236 58.0343648,201.250024 C59.7194854,195.379417 62.1484345,189.805406 65.7450905,184.73231 C68.7263435,180.526591 72.6548272,177.345773 77.7153854,175.542475 C80.8087322,174.440459 83.4997288,174.690258 86.7111083,174.649394 C88.5268814,174.626984 90.520817,173.352943 92.629816,173.533537 C96.5241519,173.866382 100.097795,174.246024 103.796895,175.555657 C112.15346,178.515017 119.348999,183.469474 124.600339,190.030818 C127.710018,193.915555 129.455268,198.152252 129.870981,202.958412 C130.698694,212.52723 127.570457,226.026923 119.292581,231.811847 C115.437589,234.504931 108.665928,234.394861 105.900697,230.983358" id="Fill-9" fill="#69A1AC"></path>
        </g>
        <circle id="Oval" fill="#98AAB2" cx="116" cy="128" r="14"></circle>
        <circle id="Oval-Copy" fill="#98AAB2" cx="161.5" cy="128" r="14"></circle>
        <circle id="Oval-Copy-2" fill="#98AAB2" cx="207" cy="128" r="14"></circle>
        <g id="Group-Copy-2" stroke-width="1" transform="translate(121, 219)">
            <g id="logo-BCause" xlink:href="#path-8">
                <path d="M296.588383,129.025292 C285.72715,151.219203 262.917802,166.540589 236.593464,166.540589 C211.568929,166.540589 190.988132,154.78445 179.572767,136.009203 C177.251119,136.504649 174.267543,137.055342 170.45767,137.689797 C168.986372,137.934847 167.436676,138.134896 165.816155,138.298856 C169.191721,144.849252 173.466636,150.865441 178.575866,156.170094 C193.163229,171.314153 213.767635,179.655193 236.593464,179.655193 C267.599852,179.655193 294.534001,161.890441 307.760982,136.00252 C303.491857,134.261332 299.746573,131.919104 296.588383,129.025292" id="Fill-1" fill="#DE4D3B"></path>
                <path d="M11.4821365,42.589203 C13.2443085,42.4501931 14.9650543,42.3419257 16.6421467,42.2612822 C28.6949401,24.7959356 48.8392032,13.3262822 71.6146974,13.3262822 C101.694118,13.3262822 127.186814,33.329896 135.505015,60.7344505 C136.011038,60.6061337 136.534878,60.4778168 137.100591,60.3472723 C138.694831,59.9792525 140.447203,59.6486584 142.307818,59.364401 C144.073999,59.0961832 145.939959,58.8649455 147.865163,58.6751436 C148.091448,58.6533119 148.31907,58.6372723 148.546246,58.6172228 C139.142501,24.9679158 108.215848,0.212123762 71.6146974,0.212123762 C40.56332,0.212123762 13.5962083,18.029896 0.389272529,43.9788564 C3.81561913,43.3689059 7.53952157,42.9001931 11.4821365,42.589203" id="Fill-3" fill="#DE4D3B"></path>
                <path d="M17.2043402,94.8014554 L17.2043402,112.887446 C18.3486829,113.022891 19.5941412,113.12403 20.9420513,113.190416 C22.2886252,113.258584 23.7706136,113.291554 25.3866804,113.291554 C30.099466,113.291554 33.9053299,112.618782 36.8015995,111.270564 C39.6960873,109.924129 41.145113,107.431752 41.145113,103.794327 C41.145113,100.560564 39.9330629,98.2544257 37.5085173,96.8727921 C35.0844172,95.4929406 31.6153081,94.8014554 27.1038626,94.8014554 L17.2043402,94.8014554 Z M17.2043402,82.7779901 L24.8815481,82.7779901 C29.7306393,82.7779901 33.1984121,82.1560099 35.2862028,80.9089307 C37.3731027,79.6631881 38.4176662,77.6600198 38.4176662,74.8967525 C38.4176662,72.0679901 37.3396945,70.0817525 35.1855327,68.9353663 C33.0291438,67.7912079 29.8647176,67.2182376 25.6895815,67.2182376 C24.3416714,67.2182376 22.8944275,67.2356139 21.346068,67.2685842 C19.7959268,67.3033366 18.4168357,67.387099 17.2043402,67.5212079 L17.2043402,82.7779901 Z M25.1848947,126.224376 C21.346068,126.224376 17.5232773,126.106307 13.7196406,125.870614 C9.91377664,125.63403 5.95690757,125.080218 1.8503697,124.203832 L1.8503697,56.3059604 C5.08250321,55.6995743 8.61842875,55.2451188 12.45681,54.9421485 C16.2951913,54.6387327 19.8640796,54.4872475 23.1643659,54.4872475 C27.6089949,54.4872475 31.6999422,54.8080396 35.4380988,55.4469505 C39.1753646,56.0880891 42.3905712,57.181901 45.0846098,58.7306139 C47.7777574,60.2811089 49.8829204,62.3176931 51.3983171,64.8439307 C52.9132683,67.3697228 53.6709666,70.4858614 53.6709666,74.1896733 C53.6709666,79.781703 50.9769281,84.1921485 45.589742,87.4259109 C50.0348164,89.1105149 53.0647189,91.4006139 54.6807856,94.2962079 C56.2977433,97.1935842 57.1057766,100.459426 57.1057766,104.096851 C57.1057766,111.439871 54.4282195,116.963733 49.0744416,120.667545 C43.7206637,124.372693 35.7565905,126.224376 25.1848947,126.224376 L25.1848947,126.224376 Z" id="Fill-5" fill="#1A4351"></path>
                <path d="M101.653182,126.729668 C90.2716714,126.729668 81.6015712,123.56452 75.6415456,117.231995 C69.6819653,110.901698 66.7019525,101.908827 66.7019525,90.2547178 C66.7019525,84.4626386 67.610656,79.2920941 69.4289538,74.7453119 C71.247697,70.1989752 73.7381682,66.3592723 76.9043761,63.2270941 C80.0688023,60.0949158 83.8399217,57.7201634 88.2177343,56.1037277 C92.594656,54.4872921 97.3426316,53.6790743 102.461216,53.6790743 C105.423411,53.6790743 108.117895,53.8982822 110.54244,54.3358069 C112.966986,54.7742228 115.088185,55.2794703 116.906037,55.851104 C118.72478,56.4245198 120.239732,57.0130842 121.451782,57.6194703 C122.664277,58.2254109 123.538682,58.6976881 124.078558,59.0340743 L119.532814,71.7646188 C117.37687,70.6200149 114.868582,69.6433812 112.007502,68.8347178 C109.14375,68.0265 105.89558,67.6219455 102.258985,67.6219455 C99.834439,67.6219455 97.4611194,68.0265 95.1376893,68.8347178 C92.8142593,69.6433812 90.7589859,70.9408069 88.9754326,72.7247673 C87.190543,74.5100644 85.7588896,76.8166485 84.6822542,79.6458564 C83.6042824,82.4750644 83.0661874,85.9102129 83.0661874,89.9517475 C83.0661874,93.1850644 83.4198691,96.2005099 84.1267869,98.9945198 C84.8337047,101.790312 85.9784929,104.198035 87.5615969,106.219025 C89.1433646,108.239569 91.2137831,109.840856 93.7737433,111.017985 C96.3323671,112.197342 99.4304223,112.786351 103.067463,112.786351 C105.356149,112.786351 107.410977,112.651797 109.229275,112.382243 C111.047127,112.113579 112.663639,111.793678 114.07792,111.42254 C115.492202,111.052738 116.73766,110.631252 117.815632,110.159421 C118.891822,109.688926 119.869123,109.250064 120.744864,108.845955 L125.088377,121.475361 C122.866508,122.823579 119.734599,124.036351 115.693987,125.113233 C111.653375,126.189668 106.972216,126.729668 101.653182,126.729668" id="Fill-7" fill="#1A4351"></path>
                <path d="M156.383724,114.80703 C157.864376,114.80703 159.278657,114.774059 160.626567,114.705891 C161.972696,114.63995 163.050667,114.538812 163.859146,114.403366 L163.859146,102.985842 C163.252453,102.851733 162.34375,102.717178 161.131699,102.581733 C159.919204,102.447624 158.808269,102.379455 157.798005,102.379455 C156.383724,102.379455 155.053186,102.464554 153.808173,102.632079 C152.560933,102.801386 151.466925,103.121287 150.524814,103.591782 C149.58092,104.064059 148.840594,104.70297 148.302499,105.511634 C147.762622,106.319851 147.49402,107.330792 147.49402,108.542673 C147.49402,110.901386 148.285127,112.533861 149.868231,113.443218 C151.449999,114.352129 153.621533,114.80703 156.383724,114.80703 M155.171674,70.7542574 C159.616303,70.7542574 163.319269,71.259505 166.283246,72.27 C169.245887,73.280495 171.619652,74.7294059 173.404542,76.614505 C175.188095,78.5013861 176.450925,80.7919307 177.192588,83.4852475 C177.932914,86.179901 178.303968,89.1784158 178.303968,92.4776733 L178.303968,123.799901 C176.148024,124.271733 173.152421,124.827327 169.31404,125.466683 C165.475213,126.10604 160.828798,126.426386 155.373459,126.426386 C151.939095,126.426386 148.823222,126.123416 146.029404,125.51703 C143.23425,124.911089 140.827522,123.91797 138.807439,122.536782 C136.786465,121.156931 135.237214,119.353812 134.160579,117.13099 C133.082162,114.908614 132.544067,112.180099 132.544067,108.947228 C132.544067,105.849802 133.165905,103.222426 134.413145,101.065545 C135.658158,98.9108911 137.325005,97.1937624 139.413241,95.9128218 C141.499696,94.6345545 143.891278,93.7078218 146.585317,93.1344059 C149.278019,92.5627723 152.073619,92.2758416 154.969888,92.2758416 C156.921819,92.2758416 158.656819,92.360495 160.17177,92.5284653 C161.687167,92.6973267 162.915253,92.9165347 163.859146,93.185198 L163.859146,91.7705941 C163.859146,89.2113861 163.084076,87.1569802 161.535271,85.6073762 C159.985575,84.0582178 157.292873,83.2834158 153.454492,83.2834158 C150.894086,83.2834158 148.36887,83.4696535 145.878399,83.8390099 C143.386146,84.2101485 141.231539,84.7327723 139.413241,85.4046535 L137.494273,73.280495 C138.368232,73.0122772 139.464022,72.7244554 140.776742,72.4214851 C142.089907,72.1185149 143.520225,71.850297 145.070366,71.6132673 C146.618725,71.3780198 148.252164,71.1761881 149.969346,71.0068812 C151.686529,70.8393564 153.419747,70.7542574 155.171674,70.7542574" id="Fill-9" fill="#1A4351"></path>
                <path d="M236.405755,123.496441 C233.845794,124.238272 230.54729,124.928421 226.505787,125.567332 C222.465174,126.207134 218.222777,126.52748 213.778147,126.52748 C209.265366,126.52748 205.510728,125.921094 202.515124,124.709213 C199.517294,123.496441 197.143974,121.796243 195.393384,119.606837 C193.641457,117.418322 192.395999,114.806985 191.655673,111.7755 C190.91401,108.744906 190.544738,105.41045 190.544738,101.77347 L190.544738,72.1688168 L205.595807,72.1688168 L205.595807,99.9543119 C205.595807,104.80451 206.235463,108.307827 207.515221,110.46248 C208.793642,112.618916 211.184779,113.695797 214.687296,113.695797 C215.763486,113.695797 216.909611,113.64545 218.121661,113.544312 C219.333711,113.443619 220.410792,113.326441 221.353794,113.19055 L221.353794,72.1688168 L236.405755,72.1688168 L236.405755,123.496441 Z" id="Fill-11" fill="#1A4351"></path>
                <path d="M265.799773,114.504193 C268.560628,114.504193 270.513004,114.23553 271.659128,113.695975 C272.803026,113.157757 273.376311,112.113847 273.376311,110.563351 C273.376311,109.35147 272.634648,108.290183 271.154442,107.381272 C269.671562,106.47147 267.416285,105.445381 264.385492,104.299441 C262.027763,103.424837 259.890528,102.515035 257.971114,101.571371 C256.051701,100.628599 254.418707,99.4995891 253.072134,98.1865693 C251.723778,96.873104 250.680996,95.3065693 249.94067,93.4878564 C249.198117,91.6695891 248.829736,89.4810743 248.829736,86.9205297 C248.829736,81.9366683 250.680996,77.9962723 254.385299,75.0993416 C258.088266,72.2037475 263.173442,70.7543911 269.638154,70.7543911 C272.871178,70.7543911 275.967452,71.0417673 278.931429,71.613401 C281.894515,72.1863713 284.250908,72.8101337 286.002834,73.4824604 L283.376949,85.2025099 C281.624576,84.5965693 279.722981,84.0583515 277.669044,83.5860743 C275.61377,83.1160248 273.307712,82.878995 270.749979,82.878995 C266.035412,82.878995 263.678574,84.1924604 263.678574,86.8198366 C263.678574,87.4257772 263.779689,87.9657772 263.98192,88.4362723 C264.183706,88.908104 264.587723,89.363005 265.19397,89.8000842 C265.799773,90.2389455 266.623842,90.7125594 267.668406,91.2209257 C268.712078,91.7310743 270.042616,92.2915693 271.659128,92.9010743 C274.957633,94.1240941 277.68508,95.3306287 279.840578,96.5175594 C281.995185,97.7067178 283.69544,98.9903317 284.94268,100.366619 C286.188139,101.744688 287.063434,103.274688 287.568566,104.954391 C288.073698,106.634094 288.326264,108.583797 288.326264,110.800381 C288.326264,116.04355 286.356516,120.008896 282.417465,122.697757 C278.477077,125.384391 272.903696,126.72949 265.698657,126.72949 C260.98409,126.72949 257.061965,126.325381 253.930502,125.517163 C250.798593,124.708946 248.627504,124.036619 247.4159,123.496619 L249.94067,111.270431 C252.498849,112.281371 255.125625,113.07355 257.819664,113.645183 C260.512811,114.218153 263.173442,114.504193 265.799773,114.504193" id="Fill-13" fill="#1A4351"></path>
                <path d="M332.368226,93.3869406 C332.300073,92.1082277 332.08047,90.8611485 331.711198,89.6483762 C331.340144,88.4360495 330.767304,87.3591683 329.994461,86.415505 C329.218945,85.4727327 328.242089,84.6974851 327.064338,84.0915446 C325.885696,83.4851584 324.42108,83.1821881 322.670489,83.1821881 C320.985824,83.1821881 319.539026,83.4695644 318.32653,84.0407525 C317.11448,84.6141683 316.104216,85.3715941 315.296182,86.3143663 C314.488149,87.2584752 313.864974,88.3527327 313.42755,89.5980297 C312.988788,90.8451089 312.669851,92.1082277 312.468066,93.3869406 L332.368226,93.3869406 Z M297.012089,99.146495 C297.012089,94.4321881 297.735488,90.3051089 299.184514,86.7688218 C300.631312,83.2325347 302.533353,80.2865941 304.891528,77.9283267 C307.247921,75.5709505 309.957995,73.7856535 313.023533,72.5733267 C316.087289,71.3605545 319.23657,70.7546139 322.468258,70.7546139 C330.010051,70.7546139 335.969632,73.0625347 340.348335,77.675703 C344.725257,82.2902079 346.913718,89.0771881 346.913718,98.0348614 C346.913718,98.910802 346.878973,99.8709505 346.813048,100.914416 C346.74534,101.959218 346.677188,102.884614 346.611262,103.692832 L312.468066,103.692832 C312.804375,106.79204 314.251173,109.250109 316.811134,111.068822 C319.369758,112.887535 322.804122,113.796891 327.114673,113.796891 C329.875528,113.796891 332.585602,113.544267 335.246678,113.03902 C337.906417,112.534218 340.078397,111.911792 341.762616,111.169515 L343.7827,123.395703 C342.974666,123.799812 341.896249,124.203921 340.550566,124.60803 C339.202656,125.011693 337.704186,125.365455 336.054711,125.668871 C334.4039,125.971842 332.636383,126.224465 330.751714,126.426297 C328.865709,126.628574 326.978813,126.729713 325.094589,126.729713 C320.31276,126.729713 316.154996,126.022188 312.619516,124.60803 C309.084482,123.193426 306.153913,121.25798 303.831374,118.798129 C301.507944,116.340059 299.790761,113.427089 298.679381,110.058327 C297.567556,106.690455 297.012089,103.053475 297.012089,99.146495 L297.012089,99.146495 Z" id="Fill-15" fill="#1A4351"></path>
                <path d="M199.2674,53.0279554 C200.045589,53.0101337 200.761416,52.8795891 201.413099,52.6372129 C202.064782,52.3943911 202.617576,52.0624604 203.070146,51.6400842 C203.522271,51.2177079 203.875061,50.7097871 204.128518,50.1167673 C204.382421,49.5237475 204.509372,48.858995 204.509372,48.1220644 C204.509372,46.6664703 204.034085,45.4982525 203.083509,44.6174109 C202.13338,43.7370149 200.86075,43.2518168 199.2674,43.1618168 L199.2674,53.0279554 Z M195.927024,43.1618168 C194.333675,43.2518168 193.061936,43.7370149 192.111361,44.6174109 C191.160785,45.4982525 190.685498,46.6664703 190.685498,48.1220644 C190.685498,48.858995 190.807995,49.5237475 191.052543,50.1167673 C191.296646,50.7097871 191.649436,51.2177079 192.111361,51.6400842 C192.573285,52.0624604 193.125189,52.3943911 193.767963,52.6372129 C194.410737,52.8795891 195.129682,53.0101337 195.927024,53.0279554 L195.927024,43.1618168 Z M195.927024,58.0960248 L195.927024,55.8589455 C194.623658,55.8228564 193.437444,55.6072129 192.369717,55.2115693 C191.300655,54.8163713 190.382597,54.2772624 189.612872,53.5942426 C188.843146,52.9112228 188.250262,52.1074604 187.834218,51.1811733 C187.416838,50.2562228 187.209262,49.2452822 187.209262,48.148797 C187.209262,47.0705792 187.416838,46.068995 187.834218,45.1431535 C188.250262,44.2177574 188.843146,43.4090941 189.612872,42.7171634 C190.382597,42.0256782 191.300655,41.4727574 192.369717,41.0592921 C193.437444,40.6458267 194.623658,40.4034505 195.927024,40.3312723 L195.927024,38.2015693 L199.2674,38.2015693 L199.2674,40.3312723 C200.572103,40.4034505 201.757426,40.6458267 202.825598,41.0592921 C203.89377,41.4727574 204.808264,42.0256782 205.56819,42.7171634 C206.329452,43.4090941 206.921445,44.2177574 207.347289,45.1431535 C207.773132,46.068995 207.985163,47.0705792 207.985163,48.148797 C207.985163,49.2452822 207.773132,50.2562228 207.347289,51.1811733 C206.921445,52.1074604 206.329452,52.9112228 205.56819,53.5942426 C204.808264,54.2772624 203.89377,54.8163713 202.825598,55.2115693 C201.757426,55.6072129 200.572103,55.8228564 199.2674,55.8589455 L199.2674,58.0960248 L195.927024,58.0960248 Z" id="Fill-17" fill="#1A4351"></path>
                <path d="M214.395041,48.741995 C214.395041,49.766302 214.521102,50.6961535 214.775004,51.531995 C215.028907,52.3678366 215.395506,53.0775891 215.875248,53.661698 C216.354545,54.2458069 216.938075,54.6993713 217.627175,55.0232822 C218.314493,55.346302 219.093573,55.5084802 219.962632,55.5084802 C220.813428,55.5084802 221.583153,55.346302 222.271362,55.0232822 C222.959572,54.6993713 223.543102,54.2458069 224.023289,53.661698 C224.501695,53.0775891 224.869185,52.3678366 225.122642,51.531995 C225.376545,50.6961535 225.50305,49.766302 225.50305,48.741995 C225.50305,47.7176881 225.376545,46.7873911 225.122642,45.951995 C224.869185,45.1161535 224.501695,44.4068465 224.023289,43.8222921 C223.543102,43.2386287 222.959572,42.7841733 222.271362,42.4611535 C221.583153,42.1376881 220.813428,41.9755099 219.962632,41.9755099 C219.093573,41.9755099 218.314493,42.1376881 217.627175,42.4611535 C216.938075,42.7841733 216.354545,43.2426386 215.875248,43.8356584 C215.395506,44.4291238 215.028907,45.1393218 214.775004,45.9653614 C214.521102,46.7922921 214.395041,47.7176881 214.395041,48.741995 M229.087975,48.741995 C229.087975,50.3419455 228.847435,51.7520941 228.368584,52.9742228 C227.888397,54.196797 227.235823,55.216203 226.41309,56.0337772 C225.589021,56.851797 224.624637,57.4670941 223.519939,57.8805594 C222.416131,58.2931337 221.238826,58.5003119 219.989804,58.5003119 C218.740337,58.5003119 217.559022,58.2931337 216.445415,57.8805594 C215.332253,57.4670941 214.363415,56.851797 213.5389,56.0337772 C212.715276,55.216203 212.059584,54.196797 211.570488,52.9742228 C211.082283,51.7520941 210.837735,50.3419455 210.837735,48.741995 C210.837735,47.1424901 211.082283,45.7363515 211.570488,44.5231337 C212.059584,43.3103614 212.724631,42.2905099 213.566518,41.4635792 C214.408405,40.6370941 215.381252,40.016896 216.486396,39.6038762 C217.590649,39.1904109 218.758154,38.9836782 219.989804,38.9836782 C221.220563,38.9836782 222.388959,39.1904109 223.492767,39.6038762 C224.597465,40.016896 225.561403,40.6370941 226.385918,41.4635792 C227.209542,42.2905099 227.865234,43.3103614 228.35433,44.5231337 C228.843426,45.7363515 229.087975,47.1424901 229.087975,48.741995" id="Fill-19" fill="#1A4351"></path>
                <polygon id="Fill-21" fill="#1A4351" points="244.432413 39.414698 247.85475 39.414698 247.85475 58.0959356 244.432413 58.0959356 244.432413 49.8203911 236.257645 49.8203911 236.257645 58.0959356 232.835753 58.0959356 232.835753 39.414698 236.257645 39.414698 236.257645 46.8820248 244.432413 46.8820248"></polygon>
                <path d="M280.70251,43.0269059 C280.286021,43.9794802 279.811178,45.1392327 279.277092,46.5043812 C278.743006,47.8704208 278.186203,49.3531931 277.606682,50.9522525 L283.798338,50.9522525 C283.219262,49.3531931 282.658449,47.8615099 282.115009,46.4776485 C281.571569,45.0937871 281.100736,43.9438366 280.70251,43.0269059 L280.70251,43.0269059 Z M286.256737,58.0961139 C286.001944,57.3591832 285.739132,56.6316089 285.466521,55.9125 C285.194356,55.1938366 284.931099,54.4564604 284.677642,53.7021535 L276.727823,53.7021535 C276.473475,54.4564604 276.214673,55.1978465 275.951861,55.9258663 C275.688605,56.6538861 275.429802,57.3774505 275.176345,58.0961139 L271.617257,58.0961139 C272.322393,56.1014109 272.991893,54.2590842 273.625313,52.5695792 C274.258288,50.8805198 274.877899,49.2810149 275.484146,47.7715099 C276.090394,46.2615594 276.691297,44.8242327 277.288635,43.4586386 C277.885529,42.092599 278.500685,40.7448267 279.13366,39.4148762 L282.400983,39.4148762 C283.033512,40.7448267 283.64956,42.092599 284.247344,43.4586386 C284.844683,44.8242327 285.446476,46.2615594 286.05406,47.7715099 C286.660308,49.2810149 287.284374,50.8805198 287.927593,52.5695792 C288.570367,54.2590842 289.245213,56.1014109 289.95124,58.0961139 L286.256737,58.0961139 Z" id="Fill-23" fill="#1A4351"></path>
                <polygon id="Fill-25" fill="#1A4351" points="310.020402 55.2115248 310.020402 63.0829604 306.733924 63.0829604 306.733924 58.0959802 292.313156 58.0959802 292.313156 39.4147426 295.735049 39.4147426 295.735049 55.2115248 303.773511 55.2115248 303.773511 39.4147426 307.195403 39.4147426 307.195403 55.2115248"></polygon>
                <path d="M312.735688,58.0960248 L312.735688,39.4147871 L316.130853,39.4147871 L316.130853,51.8147376 C316.745564,50.8443416 317.447582,49.7977574 318.235571,48.6745396 C319.023114,47.5517673 319.837383,46.433005 320.679716,45.3182525 C321.521158,44.2039455 322.35859,43.1306287 323.192014,42.0969653 C324.024546,41.0637475 324.802735,40.1695396 325.527471,39.4147871 L328.324407,39.4147871 L328.324407,58.0960248 L324.956858,58.0960248 L324.956858,44.7252327 C324.196487,45.6243416 323.395581,46.6348366 322.553249,47.7580545 C321.711807,48.8812723 320.883283,50.0405792 320.068123,51.2355297 C319.253853,52.4309257 318.465865,53.6169653 317.705494,54.7936485 C316.944677,55.9712228 316.256914,57.0717178 315.641757,58.0960248 L312.735688,58.0960248 Z" id="Fill-27" fill="#1A4351"></path>
                <path d="M340.763354,42.1643317 C340.075145,42.1643317 339.43638,42.2142327 338.848841,42.312698 C338.260411,42.4116089 337.748151,42.5782426 337.31429,42.8112624 C336.879538,43.0451733 336.54011,43.3601733 336.295562,43.7549257 C336.051014,44.1505693 335.928963,44.6357673 335.928963,45.2105198 C335.928963,45.8218069 336.051014,46.3248267 336.295562,46.7204703 C336.54011,47.1156683 336.893347,47.4302228 337.355271,47.6636881 C337.81675,47.897599 338.378008,48.0588861 339.038599,48.1488861 C339.699637,48.2388861 340.446644,48.2838861 341.279623,48.2838861 L342.773638,48.2838861 L342.773638,42.2454208 C342.138882,42.1915099 341.469381,42.1643317 340.763354,42.1643317 M341.007902,39.2264109 C341.75001,39.2264109 342.591897,39.2580446 343.534009,39.3204208 C344.47523,39.3836881 345.362552,39.5053218 346.195085,39.6844307 L346.195085,58.0961139 L342.773638,58.0961139 L342.773638,51.0872525 L340.790972,51.0872525 C340.554887,51.0872525 340.310339,51.082797 340.057327,51.0734406 C339.80387,51.0649752 339.568231,51.042698 339.3513,51.0061634 C338.98871,51.4374505 338.626565,51.9275495 338.264865,52.4755693 C337.90272,53.0240347 337.544584,53.607698 337.192239,54.2274505 C336.838557,54.8476485 336.485766,55.4856683 336.13253,56.1415099 C335.779739,56.797797 335.440312,57.4487376 335.113802,58.0961139 L331.474534,58.0961139 C331.801044,57.3952723 332.15428,56.6855198 332.534243,55.9664109 C332.914205,55.2477475 333.299068,54.5509158 333.688385,53.8772525 C334.077702,53.2035891 334.466574,52.5744802 334.855891,51.9903713 C335.245208,51.4067079 335.602899,50.907698 335.928963,50.4942327 C334.697759,50.0451238 333.792619,49.3799257 333.213098,48.4995297 C332.633131,47.6191337 332.344484,46.5315594 332.344484,45.237698 C332.344484,44.2312129 332.548051,43.3508168 332.955186,42.5956188 C333.363212,41.8408663 333.942288,41.2166584 334.693304,40.722104 C335.444766,40.2284406 336.354361,39.8555198 337.422978,39.6037871 C338.490705,39.3520545 339.685828,39.2264109 341.007902,39.2264109" id="Fill-29" fill="#1A4351"></path>
                <path d="M258.142432,50.6307475 C258.562039,49.355599 258.977637,48.1303515 259.388781,46.955005 C259.742908,45.9436188 260.070754,45.0400545 260.384346,44.2091139 C260.713528,45.0543119 261.053846,45.9801535 261.396837,46.9674802 C261.807981,48.1526287 262.21957,49.3774307 262.630714,50.6432228 C263.042749,51.9094604 263.453892,53.1984208 263.865927,54.5096584 L264.086421,55.2113911 L256.678706,55.2113911 C256.749977,54.9792624 256.820803,54.7471337 256.895192,54.5096584 C257.308117,53.1988663 257.722824,51.9054505 258.142432,50.6307475 L258.142432,50.6307475 Z M269.222378,55.2113911 L267.914557,55.2113911 C267.208085,53.0317871 266.477559,50.8495099 265.702043,48.6899554 C264.562154,45.5176782 263.361686,42.4398564 262.133154,39.540698 L262.079701,39.4146089 L258.825296,39.4146089 L258.771842,39.540698 C257.541084,42.4362921 256.341506,45.5145594 255.204736,48.690401 C254.426547,50.8646584 253.692903,53.0433713 252.98064,55.2113911 L252.903578,55.2113911 L251.120916,55.2113911 L250.585939,55.2113911 L250.585939,63.0832723 L253.84658,63.0832723 L253.84658,58.0958465 L267.133696,58.0958465 L267.133696,63.0832723 L270.394338,63.0832723 L270.394338,55.2113911 L269.222378,55.2113911 Z" id="Fill-31" fill="#1A4351"></path>
            </g>
        </g>
        <g id="Pflanze-rechts" opacity="0.5" stroke-width="1" transform="translate(459.0953, 169.4789) scale(-1, 1) rotate(149) translate(-459.0953, -169.4789)translate(399.0953, 86.4789)">
            <path d="M0.82288026,79.4296226 C3.45481317,79.8191444 7.75536189,84.324802 9.92485945,86.0414926 C12.5031615,88.0815387 14.8423213,90.2559373 17.0472547,92.5341663 C21.7940249,97.4379596 26.0391765,102.65171 29.6489994,108.088738 C35.5339558,116.952183 40.2485712,126.050816 43.6701693,135.70261 C45.7646536,141.610823 47.1207455,147.734455 47.9244385,153.815324 C48.0762194,154.962139 49.6650323,163.80387 47.3756501,164.042179 C45.3165922,164.256761 45.9525584,157.328471 45.8532237,156.386053 C44.7303534,145.753815 41.3665524,135.408737 36.687536,125.38732 C35.6683791,123.204249 34.7215464,120.530377 33.0916741,118.565824 C31.9179377,117.150788 33.0832569,117.644257 31.0205695,117.108734 C29.2494238,116.648627 27.2314552,116.761057 25.4177618,116.197848 C21.4776922,114.97507 18.3228267,112.601294 15.5573711,110.213555 C10.1831217,105.573192 5.92430236,100.553047 3.70435978,94.6071073 C2.47288911,91.3102784 1.34123042,87.9942724 0.713229338,84.5954985 C0.550776393,83.7170152 -0.872327864,79.1787345 0.82288026,79.4296226 Z" id="Leaf" fill="#69A1AC"></path>
            <path d="M11.2091884,4.4644339 C21.1231346,17.4757026 29.2700095,31.76824 34.5305053,46.244419 C37.717738,55.015379 39.9466654,64.0156728 42.1612903,72.9509518 C45.5902171,86.7861172 48.8335961,100.620215 49.7561838,114.701134 C50.6843663,128.863656 52.5197845,145.198461 46.3917567,158.839216 C49.4527373,144.990144 46.538476,130.248885 46.0224786,116.313863 C45.7758958,109.661509 45.0613448,103.074193 44.1239874,96.4607121 C43.2143754,90.0452801 41.7283267,83.6603971 40.3444805,77.2953904 C39.6703834,74.195517 38.9624296,71.1003078 38.2416343,68.0067916 C38.0264522,67.0838373 37.9355547,64.3451097 37.161909,63.7145989 C36.3832529,63.0799366 32.4104466,62.8212063 31.1631695,62.355529 C28.6515817,61.417598 26.2890944,60.085335 24.1982318,58.6776284 C20.1900207,55.9790906 16.7030789,52.4531231 13.9509054,48.9773208 C7.58308974,40.9348612 5.03724016,31.120132 5.1659177,21.8059405 C5.19064143,19.9975454 9.03371956,0.52402337 7.49027757,0.255856863 C7.58320587,0.173495836 7.67110893,0.0884555998 7.75399414,0 C8.92251199,1.48058477 10.0691665,2.97120326 11.2091884,4.4644339 Z" id="Leaf" fill="#89C5CC"></path>
            <path d="M118.213403,51.3907642 C118.366372,51.2237932 119.361955,50.0625602 118.860611,50.1367737 C119.881367,49.9856723 117.456625,51.4174902 120,50.5389333 C118.792388,51.4020326 119.48934,52.5232122 119.505458,53.6848492 C119.531755,55.5708318 119.114779,57.4413489 118.645401,59.2868656 C117.90371,62.2040641 116.798792,65.0404337 115.195022,67.7537788 C111.699557,73.6667749 105.764078,79.3591141 98.7175605,83.0558763 C95.23889,84.8811162 91.829638,85.5025429 87.8622123,86.3428145 C85.3562181,86.873669 85.1574889,87.8546731 83.8273011,89.6949632 C81.0579502,93.5278938 78.3379185,97.3470371 75.8955968,101.309291 C72.9793027,106.04064 70.1482845,110.777203 67.4778127,115.591841 C58.4814718,131.809691 51.1592849,148.611628 47.313896,166 C47.2197448,155.753085 50.3521007,145.199639 54.3032648,135.432625 C57.1814501,128.3166 60.9283068,121.456968 64.9246955,114.666778 C65.8931013,113.021774 67.3606325,110.905742 67.7718831,109.089587 C68.0598408,107.817099 67.179469,106.593339 66.776386,105.252871 C65.2049457,100.032841 65.3174189,94.1847245 66.6973771,88.9367834 C68.2188868,83.1499324 72.6190227,80.4640585 80.0624208,79.6443884 C82.7846205,79.3445614 86.2446064,79.45445 88.7407294,78.5760768 C91.460218,77.619557 92.5820481,74.4754889 94.1284489,72.4572442 C98.2820288,67.0358128 103.217083,61.8363289 108.883888,57.2683232 C110.452973,56.0033843 112.140377,54.8363923 113.930525,53.754734 C115.059391,53.0722677 117.444088,52.2314702 118.213403,51.3907642 Z" id="Leaf" fill="#89C5CC"></path>
        </g>
    </g>
</svg>