<?xml version="1.0" encoding="UTF-8"?>
<svg width="578px" height="543px" viewBox="0 0 578 543" version="1.1" xmlns="http://www.w3.org/2000/svg" xmlns:xlink="http://www.w3.org/1999/xlink">
    <title>Screen Logo amalipe plants</title>
    <defs>
        <path d="M0,0 L578,0 L578,543 L0,543 L0,0 Z" id="path-1"></path>
        <filter x="-6.0%" y="-5.9%" width="112.0%" height="113.9%" filterUnits="objectBoundingBox" id="filter-2">
            <feOffset dx="0" dy="4" in="SourceAlpha" result="shadowOffsetOuter1"></feOffset>
            <feGaussianBlur stdDeviation="8" in="shadowOffsetOuter1" result="shadowBlurOuter1"></feGaussianBlur>
            <feColorMatrix values="0 0 0 0 0.658823529   0 0 0 0 0.815686275   0 0 0 0 0.839215686  0 0 0 0.46 0" type="matrix" in="shadowBlurOuter1" result="shadowMatrixOuter1"></feColorMatrix>
            <feMerge>
                <feMergeNode in="shadowMatrixOuter1"></feMergeNode>
                <feMergeNode in="SourceGraphic"></feMergeNode>
            </feMerge>
        </filter>
        <path d="M0,0 L254,0 L254,360 L0,360 L0,0 Z" id="path-3"></path>
    </defs>
    <g id="Screen-Logo-amalipe-plants" stroke="none" fill="none" xlink:href="#path-1" fill-rule="evenodd">
        <use fill="#FFFFFF" xlink:href="#path-1"></use>
        <g id="Group" filter="url(#filter-2)" stroke-width="1" transform="translate(72, 84)" stroke="#DDE3E9">
            <rect id="Rectangle" stroke-width="10" fill="#F5FCFF" x="5" y="5" width="423" height="365" rx="45"></rect>
            <path d="M428,46 L428,76.9999996 L5.00000005,76.9999996 L5,46 C5,25.4543515 20.5656456,8.30604189 40.8391128,6.21647755 L45.126162,6.00000036 L388,6 C410.09139,6 428,23.90861 428,46 Z" id="Rectangle-Copy" stroke-width="10" fill="#DDE3E9"></path>
        </g>
        <g id="Group" stroke-width="1" transform="translate(493.5, 220) rotate(151) translate(-493.5, -220)translate(442, 95)">
            <path d="M94.6001062,0.659775373 C92.2356978,-0.0853801391 89.6250272,-0.0283494469 87.2165916,0.0331207603 C74.3001584,0.286514614 61.6164407,9.10851385 53.3615737,23.2046569 C46.3341477,35.2050073 44.401787,50.1248511 43.0134772,65.2069079 C42.8758316,66.7043905 42.816806,68.192311 42.7391536,69.6928671 C42.7224619,70.0149026 42.6975454,70.3021051 42.6709356,70.572574 C42.1249493,71.2767494 41.8385303,72.0977182 42.1617193,72.9996227 C40.958953,76.796774 39.9414881,80.6902286 39.0684423,84.7059407 C36.4988961,96.5259785 33.8850806,108.570724 35.49522,121 C35.8713868,114.160073 36.6626677,107.165788 37.6090116,100.438216 C37.6634409,100.051978 37.7222246,99.6688136 37.7834273,99.2870153 C37.7897169,99.2467182 37.7955227,99.206421 37.8018123,99.1664654 C38.1368548,97.106189 38.5722891,95.1077242 39.1018256,93.1406776 C39.1073895,93.119163 39.1127115,93.09799 39.1185173,93.0768169 C39.1884287,92.817959 39.2626944,92.5604671 39.3359925,92.3029753 C39.4876688,91.769892 39.6434575,91.2378332 39.8086807,90.7085064 C39.8645614,90.5281938 39.918265,90.3461737 39.9697914,90.1627876 C40.740752,87.4369254 41.0663601,84.365464 41.7570073,81.545006 C41.9222304,80.9036668 42.0949527,80.2647182 42.2758999,79.6291846 C42.2865438,79.5919609 42.2974297,79.5547373 42.3083155,79.5175137 C42.7974534,77.8072759 43.3378758,76.1178697 43.9092624,74.4462216 C44.2198722,74.1095014 44.385821,73.2741896 44.6536131,72.5150326 C44.7090101,72.3654551 45.1420253,71.3679302 45.2709622,70.7931838 C45.6074562,69.8540556 45.9427406,68.9145859 46.2816536,67.9771653 C46.2714935,67.9826293 46.2613334,67.9880933 46.2511732,67.9935573 C46.5903282,67.0933603 46.9304508,66.1969198 47.2679124,65.3042358 C47.3421781,65.1082141 47.4171696,64.9118509 47.4919191,64.7151463 C47.613115,64.4019897 47.7343109,64.0891747 47.8552649,63.7770426 C48.9866684,60.8561833 50.1862899,57.9937206 51.4321159,55.1667741 C51.8767427,54.1579797 52.9389605,52.7113808 53.142647,51.5786215 C53.1501461,51.5362754 53.1518395,51.4973442 53.1564357,51.4567056 C55.8597571,45.9793686 58.9719029,40.9272006 62.7040588,36.9241241 C62.2529005,37.6276165 61.2939774,40.015051 61.0404578,40.4876886 C60.264659,41.9349705 59.4223355,43.2821925 58.5768672,44.6458066 C57.0627654,47.0885644 55.5844659,49.6088429 54.2709057,52.2739178 C51.8687597,57.1478223 49.7963343,62.2771696 47.8373637,67.5096502 C47.8187368,67.5403853 47.7984165,67.5694129 47.7807572,67.600831 C46.7961919,69.3517074 46.1764237,71.9979998 45.4676334,74.0009041 C48.2725561,72.1267458 51.374058,70.9058791 54.2527626,69.241744 C57.1234843,67.5827314 59.9160697,65.7352102 62.6121338,63.5656534 C66.1955163,60.6823592 69.9126739,57.4268287 73.2984176,53.7427143 C77.1783792,50.2706721 80.4388146,45.491705 83.3167935,40.4767606 C86.7218899,34.5431781 89.8425025,28.5576874 91.7724441,21.3530376 C92.7204814,17.8126952 93.4662836,14.1210677 93.9084913,10.3864112 C93.927844,10.2235151 93.9525186,10.046959 93.9793703,9.8635729 C94.4317382,8.57372305 94.8362083,7.2548456 95.1756052,5.90557455 C95.7145761,3.76572834 96.9874957,1.41176091 94.6001062,0.659775373" id="Fill-10" fill="#69A1AC"></path>
            <path d="M101.403937,65.8692115 C98.278824,63.5957624 94.1230263,63 90.3832473,63 C75.776372,63 62.0465879,68.8140413 50.1856694,77.4770883 C43.6864758,82.2239005 37.872455,88.2687768 32.739511,94.5625507 C29.7767681,98.1955994 27.1349622,102.125917 25.2646338,106.497087 C24.0025352,109.447427 23.1362686,112.521451 22.5491031,115.692217 C21.8335043,119.556407 21.2650626,123.498971 21.0079034,127.427452 C20.9066781,128.974413 20.0687897,137.183138 22.466309,137.322129 C22.4525587,137.524492 22.4493406,137.717365 22.4639685,137.890338 C17.2581774,146.62288 14.041786,156.857075 11.0591492,166.560104 C8.46415268,175.003643 6.15176799,183.518515 4.65064884,192.253507 C2.6744142,203.75362 1.37633084,215.426706 0.759031793,227.092139 C0.626502661,229.599178 0.535516877,232.107442 0.45711112,234.617849 C0.390700275,236.759042 0.323411753,238.900236 0.257878583,241.041429 C0.184738886,243.441011 -0.209045248,246.203683 0.146706243,248.589182 C0.456233444,250.666697 2.13230276,250.352284 2.20632013,248.284872 C2.29584312,245.788241 2.28121518,243.286713 2.38302564,240.788245 C2.51848036,237.472365 2.65803091,234.156485 2.8092838,230.841523 C3.86220289,207.813438 7.81233169,185.123951 15.1023117,163.371581 C18.0524745,154.568931 21.4329913,146.23591 25.777782,138.093007 C29.5977221,130.933449 34.1926505,124.002277 38.8893893,117.546857 C43.4544767,111.273595 48.200658,105.145447 53.7940895,99.8304254 C58.3331391,95.5174238 63.3259475,91.7600793 68.4583064,88.2638784 C74.9771013,83.8235196 81.4833163,79.4909245 88.5445153,76.0822817 C92.2149579,74.3106079 95.9547369,72.7244593 99.6538503,71.024424 C100.319422,70.718583 101.032972,70.4219263 101.673091,70.067714 C103.808478,68.886292 103.105459,67.1069646 101.403937,65.8692115" id="Fill-1" fill="#C1DEE2"></path>
            <path d="M52.7810296,128 C47.2830225,128 42.3906544,128.971586 37.3248452,131.943116 C32.9520342,134.507723 28.9669752,137.902835 25.0978842,141.599146 C19.6555622,146.797709 15.3688331,152.848195 12.368225,160.86497 C10.5755743,165.65423 9.26058911,172.431196 10.4644596,177.654916 C11.8826409,183.807388 15.7765092,188.93864 20.9049003,187.85453 C24.0761397,187.184822 26.9832583,184.329896 29.3935535,181.642906 C32.2769165,178.428309 34.5850373,174.563042 36.4908462,170.270114 C39.5997593,163.267419 41.4266385,155.35093 44.0675926,148.033439 C45.3207622,144.560477 46.5317848,141.062699 48.0327275,137.762094 C48.7757912,136.1276 49.5668769,134.508743 50.6941165,133.29409 C51.2972012,132.64444 53.8400678,131.519875 52.8676225,130.060796 C67.1253006,130.315421 79.7561061,145.207408 82.4931041,163.640687 C82.7480294,165.358811 82.9472696,167.090872 83.1577489,168.819534 C83.2905757,169.911123 83.2369341,173.936508 83.9544542,174.633752 C85.536881,176.17204 84.8717253,171.499044 84.8037793,170.826277 C84.6282947,169.087417 84.44106,167.349916 84.2446296,165.615475 C83.1758849,156.181436 80.0876621,147.411324 74.937559,140.683312 C69.0482237,132.989832 61.1021168,128 52.7810296,128" id="Fill-20" fill="#89C5CC" transform="translate(47.5, 158) scale(-1, 1) translate(-47.5, -158)"></path>
        </g>
        <g id="Group" stroke-width="1" transform="translate(104, 114)" fill="#98AAB2">
            <g transform="translate(0, 1)">
                <circle id="Oval" cx="14" cy="14" r="14"></circle>
                <circle id="Oval-Copy" cx="59.5" cy="14" r="14"></circle>
                <circle id="Oval-Copy-2" cx="105" cy="14" r="14"></circle>
            </g>
        </g>
        <g id="Group-Copy" stroke-width="1" transform="translate(164, 134.8856)">
            <g id="logoEN_amalipe" xlink:href="#path-3">
                <path d="M205.351513,125.347596 C205.351513,168.686227 170.294004,203.819463 127.047832,203.819463 C83.8020874,203.819463 48.744578,168.686227 48.744578,125.347596 C48.744578,82.0089655 83.8020874,46.8757296 127.047832,46.8757296 C170.294004,46.8757296 205.351513,82.0089655 205.351513,125.347596" id="Fill-1" fill="#972528"></path>
                <path d="M199.475014,120.957032 C197.141431,81.1624274 163.058915,50.3155472 122.717668,52.7315397 C82.5859275,55.1347041 52.1089656,89.4465025 54.5743968,129.846175 C57.0202,169.923857 91.4142022,200.349114 131.471271,197.937826 C171.411,195.533806 201.915271,160.992381 199.475014,120.957032 M52.9346162,129.903902 C50.2336506,88.7914051 81.8520159,53.4828493 122.568752,51.0664291 C163.505236,48.636753 198.80084,79.7637174 201.19288,120.94848 C203.595587,162.314549 172.345884,197.130072 131.556183,199.620468 C90.0180632,202.155764 55.231077,170.353604 52.9346162,129.903902" id="Fill-3" fill="#FFFFFE"></path>
                <path d="M152.926496,174.214916 C152.670481,177.950511 151.912674,181.52618 149.985303,184.763183 C147.880854,188.298229 144.849628,190.70909 140.953069,192.069743 C131.440379,195.390985 121.704102,191.692164 116.234327,184.107658 C112.941111,179.540363 110.91048,174.418886 110.822581,168.688921 C110.788873,166.5017 111.451527,164.558643 113.591818,163.498172 C114.948274,162.826398 115.10103,162.949977 115.801233,164.288822 C116.815909,166.22974 117.776394,168.218979 118.999723,170.024345 C120.359593,172.030688 121.953291,173.884374 123.533334,175.728226 C123.816231,176.05834 124.716127,176.293098 125.003718,176.095115 C125.662531,175.640993 125.167994,175.084246 124.749835,174.633546 C121.794988,171.450422 119.276646,167.94146 117.459362,164.000185 C115.058788,158.793187 113.344763,153.383929 113.550855,147.535089 C113.691664,143.542073 115.058361,139.967687 117.090272,136.57418 C118.598632,134.055133 120.138566,131.524969 121.320932,128.847707 C123.19838,124.594277 122.91847,120.179639 121.500143,115.833418 C121.28381,115.170196 120.729962,114.548452 120.186782,114.073805 C118.486411,112.588718 117.76274,110.752991 118.328535,108.592282 C118.810698,106.751424 118.276905,105.312518 117.193105,103.896276 C115.214531,101.310095 113.326842,98.6674696 112.152583,95.5801304 C110.912187,92.3191818 110.620329,88.9346542 111.460914,85.6189716 C112.285284,82.3691409 113.547442,79.2219364 114.748582,76.0798632 C115.843049,73.2170189 116.473701,70.3015786 116.416951,67.2334818 C116.40543,66.606179 116.51381,65.9763104 116.567147,65.3477248 C116.722463,65.3353241 116.877779,65.323351 117.033522,65.3109504 C117.201639,65.9579232 117.340741,66.6138759 117.542994,67.2501586 C118.898597,71.5164166 118.364377,75.6898835 117.068938,79.8697645 C116.33972,82.2228985 115.736803,84.6234971 115.222211,87.0339308 C114.216496,91.7461854 115.949722,95.8413997 118.312747,99.7488936 C118.836299,100.614802 119.458844,101.432391 120.115951,102.203371 C120.715881,102.906361 121.471981,103.474226 122.476416,103.08895 C123.555949,102.674596 123.766735,101.658169 123.586244,100.728119 C123.184726,98.6580622 122.687629,96.5969854 122.069778,94.5812351 C121.590602,93.0174678 121.399443,91.5041585 122.034789,89.9814418 C122.511405,88.8401525 123.306334,87.9733884 124.631641,87.8891494 C125.993645,87.8027723 127.128648,88.4458967 127.496884,89.6953711 C127.881761,91.0004347 128.039637,92.4517407 127.924857,93.8076898 C127.746499,95.9098172 127.227214,97.9811567 126.904634,100.073877 C126.763399,100.991526 126.788574,101.969469 127.794715,102.418886 C128.777389,102.858041 129.603893,102.396223 130.341645,101.709482 C132.269443,99.9156612 133.326788,97.5800592 134.233937,95.1987029 C135.64373,91.4977444 136.358867,87.6642269 135.000704,83.8007768 C134.331223,81.8966326 133.396339,80.0467947 132.328753,78.3299433 C129.808706,74.2774899 129.17208,70.0287639 130.539204,65.4691658 C130.599794,65.2673342 130.74487,65.0915868 130.942428,64.7400919 C131.141267,65.1074083 131.34608,65.3165093 131.361867,65.5397213 C131.704502,70.367858 133.911357,74.4596515 136.384469,78.4552329 C138.939932,82.584656 139.216856,87.1134661 138.579377,91.7684211 C137.935924,96.4674197 135.576739,100.475829 133.387805,104.556505 C133.119842,105.055953 132.994394,105.977023 133.271745,106.369996 C134.930726,108.719709 134.306901,110.843645 132.998234,113.060371 C132.438413,114.008381 131.876459,115.143684 131.870485,116.197741 C131.847871,120.004319 131.94473,123.820732 132.212266,127.61833 C132.623598,133.457335 135.455985,138.246987 138.977908,142.743727 C142.215653,146.877853 145.644983,150.92261 148.359603,155.391127 C151.816242,161.080897 153.390738,167.442013 152.926496,174.214916 M107.345888,128.215273 C106.515971,121.034857 109.292461,113.726159 113.720252,110.64053 C113.822659,110.785917 114.018511,110.935153 114.014244,111.077975 C113.925492,113.953647 115.103164,116.393586 116.522344,118.785205 C117.587796,120.580736 118.174499,122.510965 117.250709,124.64388 C117.373596,124.71187 117.496057,124.77986 117.618945,124.847849 C118.033264,124.496782 118.447156,124.146143 118.922918,123.742907 C119.405934,124.834594 119.956795,124.408695 120.582753,123.591533 C120.897226,125.124513 120.663398,126.424873 120.061761,127.579418 C118.488972,130.597057 116.800975,133.55483 115.166314,136.540398 C114.607347,137.561102 114.070141,138.593351 113.420287,139.81332 C109.904338,136.589573 107.866027,132.713723 107.345888,128.215273 M139.07306,111.169911 C139.696032,111.456409 140.077068,111.534234 140.295108,111.746328 C143.571256,114.937576 145.694906,118.654784 146.668619,122.903082 C147.014667,123.574429 147.05563,125.781748 146.971571,126.100317 C146.970718,126.126829 146.972851,126.149065 146.971144,126.176432 C146.614429,131.723807 144.418668,136.396722 140.362526,140.190471 C139.833854,140.684788 139.462204,140.577458 139.028684,139.998047 C136.429698,136.525004 134.620094,132.712867 133.919464,128.403848 C133.917757,128.399572 133.875515,127.551623 134.032111,126.781071 C134.160972,126.143933 134.493366,125.559391 134.496353,125.55255 C134.404187,125.551694 134.308181,125.551267 134.203642,125.551267 C138.072039,121.172975 139.470738,116.530848 139.07306,111.169911 M154.812905,156.207433 C151.920355,152.897737 149.030791,149.585476 146.110078,146.301008 C145.847236,146.00553 145.133378,145.400463 145.029692,145.296554 C143.971067,144.239932 141.666926,141.282586 141.861498,141.078188 C146.489835,136.212422 148.984708,130.692413 148.58575,124.014011 C148.205994,117.655461 145.441451,112.42751 140.48072,108.396009 C140.184168,108.155265 139.886763,107.859787 139.7195,107.524969 C138.810217,105.703353 137.904775,103.877034 137.093632,102.010947 C136.95709,101.697509 137.207986,101.128789 137.436693,100.78157 C137.535686,100.631052 138.085266,100.631052 138.337442,100.753775 C139.392226,101.267334 140.440611,101.805694 141.436512,102.42359 C142.990954,103.388704 142.981567,103.425906 143.986001,101.942957 C148.764534,94.8903966 153.534534,87.8322774 158.314773,80.7805723 C159.244964,79.408374 159.256058,79.4233403 157.930323,78.5540106 C150.917626,73.9542173 143.304573,70.9528276 134.978089,69.7922959 C134.478859,69.7225956 133.73812,69.1564409 133.651074,68.7138652 C133.019996,65.5136372 132.410678,62.2903182 133.771402,59.0926558 C133.909224,58.768528 133.685637,58.2900331 133.630167,57.8833767 C133.188113,58.0082386 132.60141,57.9996864 132.336861,58.2883227 C131.871339,58.7954673 131.612763,59.4907601 131.249221,60.0962549 C128.156124,65.2480918 127.031789,70.6214304 129.400361,76.3962941 C129.503193,76.6468731 129.610293,76.9299505 129.594932,77.1903645 C129.456684,79.5439262 129.310755,81.8970602 129.101676,84.2446353 C129.082048,84.4635713 128.557642,84.8582546 128.36051,84.8073691 C125.669785,84.1137868 123.177472,84.5824466 120.568246,86.1299647 C120.298149,84.9805509 120.023359,83.9722482 119.827507,82.9489791 C119.408495,80.7570538 119.030018,78.6237109 119.653843,76.3248833 C120.124912,74.5904999 120.133446,72.6431672 119.944421,70.833097 C119.507487,66.6463742 118.020463,62.7525639 116.007326,59.0746962 C115.772645,58.6458041 115.150527,58.4294338 114.708046,58.1147133 C114.540783,58.6261341 114.211803,59.1439689 114.232711,59.6472651 C114.358158,62.6700353 114.603933,65.6876742 114.727674,68.7100167 C114.795945,70.3789759 114.592413,70.6440936 113.026877,71.026804 C108.549589,72.1214838 104.234444,73.6878167 100.300763,76.0666073 C96.8966076,78.1251185 93.7075054,80.5406835 90.4334914,82.8134269 C89.7925987,83.2585682 89.7038466,83.7520294 90.3613803,84.3369989 C90.8853591,84.803093 91.3150387,85.3773723 91.7801339,85.9093183 C97.15305,92.0557745 102.536207,98.1936785 107.881814,104.363653 C108.552576,105.137626 109.034312,105.195353 109.811319,104.529566 C110.729562,103.742337 111.745945,103.062438 112.76318,102.403065 C113.036691,102.226034 113.566643,102.127684 113.811138,102.274354 C115.798673,103.465674 115.989832,106.376838 114.221617,107.901693 C113.984375,108.10609 113.72964,108.289962 113.485571,108.486235 C103.967334,116.156263 102.635199,130.331939 110.707374,139.44301 C112.123141,141.040986 113.145071,142.415323 112.16453,144.552086 C112.071511,144.755201 110.436851,148.23252 110.283668,148.458725 C105.348966,155.737063 100.435598,163.029512 95.4577994,170.277918 C94.8689633,171.135274 95.0716424,171.51157 95.8243285,171.915661 C99.2003222,173.727442 102.550288,175.590536 105.964684,177.326202 C107.472189,178.092905 108.949827,178.984898 110.755591,179.089235 C111.229646,179.116602 111.82915,179.846959 112.079619,180.390022 C113.274785,182.978769 114.779731,185.339173 116.739531,187.413933 C120.237559,191.11703 124.481872,193.52618 129.438763,194.572113 C133.059252,195.336251 136.67334,195.142971 140.25756,194.0825 C144.918325,192.70346 148.658715,190.136521 151.25514,185.982725 C153.321187,182.677732 154.192494,179.003713 154.609373,175.17661 C154.664843,174.664761 154.952434,174.02292 155.346271,173.728297 C158.009261,171.738203 160.720467,169.812251 163.437647,167.896561 C164.214228,167.349221 164.214655,166.937434 163.574189,166.219905 C160.620621,162.91192 157.731058,159.547062 154.812905,156.207433" id="Fill-5" fill="#FFFFFE"></path>
                <path d="M104.895135,109.2635 C103.66498,111.942472 102.366554,114.367017 101.43679,116.926259 C100.73488,118.857342 100.429368,120.948352 100.100815,122.992752 C99.958726,123.877476 99.7807951,124.181934 98.8164693,124.110523 C92.210411,123.624331 85.5992323,123.204846 78.9897604,122.765264 C76.8780576,122.62458 74.7672082,122.448405 72.6529452,122.366304 C71.5089817,122.321833 71.062661,121.917315 71.1633605,120.708891 C71.5934669,115.551922 72.7139623,110.551459 74.5026586,105.708356 C76.0161381,101.610149 78.0437824,97.7659409 80.4268618,94.102612 C80.9845494,93.2448277 81.3890542,93.1597335 82.2624944,93.7605245 C89.5282199,98.7575669 96.8327744,103.69731 104.122821,108.65886 C104.441134,108.875231 104.730859,109.133934 104.895135,109.2635" id="Fill-7" fill="#FFFFFE"></path>
                <path d="M99.8477432,129.608381 C99.9945256,129.798667 100.376416,130.074903 100.443833,130.413569 C101.372743,135.090332 103.308649,139.2762 106.438441,142.879236 C107.113895,143.657057 106.606558,144.062003 106.088979,144.514842 C103.140532,147.095891 100.187391,149.672237 97.23937,152.254142 C93.4955671,155.533478 89.73683,158.796137 86.0301494,162.117379 C85.3837097,162.696362 85.0589965,162.511635 84.6079822,161.992089 C81.69111,158.63108 79.2056243,154.966896 77.1865138,151.008517 C74.8068479,146.343299 73.0326591,141.450593 72.0764405,136.276948 C71.8921092,135.280191 72.2014615,134.864555 73.2024829,134.676407 C81.7128713,133.077148 90.2151526,131.435983 98.7199941,129.807647 C98.989664,129.756334 99.2606139,129.711863 99.8477432,129.608381" id="Fill-9" fill="#FFFFFE"></path>
                <path d="M154.567344,126.606478 C157.731271,126.796337 160.432663,126.940869 163.131922,127.123886 C169.234056,127.538667 175.334057,127.991932 181.437898,128.381912 C182.598502,128.455889 182.883533,128.799686 182.792647,130.035477 C182.386436,135.570025 180.82602,140.810804 179.206294,146.071254 C177.975285,150.069401 175.455664,153.285023 173.372123,156.77346 C172.993647,157.407604 172.523004,157.413163 171.898326,156.985982 C164.553236,151.961145 157.196198,146.95384 149.828493,141.961929 C149.195708,141.533036 149.104395,141.140063 149.522554,140.512333 C152.048149,136.721576 153.601311,132.58018 153.984054,128.015879 C154.039098,127.362064 154.077927,126.620162 154.567344,126.606478" id="Fill-11" fill="#FFFFFE"></path>
                <path d="M155.207169,120.833795 C154.137024,121.287489 153.672355,120.646503 153.435541,119.454755 C152.55954,115.047814 150.53275,111.195054 147.634225,107.795988 C147.137128,107.213156 147.152916,106.867648 147.739192,106.355372 C154.467711,100.476171 161.177029,94.575163 167.88464,88.6724441 C168.499078,88.1310908 168.931744,88.087047 169.526554,88.7938852 C173.64926,93.6921498 177.035494,99.0389766 179.168959,105.093497 C180.27324,108.227018 181.046834,111.477276 181.982571,114.67109 C182.204025,115.42582 181.917287,115.738403 181.178682,115.881224 C173.022448,117.455682 164.870055,119.05152 156.715102,120.635812 C156.293103,120.717913 155.860863,120.749556 155.207169,120.833795" id="Fill-13" fill="#FFFFFE"></path>
                <path d="M25.5171699,236.992966 L22.898556,228.963318 C22.1501367,226.717514 21.4021442,223.909404 20.778746,221.6636 L20.6541517,221.6636 C20.0307535,223.909404 19.4069286,226.773531 18.7212332,228.963318 L16.2272136,236.992966 L25.5171699,236.992966 Z M14.8558228,243.394705 L11.8629993,253.108705 L2.01194202,253.108705 L14.8558228,215.262288 L27.3250674,215.262288 L40.3558396,253.108705 L30.1309994,253.108705 L26.8885606,243.394705 L14.8558228,243.394705 Z" id="Fill-15" fill="#972528"></path>
                <path d="M81.5045599,238.621559 C81.3176684,234.073078 81.130777,228.570174 81.130777,223.06727 L80.9434588,223.06727 C79.6343652,227.89669 77.8883382,233.287133 76.2673321,237.723151 L71.1551254,252.491494 L63.7353638,252.491494 L59.2465552,237.835185 C57.8747378,233.399166 56.4406232,228.008723 55.4430153,223.06727 L55.318421,223.06727 C55.0692324,228.177201 54.8819143,234.017062 54.5704285,238.73402 L53.822436,253.108962 L45.0312836,253.108962 L47.7121947,215.262117 L60.3687573,215.262117 L64.483783,227.89669 C65.7928766,232.276264 67.1023969,236.992795 68.0372809,241.428814 L68.224599,241.428814 C69.4090983,237.049239 70.8432129,232.051769 72.2150303,227.840245 L76.7038389,215.262117 L89.1112129,215.262117 L91.4179144,253.108962 L82.1279581,253.108962 L81.5045599,238.621559 Z" id="Fill-17" fill="#972528"></path>
                <path d="M118.975401,236.992966 L116.356787,228.963318 C115.608795,226.717514 114.860376,223.909404 114.237404,221.6636 L114.112383,221.6636 C113.488985,223.909404 112.865587,226.773531 112.179465,228.963318 L109.685872,236.992966 L118.975401,236.992966 Z M108.314054,243.394705 L105.321231,253.108705 L95.4706002,253.108705 L108.314054,215.262288 L120.783299,215.262288 L133.814498,253.108705 L123.589231,253.108705 L120.347219,243.394705 L108.314054,243.394705 Z" id="Fill-19" fill="#972528"></path>
                <polygon id="Fill-21" fill="#972528" points="139.42521 215.262117 148.964355 215.262117 148.964355 245.921277 165.673646 245.921277 165.673646 253.108962 139.42521 253.108962"></polygon>
                <polygon id="Fill-23" fill="#972528" points="171.283888 253.108791 180.823033 253.108791 180.823033 215.261946 171.283888 215.261946"></polygon>
                <path d="M198.466739,232.950305 C199.277029,233.118783 200.274637,233.1748 201.646454,233.1748 C206.696364,233.1748 209.813782,230.872551 209.813782,226.997983 C209.813782,223.516388 207.13287,221.439062 202.394447,221.439062 C200.461955,221.439062 199.152008,221.60754 198.466739,221.775591 L198.466739,232.950305 Z M189.052189,215.767252 C191.982715,215.31869 196.097314,214.981734 201.895643,214.981734 C207.756269,214.981734 211.934018,215.992175 214.739524,218.013484 C217.420435,219.92276 219.228332,223.067398 219.228332,226.773488 C219.228332,230.479578 217.856515,233.623789 215.362922,235.75756 C212.120483,238.509226 207.319762,239.744589 201.708751,239.744589 C200.461955,239.744589 199.339326,239.688572 198.466739,239.576111 L198.466739,253.10909 L189.052189,253.10909 L189.052189,215.767252 Z" id="Fill-25" fill="#972528"></path>
                <polygon id="Fill-26" fill="#972528" points="250.27702 237.105299 234.814952 237.105299 234.814952 246.089798 252.084917 246.089798 252.084917 253.109005 225.27538 253.109005 225.27538 215.26216 251.211904 215.26216 251.211904 222.281367 234.814952 222.281367 234.814952 230.142536 250.27702 230.142536"></polygon>
                <path d="M13.9770916,273.101322 C13.4851148,273.347625 12.3782736,273.611888 10.9381853,273.611888 C6.84492101,273.611888 4.73705844,271.059488 4.73705844,267.679236 C4.73705844,263.630631 7.61808842,261.37713 11.2014548,261.37713 C12.5890599,261.37713 13.6434178,261.658497 14.1174736,261.905228 L13.5730135,264.035577 C13.0281268,263.806806 12.2733072,263.595567 11.3243423,263.595567 C9.19898534,263.595567 7.5476841,264.880105 7.5476841,267.520593 C7.5476841,269.897673 8.95321028,271.393878 11.3418367,271.393878 C12.1499929,271.393878 13.0456212,271.217703 13.5730135,271.006464 L13.9770916,273.101322 Z" id="Fill-27" fill="#972528"></path>
                <path d="M20.5100149,268.154567 C20.5100149,267.503318 20.2288243,266.412059 18.9990955,266.412059 C17.8747599,266.412059 17.4181986,267.43319 17.348221,268.154567 L20.5100149,268.154567 Z M17.3657154,269.985162 C17.4536141,271.094381 18.5425342,271.622478 19.7897574,271.622478 C20.70288,271.622478 21.4410586,271.499327 22.1608894,271.270556 L22.5124843,273.083619 C21.6343505,273.435969 20.5624981,273.612144 19.4031737,273.612144 C16.4871549,273.612144 14.8183592,271.922232 14.8183592,269.228721 C14.8183592,267.045348 16.1709755,264.634059 19.1573986,264.634059 C21.9326087,264.634059 22.9869667,266.799045 22.9869667,268.929395 C22.9869667,269.386937 22.9340568,269.791883 22.899068,269.985162 L17.3657154,269.985162 Z" id="Fill-28" fill="#972528"></path>
                <path d="M24.5839926,267.573702 C24.5839926,266.499547 24.5485771,265.584464 24.5135883,264.827595 L26.8326638,264.827595 L26.9555514,266.006942 L27.0080346,266.006942 C27.3592028,265.461312 28.2377633,264.633888 29.6603572,264.633888 C31.4170516,264.633888 32.734679,265.795703 32.734679,268.330998 L32.734679,273.435798 L30.0644353,273.435798 L30.0644353,268.665389 C30.0644353,267.55617 29.6778516,266.798874 28.7118191,266.798874 C27.9740672,266.798874 27.5350002,267.309867 27.3592028,267.802473 C27.2892252,267.960688 27.2538097,268.224951 27.2538097,268.471682 L27.2538097,273.435798 L24.5839926,273.435798 L24.5839926,267.573702 Z" id="Fill-29" fill="#972528"></path>
                <path d="M37.7568963,262.363026 L37.7568963,264.827766 L39.671467,264.827766 L39.671467,266.799045 L37.7568963,266.799045 L37.7568963,269.915034 C37.7568963,270.953697 38.0026714,271.428771 38.8108276,271.428771 C39.1445014,271.428771 39.4081975,271.393707 39.6014894,271.358643 L39.6189838,273.382946 C39.2678156,273.524057 38.6354568,273.612144 37.8797838,273.612144 C37.0191444,273.612144 36.2988869,273.31239 35.8773144,272.87238 C35.3853376,272.361814 35.1395625,271.53439 35.1395625,270.319552 L35.1395625,266.799045 L33.9977325,266.799045 L33.9977325,264.827766 L35.1395625,264.827766 L35.1395625,262.961251 L37.7568963,262.363026 Z" id="Fill-30" fill="#972528"></path>
                <path d="M46.3282592,268.154567 C46.3282592,267.503318 46.0470686,266.412059 44.8173399,266.412059 C43.6930043,266.412059 43.2364429,267.43319 43.1664653,268.154567 L46.3282592,268.154567 Z M43.1839597,269.985162 C43.2718584,271.094381 44.3607785,271.622478 45.6080017,271.622478 C46.5211243,271.622478 47.2593029,271.499327 47.9791337,271.270556 L48.3307286,273.083619 C47.4525948,273.435969 46.3807424,273.612144 45.221418,273.612144 C42.3053992,273.612144 40.6366035,271.922232 40.6366035,269.228721 C40.6366035,267.045348 41.9892198,264.634059 44.9756429,264.634059 C47.750853,264.634059 48.805211,266.799045 48.805211,268.929395 C48.805211,269.386937 48.7523011,269.791883 48.7173123,269.985162 L43.1839597,269.985162 Z" id="Fill-31" fill="#972528"></path>
                <path d="M50.4026636,267.66179 C50.4026636,266.393928 50.3672481,265.566932 50.3322593,264.827595 L52.6334137,264.827595 L52.7213125,266.411888 L52.7917168,266.411888 C53.2307837,265.161986 54.284715,264.633888 55.1099389,264.633888 C55.3561407,264.633888 55.4790282,264.633888 55.6723201,264.668952 L55.6723201,267.186716 C55.4790282,267.151224 55.2507476,267.11616 54.9520626,267.11616 C53.9681089,267.11616 53.3007613,267.644258 53.1253906,268.471682 C53.0899751,268.647429 53.0724807,268.858668 53.0724807,269.069907 L53.0724807,273.435798 L50.4026636,273.435798 L50.4026636,267.66179 Z" id="Fill-32" fill="#972528"></path>
                <polygon id="Fill-33" fill="#972528" points="60.7116477 261.57088 67.9492115 261.57088 67.9492115 263.771357 63.3993858 263.771357 63.3993858 266.481973 67.6505265 266.481973 67.6505265 268.665346 63.3993858 268.665346 63.3993858 273.435755 60.7116477 273.435755"></polygon>
                <path d="M71.6898141,269.122931 C71.6898141,270.601604 72.3042518,271.710822 73.4460818,271.710822 C74.4829454,271.710822 75.1498663,270.671731 75.1498663,269.122931 C75.1498663,267.837537 74.6583161,266.535039 73.4460818,266.535039 C72.1638699,266.535039 71.6898141,267.855069 71.6898141,269.122931 M77.9080087,269.034843 C77.9080087,272.185896 75.6772586,273.629505 73.3761042,273.629505 C70.8637368,273.629505 68.9316717,271.974657 68.9316717,269.193058 C68.9316717,266.411888 70.7583437,264.633888 73.5164861,264.633888 C76.1513143,264.633888 77.9080087,266.446952 77.9080087,269.034843" id="Fill-34" fill="#972528"></path>
                <path d="M79.5577739,267.66179 C79.5577739,266.393928 79.5223584,265.566932 79.4873696,264.827595 L81.788524,264.827595 L81.8764227,266.411888 L81.946827,266.411888 C82.3858939,265.161986 83.4398252,264.633888 84.2650492,264.633888 C84.5112509,264.633888 84.6341385,264.633888 84.8274303,264.668952 L84.8274303,267.186716 C84.6341385,267.151224 84.4058578,267.11616 84.1071728,267.11616 C83.1232191,267.11616 82.4558716,267.644258 82.2805008,268.471682 C82.2450853,268.647429 82.2275909,268.858668 82.2275909,269.069907 L82.2275909,273.435798 L79.5577739,273.435798 L79.5577739,267.66179 Z" id="Fill-35" fill="#972528"></path>
                <polygon id="Fill-36" fill="#972528" points="89.8670566 273.435627 92.5547948 273.435627 92.5547948 261.570752 89.8670566 261.570752"></polygon>
                <path d="M94.8374734,267.573702 C94.8374734,266.499547 94.8020579,265.584464 94.7670691,264.827595 L97.0861446,264.827595 L97.2090321,266.006942 L97.2615153,266.006942 C97.6126835,265.461312 98.4912441,264.633888 99.913838,264.633888 C101.670532,264.633888 102.98816,265.795703 102.98816,268.330998 L102.98816,273.435798 L100.317916,273.435798 L100.317916,268.665389 C100.317916,267.55617 99.9313324,266.798874 98.9652998,266.798874 C98.2275479,266.798874 97.788481,267.309867 97.6126835,267.802473 C97.5427059,267.960688 97.5072904,268.224951 97.5072904,268.471682 L97.5072904,273.435798 L94.8374734,273.435798 L94.8374734,267.573702 Z" id="Fill-37" fill="#972528"></path>
                <path d="M108.010377,262.363026 L108.010377,264.827766 L109.924948,264.827766 L109.924948,266.799045 L108.010377,266.799045 L108.010377,269.915034 C108.010377,270.953697 108.256152,271.428771 109.064308,271.428771 C109.397982,271.428771 109.661678,271.393707 109.85497,271.358643 L109.872465,273.382946 C109.521296,273.524057 108.888938,273.612144 108.133265,273.612144 C107.272625,273.612144 106.552368,273.31239 106.130795,272.87238 C105.638818,272.361814 105.393043,271.53439 105.393043,270.319552 L105.393043,266.799045 L104.251213,266.799045 L104.251213,264.827766 L105.393043,264.827766 L105.393043,262.961251 L108.010377,262.363026 Z" id="Fill-38" fill="#972528"></path>
                <path d="M116.58174,268.154567 C116.58174,267.503318 116.300549,266.412059 115.070821,266.412059 C113.946485,266.412059 113.489924,267.43319 113.419946,268.154567 L116.58174,268.154567 Z M113.43744,269.985162 C113.525339,271.094381 114.614259,271.622478 115.861482,271.622478 C116.774605,271.622478 117.512784,271.499327 118.232614,271.270556 L118.584209,273.083619 C117.706076,273.435969 116.634223,273.612144 115.474899,273.612144 C112.55888,273.612144 110.890084,271.922232 110.890084,269.228721 C110.890084,267.045348 112.242701,264.634059 115.229124,264.634059 C118.004334,264.634059 119.058692,266.799045 119.058692,268.929395 C119.058692,269.386937 119.005782,269.791883 118.970793,269.985162 L113.43744,269.985162 Z" id="Fill-39" fill="#972528"></path>
                <path d="M120.655718,267.66179 C120.655718,266.393928 120.620302,265.566932 120.585313,264.827595 L122.886468,264.827595 L122.974367,266.411888 L123.044771,266.411888 C123.483838,265.161986 124.537769,264.633888 125.362993,264.633888 C125.609195,264.633888 125.732082,264.633888 125.925374,264.668952 L125.925374,267.186716 C125.732082,267.151224 125.503802,267.11616 125.205117,267.11616 C124.221163,267.11616 123.553815,267.644258 123.378445,268.471682 C123.343029,268.647429 123.325535,268.858668 123.325535,269.069907 L123.325535,273.435798 L120.655718,273.435798 L120.655718,267.66179 Z" id="Fill-40" fill="#972528"></path>
                <path d="M132.38896,268.154567 C132.38896,267.503318 132.107769,266.412059 130.87804,266.412059 C129.753705,266.412059 129.297144,267.43319 129.227166,268.154567 L132.38896,268.154567 Z M129.24466,269.985162 C129.332559,271.094381 130.421479,271.622478 131.668702,271.622478 C132.582252,271.622478 133.320003,271.499327 134.039834,271.270556 L134.391429,273.083619 C133.513295,273.435969 132.441443,273.612144 131.282119,273.612144 C128.3661,273.612144 126.697304,271.922232 126.697304,269.228721 C126.697304,267.045348 128.04992,264.634059 131.036343,264.634059 C133.811554,264.634059 134.865912,266.799045 134.865912,268.929395 C134.865912,269.386937 134.813002,269.791883 134.778013,269.985162 L129.24466,269.985162 Z" id="Fill-41" fill="#972528"></path>
                <path d="M139.448977,262.363026 L139.448977,264.827766 L141.363547,264.827766 L141.363547,266.799045 L139.448977,266.799045 L139.448977,269.915034 C139.448977,270.953697 139.694752,271.428771 140.502908,271.428771 C140.836582,271.428771 141.100278,271.393707 141.29357,271.358643 L141.311064,273.382946 C140.959896,273.524057 140.327537,273.612144 139.571864,273.612144 C138.711225,273.612144 137.990967,273.31239 137.569395,272.87238 C137.077418,272.361814 136.831643,271.53439 136.831643,270.319552 L136.831643,266.799045 L135.689813,266.799045 L135.689813,264.827766 L136.831643,264.827766 L136.831643,262.961251 L139.448977,262.363026 Z" id="Fill-42" fill="#972528"></path>
                <path d="M142.908773,260.936992 L145.57859,260.936992 L145.57859,265.848512 L145.614005,265.848512 C145.894769,265.47863 146.245937,265.197263 146.667937,264.968492 C147.054094,264.757253 147.563565,264.634102 148.055542,264.634102 C149.759326,264.634102 151.059459,265.813021 151.059459,268.400912 L151.059459,273.435584 L148.389215,273.435584 L148.389215,268.700239 C148.389215,267.573916 148.002632,266.799088 147.00161,266.799088 C146.298847,266.799088 145.85978,267.25663 145.666488,267.732131 C145.596084,267.908306 145.57859,268.137077 145.57859,268.330784 L145.57859,273.435584 L142.908773,273.435584 L142.908773,260.936992 Z" id="Fill-43" fill="#972528"></path>
                <path d="M153.200646,267.573702 C153.200646,266.499547 153.165231,265.584464 153.130242,264.827595 L155.449318,264.827595 L155.572205,266.006942 L155.624688,266.006942 C155.975857,265.461312 156.854417,264.633888 158.277011,264.633888 C160.033705,264.633888 161.351333,265.795703 161.351333,268.330998 L161.351333,273.435798 L158.681089,273.435798 L158.681089,268.665389 C158.681089,267.55617 158.294505,266.798874 157.328473,266.798874 C156.590721,266.798874 156.151654,267.309867 155.975857,267.802473 C155.905879,267.960688 155.870463,268.224951 155.870463,268.471682 L155.870463,273.435798 L153.200646,273.435798 L153.200646,267.573702 Z" id="Fill-44" fill="#972528"></path>
                <path d="M163.492904,273.436055 L166.162721,273.436055 L166.162721,264.827852 L163.492904,264.827852 L163.492904,273.436055 Z M166.25062,262.433239 C166.25062,263.172576 165.688665,263.771229 164.810105,263.771229 C163.96696,263.771229 163.405005,263.172576 163.4225,262.433239 C163.405005,261.658411 163.96696,261.077718 164.827599,261.077718 C165.688665,261.077718 166.233125,261.658411 166.25062,262.433239 L166.25062,262.433239 Z" id="Fill-45" fill="#972528"></path>
                <path d="M174.751962,273.224474 C174.277907,273.435713 173.381852,273.611888 172.362909,273.611888 C169.587272,273.611888 167.813084,271.921976 167.813084,269.210933 C167.813084,266.693597 169.534363,264.633803 172.731999,264.633803 C173.434335,264.633803 174.207502,264.756954 174.769457,264.968193 L174.347884,266.957859 C174.031705,266.816748 173.557223,266.693597 172.854886,266.693597 C171.449787,266.693597 170.535811,267.696768 170.553732,269.105313 C170.553732,270.689606 171.607663,271.51703 172.907369,271.51703 C173.539728,271.51703 174.031705,271.41141 174.435783,271.253195 L174.751962,273.224474 Z" id="Fill-46" fill="#972528"></path>
                <path d="M182.549091,271.411325 C182.777372,271.464348 183.146461,271.464348 183.480562,271.464348 C185.904177,271.48188 187.485074,270.143891 187.485074,267.309696 C187.502568,264.845384 186.062053,263.542458 183.761326,263.542458 C183.163956,263.542458 182.777372,263.595482 182.549091,263.648078 L182.549091,271.411325 Z M179.861353,261.728967 C180.845307,261.570752 182.127519,261.482664 183.480562,261.482664 C185.728806,261.482664 187.186389,261.88761 188.328646,262.750098 C189.558374,263.66561 190.330688,265.126751 190.330688,267.221609 C190.330688,269.492642 189.505464,271.059402 188.363634,272.027082 C187.116411,273.066173 185.219335,273.558778 182.900259,273.558778 C181.512654,273.558778 180.529127,273.470691 179.861353,273.383031 L179.861353,261.728967 Z" id="Fill-47" fill="#972528"></path>
                <path d="M192.068523,273.436055 L194.73834,273.436055 L194.73834,264.827852 L192.068523,264.827852 L192.068523,273.436055 Z M194.826239,262.433239 C194.826239,263.172576 194.263857,263.771229 193.385724,263.771229 C192.542579,263.771229 191.980624,263.172576 191.998119,262.433239 C191.980624,261.658411 192.542579,261.077718 193.403218,261.077718 C194.263857,261.077718 194.808744,261.658411 194.826239,262.433239 L194.826239,262.433239 Z" id="Fill-48" fill="#972528"></path>
                <path d="M201.447359,269.369319 C200.04226,269.351787 198.952913,269.686178 198.952913,270.724841 C198.952913,271.411153 199.409901,271.745972 200.006844,271.745972 C200.674192,271.745972 201.219079,271.305534 201.394876,270.759905 C201.429865,270.619221 201.447359,270.461006 201.447359,270.302363 L201.447359,269.369319 Z M201.763539,273.435884 L201.605662,272.572968 L201.552752,272.572968 C200.990798,273.259709 200.112237,273.629591 199.093295,273.629591 C197.354522,273.629591 196.318085,272.361729 196.318085,270.988675 C196.318085,268.753134 198.320554,267.679407 201.35946,267.696939 L201.35946,267.573788 C201.35946,267.115818 201.113685,266.464569 199.796058,266.464569 C198.917924,266.464569 197.98688,266.763896 197.424499,267.115818 L196.932949,265.390842 C197.529892,265.056452 198.707138,264.633974 200.27054,264.633974 C203.133649,264.633974 204.047199,266.323886 204.047199,268.348188 L204.047199,271.340598 C204.047199,272.16845 204.082614,272.960382 204.170086,273.435884 L201.763539,273.435884 Z" id="Fill-49" fill="#972528"></path>
                <polygon id="Fill-50" fill="#972528" points="206.154506 273.435627 208.824324 273.435627 208.824324 260.937035 206.154506 260.937035"></polygon>
                <path d="M213.249726,269.122931 C213.249726,270.601604 213.864163,271.710822 215.005993,271.710822 C216.042857,271.710822 216.709778,270.671731 216.709778,269.122931 C216.709778,267.837537 216.218228,266.535039 215.005993,266.535039 C213.723781,266.535039 213.249726,267.855069 213.249726,269.122931 M219.46792,269.034843 C219.46792,272.185896 217.23717,273.629505 214.936016,273.629505 C212.423648,273.629505 210.491583,271.974657 210.491583,269.193058 C210.491583,266.411888 212.318255,264.633888 215.076398,264.633888 C217.711226,264.633888 219.46792,266.446952 219.46792,269.034843" id="Fill-51" fill="#972528"></path>
                <path d="M226.633458,268.330784 C226.633458,268.154609 226.615964,267.978862 226.580975,267.837751 C226.387683,267.133478 225.877785,266.658404 225.14046,266.658404 C224.174001,266.658404 223.383766,267.538424 223.383766,269.105612 C223.383766,270.390151 224.016124,271.39375 225.14046,271.39375 C225.825302,271.39375 226.370189,270.936208 226.545559,270.302063 C226.615964,270.108356 226.633458,269.826989 226.633458,269.598218 L226.633458,268.330784 Z M229.374106,264.827809 C229.338691,265.373011 229.303702,266.094815 229.303702,267.379781 L229.303702,272.18611 C229.303702,273.840958 228.970028,275.196479 228.003569,276.05854 C227.055031,276.868432 225.772392,277.115162 224.508101,277.115162 C223.383766,277.115162 222.189452,276.886391 221.416285,276.446381 L221.943251,274.421651 C222.487711,274.73851 223.436675,275.073328 224.437697,275.073328 C225.702414,275.073328 226.668447,274.38616 226.668447,272.801867 L226.668447,272.238706 L226.633458,272.238706 C226.124414,272.96051 225.298336,273.365029 224.314383,273.365029 C222.189452,273.365029 220.678533,271.640053 220.678533,269.158208 C220.678533,266.394142 222.470216,264.633674 224.578505,264.633674 C225.754898,264.633674 226.493076,265.14424 226.932143,265.848512 L226.967132,265.848512 L227.055031,264.827809 L229.374106,264.827809 Z" id="Fill-52" fill="#972528"></path>
                <path d="M239.543007,270.671774 C239.543007,271.798525 239.577996,272.714036 239.612985,273.435841 L237.294336,273.435841 L237.171022,272.221003 L237.118538,272.221003 C236.784864,272.7491 235.977135,273.629548 234.431227,273.629548 C232.692027,273.629548 231.409388,272.537861 231.409388,269.879414 L231.409388,264.827638 L234.097126,264.827638 L234.097126,269.457364 C234.097126,270.707266 234.501631,271.464562 235.432248,271.464562 C236.170427,271.464562 236.591573,270.953569 236.76737,270.531091 C236.837774,270.372875 236.855269,270.161636 236.855269,269.950397 L236.855269,264.827638 L239.543007,264.827638 L239.543007,270.671774 Z" id="Fill-53" fill="#972528"></path>
                <path d="M246.883873,268.154567 C246.883873,267.503318 246.602682,266.412059 245.372954,266.412059 C244.248618,266.412059 243.792057,267.43319 243.722079,268.154567 L246.883873,268.154567 Z M243.739574,269.985162 C243.827472,271.094381 244.916392,271.622478 246.163616,271.622478 C247.076738,271.622478 247.814917,271.499327 248.534748,271.270556 L248.886342,273.083619 C248.008209,273.435969 246.936356,273.612144 245.777032,273.612144 C242.861013,273.612144 241.192217,271.922232 241.192217,269.228721 C241.192217,267.045348 242.544834,264.634059 245.531257,264.634059 C248.306467,264.634059 249.360825,266.799045 249.360825,268.929395 C249.360825,269.386937 249.307915,269.791883 249.272926,269.985162 L243.739574,269.985162 Z" id="Fill-54" fill="#972528"></path>
                <path d="M78.4510607,290.490867 C77.0459612,290.473335 75.9566144,290.807725 75.9566144,291.846388 C75.9566144,292.532701 76.4136024,292.86752 77.0105457,292.86752 C77.6778933,292.86752 78.22278,292.427082 78.3985775,291.881452 C78.4335663,291.740769 78.4510607,291.582554 78.4510607,291.42391 L78.4510607,290.490867 Z M78.7672401,294.557431 L78.6093637,293.694516 L78.5564538,293.694516 C77.9944994,294.381256 77.1159388,294.751139 76.0969964,294.751139 C74.3582231,294.751139 73.3217862,293.483277 73.3217862,292.110223 C73.3217862,289.874682 75.3242556,288.800955 78.363162,288.818487 L78.363162,288.695335 C78.363162,288.237366 78.1173869,287.586117 76.7997594,287.586117 C75.9216256,287.586117 74.9905818,287.885443 74.4282007,288.237366 L73.9366506,286.51239 C74.5335938,286.178 75.7108393,285.755522 77.2742419,285.755522 C80.1373507,285.755522 81.0509001,287.445433 81.0509001,289.469736 L81.0509001,292.462146 C81.0509001,293.289998 81.0863156,294.08193 81.1737876,294.557431 L78.7672401,294.557431 Z" id="Fill-55" fill="#972528"></path>
                <path d="M83.1576106,288.69525 C83.1576106,287.621095 83.1221951,286.706011 83.0872063,285.949143 L85.4062818,285.949143 L85.5291693,287.128489 L85.5816525,287.128489 C85.9328207,286.58286 86.8113813,285.755436 88.2339752,285.755436 C89.9906695,285.755436 91.308297,286.91725 91.308297,289.452546 L91.308297,294.557346 L88.6380533,294.557346 L88.6380533,289.786937 C88.6380533,288.677718 88.2514696,287.920422 87.285437,287.920422 C86.5476851,287.920422 86.1086182,288.431415 85.9328207,288.924021 C85.8628431,289.082236 85.8274276,289.346499 85.8274276,289.59323 L85.8274276,294.557346 L83.1576106,294.557346 L83.1576106,288.69525 Z" id="Fill-56" fill="#972528"></path>
                <path d="M99.1060658,289.593058 C99.1060658,289.452375 99.0885714,289.258668 99.0710769,289.117985 C98.9127739,288.395752 98.3328984,287.797527 97.5076744,287.797527 C96.2954401,287.797527 95.6630813,288.889214 95.6630813,290.244307 C95.6630813,291.705448 96.3833388,292.62096 97.4897533,292.62096 C98.262494,292.62096 98.8777851,292.092862 99.0356614,291.335566 C99.0885714,291.142287 99.1060658,290.94858 99.1060658,290.719809 L99.1060658,289.593058 Z M101.776309,282.058582 L101.776309,291.987243 C101.776309,292.95535 101.811298,293.976481 101.846287,294.557175 L99.4747284,294.557175 L99.3518408,293.290169 L99.316852,293.290169 C98.772392,294.257848 97.7359551,294.75131 96.6291139,294.75131 C94.5916556,294.75131 92.9578488,293.007946 92.9578488,290.332395 C92.9403544,287.428073 94.749532,285.755265 96.8044846,285.755265 C97.8588426,285.755265 98.6844932,286.125147 99.0710769,286.723372 L99.1060658,286.723372 L99.1060658,282.058582 L101.776309,282.058582 Z" id="Fill-57" fill="#972528"></path>
                <polygon id="Fill-58" fill="#972528" points="109.152122 284.945758 105.972407 284.945758 105.972407 282.692257 115.071631 282.692257 115.071631 284.945758 111.83986 284.945758 111.83986 294.55756 109.152122 294.55756"></polygon>
                <path d="M117.248874,290.244521 C117.248874,291.723194 117.863312,292.832413 119.005142,292.832413 C120.042005,292.832413 120.708926,291.793322 120.708926,290.244521 C120.708926,288.959128 120.217376,287.65663 119.005142,287.65663 C117.72293,287.65663 117.248874,288.97666 117.248874,290.244521 M123.467069,290.156434 C123.467069,293.307487 121.236319,294.751096 118.935164,294.751096 C116.422797,294.751096 114.490732,293.096248 114.490732,290.314649 C114.490732,287.533478 116.317404,285.755479 119.075546,285.755479 C121.710374,285.755479 123.467069,287.568542 123.467069,290.156434" id="Fill-59" fill="#972528"></path>
                <polygon id="Fill-60" fill="#972528" points="125.117005 294.556961 127.786822 294.556961 127.786822 282.058369 125.117005 282.058369"></polygon>
                <path d="M135.146206,289.276114 C135.146206,288.624865 134.865016,287.533607 133.635287,287.533607 C132.510951,287.533607 132.05439,288.554738 131.984412,289.276114 L135.146206,289.276114 Z M132.001907,291.10671 C132.089805,292.215928 133.178725,292.744026 134.425949,292.744026 C135.339071,292.744026 136.07725,292.620874 136.797081,292.392103 L137.148676,294.205167 C136.270542,294.557517 135.198689,294.733692 134.039365,294.733692 C131.123346,294.733692 129.45455,293.04378 129.45455,290.350269 C129.45455,288.166896 130.807167,285.755607 133.79359,285.755607 C136.5688,285.755607 137.623158,287.920593 137.623158,290.050943 C137.623158,290.508484 137.570248,290.91343 137.535259,291.10671 L132.001907,291.10671 Z" id="Fill-61" fill="#972528"></path>
                <path d="M139.220184,288.78338 C139.220184,287.515519 139.184768,286.688522 139.14978,285.949186 L141.450934,285.949186 L141.538833,287.533478 L141.609237,287.533478 C142.048304,286.283576 143.102235,285.755479 143.927459,285.755479 C144.173661,285.755479 144.296548,285.755479 144.48984,285.790543 L144.48984,288.308306 C144.296548,288.272815 144.068268,288.237751 143.769583,288.237751 C142.785629,288.237751 142.118282,288.765848 141.942911,289.593272 C141.907495,289.76902 141.890001,289.980259 141.890001,290.191498 L141.890001,294.557389 L139.220184,294.557389 L139.220184,288.78338 Z" id="Fill-62" fill="#972528"></path>
                <path d="M150.268371,290.490867 C148.863271,290.473335 147.773924,290.807725 147.773924,291.846388 C147.773924,292.532701 148.230912,292.86752 148.827856,292.86752 C149.495203,292.86752 150.04009,292.427082 150.215887,291.881452 C150.250876,291.740769 150.268371,291.582554 150.268371,291.42391 L150.268371,290.490867 Z M150.58455,294.557431 L150.426674,293.694516 L150.373764,293.694516 C149.811809,294.381256 148.933249,294.751139 147.914306,294.751139 C146.175533,294.751139 145.139096,293.483277 145.139096,292.110223 C145.139096,289.874682 147.141566,288.800955 150.180472,288.818487 L150.180472,288.695335 C150.180472,288.237366 149.934697,287.586117 148.617069,287.586117 C147.738936,287.586117 146.807892,287.885443 146.245511,288.237366 L145.753961,286.51239 C146.350904,286.178 147.528149,285.755522 149.091552,285.755522 C151.954661,285.755522 152.86821,287.445433 152.86821,289.469736 L152.86821,292.462146 C152.86821,293.289998 152.903626,294.08193 152.991098,294.557431 L150.58455,294.557431 Z" id="Fill-63" fill="#972528"></path>
                <path d="M154.974921,288.69525 C154.974921,287.621095 154.939505,286.706011 154.904516,285.949143 L157.223592,285.949143 L157.346479,287.128489 L157.398962,287.128489 C157.750131,286.58286 158.628691,285.755436 160.051285,285.755436 C161.807979,285.755436 163.125607,286.91725 163.125607,289.452546 L163.125607,294.557346 L160.455363,294.557346 L160.455363,289.786937 C160.455363,288.677718 160.06878,287.920422 159.102747,287.920422 C158.364995,287.920422 157.925928,288.431415 157.750131,288.924021 C157.680153,289.082236 157.644738,289.346499 157.644738,289.59323 L157.644738,294.557346 L154.974921,294.557346 L154.974921,288.69525 Z" id="Fill-64" fill="#972528"></path>
                <path d="M171.713867,294.346064 C171.239811,294.557303 170.343756,294.733478 169.324814,294.733478 C166.549177,294.733478 164.774988,293.043566 164.774988,290.332523 C164.774988,287.815187 166.496267,285.755393 169.693903,285.755393 C170.396239,285.755393 171.169407,285.878545 171.731361,286.089784 L171.309789,288.07945 C170.993609,287.938339 170.519127,287.815187 169.816791,287.815187 C168.411264,287.815187 167.497715,288.818359 167.515636,290.226904 C167.515636,291.811196 168.569567,292.63862 169.869274,292.63862 C170.501633,292.63862 170.993609,292.533001 171.397687,292.374785 L171.713867,294.346064 Z" id="Fill-65" fill="#972528"></path>
                <path d="M178.194691,289.276114 C178.194691,288.624865 177.9135,287.533607 176.683772,287.533607 C175.559436,287.533607 175.102875,288.554738 175.032897,289.276114 L178.194691,289.276114 Z M175.050391,291.10671 C175.13829,292.215928 176.22721,292.744026 177.474433,292.744026 C178.387556,292.744026 179.125735,292.620874 179.845565,292.392103 L180.19716,294.205167 C179.319026,294.557517 178.247174,294.733692 177.08785,294.733692 C174.171831,294.733692 172.503035,293.04378 172.503035,290.350269 C172.503035,288.166896 173.855651,285.755607 176.842075,285.755607 C179.617285,285.755607 180.671643,287.920593 180.671643,290.050943 C180.671643,290.508484 180.618733,290.91343 180.583744,291.10671 L175.050391,291.10671 Z" id="Fill-66" fill="#972528"></path>
            </g>
        </g>
        <g id="Big-Leaf-Plant" stroke-width="1" transform="translate(9, 301)">
            <g id="Big-Ass-Leaf" transform="translate(22, 0)">
                <path d="M25.2579539,1.17309307 C28.1225306,0.823121436 31.1799041,0.946659994 33.8438766,2.07736611 C39.5085416,4.48200834 41.1187317,11.1741436 41.0410516,16.6135182 C40.9573065,22.4680411 39.714051,28.8626602 44.1651162,33.5797909 C46.2111822,35.7484553 48.7563294,37.4081152 50.7654292,39.6166003 C52.9121851,41.9766643 54.5966293,44.6770468 55.8438343,47.5768289 C58.1338507,52.9031791 59.2578307,59.1668975 57.163736,64.7542738 C55.3199224,69.6736307 50.6810935,74.1137719 51.6834319,79.7075568 C52.728959,85.5429164 58.61221,90.0040977 62.290444,94.3505245 C66.4531656,99.2693182 70.2859018,105.555987 70.9155339,112.006469 C71.5192882,118.188324 68.8284074,124.440381 64.698769,129.113358 C56.447741,138.450738 44.0451661,143.028231 31.539564,143 C26.2300259,142.987569 20.2185507,142.747768 15.6365623,139.894514 C14.2204324,139.012594 13.4733329,138.02316 12.6314834,136.647706 C11.8766749,135.414323 10.8795787,134.61206 9.72545995,133.739319 C7.18986484,131.822394 5.35871537,129.238844 4.19012177,126.346829 C-0.347779789,115.114023 3.27916675,101.217665 9.6312018,91.2428455 C11.1363537,88.8796069 12.3686453,86.6054629 11.6374364,83.7886216 C10.8743978,80.8481806 8.99901449,78.1960629 7.34025921,75.6685039 C5.70114537,73.1704875 3.82987864,70.7874137 2.54875756,68.0865102 C1.20699289,65.2571214 0.829162714,62.2942757 1.0662375,59.1977452 C1.51180331,53.3811147 4.02273241,48.0134805 7.57766153,43.3356252 C11.0017161,38.8298272 15.0221277,34.5184764 15.0311362,28.6145236 C15.0410288,22.3571379 10.8577315,16.7908073 12.6398779,10.4289791 C13.3778032,7.79466143 14.8599543,5.09183557 17.2485499,3.51252303 C19.5392578,1.99784616 22.5638536,1.50223723 25.2579539,1.17309307 Z" id="leaf" fill="#DDE3E9"></path>
                <path d="M23.3861597,11.1764309 C23.4398778,10.3360403 24.436749,9.83200515 25.2215077,10.0513011 C26.2544664,10.3400972 26.2346007,11.3052716 26.2073293,12.1651664 C26.1237304,14.8082784 26.5062963,17.3769517 27.1416559,19.9415199 C28.4621824,25.2735426 30.9026929,30.1861254 32.8361895,35.3079558 C34.7680009,40.4254986 35.6748339,45.7092068 34.5415523,51.1242976 C33.4732058,56.2299732 31.7948008,61.2033156 30.7014513,66.3154357 C29.7377524,70.8211129 28.7123306,75.5726024 30.1799208,80.0668063 C31.5921035,84.3928044 34.714245,87.9158566 36.9624576,91.8252937 C41.6165172,99.9180775 43.681267,108.896054 43.9574365,118.135184 C44.0854233,122.425481 43.970168,126.755229 42.9748682,130.963076 C42.4020068,133.385966 41.6321776,136.660394 39.5559237,138.333163 C38.5985099,139.104565 36.9610282,139.371304 36.1552196,138.228946 C35.3986826,137.157504 36.0623713,135.498805 36.3025457,134.356816 C37.3426754,129.413332 37.551926,124.361287 37.302904,119.341696 C37.061891,114.479563 36.4874289,109.625549 34.9571817,104.98201 C33.536907,100.672738 31.379247,96.8021749 28.8398113,93.0324782 C26.2521442,89.1908938 23.562037,85.3411131 22.4928221,80.7892312 C21.4064684,76.1661343 22.2890218,71.4619848 23.4691168,66.9271792 C24.717096,62.1306341 26.3517536,57.4716876 28.0416981,52.8051023 C29.688607,48.2578629 30.2723555,43.9553657 29.3631928,39.1961513 C27.5671855,29.7935298 22.7598022,20.9681166 23.3861597,11.1764309 Z" id="middle-thing" fill="#C5CFD6"></path>
            </g>
            <g id="Big-Ass-Leaf" transform="translate(32, 11)">
                <path d="M90.8923323,1.58227349 C94.4371815,2.65860484 97.957883,4.39521888 100.484813,7.11827966 C105.857908,12.908958 104.209295,21.6609092 101.243138,28.053245 C98.0504357,34.9333908 93.2122671,41.8490652 95.9396345,49.7432112 C97.193196,53.3723397 99.3011711,56.6591395 100.490327,60.3161304 C101.760821,64.2239944 102.30919,68.2938229 102.239325,72.3720051 C102.109984,79.8624039 100.11754,87.8547607 94.7080978,93.373143 C89.9453006,98.2317101 82.1575199,101.069515 80.3765031,108.20631 C78.5184553,115.651265 83.0609213,123.987774 85.0777737,131.041472 C87.360351,139.024107 88.5328812,148.452761 85.8618992,156.408818 C83.3025511,164.033728 76.8418128,170.027718 69.5281945,173.405772 C54.9151643,180.156033 37.9486721,179.117398 23.2958182,172.578162 C17.0747521,169.801475 10.1506305,166.390577 6.28452896,160.632591 C5.08969654,158.852907 4.73639937,157.294118 4.47600508,155.229521 C4.2426077,153.378223 3.49715739,151.910733 2.60478713,150.278208 C0.643995898,146.69213 -0.138196518,142.68415 0.0197662548,138.65605 C0.634485801,123.011122 12.2336238,108.463743 24.9562471,99.9717321 C27.9707605,97.9599181 30.6181436,95.9115216 31.2493822,92.1998602 C31.9086177,88.325468 31.1107853,84.2133878 30.5011993,80.3613088 C29.8990358,76.5543855 28.9638254,72.7626253 28.8887906,68.9019982 C28.8105393,64.857873 29.9334288,61.1573785 31.8482022,57.6186721 C35.4452563,50.9715661 41.2274568,45.9299031 47.869576,42.2471027 C54.2672493,38.6996981 61.2616135,35.6924899 64.392784,28.7150074 C67.7118026,21.3200057 65.7473551,12.5608727 71.200258,5.96432077 C73.4581719,3.232793 76.6252004,0.8074086 80.2615533,0.182273212 C83.7489295,-0.417345716 87.5584437,0.569996664 90.8923323,1.58227349 Z" id="leaf" fill="#DDE3E9"></path>
                <path d="M83.6512541,13.8108813 C84.1542014,12.8438162 85.5838278,12.76941 86.3866021,13.4404234 C87.4431996,14.3238303 86.9144837,15.4564117 86.4322458,16.4604357 C84.9502268,19.5466855 84.0522837,22.7891134 83.4520845,26.1591764 C82.2036693,33.1656731 82.4845328,40.2624713 82.0629519,47.3413268 C81.6416462,54.4142215 79.9347993,61.1466733 75.7736201,66.9654284 C71.8504189,72.4517974 67.2831774,77.4617029 63.3273648,82.942599 C59.8407636,87.7732777 56.1532511,92.8627051 55.5155862,98.9541078 C54.9012266,104.817274 56.7068601,110.625805 57.2882412,116.433853 C58.4918732,128.456945 56.2042044,140.171178 51.6883608,151.25723 C49.5910773,156.405033 47.1887071,161.472065 43.8211358,165.93348 C41.8823541,168.502498 39.2672836,171.9767 35.9634293,172.869426 C34.4399139,173.281139 32.3854941,172.738768 32.0415379,170.963598 C31.7180544,169.298235 33.362815,167.681804 34.2417421,166.455303 C38.0470052,161.146218 40.9375702,155.273083 43.2752764,149.198186 C45.5398829,143.313954 47.4103318,137.264567 48.0529422,130.963476 C48.6490797,125.115876 48.1532232,119.401324 47.1581268,113.606123 C46.1442823,107.70051 45.0149464,101.731498 46.1486425,95.7805914 C47.2995951,89.7363667 50.7952573,84.6281193 54.5501475,79.8763654 C58.5214952,74.8502305 62.8729252,70.1897143 67.2930034,65.5491295 C71.6002552,61.0273221 74.5361665,56.238113 75.9655983,50.1255641 C78.7899076,38.049307 77.7906897,25.0782485 83.6512541,13.8108813 Z" id="middle-thing" fill="#C5CFD6"></path>
            </g>
            <g id="Big-Ass-Leaf" transform="translate(0, 57)">
                <path d="M13.3059765,-1.56319402e-13 C19.200266,-1.56319402e-13 24.3823319,3.12436119 27.9530894,7.55793367 C32.133,12.74806 32.977213,19.0862362 34.674537,25.2719426 C35.5191207,28.3503093 36.9717453,31.4062221 39.5173606,33.4977007 C41.832736,35.3997692 44.7720948,35.7804002 47.5435009,36.7097048 C53.0822347,38.5668654 57.5546724,43.0406377 59.3209572,48.4994874 C61.4757949,55.1581758 59.1934169,61.8733613 59.5864189,68.6215035 C59.9471652,74.818799 66.0576058,78.6852277 70.9738392,81.6560327 C75.8214826,84.5855514 80.1886254,87.3278329 81.6486651,93.0347628 C83.196945,99.0875562 83.7163751,105.843666 81.5719185,111.822941 C78.0015318,121.778741 67.5524967,126.162697 57.4560511,126.842473 C48.2931709,127.459233 36.7719075,126.490815 29.8906637,119.839732 C25.7730402,115.859585 24.2818569,110.293173 24.4668644,104.75501 C24.581799,101.311223 25.2639913,97.8993066 26.1460214,94.571411 C26.7711171,92.2126578 27.6157008,89.864045 27.8563219,87.4267028 C28.4958771,80.9422138 22.5025956,79.6967428 17.4009839,77.9163603 C10.9183036,75.6535796 6.37987122,71.3797201 3.22399048,65.4254344 C0.285002382,59.8814769 -0.948134291,53.6581058 0.813701389,47.5542477 C1.71352782,44.4374919 3.34559866,41.6097404 5.55901596,39.2046306 C6.53336448,38.1460346 7.90664718,37.2630865 8.78608199,36.1508907 C9.60693725,35.1122136 9.42823254,33.766424 9.1453452,32.5499259 C7.83731568,26.930639 3.7619584,22.2775971 2.30451394,16.6684507 C0.988698535,11.6054427 1.76654602,5.30420703 6.395443,2.0378788 C8.39530446,0.626538178 10.8615778,0.0155729143 13.3059765,-1.56319402e-13 Z" id="leaf" fill="#C5CFD6"></path>
                <path d="M21.3376913,14.6413767 C27.5850069,21.2960229 29.2831027,30.3249745 29.7814609,39.0761511 C30.0606151,43.9833868 29.7700594,49.1593434 31.2118042,53.919181 C32.4453787,57.993092 35.3373275,61.1072854 38.3182819,64.0505403 C44.3188091,69.9754389 51.0107852,75.9988444 52.7658888,84.5736503 C53.7957065,89.6058303 53.1005796,94.8035164 54.523567,99.7802864 C55.8174594,104.303997 58.0955633,108.748395 60.8665085,112.568434 C63.097535,115.644601 66.0041955,117.999712 68.4430245,120.867276 C69.1870678,121.742611 70.2529291,123.031168 69.9458228,124.266849 C69.5864899,125.714031 67.7431162,126.172161 66.4352477,125.944726 C63.385884,125.414889 60.8190633,122.503142 58.8252627,120.38633 C55.9097752,117.290969 53.432328,113.961654 51.4186666,110.227085 C49.1832266,106.079656 47.3832523,101.678717 46.6141992,97.0257156 C45.8160904,92.1985167 46.2133058,87.1677853 44.3908963,82.535065 C41.3242463,74.7399845 33.8860201,70.1398585 28.5081649,64.0643023 C21.8077295,56.4937595 22.8070205,47.0715048 23.4933204,37.7589838 C23.8703073,32.6413346 24.2450873,26.8620233 21.6591415,22.1894658 C20.6719877,20.4058395 18.4711201,18.7428117 18.0466881,16.7154534 C17.6579319,14.857947 19.7797242,12.9808841 21.3376913,14.6413767 Z" id="middle-thing" fill="#AFB9C5"></path>
            </g>
            <path d="M28,181 C28,219.05849 34.211229,239 67.0000931,239 C99.7889571,239 106,219.05849 106,181 L28,181 Z" id="Base" fill="#89C5CC"></path>
        </g>
    </g>
</svg>