<?xml version="1.0" encoding="UTF-8"?>
<svg width="578px" height="543px" viewBox="0 0 578 543" version="1.1" xmlns="http://www.w3.org/2000/svg" xmlns:xlink="http://www.w3.org/1999/xlink">
    <title>Screen Logo sofia platform plants</title>
    <defs>
        <path d="M0,0 L578,0 L578,543 L0,543 L0,0 Z" id="path-1"></path>
        <filter x="-6.0%" y="-5.9%" width="112.0%" height="113.9%" filterUnits="objectBoundingBox" id="filter-2">
            <feOffset dx="0" dy="4" in="SourceAlpha" result="shadowOffsetOuter1"></feOffset>
            <feGaussianBlur stdDeviation="8" in="shadowOffsetOuter1" result="shadowBlurOuter1"></feGaussianBlur>
            <feColorMatrix values="0 0 0 0 0.658823529   0 0 0 0 0.815686275   0 0 0 0 0.839215686  0 0 0 0.46 0" type="matrix" in="shadowBlurOuter1" result="shadowMatrixOuter1"></feColorMatrix>
            <feMerge>
                <feMergeNode in="shadowMatrixOuter1"></feMergeNode>
                <feMergeNode in="SourceGraphic"></feMergeNode>
            </feMerge>
        </filter>
        <path d="M0,0 L182.346,0 L182.346,400.751 L0,400.751 L0,0 Z" id="path-3"></path>
        <polygon id="path-4" points="-7.10542736e-15 0 148.082 0 148.082 73.1304 -7.10542736e-15 73.1304"></polygon>
        <polygon id="path-6" points="0 0 82.5409 0 82.5409 69.7129611 0 69.7129611"></polygon>
        <polygon id="path-8" points="0 0 64.6017419 0 64.6017419 306.725237 0 306.725237"></polygon>
        <path d="M0,0 L401,0 L401,185 L0,185 L0,0 Z" id="path-10"></path>
    </defs>
    <g id="Screen-Logo-sofia-platform-plants" stroke="none" fill="none" xlink:href="#path-1" fill-rule="evenodd">
        <use fill="#FFFFFF" xlink:href="#path-1"></use>
        <g id="Group" stroke-width="1" transform="translate(65.3854, 163.3172) scale(-1, 1) rotate(72) translate(-65.3854, -163.3172)translate(-34.6146, 111.3172)">
            <path d="M109.312087,35.3726789 C115.687227,35.3726789 121.360107,36.137185 127.234098,38.4753751 C132.304532,40.4933715 136.925354,43.1648627 141.411706,46.0733561 C147.722278,50.1639182 152.692897,54.9248275 156.172212,61.2329386 C158.250856,65.0014345 159.775629,70.3339845 158.379698,74.4443414 C156.735264,79.2854997 152.220182,83.3230975 146.273625,82.4700499 C142.596456,81.9430811 139.225546,79.6966424 136.430721,77.5823472 C133.087356,75.0528968 130.411005,72.0114574 128.20115,68.633507 C124.596252,63.123339 122.477919,56.8941394 119.415636,51.1362693 C117.96254,48.4035213 116.558315,45.6512461 114.817917,43.054119 C113.956307,41.767994 113.039014,40.4941739 111.731939,39.5384076 C111.03264,39.0272211 108.084093,38.1423415 109.211679,36.9942449 C92.6793797,37.1946001 78.0334987,48.9125679 74.8598494,63.4170505 C74.5642542,64.7689797 74.3332279,66.1318762 74.0891694,67.4920978 C73.9351519,68.3510303 73.9973513,71.5184607 73.1653605,72.0670968 C71.3304788,73.2775201 72.1017511,69.6005081 72.180537,69.0711318 C72.3840178,67.7028854 72.6011233,66.3357089 72.8288915,64.9709398 C74.0681401,57.5476343 77.6490473,50.6467501 83.6207803,45.3527196 C90.44968,39.2989979 99.6634817,35.3726789 109.312087,35.3726789 Z" id="Fill-20" fill="#89C5CC" transform="translate(115.4356, 58.9786) rotate(-19) translate(-115.4356, -58.9786)"></path>
            <path d="M109.482653,-12.8239338 C106.58436,-13.4054241 103.384197,-13.3609196 100.431935,-13.3129506 C84.5989594,-13.115212 69.0512468,-6.23086841 58.9324236,4.76921087 C50.3181985,14.1338155 47.949509,25.7766787 46.2477177,37.5461266 C46.0789916,38.7147035 46.006638,39.8758185 45.9114516,41.0467938 C45.8909909,41.2980978 45.8604482,41.5222194 45.8278298,41.7332828 C45.1585594,42.2827937 44.8074667,42.9234457 45.2036321,43.6272568 C43.7292801,46.5904053 42.4820708,49.6287052 41.4118904,52.7624099 C38.2621383,61.9863057 35.0581211,71.3855546 37.0318313,81.0848759 C37.492937,75.7472644 38.4628898,70.2891976 39.622919,65.0392627 C39.6896385,64.7378578 39.7616955,64.4388514 39.8367179,64.1409109 C39.8444277,64.1094646 39.8515444,64.0780183 39.8592542,64.0468385 C40.2699496,62.4390792 40.8037054,60.8795554 41.4528117,59.3445491 C41.4596319,59.32776 41.4661556,59.3112373 41.4732724,59.2947147 C41.5589698,59.0927121 41.6500048,58.8917755 41.7398537,58.6908389 C41.9257786,58.2748416 42.1167446,57.8596437 42.3192752,57.4465777 C42.3877739,57.3058688 42.4536038,57.1638274 42.5167649,57.0207201 C43.4618091,54.8935637 43.8609398,52.4967153 44.7075358,50.29574 C44.9100664,49.795264 45.1217896,49.2966534 45.3435947,48.8007078 C45.3566421,48.77166 45.369986,48.7426121 45.3833299,48.7135642 C45.9829155,47.3789615 46.6453658,46.0606149 47.3457719,44.756126 C47.7265177,44.4933628 47.929938,43.8415181 48.2581978,43.2491016 C48.3261034,43.1323771 48.8568938,42.3539477 49.0149448,41.905438 C49.4274194,41.1725791 49.8384114,40.4394537 50.2538513,39.7079272 C50.241397,39.7121911 50.2289427,39.716455 50.2164884,39.7207189 C50.6322248,39.0182403 51.0491474,38.3186932 51.4628081,37.6220774 C51.5538431,37.4691098 51.6457677,37.3158757 51.7373958,37.162375 C51.8859578,36.9179999 52.0345198,36.6738912 52.1827853,36.4303156 C53.5696607,34.1509911 55.0401579,31.917237 56.5672925,29.7111984 C57.1123164,28.9239747 58.4143839,27.7951054 58.664063,26.9111443 C58.6732555,26.878099 58.6753312,26.8477187 58.6809653,26.8160059 C61.994699,22.5417061 65.8095701,18.5991916 70.3844501,15.4753471 C69.8314199,16.0243251 68.655971,17.8873857 68.3452066,18.2562136 C67.3942317,19.3856158 66.3617108,20.4369353 65.325335,21.5010465 C63.4693476,23.4072792 61.6572468,25.374006 60.0470835,27.4537264 C57.1025309,31.257131 54.5621499,35.2598732 52.160842,39.3430967 C52.1380092,39.3670812 52.1131006,39.3897332 52.0914538,39.4142506 C50.8845727,40.7805662 50.1248603,42.8456294 49.2560245,44.4086176 C52.6943013,42.9460977 56.496125,41.9933811 60.0248437,40.6947551 C63.5437769,39.4001265 66.9669306,37.9583931 70.2717684,36.2653557 C74.6642818,34.0153455 79.2207769,31.4748567 83.3710246,28.5999178 C88.127085,25.8904717 92.1237296,22.1611525 95.6515587,18.2476858 C99.8255288,13.6173498 103.650778,8.94650677 106.016503,3.32427955 C107.178608,0.561534637 108.092813,-2.31926719 108.634871,-5.23364728 C108.658594,-5.360765 108.68884,-5.49854247 108.721755,-5.64164984 C109.276268,-6.64819826 109.772068,-7.67739869 110.188101,-8.73031711 C110.848772,-10.4001695 112.409118,-12.2371137 109.482653,-12.8239338" id="Fill-10" fill="#69A1AC"></path>
            <path d="M199.752999,34.3482788 C200.392681,36.2930956 199.859038,38.0045627 197.335168,37.5221497 C196.578557,37.3775817 195.796943,37.1461184 195.049552,36.9510793 C190.895555,35.8672564 186.779325,34.6765847 182.604148,33.6618958 C174.571755,31.710049 166.420607,30.7650678 158.191152,29.8894274 C151.711816,29.2001858 145.184484,28.7847545 138.685781,29.0494919 C130.677393,29.3758305 122.863672,30.811491 115.109612,32.4637198 C107.131152,34.1644879 98.9381708,36.2692646 91.2476026,39.0196926 C82.5005962,42.1477642 74.4379019,46.0118362 66.4384617,50.4799152 C46.6710955,61.5211906 29.0985588,75.3111892 13.7284659,91.1459668 C11.5161602,93.4256282 9.3130332,95.7132272 7.1133211,98.0033741 C5.45608091,99.7291235 3.89399395,101.5295 2.24815437,103.261578 C0.885361794,104.69595 -0.709921412,103.878431 0.339450877,102.198226 C1.54410701,100.268727 3.61105046,98.5354206 5.18215508,96.8626448 C6.58430677,95.3701618 7.98792196,93.8787708 9.39080541,92.3868337 C11.0360461,90.6379749 12.6904266,88.8984764 14.378673,87.1856985 C22.2347303,79.2164137 30.6632047,71.6651556 39.5482272,64.6596283 C46.2969554,59.3385659 53.5835444,54.6798033 61.060868,50.2479292 C69.6540173,45.155315 78.7763356,39.8277636 88.6122734,36.8130848 C88.7089344,36.6801236 88.8329978,36.5440146 88.9718149,36.4076617 C87.0603666,34.8166675 92.9249348,29.459863 93.9828778,28.4150968 C96.6695872,25.7619941 99.6246895,23.2924521 102.653161,20.9705759 C105.13816,19.0653446 107.794976,17.4030133 110.703977,16.0754905 C115.014254,14.1089227 119.690306,12.9379634 124.446858,12.1795212 C132.687274,10.865861 141.338896,10.1541189 149.744868,10.7981226 C165.085749,11.9732788 180.191826,16.3511282 192.370232,25.4378819 C195.488254,27.7643515 198.578198,30.7762303 199.752999,34.3482788 Z" id="Fill-1" fill="#C1DEE2"></path>
        </g>
        <g id="Group" filter="url(#filter-2)" stroke-width="1" transform="translate(72, 84)" stroke="#DDE3E9">
            <rect id="Rectangle" stroke-width="10" fill="#F5FCFF" x="5" y="5" width="423" height="365" rx="45"></rect>
            <path d="M428,46 L428,76.9999996 L5.00000005,76.9999996 L5,46 C5,25.4543515 20.5656456,8.30604189 40.8391128,6.21647755 L45.126162,6.00000036 L388,6 C410.09139,6 428,23.90861 428,46 Z" id="Rectangle-Copy" stroke-width="10" fill="#DDE3E9"></path>
        </g>
        <g id="Artboard-1" transform="translate(392, 140)" xlink:href="#path-3">
            <g id="Group-3" stroke-width="1" transform="translate(5.1163, 327.6206)">
                <mask id="mask-5" fill="white">
                    <use xlink:href="#path-4"></use>
                </mask>
                <g id="Clip-2"></g>
                <path d="M47.639,0.045 L70.22,0.042 L74.012,0.272 C75.01,0.712 75.55,0.038 76.158,0.038 L148.082,-4.97379915e-14 C147.964,17.377 142.097,33.261 131.228,46.579 C117.052,63.948 95.656,73.443 73.271,73.123 C48.222,72.995 25.561,60.081 12.249,38.949 C6.104,29.194 2.592,18.582 0.972,7.154 L1.56319402e-13,3.973 L1.131,3.608 C0.828,4.157 0.583,4.878 1.423,5.634 C2.079,3.961 1.671,2.223 1.227,0.121 L47.639,0.045 Z" id="Fill-1" fill-opacity="0.781537224" fill="#9FC3CA" mask="url(#mask-5)"></path>
            </g>
            <path d="M126.1836,232.049 L132.2186,220.662 C135.3946,214.671 141.7986,203.289 141.9686,198.747 C141.9866,198.263 141.0826,197.394 140.5676,197.554 C137.8896,200.038 136.2066,203.616 135.0996,207.074 C133.4776,212.142 131.3846,216.712 128.9856,221.493 L124.2466,230.933 L109.3426,256.458 C98.7966,274.519 89.1746,287.247 83.6046,308.283 C82.6006,306.612 82.1346,305.13 82.3146,303.052 L83.4406,290.025 C83.8626,289.966 83.1296,290.786 84.1366,291.283 C89.4746,277.68 97.0886,265.296 106.9136,253.548 C99.0116,244.933 96.0386,230.877 102.4726,220.945 L108.7436,211.265 C114.8906,199.709 117.9396,187.053 119.5786,174.058 C120.3276,168.117 121.0516,162.54 122.1616,156.719 C123.5356,149.518 126.4726,143.087 132.4096,138.273 C143.4866,129.291 162.5896,124.066 173.5126,133.31 C183.1116,141.435 181.8946,160.853 180.1366,173.48 C177.4956,192.451 171.5766,210.318 161.6046,226.555 C151.4816,243.037 136.6196,256.807 116.4316,253.478 C115.6476,253.349 115.2686,252.785 115.3096,252.259 C115.3456,251.8 115.6696,251.55 115.9586,251.013 L126.1836,232.049 Z" id="Fill-4" fill="#89C5CC"></path>
            <g id="Group-8" stroke-width="1" transform="translate(0, 263.5415)">
                <mask id="mask-7" fill="white">
                    <use xlink:href="#path-6"></use>
                </mask>
                <g id="Clip-7"></g>
                <path d="M49.7879,9.43596114 C51.9029,8.61796114 53.7369,8.02296114 56.0189,7.83396114 C53.4989,5.63996114 50.6619,6.18796114 47.7819,6.61996114 C45.3969,6.97796114 42.7539,7.46596114 41.7239,10.1799611 C41.3609,11.1369611 43.2299,11.9709611 44.3199,11.5499611 L49.7879,9.43596114 Z M78.1749,38.5439611 C78.7409,39.5149611 77.8279,41.0509611 78.1869,42.2379611 C78.5809,43.5409611 81.6219,43.3399611 82.5409,42.5819611 L81.1599,51.5499611 L81.2749,64.1169611 C80.6659,64.1169611 80.1259,64.7919611 79.1279,64.3509611 L75.3369,64.1209611 L74.2399,46.5269611 C74.6059,46.5869611 74.9279,46.6009611 75.1139,46.5309611 C75.3899,46.4279611 75.5059,45.9749611 75.3479,45.7869611 C75.0529,45.4349611 74.5959,45.4629611 74.1439,45.5899611 C73.0719,38.5589611 71.5489,31.5929611 69.3499,24.4449611 L64.0129,29.7369611 C53.6599,40.0039611 52.7269,50.0839611 52.7549,64.1239611 L6.3439,64.1999611 C6.7869,66.3019611 7.1959,68.0399611 6.5389,69.7129611 C5.6999,68.9569611 5.9449,68.2359611 6.2469,67.6869611 L5.1169,68.0529611 C0.3389,55.4059611 -2.6801,40.3039611 3.3919,27.5389611 C8.9079,15.9429611 18.7379,7.00796114 30.5589,2.21896114 C34.8439,0.482961142 39.2329,0.164961142 43.7929,0.00396114247 C46.0019,-0.0740388575 47.8969,1.02296114 49.8689,1.26196114 C54.2149,1.78896114 58.2359,2.27496114 61.6739,5.24996114 C71.8929,14.0939611 74.7879,25.9269611 77.5729,39.0399611 C77.7469,38.8529611 77.9709,38.6369611 78.1749,38.5439611 L78.1749,38.5439611 Z" id="Fill-6" fill="#69A1AC" mask="url(#mask-7)"></path>
            </g>
            <g id="Group-11" stroke-width="1" transform="translate(20.4483, -0)">
                <mask id="mask-9" fill="white">
                    <use xlink:href="#path-8"></use>
                </mask>
                <g id="Clip-10"></g>
                <path d="M63.9927419,277.0249 L62.8657419,290.0519 C62.6857419,292.1299 63.1527419,293.6119 64.1567419,295.2829 L63.1017419,299.2659 C63.0307419,301.6899 62.4347419,303.9019 62.0927419,306.1239 C61.1737419,306.8819 58.1327419,307.0819 57.7387419,305.7789 C57.3787419,304.5929 58.2927419,303.0569 57.7267419,302.0859 C59.5967419,289.3499 60.3467419,276.7229 60.7857419,263.5269 L61.0077419,218.9669 C61.0857419,203.4159 60.8197419,188.4639 59.7197419,173.0899 C59.1357419,164.9239 58.5367419,156.9609 56.9307419,149.0509 C54.5917419,147.0789 51.7717419,146.6819 49.3827419,145.4189 C42.4167419,141.7359 36.9447419,131.1949 33.4757419,123.6959 C23.7227419,102.6109 16.7297419,80.6989 11.6167419,57.9529 C8.2987419,43.1899 5.1347419,28.8099 3.4437419,13.7539 C3.0517419,10.2639 2.1037419,7.6209 0.0877419047,4.8509 C-0.232258095,3.4899 0.360741905,1.3099 1.2547419,-0.0001 C19.1547419,18.8899 30.0797419,41.3679 38.5207419,65.1399 C45.4067419,84.5339 51.0397419,104.0599 55.8277419,124.3379 C61.9847419,150.4129 64.4937419,176.5979 64.5287419,203.4159 L64.6017419,259.9909 L63.9927419,277.0249 Z" id="Fill-9" fill="#C1DEE2" mask="url(#mask-9)"></path>
            </g>
            <path d="M74.2396,310.0682 C74.4266,309.7412 74.1866,309.4142 74.1436,309.1322 C74.5956,309.0042 75.0526,308.9772 75.3486,309.3282 C75.5056,309.5162 75.3906,309.9702 75.1136,310.0732 C74.9276,310.1432 74.6066,310.1282 74.2396,310.0682" id="Fill-12" fill="#65888C"></path>
        </g>
        <g id="Group" stroke-width="1" transform="translate(107, 114)" fill="#98AAB2">
            <circle id="Oval" cx="14" cy="14" r="14"></circle>
            <circle id="Oval-Copy" cx="59.5" cy="14" r="14"></circle>
            <circle id="Oval-Copy-2" cx="105" cy="14" r="14"></circle>
        </g>
        <g id="Group-Copy" stroke-width="1" transform="translate(84, 217)">
            <g id="Logo_Sofia-Platform_10_Years-ENG-Copy" xlink:href="#path-10">
                <path d="M57.9905154,95.8953002 L57.9905154,15.8559743 L22.8878802,50.9233578 L28.2057259,56.2384502 L50.4516864,34.0017327 L50.4516864,95.8953002 C50.4516864,124.463052 64.8870983,149.668733 86.8618834,164.617321 L86.8618834,155.274793 C69.2699765,141.446677 57.970384,119.999653 57.970384,95.8953002 L57.9905154,95.8953002 Z" id="Fill-1" fill="#0C2F37"></path>
                <path d="M133.534525,12.8457855 C105.867994,12.8457855 81.3796131,26.361505 66.2785591,47.1447953 L66.2785591,61.4705486 C78.8242309,37.0752275 104.227339,20.3607065 133.534525,20.3607065 C175.2642,20.3607065 209.099319,54.1830723 209.099319,95.8953002 C209.099319,119.999653 197.799726,141.446677 180.207275,155.274793 L180.207275,164.617321 C202.182713,149.668733 216.618669,124.484371 216.618669,95.8953002 C216.618669,50.0304388 179.417254,12.8457855 133.534525,12.8457855" id="Fill-2" fill="#0C2F37"></path>
                <path d="M120.511358,36.6604754 C123.523451,39.669794 126.555893,42.7014112 129.567442,45.7119263 C131.851866,47.913169 133.950102,48.8054354 136.900169,45.5463735 C139.807143,42.6394105 142.736534,39.7117805 145.644706,36.8048174 C149.653248,32.4866312 145.124989,32.6115028 143.961503,32.6115028 L122.401533,32.6115028 C119.721989,32.6940616 117.000986,32.902471 120.490682,36.6802721 L120.511358,36.6604754 Z" id="Fill-3" fill="#32AF80"></path>
                <path d="M99.8653542,45.6089181 L99.8653542,58.8330167 C99.7821081,62.6128845 99.4088611,63.0695143 94.9216261,63.0695143 L81.7732092,63.0695143 C76.8507006,63.2141826 78.8662348,60.5776297 80.4649945,58.8330167 C85.3880472,53.9126622 90.3104469,49.0138448 95.2331731,44.0928376 C98.9513886,40.5420461 99.8866826,43.7605356 99.8866826,45.6089181 L99.8653542,45.6089181 Z" id="Fill-4" fill="#1C6495"></path>
                <path d="M167.432976,45.6089181 L167.432976,58.8330167 C167.515569,62.6128845 167.889795,63.0695143 172.376051,63.0695143 L185.524468,63.0695143 C190.447521,63.2141826 188.432095,60.5776297 186.832683,58.8330167 C181.910283,53.9126622 176.98723,49.0138448 172.064831,44.0928376 C168.346289,40.5420461 167.411647,43.7605356 167.411647,45.6089181 L167.432976,45.6089181 Z" id="Fill-5" fill="#32AF80"></path>
                <path d="M74.7318978,100.545353 L129.567442,100.545353 L129.567442,90.5377863 L74.4413527,90.5377863 C67.9818933,90.9530823 68.0644864,100.940309 74.7537703,100.545353 L74.7318978,100.545353 Z" id="Fill-6" fill="#1C6495"></path>
                <path d="M192.337152,100.545353 L137.502261,100.545353 L137.502261,90.5377863 L192.627806,90.5377863 C199.087265,90.9530823 199.004563,100.940309 192.316585,100.545353 L192.337152,100.545353 Z" id="Fill-7" fill="#32AF80"></path>
                <path d="M233.879006,78.1224163 L236.99415,74.2805478 C238.73938,75.7966283 241.127834,76.6270027 243.225962,76.6270027 C245.468818,76.6270027 246.486705,75.7966283 246.486705,74.4677464 C246.486705,73.0148631 245.157815,72.5779213 242.997661,71.7065394 L239.840295,70.3363237 C237.222669,69.3195121 234.834867,67.1382836 234.834867,63.5891237 C234.834867,59.4571572 238.552103,56.1139049 243.786159,56.1139049 C246.756901,56.1139049 249.665072,57.2145807 251.803354,59.1872909 L248.730431,63.0276366 C247.068121,61.8445108 245.344765,61.2007912 243.786159,61.2007912 C241.958445,61.2007912 240.795612,61.9271784 240.795612,63.2141826 C240.795612,64.6475955 242.353674,65.1455591 244.555396,66.0172673 L247.629515,67.2629377 C250.703635,68.4672743 252.531893,70.5225434 252.531893,73.9901234 C252.531893,78.1224163 249.083656,81.7347734 243.122367,81.7347734 C239.777616,81.7347734 236.475848,80.5924375 233.900226,78.1224163 L233.879006,78.1224163 Z" id="Fill-8" fill="#0C2F37"></path>
                <path d="M254.899998,71.8305408 C254.899998,65.5605287 259.344032,61.9691649 264.120507,61.9691649 C268.899484,61.9691649 273.385195,65.5818483 273.385195,71.8305408 C273.385195,78.0804298 268.940291,81.7347734 264.120507,81.7347734 C259.302681,81.7347734 254.899998,78.1017494 254.899998,71.8305408 Z M267.363077,71.8305408 C267.363077,68.7163648 266.34519,66.6609869 264.143032,66.6609869 C261.939677,66.6609869 260.922117,68.7163648 260.922117,71.8305408 C260.922117,74.945587 261.939677,77.0009648 264.143032,77.0009648 C266.34519,77.0009648 267.363077,74.9863769 267.363077,71.8305408 L267.363077,71.8305408 Z" id="Fill-9" fill="#0C2F37"></path>
                <path d="M277.519532,67.0140647 L275.005501,67.0140647 L275.005501,62.6128845 L277.519532,62.4676723 L277.519532,61.6780878 C277.519532,57.6918773 279.388488,54.3076176 284.663786,54.3076176 C286.303244,54.3076176 287.653353,54.660369 288.507143,54.9927798 L287.405356,59.1660802 C286.760716,58.9788815 286.159821,58.8962139 285.515725,58.8962139 C284.226989,58.8962139 283.438817,59.62271 283.438817,61.4705486 L283.438817,62.4257946 L286.781392,62.4257946 L286.781392,67.0140647 L283.438817,67.0140647 L283.438817,81.2781436 L277.560775,81.2781436 L277.560775,67.0140647 L277.519532,67.0140647 Z" id="Fill-10" fill="#0C2F37"></path>
                <path d="M289.711436,56.7157469 C289.711436,54.8889014 291.082221,53.7264425 293.013203,53.7264425 C294.946362,53.7264425 296.316494,54.9101122 296.316494,56.7157469 C296.316494,58.5222518 294.946362,59.7472552 293.013203,59.7472552 C291.082221,59.7472552 289.711436,58.5642382 289.711436,56.7157469 Z M290.085227,62.4044751 L295.943247,62.4044751 L295.943247,81.2569328 L290.085227,81.2569328 L290.085227,62.4044751 Z" id="Fill-11" fill="#0C2F37"></path>
                <path d="M299.183314,76.0044938 C299.183314,72.017957 302.256563,69.859027 309.692668,69.0906533 C309.546742,67.5333478 308.736154,66.6191093 306.805716,66.6191093 C305.289332,66.6191093 303.773274,67.1596032 301.862967,68.2190539 L299.807388,64.4191718 C302.277239,62.9033089 304.977458,61.948498 307.926437,61.948498 C312.78681,61.948498 315.52838,64.6475955 315.52838,70.5645298 L315.52838,81.2569328 L310.751906,81.2569328 L310.337308,79.367434 L310.191709,79.367434 C308.6343,80.7796361 306.928463,81.7135626 304.790835,81.7135626 C301.343795,81.7135626 299.162639,79.1390104 299.162639,75.9831743 L299.183314,76.0044938 Z M309.692668,75.6920972 L309.692668,72.7024666 C305.934081,73.2014091 304.790835,74.2185471 304.790835,75.5475377 C304.790835,76.6482134 305.51698,77.1881635 306.805716,77.1881635 C307.98966,77.1881635 308.780226,76.6270027 309.692668,75.7139607 L309.692668,75.6920972 Z" id="Fill-12" fill="#0C2F37"></path>
                <path d="M235.436959,98.0953464 L244.139275,98.0953464 C249.561151,98.0953464 254.007252,100.02607 254.007252,106.109536 C254.007252,112.192894 249.498471,114.601349 244.2852,114.601349 L241.356353,114.601349 L241.356353,122.802085 L235.436959,122.802085 L235.436959,98.0953464 Z M243.931975,109.930085 C246.860822,109.930085 248.231063,108.55987 248.231063,106.088869 C248.231063,103.618196 246.673655,102.745943 243.786159,102.745943 L241.356353,102.745943 L241.356353,109.930085 L243.931975,109.930085 Z" id="Fill-13" fill="#0C2F37"></path>
                <path d="M256.955578,116.698605 L256.955578,96.2887328 L262.813598,96.2887328 L262.813598,116.926811 C262.813598,118.130821 263.415037,118.52545 263.872836,118.52545 C264.099831,118.52545 264.245757,118.52545 264.557304,118.441586 L265.242968,122.760751 C264.598655,123.031161 263.601661,123.259368 262.315427,123.259368 C258.285012,123.259368 256.955578,120.642829 256.955578,116.698605" id="Fill-14" fill="#0C2F37"></path>
                <path d="M266.71811,117.528979 C266.71811,113.542551 269.79223,111.383295 277.228334,110.615139 C277.082409,109.057833 276.272038,108.144247 274.340838,108.144247 C272.824998,108.144247 271.308288,108.684089 269.398634,109.742887 L267.342402,105.943005 C269.812905,104.427577 272.513125,103.472983 275.46145,103.472983 C280.322476,103.472983 283.063503,106.172081 283.063503,112.089015 L283.063503,122.782071 L278.28692,122.782071 L277.872322,120.891919 L277.726723,120.891919 C276.169314,122.304665 274.46413,123.238048 272.325957,123.238048 C268.878808,123.238048 266.698305,120.66404 266.698305,117.508312 L266.71811,117.528979 Z M277.228334,117.217888 L277.228334,114.228257 C273.469094,114.725895 272.325957,115.743685 272.325957,117.072023 C272.325957,118.172699 273.052646,118.711996 274.340838,118.711996 C275.525327,118.711996 276.315239,118.152032 277.228334,117.237902 L277.228334,117.217888 Z" id="Fill-15" fill="#0C2F37"></path>
                <path d="M287.84248,115.826353 L287.84248,108.538224 L285.308752,108.538224 L285.308752,104.136826 L288.195378,103.95028 L288.880716,98.177579 L293.741742,98.177579 L293.741742,103.95028 L298.186103,103.95028 L298.186103,108.538224 L293.741742,108.538224 L293.741742,115.743685 C293.741742,117.861064 294.73656,118.670119 296.129871,118.670119 C296.731419,118.670119 297.375515,118.587451 297.873576,118.400905 L298.786998,122.490994 C297.789677,122.86463 296.357845,123.259368 294.488563,123.259368 C289.773462,123.259368 287.84248,120.270063 287.84248,115.826353 Z" id="Fill-16" fill="#0C2F37"></path>
                <path d="M302.609461,108.538224 L300.09641,108.538224 L300.09641,104.136826 L302.609461,103.992158 L302.609461,103.202573 C302.609461,99.2163628 304.479288,95.832103 309.754041,95.832103 C311.396002,95.832103 312.746112,96.1848544 313.597507,96.5172652 L312.497462,100.690566 C311.853366,100.503367 311.250077,100.420808 310.605981,100.420808 C309.319747,100.420808 308.50905,101.147195 308.50905,102.995687 L308.50905,103.95028 L311.853366,103.95028 L311.853366,108.538224 L308.50905,108.538224 L308.50905,122.802085 L302.630137,122.802085 L302.630137,108.538224 L302.609461,108.538224 Z" id="Fill-17" fill="#0C2F37"></path>
                <path d="M313.285633,113.356223 C313.285633,107.085667 317.732388,103.49365 322.508862,103.49365 C327.285445,103.49365 331.77083,107.106334 331.77083,113.356223 C331.77083,119.604589 327.326796,123.259368 322.508862,123.259368 C317.689187,123.259368 313.285633,119.626235 313.285633,113.356223 Z M325.748712,113.356223 C325.748712,110.241503 324.730716,108.185472 322.529538,108.185472 C320.327489,108.185472 319.309493,110.241503 319.309493,113.356223 C319.309493,116.470072 320.327489,118.52545 322.529538,118.52545 C324.730716,118.52545 325.748712,116.512059 325.748712,113.356223 L325.748712,113.356223 Z" id="Fill-18" fill="#0C2F37"></path>
                <path d="M335.033423,103.95028 L339.81055,103.95028 L340.226672,107.209995 L340.370095,107.209995 C341.743383,104.67732 343.819637,103.49365 345.729944,103.49365 C346.83173,103.49365 347.476371,103.618196 348.015892,103.867612 L346.913453,108.829301 C346.228115,108.684089 345.813843,108.601747 344.983124,108.601747 C343.569138,108.601747 341.86613,109.514463 340.889485,112.026471 L340.889485,122.802085 L335.033423,122.802085 L335.033423,103.95028 Z" id="Fill-19" fill="#0C2F37"></path>
                <path d="M350.092147,103.95028 L354.86873,103.95028 L355.285396,106.296626 L355.428818,106.296626 C356.945529,104.780546 358.630038,103.49365 361.121217,103.49365 C363.614137,103.49365 365.378845,104.594 366.313813,106.6075 C367.955773,104.947077 369.699479,103.49365 372.192835,103.49365 C376.284515,103.49365 378.112229,106.420628 378.112229,111.113102 L378.112229,122.802085 L372.274884,122.802085 L372.274884,111.880932 C372.274884,109.265264 371.548739,108.476006 370.073379,108.476006 C369.160066,108.476006 368.183748,109.037166 367.040611,110.17885 L367.040611,122.822752 L361.161915,122.822752 L361.161915,111.902143 C361.161915,109.285931 360.478971,108.497869 358.96226,108.497869 C358.088448,108.497869 357.070779,109.057833 355.929492,110.199516 L355.929492,122.843963 L350.092147,122.843963 L350.092147,103.95028 Z" id="Fill-20" fill="#0C2F37"></path>
                <path d="M50.471709,133.910437 L50.471709,170.056959 L57.9905154,170.056959 L57.9905154,147.21927 C55.1242391,143.025302 52.6118402,138.561034 50.471709,133.910437" id="Fill-21" fill="#0C2F37"></path>
                <path d="M87.9836922,140.491758 L99.8653542,140.491758 L99.8653542,132.976184 C99.7821081,129.197186 99.4088611,128.739686 94.9216261,128.739686 L81.7732092,128.739686 C76.8507006,128.595344 78.8662348,131.231897 80.4649945,132.976184 C82.9785905,135.488409 85.4919687,137.979206 87.9836922,140.491758" id="Fill-22" fill="#1C6495"></path>
                <path d="M179.313332,140.491758 C181.826384,137.979206 184.340306,135.488409 186.832683,132.976184 C188.432095,131.231897 190.467652,128.595344 185.524468,128.739686 L172.376051,128.739686 C167.889795,128.739686 167.495546,129.176519 167.432976,132.976184 L167.432976,140.491758 C167.432976,140.491758 179.313985,140.491758 179.313332,140.491758" id="Fill-23" fill="#32AF80"></path>
                <path d="M99.8446787,165.614119 L94.547182,154.256676 L99.0340905,154.256676 L100.530126,158.181213 C100.986292,159.510094 101.423416,160.714431 101.900911,162.084647 L102.004833,162.084647 C102.482328,160.714431 103.001827,159.489428 103.457993,158.181213 L104.933353,154.256676 L109.31634,154.256676 L104.019061,165.614119 L104.019061,171.82213 L99.8446787,171.82213 L99.8446787,165.614119 Z" id="Fill-24" fill="#0C2F37"></path>
                <polygon id="Fill-25" fill="#0C2F37" points="111.43449 154.256676 122.568134 154.256676 122.568134 157.765482 115.651529 157.765482 115.651529 161.068053 121.570923 161.068053 121.570923 164.576966 115.651529 164.576966 115.651529 168.334536 122.837133 168.334536 122.837133 171.84345 111.43449 171.84345"></polygon>
                <path d="M130.148858,154.256676 L135.175833,154.256676 L140.659735,171.82213 L136.234853,171.82213 L135.217184,167.773375 L130.004239,167.773375 L128.986025,171.82213 L124.686284,171.82213 L130.170187,154.256676 L130.148858,154.256676 Z M130.792954,164.53498 L134.386573,164.53498 L134.01202,163.018899 C133.5552,161.295062 133.099034,159.21967 132.641888,157.371505 L132.538184,157.371505 C132.101713,159.199003 131.644894,161.274939 131.187748,163.018899 L130.814283,164.53498 L130.792954,164.53498 Z" id="Fill-26" fill="#0C2F37"></path>
                <path d="M142.777885,154.256676 L149.237453,154.256676 C152.95556,154.256676 156.091379,155.544333 156.091379,159.800845 C156.091379,162.355057 154.887848,164.015479 153.058938,164.866412 L156.964103,171.82213 L152.270222,171.82213 L149.030481,165.635438 L146.972725,165.635438 L146.972725,171.82213 L142.756666,171.82213 L142.756666,154.256676 L142.777885,154.256676 Z M148.904578,162.333846 C150.898784,162.333846 151.979024,161.461485 151.979024,159.800845 C151.979024,158.140423 150.898784,157.579262 148.904578,157.579262 L146.994924,157.579262 L146.994924,162.333846 L148.904578,162.333846 Z" id="Fill-27" fill="#0C2F37"></path>
                <path d="M158.376783,169.579662 L160.598964,166.860442 C161.845152,167.939907 163.549139,168.541749 165.023846,168.541749 C166.622932,168.541749 167.349621,167.939907 167.349621,167.005001 C167.349621,165.98819 166.394631,165.656105 164.857245,165.032944 L162.613192,164.057357 C160.744889,163.330317 159.041555,161.79357 159.041555,159.260895 C159.041555,156.312054 161.679857,153.945912 165.418095,153.945912 C167.515569,153.945912 169.613805,154.735496 171.10984,156.125835 L168.928358,158.846252 C167.74387,158.014681 166.51901,157.558595 165.418095,157.558595 C164.129903,157.558595 163.278616,158.077878 163.278616,158.990485 C163.278616,160.008602 164.379532,160.36168 165.95816,160.984188 L168.13899,161.876237 C170.319819,162.748489 171.628034,164.202025 171.628034,166.652032 C171.628034,169.600329 169.178205,172.154214 164.939947,172.154214 C162.572494,172.154214 160.203844,171.344833 158.376783,169.600329 L158.376783,169.579662 Z" id="Fill-28" fill="#0C2F37"></path>
            </g>
        </g>
    </g>
</svg>