<svg xmlns="http://www.w3.org/2000/svg" xmlns:xlink="http://www.w3.org/1999/xlink" width="615" height="552" viewBox="0 0 615 552">
  <defs>
    <path id="screen_modul_3_g1-a" d="M49.7882616,30.6740284 C55.675604,30.6267595 61.0075368,34.1459296 63.2835347,39.5771271 C65.5595326,45.0083246 64.3234506,51.2761817 60.1614233,55.4405725 C55.9970326,59.6049632 49.7291754,60.8386817 44.2979779,58.5626838 C38.864417,56.2890494 35.3476103,50.9571166 35.3925158,45.0674107 C35.4563288,37.1427784 41.8636292,30.7354779 49.7882616,30.6740284 Z"/>
    <path id="screen_modul_3_g1-b" d="M107.3651,30.6740284 C113.252442,30.6267595 118.586738,34.1459296 120.860373,39.5771271 C123.136371,45.0083246 121.900289,51.2761817 117.738262,55.4405725 C113.573871,59.6049632 107.306014,60.8386817 101.874816,58.5626838 C96.4412553,56.2890494 92.9244485,50.9571166 92.969354,45.0674107 C93.033167,37.1427784 99.4404674,30.7354779 107.3651,30.6740284 Z"/>
    <path id="screen_modul_3_g1-c" d="M164.941702,30.6740284 C170.829044,30.6267595 176.16334,34.1459296 178.436975,39.5771271 C180.712973,45.0083246 179.476891,51.2761817 175.314863,55.4405725 C171.150473,59.6049632 164.882616,60.8386817 159.451418,58.5626838 C154.020221,56.2890494 150.50105,50.9571166 150.545956,45.0674107 C150.609769,37.1427784 157.017069,30.7354779 164.941702,30.6740284 Z"/>
    <path id="screen_modul_3_g1-d" d="M207.907661,65.9373494 C207.907661,70.8240713 203.120884,74.7855422 197.216095,74.7855422 L170.316313,74.3997805 L157.584917,94.3652864 L139.909631,74.142606 L111.683565,74.7855422 C105.778776,74.7855422 100.991998,70.8240713 100.991998,65.9373494 L100.991998,12.8481928 C100.991998,7.96147084 105.778776,4 111.683565,4 L197.216095,4 C203.120884,4 207.907661,7.96147084 207.907661,12.8481928 L207.907661,65.9373494 Z"/>
    <path id="screen_modul_3_g1-e" d="M72.1148166,0.00990886178 L99.049046,1.89333365 C101.252804,2.0474354 102.914378,3.9588581 102.760276,6.16261575 L102.040802,16.4072315 C101.020857,80.204214 137.897478,96.4677813 129.68645,122.049128 C122.907949,143.167456 58.0265186,165.869569 46.7991874,145.168623 C42.2539326,136.788086 40.1920457,126.652196 39.9585257,115.632311 C37.0897958,124.099324 34.819951,131.387828 33.1503143,137.498362 C30.2703714,148.038372 19.1054472,149.713754 19.1054472,153.774145 L19.1054472,153.774145 L4.39581739,149.713754 C5.39353692,144.197545 -1.54093801,141.51148 0.318375519,129.187788 C8.6490867,73.9711065 31.0320292,33.9460774 67.4672029,9.11270019 L67.8455346,3.72113917 C67.9996363,1.51738152 69.911059,-0.144192885 72.1148166,0.00990886178 Z"/>
    <linearGradient id="screen_modul_3_g1-g" x1="50%" x2="50%" y1="0%" y2="100%">
      <stop offset="0%" stop-color="#FFCB45"/>
      <stop offset="100%" stop-color="#FF9B21"/>
    </linearGradient>
  </defs>
  <g fill="none" fill-rule="evenodd" transform="translate(-4 -44)">
    <g fill="#F2F2F2" transform="rotate(77 289.716 364.543)">
      <path d="M216.699837,137.131144 C216.937837,126.745144 212.682837,117.173144 207.972837,108.139144 C198.803837,90.5521436 194.217837,80.0301436 195.699837,59.1431436 C196.571837,46.8591436 197.613837,33.8801436 191.343837,22.7251436 C186.778837,14.6021436 177.202837,5.91214364 167.090837,7.38114364 C151.083837,11.0271436 142.147837,26.2791436 138.721837,41.4231436 C134.475837,60.1931436 139.337837,74.1971436 153.511837,86.2241436 C161.498837,92.9991436 166.003837,99.9781436 168.181837,110.296144 C169.924837,118.547144 169.429837,128.009144 172.410837,135.944144 C176.867837,147.806144 184.914837,155.050144 197.018837,157.253144 C192.650837,133.741144 186.514837,109.447144 176.675837,87.6491436 C175.792837,85.4921436 169.445837,76.2721436 172.086837,73.9431436 C174.995837,71.3791436 179.796837,86.1211436 179.758837,86.0291436 C182.547837,92.5801436 184.900837,99.3431436 187.162837,106.134144 C187.150837,106.136144 187.137837,106.135144 187.124837,106.137144 C189.459837,113.110144 191.734837,120.155144 193.907837,127.246144 C194.751837,130.221144 195.541837,133.213144 196.243837,136.245144 C197.273837,140.694144 197.395837,152.411144 200.316837,155.890144 C200.941837,156.634144 201.577837,157.143144 202.218837,157.476144 C203.388837,162.382144 204.480837,167.299144 205.437837,172.226144 C207.936837,185.094144 209.381837,198.293144 207.761837,211.378144 C207.288837,215.197144 202.429837,228.479144 204.039837,231.870144 C206.982837,238.072144 208.637837,228.508144 209.265837,225.663144 C214.458837,202.101144 212.581837,179.980144 206.915837,156.912144 C212.124837,153.324144 216.602837,141.339144 216.699837,137.131144" transform="rotate(-18 176.975 120.57)"/>
      <path d="M112.85853,47.6592499 C105.257019,48.7711714 98.0815364,58.3788863 94.541036,64.7847961 C90.1599315,72.7114052 87.104439,81.7556851 84.8025125,90.463054 C81.0100599,104.806497 80.4975663,120.726407 80.4506116,135.416535 C80.4448854,137.186755 80.0755464,158.810007 82.6036573,158.455273 C85.1082908,158.103988 83.5221374,135.659157 83.7357241,131.011394 C84.1903832,121.09264 83.510685,111.31072 85.8372342,101.517877 C88.2456677,91.3777733 92.6617019,81.8218025 98.2418696,73.0632645 C98.9582154,71.9392694 100.473937,67.7600773 102.195801,68.7253907 C103.879872,69.6694317 99.2147485,75.2365134 98.5522288,76.3185384 C95.8168301,80.7869221 93.4416084,85.5186253 91.4746637,90.3796886 C87.7892908,99.4872113 85.8744544,109.017885 85.9397329,118.831426 C91.724898,119.719698 96.7650864,116.33219 98.7056906,110.687492 C100.382318,105.808606 100.546087,100.133437 102.450616,95.5201697 C103.762485,92.3430868 105.849107,89.6449235 108.400695,87.3635871 C115.131826,81.3463324 122.159001,79.8411563 124.165456,69.8545603 C125.738439,62.0256899 123.785237,46.0684087 112.85853,47.6592499" transform="scale(-1 1) rotate(58 0 -81.975)"/>
      <path d="M29.3474833,19.5318688 C40.3855359,18.7268281 52.7123813,27.5363026 58.0367516,36.7038567 C62.3289562,44.0953153 61.6058745,53.801266 58.9547464,61.6539884 C57.1794421,66.9112719 53.3048352,74.4069364 46.8433856,74.4799826 C38.7593736,74.571418 38.3695472,64.6871938 38.2132052,58.9088814 C38.0054349,51.2267704 37.0241833,44.5346142 30.9052461,39.298274 C29.4791397,38.0784535 27.9203484,37.0052361 26.4798422,35.8022724 C24.2241977,33.9194171 21.7314687,31.9916103 21.4408989,28.8766749 C21.0397583,24.5792083 23.4918589,23.805838 27.235838,24.6042381 C27.874063,24.7401143 34.3031128,27.5940244 33.3511752,25.3382758 C33.0606054,24.6491896 31.9991257,24.1031309 30.6594189,23.69397 C30.3344082,23.6590113 30.0035304,23.6235273 29.6697626,23.5881367 L28.9992553,23.5176634 C25.97257,23.2027444 22.8725338,22.9288046 21.8692965,23.1468897 C9.04205394,25.9308185 4.04785328,43.5083916 2.72151783,54.676288 C2.57135733,55.9408425 2.45133783,57.209724 2.34693962,58.4805387 L-0.00487853348,58.481474 C0.159885181,55.496586 0.374472596,52.5165522 0.878842417,49.5650969 C2.76934614,38.5029387 8.6805131,22.2555217 21.6450692,20.4600153 C22.1233523,20.3930988 23.8827139,20.381861 26.013902,20.5054776 C27.0239535,19.9471594 28.1553757,19.6095123 29.3474833,19.5318688 Z" transform="matrix(-1 0 0 1 61.095 0)"/>
    </g>
    <g transform="translate(0 214)">
      <path fill="#DDE3E9" d="M9.93785602,35.7363701 C28.6043474,67.0518486 50.3448762,97.3738414 63.400835,131.612719 C62.8747124,127.576998 62.316848,123.545457 61.6924335,119.519653 C58.3796628,98.1788894 54.2624276,76.9938487 49.9359142,55.8347788 C47.7325965,45.061608 45.4023236,34.3274793 43.0122847,23.5942683 C41.7268475,17.8294571 40.457171,12.0611334 39.145247,6.30181171 C38.8274703,4.90590411 38.5544351,2.4694293 38.1565942,0 C50.8449133,41.636678 63.0807311,83.3047517 72.0307975,125.94239 C73.204927,131.538126 74.2047864,137.123918 75.0238081,142.699993 C75.3039851,141.427955 75.5795646,140.155702 75.8811982,138.88715 C79.5025613,123.679846 84.9347228,108.59358 91.4026624,94.3744557 C94.494721,87.5745292 98.0463864,80.9235176 102.228151,74.7261293 C104.835821,70.8630236 110.985519,66.2708832 113.364361,62.3144999 C100.354578,86.1759773 95.6569872,116.031633 88.1451337,141.973334 C86.3116359,148.30385 84.4667482,154.62409 82.659084,160.955464 C93.9872772,138.237255 111.563216,119.571486 136,111.482566 C106.420215,131.026943 88.6779699,165.254031 76.7221336,200.259757 C76.682738,200.674905 76.6358989,201.090058 76.5954089,201.505863 C80.1135643,194.828835 84.5452103,188.789483 90.5514934,184.559607 C103.406592,175.504479 117.667098,178.142392 130.137007,185.909854 C120.350227,179.688703 102.662664,185.353659 94.4280037,191.676694 C88.5328799,196.203004 83.4948291,202.275393 79.119821,208.199601 C78.071517,209.619676 76.6413193,211.276578 75.1303997,213.044484 C73.0120284,226.795282 69.5599117,240.451838 64.6724606,254 C65.4790179,250.11126 64.8958605,243.891877 65.11953,240.993318 C65.1438759,240.679499 65.1636243,240.365464 65.1877517,240.052521 C64.4448288,243.018848 63.7270637,245.951459 63.0359813,248.836783 C64.4097546,243.330925 65.1563919,237.583268 65.7392402,231.776207 C65.8893549,229.280566 66.0357479,226.784927 66.1904602,224.289502 C66.141426,219.553405 65.9463583,214.798592 65.6164284,210.036217 C64.4465561,205.407706 63.1367171,201.041891 62.0564998,197.41118 C58.158506,184.310429 52.4441742,171.759576 45.4108456,160.050843 C38.9937018,149.366014 31.3123836,139.687606 22.4447835,130.934599 C17.6643455,126.217405 12.6613846,121.724669 7.7288832,117.169517 C5.94526254,115.52278 2.75721952,111.473853 0,109.363232 C20.0804874,120.433766 40.7488532,132.410494 55.3976085,150.247606 C53.6802099,143.652644 51.8148695,137.151008 49.841671,130.779652 C39.8311473,98.4544622 27.1913357,64.9525261 9.93785602,35.7363701 Z"/>
      <path fill="#C5CFD6" d="M30,213 C30,248.898509 32.8428117,278 71,278 C109.157188,278 112,248.898509 112,213"/>
    </g>
    <g transform="translate(25 50)">
      <g transform="translate(68.5)">
        <path fill="#F5FCFF" stroke="#DDE3E9" stroke-width="11.029" d="M427.783613,81.144958 L427.783613,334.033613 C427.783613,343.823325 423.815549,352.686245 417.400057,359.101737 C410.984564,365.51723 402.121644,369.485294 392.331933,369.485294 L392.331933,369.485294 L40.9663866,369.485294 C31.1766753,369.485294 22.3137551,365.51723 15.8982627,359.101737 C9.4827704,352.686245 5.51470588,343.823325 5.51470588,334.033613 L5.51470588,334.033613 L5.51470588,81.144958 L427.783613,81.144958 Z"/>
        <path fill="#C5CFD6" stroke="#C5CFD6" stroke-width="11.029" d="M427.783613,5.51470588 L427.783613,45.6932773 C427.783613,55.4829886 423.815549,64.3459088 417.400057,70.7614011 C410.984564,77.1768935 402.121644,81.144958 392.331933,81.144958 L392.331933,81.144958 L40.9663866,81.144958 C31.1766753,81.144958 22.3137551,77.1768935 15.8982627,70.7614011 C9.4827704,64.3459088 5.51470588,55.4829886 5.51470588,45.6932773 L5.51470588,45.6932773 L5.51470588,5.51470588 L427.783613,5.51470588 Z" transform="rotate(-180 216.65 43.33)"/>
        <use fill="#D8D8D8" xlink:href="#screen_modul_3_g1-a"/>
        <use fill="#98AAB2" xlink:href="#screen_modul_3_g1-a"/>
        <use fill="#D8D8D8" xlink:href="#screen_modul_3_g1-b"/>
        <use fill="#98AAB2" xlink:href="#screen_modul_3_g1-b"/>
        <use fill="#D8D8D8" xlink:href="#screen_modul_3_g1-c"/>
        <use fill="#98AAB2" xlink:href="#screen_modul_3_g1-c"/>
        <g stroke="#DDE3E9" stroke-linecap="round" stroke-linejoin="round" transform="translate(76.282 204.884)">
          <path stroke-width="11.06" d="M93.1640964,26.9174442 C83.5651759,10.2628043 65.804855,6.54897823e-15 46.5820482,6.54897823e-15 C27.3592414,6.54897823e-15 9.59892048,10.2628043 -6.54897823e-15,26.9174442" transform="translate(0 88.862)"/>
          <g transform="translate(6.095)">
            <path stroke-width="9.217" d="M10.5695837,29.5757525 C26.0228272,45.5006206 49.6881545,50.2627548 70.0982584,41.5546079" transform="rotate(-23 40.334 37.717)"/>
            <path stroke-width="11.06" d="M10.1893262,42.3943607 C10.1893262,60.2105344 24.6321886,74.6533969 42.4483623,74.6533969 C60.264536,74.6533969 74.7073985,60.2105344 74.7073985,42.3943607 C74.7073985,24.578187 60.264536,10.1353246 42.4483623,10.1353246 C24.6321886,10.1353246 10.1893262,24.578187 10.1893262,42.3943607 Z" transform="rotate(-23 42.448 42.394)"/>
          </g>
        </g>
        <g stroke="#DDE3E9" stroke-linecap="round" stroke-linejoin="round" transform="translate(166.76 183.607)">
          <path stroke-width="10.165" d="M85.6268772,24.7397525 C76.8045345,9.4325166 60.4810701,0 42.8134386,0 C25.1458071,0 8.82234269,9.4325166 0,24.7397525" transform="translate(0 71.068)"/>
          <g transform="translate(17.845)">
            <path stroke-width="8.471" d="M1.84337349,16.5903614 C16.1991943,31.0135432 38.1839121,35.3266167 57.1445783,27.4396324"/>
            <path stroke-width="10.165" d="M0,29.4939759 C0,45.783049 13.2049028,58.9879518 29.4939759,58.9879518 C45.783049,58.9879518 58.9879518,45.783049 58.9879518,29.4939759 C58.9879518,13.2049028 45.783049,0 29.4939759,0 C13.2049028,0 0,13.2049028 0,29.4939759 Z"/>
          </g>
        </g>
        <g stroke="#DDE3E9" stroke-linecap="round" stroke-linejoin="round" transform="translate(258.088 214.775)">
          <path stroke-width="11.06" d="M93.1640964,105.888391 C83.5651759,89.233751 65.804855,78.9709467 46.5820482,78.9709467 C27.3592414,78.9709467 9.59892048,89.233751 0,105.888391"/>
          <g transform="rotate(-1 99.903 -437.836)">
            <path stroke-width="11.06" d="M76.2859505,64.5761987 C72.1216022,57.7431483 70.0452933,49.8396844 70.3121635,41.8423761 L70.3121635,32.5429758 C70.3121635,14.8767545 55.9891515,0.553742497 38.3229302,0.553742497 C20.6537763,0.553742497 6.33076427,14.8767545 6.33076427,32.5429758 L6.33076427,41.8423761 C6.59763448,49.8396844 4.5213256,57.7431483 0.356977301,64.5761987"/>
            <path stroke-width="9.217" d="M6.33223059,37.8284722 C18.6141254,37.8079438 30.2889639,32.4558764 38.3214639,23.1623413 C46.3539639,32.4558764 58.0288023,37.8079438 70.3106972,37.8284722"/>
            <path stroke-width="11.06" d="M10.2414392,37.6410766 C11.6842979,52.066731 23.8283587,63.0553318 38.3273292,63.0553318 C52.8262996,63.0553318 64.9674277,52.066731 66.4132191,37.6410766"/>
          </g>
        </g>
        <g stroke-linecap="round" stroke-linejoin="round" transform="translate(59.53 73.687)">
          <path fill="#FFF" stroke="#DDE3E9" stroke-width="9.217" d="M112.915663,99.8788165 C112.915663,104.969152 108.128885,109.095684 102.224096,109.095684 L80.8409639,109.095684 L77.633162,130.521967 L54.1120482,109.095684 L16.6915663,109.095684 C10.7867773,109.095684 6,104.969152 6,99.8788165 L6,44.5776117 C6,39.4872763 10.7867773,35.3607442 16.6915663,35.3607442 L102.224096,35.3607442 C108.128885,35.3607442 112.915663,39.4872763 112.915663,44.5776117 L112.915663,99.8788165 Z" transform="rotate(-7 59.458 82.941)"/>
          <path fill="#FFF" stroke="#DDE3E9" stroke-width="9.217" d="M302.036496,101.702873 C302.036496,106.793209 297.249719,110.919741 291.34493,110.919741 L269.961798,110.919741 L266.67985,131.575157 L243.232882,110.919741 L205.8124,110.919741 C199.907611,110.919741 195.120834,106.793209 195.120834,101.702873 L195.120834,46.4016687 C195.120834,41.3113333 199.907611,37.1848012 205.8124,37.1848012 L291.34493,37.1848012 C297.249719,37.1848012 302.036496,41.3113333 302.036496,46.4016687 L302.036496,101.702873 Z" transform="scale(-1 1) rotate(-4 0 7202.742)"/>
          <g transform="scale(-1 1) rotate(-4 0 4472.047)">
            <use fill="#D8D8D8" xlink:href="#screen_modul_3_g1-d"/>
            <use fill="#FFF" stroke="#DDE3E9" stroke-width="9.217" xlink:href="#screen_modul_3_g1-d"/>
          </g>
        </g>
        <g stroke="#A9CCDC" stroke-linecap="round" stroke-linejoin="round" stroke-width="6.152" transform="rotate(5 -926.653 2160.673)">
          <path d="M47.1926964,16.2263253 C47.1946045,8.54404634 41.5277034,2.03843578 33.9177609,0.986681041 C26.3078183,-0.0650736959 19.0888023,4.65960038 17.0069368,12.0544127 C14.9250713,19.4492251 18.6188641,27.2461881 25.6597892,30.3191 L25.6597892,37.7715364 L37.9643072,37.7715364 L37.9643072,30.3191 C43.5703126,27.8759358 47.1943812,22.3415804 47.1926964,16.2263253 L47.1926964,16.2263253 Z"/>
          <line x1="25.66" x2="37.964" y1="47" y2="47"/>
          <line x1="57.287" x2="63.439" y1="18.892" y2="18.892"/>
          <line x1="56.011" x2="60.363" y1="32.997" y2="37.349"/>
          <line x1="56.011" x2="60.363" y1="4.783" y2=".436"/>
          <line x1="6.338" x2=".185" y1="18.892" y2="18.892"/>
          <line x1="7.613" x2="3.261" y1="32.997" y2="37.349"/>
          <line x1="7.613" x2="3.261" y1="4.783" y2=".436"/>
        </g>
        <path fill="#A9CCDC" fill-rule="nonzero" d="M285.619048,158 C287.853968,158 289.68254,157.230769 291.104762,155.692308 C292.526984,154.153846 293.238095,152.25641 293.238095,150 C293.238095,147.74359 292.526984,145.846154 291.104762,144.307692 C289.68254,142.769231 287.853968,142 285.619048,142 C283.384127,142 281.555556,142.769231 280.133333,144.307692 C278.711111,145.846154 278,147.74359 278,150 C278,152.25641 278.711111,154.153846 280.133333,155.692308 C281.555556,157.230769 283.384127,158 285.619048,158 Z M310,158 C312.234921,158 314.063492,157.230769 315.485714,155.692308 C316.907937,154.153846 317.619048,152.25641 317.619048,150 C317.619048,147.74359 316.907937,145.846154 315.485714,144.307692 C314.063492,142.769231 312.234921,142 310,142 C307.765079,142 305.936508,142.769231 304.514286,144.307692 C303.092063,145.846154 302.380952,147.74359 302.380952,150 C302.380952,152.25641 303.092063,154.153846 304.514286,155.692308 C305.936508,157.230769 307.765079,158 310,158 Z M334.380952,158 C336.615873,158 338.444444,157.230769 339.866667,155.692308 C341.288889,154.153846 342,152.25641 342,150 C342,147.74359 341.288889,145.846154 339.866667,144.307692 C338.444444,142.769231 336.615873,142 334.380952,142 C332.146032,142 330.31746,142.769231 328.895238,144.307692 C327.473016,145.846154 326.761905,147.74359 326.761905,150 C326.761905,152.25641 327.473016,154.153846 328.895238,155.692308 C330.31746,157.230769 332.146032,158 334.380952,158 Z" transform="rotate(4 310 150)"/>
        <path fill="#A9CCDC" fill-rule="nonzero" d="M92.7380952,156 C95.0079365,156 96.8650794,155.230769 98.3095238,153.692308 C99.7539683,152.153846 100.47619,150.25641 100.47619,148 C100.47619,145.74359 99.7539683,143.846154 98.3095238,142.307692 C96.8650794,140.769231 95.0079365,140 92.7380952,140 C90.468254,140 88.6111111,140.769231 87.1666667,142.307692 C85.7222222,143.846154 85,145.74359 85,148 C85,150.25641 85.7222222,152.153846 87.1666667,153.692308 C88.6111111,155.230769 90.468254,156 92.7380952,156 Z M117.5,156 C119.769841,156 121.626984,155.230769 123.071429,153.692308 C124.515873,152.153846 125.238095,150.25641 125.238095,148 C125.238095,145.74359 124.515873,143.846154 123.071429,142.307692 C121.626984,140.769231 119.769841,140 117.5,140 C115.230159,140 113.373016,140.769231 111.928571,142.307692 C110.484127,143.846154 109.761905,145.74359 109.761905,148 C109.761905,150.25641 110.484127,152.153846 111.928571,153.692308 C113.373016,155.230769 115.230159,156 117.5,156 Z M142.261905,156 C144.531746,156 146.388889,155.230769 147.833333,153.692308 C149.277778,152.153846 150,150.25641 150,148 C150,145.74359 149.277778,143.846154 147.833333,142.307692 C146.388889,140.769231 144.531746,140 142.261905,140 C139.992063,140 138.134921,140.769231 136.690476,142.307692 C135.246032,143.846154 134.52381,145.74359 134.52381,148 C134.52381,150.25641 135.246032,152.153846 136.690476,153.692308 C138.134921,155.230769 139.992063,156 142.261905,156 Z" transform="rotate(-6 117.5 148)"/>
      </g>
      <g transform="translate(457 102)">
        <path fill="#69A1AC" d="M120.980481,0.659775373 C117.569531,-0.0853801391 113.803318,-0.0283494469 110.328853,0.0331207603 C91.6953105,0.286514614 73.3974882,9.10851385 61.4888276,23.2046569 C51.3509016,35.2050073 48.5632336,50.1248511 46.5604261,65.2069079 C46.3618554,66.7043905 46.2767038,68.192311 46.1646806,69.6928671 C46.1406008,70.0149026 46.1046557,70.3021051 46.0662677,70.572574 C45.2786154,71.2767494 44.8654207,72.0977182 45.3316606,72.9996227 C43.5965223,76.796774 42.1287042,80.6902286 40.8692283,84.7059407 C37.1623418,96.5259785 33.3915917,108.570724 35.7144157,121 C36.2570826,114.160073 37.3986026,107.165788 38.7638201,100.438216 C38.842341,100.051978 38.9271436,99.6688136 39.0154361,99.2870153 C39.0245096,99.2467182 39.0328852,99.206421 39.0419587,99.1664654 C39.5252987,97.106189 40.1534663,95.1077242 40.9173878,93.1406776 C40.9254144,93.119163 40.933092,93.09799 40.9414675,93.0768169 C41.0423233,92.817959 41.1494608,92.5604671 41.2552023,92.3029753 C41.474014,91.769892 41.6987584,91.2378332 41.9371131,90.7085064 C42.0177279,90.5281938 42.0952019,90.3461737 42.1695351,90.1627876 C43.2817406,87.4369254 43.7514703,84.365464 44.7478138,81.545006 C44.9861685,80.9036668 45.2353416,80.2647182 45.4963801,79.6291846 C45.5117353,79.5919609 45.5274395,79.5547373 45.5431437,79.5175137 C46.2487852,77.8072759 47.028411,76.1178697 47.8527064,74.4462216 C48.3007992,74.1095014 48.5402008,73.2741896 48.9265239,72.5150326 C49.0064407,72.3654551 49.6311184,71.3679302 49.8171258,70.7931838 C50.3025597,69.8540556 50.7862487,68.9145859 51.2751725,67.9771653 C51.2605152,67.9826293 51.245858,67.9880933 51.2312007,67.9935573 C51.7204735,67.0933603 52.2111421,66.1969198 52.6979719,65.3042358 C52.8051094,65.1082141 52.9132938,64.9118509 53.0211292,64.7151463 C53.1959692,64.4019897 53.3708092,64.0891747 53.5453002,63.7770426 C55.1774888,60.8561833 56.9080904,57.9937206 58.7053475,55.1667741 C59.3467763,54.1579797 60.8791561,52.7113808 61.1729989,51.5786215 C61.1838174,51.5362754 61.1862603,51.4973442 61.1928909,51.4567056 C65.0927644,45.9793686 69.5824173,40.9272006 74.9665111,36.9241241 C74.3156597,37.6276165 72.9322952,40.015051 72.5665621,40.4876886 C71.4473769,41.9349705 70.2322217,43.2821925 69.0125298,44.6458066 C66.8282517,47.0885644 64.6956229,49.6088429 62.8006508,52.2739178 C59.3352599,57.1478223 56.3455314,62.2771696 53.5194755,67.5096502 C53.4926039,67.5403853 53.4632894,67.5694129 53.4378137,67.600831 C52.0174571,69.3517074 51.1233653,71.9979998 50.1008482,74.0009041 C54.147294,72.1267458 58.6215918,70.9058791 62.7744772,69.241744 C66.9158461,67.5827314 70.9444939,65.7352102 74.8338979,63.5656534 C80.0033678,60.6823592 85.3658246,57.4268287 90.2501762,53.7427143 C95.8474979,50.2706721 100.551077,45.491705 104.702915,40.4767606 C109.615185,34.5431781 114.117053,28.5576874 116.901231,21.3530376 C118.268891,17.8126952 119.344803,14.1210677 119.982742,10.3864112 C120.01066,10.2235151 120.046256,10.046959 120.084993,9.8635729 C120.73759,8.57372305 121.321087,7.2548456 121.810709,5.90557455 C122.588241,3.76572834 124.424584,1.41176091 120.980481,0.659775373"/>
        <path fill="#C1DEE2" d="M127.985552,66.3755429 C124.041234,63.700897 118.796053,63 114.075943,63 C95.6400811,63 78.3112274,69.8400486 63.3411361,80.0318686 C55.1382704,85.6163535 47.8001859,92.7279727 41.3217129,100.132413 C37.5823286,104.406588 34.2480105,109.030491 31.8874019,114.173043 C30.2944619,117.644032 29.2011157,121.260531 28.4600331,124.990844 C27.5568501,129.53695 26.8393994,134.17526 26.5148296,138.797002 C26.3870694,140.616957 25.3295404,150.27428 28.3555356,150.437799 C28.3381809,150.675873 28.3341192,150.902782 28.3525816,151.10628 C21.7821656,161.379859 17.7226426,173.420088 13.9581494,184.835416 C10.6829112,194.768992 7.76436737,204.786488 5.86975096,215.062949 C3.37547423,228.592494 1.7371166,242.325536 0.958001292,256.049575 C0.790731513,258.999033 0.675895087,261.949932 0.576936366,264.903351 C0.493116852,267.422403 0.408189591,269.941454 0.325477824,272.460505 C0.233165584,275.283542 -0.263843516,278.533745 0.185163219,281.340214 C0.575828619,283.784349 2.69125591,283.414451 2.7846759,280.982202 C2.89766608,278.04499 2.87920363,275.102015 3.00770227,272.162642 C3.17866454,268.261606 3.35479629,264.360571 3.545698,260.460615 C4.87462501,233.36875 9.86022447,206.675236 19.0611701,181.084213 C22.7846766,170.728154 27.0513483,160.9246 32.5350646,151.344715 C37.3563483,142.921705 43.1557724,134.767384 49.0836952,127.172773 C54.845456,119.792465 60.8357819,112.582879 67.8954528,106.329912 C73.6243504,101.255793 79.9259531,96.8353874 86.4036876,92.7222099 C94.631293,87.4982583 102.843021,82.4010877 111.755213,78.3909197 C116.387811,76.3065976 121.10792,74.4405404 125.776704,72.4404988 C126.616746,72.0806858 127.517344,71.731678 128.325261,71.3149577 C131.020409,69.9250494 130.133103,67.831723 127.985552,66.3755429"/>
        <path fill="#89C5CC" d="M68.1822003,161 C60.7049106,161 54.05129,161.971586 47.1617895,164.943116 C41.2147665,167.507723 35.7950863,170.902835 30.5331226,174.599146 C23.1315646,179.797709 17.3016131,185.848195 13.220786,193.86497 C10.782781,198.65423 8.99440119,205.431196 10.631665,210.654916 C12.5603917,216.807388 17.8560525,221.93864 24.8306644,220.85453 C29.14355,220.184822 33.0972312,217.329896 36.3752328,214.642906 C40.2966064,211.428309 43.4356508,207.563042 46.0275509,203.270114 C50.2556727,196.267419 52.7402283,188.35093 56.3319259,181.033439 C58.0362366,177.560477 59.6832274,174.062699 61.7245094,170.762094 C62.735076,169.1276 63.8109525,167.508743 65.3439984,166.29409 C66.1641936,165.64444 69.6224922,164.519875 68.2999665,163.060796 C87.6904088,163.315421 104.868304,178.207408 108.590622,196.640687 C108.93732,198.358811 109.208287,200.090872 109.494539,201.819534 C109.675183,202.911123 109.60223,206.936508 110.578058,207.633752 C112.730158,209.17204 111.825546,204.499044 111.73314,203.826277 C111.494481,202.087417 111.239842,200.349916 110.972696,198.615475 C109.519203,189.181436 105.319221,180.411324 98.3150803,173.683312 C90.3055843,165.989832 79.4988788,161 68.1822003,161" transform="matrix(-1 0 0 1 122 0)"/>
      </g>
      <g transform="matrix(-1 0 0 1 137 102)">
        <path fill="#69A1AC" d="M120.980481,0.659775373 C117.569531,-0.0853801391 113.803318,-0.0283494469 110.328853,0.0331207603 C91.6953105,0.286514614 73.3974882,9.10851385 61.4888276,23.2046569 C51.3509016,35.2050073 48.5632336,50.1248511 46.5604261,65.2069079 C46.3618554,66.7043905 46.2767038,68.192311 46.1646806,69.6928671 C46.1406008,70.0149026 46.1046557,70.3021051 46.0662677,70.572574 C45.2786154,71.2767494 44.8654207,72.0977182 45.3316606,72.9996227 C43.5965223,76.796774 42.1287042,80.6902286 40.8692283,84.7059407 C37.1623418,96.5259785 33.3915917,108.570724 35.7144157,121 C36.2570826,114.160073 37.3986026,107.165788 38.7638201,100.438216 C38.842341,100.051978 38.9271436,99.6688136 39.0154361,99.2870153 C39.0245096,99.2467182 39.0328852,99.206421 39.0419587,99.1664654 C39.5252987,97.106189 40.1534663,95.1077242 40.9173878,93.1406776 C40.9254144,93.119163 40.933092,93.09799 40.9414675,93.0768169 C41.0423233,92.817959 41.1494608,92.5604671 41.2552023,92.3029753 C41.474014,91.769892 41.6987584,91.2378332 41.9371131,90.7085064 C42.0177279,90.5281938 42.0952019,90.3461737 42.1695351,90.1627876 C43.2817406,87.4369254 43.7514703,84.365464 44.7478138,81.545006 C44.9861685,80.9036668 45.2353416,80.2647182 45.4963801,79.6291846 C45.5117353,79.5919609 45.5274395,79.5547373 45.5431437,79.5175137 C46.2487852,77.8072759 47.028411,76.1178697 47.8527064,74.4462216 C48.3007992,74.1095014 48.5402008,73.2741896 48.9265239,72.5150326 C49.0064407,72.3654551 49.6311184,71.3679302 49.8171258,70.7931838 C50.3025597,69.8540556 50.7862487,68.9145859 51.2751725,67.9771653 C51.2605152,67.9826293 51.245858,67.9880933 51.2312007,67.9935573 C51.7204735,67.0933603 52.2111421,66.1969198 52.6979719,65.3042358 C52.8051094,65.1082141 52.9132938,64.9118509 53.0211292,64.7151463 C53.1959692,64.4019897 53.3708092,64.0891747 53.5453002,63.7770426 C55.1774888,60.8561833 56.9080904,57.9937206 58.7053475,55.1667741 C59.3467763,54.1579797 60.8791561,52.7113808 61.1729989,51.5786215 C61.1838174,51.5362754 61.1862603,51.4973442 61.1928909,51.4567056 C65.0927644,45.9793686 69.5824173,40.9272006 74.9665111,36.9241241 C74.3156597,37.6276165 72.9322952,40.015051 72.5665621,40.4876886 C71.4473769,41.9349705 70.2322217,43.2821925 69.0125298,44.6458066 C66.8282517,47.0885644 64.6956229,49.6088429 62.8006508,52.2739178 C59.3352599,57.1478223 56.3455314,62.2771696 53.5194755,67.5096502 C53.4926039,67.5403853 53.4632894,67.5694129 53.4378137,67.600831 C52.0174571,69.3517074 51.1233653,71.9979998 50.1008482,74.0009041 C54.147294,72.1267458 58.6215918,70.9058791 62.7744772,69.241744 C66.9158461,67.5827314 70.9444939,65.7352102 74.8338979,63.5656534 C80.0033678,60.6823592 85.3658246,57.4268287 90.2501762,53.7427143 C95.8474979,50.2706721 100.551077,45.491705 104.702915,40.4767606 C109.615185,34.5431781 114.117053,28.5576874 116.901231,21.3530376 C118.268891,17.8126952 119.344803,14.1210677 119.982742,10.3864112 C120.01066,10.2235151 120.046256,10.046959 120.084993,9.8635729 C120.73759,8.57372305 121.321087,7.2548456 121.810709,5.90557455 C122.588241,3.76572834 124.424584,1.41176091 120.980481,0.659775373"/>
        <path fill="#C1DEE2" d="M127.985552,66.3755429 C124.041234,63.700897 118.796053,63 114.075943,63 C95.6400811,63 78.3112274,69.8400486 63.3411361,80.0318686 C55.1382704,85.6163535 47.8001859,92.7279727 41.3217129,100.132413 C37.5823286,104.406588 34.2480105,109.030491 31.8874019,114.173043 C30.2944619,117.644032 29.2011157,121.260531 28.4600331,124.990844 C27.5568501,129.53695 26.8393994,134.17526 26.5148296,138.797002 C26.3870694,140.616957 25.3295404,150.27428 28.3555356,150.437799 C28.3381809,150.675873 28.3341192,150.902782 28.3525816,151.10628 C21.7821656,161.379859 17.7226426,173.420088 13.9581494,184.835416 C10.6829112,194.768992 7.76436737,204.786488 5.86975096,215.062949 C3.37547423,228.592494 1.7371166,242.325536 0.958001292,256.049575 C0.790731513,258.999033 0.675895087,261.949932 0.576936366,264.903351 C0.493116852,267.422403 0.408189591,269.941454 0.325477824,272.460505 C0.233165584,275.283542 -0.263843516,278.533745 0.185163219,281.340214 C0.575828619,283.784349 2.69125591,283.414451 2.7846759,280.982202 C2.89766608,278.04499 2.87920363,275.102015 3.00770227,272.162642 C3.17866454,268.261606 3.35479629,264.360571 3.545698,260.460615 C4.87462501,233.36875 9.86022447,206.675236 19.0611701,181.084213 C22.7846766,170.728154 27.0513483,160.9246 32.5350646,151.344715 C37.3563483,142.921705 43.1557724,134.767384 49.0836952,127.172773 C54.845456,119.792465 60.8357819,112.582879 67.8954528,106.329912 C73.6243504,101.255793 79.9259531,96.8353874 86.4036876,92.7222099 C94.631293,87.4982583 102.843021,82.4010877 111.755213,78.3909197 C116.387811,76.3065976 121.10792,74.4405404 125.776704,72.4404988 C126.616746,72.0806858 127.517344,71.731678 128.325261,71.3149577 C131.020409,69.9250494 130.133103,67.831723 127.985552,66.3755429"/>
        <path fill="#89C5CC" d="M68.1822003,161 C60.7049106,161 54.05129,161.971586 47.1617895,164.943116 C41.2147665,167.507723 35.7950863,170.902835 30.5331226,174.599146 C23.1315646,179.797709 17.3016131,185.848195 13.220786,193.86497 C10.782781,198.65423 8.99440119,205.431196 10.631665,210.654916 C12.5603917,216.807388 17.8560525,221.93864 24.8306644,220.85453 C29.14355,220.184822 33.0972312,217.329896 36.3752328,214.642906 C40.2966064,211.428309 43.4356508,207.563042 46.0275509,203.270114 C50.2556727,196.267419 52.7402283,188.35093 56.3319259,181.033439 C58.0362366,177.560477 59.6832274,174.062699 61.7245094,170.762094 C62.735076,169.1276 63.8109525,167.508743 65.3439984,166.29409 C66.1641936,165.64444 69.6224922,164.519875 68.2999665,163.060796 C87.6904088,163.315421 104.868304,178.207408 108.590622,196.640687 C108.93732,198.358811 109.208287,200.090872 109.494539,201.819534 C109.675183,202.911123 109.60223,206.936508 110.578058,207.633752 C112.730158,209.17204 111.825546,204.499044 111.73314,203.826277 C111.494481,202.087417 111.239842,200.349916 110.972696,198.615475 C109.519203,189.181436 105.319221,180.411324 98.3150803,173.683312 C90.3055843,165.989832 79.4988788,161 68.1822003,161" transform="matrix(-1 0 0 1 122 0)"/>
      </g>
      <g transform="matrix(-1 0 0 1 584 83)">
        <g transform="translate(81)">
          <path fill="#D4A181" d="M38.1433414,9.13393292 C43.9381521,19.9350547 43.249578,47.3329958 35.7603014,49.2634576 C32.773664,50.0333035 26.4113241,48.1475566 19.935865,44.2446031 L24,73 L0,73 L8.26160177,34.4893378 C3.65406109,29.0807313 0.535660132,22.452516 1.05677633,15.0254539 C2.55833022,-6.37502057 32.3485306,-1.66718886 38.1433414,9.13393292 Z" transform="translate(54 31)"/>
          <path fill="#191847" d="M60.4181384,70.3075201 C57.4059021,56.9064588 48.8245327,47.7714043 50.1351137,41.781703 C51.0088343,37.7885688 53.3375617,35.3053788 57.1212959,34.3321331 C59.0782074,26.4155009 65.3896485,23.0482486 76.0556193,24.2303763 C92.0545754,26.0035679 101.819448,32.6477587 97.6024819,47.2678779 C93.7260987,47.2678779 89.0464758,45.8659867 82.57553,48.2678779 C80.5223249,49.0299883 79.0538125,51.3933595 78.1699927,55.3579915 L75.2457978,55.3579915 C72.4077436,50.6530572 69.6094038,48.9241222 66.8507787,50.1711866 C64.0921535,51.418251 63.4650732,54.4473753 64.9695377,59.2585597 L63.529076,70.3075201 L60.4181384,70.3075201 Z"/>
        </g>
        <g transform="translate(0 195)">
          <ellipse cx="116" cy="73.5" fill="#C5CFD6" rx="77" ry="73.5" transform="translate(10 27)"/>
          <path fill="#F1C0A6" d="M253.090229,37.5018287 C258.168086,50.6507477 267.032873,93.8526085 277.684593,159.107411 L265.509253,162.659849 C252.696468,134.301545 243.430392,109.608281 239.711023,96.5800564 C233.34256,74.2725728 228.497817,54.6432898 227.273327,47.3127766 C224.353374,29.8322277 249.735275,28.8143004 253.090229,37.5018287 Z M219.678573,75.1595557 C211.894501,76.2798518 203.427684,77.4078323 194.866506,78.49659 L192.418396,78.8065559 C192.010119,78.8580254 191.601755,78.909396 191.193368,78.9606623 L188.743273,79.2669705 C158.534511,83.0283592 128.89359,86.1640304 125.565792,86.6215241 C119.26302,87.4880065 114.500245,77.5838567 121.888346,74.6635414 C128.471548,72.0613813 144.278407,66.3560763 160.40084,61.1167633 L162.129045,60.5573541 C162.417145,60.4644706 162.705245,60.3717763 162.993293,60.2792917 L164.720555,59.7270609 C175.938467,56.1560209 186.923673,52.9655533 194.66723,51.3612296 C200.37284,50.1791314 205.902884,49.0808288 211.102095,48.0882686 C226.555991,45.1380286 234.56256,73.0174283 219.678573,75.1595557 Z"/>
          <path fill="#70716F" d="M165.562186,4 C227.079876,19.6757222 258.515366,29.7216696 259.868655,34.1378423 C259.883714,34.1869846 259.897479,34.2361936 259.909948,34.2854692 C259.94163,34.3238462 259.971064,34.3634124 260,34.4032083 C272.191506,51.1700257 279.49295,133.026966 281.889416,139.156136 L258.52773,142.641377 C249.591265,109.503295 221,86.4181007 221.759487,46.7290106 C221.55445,45.5650096 221.502612,44.4611405 221.58707,43.4168872 L158,11.0467174 L158,4 L165.562186,4 Z" transform="rotate(3 219.945 73.32)"/>
          <path fill="#919191" d="M168.941763,-4.97379915e-14 C174.200333,1.51058766 192.480145,8.89160388 211.521413,16.8119804 L213.459961,17.6190941 C226.071374,22.8747191 238.833914,28.2870523 248.206622,32.316337 C264.112045,39.1540062 259.098892,63.8027037 250.091931,70.2187883 C250.042683,70.6119747 249.880506,70.8801196 249.591265,71 C201.136867,91.0826527 162.804991,80.5453361 150,83.9121674 L144.07712,65.2284164 L163.282146,58.6402703 C157.464468,57.475702 152.107008,56.4363434 147.522705,55.6322592 C117.90929,50.4380832 109.273766,34.5862504 114.379549,-4.97379915e-14 L168.941763,-4.97379915e-14 Z"/>
          <path fill="#E4E4E4" d="M2.67813181,25.4019242 C1.55937727,28.3884109 1,30.6229931 1,32.1056708 C1,33.908957 1.3004142,36.5404001 1.90124261,40 C3.99318117,40 22.7937852,40 58.3030548,40 C59.768738,35.1545073 58.9226607,32.5385816 55.7648228,32.1522232 C52.606985,31.7658647 49.9837155,31.4170139 47.8950143,31.1056708 L21.6799926,19.4188835 C21.1755635,19.1940064 20.584344,19.4206282 20.359467,19.9250573 C20.35562,19.9336867 20.3518954,19.9423702 20.3482945,19.9511052 L18.6632131,24.038695 L18.6632131,24.038695 C15.7398812,25.4026522 13.3643706,26.0846307 11.5366811,26.0846307 C10.0517269,26.0846307 8.00099246,25.4849054 5.38447792,24.2854549 L5.38448339,24.285443 C4.38038273,23.8251478 3.19325534,24.2659892 2.73296014,25.2700899 C2.71312074,25.3133681 2.69483298,25.3573409 2.67813181,25.4019242 Z" transform="rotate(64 28.552 147.452)"/>
          <path fill="#E4E4E4" d="M2.67813181,25.4019242 C1.55937727,28.3884109 1,30.6229931 1,32.1056708 C1,33.908957 1.3004142,36.5404001 1.90124261,40 C3.99318117,40 22.7937852,40 58.3030548,40 C59.768738,35.1545073 58.9226607,32.5385816 55.7648228,32.1522232 C52.606985,31.7658647 49.9837155,31.4170139 47.8950143,31.1056708 L21.6799926,19.4188835 C21.1755635,19.1940064 20.584344,19.4206282 20.359467,19.9250573 C20.35562,19.9336867 20.3518954,19.9423702 20.3482945,19.9511052 L18.6632131,24.038695 L18.6632131,24.038695 C15.7398812,25.4026522 13.3643706,26.0846307 11.5366811,26.0846307 C10.0517269,26.0846307 8.00099246,25.4849054 5.38447792,24.2854549 L5.38448339,24.285443 C4.38038273,23.8251478 3.19325534,24.2659892 2.73296014,25.2700899 C2.71312074,25.3133681 2.69483298,25.3573409 2.67813181,25.4019242 Z" transform="translate(254 132)"/>
        </g>
        <g transform="translate(22 90)">
          <path fill="#F1C0A6" d="M60.9697919,67.4496834 L82.8671837,67.5318631 C66.1894326,121.56567 57.3363474,149.856914 56.3079281,152.405597 C53.9939846,158.140133 58.8906002,166.873732 60.9845874,171.567103 C58.0353781,172.886786 56.4973907,171.522357 55.0059077,169.872095 L54.7264664,169.559907 L54.7264664,169.559907 L54.446116,169.244533 C52.663464,167.24449 50.7058324,165.264122 46.2879189,167.319492 C44.7367687,168.041142 43.2589408,168.878532 41.8160657,169.714633 L41.276551,170.027882 C41.1868799,170.080004 41.0973267,170.132064 41.0078819,170.184033 L40.4724394,170.494529 C35.129527,173.584029 30.1095225,176.141118 23.3890352,171.994371 C22.2736052,171.306117 21.0512757,168.714714 24.0045784,166.68967 C31.3623323,161.644547 41.9653015,152.814672 43.3979297,149.908251 C45.3515741,145.944826 51.2088615,118.458637 60.9697919,67.4496834 L60.9697919,67.4496834 Z M199.493124,92.4603344 L227.821028,120.095357 C236.063404,123.611168 242.816857,127.493333 248.081387,131.741853 C249.265301,133.169925 250.554184,135.906184 244.983927,134.681747 C239.413671,133.45731 233.49953,132.419902 232.45261,134.23139 C231.405691,136.042878 234.490525,138.818722 232.555688,141.189494 C231.265796,142.770009 226.92779,137.742701 219.54167,126.10757 L190.084396,108.74029 L199.493124,92.4603344 Z"/>
          <path fill="#8D2DB1" d="M122.768272,9.7139848 L131.253224,7.48281413 C149.019938,54.2642227 221.602897,80.8616426 227.451896,98.4190631 C229.596879,104.857833 225.154909,108.596168 227.774893,110.385298 L217.29519,119.561394 C215.205566,117.515062 211.513381,121.915723 202.815928,119.824345 C194.118475,117.732967 127.737533,66.5128914 122.768272,9.7139848 Z" transform="rotate(5 175.413 63.943)"/>
          <g transform="translate(40.2 -4.73)">
            <mask id="screen_modul_3_g1-f" fill="#fff">
              <use xlink:href="#screen_modul_3_g1-e"/>
            </mask>
            <g mask="url(#screen_modul_3_g1-f)">
              <g transform="translate(-97 -12)">
                <path fill="#8D2DB1" d="M293.64925,8.85579223 C283.480055,25.137433 262.578347,36.395433 244.245211,40.0654233 C221.867939,44.5425592 196.232657,40.3344718 178.24424,54.3796466 C165.241628,64.5320252 160.054036,81.6418311 157.002017,97.8562097 C153.949997,114.074792 152.079269,131.117336 143.24691,145.05321 C136.213813,156.13885 123.862803,164.761016 110.780317,163.743676 C97.6936282,162.722132 85.8596961,149.341171 89.470832,136.725317 C91.9427155,128.061113 100.20755,122.427909 108.337861,118.539317 C116.468172,114.654928 125.34257,111.565074 131.547502,105.032239 C142.830725,93.1646757 141.544337,74.1799379 136.777133,58.516268 C132.009929,42.8525981 124.430327,27.3865107 125.510725,11.0502194 C125.603211,9.64191845 125.771366,8.21259806 126.040415,6.80850097 L151.999395,6.80850097 C152.154939,7.56099612 152.323094,8.3050835 152.512269,9.03235534 C156.581628,24.5530932 173.704046,34.1883942 189.72925,33.3980641 C205.754453,32.6035301 220.325114,23.3633942 231.520055,11.8615689 C233.109123,10.2304621 234.668764,8.52788932 236.219997,6.80850097 L294.805317,6.80850097 C294.464803,7.47691845 294.086453,8.16215146 293.64925,8.85579223 L293.64925,8.85579223 Z M-0.000420388349,0.448025243 L-0.000420388349,202.991132 L8.60913301,202.991132 L8.60913301,184.422579 C13.876599,180.929151 20.0479,178.532938 26.1687544,177.60388 C42.5554922,175.106773 59.1061816,179.651171 75.6568709,180.592841 C103.570657,182.181909 130.887492,173.538724 158.12025,167.220287 C185.353007,160.897647 214.74656,157.013258 240.625667,167.594433 C247.007162,170.205045 253.085978,173.677452 259.749133,175.472511 C266.412288,177.275977 274.054949,177.17088 279.604075,173.067889 C285.157405,168.969103 287.276162,160.048462 282.618259,154.957559 C277.392832,149.248685 267.324531,150.947054 261.729162,145.603918 C257.609356,141.660676 257.365531,134.757899 260.182133,129.805724 C262.998735,124.845142 268.253589,121.675414 273.718638,120.052715 C284.724405,116.773685 296.554133,119.039579 307.694424,121.839365 C318.830512,124.639151 330.172589,127.985443 341.590337,126.808355 C353.016492,125.635472 364.753735,118.606579 367.431609,107.43686 C369.264502,99.7857922 366.620259,91.8446563 366.431084,83.9833942 C365.947638,63.9897243 384.07058,45.4674136 404.06425,45.5136563 C415.952832,45.5388796 422.96491,50.755899 428.997483,57.5157437 L428.997483,30.5604427 C417.69324,32.8515592 405.750007,31.1447825 394.096842,31.0354816 C380.799958,30.9177728 365.998084,33.8100447 358.250327,44.6098214 C346.727483,60.6770641 355.812075,87.0816563 340.858861,100.02121 C333.010211,106.814685 321.155259,106.814685 311.301356,103.531452 C301.447453,100.248219 292.779046,94.2156466 283.391774,89.7763456 C273.996094,85.3370447 263.028162,82.5204427 253.287764,86.1231709 C231.29725,94.2534816 228.329308,128.843035 206.006686,135.998045 C193.319366,140.058996 178.643609,132.147287 173.195376,119.989656 C167.742939,107.836229 170.67725,92.9544816 178.647813,82.2808214 C186.614172,71.6071612 198.956774,64.8136854 211.816453,61.3538893 C224.684541,57.8940932 238.157987,57.4905204 251.480094,57.5914136 C270.01922,57.7301417 291.000803,57.8688699 303.860483,44.513132 C309.552541,38.6024718 312.7559,30.8084718 316.837871,23.6870932 C320.339706,17.5788505 324.585628,11.9162194 329.43691,6.80850097 L428.997483,6.80850097 L428.997483,0.448025243 L-0.000420388349,0.448025243 Z" transform="translate(0 .755)"/>
                <path fill="#A22161" d="M395.655221,0.269590314 C375.661551,0.223433981 357.542814,18.7499485 358.02626,38.7394146 C358.215435,46.6006767 360.859678,54.5460165 359.022581,62.1928806 C356.344707,73.362599 344.607464,80.3914922 333.185513,81.5643757 C321.763561,82.745667 310.425687,79.3951718 299.285396,76.5995893 C288.149309,73.7998029 276.315377,71.5339097 265.30961,74.808735 C259.844561,76.4356379 254.589707,79.605366 251.773105,84.5617447 C248.956503,89.5139194 249.200328,96.4209 253.324338,100.359939 C258.919707,105.707279 268.983804,104.004706 274.209231,109.717783 C278.871338,114.808686 276.752581,123.729327 271.19925,127.82391 C265.64592,131.9269 258.00326,132.031997 251.340105,130.232735 C244.67695,128.433473 238.602338,124.965269 232.216639,122.354657 C206.337532,111.769279 176.948183,115.657871 149.715425,121.980512 C122.482668,128.298949 95.165833,136.937929 67.2478427,135.348861 C50.7013573,134.411395 34.1464641,129.866997 17.7597262,132.3599 C11.6388718,133.288958 5.47177476,135.685172 0.204308738,139.178599 L0.204308738,157.747152 L420.592658,157.747152 L420.592658,12.2717641 C414.555882,5.5161233 407.543804,0.2949 395.655221,0.269590314" transform="translate(8.408 45.998)"/>
                <path fill="#E72477" stroke="#E72477" d="M146.68127,17.2805874 C142.599299,24.3977621 139.400144,32.1917621 133.703882,38.1066262 C120.844202,51.4623641 99.8626194,51.3236359 81.3234932,51.1849078 C68.0013864,51.0840146 54.5279398,51.4833835 41.6640563,54.9431796 C28.8001728,58.4071796 16.4575709,65.2006553 8.49121165,75.8743155 C0.520648544,86.5479757 -2.41366214,101.429723 3.03877476,113.58315 C8.48700777,125.736578 23.162765,133.65249 35.8500854,129.587335 C58.1727068,122.432325 61.1406485,87.8469757 83.135367,79.716665 C92.8715612,76.1139369 103.843697,78.9305388 113.235173,83.3656359 C122.622445,87.8049369 131.295056,93.8375097 141.148959,97.1249466 C150.998658,100.403976 162.857814,100.40818 170.706464,93.6147039 C185.655474,80.6751505 176.570882,54.2705583 188.09793,38.2033155 C195.841483,27.4035388 210.647561,24.5070631 223.940241,24.6289757 C235.593406,24.7340728 247.536639,26.4408495 258.845085,24.149733 L258.845085,0.401995146 L159.280309,0.401995146 C154.433231,5.50971359 150.183105,11.1681408 146.68127,17.2805874" transform="translate(170.155 7.163)"/>
                <path fill="#1E2229" stroke="#000" d="M231.518794,12.6178476 C220.323852,24.1154689 205.757396,33.3598087 189.732192,34.1543427 C173.702784,34.9446728 156.580367,25.3093718 152.515212,9.78863398 C152.321833,9.06136214 152.157882,8.31727476 151.998134,7.56477961 L126.039153,7.56477961 C125.774309,8.9688767 125.606153,10.3939932 125.509464,11.8064981 C124.429066,28.1385854 132.008668,43.6088767 136.775872,59.2725466 C141.54728,74.9362165 142.829464,93.9209544 131.550445,105.788517 C125.341309,112.321352 116.466911,115.411207 108.3366,119.295595 C100.210493,123.184187 91.9414544,128.817391 89.4695709,137.481595 C85.8626388,150.09745 97.6965709,163.478411 110.779056,164.499954 C123.861542,165.517294 136.216755,156.890925 143.245649,145.809488 C152.082212,131.873615 153.948736,114.826867 157.000755,98.6124883 C160.052775,82.3981097 165.240367,65.2841 178.242979,55.1359252 C196.231396,41.0865466 221.866678,45.2988379 244.24395,40.8174981 C262.581289,37.1517117 283.478794,25.8895078 293.647988,9.61207087 C294.085192,8.9184301 294.467746,8.23319709 294.80826,7.56477961 L236.218736,7.56477961 C234.667503,9.28416796 233.107862,10.9825369 231.518794,12.6178476"/>
              </g>
            </g>
          </g>
        </g>
      </g>
      <g transform="translate(0 64)">
        <g transform="rotate(-7 162.073 -513.261)">
          <path fill="#915B3C" d="M35.1840045,8.42528015 C40.529227,18.3884009 39.8940756,43.6606831 32.9858518,45.4413706 C30.2308706,46.1515041 24.3619516,44.4119695 18.3887517,40.8116631 L22.137969,67.3363223 L0,67.3363223 L7.62095558,31.8138794 C3.37070971,26.8248273 0.49408881,20.7107217 0.974786737,13.8597097 C2.35984313,-5.88041699 29.838782,-1.53784063 35.1840045,8.42528015 Z" transform="translate(49.81 28.595)"/>
          <g transform="translate(33.207 25.828)">
            <path fill="#2C2C2C" d="M46.7987441,4.62265866 C46.2916654,4.3200104 45.2307679,3.68163504 44.6933072,3.45026736 C44.5661205,3.39459296 43.6755939,2.75927118 43.6516459,2.76724612 C42.9774074,2.99478812 41.0250039,3.83460893 40.8574273,4.5602959 C40.8314538,4.61528908 40.8059569,4.66687614 40.7811152,4.71196064 C40.5044618,5.2148881 40.2506246,5.73032526 40.0084635,6.25201728 C39.4770792,7.39721301 39.018373,8.59411967 38.5802789,9.78161308 C37.7269663,12.0942991 36.9856495,14.4608635 36.3040837,16.8328158 C35.6101864,19.2474373 35.0212553,21.6902367 34.3619695,24.1148288 C33.4132818,27.6036752 32.1990807,31.0069353 31.2569459,34.4943573 C30.655326,36.7211474 30.3207088,38.9740717 30.4786943,41.2659494 C30.4802432,41.2935079 30.4811368,41.3206949 30.4836388,41.3486869 C30.484592,41.3601438 30.4860217,41.3714769 30.4870344,41.3829338 C30.5139015,41.7352493 30.5522065,42.0884318 30.6032599,42.4426671 C30.647939,42.7455631 30.6927373,43.0495738 30.7405143,43.3535226 C31.6010947,41.637463 32.2581168,39.7465772 32.9553501,37.9518674 C33.0235603,37.7761741 33.0886132,37.5991803 33.1521767,37.4216292 C33.3770023,37.057671 33.6062362,36.6963138 33.8380318,36.336319 C35.2998151,34.0662404 36.7673769,31.8045221 38.1691114,29.4933844 C40.6903272,25.336631 43.1880119,21.0920001 46.177108,17.2749287 C47.0597301,16.1477544 47.9629046,15.0378584 48.8344463,13.9014566 C49.3303851,13.2547913 49.8134563,12.5972885 50.2808599,11.928081 C50.6150006,11.4495536 52.0677016,9.78161308 51.5416466,8.77947392 C51.2724945,8.26673708 48.1141585,5.40785965 46.7987441,4.62265866 Z"/>
            <path fill="#8991DC" d="M44.8533857,3.53392641 C45.3465095,3.6996413 45.1065993,2.67349247 44.6289689,2.31238862 C42.4162087,0.639471545 33.9565572,0.0324044161 26.5947877,1.5606196 C21.6630921,2.58438057 15.9274056,5.13246935 11.9883138,8.40823875 C8.43732849,11.3613526 5.99522438,16.0953486 4.73791505,20.6691839 C3.41778274,25.4718002 3.21784178,30.4787138 3.95332586,35.403564 C4.11490535,36.4853368 4.46210093,37.5162353 4.65554715,38.5750624 C4.87339417,39.7674425 4.98514016,40.9154689 5.37348935,42.0755526 C5.61130619,42.7857641 6.01543699,43.4820112 6.21835218,44.1962827 C6.44997777,45.0113187 6.30879299,45.7653301 6.13986898,46.5943304 C5.86460115,47.9454853 5.52329332,49.293872 5.03825137,50.5843098 C4.30986902,52.5220889 3.42597704,54.3369574 2.87179947,56.3478185 C2.13443373,59.02343 -0.95000841,67.7303192 1.30410048,70.1035684 L44.2135746,70.1035684 C43.1330801,67.1562372 39.8897687,63.6875105 39.2331927,60.532437 C38.8464824,58.6738301 38.6625051,54.6148903 38.6220192,54.4673731 C37.6550493,47.8017206 35.766957,44.6185816 34.5844345,43.4633807 C33.4019121,42.3081798 31.8268796,41.9529497 31.7457256,40.9509026 C31.4103056,36.806516 33.0583313,32.8355453 34.2667783,28.9676767 C35.707033,24.3577926 36.7625198,19.6335487 38.2473272,15.0392898 C38.9048137,13.0048678 42.2929613,2.67349247 44.8533857,3.53392641 Z"/>
            <path fill="#000" fill-opacity=".2" d="M13.2583586,44.1656476 C22.1203134,46.9414094 21.1331776,52.6721014 32.2948761,58.4757054 L31.3621227,59.0408697 C21.5886035,55.007378 19.3039102,46.3562915 12.6089141,44.9551287 L13.2583586,44.1656476 Z M20.490033,14.1058576 C21.8595973,24.4911132 22.2594398,30.4231793 29.3940996,41.7832373 L28.6350237,42.0153101 C21.2922297,32.1241712 20.1282843,24.0511481 19.7813737,14.1628942 L20.490033,14.1058576 Z M8.10073516,21.5515972 C11.1160854,28.8682581 12.4909158,33.1888542 20.9112891,39.1096282 L20.2610795,39.5649099 C11.9020407,34.8275047 9.46780229,29.1765606 7.4664939,21.8564041 L8.10073516,21.5515972 Z M29.8088081,8.30173837 C28.1907135,13.4358572 27.8426972,16.1764311 28.1907135,23.1914674 L27.3969541,23.1914674 C25.9141287,16.5713817 27.2338552,10.3392682 28.8111444,8.30173837 L29.8088081,8.30173837 Z"/>
          </g>
        </g>
        <g transform="translate(0 186.038)">
          <polygon fill="#915B3C" points="118.069 0 151.858 116.434 167.751 203.854 183.702 203.854 167.779 0"/>
          <polygon fill="#000" fill-opacity=".1" points="118.069 0 151.858 116.434 167.751 203.854 183.702 203.854 167.779 0"/>
          <path fill="#784931" d="M102.884114,0 C105.241788,60.4866727 104.311956,93.4777477 103.78428,98.9732248 C103.256605,104.468702 100.260952,141.273724 79.8476761,205.698628 L96.4385023,205.698628 C123.47253,143.89394 132.90985,107.088919 136.010448,98.9732248 C139.111046,90.857531 148.268497,57.866456 161.637969,0 L102.884114,0 Z"/>
          <path fill="#2F3676" d="M117.343816,1.04866487e-13 C126.132822,40.0651351 141.334036,104.019268 162.947458,191.862398 L186.27815,191.862398 C188.001387,101.699826 180.670815,42.3577703 167.976094,1.04866487e-13 L117.343816,1.04866487e-13 Z"/>
          <path fill="#5C63AB" d="M102.766222,0 C105.075254,60.4866727 99.0912504,120.077502 80.555003,192.804145 L105.447568,192.804145 C132.531296,131.921872 151.943076,72.625102 165.209737,0 L102.766222,0 Z"/>
          <path fill="#191847" d="M0,34.1293688 L0.915425929,19.3707229 C6.27511606,20.9382987 12.9882395,20.3233551 21.0547964,17.5258921 C29.7095205,23.6564468 40.5998377,27.8467693 53.7257482,30.0968595 C54.7730545,30.2763839 55.4765229,31.2709324 55.2969902,32.3182373 C55.2854448,32.3855873 55.2703196,32.4522743 55.2516789,32.518015 L54.0101298,36.896615 L54.0101298,36.896615 L21.0547964,36.896615 L1.83085186,36.896615 L0,34.1293688 Z" transform="translate(77.483 183.56)"/>
          <path fill="#191847" d="M0,34.1293688 L0.915425929,19.3707229 C6.27511606,20.9382987 12.9882395,20.3233551 21.0547964,17.5258921 C29.7095205,23.6564468 40.5998377,27.8467693 53.7257482,30.0968595 C54.7730545,30.2763839 55.4765229,31.2709324 55.2969902,32.3182373 C55.2854448,32.3855873 55.2703196,32.4522743 55.2516789,32.518015 L54.0101298,36.896615 L54.0101298,36.896615 L21.0547964,36.896615 L1.83085186,36.896615 L0,34.1293688 Z" transform="translate(164.19 183.56)"/>
        </g>
        <g transform="rotate(1 -4798.121 1285.621)">
          <path fill="#915B3C" d="M63.008283,85.802978 L82.2843585,85.8787817 C70.3822713,124.300765 63.9569128,144.687229 63.008283,147.038173 C60.8738659,152.327797 65.3905795,160.383803 67.3221055,164.713041 C64.4045793,166.018547 62.9842783,164.476365 61.5083964,162.81531 L61.2306381,162.503135 C59.6021591,160.681763 57.791089,158.922213 53.7656725,160.79498 C52.6067206,161.334165 51.4921432,161.943396 50.403131,162.565304 L49.8606683,162.877048 C49.5904151,163.033183 49.3215638,163.189513 49.0538205,163.345141 L48.5197242,163.655195 C43.5469883,166.53535 38.8920636,168.962783 32.6433902,165.10716 C31.6145004,164.472304 30.4870048,162.081954 33.2111766,160.214022 C39.998082,155.560323 49.7784238,147.415511 51.099902,144.734583 C52.9019736,141.078659 56.871434,121.43479 63.008283,85.802978 L63.008283,85.802978 Z M178.989547,82.2079748 L205.119641,107.698945 C212.722535,110.941983 218.952024,114.522952 223.808108,118.441851 C224.900168,119.759127 226.089054,122.283095 220.950964,121.153655 C215.812873,120.024216 210.357579,119.067294 209.391884,120.738239 C208.426189,122.409183 211.271687,124.969664 209.486964,127.156501 C208.297149,128.614392 204.295705,123.977126 197.482634,113.244703 L170.310791,97.2248558 L178.989547,82.2079748 Z"/>
          <path fill="#191847" d="M112.552193,8.51573856 L120.378842,6.45767243 C137.048948,39.4351069 163.649885,68.3971953 200.181653,93.3439378 L177.16075,126.892117 C139.597255,90.1068425 114.998051,50.9160289 112.552193,8.51573856 Z" transform="rotate(5 156.367 66.675)"/>
          <path fill="#DDE3E9" d="M83.0173837,105.155353 L154.043367,105.155353 C137.588279,65.1457212 129.360735,31.1580139 129.360735,3.19223083 L107.935704,0 C91.0976436,27.0806458 86.3425309,60.4224039 83.0173837,105.155353 Z"/>
          <path fill="#2F3676" d="M108.889061,0 C110.562533,0.0576261808 113.111445,0.161451187 116.535798,0.31147502 L116.535798,0.31147502 L121.712854,15.1062859 C122.260472,33.1446193 125.458477,69.4967282 131.306868,124.162613 L131.306868,124.162613 L84.747901,124.162329 C84.869954,127.937969 85.0712045,131.748879 85.3516524,135.59506 L85.3516524,135.59506 L50.7328456,135.59506 C55.9112084,77.172926 74.821942,31.9745727 107.465046,5.68434189e-14 L107.465046,5.68434189e-14 L107.481846,0.015 L107.490523,0 Z"/>
          <path fill="#000" fill-opacity=".1" d="M97.7760297,124.526075 L84.7598832,124.525546 C84.1901257,107.59425 85.211076,91.3713721 87.8227341,75.8569136 C89.1488507,99.3903114 92.4663189,115.613194 97.7760297,124.526075 Z"/>
          <polygon fill="#FFF" fill-opacity=".2" points="95.111 95.931 118.069 85.258 118.069 95.931"/>
        </g>
      </g>
      <g transform="matrix(-1 0 0 1 439 142)">
        <g transform="translate(75.987)">
          <path fill="#915B3C" d="M35.346163,8.46925705 C40.716021,18.4843817 40.0779422,43.8885759 33.1378793,45.6785581 C30.3701637,46.3924077 24.474075,44.643737 18.4732623,41.02454 L22.24,67.6877934 L0,67.6877934 L7.65597941,31.9798186 C3.38619968,26.9647471 0.496369777,20.8187703 0.979279403,13.9320523 C2.37071934,-5.91111063 29.9763051,-1.5458676 35.346163,8.46925705 Z" transform="translate(50.04 28.744)"/>
          <path fill="#191847" d="M76.6015054,26.3054945 C73.5625562,25.3782644 69.1510697,25.063811 67.2952884,25.2765361 C68.3509414,22.7457356 68.76984,19.9261193 68.4283365,17.1807251 C68.0964099,14.513066 66.9051204,12.2416316 65.8033567,9.86144281 C65.2954997,8.76433156 64.7199663,7.67319993 63.8618803,6.83403465 C62.987762,5.97909811 61.8812453,5.41477123 60.7209564,5.14553872 C59.5335685,4.86995287 58.2919828,4.89289967 57.1027505,5.14299738 C56.5766621,5.2536204 56.1046296,5.49430021 55.5886856,5.62809426 C55.0603271,5.76517711 54.8040221,5.43427975 54.4205224,5.10173799 C53.4963206,4.30046856 52.1414442,3.90491653 50.9722169,3.76334896 C49.6604009,3.60458998 48.2992109,3.80259024 47.0481193,4.23409475 C45.8303692,4.65416324 44.6605035,5.33628868 43.7800715,6.33002721 C43.388059,6.77236979 43.0322257,7.27585401 42.8009624,7.83173467 C42.7061161,8.05985728 42.6904385,8.19499675 42.462935,8.27856197 C42.252528,8.35592334 42.0064384,8.3581657 41.7892921,8.4317898 C39.6896203,9.14336489 37.8944216,10.7666829 36.9169441,12.8509551 C36.3466603,14.0669114 36.0765221,16.2077806 36.1505122,18.6073432 C36.2245022,21.0069058 38.3898641,27.2680494 40.4151201,29.5518167 C42.2228752,31.5902701 44.8800617,32.9354609 47.4444591,33.5243043 C45.7423331,35.4710451 44.6092851,37.9037051 43.7714168,40.3777739 C42.8613321,43.0652405 42.2980713,45.8576495 42.0900762,48.7028287 C41.8925093,51.4060666 41.8742069,54.2647747 42.507556,56.9103092 C43.100044,59.3843033 44.3670971,61.4138619 46.4823046,62.7014241 C47.4511984,63.2912392 48.4936565,63.7343292 49.5421445,64.1392991 C50.5754515,64.5383642 51.6118797,64.926367 52.6942769,65.1503038 C54.7428012,65.5739601 57.1031762,65.5012329 58.6811577,63.8696929 C59.2498809,63.2815223 59.8753558,62.5424409 60.2902818,61.8239145 C60.4394679,61.5655201 60.5294194,61.396521 60.3481685,61.1439567 C60.1310223,60.8414625 59.7798001,60.6096774 59.5008654,60.3730339 C57.9101856,59.0238068 56.9255433,57.222595 56.6773254,55.0820396 C56.4254897,52.9101659 57.0085427,50.1068441 59.1188554,49.1589992 C61.7238302,47.9889365 64.5926297,49.3319598 66.907958,50.5838685 C67.8919618,47.1088108 69.912394,43.9798986 73.0800622,42.3858807 C76.5845518,40.6224152 80.6059077,40.4160435 84.2073009,38.9029748 C85.1457615,38.5086934 86.1016024,38.0611186 86.7925546,37.2577564 C87.0812789,36.9220005 87.4200158,36.4864598 87.5352927,36.0423981 C87.6867489,35.4590859 87.3107687,34.9700275 87.0203418,34.5152772 C85.4803839,32.1040691 79.6404546,27.2327245 76.6015054,26.3054945 Z"/>
        </g>
        <g transform="translate(0 173.392)">
          <polygon fill="#F1C0A6" points="118.613 0 152.558 117.041 168.524 204.918 184.549 204.918 168.552 0"/>
          <polygon fill="#000" fill-opacity=".1" points="118.613 0 152.558 117.041 168.524 204.918 184.549 204.918 168.552 0"/>
          <path fill="#D4A181" d="M103.358294,0 C105.726833,60.8023911 104.792716,93.9656675 104.262608,99.4898291 C103.732501,105.013991 100.723042,142.011121 80.2156836,206.7723 L96.8829748,206.7723 C124.041598,144.645014 133.522414,107.647884 136.637302,99.4898291 C139.752191,91.3317742 148.951847,58.1684979 162.382937,0 L103.358294,0 Z"/>
          <path fill="#64717D" d="M117.884639,1.05413852e-13 C126.714152,40.2742605 141.985427,104.56221 163.698462,192.86385 L187.136682,192.86385 C188.867861,102.230662 181.503503,42.5788624 168.750274,1.05413852e-13 L117.884639,1.05413852e-13 Z"/>
          <path fill="#73899D" d="M103.239858,0 C105.559532,60.8023911 99.5479491,120.704263 80.9262706,193.810512 L105.933562,193.810512 C133.142115,132.610457 152.643361,73.0041786 165.971168,0 L103.239858,0 Z"/>
          <path fill="#191847" d="M0,34.3075117 L0.919645008,19.471831 C6.30403726,21.047589 13.0481006,20.4294356 21.1518352,17.6173709 C29.8654303,23.7933793 40.8347396,28.0105026 54.0597631,30.2687408 C55.0687244,30.4410299 55.7469849,31.39862 55.5746997,32.4075819 C55.5635694,32.4727648 55.5489585,32.5373052 55.5309297,32.6009264 L54.2590555,37.0892019 L54.2590555,37.0892019 L21.1518352,37.0892019 L1.83929002,37.0892019 L0,34.3075117 Z" transform="translate(77.84 184.519)"/>
          <path fill="#191847" d="M0,34.3075117 L0.919645008,19.471831 C6.30403726,21.047589 13.0481006,20.4294356 21.1518352,17.6173709 C29.8654303,23.7933793 40.8347396,28.0105026 54.0597631,30.2687408 C55.0687244,30.4410299 55.7469849,31.39862 55.5746997,32.4075819 C55.5635694,32.4727648 55.5489585,32.5373052 55.5309297,32.6009264 L54.2590555,37.0892019 L54.2590555,37.0892019 L21.1518352,37.0892019 L1.83929002,37.0892019 L0,34.3075117 Z" transform="translate(164.947 184.519)"/>
        </g>
        <g transform="translate(20.387 76.033)">
          <path fill="#915B3C" d="M59.5920133,86.2508383 L78.9569391,86.3270358 C66.9999905,124.94957 60.5450153,145.442444 59.5920133,147.805659 C57.447759,153.122893 61.9852895,161.220948 63.9257176,165.572783 C57.6058079,168.402474 58.279201,157.922974 50.3068049,161.634271 C49.253579,162.124567 48.2368325,162.672481 47.2425779,163.235324 L46.7024037,163.543554 L46.7024037,163.543554 L46.1661862,163.853205 C40.7330465,167.003335 35.8351609,170.135207 29.0871726,165.968959 C28.0535409,165.330789 26.9208488,162.927963 29.657576,161.050281 C36.4757613,156.372291 46.3011794,148.184966 47.6287482,145.490045 C49.4391253,141.815038 53.4268803,122.068636 59.5920133,86.2508383 L59.5920133,86.2508383 Z M148.92067,102.475378 L171.351719,131.505619 C178.461898,135.7975 184.158522,140.233631 188.44159,144.814012 C189.343833,146.278055 190.173687,148.956831 185.220062,147.113729 L184.624281,146.893367 C179.849531,145.138557 174.925353,143.616007 173.7788,145.083098 C172.584474,146.611317 175.057274,149.558198 172.976022,151.485374 C171.588521,152.770158 168.256114,147.594252 162.978801,135.957657 L138.187188,116.209582 L148.92067,102.475378 Z"/>
          <path fill="#F19014" d="M97.9611734,18.149246 L105.825024,16.0824216 C137.689271,39.0953099 154.166997,87.2114094 192.757729,110.093536 L184.969177,121.693206 C121.299802,119.389818 100.428979,60.7671213 97.9611734,18.149246 Z" transform="rotate(24 145.36 68.888)"/>
          <path fill="#DDE3E9" d="M79.6933333,105.704225 C111.822494,105.704225 135.456031,105.704225 150.593944,105.704225 C153.833741,105.704225 153.223263,101.023232 152.754931,98.6611765 C147.349811,71.4002058 126.250275,42.0141986 126.250275,3.20889312 L105.799201,0 C88.8835361,27.2219969 83.0338057,60.7377869 79.6933333,105.704225 Z"/>
          <path fill="url(#screen_modul_3_g1-g)" d="M103.327005,-1.85446009 L105.626785,0.191539906 L105.733159,9.99200722e-14 L114.417004,0.495826943 C132.78576,62.7875629 137.851754,104.347639 129.614984,125.176056 L129.614984,125.176056 L70.2281679,125.176408 C67.211519,132.081913 64.3151297,137.954253 61.5389998,142.793427 L61.5389998,142.793427 L46.3333333,142.793427 C44.9496323,98.0265616 55.1886838,59.8064688 77.0504876,28.1331489 C69.1996805,18.3647611 70.4517653,11.4620468 76.9934652,7.53033396 C82.4746659,4.23600566 88.5231712,5.31334644 96.5978993,4.61794187 C98.77015,2.42001988 101.013435,0.262985247 103.327005,-1.85446009 L103.327005,-1.85446009 Z"/>
          <path fill="#000" fill-opacity=".1" d="M96.3733333,125.176056 L75.6636238,125.176968 C79.5204622,116.178194 83.5711381,105.514136 87.8156514,93.1847938 C89.5706653,107.877122 92.423229,118.54138 96.3733333,125.176056 Z"/>
        </g>
      </g>
    </g>
  </g>
</svg>
