<svg xmlns="http://www.w3.org/2000/svg" xmlns:xlink="http://www.w3.org/1999/xlink" width="609" height="543" viewBox="0 0 609 543">
  <defs>
    <path id="voty_screen_modul_2_g2-a" d="M49.7882616,30.6740284 C55.675604,30.6267595 61.0075368,34.1459296 63.2835347,39.5771271 C65.5595326,45.0083246 64.3234506,51.2761817 60.1614233,55.4405725 C55.9970326,59.6049632 49.7291754,60.8386817 44.2979779,58.5626838 C38.864417,56.2890494 35.3476103,50.9571166 35.3925158,45.0674107 C35.4563288,37.1427784 41.8636292,30.7354779 49.7882616,30.6740284 Z"/>
    <path id="voty_screen_modul_2_g2-b" d="M107.3651,30.6740284 C113.252442,30.6267595 118.586738,34.1459296 120.860373,39.5771271 C123.136371,45.0083246 121.900289,51.2761817 117.738262,55.4405725 C113.573871,59.6049632 107.306014,60.8386817 101.874816,58.5626838 C96.4412553,56.2890494 92.9244485,50.9571166 92.969354,45.0674107 C93.033167,37.1427784 99.4404674,30.7354779 107.3651,30.6740284 Z"/>
    <path id="voty_screen_modul_2_g2-c" d="M164.941702,30.6740284 C170.829044,30.6267595 176.16334,34.1459296 178.436975,39.5771271 C180.712973,45.0083246 179.476891,51.2761817 175.314863,55.4405725 C171.150473,59.6049632 164.882616,60.8386817 159.451418,58.5626838 C154.020221,56.2890494 150.50105,50.9571166 150.545956,45.0674107 C150.609769,37.1427784 157.017069,30.7354779 164.941702,30.6740284 Z"/>
    <path id="voty_screen_modul_2_g2-d" d="M207.907661,65.9373494 C207.907661,70.8240713 203.120884,74.7855422 197.216095,74.7855422 L170.316313,74.3997805 L157.584917,94.3652864 L139.909631,74.142606 L111.683565,74.7855422 C105.778776,74.7855422 100.991998,70.8240713 100.991998,65.9373494 L100.991998,12.8481928 C100.991998,7.96147084 105.778776,4 111.683565,4 L197.216095,4 C203.120884,4 207.907661,7.96147084 207.907661,12.8481928 L207.907661,65.9373494 Z"/>
    <path id="voty_screen_modul_2_g2-e" d="M5.60893609,8.10468193 L15.1214495,5.60432761 C53.6594512,33.4041733 73.5761476,91.5458587 120.25113,119.18542 L110.825525,133.205979 C33.8063298,130.443792 8.57889904,59.6065973 5.60893609,8.10468193 Z"/>
    <path id="voty_screen_modul_2_g2-g" d="M70.0796054,4.48167539 C71.1389298,4.48167539 72.0855539,4.56562105 72.9194776,4.73351237 L79.005256,5.0808081 C101.228023,80.3510555 107.35693,130.570193 97.3919759,155.73822 L97.3919759,155.73822 L31.000064,155.738714 C27.0000794,165.060237 23.172429,172.903005 19.5171128,179.267016 L19.5171128,179.267016 L1.12109375,179.267016 C-0.610236595,123.321034 12.6990611,75.8367757 41.048987,36.8142394 C37.4556258,35.7827097 34.6097111,33.3749402 32.5117188,29.5915953 C23.4684799,13.2837708 26.7344167,4.30510547 36.398771,1.35376748 C46.0631253,-1.59757051 54.6817056,4.48167539 70.0796054,4.48167539 Z"/>
    <polygon id="voty_screen_modul_2_g2-i" points="0 .316 123.005 .316 123.005 123.246 0 123.246"/>
    <polygon id="voty_screen_modul_2_g2-k" points="0 .283 123.005 .283 123.005 123.214 0 123.214"/>
    <polygon id="voty_screen_modul_2_g2-m" points=".033 .316 123.037 .316 123.037 123.246 .033 123.246"/>
    <polygon id="voty_screen_modul_2_g2-o" points=".033 .283 123.037 .283 123.037 123.214 .033 123.214"/>
    <polygon id="voty_screen_modul_2_g2-q" points="0 .283 246.357 .283 246.357 246.492 0 246.492"/>
    <path id="voty_screen_modul_2_g2-s" d="M4.28024685,6.87718027 L12.7651984,4.64600959 C33.1201354,21.2050747 44.6023664,64.2616718 57.6126696,68.9556463 C69.9133848,73.3936093 86.2085933,66.6320097 105.503164,57.7390322 L112.796052,70.8353428 C96.4098261,92.0000245 59.2986117,111.916545 42.8429403,103.839809 C16.5337423,90.9267871 6.04680375,37.501408 4.28024685,6.87718027 Z"/>
    <path id="voty_screen_modul_2_g2-u" d="M98.486398,-1.05825514e-13 C118.298923,67.5369477 123.760885,112.536948 114.872285,135 L114.872285,135 L46,135 C47.0896915,118.562494 50.5838029,101.179176 55.3695915,84.2302075 C39.7719945,112.366884 26.6611932,132.623153 16.0374452,145 L2.93287853e-14,141.85882 C10.3305927,77.7906722 40.2466105,30.5043988 89.7480534,-2.05301497e-13 Z"/>
    <polygon id="voty_screen_modul_2_g2-w" points="0 0 48.375 0 48.375 161.333 0 161.333"/>
  </defs>
  <g fill="none" fill-rule="evenodd" transform="translate(-10 8)">
    <g transform="translate(469)">
      <path fill="#69A1AC" d="M120.980481,0.659775373 C117.569531,-0.0853801391 113.803318,-0.0283494469 110.328853,0.0331207603 C91.6953105,0.286514614 73.3974882,9.10851385 61.4888276,23.2046569 C51.3509016,35.2050073 48.5632336,50.1248511 46.5604261,65.2069079 C46.3618554,66.7043905 46.2767038,68.192311 46.1646806,69.6928671 C46.1406008,70.0149026 46.1046557,70.3021051 46.0662677,70.572574 C45.2786154,71.2767494 44.8654207,72.0977182 45.3316606,72.9996227 C43.5965223,76.796774 42.1287042,80.6902286 40.8692283,84.7059407 C37.1623418,96.5259785 33.3915917,108.570724 35.7144157,121 C36.2570826,114.160073 37.3986026,107.165788 38.7638201,100.438216 C38.842341,100.051978 38.9271436,99.6688136 39.0154361,99.2870153 C39.0245096,99.2467182 39.0328852,99.206421 39.0419587,99.1664654 C39.5252987,97.106189 40.1534663,95.1077242 40.9173878,93.1406776 C40.9254144,93.119163 40.933092,93.09799 40.9414675,93.0768169 C41.0423233,92.817959 41.1494608,92.5604671 41.2552023,92.3029753 C41.474014,91.769892 41.6987584,91.2378332 41.9371131,90.7085064 C42.0177279,90.5281938 42.0952019,90.3461737 42.1695351,90.1627876 C43.2817406,87.4369254 43.7514703,84.365464 44.7478138,81.545006 C44.9861685,80.9036668 45.2353416,80.2647182 45.4963801,79.6291846 C45.5117353,79.5919609 45.5274395,79.5547373 45.5431437,79.5175137 C46.2487852,77.8072759 47.028411,76.1178697 47.8527064,74.4462216 C48.3007992,74.1095014 48.5402008,73.2741896 48.9265239,72.5150326 C49.0064407,72.3654551 49.6311184,71.3679302 49.8171258,70.7931838 C50.3025597,69.8540556 50.7862487,68.9145859 51.2751725,67.9771653 C51.2605152,67.9826293 51.245858,67.9880933 51.2312007,67.9935573 C51.7204735,67.0933603 52.2111421,66.1969198 52.6979719,65.3042358 C52.8051094,65.1082141 52.9132938,64.9118509 53.0211292,64.7151463 C53.1959692,64.4019897 53.3708092,64.0891747 53.5453002,63.7770426 C55.1774888,60.8561833 56.9080904,57.9937206 58.7053475,55.1667741 C59.3467763,54.1579797 60.8791561,52.7113808 61.1729989,51.5786215 C61.1838174,51.5362754 61.1862603,51.4973442 61.1928909,51.4567056 C65.0927644,45.9793686 69.5824173,40.9272006 74.9665111,36.9241241 C74.3156597,37.6276165 72.9322952,40.015051 72.5665621,40.4876886 C71.4473769,41.9349705 70.2322217,43.2821925 69.0125298,44.6458066 C66.8282517,47.0885644 64.6956229,49.6088429 62.8006508,52.2739178 C59.3352599,57.1478223 56.3455314,62.2771696 53.5194755,67.5096502 C53.4926039,67.5403853 53.4632894,67.5694129 53.4378137,67.600831 C52.0174571,69.3517074 51.1233653,71.9979998 50.1008482,74.0009041 C54.147294,72.1267458 58.6215918,70.9058791 62.7744772,69.241744 C66.9158461,67.5827314 70.9444939,65.7352102 74.8338979,63.5656534 C80.0033678,60.6823592 85.3658246,57.4268287 90.2501762,53.7427143 C95.8474979,50.2706721 100.551077,45.491705 104.702915,40.4767606 C109.615185,34.5431781 114.117053,28.5576874 116.901231,21.3530376 C118.268891,17.8126952 119.344803,14.1210677 119.982742,10.3864112 C120.01066,10.2235151 120.046256,10.046959 120.084993,9.8635729 C120.73759,8.57372305 121.321087,7.2548456 121.810709,5.90557455 C122.588241,3.76572834 124.424584,1.41176091 120.980481,0.659775373"/>
      <path fill="#C1DEE2" d="M127.985552,66.3755429 C124.041234,63.700897 118.796053,63 114.075943,63 C95.6400811,63 78.3112274,69.8400486 63.3411361,80.0318686 C55.1382704,85.6163535 47.8001859,92.7279727 41.3217129,100.132413 C37.5823286,104.406588 34.2480105,109.030491 31.8874019,114.173043 C30.2944619,117.644032 29.2011157,121.260531 28.4600331,124.990844 C27.5568501,129.53695 26.8393994,134.17526 26.5148296,138.797002 C26.3870694,140.616957 25.3295404,150.27428 28.3555356,150.437799 C28.3381809,150.675873 28.3341192,150.902782 28.3525816,151.10628 C21.7821656,161.379859 17.7226426,173.420088 13.9581494,184.835416 C10.6829112,194.768992 7.76436737,204.786488 5.86975096,215.062949 C3.37547423,228.592494 1.7371166,242.325536 0.958001292,256.049575 C0.790731513,258.999033 0.675895087,261.949932 0.576936366,264.903351 C0.493116852,267.422403 0.408189591,269.941454 0.325477824,272.460505 C0.233165584,275.283542 -0.263843516,278.533745 0.185163219,281.340214 C0.575828619,283.784349 2.69125591,283.414451 2.7846759,280.982202 C2.89766608,278.04499 2.87920363,275.102015 3.00770227,272.162642 C3.17866454,268.261606 3.35479629,264.360571 3.545698,260.460615 C4.87462501,233.36875 9.86022447,206.675236 19.0611701,181.084213 C22.7846766,170.728154 27.0513483,160.9246 32.5350646,151.344715 C37.3563483,142.921705 43.1557724,134.767384 49.0836952,127.172773 C54.845456,119.792465 60.8357819,112.582879 67.8954528,106.329912 C73.6243504,101.255793 79.9259531,96.8353874 86.4036876,92.7222099 C94.631293,87.4982583 102.843021,82.4010877 111.755213,78.3909197 C116.387811,76.3065976 121.10792,74.4405404 125.776704,72.4404988 C126.616746,72.0806858 127.517344,71.731678 128.325261,71.3149577 C131.020409,69.9250494 130.133103,67.831723 127.985552,66.3755429"/>
      <path fill="#89C5CC" d="M68.1822003,161 C60.7049106,161 54.05129,161.971586 47.1617895,164.943116 C41.2147665,167.507723 35.7950863,170.902835 30.5331226,174.599146 C23.1315646,179.797709 17.3016131,185.848195 13.220786,193.86497 C10.782781,198.65423 8.99440119,205.431196 10.631665,210.654916 C12.5603917,216.807388 17.8560525,221.93864 24.8306644,220.85453 C29.14355,220.184822 33.0972312,217.329896 36.3752328,214.642906 C40.2966064,211.428309 43.4356508,207.563042 46.0275509,203.270114 C50.2556727,196.267419 52.7402283,188.35093 56.3319259,181.033439 C58.0362366,177.560477 59.6832274,174.062699 61.7245094,170.762094 C62.735076,169.1276 63.8109525,167.508743 65.3439984,166.29409 C66.1641936,165.64444 69.6224922,164.519875 68.2999665,163.060796 C87.6904088,163.315421 104.868304,178.207408 108.590622,196.640687 C108.93732,198.358811 109.208287,200.090872 109.494539,201.819534 C109.675183,202.911123 109.60223,206.936508 110.578058,207.633752 C112.730158,209.17204 111.825546,204.499044 111.73314,203.826277 C111.494481,202.087417 111.239842,200.349916 110.972696,198.615475 C109.519203,189.181436 105.319221,180.411324 98.3150803,173.683312 C90.3055843,165.989832 79.4988788,161 68.1822003,161" transform="matrix(-1 0 0 1 122 0)"/>
    </g>
    <g transform="matrix(-1 0 0 1 150 150)">
      <path fill="#69A1AC" d="M120.980481,0.659775373 C117.569531,-0.0853801391 113.803318,-0.0283494469 110.328853,0.0331207603 C91.6953105,0.286514614 73.3974882,9.10851385 61.4888276,23.2046569 C51.3509016,35.2050073 48.5632336,50.1248511 46.5604261,65.2069079 C46.3618554,66.7043905 46.2767038,68.192311 46.1646806,69.6928671 C46.1406008,70.0149026 46.1046557,70.3021051 46.0662677,70.572574 C45.2786154,71.2767494 44.8654207,72.0977182 45.3316606,72.9996227 C43.5965223,76.796774 42.1287042,80.6902286 40.8692283,84.7059407 C37.1623418,96.5259785 33.3915917,108.570724 35.7144157,121 C36.2570826,114.160073 37.3986026,107.165788 38.7638201,100.438216 C38.842341,100.051978 38.9271436,99.6688136 39.0154361,99.2870153 C39.0245096,99.2467182 39.0328852,99.206421 39.0419587,99.1664654 C39.5252987,97.106189 40.1534663,95.1077242 40.9173878,93.1406776 C40.9254144,93.119163 40.933092,93.09799 40.9414675,93.0768169 C41.0423233,92.817959 41.1494608,92.5604671 41.2552023,92.3029753 C41.474014,91.769892 41.6987584,91.2378332 41.9371131,90.7085064 C42.0177279,90.5281938 42.0952019,90.3461737 42.1695351,90.1627876 C43.2817406,87.4369254 43.7514703,84.365464 44.7478138,81.545006 C44.9861685,80.9036668 45.2353416,80.2647182 45.4963801,79.6291846 C45.5117353,79.5919609 45.5274395,79.5547373 45.5431437,79.5175137 C46.2487852,77.8072759 47.028411,76.1178697 47.8527064,74.4462216 C48.3007992,74.1095014 48.5402008,73.2741896 48.9265239,72.5150326 C49.0064407,72.3654551 49.6311184,71.3679302 49.8171258,70.7931838 C50.3025597,69.8540556 50.7862487,68.9145859 51.2751725,67.9771653 C51.2605152,67.9826293 51.245858,67.9880933 51.2312007,67.9935573 C51.7204735,67.0933603 52.2111421,66.1969198 52.6979719,65.3042358 C52.8051094,65.1082141 52.9132938,64.9118509 53.0211292,64.7151463 C53.1959692,64.4019897 53.3708092,64.0891747 53.5453002,63.7770426 C55.1774888,60.8561833 56.9080904,57.9937206 58.7053475,55.1667741 C59.3467763,54.1579797 60.8791561,52.7113808 61.1729989,51.5786215 C61.1838174,51.5362754 61.1862603,51.4973442 61.1928909,51.4567056 C65.0927644,45.9793686 69.5824173,40.9272006 74.9665111,36.9241241 C74.3156597,37.6276165 72.9322952,40.015051 72.5665621,40.4876886 C71.4473769,41.9349705 70.2322217,43.2821925 69.0125298,44.6458066 C66.8282517,47.0885644 64.6956229,49.6088429 62.8006508,52.2739178 C59.3352599,57.1478223 56.3455314,62.2771696 53.5194755,67.5096502 C53.4926039,67.5403853 53.4632894,67.5694129 53.4378137,67.600831 C52.0174571,69.3517074 51.1233653,71.9979998 50.1008482,74.0009041 C54.147294,72.1267458 58.6215918,70.9058791 62.7744772,69.241744 C66.9158461,67.5827314 70.9444939,65.7352102 74.8338979,63.5656534 C80.0033678,60.6823592 85.3658246,57.4268287 90.2501762,53.7427143 C95.8474979,50.2706721 100.551077,45.491705 104.702915,40.4767606 C109.615185,34.5431781 114.117053,28.5576874 116.901231,21.3530376 C118.268891,17.8126952 119.344803,14.1210677 119.982742,10.3864112 C120.01066,10.2235151 120.046256,10.046959 120.084993,9.8635729 C120.73759,8.57372305 121.321087,7.2548456 121.810709,5.90557455 C122.588241,3.76572834 124.424584,1.41176091 120.980481,0.659775373"/>
      <path fill="#C1DEE2" d="M127.985552,66.3755429 C124.041234,63.700897 118.796053,63 114.075943,63 C95.6400811,63 78.3112274,69.8400486 63.3411361,80.0318686 C55.1382704,85.6163535 47.8001859,92.7279727 41.3217129,100.132413 C37.5823286,104.406588 34.2480105,109.030491 31.8874019,114.173043 C30.2944619,117.644032 29.2011157,121.260531 28.4600331,124.990844 C27.5568501,129.53695 26.8393994,134.17526 26.5148296,138.797002 C26.3870694,140.616957 25.3295404,150.27428 28.3555356,150.437799 C28.3381809,150.675873 28.3341192,150.902782 28.3525816,151.10628 C21.7821656,161.379859 17.7226426,173.420088 13.9581494,184.835416 C10.6829112,194.768992 7.76436737,204.786488 5.86975096,215.062949 C3.37547423,228.592494 1.7371166,242.325536 0.958001292,256.049575 C0.790731513,258.999033 0.675895087,261.949932 0.576936366,264.903351 C0.493116852,267.422403 0.408189591,269.941454 0.325477824,272.460505 C0.233165584,275.283542 -0.263843516,278.533745 0.185163219,281.340214 C0.575828619,283.784349 2.69125591,283.414451 2.7846759,280.982202 C2.89766608,278.04499 2.87920363,275.102015 3.00770227,272.162642 C3.17866454,268.261606 3.35479629,264.360571 3.545698,260.460615 C4.87462501,233.36875 9.86022447,206.675236 19.0611701,181.084213 C22.7846766,170.728154 27.0513483,160.9246 32.5350646,151.344715 C37.3563483,142.921705 43.1557724,134.767384 49.0836952,127.172773 C54.845456,119.792465 60.8357819,112.582879 67.8954528,106.329912 C73.6243504,101.255793 79.9259531,96.8353874 86.4036876,92.7222099 C94.631293,87.4982583 102.843021,82.4010877 111.755213,78.3909197 C116.387811,76.3065976 121.10792,74.4405404 125.776704,72.4404988 C126.616746,72.0806858 127.517344,71.731678 128.325261,71.3149577 C131.020409,69.9250494 130.133103,67.831723 127.985552,66.3755429"/>
      <path fill="#89C5CC" d="M68.1822003,161 C60.7049106,161 54.05129,161.971586 47.1617895,164.943116 C41.2147665,167.507723 35.7950863,170.902835 30.5331226,174.599146 C23.1315646,179.797709 17.3016131,185.848195 13.220786,193.86497 C10.782781,198.65423 8.99440119,205.431196 10.631665,210.654916 C12.5603917,216.807388 17.8560525,221.93864 24.8306644,220.85453 C29.14355,220.184822 33.0972312,217.329896 36.3752328,214.642906 C40.2966064,211.428309 43.4356508,207.563042 46.0275509,203.270114 C50.2556727,196.267419 52.7402283,188.35093 56.3319259,181.033439 C58.0362366,177.560477 59.6832274,174.062699 61.7245094,170.762094 C62.735076,169.1276 63.8109525,167.508743 65.3439984,166.29409 C66.1641936,165.64444 69.6224922,164.519875 68.2999665,163.060796 C87.6904088,163.315421 104.868304,178.207408 108.590622,196.640687 C108.93732,198.358811 109.208287,200.090872 109.494539,201.819534 C109.675183,202.911123 109.60223,206.936508 110.578058,207.633752 C112.730158,209.17204 111.825546,204.499044 111.73314,203.826277 C111.494481,202.087417 111.239842,200.349916 110.972696,198.615475 C109.519203,189.181436 105.319221,180.411324 98.3150803,173.683312 C90.3055843,165.989832 79.4988788,161 68.1822003,161" transform="matrix(-1 0 0 1 122 0)"/>
    </g>
    <g transform="translate(120.5 73)">
      <path fill="#F5FCFF" stroke="#DDE3E9" stroke-width="11.029" d="M427.783613,81.144958 L427.783613,334.033613 C427.783613,343.823325 423.815549,352.686245 417.400057,359.101737 C410.984564,365.51723 402.121644,369.485294 392.331933,369.485294 L392.331933,369.485294 L40.9663866,369.485294 C31.1766753,369.485294 22.3137551,365.51723 15.8982627,359.101737 C9.4827704,352.686245 5.51470588,343.823325 5.51470588,334.033613 L5.51470588,334.033613 L5.51470588,81.144958 L427.783613,81.144958 Z"/>
      <path fill="#C5CFD6" stroke="#C5CFD6" stroke-width="11.029" d="M427.783613,5.51470588 L427.783613,45.6932773 C427.783613,55.4829886 423.815549,64.3459088 417.400057,70.7614011 C410.984564,77.1768935 402.121644,81.144958 392.331933,81.144958 L392.331933,81.144958 L40.9663866,81.144958 C31.1766753,81.144958 22.3137551,77.1768935 15.8982627,70.7614011 C9.4827704,64.3459088 5.51470588,55.4829886 5.51470588,45.6932773 L5.51470588,45.6932773 L5.51470588,5.51470588 L427.783613,5.51470588 Z" transform="rotate(-180 216.65 43.33)"/>
      <use fill="#D8D8D8" xlink:href="#voty_screen_modul_2_g2-a"/>
      <use fill="#98AAB2" xlink:href="#voty_screen_modul_2_g2-a"/>
      <use fill="#D8D8D8" xlink:href="#voty_screen_modul_2_g2-b"/>
      <use fill="#98AAB2" xlink:href="#voty_screen_modul_2_g2-b"/>
      <use fill="#D8D8D8" xlink:href="#voty_screen_modul_2_g2-c"/>
      <use fill="#98AAB2" xlink:href="#voty_screen_modul_2_g2-c"/>
      <g stroke="#DDE3E9" stroke-linecap="round" stroke-linejoin="round" transform="translate(82.282 204.884)">
        <path stroke-width="11.06" d="M93.1640964,26.9174442 C83.5651759,10.2628043 65.804855,6.54897823e-15 46.5820482,6.54897823e-15 C27.3592414,6.54897823e-15 9.59892048,10.2628043 -6.54897823e-15,26.9174442" transform="translate(0 88.862)"/>
        <g transform="translate(6.095)">
          <path stroke-width="9.217" d="M10.5695837,29.5757525 C26.0228272,45.5006206 49.6881545,50.2627548 70.0982584,41.5546079" transform="rotate(-23 40.334 37.717)"/>
          <path stroke-width="11.06" d="M10.1893262,42.3943607 C10.1893262,60.2105344 24.6321886,74.6533969 42.4483623,74.6533969 C60.264536,74.6533969 74.7073985,60.2105344 74.7073985,42.3943607 C74.7073985,24.578187 60.264536,10.1353246 42.4483623,10.1353246 C24.6321886,10.1353246 10.1893262,24.578187 10.1893262,42.3943607 Z" transform="rotate(-23 42.448 42.394)"/>
        </g>
      </g>
      <g stroke="#DDE3E9" stroke-linecap="round" stroke-linejoin="round" transform="translate(166.76 183.607)">
        <path stroke-width="10.165" d="M85.6268772,24.7397525 C76.8045345,9.4325166 60.4810701,0 42.8134386,0 C25.1458071,0 8.82234269,9.4325166 0,24.7397525" transform="translate(0 71.068)"/>
        <g transform="translate(17.845)">
          <path stroke-width="8.471" d="M1.84337349,16.5903614 C16.1991943,31.0135432 38.1839121,35.3266167 57.1445783,27.4396324"/>
          <path stroke-width="10.165" d="M0,29.4939759 C0,45.783049 13.2049028,58.9879518 29.4939759,58.9879518 C45.783049,58.9879518 58.9879518,45.783049 58.9879518,29.4939759 C58.9879518,13.2049028 45.783049,0 29.4939759,0 C13.2049028,0 0,13.2049028 0,29.4939759 Z"/>
        </g>
      </g>
      <g stroke="#DDE3E9" stroke-linecap="round" stroke-linejoin="round" transform="translate(185.606 298.607)">
        <path stroke-width="8.471" d="M1.84337349,16.5903614 C16.1991943,31.0135432 38.1839121,35.3266167 57.1445783,27.4396324"/>
        <path stroke-width="10.165" d="M0,29.4939759 C0,45.783049 13.2049028,58.9879518 29.4939759,58.9879518 C45.783049,58.9879518 58.9879518,45.783049 58.9879518,29.4939759 C58.9879518,13.2049028 45.783049,0 29.4939759,0 C13.2049028,0 0,13.2049028 0,29.4939759 Z"/>
      </g>
      <g stroke="#DDE3E9" stroke-linecap="round" stroke-linejoin="round" transform="translate(351.606 187.607)">
        <path stroke-width="8.471" d="M1.84337349,16.5903614 C16.1991943,31.0135432 38.1839121,35.3266167 57.1445783,27.4396324"/>
        <path stroke-width="10.165" d="M0,29.4939759 C0,45.783049 13.2049028,58.9879518 29.4939759,58.9879518 C45.783049,58.9879518 58.9879518,45.783049 58.9879518,29.4939759 C58.9879518,13.2049028 45.783049,0 29.4939759,0 C13.2049028,0 0,13.2049028 0,29.4939759 Z"/>
      </g>
      <g stroke="#DDE3E9" stroke-linecap="round" stroke-linejoin="round" transform="translate(258.088 214.775)">
        <path stroke-width="11.06" d="M93.1640964,105.888391 C83.5651759,89.233751 65.804855,78.9709467 46.5820482,78.9709467 C27.3592414,78.9709467 9.59892048,89.233751 0,105.888391"/>
        <g transform="rotate(-1 99.903 -437.836)">
          <path stroke-width="11.06" d="M76.2859505,64.5761987 C72.1216022,57.7431483 70.0452933,49.8396844 70.3121635,41.8423761 L70.3121635,32.5429758 C70.3121635,14.8767545 55.9891515,0.553742497 38.3229302,0.553742497 C20.6537763,0.553742497 6.33076427,14.8767545 6.33076427,32.5429758 L6.33076427,41.8423761 C6.59763448,49.8396844 4.5213256,57.7431483 0.356977301,64.5761987"/>
          <path stroke-width="9.217" d="M6.33223059,37.8284722 C18.6141254,37.8079438 30.2889639,32.4558764 38.3214639,23.1623413 C46.3539639,32.4558764 58.0288023,37.8079438 70.3106972,37.8284722"/>
          <path stroke-width="11.06" d="M10.2414392,37.6410766 C11.6842979,52.066731 23.8283587,63.0553318 38.3273292,63.0553318 C52.8262996,63.0553318 64.9674277,52.066731 66.4132191,37.6410766"/>
        </g>
      </g>
      <g stroke="#DDE3E9" stroke-linecap="round" stroke-linejoin="round" transform="rotate(-1 5812.112 -19588.074)">
        <path stroke-width="11.06" d="M76.2859505,64.5761987 C72.1216022,57.7431483 70.0452933,49.8396844 70.3121635,41.8423761 L70.3121635,32.5429758 C70.3121635,14.8767545 55.9891515,0.553742497 38.3229302,0.553742497 C20.6537763,0.553742497 6.33076427,14.8767545 6.33076427,32.5429758 L6.33076427,41.8423761 C6.59763448,49.8396844 4.5213256,57.7431483 0.356977301,64.5761987"/>
        <path stroke-width="9.217" d="M6.33223059,37.8284722 C18.6141254,37.8079438 30.2889639,32.4558764 38.3214639,23.1623413 C46.3539639,32.4558764 58.0288023,37.8079438 70.3106972,37.8284722"/>
        <path stroke-width="11.06" d="M10.2414392,37.6410766 C11.6842979,52.066731 23.8283587,63.0553318 38.3273292,63.0553318 C52.8262996,63.0553318 64.9674277,52.066731 66.4132191,37.6410766"/>
      </g>
      <g stroke="#DDE3E9" stroke-linecap="round" stroke-linejoin="round" transform="rotate(-1 10403.041 -696.741)">
        <path stroke-width="11.06" d="M76.2859505,64.5761987 C72.1216022,57.7431483 70.0452933,49.8396844 70.3121635,41.8423761 L70.3121635,32.5429758 C70.3121635,14.8767545 55.9891515,0.553742497 38.3229302,0.553742497 C20.6537763,0.553742497 6.33076427,14.8767545 6.33076427,32.5429758 L6.33076427,41.8423761 C6.59763448,49.8396844 4.5213256,57.7431483 0.356977301,64.5761987"/>
        <path stroke-width="9.217" d="M6.33223059,37.8284722 C18.6141254,37.8079438 30.2889639,32.4558764 38.3214639,23.1623413 C46.3539639,32.4558764 58.0288023,37.8079438 70.3106972,37.8284722"/>
        <path stroke-width="11.06" d="M10.2414392,37.6410766 C11.6842979,52.066731 23.8283587,63.0553318 38.3273292,63.0553318 C52.8262996,63.0553318 64.9674277,52.066731 66.4132191,37.6410766"/>
      </g>
      <g transform="translate(59.53 73.687)">
        <g stroke-linecap="round" stroke-linejoin="round" transform="scale(-1 1) rotate(-4 0 4472.047)">
          <use fill="#D8D8D8" xlink:href="#voty_screen_modul_2_g2-d"/>
          <use fill="#FFF" stroke="#DDE3E9" stroke-width="9.217" xlink:href="#voty_screen_modul_2_g2-d"/>
        </g>
        <path fill="#A9CCDC" fill-rule="nonzero" d="M160.69697,50.8184438 C160.545455,49.4697406 160.709596,48.2459174 161.189394,47.1469741 C161.669192,46.0480307 162.287879,45.0240154 163.045455,44.074928 C163.80303,43.1258405 164.64899,42.2017291 165.583333,41.3025937 C166.517677,40.4034582 167.376263,39.4543708 168.159091,38.4553314 C168.941919,37.456292 169.611111,36.3698367 170.166667,35.1959654 C170.722222,34.0220941 171,32.685879 171,31.1873199 C171,28.8395773 170.608586,26.8290106 169.825758,25.1556196 C169.042929,23.4822286 167.969697,22.1210375 166.606061,21.0720461 C165.242424,20.0230548 163.651515,19.2487992 161.833333,18.7492795 C160.015152,18.2497598 158.070707,18 156,18 C152.969697,18 150.179293,18.6493756 147.628788,19.9481268 C145.078283,21.246878 142.868687,22.945245 141,25.0432277 L141,25.0432277 L148.121212,31.4870317 C149.131313,30.5878963 150.090909,29.8386167 151,29.2391931 C151.909091,28.6397695 153.020202,28.3400576 154.333333,28.3400576 C155.494949,28.3400576 156.492424,28.6272815 157.325758,29.2017291 C158.159091,29.7761768 158.575758,30.7377522 158.575758,32.0864553 C158.575758,32.8856868 158.310606,33.6724304 157.780303,34.4466859 C157.25,35.2209414 156.606061,36.0326609 155.848485,36.8818444 C155.090909,37.7310279 154.270202,38.6301633 153.386364,39.5792507 C152.502525,40.5283381 151.719697,41.5648415 151.037879,42.6887608 C150.356061,43.8126801 149.838384,45.0489914 149.484848,46.3976945 C149.131313,47.7463977 149.080808,49.2199808 149.333333,50.8184438 L149.333333,50.8184438 L160.69697,50.8184438 Z M154.939394,70 C157.161616,70 158.979798,69.2507205 160.393939,67.7521614 C161.808081,66.2536023 162.515152,64.4053794 162.515152,62.2074928 C162.515152,60.0096061 161.808081,58.1613833 160.393939,56.6628242 C158.979798,55.1642651 157.161616,54.4149856 154.939394,54.4149856 C152.717172,54.4149856 150.89899,55.1642651 149.484848,56.6628242 C148.070707,58.1613833 147.363636,60.0096061 147.363636,62.2074928 C147.363636,64.4053794 148.070707,66.2536023 149.484848,67.7521614 C150.89899,69.2507205 152.717172,70 154.939394,70 Z" transform="rotate(4 156 44)"/>
        <path fill="#FFF" stroke="#DDE3E9" stroke-linecap="round" stroke-linejoin="round" stroke-width="9.217" d="M302.036496,101.702873 C302.036496,106.793209 297.249719,110.919741 291.34493,110.919741 L269.961798,110.919741 L266.67985,131.575157 L243.232882,110.919741 L205.8124,110.919741 C199.907611,110.919741 195.120834,106.793209 195.120834,101.702873 L195.120834,46.4016687 C195.120834,41.3113333 199.907611,37.1848012 205.8124,37.1848012 L291.34493,37.1848012 C297.249719,37.1848012 302.036496,41.3113333 302.036496,46.4016687 L302.036496,101.702873 Z" transform="scale(-1 1) rotate(-4 0 7202.742)"/>
        <path fill="#FFF" stroke="#DDE3E9" stroke-linecap="round" stroke-linejoin="round" stroke-width="9.217" d="M112.915663,99.8788165 C112.915663,104.969152 108.128885,109.095684 102.224096,109.095684 L80.8409639,109.095684 L77.633162,130.521967 L54.1120482,109.095684 L16.6915663,109.095684 C10.7867773,109.095684 6,104.969152 6,99.8788165 L6,44.5776117 C6,39.4872763 10.7867773,35.3607442 16.6915663,35.3607442 L102.224096,35.3607442 C108.128885,35.3607442 112.915663,39.4872763 112.915663,44.5776117 L112.915663,99.8788165 Z" transform="rotate(-7 59.458 82.941)"/>
        <path fill="#A9CCDC" d="M238.173388,70.5251122 L245.312475,78.4602916 L268.601629,55.3912817 C270.058309,53.9539101 272.420696,53.9539101 273.884923,55.3912817 L278.371709,59.8071949 C279.835936,61.252014 279.835936,63.5830882 278.371709,65.0204598 L248.838095,94.162611 C247.283297,95.6968004 244.769958,95.6968004 243.21516,94.162611 L228.373118,79.536146 C227.142865,78.3222 227.173055,76.3337118 228.441046,75.1495559 L233.58447,70.465532 C234.231519,69.8606627 235.066376,69.564656 235.896924,69.5765733 C236.723023,69.5884267 237.544859,69.9049142 238.173388,70.5251122 Z"/>
        <path fill="#FFF" stroke="#DDE3E9" stroke-linecap="round" stroke-linejoin="round" stroke-width="9.217" d="M212.036496,216.702873 C212.036496,221.793209 207.249719,225.919741 201.34493,225.919741 L179.961798,225.919741 L176.67985,246.575157 L153.232882,225.919741 L115.8124,225.919741 C109.907611,225.919741 105.120834,221.793209 105.120834,216.702873 L105.120834,161.401669 C105.120834,156.311333 109.907611,152.184801 115.8124,152.184801 L201.34493,152.184801 C207.249719,152.184801 212.036496,156.311333 212.036496,161.401669 L212.036496,216.702873 Z" transform="scale(-1 1) rotate(-4 0 4740.479)"/>
        <path fill="#A9CCDC" d="M148.173388,185.525112 L155.312475,193.460292 L178.601629,170.391282 C180.058309,168.95391 182.420696,168.95391 183.884923,170.391282 L188.371709,174.807195 C189.835936,176.252014 189.835936,178.583088 188.371709,180.02046 L158.838095,209.162611 C157.283297,210.6968 154.769958,210.6968 153.21516,209.162611 L138.373118,194.536146 C137.142865,193.3222 137.173055,191.333712 138.441046,190.149556 L143.58447,185.465532 C144.231519,184.860663 145.066376,184.564656 145.896924,184.576573 C146.723023,184.588427 147.544859,184.904914 148.173388,185.525112 Z"/>
        <path fill="#A9CCDC" fill-rule="nonzero" d="M64.4759218,97.1936775 L64.4759218,78.4611403 L64.4759218,78.4611403 L83.3503041,78.4611403 C85.6254828,78.4611403 87.4698795,76.6167436 87.4698795,74.3415649 L87.4698795,69.5817218 C87.4698795,67.3065431 85.6254828,65.4621464 83.3503041,65.4621464 L64.4759218,65.4621464 L64.4759218,65.4621464 L64.4759218,46.4328285 C64.4759218,44.1576498 62.6315251,42.313253 60.3563463,42.313253 L55.5834127,42.313253 C53.308234,42.313253 51.4638372,44.1576498 51.4638372,46.4328285 L51.4638372,65.4621464 L51.4638372,65.4621464 L32.589455,65.4621464 C30.3142763,65.4621464 28.4698795,67.3065431 28.4698795,69.5817218 L28.4698795,74.3415649 C28.4698795,76.6167436 30.3142763,78.4611403 32.589455,78.4611403 L51.4638372,78.4611403 L51.4638372,78.4611403 L51.4638372,97.1936775 C51.4638372,99.4688563 53.308234,101.313253 55.5834127,101.313253 L60.3563463,101.313253 C62.6315251,101.313253 64.4759218,99.4688563 64.4759218,97.1936775 Z" transform="rotate(-51 57.97 71.813)"/>
      </g>
    </g>
    <g transform="translate(0 51)">
      <g transform="rotate(-15 169.145 -161.356)">
        <path fill="#F1C0A6" d="M41.3124905,9.87712199 C47.5887645,21.5570849 46.84298,51.1842793 38.731455,53.2718145 C35.4965419,54.104333 28.6051608,52.0649533 21.5913943,47.8440876 L25.994046,78.9396979 L0,78.9396979 L8.94844447,37.2960864 C3.95785163,31.4473134 0.580149551,24.2796094 1.14457886,16.2480108 C2.77088973,-6.89372874 35.0362165,-1.80284089 41.3124905,9.87712199 Z" transform="translate(58.487 33.522)"/>
        <path fill="#191847" d="M85.7067654,32.0306705 C93.0001561,32.6552592 99.5128042,34.875681 101.358541,36.1943348 C101.358541,43.0882838 100.020616,45.1336983 88.5929138,44.9534026 C85.7848455,46.4340424 83.6261666,48.9837391 81.3777091,52.3264743 C82.3726459,66.1637468 85.0047768,73.0837713 89.2741591,73.0837713 C95.6782325,73.0837713 101.111634,69.0247035 103.921587,69.0247035 C105.969948,69.0247035 105.512612,71.5839677 104.154852,73.4814801 C103.034655,75.046989 97.5793932,76.5559524 97.5793932,78.9830169 C97.5793932,81.4100813 101.889503,79.5323953 101.889503,80.9718398 C101.889503,83.3528566 102.646998,87.8295941 98.5079295,87.8295941 C94.3190541,87.8295941 82.3088065,86.305511 80.2505753,80.0983511 C78.922312,76.0926091 78.0634735,67.7921525 77.6740598,55.1969813 C77.4206085,55.1652027 77.1616496,55.149652 76.8990529,55.149652 C73.3100241,55.149652 70.4005414,58.0545155 70.4005414,61.6378463 C70.4005414,63.4569395 71.1503525,65.1011829 72.3582342,66.2792994 C70.8545668,68.398346 69.1693869,70.6119741 67.2383508,72.8961505 C59.9838665,68.550665 54.6006265,55.8298 61.6930625,43.6096179 C63.6534341,37.6231408 68.0914411,34.4255383 73.3328342,32.9407888 C77.5786327,31.1675775 81.9861734,30.9676463 85.7067654,32.0306705 Z"/>
      </g>
      <g transform="translate(0 218.436)">
        <polygon fill="#F1C0A6" points="145.133 0 198.293 134.335 233.947 247.903 248.027 247.903 193.519 0"/>
        <path fill="#F1C0A6" d="M134.428889,0 C133.862815,47.2061435 125.607382,110.761554 124.288442,113.704144 C123.409148,115.665872 93.0545229,140.612651 33.2245657,188.544482 L42.9216627,198.905045 C113.51547,157.809513 150.44574,134.521182 153.712474,129.040051 C158.612575,120.818354 174.565616,45.1612249 187.373749,0 L134.428889,0 Z"/>
        <path fill="#E4E4E4" d="M2.90031209,27.4696577 C1.68882753,30.6986972 1.08308525,33.114802 1.08308525,34.717972 C1.08308525,36.6679839 1.40845945,39.5135362 2.05920784,43.254629 C4.32495563,43.254629 24.6876126,43.254629 63.1471788,43.254629 C64.7346386,38.0148792 63.8182648,35.1861069 60.3980572,34.7683121 C56.9778497,34.3505173 54.1366251,33.973282 51.8743837,33.6366063 L23.480507,20.9985708 C22.9339535,20.7553014 22.2936756,21.0011617 22.0504062,21.5477151 C22.0464135,21.5566855 22.0425429,21.5657098 22.0387956,21.5747854 L20.2138509,25.9946209 L20.2138509,25.9946209 C17.0476332,27.4695574 14.4747527,28.2070256 12.4952092,28.2070256 C10.8865992,28.2070256 8.66498938,27.5582791 5.83037963,26.2607862 L5.8303795,26.2607865 C4.7424397,25.7628011 3.45679333,26.2410536 2.95880796,27.3289934 C2.93766629,27.3751812 2.91815561,27.4220983 2.90031209,27.4696577 Z" transform="rotate(50 -151.549 137.39)"/>
        <path fill="#E4E4E4" d="M2.90031209,27.4696577 C1.68882753,30.6986972 1.08308525,33.114802 1.08308525,34.717972 C1.08308525,36.6679839 1.40845945,39.5135362 2.05920784,43.254629 C4.32495563,43.254629 24.6876126,43.254629 63.1471788,43.254629 C64.7346386,38.0148792 63.8182648,35.1861069 60.3980572,34.7683121 C56.9778497,34.3505173 54.1366251,33.973282 51.8743837,33.6366063 L23.480507,20.9985708 C22.9339535,20.7553014 22.2936756,21.0011617 22.0504062,21.5477151 C22.0464135,21.5566855 22.0425429,21.5657098 22.0387956,21.5747854 L20.2138509,25.9946209 L20.2138509,25.9946209 C17.0476332,27.4695574 14.4747527,28.2070256 12.4952092,28.2070256 C10.8865992,28.2070256 8.66498938,27.5582791 5.83037963,26.2607862 L5.8303795,26.2607865 C4.7424397,25.7628011 3.45679333,26.2410536 2.95880796,27.3289934 C2.93766629,27.3751812 2.91815561,27.4220983 2.90031209,27.4696577 Z" transform="translate(225.282 215.192)"/>
        <polygon fill="#69A1AC" points="174.377 236.206 244.565 228.953 223.747 117.878 198.205 0 138.249 0 166.795 129.223"/>
        <path fill="#89C5CC" d="M47.0708397,171.829532 L90.9791612,223.719387 C137.22685,173.288815 164.189374,140.382858 171.866732,125.001516 C179.544089,109.620174 186.445643,67.9530016 192.571394,0 L125.072677,0 C121.726481,59.7820867 119.470912,91.0641065 118.30597,93.8460596 C117.141029,96.6280126 93.395985,122.622503 47.0708397,171.829532 Z"/>
      </g>
      <g transform="rotate(-10 711.503 31.34)">
        <path fill="#F1C0A6" d="M76.5795912,108.702915 L100.007527,108.794991 C85.5418575,155.464545 77.7325457,180.227119 76.5795912,183.082711 C73.9854436,189.507793 79.4750088,199.293082 81.8225647,204.551623 C74.1766532,207.970881 74.9913333,195.307973 65.3462216,199.79252 C63.445442,200.676298 61.6428712,201.715005 59.8823349,202.737412 L59.3277078,203.059536 C59.1432542,203.166597 58.9592008,203.273277 58.7754822,203.379378 L58.2252649,203.695739 C58.0421502,203.80048 57.8593046,203.904441 57.6766628,204.007422 L57.1292828,204.313229 C51.7514329,207.287501 46.4938205,209.235585 39.6744262,205.030343 C38.4239246,204.259209 37.0535786,201.355753 40.3645078,199.086856 C42.8849537,197.359657 45.7450763,195.236546 48.5477951,193.02783 L49.3104513,192.423564 C55.3955423,187.576182 61.0355324,182.455577 62.1062727,180.284637 C64.2964912,175.843941 69.1209307,151.983367 76.5795912,108.702915 L76.5795912,108.702915 Z M213.883616,107.797162 L249.644568,134.041403 C259.343675,136.656997 267.446965,139.911236 273.954439,143.804123 C275.491617,145.20398 277.349441,148.038923 270.974391,147.548974 L270.632569,147.522988 L270.632569,147.522988 L269.947747,147.472809 C269.83355,147.464669 269.719347,147.45665 269.605172,147.448762 L268.920752,147.403116 C268.806833,147.395805 268.693014,147.388651 268.57933,147.381665 L267.899124,147.341869 C262.587933,147.047516 257.730328,147.17946 256.992064,149.003331 C256.112431,151.176452 259.970266,153.775268 258.192145,156.707379 C257.00673,158.662119 251.406357,153.76068 241.391025,142.003062 L205.978301,127.32714 L213.883616,107.797162 Z"/>
        <g transform="translate(131.988 7.114)">
          <mask id="voty_screen_modul_2_g2-f" fill="#fff">
            <use xlink:href="#voty_screen_modul_2_g2-e"/>
          </mask>
          <g mask="url(#voty_screen_modul_2_g2-f)">
            <g transform="translate(-33.332 -132.6)">
              <polygon fill="#FCD436" points="0 342.848 228.703 227.445 0 227.445"/>
              <path fill="#FFADAC" d="M290.842904,230.246073 C290.842904,201.907075 313.71713,178.933513 341.933594,178.933513 L341.933594,116.52356 C279.398094,116.52356 228.703125,167.43868 228.703125,230.246073 C228.703125,293.053144 279.398094,343.968586 341.933594,343.968586 L341.933594,281.558311 C313.71713,281.558311 290.842904,258.585071 290.842904,230.246073"/>
              <polygon fill="#19191A" points="0 227.445 228.703 227.445 228.703 0 0 0"/>
              <path fill="#257555" d="M114.351562,177.000291 C142.847316,177.000291 165.947955,200.086765 165.947955,228.565445 L228.703125,228.565445 C228.703125,165.449125 177.506047,114.282723 114.351562,114.282723 C51.1970781,114.282723 0,165.449125 0,228.565445 L62.7551701,228.565445 C62.7551701,200.086765 85.8558089,177.000291 114.351562,177.000291"/>
            </g>
          </g>
        </g>
        <path fill="#DDE3E9" d="M100.898437,132.209424 C139.768726,132.209424 168.360896,132.209424 186.674947,132.209424 C190.594496,132.209424 189.855931,126.553143 189.289337,123.698953 C182.750151,90.7581465 157.22365,55.2495514 157.22365,8.35914285 L132.481667,4.48167539 C112.016868,37.3753877 104.939786,77.8742078 100.898437,132.209424 Z"/>
        <g transform="translate(62.781)">
          <mask id="voty_screen_modul_2_g2-h" fill="#fff">
            <use xlink:href="#voty_screen_modul_2_g2-g"/>
          </mask>
          <g mask="url(#voty_screen_modul_2_g2-h)">
            <g transform="translate(-15.695 -63.864)">
              <g transform="translate(0 123.246)">
                <mask id="voty_screen_modul_2_g2-j" fill="#fff">
                  <use xlink:href="#voty_screen_modul_2_g2-i"/>
                </mask>
                <path fill="#297D5B" d="M-6.96724929e-05,0.315600467 L-6.96724929e-05,123.245899 L123.004626,123.245899 C55.0708106,123.245899 -6.96724929e-05,68.2081718 -6.96724929e-05,0.315600467" mask="url(#voty_screen_modul_2_g2-j)"/>
              </g>
              <mask id="voty_screen_modul_2_g2-l" fill="#fff">
                <use xlink:href="#voty_screen_modul_2_g2-k"/>
              </mask>
              <path fill="#297D5B" d="M123.004557,0.282943739 L-0.000139344986,0.282943739 L-0.000139344986,123.213591 C-0.000139344986,55.3206711 55.0710892,0.282943739 123.004557,0.282943739" mask="url(#voty_screen_modul_2_g2-l)"/>
              <g transform="translate(123.32 123.246)">
                <mask id="voty_screen_modul_2_g2-n" fill="#fff">
                  <use xlink:href="#voty_screen_modul_2_g2-m"/>
                </mask>
                <path fill="#297D5B" d="M0.0326067267,123.246004 L123.037303,123.246004 L123.037303,0.315704913 C123.037303,68.2082763 67.9664226,123.246004 0.0326067267,123.246004" mask="url(#voty_screen_modul_2_g2-n)"/>
              </g>
              <g transform="translate(123.32)">
                <mask id="voty_screen_modul_2_g2-p" fill="#fff">
                  <use xlink:href="#voty_screen_modul_2_g2-o"/>
                </mask>
                <path fill="#297D5B" d="M0.0326067267,0.282943739 C67.9664226,0.282943739 123.037303,55.3206711 123.037303,123.213591 L123.037303,0.282943739 L0.0326067267,0.282943739 Z" mask="url(#voty_screen_modul_2_g2-p)"/>
              </g>
              <mask id="voty_screen_modul_2_g2-r" fill="#fff">
                <use xlink:href="#voty_screen_modul_2_g2-q"/>
              </mask>
              <path fill="#FCD436" d="M123.178538,178.93353 C92.4831177,178.93353 67.5992765,154.064669 67.5992765,123.387728 C67.5992765,92.7104379 92.4831177,67.8419254 123.178538,67.8419254 C153.873958,67.8419254 178.757799,92.7104379 178.757799,123.387728 C178.757799,154.064669 153.873958,178.93353 123.178538,178.93353 M123.178538,0.283204485 C55.1489833,0.283204485 -0.000139542079,55.3991274 -0.000139542079,123.387728 C-0.000139542079,191.376328 55.1489833,246.491903 123.178538,246.491903 C191.208441,246.491903 246.357215,191.376328 246.357215,123.387728 C246.357215,55.3991274 191.208441,0.283204485 123.178538,0.283204485" mask="url(#voty_screen_modul_2_g2-r)"/>
              <path fill="#FFAEAD" d="M67.265625,123.246073 C67.265625,92.3063692 92.3623232,67.2251309 123.320312,67.2251309 C154.278302,67.2251309 179.375,92.3063692 179.375,123.246073 C179.375,154.185426 154.278302,179.267016 123.320312,179.267016 C92.3623232,179.267016 67.265625,154.185426 67.265625,123.246073"/>
            </g>
          </g>
        </g>
        <path fill="#000" fill-opacity=".1" d="M116.59375,155.73822 L91.538752,155.739586 C96.2049107,144.865696 101.105587,131.979466 106.240782,117.080896 C108.363726,134.834804 111.814816,147.72113 116.59375,155.73822 Z"/>
      </g>
    </g>
    <g transform="matrix(-1 0 0 1 624 81)">
      <g transform="rotate(-12 160.605 -293.408)">
        <path fill="#D4A181" d="M35.8547409,8.58589694 C41.301863,18.7389514 40.6546033,44.4930161 33.6146833,46.3076501 C30.8071879,47.0313198 24.8264048,45.2586321 18.7393468,41.5897062 L22.56,68.62 L0,68.62 L7.76593832,32.4200159 C3.43483216,27.3359188 0.503519293,21.1053826 0.993369754,14.1239267 C2.40483041,-5.99251934 30.4076188,-1.56715753 35.8547409,8.58589694 Z" transform="translate(50.76 29.14)"/>
        <path fill="#191847" d="M96.6091578,23.6508115 C96.141987,22.0086891 94.8854158,20.60269 93.1919758,20.1855695 C92.781319,20.0843914 92.3572154,20.0435251 91.934661,20.060563 C91.7830892,20.0666127 91.7405797,20.1103187 91.6697511,20.0043255 C91.6172029,19.9257412 91.6160256,19.7337559 91.594399,19.6414054 C91.5271026,19.35423 91.4429511,19.070635 91.3390941,18.7943861 C90.9847655,17.8521766 90.3893226,17.018306 89.6714944,16.3158621 C88.3288507,15.0017196 86.5146986,14.0947589 84.6299038,13.9306763 C83.5983356,13.8409185 82.5742654,14.0085198 81.5990254,14.3440928 C81.0941165,14.5178056 80.6045136,14.7341131 80.1276758,14.9732614 C79.9840978,15.0452404 79.5182903,15.3977896 79.3742165,15.3749489 C79.2150847,15.3497624 78.8952719,14.9543098 78.7658843,14.8550453 C77.1665725,13.6280062 75.1916154,13.1455737 73.1995554,13.16 C70.951075,13.1769334 68.7859406,13.2892849 66.9106887,14.6599735 C66.5137268,14.9501737 66.1356648,15.2679063 65.7756972,15.6024299 C65.5861395,15.7785502 65.4025307,15.9612757 65.2274113,16.1515943 C65.1217572,16.2664151 65.0188916,16.3838286 64.919868,16.5043904 C64.751813,16.7090307 64.7787687,16.7762564 64.5435411,16.6334712 C63.6410506,16.0851711 62.59523,15.828738 61.5418493,15.9581891 C60.9163522,16.0351067 60.3077722,16.2228943 59.7299279,16.4700676 C59.533182,16.5542078 59.077785,16.8898425 58.8680879,16.8931143 C58.660064,16.8963244 58.2110496,16.5851971 57.9967669,16.5061189 C56.8394053,16.0788744 55.5919433,15.9735603 54.3754649,16.170978 C53.1206288,16.3746923 51.887977,16.8753356 50.8248055,17.5671617 C50.313452,17.8999568 49.8672881,18.2686797 49.5089317,18.7635203 C49.3541996,18.9771733 49.2143396,19.2031728 49.0389723,19.4012695 C48.9362927,19.5172632 48.7329782,19.6362817 48.6778894,19.7830795 C48.7108559,19.6951737 47.3055635,19.1534171 47.1729536,19.1187857 C46.4664654,18.9342699 45.747088,18.9716792 45.055286,19.1993454 C43.7544083,19.6274541 42.6356522,20.587504 41.7161827,21.5718145 C41.2439306,22.0773963 40.8306712,22.6362526 40.4798748,23.2316539 C40.3117578,23.5168539 40.1580171,23.8102025 40.0173515,24.109786 C39.9491876,24.254917 39.9040135,24.4364697 39.814223,24.5672172 C39.6984682,24.7356828 39.6206994,24.7388928 39.4110643,24.8123534 C38.3464056,25.1853358 37.3758751,25.8166649 36.6367921,26.669734 C35.8892197,27.5328036 35.4041403,28.5956366 35.2007639,29.7148924 C35.1888042,29.7808218 35.181678,30.0540458 35.1430724,30.0897267 C35.0901524,30.1388651 34.8760557,30.1171355 34.7950646,30.1266422 C34.5146009,30.1595452 34.2361203,30.2084983 33.9613577,30.2735634 C33.4548376,30.3934462 32.9618265,30.5698751 32.4954612,30.8006279 C30.6774671,31.7001191 29.3773949,33.3864414 28.7411156,35.2839475 C28.0734808,37.2752857 28.0853166,39.5567006 28.8832684,41.5108764 C29.0121602,41.8265101 29.165529,42.132884 29.3456677,42.4227139 C29.4562792,42.6006244 29.4919723,42.6010565 29.4201523,42.7877329 C29.3400907,42.995398 29.1938481,43.1971987 29.0987904,43.4001105 C28.7886444,44.0623054 28.5718212,44.7646259 28.4348736,45.4819471 C28.2101805,46.6586133 28.0988254,47.8951591 28.3204821,49.0807763 C28.4234097,49.6312988 28.6027428,50.1694749 28.8763281,50.6598091 C29.0158163,50.9098221 29.1790379,51.1469332 29.3633284,51.3662656 C29.4590058,51.4801604 29.560632,51.5889315 29.6669058,51.6931344 C29.7276956,51.7526437 29.8073854,51.8047452 29.8590661,51.8712301 C29.9852314,52.0333373 30.0117533,51.9000588 29.9466877,52.1380958 C29.8557199,52.4708909 29.649493,52.7992414 29.5232038,53.1230854 C29.3930727,53.4568064 29.2754589,53.7950956 29.1678838,54.1367183 C28.9500071,54.8284827 28.7657785,55.5327786 28.6505815,56.2491739 C28.4293585,57.6246158 28.468212,59.0901859 29.1188058,60.3525355 C29.3969766,60.8925019 29.7960454,61.3661685 30.2800714,61.7346444 C30.516972,61.9149007 30.7735783,62.0702792 31.0427638,62.1978784 C31.1810747,62.2635608 31.3576812,62.2917104 31.4207638,62.4254828 C31.4886799,62.5693175 31.3878592,62.8549496 31.3648694,63.0157604 C31.1648392,64.4147221 31.0645143,65.8835639 31.4803763,67.2544995 C31.8633956,68.5172195 32.7067075,69.6320923 33.8016062,70.3702171 C35.9256564,71.8020817 38.7887895,71.7213368 41.0206007,70.5750426 C41.6023489,70.2761999 42.146607,69.9051929 42.6321201,69.4675775 C43.868428,71.1318616 46.412492,71.0792046 48.219394,70.6049824 C50.4705389,70.0142109 52.2768832,68.4488826 53.3176226,66.3922324 C54.7406997,68.1246064 57.7272715,67.5625402 58.7140994,65.6831832 C58.9556476,65.223221 59.0989158,64.716281 59.1694345,64.2032914 C59.2065529,63.9335242 59.1828814,63.6614113 59.2107666,63.3938048 C59.2463358,63.0527994 59.4741273,62.7214241 59.605064,62.3915304 C59.8600591,61.7495217 60.0183853,61.0863391 60.0252017,60.3938339 C60.0287339,60.0322719 59.9829401,59.6799079 59.9485483,59.3212473 C59.9176266,58.998391 60.0071693,58.6975729 60.0580443,58.3789143 C59.4806958,58.473981 58.777306,58.3182939 58.2333578,58.1508778 C57.6995722,57.98661 57.1996207,57.5539331 56.82286,57.1587891 C55.9480689,56.2412105 55.4136636,55.0383702 55.048181,53.8412091 C54.2458915,51.213665 54.5747515,48.0612171 57.2175912,46.6191668 C58.4487558,45.9474034 62.1371695,45.9496069 63.6035411,46.2816152 C65.1453667,46.6307075 66.8932759,50.0328011 66.9792864,50.3525709 C67.0325163,50.5504824 67.0057464,50.7954334 67.1875582,50.9272921 C67.5871228,51.2172455 68.2460822,50.7140712 68.5407983,50.4657249 C69.0493632,50.0371224 69.4121193,49.4668458 69.726293,48.888791 C70.4108449,47.6294663 70.9627249,46.2789639 71.3525606,44.9003119 C71.6531016,43.8374171 71.8452619,42.7413725 72.2380721,41.7055779 C72.6289613,40.674907 73.2451633,39.7536862 74.2032384,39.1698287 C75.2454649,38.5346722 76.4401309,38.2001486 77.5842935,37.800992 C78.7184175,37.4054159 79.8329598,36.921934 80.7120886,36.0825693 C80.9053644,35.8979918 81.093125,35.7018705 81.2487247,35.4845752 C81.3715437,35.3130231 81.4929375,34.984611 81.6800785,34.8758399 C81.9710146,34.7066335 82.3956139,35.1466564 82.6472008,35.3064178 C83.8884041,36.0947304 84.9239382,37.1941703 85.7591323,38.3952205 C86.5896789,39.5897271 87.271182,40.7391078 87.824983,42.0729426 C88.2357637,43.0621916 88.4921344,44.3291094 89.2146101,45.1398306 C89.5371495,45.5018247 91.934661,45.7208213 92.7112341,45.4047826 C93.4878072,45.088744 94.3581368,44.2681186 94.6187709,43.7538326 C94.8856017,43.2274471 94.9493659,42.6492072 94.8353463,42.0729426 C94.7682977,41.7339127 94.6313502,41.4172295 94.5564318,41.0842492 C94.4933492,40.8045433 94.4360915,40.5401469 94.2999495,40.283899 C94.0419181,39.7983182 93.6010833,39.4492877 93.0694666,39.3033541 C93.6227099,38.7932659 94.0811433,38.1830489 94.3983535,37.5009147 C94.7279571,36.7922359 95.0073053,35.9304009 95.0865614,35.1525827 C95.1510073,34.5208214 95.0515499,33.8662812 94.7057109,33.3233517 C94.3428928,32.7538159 93.7001689,32.3822534 93.1440751,32.026988 C93.9935217,31.3623855 94.720521,30.5541336 95.3181948,29.6592722 C96.4805138,27.9190582 97.1994575,25.7254873 96.6091578,23.6508115 Z"/>
      </g>
      <g transform="translate(0 191.82)">
        <polygon fill="#D4A181" points="125.96 0 172.097 116.773 203.041 215.495 215.26 215.495 167.953 0"/>
        <path fill="#F1C0A6" d="M116.66963,0 C116.17834,41.0349375 109.013523,96.2818204 107.868826,98.8397296 C107.105696,100.545002 80.7611879,122.230517 28.8353033,163.896274 L37.251327,172.902412 C98.5190604,137.179253 130.570512,116.935379 133.405681,112.17079 C137.658435,105.023906 151.503936,39.2573488 162.62,0 L116.66963,0 Z"/>
        <path fill="#E4E4E4" d="M2.5174439,23.8778088 C1.46581463,26.6851062 0.94,28.7856135 0.94,30.1793306 C0.94,31.8744196 1.22238935,34.3479761 1.78716806,37.6 C3.7535903,37.6 21.4261581,37.6 54.8048715,37.6 C56.1826137,33.0452368 55.387301,30.5862667 52.4189335,30.2230898 C49.4505659,29.8599128 46.9846926,29.5319931 45.0213135,29.2393306 L20.3791931,18.2537505 C19.9050297,18.042366 19.3492834,18.2553905 19.137899,18.7295539 C19.1342828,18.7376655 19.1307817,18.745828 19.1273968,18.7540388 L17.5434203,22.5963733 L17.5434203,22.5963733 C14.7954883,23.878493 12.5625083,24.5195529 10.8444803,24.5195529 C9.44862326,24.5195529 7.52093292,23.9558111 5.06140924,22.8283276 L5.06141438,22.8283164 C4.11755977,22.3956389 3.00166002,22.8100299 2.56898253,23.7538845 C2.5503335,23.794566 2.533143,23.8359004 2.5174439,23.8778088 Z" transform="rotate(50 -131.798 119.396)"/>
        <path fill="#E4E4E4" d="M2.5174439,23.8778088 C1.46581463,26.6851062 0.94,28.7856135 0.94,30.1793306 C0.94,31.8744196 1.22238935,34.3479761 1.78716806,37.6 C3.7535903,37.6 21.4261581,37.6 54.8048715,37.6 C56.1826137,33.0452368 55.387301,30.5862667 52.4189335,30.2230898 C49.4505659,29.8599128 46.9846926,29.5319931 45.0213135,29.2393306 L20.3791931,18.2537505 C19.9050297,18.042366 19.3492834,18.2553905 19.137899,18.7295539 C19.1342828,18.7376655 19.1307817,18.745828 19.1273968,18.7540388 L17.5434203,22.5963733 L17.5434203,22.5963733 C14.7954883,23.878493 12.5625083,24.5195529 10.8444803,24.5195529 C9.44862326,24.5195529 7.52093292,23.9558111 5.06140924,22.8283276 L5.06141438,22.8283164 C4.11755977,22.3956389 3.00166002,22.8100299 2.56898253,23.7538845 C2.5503335,23.794566 2.533143,23.8359004 2.5174439,23.8778088 Z" transform="translate(195.52 187.06)"/>
        <polygon fill="#73899D" points="156.98 205.327 215.076 199.022 172.02 0 119.985 0"/>
        <path fill="#A9CCDC" d="M40.8523606,149.36645 L78.96,194.472803 C119.097956,150.634963 142.498488,122.030765 149.161599,108.660208 C155.824709,95.2896516 161.814506,59.0695821 167.13099,0 L108.549457,0 C105.645324,51.9668417 103.687736,79.1593983 102.676693,81.5776698 C101.665651,83.9959412 81.0575398,106.592201 40.8523606,149.36645 Z"/>
      </g>
      <g transform="rotate(3 -1719.528 372.18)">
        <path fill="#F1C0A6" d="M50.5082829,82 L71,86.0658446 C50.3920824,124.471059 39.3404263,144.825845 37.8450319,147.130202 C34.4803944,152.315007 37.6196693,161.817238 38.7793043,166.821179 C35.3384733,167.622131 34.1668668,165.594787 32.9135738,163.477279 L32.6974848,163.113905 C31.3545909,160.873954 29.7702788,158.708095 25.1671562,159.851185 C24.0260035,160.134567 22.9084251,160.478228 21.8094396,160.842481 L21.2118069,161.042969 L21.2118069,161.042969 L20.6176824,161.246109 C20.3214673,161.348105 20.0265003,161.450558 19.7326806,161.552664 L19.1465406,161.756176 C13.2023925,163.815664 7.70467558,165.509853 1.8038784,160.07074 C0.840551592,159.182785 0.135350819,156.407288 3.41981989,154.983749 C6.02344134,153.8553 9.02256595,152.413585 11.9650665,150.889147 L12.8038496,150.451542 C18.798488,147.302092 24.3751777,143.897863 25.6523424,142.218096 C28.3255608,138.702197 36.6108743,118.629498 50.5082829,82 Z M253.188168,51.2551684 L252.816855,51.7996726 C252.755087,51.8906382 252.693398,51.9816932 252.631819,52.0728101 L252.26393,52.6200377 C249.396486,56.9090654 246.912678,61.214599 248.076289,62.7052963 C249.363689,64.3545786 253.093006,62.5342201 254.566345,65.2162765 C255.548571,67.0043141 249.262286,69.1431805 235.707491,71.6328758 L208.56994,92.4392868 L197,77.6170876 L233.234567,61.7041739 C239.582018,55.3790221 245.711387,50.5716141 251.622674,47.2819501 C253.390261,46.7192094 256.410101,46.5491987 253.188168,51.2551684 Z"/>
        <g transform="translate(119 3)">
          <mask id="voty_screen_modul_2_g2-t" fill="#fff">
            <use xlink:href="#voty_screen_modul_2_g2-s"/>
          </mask>
          <g mask="url(#voty_screen_modul_2_g2-t)">
            <g transform="translate(-18 -89)">
              <polyline fill="#302A36" points="100 200 100 100 200 100 200 200"/>
              <polyline fill="#0CBBCD" points="100 200 100 100 0 200"/>
              <polyline fill="#FEFEFE" points="85.479 200 85.479 114.521 83.319 116.681 83.319 200"/>
              <polyline fill="#FEFEFE" points="71.08 200 71.08 128.92 68.92 131.08 68.92 200"/>
              <polyline fill="#FEFEFE" points="78.28 200 78.28 121.72 76.12 123.88 76.12 200"/>
              <polyline fill="#FEFEFE" points="92.68 200 92.68 107.32 90.52 109.48 90.52 200"/>
              <polyline fill="#0CBBCD" points="100 200 100 100 100 0 0 100"/>
              <line x2="100" y1="104" y2="204" fill="#0CBBCD"/>
            </g>
          </g>
        </g>
        <path fill="#DDE3E9" d="M89,114 C123.671756,114 149.175573,114 165.511451,114 C169.007634,114 168.348845,108.951637 167.84345,106.404206 C162.010588,77.0037663 139.241304,45.3115155 139.241304,3.4607303 L117.1718,0 C98.917485,29.3584068 92.6048263,65.5045499 89,114 Z"/>
        <g transform="translate(26)">
          <mask id="voty_screen_modul_2_g2-v" fill="#fff">
            <use xlink:href="#voty_screen_modul_2_g2-u"/>
          </mask>
          <g mask="url(#voty_screen_modul_2_g2-v)">
            <g transform="translate(-88 -7)">
              <g transform="translate(161.756)">
                <mask id="voty_screen_modul_2_g2-x" fill="#fff">
                  <use xlink:href="#voty_screen_modul_2_g2-w"/>
                </mask>
                <polyline fill="#0CBBCD" points="48.375 -.001 32.25 -.001 0 -.001 0 32.266 0 48.399 0 80.666 0 112.933 0 129.066 0 161.333 32.25 161.333 48.375 161.333" mask="url(#voty_screen_modul_2_g2-x)"/>
              </g>
              <path fill="#FEFEFE" d="M199.192158 14.5532347C198.469749 14.5532347 197.800553 14.772648 197.244233 15.1485547 196.318646 15.774528 195.709113 16.834488 195.709113 18.0380347 195.709113 19.2415813 196.318646 20.3015413 197.244233 20.929128 197.800553 21.3050347 198.469749 21.524448 199.192158 21.524448 200.391873 21.524448 201.4513 20.914608 202.07857 19.9869413 202.452675 19.4303413 202.67359 18.7591947 202.67359 18.0380347 202.67359 17.3152613 202.452675 16.645728 202.07857 16.089128 201.4513 15.1614613 200.391873 14.5532347 199.192158 14.5532347M199.192158 107.483009C198.469749 107.483009 197.800553 107.702423 197.244233 108.078329 196.318646 108.704303 195.709113 109.765876 195.709113 110.969423 195.709113 111.697036 195.933254 112.373023 196.317034 112.932849L199.192158 112.932849 202.06567 112.932849C202.068895 112.928009 202.073733 112.923169 202.07857 112.918329 202.452675 112.360116 202.67359 111.690583 202.67359 110.969423 202.67359 110.246649 202.452675 109.575503 202.07857 109.020516 201.4513 108.092849 200.391873 107.483009 199.192158 107.483009M199.192158 84.250364C198.469749 84.250364 197.800553 84.4697773 197.244233 84.845684 196.318646 85.4716573 195.709113 86.5332307 195.709113 87.7367773 195.709113 88.9387107 196.318646 89.9986707 197.244233 90.6262573 197.800553 91.002164 198.469749 91.219964 199.192158 91.219964 200.391873 91.219964 201.4513 90.6117373 202.07857 89.6840707 202.452675 89.1274707 202.67359 88.4579373 202.67359 87.7367773 202.67359 87.014004 202.452675 86.3428573 202.07857 85.7878707 201.4513 84.860204 200.391873 84.250364 199.192158 84.250364M175.971215 14.5532347C174.047478 14.5532347 172.488171 16.113328 172.488171 18.0380347 172.488171 19.9643547 174.047478 21.524448 175.971215 21.524448 177.89334 21.524448 179.45426 19.9643547 179.45426 18.0380347 179.45426 16.113328 177.89334 14.5532347 175.971215 14.5532347M164.360744 2.93852533C163.319056 2.93852533 162.395081 3.40477867 161.756523 4.12916533L161.756523 8.71425867C162.395081 9.43864533 163.319056 9.90489867 164.360744 9.90489867 166.282869 9.90489867 167.843789 8.34641867 167.843789 6.42009867 167.843789 4.49861867 166.282869 2.93852533 164.360744 2.93852533M187.581687 2.93852533C185.65795 2.93852533 184.098642 4.49861867 184.098642 6.42009867 184.098642 8.34641867 185.65795 9.90489867 187.581687 9.90489867 189.502199 9.90489867 191.064731 8.34641867 191.064731 6.42009867 191.064731 4.49861867 189.502199 2.93852533 187.581687 2.93852533M175.971215 107.483009C174.047478 107.483009 172.488171 109.043103 172.488171 110.969423 172.488171 112.894129 174.047478 114.454223 175.971215 114.454223 177.89334 114.454223 179.45426 112.894129 179.45426 110.969423 179.45426 109.043103 177.89334 107.483009 175.971215 107.483009M175.971215 84.250364C174.047478 84.250364 172.488171 85.8104573 172.488171 87.7367773 172.488171 89.661484 174.047478 91.219964 175.971215 91.219964 177.89334 91.219964 179.45426 89.661484 179.45426 87.7367773 179.45426 85.8104573 177.89334 84.250364 175.971215 84.250364M164.360744 95.8689453C163.319056 95.8689453 162.395081 96.3351987 161.756523 97.0595853L161.756523 101.644679C162.395081 102.369065 163.319056 102.835319 164.360744 102.835319 166.282869 102.835319 167.843789 101.275225 167.843789 99.3505187 167.843789 97.4290387 166.282869 95.8689453 164.360744 95.8689453M187.581687 95.8689453C185.65795 95.8689453 184.098642 97.4290387 184.098642 99.3505187 184.098642 101.275225 185.65795 102.835319 187.581687 102.835319 189.502199 102.835319 191.064731 101.275225 191.064731 99.3505187 191.064731 97.4290387 189.502199 95.8689453 187.581687 95.8689453M164.360744 72.6363C163.319056 72.6363 162.395081 73.1025533 161.756523 73.82694L161.756523 78.4120333C162.395081 79.13642 163.319056 79.6026733 164.360744 79.6026733 166.282869 79.6026733 167.843789 78.04258 167.843789 76.1211 167.843789 74.1963933 166.282869 72.6363 164.360744 72.6363M187.581687 72.6363C185.65795 72.6363 184.098642 74.1963933 184.098642 76.1211 184.098642 78.04258 185.65795 79.6026733 187.581687 79.6026733 189.502199 79.6026733 191.064731 78.04258 191.064731 76.1211 191.064731 74.1963933 189.502199 72.6363 187.581687 72.6363M199.192158 153.948139C198.469749 153.948139 197.800553 154.167552 197.244233 154.543459 196.318646 155.169432 195.709113 156.231005 195.709113 157.432939 195.709113 158.636485 196.318646 159.698059 197.244233 160.324032 197.800553 160.701552 198.469749 160.919352 199.192158 160.919352 200.391873 160.919352 201.4513 160.309512 202.07857 159.383459 202.452675 158.825245 202.67359 158.155712 202.67359 157.432939 202.67359 156.711779 202.452675 156.040632 202.07857 155.485645 201.4513 154.557979 200.391873 153.948139 199.192158 153.948139M199.192158 130.715493C198.469749 130.715493 197.800553 130.934907 197.244233 131.310813 196.318646 131.936787 195.709113 132.99836 195.709113 134.200293 195.709113 135.40384 196.318646 136.4638 197.244233 137.091387 197.800553 137.467293 198.469749 137.685093 199.192158 137.685093 200.391873 137.685093 201.4513 137.076867 202.07857 136.1492 202.452675 135.5926 202.67359 134.923067 202.67359 134.200293 202.67359 133.479133 202.452675 132.807987 202.07857 132.253 201.4513 131.325333 200.391873 130.715493 199.192158 130.715493M175.971215 153.948139C174.047478 153.948139 172.488171 155.508232 172.488171 157.432939 172.488171 159.359259 174.047478 160.919352 175.971215 160.919352 177.89334 160.919352 179.45426 159.359259 179.45426 157.432939 179.45426 155.508232 177.89334 153.948139 175.971215 153.948139M175.971215 130.715493C174.047478 130.715493 172.488171 132.275587 172.488171 134.200293 172.488171 136.126613 174.047478 137.685093 175.971215 137.685093 177.89334 137.685093 179.45426 136.126613 179.45426 134.200293 179.45426 132.275587 177.89334 130.715493 175.971215 130.715493M164.360744 142.334236C163.319056 142.334236 162.395081 142.800489 161.756523 143.524876L161.756523 148.109969C162.395081 148.834356 163.319056 149.300609 164.360744 149.300609 166.282869 149.300609 167.843789 147.740516 167.843789 145.815809 167.843789 143.894329 166.282869 142.334236 164.360744 142.334236M187.581687 142.334236C185.65795 142.334236 184.098642 143.894329 184.098642 145.815809 184.098642 147.740516 185.65795 149.300609 187.581687 149.300609 189.502199 149.300609 191.064731 147.740516 191.064731 145.815809 191.064731 143.894329 189.502199 142.334236 187.581687 142.334236M164.360744 119.101591C163.319056 119.101591 162.395081 119.567844 161.756523 120.292231L161.756523 124.877324C162.395081 125.601711 163.319056 126.067964 164.360744 126.067964 166.282869 126.067964 167.843789 124.507871 167.843789 122.586391 167.843789 120.661684 166.282869 119.101591 164.360744 119.101591M187.581687 119.101591C185.65795 119.101591 184.098642 120.661684 184.098642 122.586391 184.098642 124.507871 185.65795 126.067964 187.581687 126.067964 189.502199 126.067964 191.064731 124.507871 191.064731 122.586391 191.064731 120.661684 189.502199 119.101591 187.581687 119.101591M199.192158 61.0185253C198.469749 61.0185253 197.800553 61.2379387 197.244233 61.6138453 196.318646 62.2398187 195.709113 63.2997787 195.709113 64.5033253 195.709113 65.706872 196.318646 66.766832 197.244233 67.3944187 197.800553 67.7703253 198.469749 67.9897387 199.192158 67.9897387 200.391873 67.9897387 201.4513 67.3798987 202.07857 66.452232 202.452675 65.895632 202.67359 65.2244853 202.67359 64.5033253 202.67359 63.780552 202.452675 63.1110187 202.07857 62.5544187 201.4513 61.626752 200.391873 61.0185253 199.192158 61.0185253M175.971215 61.0185253C174.047478 61.0185253 172.488171 62.5786187 172.488171 64.5033253 172.488171 66.428032 174.047478 67.9897387 175.971215 67.9897387 177.89334 67.9897387 179.45426 66.428032 179.45426 64.5033253 179.45426 62.5786187 177.89334 61.0185253 175.971215 61.0185253M175.971215 37.78588C174.047478 37.78588 172.488171 39.3459733 172.488171 41.27068 172.488171 43.1953867 174.047478 44.75548 175.971215 44.75548 177.89334 44.75548 179.45426 43.1953867 179.45426 41.27068 179.45426 39.3459733 177.89334 37.78588 175.971215 37.78588M164.360744 49.403816C163.319056 49.403816 162.395081 49.8700693 161.756523 50.594456L161.756523 55.1795493C162.395081 55.903936 163.319056 56.3701893 164.360744 56.3701893 166.282869 56.3701893 167.843789 54.8117093 167.843789 52.8853893 167.843789 50.9639093 166.282869 49.403816 164.360744 49.403816M187.581687 49.403816C185.65795 49.403816 184.098642 50.9639093 184.098642 52.8853893 184.098642 54.8117093 185.65795 56.3701893 187.581687 56.3701893 189.502199 56.3701893 191.064731 54.8117093 191.064731 52.8853893 191.064731 50.9639093 189.502199 49.403816 187.581687 49.403816M164.360744 26.1711707C163.319056 26.1711707 162.395081 26.637424 161.756523 27.3618107L161.756523 31.946904C162.395081 32.6712907 163.319056 33.137544 164.360744 33.137544 166.282869 33.137544 167.843789 31.579064 167.843789 29.6559707 167.843789 27.731264 166.282869 26.1711707 164.360744 26.1711707M187.581687 26.1711707C185.65795 26.1711707 184.098642 27.731264 184.098642 29.6559707 184.098642 31.579064 185.65795 33.137544 187.581687 33.137544 189.502199 33.137544 191.064731 31.579064 191.064731 29.6559707 191.064731 27.731264 189.502199 26.1711707 187.581687 26.1711707"/>
              <polyline fill="#302A36" points=".504 483.999 .504 322.666 161.756 322.666 161.756 483.999"/>
              <polyline fill="#E52A41" points=".504 483.999 .504 322.666 32.754 322.666 32.754 483.999"/>
              <polyline fill="#0CBBCD" points="65.005 483.999 65.005 322.666 97.255 322.666 97.255 483.999"/>
              <polygon fill="#0CBBCD" points="161.756 322.666 161.756 241.999 81.13 322.666"/>
              <polygon fill="#302A36" points=".504 161.333 161.756 161.333 161.756 0 .504 0"/>
              <polygon fill="#0CBBCD" points="161.756 161.333 81.107 161.333 .504 80.641 .523 0"/>
              <polygon fill="#0CBBCD" points="162.756 -.001 162.756 80.666 82.13 -.001"/>
            </g>
          </g>
        </g>
      </g>
    </g>
  </g>
</svg>
