<svg xmlns="http://www.w3.org/2000/svg" xmlns:xlink="http://www.w3.org/1999/xlink" width="607" height="543" viewBox="0 0 607 543">
  <defs>
    <path id="voty_screen_modul_1_g2-a" d="M14.3961708,0.000470352447 C20.2835133,-0.0467985551 25.615446,3.47237161 27.8914439,8.90356909 C30.1674418,14.3347666 28.9313599,20.6026237 24.7693326,24.7670145 C20.6049418,28.9314052 14.3370847,30.1651237 8.90588722,27.8891258 C3.47232629,25.6154914 -0.0444804289,20.2835586 0.000425033316,14.3938527 C0.0642380585,6.46922035 6.47153848,0.0619199323 14.3961708,0.000470352447 Z"/>
    <path id="voty_screen_modul_1_g2-b" d="M71.9730091,0.000470352447 C77.8603515,-0.0467985551 83.1946477,3.47237161 85.4682822,8.90356909 C87.7442801,14.3347666 86.5081981,20.6026237 82.3461708,24.7670145 C78.1817801,28.9314052 71.9139229,30.1651237 66.4827255,27.8891258 C61.0491645,25.6154914 57.5323578,20.2835586 57.5772633,14.3938527 C57.6410763,6.46922035 64.0483767,0.0619199323 71.9730091,0.000470352447 Z"/>
    <path id="voty_screen_modul_1_g2-c" d="M129.549611,0.000470352447 C135.436953,-0.0467985551 140.77125,3.47237161 143.044884,8.90356909 C145.320882,14.3347666 144.0848,20.6026237 139.922773,24.7670145 C135.758382,28.9314052 129.490525,30.1651237 124.059327,27.8891258 C118.62813,25.6154914 115.10896,20.2835586 115.153865,14.3938527 C115.217678,6.46922035 121.624979,0.0619199323 129.549611,0.000470352447 Z"/>
    <filter id="voty_screen_modul_1_g2-d">
      <feColorMatrix in="SourceGraphic" values="0 0 0 0 0.079914 0 0 0 0 0.482360 0 0 0 0 0.237152 0 0 0 1.000000 0"/>
    </filter>
    <filter id="voty_screen_modul_1_g2-e">
      <feColorMatrix in="SourceGraphic" values="0 0 0 0 0.079914 0 0 0 0 0.482360 0 0 0 0 0.237152 0 0 0 1.000000 0"/>
    </filter>
    <path id="voty_screen_modul_1_g2-f" d="M4.28024685,6.87718027 L12.7651984,4.64600959 C33.1201354,21.2050747 44.6023664,64.2616718 57.6126696,68.9556463 C69.9133848,73.3936093 86.2085933,66.6320097 105.503164,57.7390322 L112.796052,70.8353428 C96.4098261,92.0000245 59.2986117,111.916545 42.8429403,103.839809 C16.5337423,90.9267871 6.04680375,37.501408 4.28024685,6.87718027 Z"/>
    <path id="voty_screen_modul_1_g2-h" d="M98.486398,0 C118.298923,67.5369477 123.760885,112.536948 114.872285,135 L114.872285,135 L46,135 C47.0896915,118.562494 50.5838029,101.179176 55.3695915,84.2302075 C39.7719945,112.366884 26.6611932,132.623153 16.0374452,145 L1.42108547e-14,141.85882 C10.3305927,77.7906722 40.2466105,30.5043988 89.7480534,-9.9475983e-14 Z"/>
  </defs>
  <g fill="none" fill-rule="evenodd" transform="translate(-33 5)">
    <g transform="translate(496)">
      <path fill="#69A1AC" d="M120.980481,0.659775373 C117.569531,-0.0853801391 113.803318,-0.0283494469 110.328853,0.0331207603 C91.6953105,0.286514614 73.3974882,9.10851385 61.4888276,23.2046569 C51.3509016,35.2050073 48.5632336,50.1248511 46.5604261,65.2069079 C46.3618554,66.7043905 46.2767038,68.192311 46.1646806,69.6928671 C46.1406008,70.0149026 46.1046557,70.3021051 46.0662677,70.572574 C45.2786154,71.2767494 44.8654207,72.0977182 45.3316606,72.9996227 C43.5965223,76.796774 42.1287042,80.6902286 40.8692283,84.7059407 C37.1623418,96.5259785 33.3915917,108.570724 35.7144157,121 C36.2570826,114.160073 37.3986026,107.165788 38.7638201,100.438216 C38.842341,100.051978 38.9271436,99.6688136 39.0154361,99.2870153 C39.0245096,99.2467182 39.0328852,99.206421 39.0419587,99.1664654 C39.5252987,97.106189 40.1534663,95.1077242 40.9173878,93.1406776 C40.9254144,93.119163 40.933092,93.09799 40.9414675,93.0768169 C41.0423233,92.817959 41.1494608,92.5604671 41.2552023,92.3029753 C41.474014,91.769892 41.6987584,91.2378332 41.9371131,90.7085064 C42.0177279,90.5281938 42.0952019,90.3461737 42.1695351,90.1627876 C43.2817406,87.4369254 43.7514703,84.365464 44.7478138,81.545006 C44.9861685,80.9036668 45.2353416,80.2647182 45.4963801,79.6291846 C45.5117353,79.5919609 45.5274395,79.5547373 45.5431437,79.5175137 C46.2487852,77.8072759 47.028411,76.1178697 47.8527064,74.4462216 C48.3007992,74.1095014 48.5402008,73.2741896 48.9265239,72.5150326 C49.0064407,72.3654551 49.6311184,71.3679302 49.8171258,70.7931838 C50.3025597,69.8540556 50.7862487,68.9145859 51.2751725,67.9771653 C51.2605152,67.9826293 51.245858,67.9880933 51.2312007,67.9935573 C51.7204735,67.0933603 52.2111421,66.1969198 52.6979719,65.3042358 C52.8051094,65.1082141 52.9132938,64.9118509 53.0211292,64.7151463 C53.1959692,64.4019897 53.3708092,64.0891747 53.5453002,63.7770426 C55.1774888,60.8561833 56.9080904,57.9937206 58.7053475,55.1667741 C59.3467763,54.1579797 60.8791561,52.7113808 61.1729989,51.5786215 C61.1838174,51.5362754 61.1862603,51.4973442 61.1928909,51.4567056 C65.0927644,45.9793686 69.5824173,40.9272006 74.9665111,36.9241241 C74.3156597,37.6276165 72.9322952,40.015051 72.5665621,40.4876886 C71.4473769,41.9349705 70.2322217,43.2821925 69.0125298,44.6458066 C66.8282517,47.0885644 64.6956229,49.6088429 62.8006508,52.2739178 C59.3352599,57.1478223 56.3455314,62.2771696 53.5194755,67.5096502 C53.4926039,67.5403853 53.4632894,67.5694129 53.4378137,67.600831 C52.0174571,69.3517074 51.1233653,71.9979998 50.1008482,74.0009041 C54.147294,72.1267458 58.6215918,70.9058791 62.7744772,69.241744 C66.9158461,67.5827314 70.9444939,65.7352102 74.8338979,63.5656534 C80.0033678,60.6823592 85.3658246,57.4268287 90.2501762,53.7427143 C95.8474979,50.2706721 100.551077,45.491705 104.702915,40.4767606 C109.615185,34.5431781 114.117053,28.5576874 116.901231,21.3530376 C118.268891,17.8126952 119.344803,14.1210677 119.982742,10.3864112 C120.01066,10.2235151 120.046256,10.046959 120.084993,9.8635729 C120.73759,8.57372305 121.321087,7.2548456 121.810709,5.90557455 C122.588241,3.76572834 124.424584,1.41176091 120.980481,0.659775373"/>
      <path fill="#C1DEE2" d="M127.985552,66.3755429 C124.041234,63.700897 118.796053,63 114.075943,63 C95.6400811,63 78.3112274,69.8400486 63.3411361,80.0318686 C55.1382704,85.6163535 47.8001859,92.7279727 41.3217129,100.132413 C37.5823286,104.406588 34.2480105,109.030491 31.8874019,114.173043 C30.2944619,117.644032 29.2011157,121.260531 28.4600331,124.990844 C27.5568501,129.53695 26.8393994,134.17526 26.5148296,138.797002 C26.3870694,140.616957 25.3295404,150.27428 28.3555356,150.437799 C28.3381809,150.675873 28.3341192,150.902782 28.3525816,151.10628 C21.7821656,161.379859 17.7226426,173.420088 13.9581494,184.835416 C10.6829112,194.768992 7.76436737,204.786488 5.86975096,215.062949 C3.37547423,228.592494 1.7371166,242.325536 0.958001292,256.049575 C0.790731513,258.999033 0.675895087,261.949932 0.576936366,264.903351 C0.493116852,267.422403 0.408189591,269.941454 0.325477824,272.460505 C0.233165584,275.283542 -0.263843516,278.533745 0.185163219,281.340214 C0.575828619,283.784349 2.69125591,283.414451 2.7846759,280.982202 C2.89766608,278.04499 2.87920363,275.102015 3.00770227,272.162642 C3.17866454,268.261606 3.35479629,264.360571 3.545698,260.460615 C4.87462501,233.36875 9.86022447,206.675236 19.0611701,181.084213 C22.7846766,170.728154 27.0513483,160.9246 32.5350646,151.344715 C37.3563483,142.921705 43.1557724,134.767384 49.0836952,127.172773 C54.845456,119.792465 60.8357819,112.582879 67.8954528,106.329912 C73.6243504,101.255793 79.9259531,96.8353874 86.4036876,92.7222099 C94.631293,87.4982583 102.843021,82.4010877 111.755213,78.3909197 C116.387811,76.3065976 121.10792,74.4405404 125.776704,72.4404988 C126.616746,72.0806858 127.517344,71.731678 128.325261,71.3149577 C131.020409,69.9250494 130.133103,67.831723 127.985552,66.3755429"/>
      <path fill="#89C5CC" d="M68.1822003,161 C60.7049106,161 54.05129,161.971586 47.1617895,164.943116 C41.2147665,167.507723 35.7950863,170.902835 30.5331226,174.599146 C23.1315646,179.797709 17.3016131,185.848195 13.220786,193.86497 C10.782781,198.65423 8.99440119,205.431196 10.631665,210.654916 C12.5603917,216.807388 17.8560525,221.93864 24.8306644,220.85453 C29.14355,220.184822 33.0972312,217.329896 36.3752328,214.642906 C40.2966064,211.428309 43.4356508,207.563042 46.0275509,203.270114 C50.2556727,196.267419 52.7402283,188.35093 56.3319259,181.033439 C58.0362366,177.560477 59.6832274,174.062699 61.7245094,170.762094 C62.735076,169.1276 63.8109525,167.508743 65.3439984,166.29409 C66.1641936,165.64444 69.6224922,164.519875 68.2999665,163.060796 C87.6904088,163.315421 104.868304,178.207408 108.590622,196.640687 C108.93732,198.358811 109.208287,200.090872 109.494539,201.819534 C109.675183,202.911123 109.60223,206.936508 110.578058,207.633752 C112.730158,209.17204 111.825546,204.499044 111.73314,203.826277 C111.494481,202.087417 111.239842,200.349916 110.972696,198.615475 C109.519203,189.181436 105.319221,180.411324 98.3150803,173.683312 C90.3055843,165.989832 79.4988788,161 68.1822003,161" transform="matrix(-1 0 0 1 122 0)"/>
    </g>
    <g transform="scale(-1 1) rotate(-34 567.722 521.106)">
      <path fill="#69A1AC" d="M138.391232,7.9815142 C136.190393,7.50261969 133.760328,7.53927202 131.518508,7.57877752 C119.495632,7.741628 107.689373,13.4113264 100.005576,22.4705972 C93.4643067,30.1829498 91.6656265,39.7715944 90.3733599,49.4644896 C90.2452365,50.4268876 90.1902944,51.3831403 90.1180139,52.3475136 C90.102477,52.5544785 90.0792842,52.739057 90.0545152,52.9128812 C89.5463002,53.3654387 89.2796956,53.8930567 89.5805265,54.4726903 C88.4609674,56.9130331 87.5138906,59.4152679 86.701242,61.9960748 C84.3094567,69.5925445 81.8764647,77.3334288 83.3752147,85.321442 C83.7253584,80.9255767 84.4618986,76.4305086 85.3427746,72.1068505 C85.3934385,71.8586242 85.4481554,71.6123732 85.5051242,71.3670002 C85.5109787,71.3411021 85.5163828,71.3152041 85.5222373,71.2895255 C85.8341016,69.9654326 86.2394126,68.6810647 86.7323159,67.4168886 C86.7374948,67.4030617 86.7424486,67.3894542 86.7478528,67.3758467 C86.8129277,67.2094847 86.8820558,67.0440005 86.9502831,66.8785163 C87.0914665,66.5359158 87.2364777,66.1939737 87.3902708,65.8537874 C87.4422857,65.7379046 87.492274,65.6209244 87.5402358,65.5030663 C88.2578615,63.7512166 88.5609441,61.7772582 89.2038124,59.9646139 C89.3576054,59.5524398 89.5183788,59.1418021 89.686808,58.733359 C89.6967156,58.7094362 89.7068484,58.6855135 89.7169812,58.6615907 C90.1722806,57.5624597 90.6753166,56.4767168 91.2071747,55.4023865 C91.4962966,55.1859841 91.6507651,54.6491482 91.9000314,54.1612552 C91.9515959,54.0651251 92.3546552,53.4240386 92.4746723,53.0546621 C92.7878877,52.4511058 93.0999772,51.84733 93.4154442,51.244871 C93.405987,51.2483826 93.3965297,51.2518942 93.3870725,51.2554058 C93.7027647,50.6768696 94.0193577,50.1007477 94.3334737,49.52704 C94.4026018,49.4010613 94.4724053,49.2748631 94.5419837,49.1484455 C94.6547953,48.9471869 94.7676068,48.7461478 94.8801932,48.5455476 C95.9333264,46.6683777 97.0499582,44.828738 98.2095981,43.0119237 C98.6234657,42.3635945 99.6121994,41.4338982 99.8017949,40.7058996 C99.8087753,40.6786847 99.8103515,40.6536645 99.8146297,40.627547 C102.330936,37.107387 105.227784,33.8604734 108.701749,31.2877871 C108.281802,31.7399056 107.389217,33.2742556 107.153236,33.578009 C106.431107,34.5081442 105.647055,35.3739732 104.860076,36.250337 C103.45072,37.8202419 102.074689,39.4399676 100.852001,41.1527507 C98.616035,44.2850983 96.6869797,47.5816133 94.8635305,50.9444097 C94.8461922,50.9641624 94.8272776,50.9828178 94.81084,51.0030095 C93.8943868,52.128258 93.3174941,53.82897 92.6577378,55.1161911 C95.2686163,53.9117121 98.1555566,53.1270889 100.835113,52.057587 C103.507238,50.9913774 106.106633,49.8040174 108.616184,48.4096926 C111.951668,46.5566649 115.411673,44.4644094 118.563192,42.0967128 C122.174738,39.8653102 125.209617,36.7939766 127.888498,33.5709858 C131.05803,29.7576072 133.962759,25.9108683 135.759187,21.2806036 C136.641639,19.005306 137.335847,16.6327809 137.747463,14.232602 C137.765477,14.1279124 137.788444,14.0144438 137.813439,13.8965857 C138.234512,13.0676285 138.611001,12.220016 138.926918,11.3528701 C139.428603,9.9776396 140.613462,8.46479822 138.391232,7.9815142" transform="rotate(19 111.304 46.44)"/>
      <path fill="#C1DEE2" d="M151.972177,61.2313047 C152.457923,62.832986 152.052698,64.2424889 150.13618,63.8451908 C149.561642,63.7261298 148.968119,63.535505 148.400582,63.3748778 C145.246217,62.4822801 142.12053,61.5016856 138.950082,60.6660242 C132.85063,59.0585532 126.661001,58.2803005 120.411909,57.5591545 C115.491782,56.9915198 110.535209,56.6493856 105.600375,56.8674137 C99.5191522,57.1361746 93.5857504,58.318533 87.6976533,59.6792494 C81.6391561,61.079941 75.4177611,62.8133596 69.5778766,65.0785135 C62.9357787,67.6546811 56.8133178,70.8369922 50.7388892,74.5167419 C35.7284072,83.6099403 22.3845837,94.9668885 10.7132007,108.007844 C9.03327149,109.885291 7.36031226,111.769275 5.68994613,113.655358 C4.43150968,115.076624 3.24532848,116.559349 1.99554916,117.985826 C0.96070349,119.167124 -0.250685503,118.493845 0.546162377,117.110088 C1.46092609,115.521022 3.03047344,114.093533 4.22350227,112.715895 C5.28823555,111.486739 6.35408015,110.258483 7.4193691,109.029777 C8.66869362,107.58948 9.92495856,106.156891 11.2069398,104.746309 C17.1724896,98.1830914 23.572708,91.9641461 30.3196095,86.194645 C35.4443014,81.8124088 40.9774216,77.9756191 46.6553774,74.3256865 C53.1806429,70.1315921 60.1077364,65.7440118 67.5767218,63.2612305 C67.6501219,63.1517284 67.7443303,63.0396339 67.849742,62.9273385 C66.3982709,61.6170527 70.85157,57.2053807 71.6549261,56.3449487 C73.695097,54.1599485 75.9390737,52.1261222 78.2387635,50.2139083 C80.1257644,48.6448281 82.1432352,47.2757917 84.3522047,46.1824915 C87.6252428,44.5628968 91.1760344,43.5985367 94.7879541,42.9739109 C101.045369,41.8920274 107.615036,41.3058622 113.998167,41.8362405 C125.647368,42.804057 137.118269,46.4094969 146.366023,53.8930213 C148.733714,55.8090182 151.080084,58.2894936 151.972177,61.2313047 Z"/>
      <path fill="#89C5CC" d="M79.9308324,62.8312946 C84.771838,62.8312946 89.0795772,63.4609143 93.5400317,65.3865639 C97.3903,67.0485133 100.899152,69.2486577 104.305894,71.6439886 C109.097869,75.0128288 112.872341,78.9337429 115.514383,84.128877 C117.092815,87.2324751 118.250662,91.6241721 117.190652,95.0093146 C115.94194,98.996319 112.513382,102.32154 107.997824,101.619 C105.205542,101.185008 102.645818,99.3349213 100.523549,97.5936636 C97.9847424,95.510499 95.9524377,93.0056786 94.2743694,90.2237197 C91.5369656,85.685743 89.9283951,80.5555976 87.6030301,75.8136223 C86.4996119,73.5630291 85.4333041,71.2963539 84.1117213,69.1574531 C83.4574523,68.0982467 82.7608999,67.0491742 81.7683633,66.2620394 C81.2373461,65.8410445 78.9983473,65.1122893 79.8545872,64.1667582 C67.3006749,64.3317635 56.1792271,73.9822615 53.7692951,85.9276333 C53.544833,87.0410337 53.3694016,88.1634664 53.1840742,89.2836961 C53.0671199,89.991082 53.1143514,92.5996641 52.4825737,93.0515011 C51.0892439,94.0483624 51.6749147,91.0201072 51.7347413,90.5841319 C51.8892559,89.4572931 52.0541163,88.3313356 52.2270737,87.2073608 C53.1681054,81.0937925 55.8872913,75.4104718 60.4219668,71.0504981 C65.6075375,66.0648701 72.6040996,62.8312946 79.9308324,62.8312946 Z"/>
    </g>
    <g transform="translate(94 96)">
      <g stroke-width="11.029">
        <path fill="#F5FCFF" stroke="#DDE3E9" d="M427.783613,81.144958 L427.783613,334.033613 C427.783613,343.823325 423.815549,352.686245 417.400057,359.101737 C410.984564,365.51723 402.121644,369.485294 392.331933,369.485294 L392.331933,369.485294 L40.9663866,369.485294 C31.1766753,369.485294 22.3137551,365.51723 15.8982627,359.101737 C9.4827704,352.686245 5.51470588,343.823325 5.51470588,334.033613 L5.51470588,334.033613 L5.51470588,81.144958 L427.783613,81.144958 Z"/>
        <path fill="#C5CFD6" stroke="#C5CFD6" d="M427.783613,5.51470588 L427.783613,45.6932773 C427.783613,55.4829886 423.815549,64.3459088 417.400057,70.7614011 C410.984564,77.1768935 402.121644,81.144958 392.331933,81.144958 L392.331933,81.144958 L40.9663866,81.144958 C31.1766753,81.144958 22.3137551,77.1768935 15.8982627,70.7614011 C9.4827704,64.3459088 5.51470588,55.4829886 5.51470588,45.6932773 L5.51470588,45.6932773 L5.51470588,5.51470588 L427.783613,5.51470588 Z" transform="rotate(-180 216.65 43.33)"/>
      </g>
      <g fill="#DDE3E9" transform="translate(53.088 131.353)">
        <rect width="100" height="100" x=".912" y=".647" rx="14.273"/>
        <rect width="100" height="100" x=".912" y="113.647" rx="14.273"/>
        <rect width="100" height="100" x="114.912" y=".647" rx="14.273"/>
        <rect width="100" height="100" x="114.504" y="114.445" rx="14.273"/>
        <rect width="100" height="100" x="230.912" y=".647" rx="14.273"/>
        <rect width="100" height="100" x="231.008" y="114.445" rx="14.273"/>
      </g>
      <g stroke="#A9CCDC" stroke-linecap="round" stroke-linejoin="round" stroke-width="5.864" transform="translate(184.088 152.353)">
        <path d="M23.4491315 53.9330025L14.0694789 60.9677419 14.0694789 46.898263 4.6898263 46.898263C2.09970676 46.898263 0 44.7985563 0 42.2084367L0 4.6898263C0 2.09970676 2.09970676 0 4.6898263 0L56.2779156 0C58.8680352 0 60.9677419 2.09970676 60.9677419 4.6898263L60.9677419 18.7593052M15.8064516 31.0483871C18.82433 32.6266185 22.0563997 33.767349 25.4032258 34.4354839"/>
        <line x1="18.629" x2="18.629" y1="13.548" y2="18.629"/>
        <line x1="42.339" x2="42.339" y1="13.548" y2="18.629"/>
        <polygon points="70 55.887 60.685 55.887 60.685 70 46.714 55.887 32.742 55.887 32.742 27.661 70 27.661"/>
        <path d="M42.3387097 41.0685484C41.637219 41.0685484 41.0685484 41.637219 41.0685484 42.3387097 41.0685484 43.0402004 41.637219 43.608871 42.3387097 43.608871 43.0402004 43.608871 43.608871 43.0402004 43.608871 42.3387097 43.608871 41.637219 43.0402004 41.0685484 42.3387097 41.0685484M51.3709677 41.0685484C50.669477 41.0685484 50.1008065 41.637219 50.1008065 42.3387097 50.1008065 43.0402004 50.669477 43.608871 51.3709677 43.608871 52.0724585 43.608871 52.641129 43.0402004 52.641129 42.3387097 52.641129 41.637219 52.0724585 41.0685484 51.3709677 41.0685484M60.9677419 41.0685484C60.2662512 41.0685484 59.6975806 41.637219 59.6975806 42.3387097 59.6975806 43.0402004 60.2662512 43.608871 60.9677419 43.608871 61.6692326 43.608871 62.2379032 43.0402004 62.2379032 42.3387097 62.2379032 41.637219 61.6692326 41.0685484 60.9677419 41.0685484"/>
      </g>
      <g transform="translate(35.392 30.674)">
        <use fill="#D8D8D8" xlink:href="#voty_screen_modul_1_g2-a"/>
        <use fill="#98AAB2" xlink:href="#voty_screen_modul_1_g2-a"/>
        <use fill="#D8D8D8" xlink:href="#voty_screen_modul_1_g2-b"/>
        <use fill="#98AAB2" xlink:href="#voty_screen_modul_1_g2-b"/>
        <use fill="#D8D8D8" xlink:href="#voty_screen_modul_1_g2-c"/>
        <use fill="#98AAB2" xlink:href="#voty_screen_modul_1_g2-c"/>
        <line x1="4.362" x2="359.108" y1="79.257" y2="78.826" stroke="#DDE3E9" stroke-linecap="round" stroke-linejoin="round" stroke-width="11.817"/>
      </g>
      <g stroke="#A9CCDC" stroke-linecap="round" stroke-linejoin="round" stroke-width="5.073" transform="translate(184.088 260.353)">
        <path d="M3.79844961 52.1050818C3.79844961 55.0130575 5.34983614 57.7001379 7.86821702 59.1541258 10.3865979 60.6081137 13.4893711 60.6081137 16.007752 59.1541258 18.5261328 57.7001379 20.0775194 55.0130575 20.0775194 52.1050818 20.0775194 49.1971061 18.5261328 46.5100257 16.007752 45.0560378 13.4893711 43.60205 10.3865979 43.60205 7.86821702 45.0560378 5.34983614 46.5100257 3.79844961 49.1971061 3.79844961 52.1050818L3.79844961 52.1050818zM23.3333333 69.4694229C21.0353923 65.4613862 16.5497914 62.957795 11.6666667 62.957795 6.78354195 62.957795 2.29794104 65.4613862 0 69.4694229M27.1317829 52.1050818C27.1317829 56.6004228 30.7759768 60.2446167 35.2713178 60.2446167 39.7666588 60.2446167 43.4108527 56.6004228 43.4108527 52.1050818 43.4108527 47.6097408 39.7666588 43.9655469 35.2713178 43.9655469 30.7759768 43.9655469 27.1317829 47.6097408 27.1317829 52.1050818L27.1317829 52.1050818zM46.6666667 69.4694229C44.3687256 65.4613862 39.8831247 62.957795 35 62.957795 30.1168753 62.957795 25.6312744 65.4613862 23.3333333 69.4694229M50.4651163 52.1050818C50.4651163 56.6004228 54.1093102 60.2446167 58.6046512 60.2446167 63.0999921 60.2446167 66.744186 56.6004228 66.744186 52.1050818 66.744186 47.6097408 63.0999921 43.9655469 58.6046512 43.9655469 54.1093102 43.9655469 50.4651163 47.6097408 50.4651163 52.1050818L50.4651163 52.1050818zM70 69.4694229C67.702059 65.4613862 63.216458 62.957795 58.3333333 62.957795 53.4502086 62.957795 48.9646077 65.4613862 46.6666667 69.4694229M18.4496124 34.7407407L4.6124031 34.7407407C2.06504321 34.7407407 0 32.6675993 0 30.1102498L0 4.64254953C0 2.08519999 2.06504321.0120585702 4.6124031.0120585702L18.4496124.0120585702M43.9534884.0120585702L64.820296.0120585702C67.3812781.0120585702 69.4573643 2.08519999 69.4573643 4.64254953L69.4573643 30.1102498C69.4573643 32.6675993 67.3812781 34.7407407 64.820296 34.7407407L43.9534884 34.7407407"/>
        <polygon points="28.217 6.524 28.217 29.857 46.667 18.19"/>
      </g>
      <g stroke="#A9CCDC" stroke-linecap="round" stroke-linejoin="round" stroke-width="5.293" transform="translate(70.66 146.782)">
        <path d="M21.242602,62.7547303 L4.95776602,62.7547303 C2.3895574,62.7547303 0.307612959,60.6050804 0.307612959,57.9533528 L0.307612959,5.13819969 C0.307612959,2.48647209 2.3895574,0.336822143 4.95776602,0.336822143 L37.9087506,0.336822143 C39.1416324,0.337942797 40.3236225,0.844535891 41.1948588,1.74522622 L50.0983518,10.9350629 C50.9702966,11.8359404 51.4598555,13.057612 51.4592971,14.3312372 L51.4592971,19.5423323"/>
        <polygon points="18.908 14.741 28.209 14.741 28.209 29.145 18.908 29.145"/>
        <line x1="9.608" x2="9.608" y1="14.741" y2="29.145"/>
        <line x1="37.509" x2="37.509" y1="14.741" y2="24.344"/>
        <polygon points="9.608 38.748 18.908 38.748 18.908 53.152 9.608 53.152"/>
        <path d="M30.5336079,48.3505977 C30.5336079,54.3543822 33.6357073,59.9021078 38.6713756,62.9040001 C43.707044,65.9058924 49.9112432,65.9058924 54.9469115,62.9040001 C59.9825798,59.9021078 63.0846793,54.3543822 63.0846793,48.3505977 C63.0846793,42.3468132 59.9825798,36.7990875 54.9469115,33.7971952 C49.9112432,30.7953029 43.707044,30.7953029 38.6713756,33.7971952 C33.6357073,36.7990875 30.5336079,42.3468132 30.5336079,48.3505977 Z"/>
        <line x1="70.06" x2="58.317" y1="72.357" y2="60.236"/>
      </g>
      <g stroke="#A9CCDC" stroke-linecap="round" stroke-linejoin="round" stroke-width="4.987" transform="translate(298.088 262.353)">
        <line x1="42.562" x2="27.599" y1="22.585" y2="22.585"/>
        <line x1="27.599" x2="42.562" y1="12.61" y2="12.61"/>
        <line x1="52.51" x2="52.51" y1="34.175" y2="69.175"/>
        <line x1="17.598" x2="17.598" y1="69.175" y2="34.175"/>
        <line x1="27.573" x2="27.573" y1="34.175" y2="69.175"/>
        <line x1="42.535" x2="42.535" y1="34.175" y2="69.175"/>
        <path d="M9.67593627,12.3398288 C10.8222941,11.2880624 12.3039484,10.7585344 13.8067206,10.8635288 C15.732043,10.9925324 17.5304848,11.9416752 18.8048656,13.5013419 C20.0792464,15.0610085 20.7247226,17.102885 20.5987426,19.1760288 C20.4425421,21.7614019 19.3388192,24.1739618 17.5305302,25.8826454 C15.7222412,27.5913291 13.3576133,28.456074 10.9571586,28.2865288 C7.95524962,28.0814578 5.15216417,26.5995667 3.16536034,24.1672836 C1.1785565,21.7350005 0.171020927,18.5518567 0.364691544,15.3190288 L0.364691544,15.3024038 C0.364691544,7.03884328 6.58469757,0.339903846 14.2574638,0.339903846 L55.8863842,0.339903846 C63.5591505,0.339903846 69.7791565,7.03884328 69.7791565,15.3024038 L69.7791565,15.3223538 C69.9728271,18.5551817 68.9652916,21.7383255 66.9784877,24.1706086 C64.9916839,26.6028917 62.1885984,28.0847828 59.1866895,28.2898538 C56.7852806,28.4555971 54.4211831,27.586486 52.6150826,25.8739397 C50.8089821,24.1613934 49.7090182,21.7458781 49.5574546,19.1594038 C49.4357404,17.0890308 50.0831466,15.0514583 51.3570855,13.4954507 C52.6310244,11.9394431 54.4270066,10.9926253 56.3494766,10.8635288 C57.8863094,10.7556068 59.3996706,11.3120664 60.5543557,12.4096538"/>
      </g>
      <g stroke="#A9CCDC" stroke-linecap="round" stroke-linejoin="round" stroke-width="5.531" transform="translate(77.588 266.853)">
        <path d="M60.1237575 38.8766916L39.2326347 59.7678144 28.9650449 61.8213323 31.0185629 51.5537425 51.9096856 30.6626198C52.9954412 29.5751534 54.469069 28.9640771 56.0057695 28.9640771 57.5424699 28.9640771 59.0160977 29.5751534 60.1018533 30.6626198L60.1237575 30.684524C61.2112238 31.7702795 61.8223001 33.2439073 61.8223001 34.7806078 61.8223001 36.3173082 61.2112238 37.790936 60.1237575 38.8766916L60.1237575 38.8766916zM20.7509731 53.6072605L4.32282934 53.6072605C2.05457603 53.6072605.215793413 51.7684779.215793413 49.5002246L.215793413 4.32282934C.215793413 2.05457603 2.05457603.215793413 4.32282934.215793413L45.3931886.215793413C47.6614419.215793413 49.5002246 2.05457603 49.5002246 4.32282934L49.5002246 22.804491"/>
        <path d="M24.858009,45.3931886 L12.5369012,45.3931886 C11.4027745,45.3931886 10.4833832,44.4737973 10.4833832,43.3396707 L10.4833832,33.0720808 C10.4833832,31.9379542 11.4027745,31.0185629 12.5369012,31.0185629 L39.2326347,31.0185629"/>
        <polygon points="10.483 8.43 39.233 8.43 39.233 22.804 10.483 22.804"/>
      </g>
      <g stroke="#A9CCDC" stroke-linecap="round" stroke-linejoin="round" stroke-width="5.537" transform="translate(304 148.5)">
        <path d="M44.3223819,62 C53.2891728,56.0558458 58.6234253,46.004098 58.4978304,35.2880976 C58.5234717,28.9706714 56.7011032,22.7821749 53.2527195,17.4764692 L44.8961965,27.243779 C42.4457496,19.2400299 42.4292747,10.6944946 44.8488429,2.68146036 C45.0589797,1.99796922 44.9005726,1.25504074 44.4295915,0.715173413 C43.9586104,0.175306085 43.2413731,-0.0854826414 42.5313005,0.0249515606 C30.582522,1.97618971 20.3241193,9.5618316 15.0049139,20.3795154 L8.35869259,13.4792407 C2.9313409,19.4554291 -0.0497895893,27.2355846 0.00216961953,35.2880976 C-0.123425324,46.004098 5.21082717,56.0558458 14.1776181,62"/>
        <path d="M29.5023169,62.5 L15.0122722,47.7660088 C12.4067829,45.2510503 11.7538386,41.3398586 13.4022672,38.1219418 L13.4022672,38.1219418 C14.6733663,35.7084798 17.0159725,34.0345144 19.7206888,33.6069622 C22.425405,33.1794101 25.1741356,34.0485546 27.1344992,35.9511982 L29.499541,38.257268 L31.8673586,35.9511982 C33.8271994,34.0485525 36.5755594,33.1793707 39.279894,33.6069489 C41.9842286,34.0345272 44.3263655,35.7085598 45.5968148,38.1219418 L45.5968148,38.1219418 C47.2459395,41.3392725 46.5941343,45.2503841 43.9895857,47.7660088 L29.5023169,62.5 Z"/>
      </g>
    </g>
    <g transform="translate(492 223)">
      <path fill="#DDE3E9" d="M9.93785602,35.7363701 C28.6043474,67.0518486 50.3448762,97.3738414 63.400835,131.612719 C62.8747124,127.576998 62.316848,123.545457 61.6924335,119.519653 C58.3796628,98.1788894 54.2624276,76.9938487 49.9359142,55.8347788 C47.7325965,45.061608 45.4023236,34.3274793 43.0122847,23.5942683 C41.7268475,17.8294571 40.457171,12.0611334 39.145247,6.30181171 C38.8274703,4.90590411 38.5544351,2.4694293 38.1565942,0 C50.8449133,41.636678 63.0807311,83.3047517 72.0307975,125.94239 C73.204927,131.538126 74.2047864,137.123918 75.0238081,142.699993 C75.3039851,141.427955 75.5795646,140.155702 75.8811982,138.88715 C79.5025613,123.679846 84.9347228,108.59358 91.4026624,94.3744557 C94.494721,87.5745292 98.0463864,80.9235176 102.228151,74.7261293 C104.835821,70.8630236 110.985519,66.2708832 113.364361,62.3144999 C100.354578,86.1759773 95.6569872,116.031633 88.1451337,141.973334 C86.3116359,148.30385 84.4667482,154.62409 82.659084,160.955464 C93.9872772,138.237255 111.563216,119.571486 136,111.482566 C106.420215,131.026943 88.6779699,165.254031 76.7221336,200.259757 C76.682738,200.674905 76.6358989,201.090058 76.5954089,201.505863 C80.1135643,194.828835 84.5452103,188.789483 90.5514934,184.559607 C103.406592,175.504479 117.667098,178.142392 130.137007,185.909854 C120.350227,179.688703 102.662664,185.353659 94.4280037,191.676694 C88.5328799,196.203004 83.4948291,202.275393 79.119821,208.199601 C78.071517,209.619676 76.6413193,211.276578 75.1303997,213.044484 C73.0120284,226.795282 69.5599117,240.451838 64.6724606,254 C65.4790179,250.11126 64.8958605,243.891877 65.11953,240.993318 C65.1438759,240.679499 65.1636243,240.365464 65.1877517,240.052521 C64.4448288,243.018848 63.7270637,245.951459 63.0359813,248.836783 C64.4097546,243.330925 65.1563919,237.583268 65.7392402,231.776207 C65.8893549,229.280566 66.0357479,226.784927 66.1904602,224.289502 C66.141426,219.553405 65.9463583,214.798592 65.6164284,210.036217 C64.4465561,205.407706 63.1367171,201.041891 62.0564998,197.41118 C58.158506,184.310429 52.4441742,171.759576 45.4108456,160.050843 C38.9937018,149.366014 31.3123836,139.687606 22.4447835,130.934599 C17.6643455,126.217405 12.6613846,121.724669 7.7288832,117.169517 C5.94526254,115.52278 2.75721952,111.473853 0,109.363232 C20.0804874,120.433766 40.7488532,132.410494 55.3976085,150.247606 C53.6802099,143.652644 51.8148695,137.151008 49.841671,130.779652 C39.8311473,98.4544622 27.1913357,64.9525261 9.93785602,35.7363701 Z"/>
      <path fill="#C5CFD6" d="M30,213 C30,248.898509 32.8428117,278 71,278 C109.157188,278 112,248.898509 112,213"/>
    </g>
    <g transform="matrix(-1 0 0 1 610 108)">
      <g transform="translate(82 73)">
        <path fill="#191847" d="M74.5,27 C85.2821207,27 94.2105014,34.9368049 95.7615049,45.2867779 C99.2080531,57.9860871 103.701616,86.5432912 99.1172687,91.0224659 L70.1172687,91.0224659 L70.1089864,90.8685463 C59.3601277,89.6792412 51,80.5659268 51,69.5 L51,48.5 C51,36.6258779 60.6258779,27 72.5,27 L74.5,27 Z"/>
        <path fill="#EEB695" d="M38.1433414,9.13393292 C43.9381521,19.9350547 43.249578,47.3329958 35.7603014,49.2634576 C32.773664,50.0333035 26.4113241,48.1475566 19.935865,44.2446031 L24,73 L0,73 L8.26160177,34.4893378 C3.65406109,29.0807313 0.535660132,22.452516 1.05677633,15.0254539 C2.55833022,-6.37502057 32.3485306,-1.66718886 38.1433414,9.13393292 Z" transform="translate(54 31)"/>
        <path fill="#191847" d="M73.0014183,28 C83.2947789,28 87.3264946,32.2574398 90.2810771,36.4165401 L90.5550718,36.8060348 L90.5550718,36.8060348 L90.8237044,37.1941556 C91.0012165,37.4522677 91.1757867,37.7089322 91.3486809,37.9630857 C89.0214598,45.9483908 79.9899431,47.1322506 71.9650913,52.1099145 C71.0199697,51.3410485 69.8137784,50.8804131 68.5,50.8804131 C65.4624339,50.8804131 63,53.3428469 63,56.3804131 C63,59.4179792 65.4624339,61.8804131 68.5,61.8804131 C68.5838976,61.8804131 68.6673564,61.8785346 68.7503367,61.8748173 C69.8557449,73.7527524 69.4127451,87.3172545 66.1172687,90.5371269 L37.1172687,90.5371269 C36.3255298,76.7810423 39.671095,72.3756552 43.2895028,68.3504123 L43.733674,67.8588154 C47.3679166,63.8496599 51.1172687,59.8545035 51.1172687,46.9027926 C51.3165886,46.7080455 51.5136608,46.5137062 51.7088627,46.3208029 L52.00031,46.0326534 C52.0970229,45.9370483 52.1933155,45.8419307 52.2892348,45.7474291 L52.5759201,45.465901 C53.0299154,45.0218182 53.4764982,44.5946612 53.9207807,44.19836 L53.888877,43.4207004 C58.9105508,33.1402335 65.2813979,28 73.0014183,28 Z"/>
      </g>
      <g transform="translate(0 260)">
        <g transform="translate(65 42)">
          <polygon fill="#C5CFD6" points="27.623 0 104.877 0 115 124 0 124"/>
          <polygon fill="#000" fill-opacity=".1" points="27.623 0 51.383 0 65.604 124 0 124"/>
        </g>
        <path fill="#F1C0A6" d="M257.954028,20.756908 L258.24189,20.5887017 C266.50855,15.9575335 280.00938,22.2466943 280.000005,29.2384154 C279.971611,50.4029106 260.656682,150.1511 259.648224,156.456711 C258.639766,162.762321 247.83665,164.42787 247.20755,156.477375 C246.206544,143.826795 244.3468,100.033121 246.20755,79.7626522 C246.975689,71.3947628 247.802939,63.4254961 248.617343,56.3158982 C238.483775,74.6174738 222.808496,100.823961 201.593128,134.933778 L190.076573,129.672175 C199.120166,99.8760987 206.535776,78.8408618 212.323403,66.5664641 C215.899113,58.9831012 219.394396,51.7927571 222.58547,45.4013011 L223.129489,44.3135245 C228.53905,33.5155316 233.017031,25.1334494 235.436043,21.2120072 C241.587899,11.2392801 252.296386,14.7194928 257.954028,20.756908 Z"/>
        <path fill="#0D5094" d="M208.819223,123.340112 L213.936922,21.8299349 C217.625361,4.27739957 248.84365,12.4235349 248.830816,21.8299349 C248.801666,43.1853748 235.973522,116.956762 235.964839,123.319261 L208.819223,123.340112 Z" transform="rotate(20 228.825 67.42)"/>
        <g filter="url(#voty_screen_modul_1_g2-d)" transform="translate(185 113)">
          <path fill="#E4E4E4" d="M2.67813181,25.4019242 C1.55937727,28.3884109 1,30.6229931 1,32.1056708 C1,33.908957 1.3004142,36.5404001 1.90124261,40 C3.99318117,40 22.7937852,40 58.3030548,40 C59.768738,35.1545073 58.9226607,32.5385816 55.7648228,32.1522232 C52.606985,31.7658647 49.9837155,31.4170139 47.8950143,31.1056708 L21.6799926,19.4188835 C21.1755635,19.1940064 20.584344,19.4206282 20.359467,19.9250573 C20.35562,19.9336867 20.3518954,19.9423702 20.3482945,19.9511052 L18.6632131,24.038695 L18.6632131,24.038695 C15.7398812,25.4026522 13.3643706,26.0846307 11.5366811,26.0846307 C10.0517269,26.0846307 8.00099246,25.4849054 5.38447792,24.2854549 L5.38448339,24.285443 C4.38038273,23.8251478 3.19325534,24.2659892 2.73296014,25.2700899 C2.71312074,25.3133681 2.69483298,25.3573409 2.67813181,25.4019242 Z" transform="rotate(30 30.5 20)"/>
        </g>
        <g filter="url(#voty_screen_modul_1_g2-e)" transform="translate(242 126)">
          <path fill="#E4E4E4" d="M2.67813181,25.4019242 C1.55937727,28.3884109 1,30.6229931 1,32.1056708 C1,33.908957 1.3004142,36.5404001 1.90124261,40 C3.99318117,40 22.7937852,40 58.3030548,40 C59.768738,35.1545073 58.9226607,32.5385816 55.7648228,32.1522232 C52.606985,31.7658647 49.9837155,31.4170139 47.8950143,31.1056708 L21.6799926,19.4188835 C21.1755635,19.1940064 20.584344,19.4206282 20.359467,19.9250573 C20.35562,19.9336867 20.3518954,19.9423702 20.3482945,19.9511052 L18.6632131,24.038695 L18.6632131,24.038695 C15.7398812,25.4026522 13.3643706,26.0846307 11.5366811,26.0846307 C10.0517269,26.0846307 8.00099246,25.4849054 5.38447792,24.2854549 L5.38448339,24.285443 C4.38038273,23.8251478 3.19325534,24.2659892 2.73296014,25.2700899 C2.71312074,25.3133681 2.69483298,25.3573409 2.67813181,25.4019242 Z"/>
        </g>
        <path fill="#105BA7" d="M282.770373,36.4330278 C282.770373,63 270.1536,124.970293 270.145616,130.820112 L243,130.840963 C246.973277,75.5454811 248.382172,47.5998928 247.226683,47.0041979 C245.49345,46.1106556 176.175838,53.9250306 155.386358,53.9250306 C125.407825,53.9250306 113.006307,35.0203971 112,-4.40536496e-13 L171.386358,-4.40536496e-13 C183.477954,1.29386693 246.548825,14.0152568 269.972097,18.3884129 C280,20.2606358 282.770373,29.1145109 282.770373,36.4330278 Z"/>
      </g>
      <g transform="translate(22 155)">
        <path fill="#F1C0A6" d="M51.5082829,82 L72,86.0658446 C51.3920824,124.471059 40.3404263,144.825845 38.8450319,147.130202 C35.4803944,152.315007 38.6196693,161.817238 39.7793043,166.821179 C36.3384733,167.622131 35.1668668,165.594787 33.9135738,163.477279 L33.6974848,163.113905 C32.3545909,160.873954 30.7702788,158.708095 26.1671562,159.851185 C25.0260035,160.134567 23.9084251,160.478228 22.8094396,160.842481 L22.2118069,161.042969 L22.2118069,161.042969 L21.6176824,161.246109 C21.3214673,161.348105 21.0265003,161.450558 20.7326806,161.552664 L20.1465406,161.756176 C14.2023925,163.815664 8.70467558,165.509853 2.8038784,160.07074 C1.84055159,159.182785 1.13535082,156.407288 4.41981989,154.983749 C7.02344134,153.8553 10.022566,152.413585 12.9650665,150.889147 L13.8038496,150.451542 C19.798488,147.302092 25.3751777,143.897863 26.6523424,142.218096 C29.3255608,138.702197 37.6108743,118.629498 51.5082829,82 Z M254.188168,51.2551684 L253.816855,51.7996726 C253.755087,51.8906382 253.693398,51.9816932 253.631819,52.0728101 L253.26393,52.6200377 C250.396486,56.9090654 247.912678,61.214599 249.076289,62.7052963 C250.363689,64.3545786 254.093006,62.5342201 255.566345,65.2162765 C256.548571,67.0043141 250.262286,69.1431805 236.707491,71.6328758 L209.56994,92.4392868 L198,77.6170876 L234.234567,61.7041739 C240.582018,55.3790221 246.711387,50.5716141 252.622674,47.2819501 C254.390261,46.7192094 257.410101,46.5491987 254.188168,51.2551684 Z"/>
        <g transform="translate(119 3)">
          <mask id="voty_screen_modul_1_g2-g" fill="#fff">
            <use xlink:href="#voty_screen_modul_1_g2-f"/>
          </mask>
          <g mask="url(#voty_screen_modul_1_g2-g)">
            <g transform="translate(-61 -131)">
              <polygon fill="#302A36" points="100 300 200 300 200 200 100 200"/>
              <polyline fill="#BD64C4" points="200 200 100 200 150 250"/>
              <polyline fill="#302A36" points="0 100 100 100 100 200 0 200"/>
              <polyline fill="#BD64C4" points="0 180 100 180 100 200 0 200"/>
              <polyline fill="#A2D10C" points="0 140 100 140 100 160 0 160"/>
              <polyline fill="#302A36" points="200 200 100 200 100 100 200 100"/>
              <polygon fill="#302A36" points="130 200 170 200 150 220"/>
              <polygon fill="#A2D10C" points="200 0 100 100 100 200 200 100"/>
            </g>
          </g>
        </g>
        <path fill="#DDE3E9" d="M90,114 C124.671756,114 150.175573,114 166.511451,114 C170.007634,114 169.348845,108.951637 168.84345,106.404206 C163.010588,77.0037663 140.241304,45.3115155 140.241304,3.4607303 L118.1718,0 C99.917485,29.3584068 93.6048263,65.5045499 90,114 Z"/>
        <g transform="translate(27)">
          <mask id="voty_screen_modul_1_g2-i" fill="#fff">
            <use xlink:href="#voty_screen_modul_1_g2-h"/>
          </mask>
          <g mask="url(#voty_screen_modul_1_g2-i)">
            <g transform="translate(-31 -152)">
              <polygon fill="#302A36" points="0 299 100 299 100 199 0 199"/>
              <polygon points="0 300 100 300 50 250"/>
              <polyline fill="#BD64C4" points="50 250 100 200 0 200"/>
              <polygon fill="#302A36" points="100 300 200 300 200 200 100 200"/>
              <polygon points="100 300 200 300 150 250"/>
              <polyline fill="#BD64C4" points="200 200 100 200 150 250"/>
              <polyline fill="#302A36" points="0 100 100 100 100 200 0 200"/>
              <polyline fill="#BD64C4" points="0 180 100 180 100 200 0 200"/>
              <polyline fill="#302A36" points="200 200 100 200 100 100 200 100"/>
              <polyline fill="#BD64C4" points="200 180 100 180 100 190 200 190"/>
              <polygon fill="#A2D10C" points="100 300 200 300 200 200"/>
              <polygon fill="#A2D10C" points="200 0 100 100 100 200 200 100"/>
              <polygon fill="#A2D10C" points="0 300 100 300 50 250"/>
            </g>
          </g>
        </g>
      </g>
    </g>
    <g transform="translate(21 108.5)">
      <g transform="translate(82)">
        <path fill="#191847" d="M61,77.7068588 C72.4289379,77.7068588 76.5854974,64.0240838 83.0786187,56.5153483 C87.7243138,51.143002 95.6530795,52.7449442 98,45.2237762 C103.901542,26.3111237 88.1061086,13 67.5,13 C46.8938914,13 33,24.6742524 30,42.2237762 C27,59.7733 40.3938914,77.7068588 61,77.7068588 Z"/>
        <path fill="#D4A181" d="M38.1433414,9.13393292 C43.9381521,19.9350547 43.249578,47.3329958 35.7603014,49.2634576 C32.773664,50.0333035 26.4113241,48.1475566 19.935865,44.2446031 L24,73 L0,73 L8.26160177,34.4893378 C3.65406109,29.0807313 0.535660132,22.452516 1.05677633,15.0254539 C2.55833022,-6.37502057 32.3485306,-1.66718886 38.1433414,9.13393292 Z" transform="translate(54 31)"/>
        <path fill="#191847" d="M93.5831606,40.1945268 C88.9933309,41.0561444 79.749454,45.438095 72.3793005,51.7237673 C71.507977,51.2620835 70.5087281,51 69.4466684,51 C66.0464589,51 63.2900445,53.6862915 63.2900445,57 C63.2900445,58.352507 63.7492372,59.6004922 64.5239753,60.6039629 C63.065081,63.0086601 62.0695654,65.5348236 61.7432388,68.1317726 C56.6870351,68.1317726 38.2335803,49 56.6167901,31 C75,13 101.566014,38.6959598 93.5831606,40.1945268 Z"/>
      </g>
      <g transform="translate(0 187)">
        <polygon fill="#D4A181" points="128 0 165.631 123.024 183.86 227.648 198.153 227.648 178.891 0"/>
        <polygon fill="#000" fill-opacity=".05" points="128 0 165.631 123.024 183.86 227.648 198.153 227.648 178.891 0"/>
        <path fill="#D4A181" d="M114.537727,0 C117.093705,67.5468821 114.085665,102.388787 113.513606,108.525715 C112.941548,114.662643 105.108196,154.454812 86.5636874,229.708469 L101.793992,224.477699 C131.10186,155.458959 141.088936,119.5887 144.450326,110.525715 C147.811717,101.46273 156.739403,64.6208249 171.233385,0 L114.537727,0 Z"/>
        <path fill="#E4E4E4" d="M2.67813181,25.4019242 C1.55937727,28.3884109 1,30.6229931 1,32.1056708 C1,33.908957 1.3004142,36.5404001 1.90124261,40 C3.99318117,40 22.7937852,40 58.3030548,40 C59.768738,35.1545073 58.9226607,32.5385816 55.7648228,32.1522232 C52.606985,31.7658647 49.9837155,31.4170139 47.8950143,31.1056708 L21.6799926,19.4188835 C21.1755635,19.1940064 20.584344,19.4206282 20.359467,19.9250573 C20.35562,19.9336867 20.3518954,19.9423702 20.3482945,19.9511052 L18.6632131,24.038695 L18.6632131,24.038695 C15.7398812,25.4026522 13.3643706,26.0846307 11.5366811,26.0846307 C10.0517269,26.0846307 8.00099246,25.4849054 5.38447792,24.2854549 L5.38448339,24.285443 C4.38038273,23.8251478 3.19325534,24.2659892 2.73296014,25.2700899 C2.71312074,25.3133681 2.69483298,25.3573409 2.67813181,25.4019242 Z" transform="translate(84 199)"/>
        <path fill="#E4E4E4" d="M2.67813181,25.4019242 C1.55937727,28.3884109 1,30.6229931 1,32.1056708 C1,33.908957 1.3004142,36.5404001 1.90124261,40 C3.99318117,40 22.7937852,40 58.3030548,40 C59.768738,35.1545073 58.9226607,32.5385816 55.7648228,32.1522232 C52.606985,31.7658647 49.9837155,31.4170139 47.8950143,31.1056708 L21.6799926,19.4188835 C21.1755635,19.1940064 20.584344,19.4206282 20.359467,19.9250573 C20.35562,19.9336867 20.3518954,19.9423702 20.3482945,19.9511052 L18.6632131,24.038695 L18.6632131,24.038695 C15.7398812,25.4026522 13.3643706,26.0846307 11.5366811,26.0846307 C10.0517269,26.0846307 8.00099246,25.4849054 5.38447792,24.2854549 L5.38448339,24.285443 C4.38038273,23.8251478 3.19325534,24.2659892 2.73296014,25.2700899 C2.71312074,25.3133681 2.69483298,25.3573409 2.67813181,25.4019242 Z" transform="translate(178 199)"/>
        <polygon fill="#5A8F99" points="123 0 139 62.68 187.87 62.68 180.584 0"/>
        <path fill="#89C5CC" d="M114,-3.55271368e-15 C108.735439,15.7805461 107.735439,36.6737195 111,62.6795201 L160.870318,62.6795201 L174.583554,-3.55271368e-15 L114,-3.55271368e-15 Z"/>
      </g>
      <g transform="translate(22 82)">
        <path fill="#D4A181" d="M68.3079281,93.0198914 L89.2053198,93.1020711 C78.4956844,127.674615 71.8763087,148.777448 69.3471926,156.410568 L69.088982,157.185464 C68.7122581,158.308737 68.4519068,159.048781 68.3079281,159.405597 C65.9939846,165.140133 70.8906002,173.873732 72.9845874,178.567103 C66.1645409,181.61887 66.8912241,170.316929 58.2879189,174.319492 C56.5428749,175.131349 54.8906295,176.089688 53.276551,177.027882 L52.7398634,177.339639 C52.5613888,177.443156 52.3833105,177.546197 52.2055535,177.648531 L51.6731714,177.953189 C46.6232753,180.822978 41.7734982,182.933781 35.3890352,178.994371 C34.2736052,178.306117 33.0512757,175.714714 36.0045784,173.68967 C38.2342008,172.160845 40.7618228,170.284476 43.2419631,168.330709 L43.9842353,167.742526 C49.4120517,163.416125 54.4428443,158.845865 55.3979297,156.908251 C57.3515741,152.944826 61.6549068,131.648706 68.3079281,93.0198914 L68.3079281,93.0198914 Z M194.04441,89.1225115 L222.372314,116.757535 C230.61469,120.273345 237.368143,124.155511 242.632673,128.40403 C243.816587,129.832102 245.10547,132.568362 239.535214,131.343925 C238.999612,131.22619 238.460831,131.110185 237.923503,130.998275 L237.279704,130.866101 C232.460889,129.891811 227.909884,129.325933 227.003896,130.893567 C225.956977,132.705055 229.041811,135.480899 227.106974,137.851671 C225.817082,139.432186 221.479076,134.404878 214.092956,122.769747 L184.635682,105.402467 L194.04441,89.1225115 Z"/>
        <path fill="#191847" d="M122.01899,9.23199981 L130.503942,7.00082913 C148.576175,42.7520052 177.414525,74.1501034 217.01899,101.195124 L192.061793,137.56505 C151.33882,97.6857553 124.670571,55.1985909 122.01899,9.23199981 Z" transform="rotate(5 169.519 72.283)"/>
        <path fill="#DDE3E9" d="M90,114 L167,114 C149.16087,70.6251468 140.241304,33.7787236 140.241304,3.4607303 L117.014208,0 C98.7598929,29.3584068 93.6048263,65.5045499 90,114 Z"/>
        <path fill="#2F3676" d="M118.047752,-4.26325641e-14 C119.86198,0.0624731357 122.625282,0.175030894 126.337658,0.337673275 L126.337658,0.337673275 L131.950158,16.3768801 C132.543836,35.9324229 136.010826,75.3421183 142.351127,134.605966 L142.351127,134.605966 L91.8760675,134.60553 C92.008386,138.698782 92.2265651,142.830272 92.5306047,147 L92.5306047,147 L55,147 C60.6139164,83.6639633 81.1152373,34.6639633 116.503963,1.42108547e-14 L116.503963,1.42108547e-14 L116.522,0.017 L116.531583,-4.26325641e-14 Z"/>
        <path fill="#000" fill-opacity=".1" d="M106,135 L91.889057,134.999288 C91.2713571,116.643048 92.3783198,99.0548837 95.2099449,82.2347951 C96.6469231,107.748771 100.243477,125.3371 106,135 Z"/>
        <polygon fill="#FFF" fill-opacity=".2" points="103.111 104 128 92.429 128 104"/>
      </g>
    </g>
  </g>
</svg>
