<svg xmlns="http://www.w3.org/2000/svg" xmlns:xlink="http://www.w3.org/1999/xlink" width="578" height="543" viewBox="0 0 578 543">
  <defs>
    <path id="voty_screen_modul_2_g1-a" d="M14.3961708,0.000470352447 C20.2835133,-0.0467985551 25.615446,3.47237161 27.8914439,8.90356909 C30.1674418,14.3347666 28.9313599,20.6026237 24.7693326,24.7670145 C20.6049418,28.9314052 14.3370847,30.1651237 8.90588722,27.8891258 C3.47232629,25.6154914 -0.0444804289,20.2835586 0.000425033316,14.3938527 C0.0642380585,6.46922035 6.47153848,0.0619199323 14.3961708,0.000470352447 Z"/>
    <path id="voty_screen_modul_2_g1-b" d="M71.9730091,0.000470352447 C77.8603515,-0.0467985551 83.1946477,3.47237161 85.4682822,8.90356909 C87.7442801,14.3347666 86.5081981,20.6026237 82.3461708,24.7670145 C78.1817801,28.9314052 71.9139229,30.1651237 66.4827255,27.8891258 C61.0491645,25.6154914 57.5323578,20.2835586 57.5772633,14.3938527 C57.6410763,6.46922035 64.0483767,0.0619199323 71.9730091,0.000470352447 Z"/>
    <path id="voty_screen_modul_2_g1-c" d="M129.549611,0.000470352447 C135.436953,-0.0467985551 140.77125,3.47237161 143.044884,8.90356909 C145.320882,14.3347666 144.0848,20.6026237 139.922773,24.7670145 C135.758382,28.9314052 129.490525,30.1651237 124.059327,27.8891258 C118.62813,25.6154914 115.10896,20.2835586 115.153865,14.3938527 C115.217678,6.46922035 121.624979,0.0619199323 129.549611,0.000470352447 Z"/>
    <path id="voty_screen_modul_2_g1-d" d="M71.8420083,-0.0232099388 L99.7234795,1.92645245 C101.665664,2.06226319 103.130018,3.7468108 102.994208,5.68899483 L102.241582,16.409231 C101.22244,80.2045539 138.098205,96.4680485 129.887262,122.049128 C123.108761,143.167456 58.2273311,165.869569 47,145.168623 C42.4547451,136.788086 40.3928582,126.652196 40.1593383,115.632311 C37.2906083,124.099324 35.0207635,131.387828 33.3511268,137.498362 C30.4711839,148.038372 19.3062598,149.713754 19.3062598,153.774145 L19.3062598,153.774145 L4.59662995,149.713754 C5.59434948,144.197545 -1.34012546,141.51148 0.519188072,129.187788 C8.84989925,73.9711065 31.2328417,33.9460774 67.6680154,9.11270019 L68.0794659,3.24751825 C68.2152766,1.30533421 69.8998242,-0.159020677 71.8420083,-0.0232099388 Z"/>
    <polygon id="voty_screen_modul_2_g1-f" points="0 .237 61.978 .237 61.978 164.425 0 164.425"/>
    <polygon id="voty_screen_modul_2_g1-h" points=".097 .237 61.644 .237 61.644 164.425 .097 164.425"/>
    <polygon id="voty_screen_modul_2_g1-j" points=".24 .237 236.835 .237 236.835 164.425 .24 164.425"/>
    <filter id="voty_screen_modul_2_g1-l">
      <feColorMatrix in="SourceGraphic" values="0 0 0 0 0.947379 0 0 0 0 0.585548 0 0 0 0 0.030328 0 0 0 1.000000 0"/>
    </filter>
    <filter id="voty_screen_modul_2_g1-m">
      <feColorMatrix in="SourceGraphic" values="0 0 0 0 0.947379 0 0 0 0 0.585548 0 0 0 0 0.030328 0 0 0 1.000000 0"/>
    </filter>
    <linearGradient id="voty_screen_modul_2_g1-n" x1="50%" x2="50%" y1="0%" y2="100%">
      <stop offset="0%" stop-color="#0F97E4"/>
      <stop offset="100%" stop-color="#1F6CBB"/>
    </linearGradient>
  </defs>
  <g fill="none" fill-rule="evenodd" transform="translate(-32 1)">
    <g transform="translate(104 108)">
      <g stroke-width="11.029">
        <path fill="#F5FCFF" stroke="#DDE3E9" d="M427.783613,81.144958 L427.783613,334.033613 C427.783613,343.823325 423.815549,352.686245 417.400057,359.101737 C410.984564,365.51723 402.121644,369.485294 392.331933,369.485294 L392.331933,369.485294 L40.9663866,369.485294 C31.1766753,369.485294 22.3137551,365.51723 15.8982627,359.101737 C9.4827704,352.686245 5.51470588,343.823325 5.51470588,334.033613 L5.51470588,334.033613 L5.51470588,81.144958 L427.783613,81.144958 Z"/>
        <path fill="#C5CFD6" stroke="#C5CFD6" d="M427.783613,5.51470588 L427.783613,45.6932773 C427.783613,55.4829886 423.815549,64.3459088 417.400057,70.7614011 C410.984564,77.1768935 402.121644,81.144958 392.331933,81.144958 L392.331933,81.144958 L40.9663866,81.144958 C31.1766753,81.144958 22.3137551,77.1768935 15.8982627,70.7614011 C9.4827704,64.3459088 5.51470588,55.4829886 5.51470588,45.6932773 L5.51470588,45.6932773 L5.51470588,5.51470588 L427.783613,5.51470588 Z" transform="rotate(-180 216.65 43.33)"/>
      </g>
      <g transform="translate(35.392 30.674)">
        <use fill="#D8D8D8" xlink:href="#voty_screen_modul_2_g1-a"/>
        <use fill="#98AAB2" xlink:href="#voty_screen_modul_2_g1-a"/>
        <use fill="#D8D8D8" xlink:href="#voty_screen_modul_2_g1-b"/>
        <use fill="#98AAB2" xlink:href="#voty_screen_modul_2_g1-b"/>
        <use fill="#D8D8D8" xlink:href="#voty_screen_modul_2_g1-c"/>
        <use fill="#98AAB2" xlink:href="#voty_screen_modul_2_g1-c"/>
      </g>
      <g transform="translate(40 109)">
        <g stroke="#DDE3E9" stroke-linecap="round" stroke-linejoin="round" stroke-width="12.502">
          <path d="M60.9147595,17.178197 C60.9147595,23.8519305 55.5037593,29.2629307 48.8275253,29.2629307 L12.6908458,29.2629307 C9.3827343,29.4304617 6.1496367,28.2302398 3.75169346,25.9448174 C1.35124976,23.659395 -0.0040007395,20.4913094 0.000986393602,17.178197 L0.000986393602,12.1022587 C-0.0040007395,8.78914634 1.35124976,5.61856029 3.75169346,3.33313785 C6.1496367,1.05021588 9.3827343,-0.150005972 12.6908458,0.0150245318 L48.2249139,0.0150245318 C54.8986475,0.0150245318 60.3096476,5.4260247 60.3096476,12.1022587 L60.9147595,17.178197 Z"/>
          <line x2="152.528" y1="76.789" y2="76.789"/>
          <line x1="98.716" x2="350.012" y1="14.34" y2="15.591"/>
          <line x2="152.528" y1="107.367" y2="107.367"/>
          <line x2="152.528" y1="137.825" y2="137.825"/>
          <line x2="152.528" y1="168.161" y2="168.161"/>
          <line x2="152.528" y1="198.619" y2="198.619"/>
          <line x2="95.018" y1="229.077" y2="229.077"/>
        </g>
        <g transform="translate(188.252 36.98)">
          <path fill="#FFF" stroke="#DDE3E9" stroke-width="7.417" d="M77.6226996,83.4524868 C84.9076778,83.5359729 90.8605023,77.6615865 90.8605023,70.3982949 L90.8605023,32.9738013 C90.8605023,25.7560475 84.9990255,19.9120197 77.7673334,19.9120197 L13.0931689,19.9120197 C5.86147677,19.9120197 -8.73967565e-13,25.7560475 -8.73967565e-13,32.9738013 L-8.73967565e-13,70.3982949 C-8.73967565e-13,77.608459 5.86147677,83.4524868 13.0931689,83.4524868 L49.1602818,83.4524868 C50.5913956,83.4524868 51.7484664,84.6061131 51.7484664,86.0329666 L57.457697,101.864969 L72.2788597,83.9306345 L77.6226996,83.4524868 Z"/>
          <path fill="#FFF" stroke="#DDE3E9" stroke-width="7.417" d="M87.1681326,61.8074801 C79.874931,61.8909662 73.9292207,56.0241695 73.9292207,48.7532882 L73.9292207,13.0617816 C73.9292207,5.85161743 79.7911886,3.55271368e-14 87.0158737,3.55271368e-14 L151.70307,3.55271368e-14 C158.935368,3.55271368e-14 164.789723,5.85161743 164.789723,13.0617816 L164.789723,48.7532882 C164.789723,55.9634523 158.935368,61.8074801 151.70307,61.8074801 L115.625322,61.8074801 C114.201701,61.8074801 113.036921,62.9611063 113.036921,64.3879599 L113.036921,80.2199624 L92.5124202,62.2856278 L87.1681326,61.8074801 Z"/>
          <path fill="#A9CCDC" d="M107.493038,27.4021039 L113.547072,34.0879947 L133.296561,14.6508944 C134.531843,13.4398178 136.535176,13.4398178 137.776859,14.6508944 L141.581708,18.3715806 C142.823391,19.5889321 142.823391,21.5530096 141.581708,22.7640861 L116.536841,47.3181921 C115.218353,48.6108437 113.087011,48.6108437 111.768523,47.3181921 L99.1822889,34.99447 C98.1390195,33.9716437 98.1646212,32.2962166 99.2398928,31.2984904 L103.601579,27.3519039 C104.150285,26.8422632 104.858254,26.5928588 105.562569,26.6028999 C106.263111,26.6128872 106.960038,26.8795479 107.493038,27.4021039 Z"/>
          <path fill="#A9CCDC" fill-rule="nonzero" d="M50.3237295,73.7658776 L50.3237295,58.0107581 L50.3237295,58.0107581 L66.1786988,58.0107581 C68.0929034,58.0107581 69.6446728,56.4589887 69.6446728,54.5447841 L69.6446728,50.543175 C69.6446728,48.6289704 68.0929034,47.077201 66.1786988,47.077201 L50.3237295,47.077201 L50.3237295,47.077201 L50.3237295,31.0724569 C50.3237295,29.1582523 48.77196,27.6064829 46.8577555,27.6064829 L42.8561464,27.6064829 C40.9419418,27.6064829 39.3901724,29.1582523 39.3901724,31.0724569 L39.3901724,47.077201 L39.3901724,47.077201 L23.535203,47.077201 C21.6209984,47.077201 20.069229,48.6289704 20.069229,50.543175 L20.069229,54.5447841 C20.069229,56.4589887 21.6209984,58.0107581 23.535203,58.0107581 L39.3901724,58.0107581 L39.3901724,58.0107581 L39.3901724,73.7658776 C39.3901724,75.6800822 40.9419418,77.2318516 42.8561464,77.2318516 L46.8577555,77.2318516 C48.77196,77.2318516 50.3237295,75.6800822 50.3237295,73.7658776 Z" transform="rotate(-44 44.857 52.42)"/>
        </g>
        <g stroke="#DDE3E9" stroke-linecap="round" stroke-linejoin="round" transform="translate(186 141)">
          <path stroke-width="6.829" d="M12.8308588,21.9122671 C24.2799537,33.7107822 41.8132683,37.2389817 56.9348327,30.7872358" transform="rotate(-23 34.883 27.944)"/>
          <path stroke-width="8.194" d="M12.5491312,31.4093971 C12.5491312,44.6091544 23.2496488,55.309672 36.4494061,55.309672 C49.6491634,55.309672 60.349681,44.6091544 60.349681,31.4093971 C60.349681,18.2096397 49.6491634,7.50912218 36.4494061,7.50912218 C23.2496488,7.50912218 12.5491312,18.2096397 12.5491312,31.4093971 Z" transform="rotate(-23 36.45 31.41)"/>
          <path stroke-width="8.194" d="M69,86 C61.8907644,73.6253929 48.7369617,66 34.5,66 C20.2630383,66 7.10923562,73.6253929 0,86"/>
        </g>
        <g stroke="#DDE3E9" stroke-linecap="round" stroke-linejoin="round" transform="rotate(-1 8712.354 -15943.911)">
          <path stroke-width="8.194" d="M63.5192084 47.8436148C60.4339002 42.7811021 58.8955916 36.9255347 59.093312 31.0004393L59.093312 24.1106419C59.093312 11.0219822 48.48159.410260178 35.3929303.410260178 22.302098.410260178 11.6903759 11.0219822 11.6903759 24.1106419L11.6903759 31.0004393C11.8880964 36.9255347 10.3497878 42.7811021 7.26447956 47.8436148M69.4118727 77.3927136C62.3026371 65.0181065 49.1488344 57.3927136 34.9118727 57.3927136 20.674911 57.3927136 7.52110832 65.0181065.411872698 77.3927136"/>
          <path stroke-width="6.829" d="M11.6914623,28.0265933 C20.7909488,28.011384 29.4406755,24.0461111 35.391844,17.1606592 C41.3430124,24.0461111 49.9927392,28.011384 59.0922257,28.0265933"/>
          <path stroke-width="8.194" d="M14.5877411,27.8877544 C15.6567352,38.5755228 24.6541023,46.7168255 35.3961895,46.7168255 C46.1382767,46.7168255 55.133471,38.5755228 56.2046379,27.8877544"/>
        </g>
      </g>
    </g>
    <g transform="rotate(-34 552.624 -518.25)">
      <path fill="#69A1AC" d="M122.3761,0.580287766 C119.364186,-0.0750938157 116.038569,-0.024933997 112.97057,0.0291304781 C96.5169022,0.251996259 80.3596799,8.01114952 69.844173,20.4090347 C60.8922485,30.9636217 58.4307003,44.0859709 56.6621945,57.3509903 C56.4868538,58.6680609 56.4116638,59.9767216 56.3127458,61.2964955 C56.2914831,61.5797333 56.2597431,61.8323345 56.2258459,62.0702182 C55.5303384,62.6895568 55.165482,63.4116179 55.5771781,64.2048639 C54.0450277,67.5445467 52.7489246,70.9689305 51.6367905,74.5008425 C48.3635601,84.8968403 45.0339372,95.4904739 47.0850219,106.422311 C47.5642041,100.406436 48.5721815,94.2548003 49.7776868,88.3377438 C49.8470219,87.9980387 49.9219037,87.6610368 49.9998671,87.3252363 C50.0078792,87.2897941 50.0152749,87.2543518 50.023287,87.2192099 C50.4500827,85.4071489 51.004763,83.6494528 51.679316,81.9193895 C51.6864036,81.900467 51.693183,81.8818448 51.7005787,81.8632226 C51.7896357,81.6355511 51.8842396,81.409081 51.9776107,81.1826109 C52.1708244,80.7137518 52.3692767,80.2457937 52.5797471,79.7802385 C52.6509311,79.6216494 52.7193416,79.4615584 52.7849788,79.3002661 C53.7670712,76.902807 54.1818488,74.2013854 55.0616335,71.720727 C55.2721039,71.1566543 55.4921271,70.5946842 55.7226276,70.0357176 C55.7361864,70.0029785 55.7500534,69.9702395 55.7639205,69.9375004 C56.3870114,68.4333066 57.0754313,66.9474346 57.8032952,65.4771812 C58.1989672,65.181028 58.410362,64.4463519 58.7514905,63.7786556 C58.8220581,63.6470987 59.3736569,62.7697525 59.5379039,62.2642496 C59.9665486,61.4382646 60.3936525,60.6119792 60.8253787,59.7874959 C60.8124361,59.7923017 60.7994936,59.7971074 60.786551,59.8019131 C61.2185854,59.0101689 61.6518524,58.2217287 62.0817297,57.4365923 C62.1763335,57.2641867 62.2718618,57.0914808 62.3670819,56.9184744 C62.5214679,56.643046 62.675854,56.3679179 62.8299318,56.0933905 C64.2711763,53.5244268 65.7993206,51.0068245 67.3863228,48.5204593 C67.952713,47.6332012 69.3058249,46.3608839 69.5652921,45.3645958 C69.5748449,45.3273513 69.577002,45.2931105 69.582857,45.2573679 C73.0264975,40.4399228 76.9909212,35.9964236 81.7451481,32.4756249 C81.1704377,33.0943628 79.9489083,35.1941669 79.625961,35.6098626 C78.6377055,36.8827807 77.5647072,38.0676938 76.4877029,39.267024 C74.558956,41.4154862 72.6758162,43.6321297 71.0025305,45.976125 C67.9425439,50.2628372 65.3025736,54.7742173 62.8071283,59.3763056 C62.7834003,59.4033378 62.7575152,59.4288682 62.7350199,59.4565012 C61.4808259,60.9964377 60.6913309,63.3239133 59.7884346,65.0855141 C63.3615005,63.4371484 67.3123654,62.3633678 70.9794188,60.8997223 C74.6363031,59.4405822 78.1936531,57.8156444 81.6280489,55.9074688 C86.1927601,53.3715445 90.9278814,50.5082298 95.2408292,47.2679656 C100.183339,44.2142239 104.336663,40.0110113 108.002792,35.6002512 C112.340392,30.3815275 116.315601,25.1171495 118.774068,18.7804926 C119.98173,15.6666792 120.931774,12.4198071 121.495083,9.13508988 C121.519735,8.99181902 121.551167,8.83653384 121.585373,8.67524149 C122.161624,7.54078858 122.67686,6.38080523 123.109203,5.19409 C123.795774,3.31204555 125.417289,1.24167651 122.3761,0.580287766"/>
      <path fill="#C1DEE2" d="M208.510756,76.0970343 C209.175515,78.2889835 208.620952,80.2179308 205.99814,79.6742164 C205.211867,79.5112778 204.399612,79.2504019 203.622921,79.0305788 C199.306077,77.8090319 195.028481,76.4670588 190.689626,75.323431 C182.342343,73.1235584 173.871649,72.0584962 165.319578,71.0715862 C158.586236,70.294761 151.803017,69.8265399 145.049548,70.124918 C136.72721,70.4927253 128.607171,72.1108186 120.549133,73.9729999 C112.257897,75.8898886 103.74373,78.2621242 95.751672,81.3620556 C86.6617609,84.8876186 78.2829884,89.2427074 69.9699498,94.2785557 C49.4276526,106.722872 31.1662279,122.265198 15.1935883,140.112138 C12.8945546,142.681481 10.6050594,145.259771 8.319113,147.840932 C6.59690478,149.785977 4.97358004,151.815131 3.26321937,153.767308 C1.84700186,155.38395 0.189179505,154.462547 1.27968985,152.568834 C2.53157157,150.394149 4.67954445,148.440587 6.31224037,146.555248 C7.76935996,144.873111 9.22800044,143.192206 10.6858805,141.510685 C12.3956188,139.539594 14.1148552,137.579054 15.8692852,135.648629 C24.0333199,126.666669 32.7922118,118.155854 42.0255498,110.260118 C49.0388453,104.262896 56.6110871,99.0121335 64.3815408,94.0170906 C73.3115634,88.277346 82.7914997,82.2728101 93.0130313,78.875049 C93.1134816,78.7251921 93.2424086,78.5717874 93.3866678,78.4181078 C91.4002857,76.6249422 97.4947599,70.587436 98.594177,69.4099088 C101.386212,66.4196702 104.457162,63.6363177 107.604357,61.0193953 C110.186775,58.8720617 112.947744,56.998494 115.970785,55.5022798 C120.450037,53.2858156 125.309402,51.9660598 130.252423,51.1112406 C138.815884,49.6306504 147.806671,48.8284656 156.542179,49.5543043 C172.484461,50.8787904 188.182735,55.8129435 200.838566,66.0543723 C204.078821,68.6764719 207.2899,72.0710772 208.510756,76.0970343 Z"/>
      <path fill="#89C5CC" d="M87.4912716,84.6179908 C94.1163337,84.6179908 100.011605,85.4796444 106.115871,88.1149539 C111.385079,90.3893818 116.187049,93.4003457 120.849278,96.6784282 C127.40724,101.288788 132.57272,106.654677 136.188433,113.764375 C138.348565,118.011742 139.933113,124.021912 138.482458,128.654581 C136.773558,134.110917 132.081473,138.661582 125.901796,137.700136 C122.080473,137.106204 118.577415,134.574305 115.673025,132.191341 C112.198592,129.340467 109.417322,125.912545 107.120834,122.10535 C103.374615,115.894993 101.173238,108.874234 97.9909054,102.384698 C96.4808444,99.304693 95.0215701,96.2026797 93.2129441,93.2755295 C92.3175573,91.8259737 91.3643043,90.3902863 90.0059881,89.3130685 C89.279275,88.7369243 86.2151377,87.7396009 87.3869278,86.445613 C70.2065203,86.6714278 54.9864836,99.8784253 51.6884191,116.226027 C51.3812359,117.749749 51.1411528,119.285832 50.8875266,120.8189 C50.7274712,121.786979 50.7921089,125.356902 49.927502,125.975255 C48.0206882,127.339489 48.8221964,123.195231 48.9040709,122.598585 C49.1155287,121.056473 49.3411452,119.515566 49.5778425,117.977372 C50.8656728,109.61077 54.5869607,101.832974 60.7928008,95.8662187 C67.8894107,89.0432364 77.4644168,84.6179908 87.4912716,84.6179908 Z"/>
    </g>
    <g opacity=".5" transform="translate(36)">
      <path fill="#69A1AC" d="M178.22298,111.444518 C182.425309,105.452509 190.223629,90.2347729 196.138329,88.0936482 C199.947942,86.7145659 198.837195,100.980115 198.884241,103.700243 C199.067454,114.223987 198.04293,124.681002 196.777726,135.11639 C194.498335,153.936569 187.044926,170.697369 176.822023,186.715278 C171.561534,194.957467 165.391397,203.299596 156.84547,208.442327 C152.911771,210.810658 148.178543,211.207195 144.293769,213.247706 C139.769382,215.623126 142.233354,213.702848 140.194367,218.417487 C137.362802,224.963133 136.457106,233.407714 135.146985,240.392151 C129.131553,272.454512 114.568305,441.944513 117.093014,474.558062 C117.317249,477.448784 113.286509,478.140055 113.085292,474.611088 C112.015789,455.899518 121.270437,326.322179 125.939564,283.946664 C130.608691,241.571148 135.333634,204.134499 140.071325,189.473898 C145.818851,171.687472 156.199212,150.297922 164.840137,133.71131 C168.853782,126.005544 173.228734,118.565238 178.22298,111.444518 Z"/>
      <path fill="#C1DEE2" d="M209.414132,319.277765 C220.349167,311.249697 232.185522,326.401056 222.290441,334.430358 C216.820206,338.868469 211.101395,337.289712 207.88186,333.591199 C205.791868,336.13879 203.835706,338.802543 201.956089,341.052489 C196.229376,347.9085 190.816767,354.92815 185.643881,362.111477 C174.898009,377.034662 165.688992,392.800688 156.060308,408.278421 C146.558057,423.5541 137.131786,438.908021 128.519073,454.570722 C121.222883,467.840829 111.497988,483.452044 109,498 C112.790111,467.146303 127.171863,437.490438 144.298022,410.29054 C161.284824,383.314089 180.779154,353.852808 207.081026,332.563583 C204.404139,328.627042 204.329828,323.00793 209.414132,319.277765 Z"/>
      <path fill="#69A1AC" d="M1.9131966,244.030768 C8.03244063,245.227492 18.0312164,259.070175 23.0752982,264.344345 C29.0698505,270.611956 34.5083971,277.292338 39.6348672,284.291716 C50.6711078,299.357587 60.5410853,315.375735 68.9339235,332.079859 C82.6164473,359.310923 93.5779281,387.264554 101.533144,416.917658 C106.40282,435.069395 109.555733,453.882964 111.42432,472.565152 C111.77721,476.088501 115.4712,503.252852 110.148387,503.985007 C105.361077,504.644266 106.839698,483.358557 106.608745,480.463176 C103.998072,447.797866 96.1772343,416.014794 85.2985211,385.226103 C82.9289815,378.519078 80.7275953,370.304171 76.9381423,364.268497 C74.2092052,359.921096 76.9185722,361.437175 72.1228242,359.791894 C68.0049102,358.378312 63.3131333,358.72373 59.0962962,356.993389 C49.9356343,353.236662 42.6005721,345.943735 36.1708879,338.607909 C23.6757579,324.351374 13.774003,308.928035 8.61263648,290.66039 C5.74946717,280.531578 3.11836073,270.343849 1.65825821,259.901833 C1.28055511,257.202878 -2.02816228,243.259967 1.9131966,244.030768 Z"/>
      <path fill="#89C5CC" d="M26.061363,13.7160319 C49.111288,53.6904115 68.0527721,97.6012194 80.2834249,142.076227 C87.6937407,169.023152 92.875997,196.674657 98.0249813,224.126418 C105.997255,266.632047 113.538111,309.134396 115.683127,352.395051 C117.841152,395.906414 122.108499,446.091658 107.860834,488 C114.977614,445.451647 108.201957,400.162237 107.002263,357.34982 C106.428958,336.911865 104.767627,316.673726 102.588271,296.3552 C100.473423,276.645138 97.0183596,257.028931 93.8009172,237.47379 C92.2336415,227.950082 90.5876488,218.440705 88.9117997,208.936528 C88.4115013,206.100946 88.2001646,197.686783 86.4014385,195.749671 C84.5910631,193.799805 75.3542884,193.004911 72.454369,191.574216 C66.6149274,188.69262 61.1221445,184.599523 56.2608889,180.274642 C46.9417982,171.983953 38.8346584,161.151161 32.435855,150.472492 C17.6306837,125.76373 11.7115834,95.6100441 12.0107586,66.9941546 C12.0682413,61.4382419 21.003398,1.60995132 17.4148953,0.786066265 C17.6309536,0.533029377 17.8353283,0.27176118 18.0280364,0 C20.7448404,4.54878452 23.4108122,9.12839556 26.061363,13.7160319 Z"/>
      <path fill="#89C5CC" d="M274.846162,157.887288 C275.201814,157.374304 277.516546,153.806661 276.35092,154.034666 C278.724178,153.570439 273.086653,157.969398 279,155.270217 C276.192302,157.921907 277.812715,161.366495 277.85019,164.93538 C277.91133,170.729664 276.941861,176.476433 275.850557,182.146394 C274.126127,191.108872 271.55719,199.823019 267.828427,208.1592 C259.70147,226.325634 245.90148,243.814146 229.518328,255.171668 C221.430419,260.779333 213.503908,262.688536 204.279644,265.270093 C198.453207,266.901031 197.991162,269.91496 194.898475,275.568863 C188.459734,287.344734 182.135661,299.078246 176.457263,311.251437 C169.676879,325.787507 163.094762,340.339599 156.885915,355.131559 C135.969422,404.957486 118.945337,456.577892 110.004808,510 C109.785907,478.518515 117.068634,446.095278 126.255091,416.088186 C132.946871,394.2257 141.658313,373.150925 150.949917,352.289498 C153.201461,347.235572 156.613471,340.734509 157.569628,335.154756 C158.23913,331.245304 156.192265,327.485558 155.255097,323.367253 C151.601499,307.329812 151.862999,289.362708 155.071402,273.239515 C158.608912,255.460636 168.839228,247.208854 186.145128,244.690591 C192.474243,243.769436 200.51871,244.107045 206.322196,241.408429 C212.645007,238.469723 215.253262,228.810237 218.848644,222.609606 C228.505717,205.953401 239.979718,189.979083 253.15504,175.944848 C256.803162,172.05859 260.726377,168.473254 264.88847,165.150086 C267.513083,163.053353 273.057504,160.47018 274.846162,157.887288 Z"/>
      <path fill="#C1DEE2" d="M80.7914533,476 L142.208547,476 C144.96997,476 147.208547,478.238576 147.208547,481 C147.208547,481.244141 147.190665,481.487955 147.155046,481.729484 L142.408062,513.917935 C140.96096,523.730477 132.540739,531 122.622066,531 L100.377934,531 C90.4592609,531 82.03904,523.730477 80.5919379,513.917935 L75.8449542,481.729484 C75.4420714,478.997608 77.3300935,476.456384 80.0619696,476.053501 C80.3034985,476.017881 80.547312,476 80.7914533,476 Z"/>
    </g>
    <g transform="translate(0 171)">
      <g transform="translate(83.26)">
        <path fill="#B28B67" d="M37.761908,9.04894042 C43.4987706,19.7495563 42.8170822,46.8925558 35.4026984,48.8050543 C32.4459274,49.5677367 26.1472108,47.699537 19.7365063,43.832901 L23.76,72.320725 L0,72.320725 L8.17898576,34.1684098 C3.61752048,28.8101311 0.530303531,22.2435922 1.04620857,14.88564 C2.53274692,-6.31570013 32.0250453,-1.65167544 37.761908,9.04894042 Z" transform="translate(53.46 30.712)"/>
        <path fill="#191847" d="M93.4650051,44.5650539 C93.2296508,43.1780318 92.6544596,41.6377588 92.1903482,40.3255056 C91.5919898,38.6338382 90.686474,37.1085865 89.689977,35.6710996 C87.8138931,32.9647357 85.5632982,30.5208223 83.078423,28.4924417 C78.5394906,24.7874151 72.7616493,22.6503412 67.0798523,23.3443585 C64.2111071,23.6947428 61.4262855,24.789778 59.0560189,26.6124175 C56.9145093,28.2591898 54.854622,30.6833561 52.0816142,30.8575355 C49.0643533,31.046905 46.2985565,28.3818918 43.8787335,26.7359634 C41.1503724,24.8804121 38.2478737,23.5283272 35.0590834,23.0027508 C29.7171233,22.1225707 24.698737,23.9286699 21.0171448,28.3145492 C17.0994312,32.9817823 14.2515518,39.8262587 16.8243398,46.0103046 C17.3025662,47.1598552 17.9178015,48.1289817 18.8007637,48.9321988 C19.6105422,49.6687483 20.8473031,50.4523871 21.1756331,51.6292799 C21.5243687,52.8802665 20.4826113,54.4941269 20.0786426,55.6229179 C19.4999226,57.2401539 19.0247646,58.9377285 19.1936858,60.6955571 C19.4712321,63.5823453 21.2841047,66.3381614 23.1983915,68.2355698 C25.1464318,70.1663964 27.5440081,71.2735836 30.1048288,71.78397 C31.8147532,72.1247338 33.5622667,72.3127531 35.3001144,72.184819 C36.1628246,72.1213583 36.9241206,71.881524 37.7599814,71.6908042 C38.5728283,71.5053166 39.0271205,71.7213531 39.7167669,72.1674348 C42.9204394,74.2400353 46.365143,75.0419022 50.0643791,74.7337126 C53.1864293,74.4734561 56.784865,73.7163155 59.3317241,71.5756972 C62.1601184,69.1982826 62.1038114,65.9199282 61.4382527,62.417267 C62.1433951,62.7669761 64.094197,62.983519 62.928472,61.589577 C62.4666621,61.0375024 61.5941327,60.8128581 61.0016044,60.4881282 C60.3116511,60.1100643 59.6111114,59.6214504 59.0753505,59.0047336 C56.9120545,56.5145749 59.0969834,51.4468303 61.8159856,50.6117141 C65.8556723,49.371023 66.7601141,55.0880586 69.643895,56.5668963 C71.3019616,57.4172026 73.0364339,56.2549935 74.2787181,55.0683116 C75.9427683,53.4785864 77.0768877,51.3725677 78.0560476,49.2294178 C78.8626042,47.4645005 79.6131604,45.6747728 80.4352129,43.9186321 C80.8190829,43.0985371 82.1480523,40.780195 81.4806525,39.8529257 C84.3740992,39.2755343 87.5967964,40.4787565 90.0887292,42.0566671 C91.1186729,42.7089962 91.9039033,43.4281616 92.4533191,44.5797376 C92.5709962,44.8264918 92.8272164,45.5600034 93.1489491,45.590046 C93.7479213,45.6460805 93.5240739,44.9135816 93.4650051,44.5650539"/>
      </g>
      <g transform="translate(0 193.25)">
        <path fill="#C5CFD6" d="M173.99911,0 C181.786816,-1.34879676e-14 188.1,6.31318359 188.1,14.1008902 L188.1,108.745273 C188.1,116.532979 181.786816,122.846163 173.99911,122.846163 L56.6708902,122.846163 C48.8831836,122.846163 42.57,116.532979 42.57,108.745273 L42.57,14.1008902 C42.57,6.31318359 48.8831836,1.4305785e-15 56.6708902,0 L173.99911,0 Z M156.854777,27.7394561 L73.8152226,27.7394561 C71.8682959,27.7394561 70.29,29.317752 70.29,31.2646787 L70.29,31.2646787 L70.29,91.5814842 C70.29,93.5284109 71.8682959,95.1067068 73.8152226,95.1067068 L73.8152226,95.1067068 L156.854777,95.1067068 C158.801704,95.1067068 160.38,93.5284109 160.38,91.5814842 L160.38,91.5814842 L160.38,31.2646787 C160.38,29.317752 158.801704,27.7394561 156.854777,27.7394561 L156.854777,27.7394561 Z" transform="translate(9.9 41.61)"/>
        <path fill="#997659" d="M296.167374,159.501873 C276.648664,135.650077 263.441838,117.967421 256.546897,106.453907 C244.741084,86.7399758 235.07859,69.1982179 232.029348,62.4973453 C224.758038,46.5182552 248.769077,39.0359714 254.20332,46.489149 C262.428263,57.7698293 279.993823,93.2669541 306.9,152.980524 L296.167374,159.501873 Z"/>
        <path fill="#2F3676" d="M256.169991,152.567009 L219.844545,61.0632382 C212.075255,44.3827109 249.5946,33.4181948 255.304441,41.180978 C268.267549,58.8048989 299.077857,128.328711 302.94,133.579465 L256.169991,152.567009 Z"/>
        <path fill="#997659" d="M187.360442,153.697249 C186.359313,141.217009 184.49247,98.0135693 186.338628,78.0172274 C186.86914,72.2710807 187.428241,66.7154945 187.991813,61.5038753 C189.666948,46.0130987 218.387173,46.5126463 216.111491,61.2294255 C210.444142,97.8800223 200.46445,149.243012 199.749428,153.681115 C198.747294,159.901304 187.98962,161.54069 187.360442,153.697249 Z" transform="rotate(39 200.898 104.51)"/>
        <path fill="#E4E4E4" d="M2.73652954,24.9394249 C1.57217651,28.011691 0.99,30.3008571 0.99,31.8069231 C0.99,33.5934295 1.28741006,36.2003866 1.88223019,39.6277945 C3.95324936,39.6277945 22.5658474,39.6277945 57.7200243,39.6277945 C59.1710506,34.8273897 58.333434,32.2358057 55.2071746,31.8530423 C52.0809152,31.4702789 49.4838784,31.1246743 47.4160642,30.8162283 L21.3613869,19.1927707 C20.9168824,18.9944693 20.3957852,19.1940563 20.1974838,19.6385608 C20.1940306,19.6463014 20.1906892,19.6540914 20.1874608,19.6619284 L18.476581,23.8150117 L18.476581,23.8150117 C15.5824824,25.166277 13.2307269,25.8419096 11.4213143,25.8419096 C9.91317545,25.8419096 7.81555665,25.2166241 5.12845793,23.966053 L5.12845678,23.9660555 C4.24589358,23.5553121 3.19746145,23.9377977 2.78671807,24.8203609 C2.76853901,24.8594222 2.75179826,24.8991369 2.73652954,24.9394249 Z" transform="rotate(30 -112.94 372.987)"/>
        <path fill="#E4E4E4" d="M2.73652954,24.9394249 C1.57217651,28.011691 0.99,30.3008571 0.99,31.8069231 C0.99,33.5934295 1.28741006,36.2003866 1.88223019,39.6277945 C3.95324936,39.6277945 22.5658474,39.6277945 57.7200243,39.6277945 C59.1710506,34.8273897 58.333434,32.2358057 55.2071746,31.8530423 C52.0809152,31.4702789 49.4838784,31.1246743 47.4160642,30.8162283 L21.3613869,19.1927707 C20.9168824,18.9944693 20.3957852,19.1940563 20.1974838,19.6385608 C20.1940306,19.6463014 20.1906892,19.6540914 20.1874608,19.6619284 L18.476581,23.8150117 L18.476581,23.8150117 C15.5824824,25.166277 13.2307269,25.8419096 11.4213143,25.8419096 C9.91317545,25.8419096 7.81555665,25.2166241 5.12845793,23.966053 L5.12845678,23.9660555 C4.24589358,23.5553121 3.19746145,23.9377977 2.78671807,24.8203609 C2.76853901,24.8594222 2.75179826,24.8991369 2.73652954,24.9394249 Z" transform="translate(285.12 130.772)"/>
        <path fill="#5C63AB" d="M206.77347,65.6335864 C176.581619,60.7115002 156.358709,57.3457966 146.104737,55.5364758 C116.876877,50.3791981 108.353784,34.6399734 113.393091,0.299416379 L167.244928,0.299416379 C174.371352,2.35883814 204.148321,15.0956936 256.575833,38.5099828 C266.008577,43.195815 264.25189,57.0120108 262.527752,61.5638362 C262.457435,61.749477 246.555637,89.0169202 214.822357,143.366166 L170.769285,115.282693 L206.856202,68.9428394 C207.809223,67.021981 207.781646,65.9188966 206.77347,65.6335864 Z"/>
      </g>
      <g transform="translate(19.8 88.237)">
        <path fill="#997659" d="M60.9697919,67.4496834 L82.8671837,67.5318631 C66.1894326,121.56567 57.3363474,149.856914 56.3079281,152.405597 C53.9939846,158.140133 58.8906002,166.873732 60.9845874,171.567103 C58.0353781,172.886786 56.4973907,171.522357 55.0059077,169.872095 L54.7264664,169.559907 L54.7264664,169.559907 L54.446116,169.244533 C52.663464,167.24449 50.7058324,165.264122 46.2879189,167.319492 C44.7367687,168.041142 43.2589408,168.878532 41.8160657,169.714633 L41.276551,170.027882 C41.1868799,170.080004 41.0973267,170.132064 41.0078819,170.184033 L40.4724394,170.494529 C35.129527,173.584029 30.1095225,176.141118 23.3890352,171.994371 C22.2736052,171.306117 21.0512757,168.714714 24.0045784,166.68967 C31.3623323,161.644547 41.9653015,152.814672 43.3979297,149.908251 C45.3515741,145.944826 51.2088615,118.458637 60.9697919,67.4496834 L60.9697919,67.4496834 Z M199.493124,92.4603344 L227.821028,120.095357 C236.063404,123.611168 242.816857,127.493333 248.081387,131.741853 C249.265301,133.169925 250.554184,135.906184 244.983927,134.681747 C239.413671,133.45731 233.49953,132.419902 232.45261,134.23139 C231.405691,136.042878 234.490525,138.818722 232.555688,141.189494 C231.265796,142.770009 226.92779,137.742701 219.54167,126.10757 L190.084396,108.74029 L199.493124,92.4603344 Z"/>
        <path fill="#4F25C5" d="M122.768272,9.7139848 L131.253224,7.48281413 C149.019938,54.2642227 221.602897,80.8616426 227.451896,98.4190631 C229.596879,104.857833 225.154909,108.596168 227.774893,110.385298 L217.29519,119.561394 C215.205566,117.515062 211.513381,121.915723 202.815928,119.824345 C194.118475,117.732967 127.737533,66.5128914 122.768272,9.7139848 Z" transform="rotate(5 175.413 63.943)"/>
        <g transform="translate(40 -4.73)">
          <mask id="voty_screen_modul_2_g1-e" fill="#fff">
            <use xlink:href="#voty_screen_modul_2_g1-d"/>
          </mask>
          <use fill="#693DE3" xlink:href="#voty_screen_modul_2_g1-d"/>
          <g mask="url(#voty_screen_modul_2_g1-e)">
            <g transform="translate(-30 -7.27)">
              <mask id="voty_screen_modul_2_g1-g" fill="#fff">
                <use xlink:href="#voty_screen_modul_2_g1-f"/>
              </mask>
              <path fill="#DE32C7" d="M61.9779748,0.237402206 L8.67132867e-05,0.237402206 L8.67132867e-05,164.42513 L61.9779748,164.42513 C41.2179469,143.230693 28.4216671,114.2703 28.4216671,82.3312662 C28.4216671,50.391801 41.2179469,21.4318391 61.9779748,0.237402206" mask="url(#voty_screen_modul_2_g1-g)"/>
              <g transform="translate(231)">
                <mask id="voty_screen_modul_2_g1-i" fill="#fff">
                  <use xlink:href="#voty_screen_modul_2_g1-h"/>
                </mask>
                <path fill="#DE32C7" d="M0.0967027778,0.237402206 C20.7129944,21.4318391 33.4199806,50.391801 33.4199806,82.3312662 C33.4199806,114.2703 20.7129944,143.230693 0.0967027778,164.42513 L61.6441889,164.42513 L61.6441889,0.237402206 L0.0967027778,0.237402206 Z" mask="url(#voty_screen_modul_2_g1-i)"/>
              </g>
              <g transform="translate(28)">
                <mask id="voty_screen_modul_2_g1-k" fill="#fff">
                  <use xlink:href="#voty_screen_modul_2_g1-j"/>
                </mask>
                <path fill="#693DE3" d="M118.53772,124.689499 C95.0083082,124.689499 75.9337148,105.725374 75.9337148,82.3312662 C75.9337148,58.9375899 95.0083082,39.9730334 118.53772,39.9730334 C142.067566,39.9730334 161.141726,58.9375899 161.141726,82.3312662 C161.141726,105.725374 142.067566,124.689499 118.53772,124.689499 M203.240479,0.237402206 L33.8349621,0.237402206 C13.051017,21.4318391 0.239995055,50.391801 0.239995055,82.3312662 C0.239995055,114.2703 13.051017,143.230693 33.8349621,164.42513 L203.240479,164.42513 C224.024858,143.230693 236.835446,114.2703 236.835446,82.3312662 C236.835446,50.391801 224.024858,21.4318391 203.240479,0.237402206" mask="url(#voty_screen_modul_2_g1-k)"/>
              </g>
              <path fill="#4FBACF" d="M146.5,40 C123.028028,40 104,59.0280282 104,82.5 C104,105.972405 123.028028,125 146.5,125 C169.972405,125 189,105.972405 189,82.5 C189,59.0280282 169.972405,40 146.5,40"/>
            </g>
          </g>
        </g>
      </g>
    </g>
    <g transform="matrix(-1 0 0 1 656 86)">
      <g transform="translate(82 73)">
        <path fill="#F1C0A6" d="M38.1433414,9.13393292 C43.9381521,19.9350547 43.249578,47.3329958 35.7603014,49.2634576 C32.773664,50.0333035 26.4113241,48.1475566 19.935865,44.2446031 L24,73 L0,73 L8.26160177,34.4893378 C3.65406109,29.0807313 0.535660132,22.452516 1.05677633,15.0254539 C2.55833022,-6.37502057 32.3485306,-1.66718886 38.1433414,9.13393292 Z" transform="translate(54 31)"/>
        <path fill="#191847" d="M74,29 C86.8690713,29 91.7485692,34.3062174 92,39 C86.9777323,40.3802828 78.5371266,40.9875703 66.6089249,41.0100681 L65.1895125,41.0100283 C64.4717569,41.0086707 63.7419241,41.0053152 63,41 L63,42 L75,43 L77,49 C73.818039,48.7624584 71.5442321,50.9450202 69.7297608,53.8671184 C68.9456796,53.3278818 68.0076493,53 67,53 C64.2385763,53 62,55.4624339 62,58 C62,60.6396292 63.2463746,62.6806558 65.0263305,63.5467302 C64.0760809,65.4058117 63.1200109,66.7549645 62,67 C57.6781395,66.5628085 52,55.8205201 52,47 C52,37.3455086 59.6819829,29 74,29 Z"/>
      </g>
      <g transform="translate(0 260)">
        <g transform="translate(65 42)">
          <polygon fill="#C5CFD6" points="27.623 0 104.877 0 115 124 0 124"/>
          <polygon fill="#000" fill-opacity=".1" points="27.623 0 51.383 0 65.604 124 0 124"/>
        </g>
        <path fill="#F1C0A6" d="M257.954028,20.756908 L258.24189,20.5887017 C266.50855,15.9575335 280.00938,22.2466943 280.000005,29.2384154 C279.971611,50.4029106 260.656682,150.1511 259.648224,156.456711 C258.639766,162.762321 247.83665,164.42787 247.20755,156.477375 C246.206544,143.826795 244.3468,100.033121 246.20755,79.7626522 C246.975689,71.3947628 247.802939,63.4254961 248.617343,56.3158982 C238.483775,74.6174738 222.808496,100.823961 201.593128,134.933778 L190.076573,129.672175 C199.120166,99.8760987 206.535776,78.8408618 212.323403,66.5664641 C215.899113,58.9831012 219.394396,51.7927571 222.58547,45.4013011 L223.129489,44.3135245 C228.53905,33.5155316 233.017031,25.1334494 235.436043,21.2120072 C241.587899,11.2392801 252.296386,14.7194928 257.954028,20.756908 Z"/>
        <path fill="#0D5094" d="M208.819223,123.340112 L213.936922,21.8299349 C217.625361,4.27739957 248.84365,12.4235349 248.830816,21.8299349 C248.801666,43.1853748 235.973522,116.956762 235.964839,123.319261 L208.819223,123.340112 Z" transform="rotate(20 228.825 67.42)"/>
        <g filter="url(#voty_screen_modul_2_g1-l)" transform="translate(185 113)">
          <path fill="#E4E4E4" d="M2.67813181,25.4019242 C1.55937727,28.3884109 1,30.6229931 1,32.1056708 C1,33.908957 1.3004142,36.5404001 1.90124261,40 C3.99318117,40 22.7937852,40 58.3030548,40 C59.768738,35.1545073 58.9226607,32.5385816 55.7648228,32.1522232 C52.606985,31.7658647 49.9837155,31.4170139 47.8950143,31.1056708 L21.6799926,19.4188835 C21.1755635,19.1940064 20.584344,19.4206282 20.359467,19.9250573 C20.35562,19.9336867 20.3518954,19.9423702 20.3482945,19.9511052 L18.6632131,24.038695 L18.6632131,24.038695 C15.7398812,25.4026522 13.3643706,26.0846307 11.5366811,26.0846307 C10.0517269,26.0846307 8.00099246,25.4849054 5.38447792,24.2854549 L5.38448339,24.285443 C4.38038273,23.8251478 3.19325534,24.2659892 2.73296014,25.2700899 C2.71312074,25.3133681 2.69483298,25.3573409 2.67813181,25.4019242 Z" transform="rotate(30 30.5 20)"/>
        </g>
        <g filter="url(#voty_screen_modul_2_g1-m)" transform="translate(242 126)">
          <path fill="#E4E4E4" d="M2.67813181,25.4019242 C1.55937727,28.3884109 1,30.6229931 1,32.1056708 C1,33.908957 1.3004142,36.5404001 1.90124261,40 C3.99318117,40 22.7937852,40 58.3030548,40 C59.768738,35.1545073 58.9226607,32.5385816 55.7648228,32.1522232 C52.606985,31.7658647 49.9837155,31.4170139 47.8950143,31.1056708 L21.6799926,19.4188835 C21.1755635,19.1940064 20.584344,19.4206282 20.359467,19.9250573 C20.35562,19.9336867 20.3518954,19.9423702 20.3482945,19.9511052 L18.6632131,24.038695 L18.6632131,24.038695 C15.7398812,25.4026522 13.3643706,26.0846307 11.5366811,26.0846307 C10.0517269,26.0846307 8.00099246,25.4849054 5.38447792,24.2854549 L5.38448339,24.285443 C4.38038273,23.8251478 3.19325534,24.2659892 2.73296014,25.2700899 C2.71312074,25.3133681 2.69483298,25.3573409 2.67813181,25.4019242 Z"/>
        </g>
        <path fill="#105BA7" d="M282.770373,36.4330278 C282.770373,63 270.1536,124.970293 270.145616,130.820112 L243,130.840963 C246.973277,75.5454811 248.382172,47.5998928 247.226683,47.0041979 C245.49345,46.1106556 176.175838,53.9250306 155.386358,53.9250306 C125.407825,53.9250306 113.006307,35.0203971 112,-4.40536496e-13 L171.386358,-4.40536496e-13 C183.477954,1.29386693 246.548825,14.0152568 269.972097,18.3884129 C280,20.2606358 282.770373,29.1145109 282.770373,36.4330278 Z"/>
      </g>
      <g transform="translate(22 155)">
        <path fill="#F1C0A6" d="M68.3079281,93.0198914 L89.2053198,93.1020711 C78.4956844,127.674615 71.8763087,148.777448 69.3471926,156.410568 L69.088982,157.185464 C68.7122581,158.308737 68.4519068,159.048781 68.3079281,159.405597 C65.9939846,165.140133 70.8906002,173.873732 72.9845874,178.567103 C66.1645409,181.61887 66.8912241,170.316929 58.2879189,174.319492 C56.5428749,175.131349 54.8906295,176.089688 53.276551,177.027882 L52.7398634,177.339639 C52.5613888,177.443156 52.3833105,177.546197 52.2055535,177.648531 L51.6731714,177.953189 C46.6232753,180.822978 41.7734982,182.933781 35.3890352,178.994371 C34.2736052,178.306117 33.0512757,175.714714 36.0045784,173.68967 C38.2342008,172.160845 40.7618228,170.284476 43.2419631,168.330709 L43.9842353,167.742526 C49.4120517,163.416125 54.4428443,158.845865 55.3979297,156.908251 C57.3515741,152.944826 61.6549068,131.648706 68.3079281,93.0198914 L68.3079281,93.0198914 Z M194.04441,89.1225115 L222.372314,116.757535 C230.61469,120.273345 237.368143,124.155511 242.632673,128.40403 C243.816587,129.832102 245.10547,132.568362 239.535214,131.343925 C238.999612,131.22619 238.460831,131.110185 237.923503,130.998275 L237.279704,130.866101 C232.460889,129.891811 227.909884,129.325933 227.003896,130.893567 C225.956977,132.705055 229.041811,135.480899 227.106974,137.851671 C225.817082,139.432186 221.479076,134.404878 214.092956,122.769747 L184.635682,105.402467 L194.04441,89.1225115 Z"/>
        <path fill="#0968AB" d="M122.01899,9.23199981 L130.503942,7.00082913 C148.576175,42.7520052 177.414525,74.1501034 217.01899,101.195124 L192.061793,137.56505 C151.33882,97.6857553 124.670571,55.1985909 122.01899,9.23199981 Z" transform="rotate(5 169.519 72.283)"/>
        <path fill="#DDE3E9" d="M90,114 L167,114 C149.16087,70.6251468 140.241304,33.7787236 140.241304,3.4607303 L117.014208,0 C98.7598929,29.3584068 93.6048263,65.5045499 90,114 Z"/>
        <path fill="url(#voty_screen_modul_2_g1-n)" d="M118.047752,-4.26325641e-14 C119.86198,0.0624731357 122.625282,0.175030894 126.337658,0.337673275 L126.337658,0.337673275 L131.950158,16.3768801 C132.543836,35.9324229 136.010826,75.3421183 142.351127,134.605966 L142.351127,134.605966 L91.8760675,134.60553 C92.008386,138.698782 92.2265651,142.830272 92.5306047,147 L92.5306047,147 L55,147 C60.6139164,83.6639633 81.1152373,34.6639633 116.503963,1.42108547e-14 L116.503963,1.42108547e-14 L116.522,0.017 L116.531583,-4.26325641e-14 Z"/>
        <path fill="#000" fill-opacity=".1" d="M106,135 L91.889057,134.999288 C91.2713571,116.643048 92.3783198,99.0548837 95.2099449,82.2347951 C96.6469231,107.748771 100.243477,125.3371 106,135 Z"/>
        <polygon fill="#FFF" fill-opacity=".2" points="103.111 104 128 92.429 128 104"/>
      </g>
    </g>
  </g>
</svg>
