<svg xmlns="http://www.w3.org/2000/svg" xmlns:xlink="http://www.w3.org/1999/xlink" width="934" height="550" viewBox="0 0 934 550">
  <defs>
    <linearGradient id="voty-startscreen-a" x1=".426%" x2="100%" y1="28.412%" y2="68.781%">
      <stop offset="0%" stop-color="#9BE3F0"/>
      <stop offset="100%" stop-color="#DBF9FF"/>
    </linearGradient>
    <path id="voty-startscreen-b" d="M16.6249255,7.3276563 C19.0698878,7.30802593 21.2841932,8.76950679 22.2293954,11.025036 C23.1745976,13.2805652 22.6612635,15.883552 20.9328097,17.6129874 C19.2033743,19.3424227 16.6003876,19.8547753 14.3448583,18.9095731 C12.0883476,17.9653524 10.6278482,15.751047 10.6464971,13.3051032 C10.6729981,10.0140721 13.3338944,7.35317578 16.6249255,7.3276563 Z"/>
    <path id="voty-startscreen-c" d="M40.5360873,7.3276563 C42.9810495,7.30802593 45.1963365,8.76950679 46.1405572,11.025036 C47.0857594,13.2805652 46.5724253,15.883552 44.8439714,17.6129874 C43.114536,19.3424227 40.5115493,19.8547753 38.2560201,18.9095731 C35.9995093,17.9653524 34.53901,15.751047 34.5576588,13.3051032 C34.5841598,10.0140721 37.2450562,7.35317578 40.5360873,7.3276563 Z"/>
    <path id="voty-startscreen-d" d="M64.4471509,7.3276563 C66.8921131,7.30802593 69.1074001,8.76950679 70.0516208,11.025036 C70.996823,13.2805652 70.4834889,15.883552 68.755035,17.6129874 C67.0255996,19.3424227 64.4226129,19.8547753 62.1670837,18.9095731 C59.9115544,17.9653524 58.4500736,15.751047 58.4687224,13.3051032 C58.4952234,10.0140721 61.1561197,7.35317578 64.4471509,7.3276563 Z"/>
    <path id="voty-startscreen-e" d="M16.6249255,7.3276563 C19.0698878,7.30802593 21.2841932,8.76950679 22.2293954,11.025036 C23.1745976,13.2805652 22.6612635,15.883552 20.9328097,17.6129874 C19.2033743,19.3424227 16.6003876,19.8547753 14.3448583,18.9095731 C12.0883476,17.9653524 10.6278482,15.751047 10.6464971,13.3051032 C10.6729981,10.0140721 13.3338944,7.35317578 16.6249255,7.3276563 Z"/>
    <path id="voty-startscreen-f" d="M40.5360873,7.3276563 C42.9810495,7.30802593 45.1963365,8.76950679 46.1405572,11.025036 C47.0857594,13.2805652 46.5724253,15.883552 44.8439714,17.6129874 C43.114536,19.3424227 40.5115493,19.8547753 38.2560201,18.9095731 C35.9995093,17.9653524 34.53901,15.751047 34.5576588,13.3051032 C34.5841598,10.0140721 37.2450562,7.35317578 40.5360873,7.3276563 Z"/>
    <path id="voty-startscreen-g" d="M64.4471509,7.3276563 C66.8921131,7.30802593 69.1074001,8.76950679 70.0516208,11.025036 C70.996823,13.2805652 70.4834889,15.883552 68.755035,17.6129874 C67.0255996,19.3424227 64.4226129,19.8547753 62.1670837,18.9095731 C59.9115544,17.9653524 58.4500736,15.751047 58.4687224,13.3051032 C58.4952234,10.0140721 61.1561197,7.35317578 64.4471509,7.3276563 Z"/>
    <linearGradient id="voty-startscreen-h" x1=".426%" x2="100%" y1="28.412%" y2="68.781%">
      <stop offset="0%" stop-color="#9BE3F0"/>
      <stop offset="100%" stop-color="#DBF9FF"/>
    </linearGradient>
    <path id="voty-startscreen-i" d="M21.299841,9.38818725 C24.4323246,9.36303684 27.269291,11.2354849 28.4802832,14.1252671 C29.6912755,17.0150493 29.0335923,20.3499938 26.8190986,22.565745 C24.6033474,24.7814962 21.268403,25.4379219 18.3786208,24.2269296 C15.487581,23.0171948 13.6163905,20.1802285 13.6402834,17.0464873 C13.6742364,12.830021 17.0833746,9.42088278 21.299841,9.38818725 Z"/>
    <path id="voty-startscreen-j" d="M51.9348018,9.38818725 C55.0672855,9.36303684 57.9055093,11.2354849 59.1152441,14.1252671 C60.3262364,17.0150493 59.6685531,20.3499938 57.4540595,22.565745 C55.2383083,24.7814962 51.9033638,25.4379219 49.0135816,24.2269296 C46.1225419,23.0171948 44.2513513,20.1802285 44.2752442,17.0464873 C44.3091973,12.830021 47.7183355,9.42088278 51.9348018,9.38818725 Z"/>
    <path id="voty-startscreen-k" d="M82.5696369,9.38818725 C85.7021206,9.36303684 88.5403444,11.2354849 89.7500792,14.1252671 C90.9610715,17.0150493 90.3033882,20.3499938 88.0888946,22.565745 C85.8731434,24.7814962 82.5381989,25.4379219 79.6484167,24.2269296 C76.7586345,23.0171948 74.8861864,20.1802285 74.9100793,17.0464873 C74.9440324,12.830021 78.3531706,9.42088278 82.5696369,9.38818725 Z"/>
    <linearGradient id="voty-startscreen-l" x1="50%" x2="50%" y1="0%" y2="100%">
      <stop offset="0%" stop-color="#FFCB45"/>
      <stop offset="100%" stop-color="#FF9B21"/>
    </linearGradient>
    <linearGradient id="voty-startscreen-m" x1="50%" x2="62.228%" y1="0%" y2="100%">
      <stop offset="8.484%" stop-color="#94D1D7"/>
      <stop offset="99.904%" stop-color="#6DABB2"/>
    </linearGradient>
  </defs>
  <g fill="none" fill-rule="evenodd">
    <path fill="#DDE3E9" d="M559.945214,123.675289 C568.110935,178.952885 370.078292,215.008568 199.627006,189.846176 C29.17572,164.683783 -49.0192483,66.4218028 32.3172638,14.0639567 C113.653776,-38.2938893 551.779492,68.3976936 559.945214,123.675289 Z" opacity=".6" transform="translate(179.62 243.337)"/>
    <g transform="translate(48.969 138.967)">
      <g transform="translate(233.268 .054)">
        <path fill="#DDE3E9" d="M18.1353893,27.5054849 C16.9761765,27.5054849 15.8204978,27.5286491 14.6627402,27.5885914 C13.7802332,27.6345133 12.4316296,27.4524512 11.684877,27.9998567 C10.9090193,28.5683944 10.9624478,29.7322914 11.0836496,30.5542124 C11.7243767,34.9007419 13.2881499,38.7549316 16.5595583,41.8343414 C21.5966044,46.5760838 27.3710478,48.9853588 34.2040838,50.0582247 C39.0039237,50.8118724 43.4349608,49.7654217 46.9683148,46.3686224 C49.5499334,51.1369833 51.5084959,56.4137364 52.4912074,61.7394593 C52.9760145,64.3673713 53.1240345,66.963585 53.0387983,69.6394509 C52.9839145,71.3533949 52.8889073,73.063275 52.704298,74.7690913 C52.6242591,75.5103441 52.2444381,76.6323831 52.5361124,77.3327939 C52.8783047,78.1553245 54.0323202,78.2349766 54.5503903,77.5335499 C54.9815609,76.9497726 54.9023536,75.8033503 54.9909161,75.1124897 C55.1376888,73.9648482 55.273651,72.8163939 55.370945,71.6634694 C55.5289439,69.7973329 55.6457799,67.9259133 55.6376943,66.0526649 C55.6175064,61.8439011 54.6772052,57.6186786 53.3909695,53.6234721 C50.9234843,45.9587795 46.9198757,39.1468934 40.6932644,33.8022734 C36.8647019,30.5158086 32.4829355,29.1848859 27.5115837,28.4704547 C24.4164687,28.0256624 21.2708356,27.5054849 18.1353893,27.5054849" transform="rotate(-39 33.325 52.757)"/>
        <path fill="#89C5CC" d="M23.7322704,28.5154362 C23.4845774,27.6085767 23.3358497,26.67094 23.4046223,25.7221808 C23.422095,25.4823628 23.6232407,23.7404063 23.8179565,23.7404063 C24.2714081,23.7404063 23.6468638,28.2361564 23.7322704,28.5154362 M15.8406858,32.4392586 C15.8681646,32.4502758 16.3674319,33.4098931 16.5312113,33.6885174 C16.87914,34.2812128 17.2501727,34.8595379 17.631322,35.4236523 C16.9161885,34.4942127 16.2746054,33.5975055 15.8406858,32.4392586 M42.6257582,3.88897977 C43.0505182,3.53069099 42.8181354,2.63558891 42.3143207,3.12978567 C41.9075711,3.53022608 41.8954579,3.49055396 41.3841521,3.46498405 C40.9689552,3.44421817 40.5273004,3.3152838 40.1100315,3.263989 C39.2249688,3.15520062 38.344847,3.10917477 37.4543652,3.17131742 C35.5455751,3.30428099 33.6882663,3.75896061 31.920691,4.46608506 C28.8361207,5.70025974 25.7223829,7.29954185 23.2684975,9.52660417 C19.3667623,13.0676503 16.2334203,17.9147768 14.3845588,22.7479562 C13.2393804,25.7411862 12.6228808,28.745419 13.6638216,31.8585952 C14.1838936,33.414486 15.0071151,34.8950617 16.2018621,36.0639943 C16.514256,36.3694386 16.9259464,36.6060766 17.2182578,36.9267078 C17.6677224,37.4196648 17.5647599,37.2617512 17.2726079,37.9651564 C16.95352,38.7331838 16.6373009,39.5021409 16.3231538,40.2721828 C15.5008886,42.2884871 14.6913742,44.3275718 14.0943195,46.4198109 C13.8976389,47.108339 13.7463829,47.8074051 13.6367263,48.5140646 C13.5535275,49.0483984 13.0705921,51.0812843 13.4908893,51.6275507 C14.1901096,52.536755 14.4879995,51.1406375 14.5104727,50.6630224 C14.530077,50.2446056 14.5665761,49.825259 14.6188542,49.4093216 C14.7505059,48.3620398 14.9886265,47.3339742 15.297992,46.3238849 C15.6322216,45.2322819 16.04184,44.1611348 16.4489083,43.093552 C16.8287218,42.0980299 17.226227,41.1090165 17.6315421,40.1232574 C17.8565931,39.5755963 18.0843538,39.02902 18.3121144,38.4824436 C18.389894,38.2957057 18.4298996,37.9056482 18.6358245,38.0657314 C19.0859266,36.8986584 19.8187771,35.7903187 20.4263512,34.6946865 C21.1706773,33.3528082 21.930145,32.0137194 22.7855622,30.7352235 C23.40254,29.8131568 24.052351,28.9104612 24.7633658,28.0537915 C25.1788814,27.553241 25.6230863,27.0827545 26.0950242,26.6317942 C26.3543429,26.3841534 27.2397244,25.3218395 27.5969053,25.3218395 C27.4434179,25.3218395 26.7491386,26.6710014 26.6409164,26.8303097 C26.208506,27.467853 25.7391183,28.0751773 25.2600082,28.680177 C24.3709609,29.8029288 23.5459861,30.9664376 22.7997474,32.1835656 C23.015076,32.3117252 23.9104987,31.7212925 24.1774679,31.6073902 C24.7762759,31.3521559 25.3918193,31.1339593 26.0225042,30.9656627 C27.1334149,30.6690517 28.4912124,30.3312188 29.5879379,30.3312188 C29.2647059,30.3312188 28.5144825,30.858734 28.1780216,31.0020805 C27.6388235,31.2315899 27.0859183,31.4409532 26.5253626,31.6157585 C26.0078408,31.7770814 25.4809153,31.900127 24.9504833,32.0134094 C24.4197325,32.126537 23.4607154,32.1308761 22.97778,32.4135399 C22.9486126,32.4305865 22.9788957,32.7042621 22.8646169,32.7775626 C22.7495412,32.8514829 22.4199339,32.8273077 22.3931573,32.8476086 C21.997724,33.1445296 21.7211917,34.0049186 21.4832305,34.4281395 C20.8657746,35.5254764 20.264257,36.6313365 19.6568423,37.7339424 C19.4686091,38.0754945 19.2182159,38.309188 19.3838165,38.586118 C19.560574,38.8813343 20.39559,39.0645079 20.7218502,39.1720565 C21.9333327,39.5717221 23.1609129,39.7040658 24.4240359,39.4942375 C26.7899411,39.1015455 28.8434523,38.0775091 30.694864,36.6279272 C37.7862039,31.0756908 43.6024671,24.0890596 45.3780116,15.2181579 C46.112934,11.5455429 46.9047568,5.81772639 42.6257582,3.88897977" transform="scale(-1 1) rotate(74 -8.675 -12.455)"/>
      </g>
      <g transform="matrix(-1 0 0 1 669.05 93.594)">
        <path fill="#C1DEE2" d="M108.302377,2.85641086 C104.964665,0.593104518 100.526151,0 96.5319574,0 C80.9313864,0 66.2675746,5.78810272 53.5997659,14.4125007 C46.6584367,19.1381357 40.448892,25.1560435 34.9667574,31.4217386 C31.8024611,35.038579 28.980935,38.951362 26.9833695,43.3030302 C25.6354112,46.2402081 24.7102131,49.3005177 24.0831031,52.4571382 C23.3188226,56.3040885 22.7117102,60.2290628 22.4370566,64.1400172 C22.328945,65.6800774 21.4340557,73.8521798 23.9946765,73.9905506 C23.9799909,74.1920111 23.9765538,74.3840233 23.9921769,74.5562248 C18.4322393,83.2498082 14.9970391,93.4383441 11.8114955,103.098084 C9.03996317,111.503954 6.57026854,119.980838 4.96702928,128.67686 C2.85635276,140.125666 1.46996168,151.746675 0.810668204,163.360064 C0.669123206,165.855918 0.571947721,168.352992 0.488208075,170.852199 C0.417279346,172.98384 0.345413232,175.11548 0.275421886,177.247121 C0.197306545,179.635998 -0.223266452,182.386344 0.156686568,184.761201 C0.487270691,186.829447 2.27736185,186.516437 2.35641458,184.458248 C2.45202775,181.972756 2.43640468,179.482388 2.54514124,176.995067 C2.68981085,173.69398 2.83885492,170.392893 3.00039745,167.092721 C4.1249459,144.167372 8.34379925,121.579111 16.1297115,99.9237866 C19.2805719,91.1604082 22.891063,82.8645645 27.5314267,74.75799 C31.6112348,67.6303732 36.518753,60.7301234 41.5350077,54.3035037 C46.4106548,48.0582289 51.4797156,41.9574205 57.4536644,36.6661114 C62.3015025,32.3723517 67.6339681,28.6317701 73.1154778,25.151167 C80.077742,20.7306182 87.0265703,16.4173525 94.5681378,13.0239169 C98.488278,11.2601472 102.482472,9.68107498 106.433233,7.98862411 C107.144083,7.68414754 107.906176,7.3888144 108.589841,7.03618238 C110.870497,5.86003112 110.119652,4.08864189 108.302377,2.85641086"/>
        <path fill="#89C5CC" d="M57.6963124,82.9283683 C51.3689712,82.9283683 45.7386253,83.750532 39.908676,86.2650644 C34.8762585,88.4352545 30.2900826,91.3082249 25.8373677,94.4360718 C19.5741113,98.835137 14.6407606,103.955106 11.1875328,110.738963 C9.12447383,114.791673 7.6111328,120.526394 8.99659828,124.946747 C10.6287019,130.153017 15.1099316,134.495123 21.0119028,133.577741 C24.6615005,133.011029 28.0071365,130.595168 30.7810072,128.321416 C34.0993043,125.601199 36.7555882,122.330379 38.9488744,118.69767 C42.5267442,112.771935 44.6291947,106.07294 47.6685173,99.8808211 C49.1107184,96.941974 50.5044149,93.982127 52.2317638,91.1891291 C53.0869131,89.8060069 53.9973283,88.4361175 55.2946037,87.408269 C55.9886593,86.8585297 58.9150987,85.9069139 57.7959671,84.67223 C74.2043114,84.8876955 88.7403812,97.489412 91.8902353,113.087797 C92.1836142,114.541687 92.4129083,116.00737 92.6551369,117.470178 C92.8079996,118.393889 92.7462666,121.800202 93.5720193,122.390215 C95.3931436,123.691926 94.627654,119.7376 94.5494589,119.1683 C94.3475037,117.696862 94.132026,116.226576 93.9059656,114.758878 C92.6760085,106.77572 89.1219501,99.3543831 83.1949917,93.6610861 C76.4172934,87.1508034 67.2725745,82.9283683 57.6963124,82.9283683" transform="matrix(-1 0 0 1 103.237 0)"/>
      </g>
      <g transform="translate(.598 119.126)">
        <path fill="#69A1AC" d="M8.40949168,30.2403966 C24.205223,56.7397999 42.6022289,82.398508 53.6502836,111.371714 C53.2050746,107.956655 52.7330053,104.545134 52.2046209,101.138467 C49.4013283,83.0797459 45.9172916,65.1527984 42.2561621,47.2478275 C40.3916974,38.131486 38.4198022,29.0481821 36.3973325,19.9656548 C35.3095855,15.0874264 34.2351753,10.2062256 33.1250149,5.33264247 C32.8561097,4.15141452 32.6250652,2.08965044 32.2884091,0 C43.0253642,35.2332833 53.3794092,70.493134 60.9530256,106.573438 C61.9465831,111.308593 62.792672,116.035335 63.4857346,120.753852 C63.7228226,119.677444 63.9560201,118.600853 64.2112648,117.527395 C67.2756906,104.658855 71.8724283,91.8927387 77.3456495,79.8604043 C79.9621737,74.1062532 82.9676208,68.478115 86.5062629,63.2338365 C88.7128939,59.9648461 93.9168161,56.0789409 95.9298106,52.7310184 C84.9208306,72.9227876 80.9456925,98.1868779 74.5891032,120.138948 C73.0375829,125.495881 71.4764245,130.844117 69.9467649,136.201775 C79.5327708,116.977449 94.4056678,101.182329 115.084266,94.3374217 C90.0536201,110.876026 75.0399933,139.839256 64.9228709,169.461376 C64.889534,169.812678 64.8498984,170.163984 64.8156355,170.515841 C67.7927262,164.865687 71.5428198,159.75514 76.6253836,156.175787 C87.5034691,148.513266 99.5708206,150.745488 110.122955,157.318376 C101.841306,152.053989 86.8739508,156.847719 79.905717,162.198321 C74.9172171,166.02852 70.6539789,171.167024 66.9518128,176.180134 C66.0647297,177.381813 64.8544852,178.783897 63.5759332,180.279913 C61.7833508,191.915946 58.8621426,203.47223 54.7263432,214.936791 C55.4088583,211.646109 54.9153859,206.383218 55.1046568,203.930435 C55.1252585,203.664879 55.1419697,203.39914 55.1623865,203.134325 C54.5337194,205.644455 53.9263409,208.126052 53.3415416,210.567636 C54.5040393,205.908536 55.1358497,201.044824 55.6290604,196.130843 C55.7560887,194.019012 55.8799676,191.907183 56.0108863,189.795535 C55.9693932,185.787812 55.8043254,181.764253 55.5251361,177.734293 C54.535181,173.817611 53.4267849,170.123224 52.5126966,167.050888 C49.2141837,155.96493 44.3786713,145.3443 38.4270135,135.436278 C32.9967762,126.394692 26.4967845,118.204748 18.9929517,110.797884 C14.9477076,106.806157 10.7141629,103.004369 6.54024156,99.1497643 C5.03092777,97.7562818 2.33318077,94.3300483 0,92.5440246 C16.9922659,101.911997 34.4819991,112.046798 46.8778906,127.140702 C45.4246145,121.559993 43.8461488,116.058258 42.1764127,110.666767 C33.7054291,83.3129378 23.0095214,54.9633368 8.40949168,30.2403966 Z"/>
        <path fill="#C5CFD6" d="M25.3862352,180.24227 C25.3862352,210.619869 27.7918448,235.245779 60.0807566,235.245779 C92.3696684,235.245779 94.775278,210.619869 94.775278,180.24227"/>
      </g>
    </g>
    <g transform="translate(.394)">
      <g transform="translate(.195 30.725)">
        <path fill="#89C5CC" d="M82.9489731,1.0825758 C82.5161284,0.767809604 81.4892163,0.656198183 81.0114777,0.561905775 C79.0257003,0.170441086 76.9800644,7.10542736e-15 74.9556048,7.10542736e-15 C68.7130976,0.00934676925 62.3692263,0.622109965 56.230342,1.68269337 C52.3327633,2.35593566 47.620883,4.62170249 43.7436335,3.39122781 C36.9889409,1.24724389 30.1622487,1.35253249 23.7537188,4.41332452 C17.8946448,7.2121321 13.4467632,12.5276948 10.8511067,18.2712845 C10.4594853,19.1383348 8.87069396,22.3294317 8.42090817,24.4805632 C8.22862687,24.9204112 8.04396905,25.3632831 7.87738172,25.8127527 C7.40472547,27.0888616 6.98091601,28.3875127 6.5870358,29.688638 C6.41875437,30.2436712 5.99550961,31.4691975 6.49809511,31.7061656 C5.69508772,33.1881784 4.98327983,34.7155504 4.39034188,36.2924054 C2.66602185,40.8783702 0.780761526,45.9088564 0.174835413,50.7694513 C-0.0496339535,52.5692542 -0.0581044956,54.3795035 0.150270841,56.1828802 C0.253329103,57.0741221 0.210694041,58.8665026 0.814926046,59.5441433 C2.09736612,60.9821713 2.7558096,58.9690421 2.61124568,58.0101736 C1.50725169,50.7020996 3.63900479,43.8393718 6.16548516,36.9697713 C7.79917038,32.5275817 10.4834852,28.4636614 13.4905276,24.7832336 C15.9241144,21.8040883 18.5347355,19.4580492 21.8707173,17.482857 C25.9501304,15.0675418 30.3116125,13.1148918 34.6330008,11.1561938 C37.47515,9.86743928 40.3206875,8.61332277 43.2421775,7.50298157 C43.891868,7.25584199 44.9139801,6.62246092 45.6342586,6.61998678 C47.1575444,6.61448868 49.3161209,7.73857513 50.787454,8.1567056 C55.6269571,9.53260502 60.5282951,11.2941961 65.5298679,11.9968532 C68.7379446,12.4479723 71.7435753,11.9402228 74.7438413,10.8713923 C75.0504749,10.7625299 75.5643545,10.4818519 76.1939981,10.0810404 C78.4214683,9.22416163 80.5286568,8.1457094 82.3633763,6.59002213 C83.4204999,5.693557 84.3796476,4.53510742 85.2543723,3.47479892 C85.516112,3.15783348 85.6318761,2.7944091 85.635829,2.44912845 C85.8340397,2.34548927 85.9656155,2.22453108 85.9952624,2.08322992 C86.21352,1.03969063 84.223225,1.02044728 82.9489731,1.0825758" transform="matrix(-1 0 0 1 86.349 47.096)"/>
        <g transform="translate(656.823 54.943)">
          <g stroke-linecap="round" stroke-linejoin="round" stroke-width="4.908" transform="translate(.49 .304)">
            <polygon fill="#C5CFD6" stroke="#C6CED6" points="122.549 173.403 86.681 173.403 89.671 149.847 119.559 149.847"/>
            <path fill="url(#voty-startscreen-a)" stroke="#C7F0F7" d="M209.226365,131.749211 C209.226365,141.653713 201.197545,149.682534 191.293043,149.682534 L18.3396902,149.682534 C14.8219284,149.682534 11.3247784,148.796223 8.35470378,146.911707 C2.99757649,143.510746 -0.0775205789,137.655008 0.000477918891,131.511684 L0.000477918891,17.9814166 C0.000477918891,8.06906256 8.02491361,0.0265009961 17.9362862,-4.64940501e-14 L35.395535,-4.64940501e-14 L193.645743,-4.64940501e-14 C202.251696,-4.64940501e-14 209.226365,6.97565109 209.226365,15.5806227 L209.226365,131.511684 L209.226365,125.534237 L209.226365,105.133378"/>
            <path fill="#B9C2C6" stroke="#B9C2C6" d="M191.293534,149.682117 C201.178405,149.682117 209.200355,141.682668 209.226856,131.795834 L209.226856,125.533746 L7.43904802e-14,125.533746 L7.43904802e-14,131.559288 C-0.0603440074,136.352042 1.80257787,140.970086 5.17409349,144.376936 C8.54659062,147.783786 13.1440227,149.695784 17.9367769,149.682117 L191.293534,149.682117 Z"/>
            <path fill="#DEE3E6" stroke="#E0E3E6" d="M143.470327,185.311945 L65.7595912,185.311945 C65.7860922,178.72792 71.1304597,173.403183 77.7154665,173.403183 L131.514452,173.403183 C138.099458,173.403183 143.444808,178.72792 143.470327,185.311945 Z"/>
          </g>
          <path fill="#D7D7D7" d="M3.68108651,7.36119151 C5.66806909,7.36119151 7.27998722,5.75038455 7.27998722,3.76157489 C7.27998722,1.77562888 5.66806909,0.163390092 3.68108651,0.163390092 C1.6926724,0.163390092 0.0821858053,1.77562888 0.0821858053,3.76157489 C0.0821858053,5.75038455 1.6926724,7.36119151 3.68108651,7.36119151 Z" transform="translate(101.341 134.632)"/>
        </g>
        <path fill="#69A1AC" d="M69.7673287,0.535362966 C66.9995744,-0.069280192 63.9435477,-0.0230036533 61.1242554,0.0268752506 C46.0043991,0.232487177 31.1569573,7.3909412 21.493887,18.8290052 C13.2676476,28.5664757 11.0056442,40.6729169 9.38050173,52.9109831 C9.21937504,54.1260887 9.15028029,55.3334352 9.05938106,56.5510347 C9.03984197,56.8123447 9.01067492,57.0453901 8.97952565,57.2648572 C8.34039924,57.8362478 8.00511981,58.5024083 8.38344187,59.2342426 C6.9754948,62.3153734 5.78445994,65.4746477 4.76248066,68.7331257 C1.75459375,78.3242847 -1.30511422,88.0977788 0.579699868,98.1832932 C1.0200373,92.6331567 1.94630336,86.9577687 3.05408471,81.4987998 C3.11779913,81.185394 3.18661071,80.8744822 3.25825403,80.5646788 C3.26561658,80.5319804 3.27241279,80.499282 3.27977534,80.4668607 C3.67197299,78.7950861 4.18168834,77.1734675 4.80155884,75.5773426 C4.80807187,75.559885 4.81430172,75.5427045 4.82109793,75.525524 C4.90293556,75.3154783 4.98987034,75.1065412 5.07567243,74.897604 C5.25322327,74.465043 5.4355881,74.0333134 5.62899676,73.6038006 C5.69441023,73.4574892 5.75727512,73.3097922 5.81759143,73.1609868 C6.72007078,70.9491345 7.10122459,68.456852 7.90968977,66.1682416 C8.10309843,65.6478384 8.30528552,65.1293749 8.51710056,64.6136824 C8.52956027,64.583478 8.54230315,64.5532735 8.55504604,64.5230691 C9.12762628,63.1353271 9.76023966,61.7644886 10.4290995,60.4080595 C10.7926964,60.1348339 10.9869546,59.4570351 11.3004295,58.8410306 C11.3652767,58.7196586 11.8721603,57.9102348 12.0230926,57.4438671 C12.4169893,56.6818283 12.8094702,55.9195124 13.2061986,55.1588591 C13.1943052,55.1632927 13.1824119,55.1677264 13.1705185,55.1721601 C13.5675301,54.4417113 13.9656745,53.7143106 14.3607039,52.9899581 C14.4476387,52.8308998 14.535423,52.6715644 14.6229241,52.5119519 C14.7647949,52.2578466 14.9066656,52.0040184 15.0482532,51.7507444 C16.3726636,49.3806652 17.7769294,47.0579709 19.2352817,44.7640955 C19.7557577,43.9455273 20.9991799,42.7717104 21.2376135,41.852553 C21.2463919,41.818192 21.2483741,41.786602 21.2537544,41.7536265 C24.4182372,37.3091391 28.0612861,33.2096474 32.430113,29.9614223 C31.9019913,30.5322587 30.7794848,32.4694999 30.4827172,32.8530132 C29.5745743,34.0273843 28.5885583,35.1205636 27.598861,36.227044 C25.8264675,38.2091762 24.0959839,40.2542113 22.5583426,42.4167389 C19.7464129,46.3715817 17.320451,50.5336991 15.0272983,54.7795023 C15.0054938,54.8044417 14.9817071,54.8279957 14.9610353,54.8534893 C13.8085122,56.2742068 13.0830174,58.4214936 12.2533141,60.0467145 C15.5367304,58.5259622 19.1673196,57.5353117 22.5371044,56.184979 C25.8975445,54.8388028 29.1665189,53.3396646 32.3225064,51.5792164 C36.5171806,49.2396187 40.8684506,46.5979765 44.8317706,43.6085675 C49.3736176,40.7912408 53.1902528,36.9134331 56.5591881,32.8441459 C60.5451622,28.0294461 64.1981222,23.1726264 66.4572939,17.3265418 C67.5670574,14.453794 68.4400866,11.4582887 68.9577308,8.4278682 C68.9803848,8.2956891 69.0092687,8.1524258 69.0407012,8.00362041 C69.5702388,6.95699474 70.0437077,5.88681515 70.4410025,4.7919732 C71.0719168,3.05563314 72.5619847,1.14554822 69.7673287,0.535362966" transform="matrix(-1 0 0 1 94.597 .393)"/>
        <g transform="translate(675.145 11.102)">
          <path fill="#F5FCFF" d="M173.355775,136.428022 C173.331237,143.611246 168.000611,149.435598 161.3999,149.492217 L11.9558753,149.492217 C5.36399792,149.463373 0.0255194778,143.653978 9.29881002e-14,136.479301 L9.29881002e-14,25.820902 L173.355775,25.820902 L173.355775,136.428022 Z"/>
          <path stroke="#DDE3E9" stroke-linecap="round" stroke-linejoin="round" stroke-width="4.908" d="M173.355775,136.428022 C173.331237,143.611246 168.000611,149.435598 161.3999,149.492217 L11.9558753,149.492217 C5.36399792,149.463373 0.0255194778,143.653978 9.29881002e-14,136.479301 L9.29881002e-14,25.820902 L173.355775,25.820902 L173.355775,136.428022 Z"/>
          <path fill="#C5CFD6" d="M173.355775,25.5194778 L9.29881002e-14,24.1227574 L9.29881002e-14,8.47250572 C0.0255194778,3.78790562 5.37185007,0 11.9558753,0 L161.3999,0 C167.975092,0.0181573647 173.303755,3.79558759 173.355775,8.47250572 L173.355775,23.9537542 L173.355775,25.5194778 Z"/>
          <path stroke="#C5CFD6" stroke-linecap="round" stroke-linejoin="round" stroke-width="4.908" d="M173.355775,25.5194778 L9.29881002e-14,25.5194778 L9.29881002e-14,8.47250572 C0.0255194778,3.78790562 5.37185007,0 11.9558753,0 L161.3999,0 C167.975092,0.0181573647 173.303755,3.79558759 173.355775,8.47250572 L173.355775,25.3504746 L173.355775,25.5194778 Z"/>
          <use fill="#D8D8D8" xlink:href="#voty-startscreen-b"/>
          <use fill="#98AAB2" xlink:href="#voty-startscreen-b"/>
          <use fill="#D8D8D8" xlink:href="#voty-startscreen-c"/>
          <use fill="#98AAB2" xlink:href="#voty-startscreen-c"/>
          <use fill="#D8D8D8" xlink:href="#voty-startscreen-d"/>
          <use fill="#98AAB2" xlink:href="#voty-startscreen-d"/>
        </g>
        <g stroke-linecap="round" stroke-linejoin="round" transform="translate(702.942 50.128)">
          <path stroke="#D1DADE" stroke-width="4.264" d="M35.934314,10.3963267 C32.2319154,3.96380376 25.3815839,2.5294124e-15 17.967157,2.5294124e-15 C10.5527302,2.5294124e-15 3.70239863,3.96380376 -2.52600572e-15,10.3963267" transform="translate(6.28 87.72)"/>
          <path stroke="#D1DADE" stroke-width="3.919" d="M33.027134,9.55523663 C29.6242691,3.64312166 23.3281473,0 16.513567,0 C9.69898669,0 3.40286489,3.64312166 0,9.55523663" transform="translate(41.179 72.63)"/>
          <g stroke="#D1DADE" transform="translate(8.245 53.013)">
            <path stroke-width="3.553" d="M4.46239951,11.8151769 C10.4211163,17.9616841 19.5500557,19.7961577 27.4256849,16.4296824" transform="rotate(-23 15.944 14.955)"/>
            <path stroke-width="4.264" d="M4.31327044,16.766243 C4.30993863,23.6459703 9.87913844,29.2203891 16.7524279,29.2170572 C23.6257173,29.2137224 29.2003215,23.6338993 29.2036563,16.754172 C29.2069881,9.87444468 23.6377883,4.30002593 16.7644989,4.30335775 C9.89120943,4.30669256 4.31660525,9.88651568 4.31327044,16.766243 Z" transform="rotate(-23 16.758 16.76)"/>
          </g>
          <g stroke="#D1DADE" transform="translate(48.062 45.181)">
            <path stroke-width="3.265" d="M0.711007401,6.40769666 C6.24818956,11.9783633 14.7279128,13.6442021 22.0412294,10.5980115"/>
            <path stroke-width="3.919" d="M0,11.3914607 C0,17.6827908 5.0932617,22.7829215 11.3761184,22.7829215 C17.6589751,22.7829215 22.7522368,17.6827908 22.7522368,11.3914607 C22.7522368,5.10013069 17.6589751,0 11.3761184,0 C5.0932617,0 0,5.10013069 0,11.3914607 Z"/>
          </g>
          <path stroke="#D1DADE" stroke-width="4.264" d="M112.338713,98.1167331 C108.636314,91.6842102 101.785982,87.7204065 94.3715555,87.7204065 C86.9571287,87.7204065 80.1067971,91.6842102 76.4043985,98.1167331"/>
          <path fill="#F5FCFF" stroke="#A4BCD2" stroke-width="3.553" d="M43.37056,41.2995185 C43.3702397,43.2655198 41.5236357,44.85958 39.2460546,44.8599515 L30.9982035,44.861297 L29.7595496,53.1368083 L20.6883897,44.8629788 L6.25465035,44.8653334 C3.97706917,44.8657049 2.13130477,43.2722472 2.13130477,41.3062459 L2.13478443,19.9476843 C2.13510473,17.9816829 3.98170873,16.3876228 6.2592899,16.3872513 L39.2506941,16.3818693 C41.5282753,16.3814978 43.3740397,17.9749556 43.3740397,19.9409569 L43.37056,41.2995185 Z" transform="rotate(-7 22.753 34.76)"/>
          <path stroke="#A9CCDC" stroke-width="4.145" d="M30.4265749,24.8403691 L22.3911634,35.5688897 C22.030047,36.0508217 21.4777589,36.352029 20.8776072,36.3943541 C20.2774554,36.4366792 19.6886006,36.2159499 19.2638389,35.7894411 L15.1168161,31.636947" transform="rotate(-6 22.772 30.62)"/>
          <path fill="#F5FCFF" stroke="#A4BCD2" stroke-width="3.553" d="M116.316067,42.0055843 C116.315883,43.971612 114.469414,45.5655657 112.191864,45.5657794 L103.944124,45.5665535 L102.677488,53.5443629 L93.6344486,45.567521 L79.2009036,45.5688755 C76.9233531,45.5690893 75.0773673,43.9754822 75.0773673,42.0094544 L75.0793691,20.6506055 C75.0795533,18.6845778 76.9260222,17.0906241 79.2035727,17.0904104 L112.194533,17.0873143 C114.472083,17.0873143 116.318069,18.6807077 116.318069,20.6467354 L116.316067,42.0055843 Z" transform="scale(-1 1) rotate(-4 0 2775.74)"/>
          <path fill="#F5FCFF" stroke="#A4BCD2" stroke-width="3.553" d="M80.1082345,27.3042604 C80.1080432,29.3448161 78.2615687,30.9991866 75.9840182,30.9994004 L65.6084531,30.839291 L60.6970143,39.1767777 L53.880228,30.7330029 L42.9930583,31.0024965 C40.7155078,31.0027102 38.8695346,29.3486862 38.8695346,27.3081305 L38.8716123,5.13961284 C38.8718035,3.09905713 40.718278,1.44468662 42.9958285,1.44447288 L75.9867884,1.44137679 C78.2643389,1.44137679 80.1103121,3.09518702 80.1103121,5.13574272 L80.1082345,27.3042604 Z" transform="scale(-1 1) rotate(-4 0 1723.878)"/>
          <g stroke="#D1DADE" transform="rotate(-1 3355.115 -4517.79)">
            <path stroke-width="4.264" d="M29.4242461,24.9412705 C27.8180158,22.3021409 27.0171629,19.2495854 27.1200974,16.1607844 L27.1200974,12.5690762 C27.1200974,5.74585013 21.5955698,0.21387201 14.7815335,0.21387201 C7.96636594,0.21387201 2.44183843,5.74585013 2.44183843,12.5690762 L2.44183843,16.1607844 C2.54477291,19.2495854 1.74392003,22.3021409 0.137689678,24.9412705"/>
            <path stroke-width="3.553" d="M2.44240401,14.6104939 C7.17965241,14.6025652 11.6827531,12.5354358 14.7809679,8.94599299 C17.8791826,12.5354358 22.3822834,14.6025652 27.1195318,14.6104939"/>
            <path stroke-width="4.264" d="M3.95022448,14.5381161 C4.50674936,20.1097378 9.1908338,24.3538659 14.7832302,24.3538659 C20.3756266,24.3538659 25.0585799,20.1097378 25.6162359,14.5381161"/>
          </g>
          <path stroke="#A9CCDC" stroke-width="4.145" d="M13.1536369,0.711966295 L0.711007401,13.1713765 M0.711007401,0.711966295 L13.1536369,13.1713765" transform="rotate(3 -395.186 1730.361)"/>
          <g stroke="#A9CCDC" stroke-width="2.372" transform="rotate(5 -53.92 550.601)">
            <path d="M18.5884,6.65332503 C18.589136,3.6861978 16.4033561,1.1735353 13.4681259,0.767315981 C10.5328958,0.361096663 7.74844988,2.18590792 6.94545375,5.0420069 C6.14245762,7.89810588 7.56719004,10.9095275 10.2829445,12.0963786 L10.2829445,14.9747337 L15.0289189,14.9747337 L15.0289189,12.0963786 C17.1912107,11.152755 18.5890498,9.01522051 18.5884,6.65332503 L18.5884,6.65332503 Z"/>
            <line x1="10.283" x2="15.029" y1="18.539" y2="18.539"/>
            <line x1="22.482" x2="24.855" y1="7.683" y2="7.683"/>
            <line x1="21.99" x2="23.668" y1="13.131" y2="14.812"/>
            <line x1="21.99" x2="23.668" y1="2.234" y2=".554"/>
            <line x1="2.83" x2=".457" y1="7.683" y2="7.683"/>
            <line x1="3.322" x2="1.644" y1="13.131" y2="14.812"/>
            <line x1="3.322" x2="1.644" y1="2.234" y2=".554"/>
          </g>
        </g>
      </g>
      <g opacity=".5" transform="matrix(-1 0 0 1 932.794 0)">
        <path fill="#69A1AC" d="M1.61896196,206.500749 C6.79711423,207.513426 15.2581567,219.227213 19.5264983,223.690257 C24.5991354,228.993959 29.2012761,234.64695 33.5393354,240.569878 C42.8782887,253.318737 51.230341,266.873419 58.3324265,281.00858 C69.9106854,304.05172 79.1863764,327.706302 85.9181422,352.798991 C90.0389001,368.159133 92.7069204,384.079322 94.2881328,399.888336 C94.5867514,402.869822 97.7126348,425.856509 93.2084282,426.476064 C89.1573693,427.033934 90.4085902,409.0218 90.2131559,406.571706 C88.0039836,378.930065 81.3859297,352.03498 72.1802773,325.981348 C70.1751542,320.305812 68.312324,313.354293 65.1056591,308.246858 C62.7964112,304.568053 65.0890988,305.850971 61.0308992,304.458721 C57.5462882,303.262537 53.5760697,303.554832 50.0077491,302.090604 C42.2559252,298.911632 36.0489381,292.740301 30.6080889,286.532667 C20.034612,274.468676 11.6556693,261.417325 7.28808051,245.959101 C4.86524419,237.388021 2.6387813,228.767084 1.4032311,219.930968 C1.08361578,217.647092 -1.71624682,205.848492 1.61896196,206.500749 Z"/>
        <path fill="#89C5CC" d="M22.0533296,11.6066137 C41.5583569,45.4332471 57.5867892,82.590917 67.9364636,120.226017 C74.2071309,143.028717 78.5923968,166.427637 82.9495076,189.657532 C89.6957079,225.626128 96.0768395,261.591949 97.8919693,298.199455 C99.7181064,335.019111 103.329169,377.486258 91.2726836,412.949426 C97.2949586,376.944676 91.561344,338.620422 90.5461536,302.392219 C90.0610185,285.097461 88.6551869,267.971789 86.8109989,250.778094 C85.021398,234.099284 82.0976964,217.499896 79.3750715,200.952183 C78.0488305,192.893147 76.6559786,184.846237 75.2378619,176.803728 C74.8145055,174.404236 74.6356707,167.284105 73.1135746,165.644906 C71.5816207,163.994914 63.7653896,163.322269 61.3114551,162.111603 C56.3700738,159.673175 51.7220378,156.209564 47.6084052,152.549815 C39.7225176,145.534169 32.8621924,136.367376 27.4474748,127.331002 C14.9192227,106.422254 9.91043367,80.9059689 10.1635981,56.6909789 C10.2122404,51.989522 17.77324,1.36235343 14.736621,0.665175436 C14.9194512,0.451053637 15.0923946,0.229966441 15.2554657,0 C17.5544466,3.84921712 19.8104128,7.72451988 22.0533296,11.6066137 Z"/>
        <path fill="#89C5CC" d="M232.576977,133.60546 C232.877932,133.17137 234.836677,130.152402 233.850315,130.345342 C235.858584,129.952509 231.088067,133.674943 236.091987,131.390875 C233.716091,133.634756 235.087297,136.549593 235.119009,139.569612 C235.170746,144.47278 234.350373,149.335741 233.426904,154.133707 C231.967677,161.717825 229.793823,169.091805 226.638514,176.145947 C219.76142,191.518525 208.08376,206.317442 194.220209,215.928266 C187.376157,220.673516 180.668681,222.289098 172.863036,224.473632 C167.93266,225.853745 167.541673,228.404155 164.924618,233.188532 C159.476105,243.153366 154.124624,253.082357 149.319519,263.383406 C143.581905,275.683943 138.012066,287.998037 132.758091,300.515109 C115.058391,342.678199 100.652477,386.359791 93.0869312,431.565998 C92.9016948,404.926119 99.064396,377.489321 106.838047,352.097085 C112.500685,333.596878 119.872375,315.763238 127.735003,298.110135 C129.640277,293.833463 132.527547,288.332213 133.336655,283.610582 C133.903192,280.302373 132.171119,277.120847 131.378081,273.635905 C128.286377,260.064896 128.50766,244.860992 131.222636,231.21742 C134.216105,216.172793 142.873078,209.190071 157.517467,207.059096 C162.873213,206.279608 169.680504,206.565295 174.59146,204.281705 C179.941872,201.794949 182.148998,193.621016 185.191438,188.373993 C193.363329,174.279382 203.072719,160.761789 214.22178,148.88591 C217.308849,145.597328 220.628704,142.563388 224.1507,139.751298 C226.371668,137.977025 231.063401,135.791124 232.576977,133.60546 Z"/>
        <path fill="#AFB9C5" d="M68.3663611,402.794932 L120.337987,402.794932 C122.674726,402.794932 124.569026,404.689232 124.569026,407.025971 C124.569026,407.232565 124.553895,407.438882 124.523753,407.643266 L120.506819,434.881385 C119.282269,443.184835 112.157013,449.336363 103.763753,449.336363 L84.940595,449.336363 C76.5473357,449.336363 69.4220788,443.184835 68.1975296,434.881385 L64.1805948,407.643266 C63.8396723,405.331531 65.4373314,403.181127 67.7490663,402.840204 C67.95345,402.810063 68.1597668,402.794932 68.3663611,402.794932 Z"/>
      </g>
      <g transform="translate(55.68 38.555)">
        <g transform="translate(2.617 47.767)">
          <g stroke-linecap="round" stroke-linejoin="round" stroke-width="4.908" transform="translate(.49 .304)">
            <polygon fill="#C5CFD6" stroke="#C6CED6" points="122.549 173.403 86.681 173.403 89.671 149.847 119.559 149.847"/>
            <path fill="url(#voty-startscreen-a)" stroke="#C7F0F7" d="M209.226365,131.749211 C209.226365,141.653713 201.197545,149.682534 191.293043,149.682534 L18.3396902,149.682534 C14.8219284,149.682534 11.3247784,148.796223 8.35470378,146.911707 C2.99757649,143.510746 -0.0775205789,137.655008 0.000477918891,131.511684 L0.000477918891,17.9814166 C0.000477918891,8.06906256 8.02491361,0.0265009961 17.9362862,-4.64940501e-14 L35.395535,-4.64940501e-14 L193.645743,-4.64940501e-14 C202.251696,-4.64940501e-14 209.226365,6.97565109 209.226365,15.5806227 L209.226365,131.511684 L209.226365,125.534237 L209.226365,105.133378"/>
            <path fill="#B9C2C6" stroke="#B9C2C6" d="M191.293534,149.682117 C201.178405,149.682117 209.200355,141.682668 209.226856,131.795834 L209.226856,125.533746 L7.43904802e-14,125.533746 L7.43904802e-14,131.559288 C-0.0603440074,136.352042 1.80257787,140.970086 5.17409349,144.376936 C8.54659062,147.783786 13.1440227,149.695784 17.9367769,149.682117 L191.293534,149.682117 Z"/>
            <path fill="#DEE3E6" stroke="#E0E3E6" d="M143.470327,185.311945 L65.7595912,185.311945 C65.7860922,178.72792 71.1304597,173.403183 77.7154665,173.403183 L131.514452,173.403183 C138.099458,173.403183 143.444808,178.72792 143.470327,185.311945 Z"/>
          </g>
          <path fill="#D7D7D7" d="M3.68108651,7.36119151 C5.66806909,7.36119151 7.27998722,5.75038455 7.27998722,3.76157489 C7.27998722,1.77562888 5.66806909,0.163390092 3.68108651,0.163390092 C1.6926724,0.163390092 0.0821858053,1.77562888 0.0821858053,3.76157489 C0.0821858053,5.75038455 1.6926724,7.36119151 3.68108651,7.36119151 Z" transform="translate(101.341 134.632)"/>
        </g>
        <g transform="translate(20.94 3.272)">
          <path fill="#F5FCFF" d="M173.355775,136.428022 C173.331237,143.611246 168.000611,149.435598 161.3999,149.492217 L11.9558753,149.492217 C5.36399792,149.463373 0.0255194778,143.653978 9.29881002e-14,136.479301 L9.29881002e-14,25.820902 L173.355775,25.820902 L173.355775,136.428022 Z"/>
          <path stroke="#DDE3E9" stroke-linecap="round" stroke-linejoin="round" stroke-width="4.908" d="M173.355775,136.428022 C173.331237,143.611246 168.000611,149.435598 161.3999,149.492217 L11.9558753,149.492217 C5.36399792,149.463373 0.0255194778,143.653978 9.29881002e-14,136.479301 L9.29881002e-14,25.820902 L173.355775,25.820902 L173.355775,136.428022 Z"/>
          <path fill="#C5CFD6" d="M173.355775,25.5194778 L9.29881002e-14,24.1227574 L9.29881002e-14,8.47250572 C0.0255194778,3.78790562 5.37185007,0 11.9558753,0 L161.3999,0 C167.975092,0.0181573647 173.303755,3.79558759 173.355775,8.47250572 L173.355775,23.9537542 L173.355775,25.5194778 Z"/>
          <path stroke="#C5CFD6" stroke-linecap="round" stroke-linejoin="round" stroke-width="4.908" d="M173.355775,25.5194778 L9.29881002e-14,25.5194778 L9.29881002e-14,8.47250572 C0.0255194778,3.78790562 5.37185007,0 11.9558753,0 L161.3999,0 C167.975092,0.0181573647 173.303755,3.79558759 173.355775,8.47250572 L173.355775,25.3504746 L173.355775,25.5194778 Z"/>
          <use fill="#D8D8D8" xlink:href="#voty-startscreen-e"/>
          <use fill="#98AAB2" xlink:href="#voty-startscreen-e"/>
          <use fill="#D8D8D8" xlink:href="#voty-startscreen-f"/>
          <use fill="#98AAB2" xlink:href="#voty-startscreen-f"/>
          <use fill="#D8D8D8" xlink:href="#voty-startscreen-g"/>
          <use fill="#98AAB2" xlink:href="#voty-startscreen-g"/>
        </g>
        <g transform="translate(37.298 41.224)">
          <g stroke-linecap="round" stroke-linejoin="round">
            <g transform="translate(44.943)">
              <line x1="64.605" x2="64.605" y1="40.335" y2="21.719" stroke="#DDE3E9" stroke-width="5.171"/>
              <line x1="30.493" x2="30.493" y1="40.335" y2="21.719" stroke="#DDE3E9" stroke-width="5.171"/>
              <polygon stroke="#DDE3E9" stroke-width="5.171" points="47.549 31.027 18.606 47.575 76.492 47.575"/>
              <line x1="25.842" x2="70.29" y1="22.236" y2="22.236" stroke="#DDE3E9" stroke-width="6.205"/>
              <path stroke="#DDE3E9" stroke-width="5.171" d="M51.0746957,6.8471068 L44.30434,6.8471068 L44.30434,3.44738782 C44.30434,1.57730262 45.8274313,0.0524639285 47.6895179,0.0524639285 C49.5516044,0.0524639285 51.0746957,1.57730262 51.0746957,3.44738782 L51.0746957,6.8471068 Z"/>
              <polyline stroke="#DDE3E9" stroke-width="5.171" points="17.238 54.721 .321 54.721 .321 99.991 95.059 99.991 95.059 54.721 78.142 54.721"/>
              <path stroke="#DDE3E9" stroke-width="5.171" d="M34.4572445 99.9907757L34.4572445 90.0985045C34.4572445 87.2118602 32.2561627 85.0013236 29.381865 85.0013236 26.5027927 85.0013236 24.3064855 87.2118602 24.3064855 90.0985045L24.3064855 99.9907757M53.5555679 99.9907757L53.5555679 90.0985045C53.5555679 87.2118602 51.3544862 85.0013236 48.4801885 85.0013236 45.6058908 85.0013236 43.404809 87.2118602 43.404809 90.0985045L43.404809 99.9907757M72.6538914 99.9907757L72.6538914 90.0985045C72.6538914 87.2118602 70.4528096 85.0013236 67.578512 85.0013236 64.7042143 85.0013236 62.5031325 87.2118602 62.5031325 90.0985045L62.5031325 99.9907757"/>
              <line x1="10.771" x2="10.771" y1="62.916" y2="66.311" stroke="#B9C2C6" stroke-width="5.171"/>
              <line x1="85.887" x2="85.887" y1="62.916" y2="66.311" stroke="#DDE3E9" stroke-width="5.171"/>
              <line x1="11.071" x2="84.304" y1="75.11" y2="75.11" stroke="#DDE3E9" stroke-width="5.171"/>
              <line x1="23.817" x2="23.817" y1="54.419" y2="71.71" stroke="#DDE3E9" stroke-width="5.171"/>
              <line x1="33.366" x2="33.366" y1="54.419" y2="71.71" stroke="#DDE3E9" stroke-width="5.171"/>
              <line x1="42.915" x2="42.915" y1="54.419" y2="71.71" stroke="#DDE3E9" stroke-width="5.171"/>
              <line x1="71.563" x2="71.563" y1="54.419" y2="71.71" stroke="#DDE3E9" stroke-width="5.171"/>
              <line x1="62.014" x2="62.014" y1="54.419" y2="71.71" stroke="#DDE3E9" stroke-width="5.171"/>
              <line x1="52.465" x2="52.465" y1="54.419" y2="71.71" stroke="#DDE3E9" stroke-width="5.171"/>
              <path stroke="#DDE3E9" stroke-width="6.205" d="M29.9786876,21.1020169 C32.3946255,12.2310999 39.4132594,5.81526919 47.687608,5.81526919 C55.9715059,5.81526919 62.9901397,12.2310999 65.4013031,21.1020169"/>
            </g>
            <path stroke="#DDE3E9" stroke-width="5.171" d="M25.1817007,8.41339952 C25.1817007,11.1737731 22.9448341,13.411858 20.1849295,13.411858 L5.24629962,13.411858 C3.87875137,13.4811518 2.54221328,12.9847189 1.55092169,12.039428 C0.558596428,11.094137 -0.00165387544,9.78376109 0.000407767651,8.41339952 L0.000407767651,6.31390217 C-0.00165387544,4.94354059 0.558596428,3.63213042 1.55092169,2.6868395 C2.54221328,1.7425828 3.87875137,1.24614993 5.24629962,1.31440945 L19.9358145,1.31440945 C22.6946855,1.31440945 24.931552,3.55249432 24.931552,6.31390217 L25.1817007,8.41339952 Z"/>
            <line x2="25.181" y1="26.41" y2="26.41" stroke="#DDE3E9" stroke-width="5.171"/>
            <line x2="25.181" y1="39.058" y2="39.058" stroke="#DDE3E9" stroke-width="5.171"/>
            <line x2="25.181" y1="51.655" y2="51.655" stroke="#DDE3E9" stroke-width="5.171"/>
            <line x2="25.181" y1="64.203" y2="64.203" stroke="#DDE3E9" stroke-width="5.171"/>
            <line x2="25.181" y1="76.801" y2="76.801" stroke="#DDE3E9" stroke-width="5.171"/>
            <line x2="15.739" y1="89.399" y2="89.399" stroke="#DDE3E9" stroke-width="5.171"/>
          </g>
          <g transform="translate(15.305 36.412)">
            <path fill="#FFF" stroke="#A4BCD2" stroke-linecap="round" stroke-linejoin="round" stroke-width="4.234" d="M51.6258439,33.023494 C51.6256899,35.3618491 49.4278173,37.2576054 46.716758,37.257784 L36.8991439,37.2584308 L35.4257013,47.1011523 L24.6271263,37.2592393 L7.4463016,37.2603712 C4.73524233,37.2605498 2.53777334,35.3650832 2.53777334,33.026728 L2.53944612,7.62292838 C2.5396001,5.2845732 4.7374727,3.38881699 7.44853197,3.38863838 L46.7189884,3.38605115 C49.4300477,3.38605115 51.6275167,5.28133916 51.6275167,7.61969434 L51.6258439,33.023494 Z" transform="scale(-1 1) rotate(-7 0 468.04)"/>
            <path fill="#A4BCD2" fill-rule="nonzero" d="M28.4765636,23.6651744 C28.4081726,23.0387742 28.4822629,22.4703741 28.6988345,21.959974 C28.9154062,21.4495739 29.1946696,20.9739738 29.5366248,20.5331738 C29.8785801,20.0923737 30.2604301,19.6631736 30.6821749,19.2455735 C31.1039196,18.8279734 31.4914689,18.3871733 31.8448226,17.9231732 C32.1981764,17.4591731 32.5002368,16.954573 32.751004,16.4093729 C33.0017712,15.8641728 33.1271548,15.2435727 33.1271548,14.5475726 C33.1271548,13.4571724 32.9504779,12.5233722 32.5971242,11.746172 C32.2437704,10.9689719 31.7593338,10.3367717 31.1438144,9.84957165 C30.528295,9.36237155 29.810189,9.00277148 28.9894965,8.77077144 C28.1688039,8.53877139 27.2911188,8.42277137 26.3564412,8.42277137 C24.9886203,8.42277137 23.7290852,8.72437143 22.5778359,9.32757155 C21.4265866,9.93077166 20.4292172,10.7195718 19.5857276,11.693972 L19.5857276,11.693972 L22.8001068,14.6867726 C23.2560471,14.2691725 23.6891904,13.9211724 24.0995367,13.6427724 C24.5098829,13.3643723 25.0114173,13.2251723 25.6041397,13.2251723 C26.128471,13.2251723 26.5787121,13.3585723 26.9548628,13.6253724 C27.3310136,13.8921724 27.519089,14.3387725 27.519089,14.9651727 C27.519089,15.3363727 27.3994046,15.7017728 27.160036,16.0613729 C26.9206673,16.4209729 26.6300054,16.797973 26.2880501,17.1923731 C25.9460949,17.5867732 25.5756434,18.0043733 25.1766956,18.4451733 C24.7777479,18.8859734 24.4243941,19.3673735 24.1166344,19.8893736 C23.8088747,20.4113737 23.5752053,20.9855738 23.4156262,21.611974 C23.2560471,22.2383741 23.2332501,22.9227714 23.3472351,23.6651744 L23.3472351,23.6651744 L28.4765636,23.6651744 Z M26.5059444,33.0879443 C27.4989824,33.0879443 28.311468,32.7215404 28.9434013,31.9887325 C29.5753346,31.2559247 29.8913012,30.3521284 29.8913012,29.2773435 C29.8913012,28.2025587 29.5753346,27.2987624 28.9434013,26.5659546 C28.311468,25.8331467 27.4989824,25.4667428 26.5059444,25.4667428 C25.5129064,25.4667428 24.7004208,25.8331467 24.0684875,26.5659546 C23.4365542,27.2987624 23.1205876,28.2025587 23.1205876,29.2773435 C23.1205876,30.3521284 23.4365542,31.2559247 24.0684875,31.9887325 C24.7004208,32.7215404 25.5129064,33.0879443 26.5059444,33.0879443 Z" transform="rotate(11 26.356 20.755)"/>
          </g>
        </g>
      </g>
      <path fill="#C1DEE2" d="M91.4518253,130.839664 C90.347412,122.045317 89.1782774,113.301338 87.0385682,104.677908 C85.7773585,99.5962305 84.1610366,94.621496 82.6924746,89.5975871 C82.8241152,90.2277838 82.9406135,90.8620385 83.0417252,91.4979643 C82.5307936,89.9995762 81.4637476,88.5663561 80.8499947,87.0732196 C80.1654148,85.4079726 79.6149177,83.6782736 79.0920188,81.9588393 C78.0711325,78.6030419 77.1078848,75.2415154 75.9590214,71.9241504 C74.6787617,68.2281901 73.2045824,64.5935784 71.8307821,60.9300826 C70.6648225,57.8208736 69.5728649,54.5565024 68.0549683,51.5893263 C67.2277573,49.9720602 66.4860273,48.2349612 65.6739586,46.5864239 C65.4021294,46.0347631 63.0697217,39.8719646 63.0873064,39.8719646 C63.4729474,39.8719646 64.9192843,42.6114105 65.1588751,43.0138771 C65.8590859,44.1892894 66.454033,45.4124439 67.0553301,46.6379855 C67.3149478,45.182804 67.7259889,43.7581775 68.3734457,42.4204418 C68.5732268,42.007472 69.9756021,38.9619988 70.4323144,38.9619988 C70.6604263,38.9619988 68.5524671,44.713021 68.2860109,45.2178945 C68.0696221,45.6279998 67.6641984,46.1479121 67.5230328,46.5842755 C67.2949209,47.28895 67.4123961,47.1127814 67.6006983,47.7484684 C67.9457969,48.9136162 68.7095078,50.0546541 69.1901547,51.173492 C69.4539244,51.7707466 70.1040677,53.8408472 70.7366264,54.7680003 C72.3654041,57.9516871 73.5228156,61.8336033 74.7627772,65.266743 C75.0294776,63.580012 75.4905861,61.9536748 76.1292505,60.3664863 C76.2806739,59.9895618 77.4857104,56.4922089 77.8327629,56.4922089 C78.2232886,56.4922089 76.7278611,62.0935594 76.5246608,62.5774264 C76.1473237,63.4761728 75.5540862,64.3460352 75.2402491,65.2607752 C74.8958832,66.2647932 75.5008438,67.1685525 75.8862405,68.1954867 C77.3040024,71.9735636 78.5468948,75.7893568 79.6825698,79.6564729 C86.2780323,76.7678327 87.5895537,68.2661451 88.019889,61.9966428 C88.3298184,57.4780848 87.6303403,52.876694 86.5337424,48.4934851 C85.0703092,42.6436365 82.6082149,36.995976 79.9959183,31.5586199 C76.9520653,25.2229947 72.7661874,19.5643535 67.7191504,14.6041804 C65.0795,12.0098706 62.0732586,9.76145295 59.0198806,7.65459082 C57.5283608,6.62526955 55.9960545,5.77092335 54.2549306,5.19825598 C53.4699716,4.94044824 52.664253,4.75377634 51.849742,4.61078853 C51.2308603,4.50217508 49.9681852,3.92831415 49.4550555,4.07464391 C45.2650256,5.2338239 42.1154205,7.16189159 39.6735974,10.7461353 C37.3619494,14.1389329 35.9270913,18.195108 35.1294323,22.1741794 C34.2414078,26.6051306 34.0272171,31.0726045 34.7894625,35.5319623 C35.3709769,38.9343083 36.3740343,42.2698153 37.3785571,45.5726189 C40.9511706,57.3198195 47.2132576,69.9139662 58.4496008,76.3579661 C62.0866913,78.4440604 66.1223671,79.6633955 70.2652603,80.3098246 C71.2414523,80.4621221 72.2166673,80.6070196 73.2045824,80.6626392 C73.8706007,80.7003556 76.0601331,80.2580243 76.5420012,80.5451935 C77.2026465,80.9388277 77.5821817,83.1719679 77.8701303,83.9816752 C80.0579531,90.1358801 82.0144889,96.3597886 83.7898052,102.639317 C85.6784448,109.320357 87.1787569,116.066326 88.4284877,122.887489 C88.9599348,125.788781 89.4777048,128.685298 89.9185421,131.602345 C90.0213634,132.281 89.9151228,134.415553 90.5774778,135.014956 C90.9963342,135.394029 91.5883506,135.238628 91.8374663,134.774574 C92.2707324,133.967731 91.5649044,131.740081 91.4518253,130.839664" transform="rotate(-37 301.996 -289.914)"/>
      <g transform="translate(330.698 85.943)">
        <g transform="translate(3.353 60.361)">
          <g stroke-linecap="round" stroke-linejoin="round" stroke-width="6.288" transform="translate(.628 .39)">
            <polygon fill="#C5CFD6" stroke="#C6CED6" points="157.01 222.164 111.056 222.164 114.886 191.984 153.179 191.984"/>
            <path fill="url(#voty-startscreen-h)" stroke="#C7F0F7" d="M268.060648,168.796982 C268.060648,181.486622 257.77413,191.77314 245.08449,191.77314 L23.4967961,191.77314 C18.9898425,191.77314 14.5092968,190.637599 10.7040396,188.223159 C3.84049255,183.865851 -0.0993193023,176.363483 0.000612309292,168.492662 L0.000612309292,23.0377763 C0.000612309292,10.3380763 10.2815127,0.0339530545 22.9799551,-5.95681389e-14 L45.3487305,-5.95681389e-14 L248.098767,-5.95681389e-14 C259.124707,-5.95681389e-14 268.060648,8.93719847 268.060648,19.961881 L268.060648,168.492662 L268.060648,160.834362 L268.060648,134.696797"/>
            <path fill="#B9C2C6" stroke="#B9C2C6" d="M245.085119,191.772605 C257.749608,191.772605 268.027324,181.523719 268.061277,168.856714 L268.061277,160.833733 L9.53090223e-14,160.833733 L9.53090223e-14,168.553652 C-0.0773126928,174.694124 2.30946129,180.610759 6.62904434,184.975612 C10.9498849,189.340466 16.8401111,191.790116 22.9805839,191.772605 L245.085119,191.772605 Z"/>
            <path fill="#DEE3E6" stroke="#E0E3E6" d="M183.814065,237.421512 L84.2511344,237.421512 C84.2850874,228.986065 91.1322868,222.164016 99.568992,222.164016 L168.496208,222.164016 C176.932913,222.164016 183.78137,228.986065 183.814065,237.421512 Z"/>
          </g>
          <path fill="#D7D7D7" d="M4.71620503,9.43115254 C7.26192547,9.43115254 9.32711367,7.36738798 9.32711367,4.81932667 C9.32711367,2.27493427 7.26192547,0.209335252 4.71620503,0.209335252 C2.16865049,0.209335252 0.105296386,2.27493427 0.105296386,4.81932667 C0.105296386,7.36738798 2.16865049,9.43115254 4.71620503,9.43115254 Z" transform="translate(129.838 172.49)"/>
        </g>
        <g transform="translate(26.827 4.192)">
          <path fill="#F5FCFF" d="M222.103278,174.791471 C222.07184,183.994611 215.242245,191.456765 206.78542,191.529306 L15.3178577,191.529306 C6.87234974,191.492352 0.032695534,184.049359 1.19136278e-13,174.857168 L1.19136278e-13,33.0817186 L222.103278,33.0817186 L222.103278,174.791471 Z"/>
          <path stroke="#DDE3E9" stroke-linecap="round" stroke-linejoin="round" stroke-width="6.288" d="M222.103278,174.791471 C222.07184,183.994611 215.242245,191.456765 206.78542,191.529306 L15.3178577,191.529306 C6.87234974,191.492352 0.032695534,184.049359 1.19136278e-13,174.857168 L1.19136278e-13,33.0817186 L222.103278,33.0817186 L222.103278,174.791471 Z"/>
          <path fill="#C5CFD6" d="M222.103278,32.695534 L1.19136278e-13,30.906057 L1.19136278e-13,10.8549674 C0.032695534,4.85306159 6.88240991,0 15.3178577,0 L206.78542,0 C215.20955,0.0232632008 222.036629,4.86290371 222.103278,10.8549674 L222.103278,30.6895303 L222.103278,32.695534 Z"/>
          <path stroke="#C5CFD6" stroke-linecap="round" stroke-linejoin="round" stroke-width="6.288" d="M222.103278,32.695534 L1.19136278e-13,32.695534 L1.19136278e-13,10.8549674 C0.032695534,4.85306159 6.88240991,0 15.3178577,0 L206.78542,0 C215.20955,0.0232632008 222.036629,4.86290371 222.103278,10.8549674 L222.103278,32.4790073 L222.103278,32.695534 Z"/>
          <use fill="#D8D8D8" xlink:href="#voty-startscreen-i"/>
          <use fill="#98AAB2" xlink:href="#voty-startscreen-i"/>
          <use fill="#D8D8D8" xlink:href="#voty-startscreen-j"/>
          <use fill="#98AAB2" xlink:href="#voty-startscreen-j"/>
          <use fill="#D8D8D8" xlink:href="#voty-startscreen-k"/>
          <use fill="#98AAB2" xlink:href="#voty-startscreen-k"/>
        </g>
        <g transform="translate(38.28 47.85)">
          <g transform="translate(3.182 9.53)">
            <path stroke="#DDE3E9" stroke-linecap="round" stroke-linejoin="round" stroke-width="6.493" d="M32.9656409,9.8103401 C32.9656409,13.3287556 30.1077931,16.1814536 26.5817054,16.1814536 L7.49593052,16.1814536 C5.74873427,16.2697765 4.04115699,15.6370154 2.77467082,14.4321328 C1.50686402,13.2272501 0.791081425,11.5570244 0.793715406,9.8103401 L0.793715406,7.13428788 C0.791081425,5.38760355 1.50686402,3.7160596 2.77467082,2.51117697 C4.04115699,1.3076126 5.74873427,0.674851484 7.49593052,0.761856137 L26.2634331,0.761856137 C29.7882001,0.761856137 32.646048,3.61455417 32.646048,7.13428788 L32.9656409,9.8103401 Z"/>
            <line x1=".793" x2="81.352" y1="41.22" y2="41.22" stroke="#DDE3E9" stroke-linecap="round" stroke-linejoin="round" stroke-width="7.791"/>
            <line x1="52.931" x2="185.654" y1="4.079" y2="4.738" stroke="#D1DADE" stroke-linecap="round" stroke-linejoin="round" stroke-width="8.084"/>
            <line x1=".793" x2="81.352" y1="57.341" y2="57.341" stroke="#DDE3E9" stroke-linecap="round" stroke-linejoin="round" stroke-width="8.084"/>
            <line x1=".793" x2="81.352" y1="73.398" y2="73.398" stroke="#DDE3E9" stroke-linecap="round" stroke-linejoin="round" stroke-width="7.791"/>
            <line x1=".793" x2="81.352" y1="89.391" y2="89.391" stroke="#DDE3E9" stroke-linecap="round" stroke-linejoin="round" stroke-width="7.791"/>
            <line x1=".793" x2="81.352" y1="105.449" y2="105.449" stroke="#DDE3E9" stroke-linecap="round" stroke-linejoin="round" stroke-width="7.791"/>
            <line x1=".793" x2="50.977" y1="121.506" y2="121.506" stroke="#DDE3E9" stroke-linecap="round" stroke-linejoin="round" stroke-width="7.791"/>
            <g transform="translate(99.403 19.123)">
              <g fill="#F5FCFF" stroke="#A4BCD2" stroke-width="3.896" transform="translate(.624)">
                <path d="M38.9667834,40.7255129 C42.6238602,40.7665015 45.6121925,37.8823989 45.6121925,34.316396 L45.6121925,15.9423781 C45.6121925,12.3987326 42.669717,9.52953488 39.03939,9.52953488 L6.57280254,9.52953488 C2.94247556,9.52953488 0,12.3987326 0,15.9423781 L0,34.316396 C0,37.8563152 2.94247556,40.7255129 6.57280254,40.7255129 L24.6785807,40.7255129 C25.3970033,40.7255129 25.9778556,41.2919 25.9778556,41.9924314 L28.8439032,49.7653488 L36.2841629,40.9602655 L38.9667834,40.7255129 Z"/>
                <path d="M48.0151637,31.000691 C44.3539588,31.042565 41.3691979,28.0999641 41.3691979,24.4531183 L41.3691979,6.55137945 C41.3691979,2.93498754 44.31192,0 47.9387294,0 L80.4118588,0 C84.04249,0 86.9813904,2.93498754 86.9813904,6.55137945 L86.9813904,24.4531183 C86.9813904,28.0695102 84.04249,31.000691 80.4118588,31.000691 L62.3007419,31.000691 C61.5860808,31.000691 61.0013581,31.5793137 61.0013581,32.2949787 L61.0013581,40.235814 L50.6980091,31.2405149 L48.0151637,31.000691 Z"/>
              </g>
              <path fill="#A9CCDC" d="M4.7939098,7.20134467 L7.99137888,10.7261694 L18.4221741,0.478862806 C19.0745949,-0.159620935 20.1326658,-0.159620935 20.788467,0.478862806 L22.7980179,2.44042146 C23.4538191,3.0822134 23.4538191,4.11768185 22.7980179,4.75616559 L9.57044092,17.7011753 C8.87407474,18.3826657 7.74839544,18.3826657 7.05202926,17.7011753 L0.404544343,11.2040664 C-0.146463847,10.6648288 -0.132942174,9.78153783 0.434968108,9.25553309 L2.73861545,7.17487902 C3.02841741,6.90619471 3.4023347,6.77470784 3.77432223,6.78000153 C4.14431714,6.78526687 4.51240291,6.92585132 4.7939098,7.20134467 Z" transform="translate(53.856 7.31)"/>
              <path fill="#A9CCDC" fill-rule="nonzero" d="M21.4780375,29.4133902 L21.4709199,21.5161863 L21.4709199,21.5161863 L29.4214526,21.5233515 C30.6591268,21.5244669 31.6633643,20.522038 31.6644797,19.2843637 C31.6644809,19.2830172 31.6644809,19.2816707 31.6644797,19.2803243 L31.6633196,17.993116 C31.6622055,16.757019 30.6604288,15.7552423 29.4243318,15.7541283 L21.4657201,15.7469558 L21.4657201,15.7469558 L21.4584765,7.70995537 C21.4573624,6.47385832 20.4555858,5.47208169 19.2194887,5.47096769 L17.9319173,5.46980729 C16.694243,5.46869187 15.6900056,6.47112085 15.6888902,7.7087951 C15.6888889,7.71014158 15.6888889,7.71148806 15.6888902,7.71283454 L15.6961265,15.7417561 L15.6961265,15.7417561 L7.74559378,15.7345908 C6.50791953,15.7334754 5.50368208,16.7359044 5.50256666,17.9735786 C5.50256544,17.9749251 5.50256544,17.9762716 5.50256666,17.9776181 L5.5037268,19.2648264 C5.50484087,20.5009234 6.50661756,21.5027 7.74271461,21.503814 L15.7013262,21.5109866 L15.7013262,21.5109866 L15.7084511,29.4162694 C15.7095652,30.6523664 16.7113419,31.6541431 17.9474389,31.6552571 L19.2350104,31.6564175 C20.4726846,31.6575329 21.4769221,30.6551039 21.4780375,29.4174297 C21.4780387,29.4160832 21.4780387,29.4147367 21.4780375,29.4133902 Z" transform="rotate(-44 29.97 15.389)"/>
            </g>
          </g>
          <g stroke="#D1DADE" stroke-linecap="round" stroke-linejoin="round" stroke-width="4.545" transform="translate(97.589 76.236)">
            <path d="M7.09180783,12.9472397 C13.6704013,19.7178613 23.7395446,21.7477841 32.4201183,18.0533856" transform="rotate(-23 19.756 16.412)"/>
            <path d="M6.93361171,18.3920743 C6.9385284,25.9620358 13.0868714,32.1026854 20.6663232,32.1076021 C28.2457749,32.1125129 34.3861512,25.97983 34.3812404,18.4098686 C34.3763237,10.8399071 28.2279807,4.69925751 20.6485289,4.69434081 C13.0690772,4.68943002 6.92870091,10.8221129 6.93361171,18.3920743 Z" transform="rotate(-23 20.657 18.401)"/>
            <path d="M39.6452741,49.5730797 C35.5605264,42.4985953 28.0027566,38.1392065 19.8226371,38.1392065 C11.6425175,38.1392065 4.08474776,42.4985953 0,49.5730797"/>
          </g>
          <g stroke="#D1DADE" stroke-linecap="round" stroke-linejoin="round" stroke-width="4.545" transform="translate(150.626 81.53)">
            <path d="M36.2331663,27.4819152 C34.4610594,24.5794022 33.577502,21.2222037 33.6910665,17.8251424 L33.6910665,13.8749841 C33.6910665,6.37080456 27.5960175,0.286738685 20.0782911,0.286738685 C12.5593168,0.286738685 6.4642677,6.37080456 6.4642677,13.8749841 L6.4642677,17.8251424 C6.57783229,21.2222037 5.69427481,24.5794022 3.922168,27.4819152"/>
            <path d="M6.63241258,16.0743746 C11.8588797,16.0656546 16.8270186,13.7922271 20.245188,9.84456023 C23.6633574,13.7922271 28.6314963,16.0656546 33.8579635,16.0743746"/>
            <path d="M8.40322308 15.9648564C9.01722065 22.0925223 14.1850335 26.7602117 20.3549604 26.7602117 26.5248872 26.7602117 31.6914521 22.0925223 32.3066977 15.9648564M40.1532721 44.3207158C36.0685243 37.2462313 28.5107545 32.8868426 20.330635 32.8868426 12.1505154 32.8868426 4.59274568 37.2462313.507997926 44.3207158"/>
          </g>
        </g>
      </g>
    </g>
    <g transform="matrix(-1 0 0 1 201.84 183.57)">
      <path fill="#69A1AC" d="M105.253018,0.574004574 C102.285492,-0.074280721 99.0088866,-0.0246640188 95.9861025,0.0288150615 C79.7749201,0.249267715 63.8558147,7.92440705 53.49528,20.1880515 C44.6752844,30.6283564 42.2500133,43.6086205 40.5075707,56.7300099 C40.3348142,58.0328197 40.2607323,59.3273106 40.1632721,60.6327943 C40.1423227,60.9129653 40.1110505,61.1628314 40.0776529,61.3981394 C39.3923954,62.010772 39.032916,62.7250148 39.4385448,63.5096718 C37.9289744,66.8131934 36.6519726,70.2004989 35.5562286,73.6941684 C32.3312374,83.9776013 29.0506848,94.45653 31.0715416,105.27 C31.5436619,99.3192639 32.5367843,93.2342359 33.7245235,87.3812477 C33.7928367,87.0452208 33.866615,86.7118678 33.9434294,86.3797033 C33.9513234,86.3446448 33.9586101,86.3095863 33.9665041,86.2748249 C34.3870099,84.4823844 34.9335156,82.7437201 35.5981274,81.0323895 C35.6051105,81.0136718 35.61179,80.9952513 35.6190768,80.9768307 C35.7068213,80.7516243 35.8000309,80.5276064 35.892026,80.3035885 C36.0823922,79.839806 36.2779198,79.3769149 36.4852884,78.9164006 C36.5554233,78.7595286 36.6228257,78.6011711 36.6874955,78.4416252 C37.6551143,76.0701251 38.0637792,73.3979537 38.930598,70.9441552 C39.1379666,70.3861902 39.3547472,69.8303048 39.5818507,69.2773906 C39.5952097,69.245006 39.6088724,69.2126215 39.622535,69.1802369 C40.2364432,67.69233 40.9147175,66.2225467 41.6318545,64.7682128 C42.0216953,64.4752663 42.2299747,63.748545 42.5660758,63.0880783 C42.6356034,62.9579459 43.179073,62.0900993 43.3408995,61.5900699 C43.763227,60.7730284 44.1840364,59.9556898 44.6094001,59.1401338 C44.5966483,59.1448875 44.5838965,59.1496412 44.5711447,59.1543949 C44.9968119,58.3712235 45.4236936,57.5913202 45.8472356,56.8146851 C45.9404452,56.6441463 46.0345656,56.4733103 46.1283824,56.3021773 C46.2804932,56.0297311 46.432604,55.757582 46.5844111,55.4860271 C48.0044153,52.9448794 49.5100386,50.4545369 51.0736523,47.9950935 C51.6316954,47.1174423 52.9648658,45.8589013 53.2205091,44.8734007 C53.2299211,44.8365596 53.2320464,44.8026895 53.2378151,44.7673339 C56.630705,40.0020507 60.5367031,35.6066645 65.2208646,32.123988 C64.6546239,32.7360263 63.4510968,34.8130944 63.132909,35.2242891 C62.1592179,36.4834243 61.1020329,37.6555075 60.0409009,38.8418518 C58.140579,40.967051 56.2851919,43.1596933 54.6365662,45.4783085 C51.6216761,49.7186054 49.0206123,54.1811375 46.5619437,58.7333957 C46.5385654,58.7601352 46.5130618,58.7853892 46.4908979,58.812723 C45.2551877,60.3359854 44.4773278,62.6382599 43.5877379,64.3807866 C47.1081458,62.7502688 51.0007849,61.6881149 54.6137951,60.2403173 C58.2167861,58.7969764 61.7217097,57.1896329 65.1054912,55.3021185 C69.60293,52.7936525 74.2682674,49.961341 78.5176533,46.7561614 C83.3873232,43.7354847 87.4794368,39.5777833 91.0915363,35.2147817 C95.3652113,30.0525649 99.2818359,24.845188 101.704071,18.5771427 C102.893935,15.4970448 103.829978,12.2853289 104.384985,9.03617771 C104.409274,8.89445814 104.440243,8.74085434 104.473944,8.58130842 C105.041703,7.45913905 105.549346,6.31171567 105.975317,5.13784986 C106.65177,3.27618366 108.249388,1.22823199 105.253018,0.574004574"/>
      <path fill="#C1DEE2" d="M111.34743,57.7467223 C107.915874,55.4197804 103.352566,54.81 99.2460706,54.81 C83.2068706,54.81 68.1307679,60.7608423 55.1067884,69.6277257 C47.9702953,74.4862276 41.5861617,80.6733362 35.9498902,87.115199 C32.6966259,90.8337312 29.7957692,94.8565268 27.7420397,99.3305475 C26.3561819,102.350308 25.4049707,105.496662 24.7602288,108.742034 C23.9744596,112.697146 23.3502775,116.732476 23.0679017,120.753392 C22.9567504,122.336752 22.0367001,130.738624 24.669316,130.880885 C24.6542174,131.088009 24.6506837,131.28542 24.666746,131.462464 C18.9504841,140.400478 15.418699,150.875477 12.14359,160.806812 C9.2941327,169.449023 6.75499961,178.164245 5.10668333,187.104766 C2.93666258,198.87547 1.51129144,210.823217 0.833461124,222.76313 C0.687936417,225.329159 0.588028726,227.89644 0.501934638,230.465916 C0.429011661,232.65749 0.355124944,234.849065 0.283165707,237.040639 C0.202854058,239.496682 -0.229543859,242.324358 0.161092001,244.765986 C0.500970898,246.892384 2.34139264,246.570573 2.42266803,244.454516 C2.52096949,241.899141 2.50490716,239.338753 2.61670097,236.781498 C2.76543815,233.387597 2.91867277,229.993696 3.08475726,226.600735 C4.24092376,203.030813 8.57839529,179.807456 16.5832179,157.543265 C19.8226686,148.533494 23.534673,140.004402 28.3055062,131.669902 C32.500023,124.341883 37.545522,117.247624 42.7028149,110.640313 C47.7155467,104.219444 52.9271302,97.9471043 59.0690439,92.5070236 C64.0531848,88.0925396 69.5355792,84.2467871 75.1712082,80.6683226 C82.3292249,76.1234847 89.4734279,71.6889463 97.2270357,68.2001001 C101.257396,66.3867399 105.363891,64.7632702 109.425733,63.023234 C110.156569,62.7101967 110.940089,62.4065599 111.642977,62.0440132 C113.987756,60.834793 113.2158,59.013599 111.34743,57.7467223"/>
      <path fill="#89C5CC" d="M59.3185142,140.07 C52.8132722,140.07 47.0246223,140.91528 41.0307568,143.500511 C35.8568468,145.731719 31.1417251,148.685466 26.5638166,151.901257 C20.1244612,156.424007 15.0524034,161.68793 11.5020838,168.662524 C9.38101948,172.82918 7.82512904,178.72514 9.24954855,183.269777 C10.9275407,188.622427 15.5347657,193.086617 21.602678,192.143441 C25.3548885,191.560795 28.7945912,189.077009 31.6464525,186.739328 C35.0580476,183.942629 37.7890162,180.579846 40.0439693,176.844999 C43.7224352,170.752654 45.8839986,163.865309 49.0087755,157.499092 C50.4915258,154.477615 51.9244078,151.434549 53.7003232,148.563022 C54.5795161,147.141012 55.5155287,145.732606 56.8492786,144.675859 C57.5628484,144.110663 60.5715682,143.132291 59.4209709,141.862892 C76.2906557,142.084416 91.2354247,155.040445 94.4738408,171.077398 C94.7754684,172.572165 95.0112093,174.079058 95.2602485,175.582994 C95.4174092,176.532677 95.3539404,180.034762 96.2029102,180.641364 C98.0752376,181.979675 97.2882254,177.914168 97.2078317,177.328861 C97.0001983,175.816052 96.7786622,174.304427 96.5462458,172.795463 C95.281707,164.587849 91.6277218,156.957852 85.5341198,151.104481 C78.5658583,144.411154 69.1640246,140.07 59.3185142,140.07" transform="matrix(-1 0 0 1 106.14 0)"/>
    </g>
    <g transform="translate(93.09 103.639)">
      <g transform="translate(.217 51.693)">
        <g transform="translate(78.805)">
          <path fill="#BA8B72" d="M36.2580485,8.6885684 C41.7664419,18.9630346 41.1119015,45.0250703 33.9927939,46.861404 C31.1536077,47.5937561 25.1051884,45.7997014 18.9494118,42.0866066 L22.8137634,69.4405684 L0,69.4405684 L7.85369482,32.8081719 C3.47364996,27.6631919 0.509167901,21.3579803 1.00454355,14.2928227 C2.43188084,-6.0641788 30.7496551,-1.58589783 36.2580485,8.6885684 Z" transform="translate(51.331 29.488)"/>
          <path fill="#191847" d="M90.6910004,37.0048799 C91.4278639,36.2741523 91.8298054,35.2311617 92.1775014,34.2407986 C92.5385837,33.212006 92.8894295,32.1726122 93.1291595,31.1017934 C93.608182,28.9622381 93.6127316,26.5017116 92.0874714,24.8403474 C90.8642359,23.5080947 89.028814,22.910545 87.3348678,22.78068 C86.2062995,22.6940717 85.0471962,22.8522383 83.9653489,23.2081367 C82.8919885,23.5611955 81.9667531,24.2648521 80.9262024,24.7015849 C80.8864808,22.3959121 80.4918012,19.9833751 79.3228987,18.01467 C78.1980925,16.1204574 76.4047546,15.0574948 74.3624125,14.7762783 C72.2661749,14.4876787 70.1961851,14.9785535 68.3195541,15.9940945 C67.8497183,16.2484294 67.3842571,16.5148799 66.9388318,16.8164471 C66.5658504,17.0689835 66.1780827,17.3731063 65.7404443,17.4758057 C65.252585,17.5904315 65.0107551,17.3084577 64.6936816,16.9522753 C64.3219251,16.5346626 63.9030975,16.1668378 63.4598595,15.8407553 C61.500023,14.3991774 58.9286125,13.8064551 56.6580894,14.6705499 C55.6119392,15.068664 54.5946615,15.7447763 53.8849207,16.676454 C53.252261,17.5069468 52.8009737,18.8243389 51.9277965,19.4029578 C51.5572649,19.6485845 51.2955743,19.3231646 50.9582024,19.0826492 C50.4514447,18.7212609 49.968135,18.3224843 49.4552528,17.9709399 C48.7348379,17.4770362 47.9548404,17.1076023 47.1195476,16.9142245 C45.8967496,16.6311149 44.2069156,16.6974672 43.8572948,18.300146 C43.7260557,18.9021444 43.8266723,19.5459797 43.8691063,20.1525215 C43.9272889,20.9853806 43.9880089,21.8179558 44.0602778,22.6495844 C44.1151358,23.2810201 44.1845175,23.8908748 44.303595,24.5109521 C44.3671147,24.8414833 44.5658981,25.4576798 44.4242475,25.7886842 C44.2472497,26.2024161 43.4303304,25.9672014 43.081322,25.9815887 C42.391967,26.0100796 41.6997247,26.1310472 41.0623404,26.4257992 C40.5683566,26.6542936 40.049,26.9903147 39.8405048,27.5569125 C39.712328,27.9049547 39.7461002,28.2624622 39.8066452,28.6205377 C39.8792641,29.0502661 39.7962335,29.2781926 39.7419881,29.7118018 C38.8161403,29.2555703 35.6077829,28.2419224 35.2040916,29.90234 C35.0697028,30.455213 35.3757523,31.0799283 35.6092703,31.5461931 C36.0188237,32.3640023 36.5557664,33.1114836 37.1046956,33.8243217 C38.2497126,35.3114281 39.6166985,36.5940822 41.0874508,37.6910256 C39.3642821,38.457627 38.9144821,40.7188125 40.4064076,42.0660205 C41.0651402,42.6608252 41.9508288,42.793246 42.781747,42.7551951 C43.0858716,42.741281 43.5242975,42.6242889 43.7635901,42.677295 C43.8923793,42.7057858 44.0302678,42.8150163 44.2086655,42.8272267 C45.3813301,42.9075878 46.7050947,42.6248568 47.8514241,42.3644641 C49.8940287,41.900471 51.8277924,40.9320676 53.4069481,39.4571715 C53.8120393,39.0788401 54.1466989,38.8610416 54.6919534,38.8666262 C55.1697511,38.8714536 55.638537,39.0025491 56.1158971,39.0146648 C57.3789418,39.0469418 58.5177468,38.4290415 59.6905864,38.0177706 C59.7624179,39.603317 60.2136178,41.3495856 60.8617637,42.776019 C61.3903071,43.93922 62.4940276,44.1082717 63.5785871,44.2103085 C67.0467978,44.5368643 70.5272574,44.172447 73.9998427,44.1772744 C70.6382857,44.9376286 67.1646504,45.2510275 63.8329284,46.1457902 C62.3269165,46.5501514 63.4769206,47.5658817 64.1208669,48.2700116 C65.1811909,49.4295211 65.9695876,50.866177 66.516417,52.3796919 C68.1608423,50.2346466 71.0674374,48.8212755 73.6425226,49.4802555 C76.4877852,50.2082382 78.4912806,54.0586616 76.6718698,56.8268131 C75.6155705,58.4337513 73.7080546,59.0541125 72.1208495,59.7445176 C73.3590462,61.0327563 73.6585337,62.9353931 74.4037965,64.5380718 C74.7713534,65.3284314 75.2872978,66.2220582 76.1092918,66.4975009 C76.4134164,66.5994431 76.7700367,66.6081512 77.0099416,66.8562389 C77.3071543,67.1633906 77.3779359,67.5067948 77.7574793,67.7707843 C79.2719779,68.8244708 81.6376931,68.7432578 82.9800936,67.3682215 C84.1940548,66.1246594 83.8782062,64.1568062 82.8643408,62.8960171 C84.4782311,62.222839 87.4185109,61.3570403 86.7771019,58.8409521 C90.2741851,58.6085769 98.7650018,52.9329435 94.0713684,48.785591 C96.647241,47.3287738 99.0137436,43.7684644 97.3591691,40.6300272 C96.0851004,38.2133254 93.1220726,37.1330412 90.6910004,37.0048799" transform="matrix(-1 0 0 1 133.08 0)"/>
        </g>
        <g transform="translate(0 172.91)">
          <g transform="translate(39.222 36.582)">
            <polygon fill="#C5CFD6" points="41.508 0 108.842 0 117.665 108.003 17.432 108.003"/>
            <polygon fill="#000" fill-opacity=".1" points="24.076 0 44.785 0 57.18 108.003 0 108.003"/>
          </g>
          <path fill="#D4A181" d="M224.831058,18.0789499 L225.082101,17.932598 C232.287273,13.8988868 244.054516,19.3766965 244.046345,25.4664308 C244.035209,33.7617802 240.620041,55.9174005 236.78663,78.2797106 L236.273292,81.2613782 C231.721545,107.589084 226.773705,133.361737 226.307853,136.27257 C225.428887,141.764707 216.012956,143.215388 215.464636,136.290569 C214.984777,130.230363 214.278506,115.964726 214.009863,101.415424 L213.982324,99.8274833 L213.982324,99.8274833 L213.958449,98.2395773 L213.958449,98.2395773 L213.93843,96.6539916 C213.917397,94.8063841 213.904626,92.9681801 213.901487,91.1557112 L213.901187,89.6088499 C213.911799,81.9098649 214.106496,74.7692715 214.593042,69.4726455 C215.262548,62.1842772 215.983574,55.2431063 216.693403,49.0507008 C207.860843,64.9915735 194.198428,87.8171005 175.707376,117.526264 L165.669615,112.943449 C173.551956,86.9912999 180.015358,68.6697733 185.05982,57.978869 C188.165382,51.3971437 191.201338,45.1553213 193.974702,39.603179 L194.491583,38.5703199 C199.200589,29.1780972 203.098237,21.8878395 205.20466,18.4754922 C210.566529,9.78941012 219.899852,12.8205035 224.831058,18.0789499 Z"/>
          <path fill="#0064A9" d="M181.995726,107.435645 L186.475429,19.0129388 C189.693387,3.72286859 216.899288,10.8126231 216.886285,19.0061886 C216.856748,37.6081188 205.662446,101.870095 205.653647,107.412231 L181.995726,107.435645 Z" transform="rotate(20 199.441 58.723)"/>
          <path fill="#E4E4E4" d="M2.35399353,22.0722799 C1.36572723,24.6998617 0.871594075,26.6636977 0.871594075,27.9637879 C0.871594075,29.5344361 1.13343332,31.8264024 1.6571118,34.8396868 C3.48043305,34.8396868 19.8669282,34.8396868 50.8165971,34.8396868 C52.0940779,30.6193005 51.3566419,28.3408498 48.6042892,28.0043346 C45.8519365,27.6678194 43.5655103,27.3639731 41.7450107,27.0927957 L18.871993,16.9029322 C18.4450923,16.7127491 17.944847,16.9046467 17.7546639,17.3315475 C17.7514679,17.3387217 17.7483718,17.34594 17.7453767,17.3532004 L16.2667459,20.9375151 L16.2667459,20.9375151 C13.7187872,22.1255111 11.6483062,22.7195091 10.0553029,22.7195091 C8.75198327,22.7195091 6.94861853,22.1898288 4.6452087,21.1304683 L4.64520053,21.1304861 C3.79601941,20.7399394 2.79102149,21.1117361 2.40047486,21.9609173 C2.38366216,21.9974738 2.36815853,22.0346182 2.35399353,22.0722799 Z" transform="rotate(30 -76.452 367.518)"/>
          <path fill="#E4E4E4" d="M2.35399353,22.0722799 C1.36572723,24.6998617 0.871594075,26.6636977 0.871594075,27.9637879 C0.871594075,29.5344361 1.13343332,31.8264024 1.6571118,34.8396868 C3.48043305,34.8396868 19.8669282,34.8396868 50.8165971,34.8396868 C52.0940779,30.6193005 51.3566419,28.3408498 48.6042892,28.0043346 C45.8519365,27.6678194 43.5655103,27.3639731 41.7450107,27.0927957 L18.871993,16.9029322 C18.4450923,16.7127491 17.944847,16.9046467 17.7546639,17.3315475 C17.7514679,17.3387217 17.7483718,17.34594 17.7453767,17.3532004 L16.2667459,20.9375151 L16.2667459,20.9375151 C13.7187872,22.1255111 11.6483062,22.7195091 10.0553029,22.7195091 C8.75198327,22.7195091 6.94861853,22.1898288 4.6452087,21.1304683 L4.64520053,21.1304861 C3.79601941,20.7399394 2.79102149,21.1117361 2.40047486,21.9609173 C2.38366216,21.9974738 2.36815853,22.0346182 2.35399353,22.0722799 Z" transform="translate(210.926 109.745)"/>
          <path fill="#206DBB" d="M246.460982,31.7328819 C246.460982,54.8725067 235.464277,108.848147 235.457318,113.943293 L211.79736,113.961454 C215.260445,65.7995224 216.488429,41.4591339 215.481312,40.9402883 C213.970636,40.1620199 153.553816,46.9682794 135.433829,46.9682794 C109.304717,46.9682794 98.4956272,30.5024917 97.6185364,-3.83703839e-13 L149.379334,-3.83703839e-13 C159.918297,1.12694797 214.890495,12.2071789 235.30608,16.0161636 C244.046341,17.6468552 246.460982,25.358511 246.460982,31.7328819 Z"/>
        </g>
        <g transform="translate(30.954 84.962)">
          <path fill="#BA8B72" d="M55.9478974,80.9273056 L74.1286283,80.9988019 C62.9028658,117.237493 56.8426222,136.465515 55.9478974,138.682869 C53.9347666,143.671916 58.1948221,151.270147 60.016591,155.353379 C57.1397714,156.64067 55.8063931,154.992371 54.3429576,153.349395 L54.0666307,153.042118 C52.5804009,151.411296 50.85952,149.969604 47.2304895,151.657958 C40.3986422,154.836376 35.201673,160.595457 27.3084606,155.725103 C26.3380366,155.126322 25.2746099,152.871802 27.8439832,151.110013 C34.2452291,146.720756 43.4698123,139.038765 44.7161988,136.510178 C46.4158694,133.061998 50.159769,114.534374 55.9478974,80.9273056 L55.9478974,80.9273056 Z M139.81401,96.1504421 L160.873376,123.388892 C167.54876,127.415872 172.897029,131.578198 176.918184,135.875871 C177.765253,137.249552 178.544361,139.762989 173.893655,138.033646 L173.602609,137.925744 L173.602609,137.925744 L173.018928,137.711508 C168.63678,136.114961 164.20325,134.784071 163.152039,136.128348 C162.030747,137.562244 164.352333,140.327239 162.398352,142.135467 C161.095698,143.340952 157.967071,138.484511 153.012472,127.566144 L129.736892,109.03695 L139.81401,96.1504421 Z"/>
          <path fill="#F19014" d="M91.9866085,17.0348704 L99.3685163,15.0937519 C129.276345,36.6816675 144.734687,81.8290164 180.957062,103.292803 L173.643065,114.179269 C113.873637,112.031328 94.2934833,57.0258046 91.9866085,17.0348704 Z" transform="rotate(24 136.472 64.637)"/>
          <path fill="#DDE3E9" d="M74.82,99.18 C104.984428,99.18 127.172748,99.18 141.384962,99.18 C144.426641,99.18 143.853495,94.7879243 143.413802,92.5716588 C138.339211,66.9932767 118.529935,39.4210185 118.529935,3.01083536 L99.3294661,0 C83.4482119,25.5418139 77.9561989,56.9889584 74.82,99.18 Z"/>
          <path fill="url(#voty-startscreen-l)" d="M97.0084475,-1.74 L99.1680068,0.18 L99.2674623,-1.86517468e-14 L107.420281,0.465223751 C124.665768,58.9122191 129.42197,97.9071445 121.688888,117.45 L121.688888,117.45 L65.9335258,117.45059 C63.1013893,123.929765 60.3821552,129.439568 57.7758236,133.98 L57.7758236,133.98 L43.5,133.98 C42.2009116,91.9761428 51.8138685,56.1150022 72.3388706,26.3965784 C64.9680492,17.2312391 66.1435738,10.7545858 72.2852317,7.06555031 C77.4310463,3.97467599 83.1094317,4.98531817 90.6899283,4.33299339 C92.7299704,2.27092002 94.8362114,0.246884666 97.0084475,-1.74 L97.0084475,-1.74 Z"/>
          <path fill="#000" fill-opacity=".1" d="M90.48,117.45 L71.0366302,117.451045 C74.6576719,109.007582 78.4607032,99.0015714 82.4457241,87.4330122 C84.0932985,101.218693 86.7714323,111.224798 90.48,117.45 Z"/>
        </g>
      </g>
      <g transform="translate(234.284 .312)">
        <g transform="matrix(-1 0 0 1 179.396 0)">
          <path fill="#D4A181" d="M32.2771945,7.72920564 C37.1808088,16.8691996 36.5981319,40.0535521 30.2606474,41.687124 C27.7333447,42.3385703 22.349526,40.7428566 16.8699715,37.440182 L20.3089881,61.7731723 L0,61.7731723 L6.99193558,29.1862085 C3.09250276,24.6092092 0.453245746,18.9999804 0.894252418,12.7146569 C2.16487909,-5.39459239 27.3735802,-1.41078828 32.2771945,7.72920564 Z" transform="translate(45.695 26.232)"/>
          <path fill="#303C4C" d="M69.9504976,24.0068964 C67.1754084,23.1606885 63.1469539,22.8737123 61.4523029,23.0678493 C62.4162976,20.7581925 62.7988249,18.1849568 62.4869728,15.6794577 C62.1838661,13.244901 61.0960115,11.1719466 60.0899097,8.99974094 C59.6261479,7.99849627 59.1005859,7.00270872 58.3170041,6.23687047 C57.518782,5.45663906 56.5083398,4.94162358 55.4487942,4.69591685 C54.3645026,4.44441194 53.2307189,4.46535363 52.144743,4.69359758 C51.6643327,4.79455426 51.233285,5.01420324 50.7621383,5.13630625 C50.2796551,5.26141068 50.0456041,4.95942743 49.6954021,4.65594347 C48.8514452,3.9246897 47.6142074,3.56370136 46.5464995,3.4345041 C45.3485834,3.28961762 44.1055801,3.47031643 42.9631159,3.86411569 C41.8510983,4.24747821 40.7828074,4.86999891 39.9788198,5.77690366 C39.6208442,6.18059394 39.2959066,6.64008325 39.084723,7.14739055 C38.9981118,7.35557959 38.9837954,7.47891045 38.7760451,7.55517367 C38.583907,7.62577513 38.3591843,7.62782155 38.160892,7.69501231 C36.2435265,8.34440932 34.6041978,9.82588035 33.7115909,11.7280269 C33.1908225,12.8377318 32.9441394,14.7915299 33.0117052,16.9814166 C33.079271,19.1713032 35.056623,24.8853424 36.906034,26.969552 C38.5568288,28.8298835 40.9833022,30.0575303 43.325043,30.59492 C41.770706,32.3715528 40.736036,34.5916448 39.9709166,36.8495272 C39.139851,39.3021605 38.6254959,41.8505663 38.4355602,44.4471311 C38.2551472,46.9141576 38.2384339,49.5230691 38.8167919,51.9374344 C39.3578365,54.1952487 40.5148763,56.0474626 42.4464287,57.2225165 C43.3311972,57.760793 44.2831428,58.1651654 45.2405947,58.5347487 C46.1841837,58.8989431 47.1306229,59.2530418 48.1190398,59.4574108 C49.9896988,59.8440476 52.1451316,59.7776754 53.5861033,58.2887009 C54.1054464,57.7519251 54.6766138,57.0774254 55.0555134,56.4216845 C55.1917463,56.1858688 55.2738876,56.031637 55.1083741,55.801142 C54.9100818,55.52508 54.5893548,55.3135485 54.3346389,55.0975831 C52.8820716,53.8662527 51.9829219,52.2224324 51.7562559,50.2689207 C51.526286,48.2868273 52.0587148,45.7284623 53.9857973,44.863441 C56.3645925,43.7956195 58.9843053,45.0212881 61.0986027,46.1638039 C61.9971694,42.9924 63.8421754,40.1368949 66.7348074,38.6821638 C69.935016,37.0727915 73.6072133,36.8844528 76.8959117,35.5035973 C77.7528895,35.1437686 78.6257384,34.7353034 79.2566979,34.0021396 C79.5203535,33.6957225 79.8296792,33.2982396 79.934947,32.8929804 C80.0732529,32.3606386 79.7299176,31.9143146 79.4647073,31.4993008 C78.0584579,29.2987863 72.7255868,24.8531042 69.9504976,24.0068964 Z"/>
        </g>
        <g transform="matrix(-1 0 0 1 285.172 179.396)">
          <polygon fill="#D4A181" points="121.673 0 157.444 117.171 174.773 216.818 188.359 216.818 170.049 0"/>
          <polygon fill="#000" fill-opacity=".05" points="121.673 0 157.444 117.171 174.773 216.818 188.359 216.818 170.049 0"/>
          <path fill="#D4A181" d="M108.876525,0 C111.30617,64.3334336 108.446806,97.5177836 107.903023,103.362756 C107.359239,109.207728 99.9130632,147.10684 82.2851449,218.78041 L96.7626688,213.798486 C124.62195,148.063216 134.1154,113.899435 137.310648,105.267609 C140.505897,96.6357822 148.992319,61.5465794 162.769914,0 L108.876525,0 Z"/>
          <path fill="#E4E4E4" d="M2.62767964,23.9757191 C1.50960886,26.9294852 0.950573473,29.1303416 0.950573473,30.5782884 C0.950573473,32.2957858 1.23613925,34.8020416 1.80727079,38.0970559 C3.79581209,38.0970559 21.6671676,38.0970559 55.4213373,38.0970559 C56.8145768,33.4820807 56.0103182,30.9906041 53.0085613,30.6226261 C50.0068045,30.254648 47.5131941,29.9223933 45.5277301,29.625862 L20.511228,18.4516414 C20.0845141,18.2610394 19.5840807,18.4524459 19.3934787,18.8791598 C19.3900558,18.886823 19.3867471,18.8945366 19.3835536,18.9022982 L17.7407553,22.8950877 L17.7407553,22.8950877 C14.9619136,24.1941565 12.7038161,24.8436908 10.9664631,24.8436908 C9.51858165,24.8436908 7.50484956,24.2427216 4.9252668,23.0407832 L4.92525959,23.0407987 C4.07802813,22.6460372 3.07119387,23.0128365 2.67643234,23.860068 C2.65875711,23.8980023 2.64249503,23.9365792 2.62767964,23.9757191 Z" transform="translate(79.848 189.533)"/>
          <path fill="#E4E4E4" d="M2.62767964,23.9757191 C1.50960886,26.9294852 0.950573473,29.1303416 0.950573473,30.5782884 C0.950573473,32.2957858 1.23613925,34.8020416 1.80727079,38.0970559 C3.79581209,38.0970559 21.6671676,38.0970559 55.4213373,38.0970559 C56.8145768,33.4820807 56.0103182,30.9906041 53.0085613,30.6226261 C50.0068045,30.254648 47.5131941,29.9223933 45.5277301,29.625862 L20.511228,18.4516414 C20.0845141,18.2610394 19.5840807,18.4524459 19.3934787,18.8791598 C19.3900558,18.886823 19.3867471,18.8945366 19.3835536,18.9022982 L17.7407553,22.8950877 L17.7407553,22.8950877 C14.9619136,24.1941565 12.7038161,24.8436908 10.9664631,24.8436908 C9.51858165,24.8436908 7.50484956,24.2427216 4.9252668,23.0407832 L4.92525959,23.0407987 C4.07802813,22.6460372 3.07119387,23.0128365 2.67643234,23.860068 C2.65875711,23.8980023 2.64249503,23.9365792 2.62767964,23.9757191 Z" transform="translate(169.202 189.533)"/>
          <polygon fill="#5A8F99" points="116.921 0 132.13 59.698 178.585 59.698 171.658 0"/>
          <path fill="#89C5CC" d="M108.365376,-3.38369829e-15 C103.361024,15.0298086 102.410451,34.9290185 105.513656,59.6976295 L152.919057,59.6976295 L165.954496,-3.38369829e-15 L108.365376,-3.38369829e-15 Z"/>
        </g>
        <g transform="scale(-1 1) rotate(8 -574.619 -1625.133)">
          <path fill="#D4A181" d="M47.3060826,61.2847455 L62.3969996,65.1210187 C54.3165706,78.7056365 47.7398614,89.7281335 42.6668721,98.1885098 L41.9172016,99.4383504 C34.7794066,111.334389 30.8031825,117.843568 29.9885295,118.965888 C26.8282377,123.319718 29.123573,131.72285 29.9034042,136.125519 C23.5039004,137.266262 26.4960782,127.878592 18.3911077,129.44663 C16.9526386,129.724925 15.5505413,130.112847 14.1774151,130.508461 L13.5906846,130.678184 C13.3956847,130.734717 13.2012544,130.79111 13.0073722,130.847066 L12.4273483,131.013323 C7.41435124,132.437695 2.75728152,133.365495 -1.92308311,128.573388 C-2.7198231,127.757626 -3.20624367,125.312809 -0.28697655,124.224941 C6.98598246,121.514665 17.7949979,116.292491 19.6160819,114.140542 C22.0994552,111.205975 31.3294555,93.5873764 47.3060826,61.2847455 L47.3060826,61.2847455 Z M171.992889,78.5124877 L198.255249,100.777224 C205.622016,103.328314 211.718809,106.287716 216.545628,109.655429 C217.659791,110.822976 218.944446,113.119503 214.035819,112.394886 C209.127192,111.67027 203.931465,111.128841 203.132799,112.764532 C202.334134,114.400223 205.179862,116.622112 203.644532,118.797081 C202.620979,120.24706 198.551009,116.147222 191.434623,106.497566 L164.815235,93.2125452 L171.992889,78.5124877 Z" transform="rotate(-4 107.52 98.753)"/>
          <path fill="#69A1AC" d="M120.289821,1.77605651 C133.260387,28.5871167 150.814223,54.309057 176.890072,76.2808512 C180.460747,76.0236514 184.343994,76.6151937 188.507315,78.0179736 C190.556327,78.7083631 191.657708,80.9290864 190.967318,82.9780981 C190.566298,84.1682902 189.648942,85.0387516 188.548823,85.4240454 C189.345017,86.0044847 190.149326,86.5829043 190.960788,87.1580536 L183.959745,101.450372 C154.498994,86.76121 126.808706,75.6863812 114.190855,51.4357553 C111.384018,46.041211 111.067201,32.0771019 111.055008,20.3444485 L111.054755,19.1181407 C111.056008,16.8867304 111.06575,14.7525387 111.068275,12.7931936 L111.068412,11.230683 C111.065362,9.03462808 111.046249,7.11235007 110.985147,5.59198473 L120.289821,1.77605651 Z"/>
          <path fill="#191847" d="M78.3,99.1014783 C105.651344,102.106174 127.179851,102.106174 142.885523,99.1014783 C144.831351,98.7292166 144.7459,90.3411489 143.843525,88.0502885 C129.791197,52.3756306 120.547463,26.2601082 120.547463,1.48129448 C117.969037,2.82813505 113.45655,3.02997594 107.01,2.08681716 C89.6849955,27.6221815 81.7213079,56.9210904 78.3,99.1014783 Z"/>
          <path fill="url(#voty-startscreen-m)" d="M109.92313,1.92319346e-14 C107.01,38.5242441 147.247188,122.630763 133.275816,194.460757 C107.451835,200.227706 70.5847621,182.284806 34.6980473,196.62 C36.0327973,167.706192 62.7580821,133.7413 73.2039939,103.359949 C72.2760735,102.511004 71.7897737,101.220704 72.0242752,99.8907797 L72.5146801,97.1095551 C72.8181738,95.3883567 74.2334817,94.1424534 75.8917868,93.9801977 C76.1834028,92.6842863 76.4332397,91.3962594 76.6398113,90.1176028 C78.3960448,79.2467046 75.3957468,68.5874218 75.5362447,58.1199406 C61.5466517,70.0536325 48.9967606,90.6636568 37.8867154,119.947806 L37.8867154,119.947806 L21.4552111,115.112725 C22.0822021,112.783383 22.7316558,110.482653 23.4035721,108.210533 C21.5078973,107.135669 19.290477,102.195581 20.8857455,101.36906 C22.5328748,100.515669 24.2778097,99.9150135 26.1154107,99.5614652 C41.1812506,54.1835639 65.8191455,20.9959289 100.028837,-2.9873594e-13 L100.028837,-2.9873594e-13 Z"/>
          <polygon fill="#000" fill-opacity=".1" points="103.622 .87 99.134 14.673 108.172 25.02 100.004 33.152 119.766 66.99 95.599 33.219 103.622 25.02 95.599 15.876"/>
          <path fill="#000" fill-opacity=".4" d="M119.19,113.1 C121.111951,113.1 122.67,114.658049 122.67,116.58 C122.67,118.501951 121.111951,120.06 119.19,120.06 C117.268049,120.06 115.71,118.501951 115.71,116.58 C115.71,114.658049 117.268049,113.1 119.19,113.1 Z M118.32,93.09 C120.241951,93.09 121.8,94.6480491 121.8,96.57 C121.8,98.4919509 120.241951,100.05 118.32,100.05 C116.398049,100.05 114.84,98.4919509 114.84,96.57 C114.84,94.6480491 116.398049,93.09 118.32,93.09 Z M113.97,73.08 C115.891951,73.08 117.45,74.6380491 117.45,76.56 C117.45,78.4819509 115.891951,80.04 113.97,80.04 C112.048049,80.04 110.49,78.4819509 110.49,76.56 C110.49,74.6380491 112.048049,73.08 113.97,73.08 Z"/>
        </g>
      </g>
      <g transform="matrix(-1 0 0 1 768.574 88.712)">
        <g transform="translate(98.969)">
          <path fill="#743B22" d="M37.8746853,0 C47.9226605,-1.8457831e-15 56.0681538,8.14549332 56.0681538,18.1934686 L56.0677521,20.7731269 C57.9398335,40.1831304 56.4172411,92.8275322 59.0305183,99.2014247 L31.4715952,99.2014247 C30.747564,86.5774345 33.6643911,73.7297514 36.949526,61.033455 L31.4977762,61.0338462 C21.449801,61.0338462 13.3043077,52.8883528 13.3043077,42.8403776 L13.3043077,18.1934686 C13.3043077,8.14549332 21.449801,1.8457831e-15 31.4977762,0 L37.8746853,0 Z"/>
          <path fill="#EEB695" d="M36.2479107,8.71061026 C41.7547639,19.0111416 41.1004066,45.1392935 33.9832895,46.9802858 C31.1450695,47.7144512 25.0989033,45.9161082 18.9452346,42.1940534 L22.8073846,69.6167308 L0,69.6167308 L7.85174764,32.8916953 C3.47279095,27.7336095 0.509016161,21.412297 1.00426268,14.3290819 C2.43120089,-6.07956289 30.7410575,-1.58992107 36.2479107,8.71061026 Z" transform="translate(16.155 3.815)"/>
          <path fill="#743B22" d="M34.2124248,0.953653846 C45.217017,0.953653846 48.6905212,6.09224809 51.6479696,10.4549889 C49.4364041,18.0701691 40.8537561,19.1991874 33.2277052,23.9460981 C32.3298121,23.2130776 31.1833893,22.7736478 29.9346923,22.7736478 C27.0480699,22.7736478 24.708,25.1219573 24.708,28.0187439 C24.708,30.5233171 26.4572958,32.6178817 28.7966906,33.1391592 C28.9591556,54.9744669 26.2526547,92.6410767 27.6703645,98.7385793 L0.11144138,98.7385793 C7.24657565,73.4313462 13.4157491,44.1874133 13.4157491,18.9803747 C13.5609327,18.8380224 13.7048615,18.6958985 13.8476968,18.5544447 L14.1319575,18.2725612 C14.7979478,17.6116796 15.4420857,16.9721768 16.0812253,16.4001389 L16.0496297,15.6596641 C20.821765,5.85565727 26.87603,0.953653846 34.2124248,0.953653846 Z"/>
        </g>
        <g transform="translate(0 153.89)">
          <ellipse cx="98.16" cy="62.196" fill="#C5CFD6" rx="65.158" ry="62.196" transform="translate(8.462 22.848)"/>
          <path fill="#F7CCAA" d="M219.244183,31.7343414 C223.541105,42.8610598 231.042558,79.4188131 240.056126,134.637939 L229.753259,137.644039 C218.91098,113.64702 211.069953,92.7513868 207.922594,81.7268009 C202.533551,62.8500334 198.433891,46.2395802 197.397718,40.0364425 C194.926831,25.2442649 216.405195,24.3828869 219.244183,31.7343414 Z M186.739938,62.7543974 C180.466659,63.6572578 173.66935,64.5660161 166.77811,65.446384 L164.70835,65.7096084 C164.363063,65.7533258 164.01765,65.7969636 163.672163,65.8405175 L161.598788,66.100801 L161.598788,66.100801 L159.526229,66.3588668 C134.325518,69.484341 109.87892,72.0717017 107.100965,72.4536049 C101.767511,73.1868291 97.737213,64.8058599 103.989082,62.3346663 C109.758794,60.0540562 123.901103,54.9566267 138.041077,50.3978999 L139.503481,49.9283667 C139.747099,49.8504773 139.990631,49.7727825 140.234033,49.6952993 L141.692549,49.2330789 C150.672916,46.4000847 159.358519,43.9040385 165.575144,42.6160673 C170.403276,41.6157665 175.082842,40.6863743 179.482456,39.8464621 C192.559664,37.3499458 199.334885,60.9417124 186.739938,62.7543974 Z"/>
          <path fill="#7BA459" d="M140.100019,0 C192.156771,13.264919 218.757729,21.7658785 219.902893,25.5028784 C219.915746,25.5448189 219.927483,25.5868168 219.938106,25.628872 C219.965051,25.6608223 219.989752,25.6940321 220.014038,25.7274332 C230.330586,39.9156456 236.509125,109.18363 238.537034,114.370182 L218.768192,117.31942 C215.592107,105.541904 209.482129,95.2649935 203.510605,84.8174716 L202.658804,83.3236274 C194.723642,69.3668806 187.294714,54.9653465 187.654617,36.1576237 C187.4811,35.1725665 187.43724,34.2384006 187.508731,33.3546892 L133.700839,5.96298752 L133.700839,0 L140.100019,0 Z"/>
          <path fill="#84B35E" d="M142.959844,-8.52651283e-14 C147.485108,1.29993673 163.405729,7.7372965 179.810881,14.5675951 L181.452608,15.2517591 L181.452608,15.2517591 L183.91595,16.2806104 C193.48853,20.283934 202.916593,24.2864292 210.034389,27.3463377 C223.493912,33.1325255 219.251369,53.9910584 211.629363,59.4199665 C211.588035,59.7524772 211.450805,59.9793287 211.206085,60.0807566 C170.203594,77.0748547 137.76686,68.1580948 126.931176,71.0071339 L121.919188,55.1967973 L138.169759,49.6216817 C133.247131,48.6362856 128.713914,47.756836 124.834869,47.0764539 C99.7757653,42.6811014 92.4683173,29.2671562 96.7888707,-8.52651283e-14 L142.959844,-8.52651283e-14 Z"/>
          <path fill="#E4E4E4" d="M2.26625613,21.4953074 C1.31955727,24.0224958 0.84620784,25.9134168 0.84620784,27.1680703 C0.84620784,28.6940253 1.10042069,30.920773 1.6088464,33.8483136 C3.37906121,33.8483136 19.2882798,33.8483136 49.336502,33.8483136 C50.5767746,29.7480196 49.8608174,27.5344029 47.1886303,27.2074633 C44.5164432,26.8805237 42.2966119,26.5853235 40.5291366,26.3218625 L18.3457797,16.4324114 C17.9189278,16.2421187 17.4186333,16.4338878 17.2283406,16.8607397 C17.2250852,16.868042 17.2219335,16.87539 17.2188863,16.8827816 L15.7929572,20.3417322 L15.7929572,20.3417322 C13.3192109,21.4959234 11.3090351,22.073019 9.76243002,22.073019 C8.50585008,22.073019 6.77050255,21.5655268 4.55638743,20.5505423 L4.55639205,20.5505322 C3.70671421,20.1610268 2.7021577,20.5340703 2.3126523,21.3837482 C2.29586404,21.4203705 2.28038879,21.4575806 2.26625613,21.4953074 Z" transform="rotate(64 24.16 124.775)"/>
          <path fill="#E4E4E4" d="M2.26625613,21.4953074 C1.31955727,24.0224958 0.84620784,25.9134168 0.84620784,27.1680703 C0.84620784,28.6940253 1.10042069,30.920773 1.6088464,33.8483136 C3.37906121,33.8483136 19.2882798,33.8483136 49.336502,33.8483136 C50.5767746,29.7480196 49.8608174,27.5344029 47.1886303,27.2074633 C44.5164432,26.8805237 42.2966119,26.5853235 40.5291366,26.3218625 L18.3457797,16.4324114 C17.9189278,16.2421187 17.4186333,16.4338878 17.2283406,16.8607397 C17.2250852,16.868042 17.2219335,16.87539 17.2188863,16.8827816 L15.7929572,20.3417322 L15.7929572,20.3417322 C13.3192109,21.4959234 11.3090351,22.073019 9.76243002,22.073019 C8.50585008,22.073019 6.77050255,21.5655268 4.55638743,20.5505423 L4.55639205,20.5505322 C3.70671421,20.1610268 2.7021577,20.5340703 2.3126523,21.3837482 C2.29586404,21.4203705 2.28038879,21.4575806 2.26625613,21.4953074 Z" transform="translate(222.553 111.7)"/>
        </g>
        <g transform="translate(18.617 65.039)">
          <path fill="#EEB695" d="M57.8027042,78.7141614 L75.486241,78.7837024 C64.567473,114.031363 58.6729607,132.733551 57.8027042,134.890266 C55.8446271,139.742875 59.9881816,147.133315 61.76013,151.104882 C59.0965099,152.296773 57.7932429,150.901303 56.446259,149.385907 L56.1758634,149.08196 C54.680905,147.409498 53.0197875,145.790967 49.3236939,147.510521 C48.4693349,147.907999 47.6412624,148.346971 46.8305228,148.800127 L46.2924993,149.104033 C41.0252535,152.107212 36.4173919,155.459192 29.946479,151.46644 C29.0025934,150.884034 27.9682486,148.691169 30.4673565,146.977561 C32.5427528,145.554486 34.9232744,143.775558 37.2198048,141.945041 L37.905855,141.394642 C42.2299529,137.902837 46.1103717,134.334635 46.8781624,132.776992 C48.5313516,129.423111 52.1728655,111.402167 57.8027042,78.7141614 L57.8027042,78.7141614 Z M164.201901,75.4161679 L188.173195,98.8011411 C195.147958,101.776248 200.862783,105.061366 205.31767,108.656497 C206.319507,109.864942 207.41017,112.180387 202.696576,111.144259 C202.495997,111.100168 202.294892,111.056364 202.093599,111.01302 L201.4895,110.884543 C197.160967,109.976168 192.902991,109.360726 192.092477,110.763163 C191.206565,112.296058 193.816976,114.644999 192.179702,116.651165 C191.088185,117.988609 187.417331,113.734461 181.167137,103.888723 L156.240161,89.1923937 L164.201901,75.4161679 Z"/>
          <path fill="#191847" d="M103.253426,7.81219062 L110.433459,5.9241565 C125.726324,36.177082 150.129562,62.7463988 183.643171,85.6321069 L162.524195,116.408624 C128.064096,82.662452 105.497214,46.7094804 103.253426,7.81219062 Z" transform="rotate(5 143.448 61.166)"/>
          <path fill="#DDE3E9" d="M76.1587056,96.4676937 L141.316709,96.4676937 C126.221097,59.7635529 118.673291,28.5838207 118.673291,2.92849711 L99.0183402,0 C83.5713956,24.843314 79.2091378,55.4304637 76.1587056,96.4676937 Z"/>
          <path fill="#2F3676" d="M99.8929333,0 C101.428147,0.0528652572 103.766475,0.148112515 106.907917,0.285741772 L106.907917,0.285741772 L111.657258,13.8582443 C112.159633,30.4062979 115.093427,63.7550911 120.458639,113.904624 L120.458639,113.904624 L77.7462445,113.904129 C77.8582131,117.367912 78.0428393,120.864053 78.3001231,124.392552 L78.3001231,124.392552 L46.5414312,124.392552 C51.2919713,70.7971016 68.6403497,29.3329175 98.5865666,4.97379915e-14 L98.5865666,4.97379915e-14 L98.6014312,0.014 L98.6099388,0 Z"/>
          <path fill="#000" fill-opacity=".1" d="M89.698031,114.238058 L77.7572582,114.237983 C77.2345234,98.7047982 78.1712072,83.8215626 80.5673095,69.5882766 C81.7834771,91.1783102 84.8268907,106.061362 89.698031,114.238058 Z"/>
          <polygon fill="#FFF" fill-opacity=".2" points="87.253 88.006 108.315 78.214 108.315 88.006"/>
        </g>
      </g>
    </g>
  </g>
</svg>
