<svg xmlns="http://www.w3.org/2000/svg" xmlns:xlink="http://www.w3.org/1999/xlink" width="578" height="543" viewBox="0 0 578 543">
  <defs>
    <path id="voty_screen_modul_1_g1-a" d="M49.7882616,30.6740284 C55.675604,30.6267595 61.0075368,34.1459296 63.2835347,39.5771271 C65.5595326,45.0083246 64.3234506,51.2761817 60.1614233,55.4405725 C55.9970326,59.6049632 49.7291754,60.8386817 44.2979779,58.5626838 C38.864417,56.2890494 35.3476103,50.9571166 35.3925158,45.0674107 C35.4563288,37.1427784 41.8636292,30.7354779 49.7882616,30.6740284 Z"/>
    <path id="voty_screen_modul_1_g1-b" d="M107.3651,30.6740284 C113.252442,30.6267595 118.586738,34.1459296 120.860373,39.5771271 C123.136371,45.0083246 121.900289,51.2761817 117.738262,55.4405725 C113.573871,59.6049632 107.306014,60.8386817 101.874816,58.5626838 C96.4412553,56.2890494 92.9244485,50.9571166 92.969354,45.0674107 C93.033167,37.1427784 99.4404674,30.7354779 107.3651,30.6740284 Z"/>
    <path id="voty_screen_modul_1_g1-c" d="M164.941702,30.6740284 C170.829044,30.6267595 176.16334,34.1459296 178.436975,39.5771271 C180.712973,45.0083246 179.476891,51.2761817 175.314863,55.4405725 C171.150473,59.6049632 164.882616,60.8386817 159.451418,58.5626838 C154.020221,56.2890494 150.50105,50.9571166 150.545956,45.0674107 C150.609769,37.1427784 157.017069,30.7354779 164.941702,30.6740284 Z"/>
    <linearGradient id="voty_screen_modul_1_g1-d" x1="50%" x2="50%" y1="0%" y2="100%">
      <stop offset="0%" stop-color="#0F97E4"/>
      <stop offset="100%" stop-color="#1F6CBB"/>
    </linearGradient>
  </defs>
  <g fill="none" fill-rule="evenodd">
    <g transform="translate(79 122.5)">
      <path fill="#F5FCFF" stroke="#DDE3E9" stroke-width="11.029" d="M427.783613,81.144958 L427.783613,334.033613 C427.783613,343.823325 423.815549,352.686245 417.400057,359.101737 C410.984564,365.51723 402.121644,369.485294 392.331933,369.485294 L392.331933,369.485294 L40.9663866,369.485294 C31.1766753,369.485294 22.3137551,365.51723 15.8982627,359.101737 C9.4827704,352.686245 5.51470588,343.823325 5.51470588,334.033613 L5.51470588,334.033613 L5.51470588,81.144958 L427.783613,81.144958 Z"/>
      <path fill="#C5CFD6" stroke="#C5CFD6" stroke-width="11.029" d="M427.783613,5.51470588 L427.783613,45.6932773 C427.783613,55.4829886 423.815549,64.3459088 417.400057,70.7614011 C410.984564,77.1768935 402.121644,81.144958 392.331933,81.144958 L392.331933,81.144958 L40.9663866,81.144958 C31.1766753,81.144958 22.3137551,77.1768935 15.8982627,70.7614011 C9.4827704,64.3459088 5.51470588,55.4829886 5.51470588,45.6932773 L5.51470588,45.6932773 L5.51470588,5.51470588 L427.783613,5.51470588 Z" transform="rotate(-180 216.65 43.33)"/>
      <use fill="#D8D8D8" xlink:href="#voty_screen_modul_1_g1-a"/>
      <use fill="#98AAB2" xlink:href="#voty_screen_modul_1_g1-a"/>
      <use fill="#D8D8D8" xlink:href="#voty_screen_modul_1_g1-b"/>
      <use fill="#98AAB2" xlink:href="#voty_screen_modul_1_g1-b"/>
      <use fill="#D8D8D8" xlink:href="#voty_screen_modul_1_g1-c"/>
      <use fill="#98AAB2" xlink:href="#voty_screen_modul_1_g1-c"/>
      <g stroke="#DDE3E9" stroke-linecap="round" stroke-linejoin="round" transform="translate(58 109)">
        <g transform="translate(102.19)">
          <line x1="146.895" x2="146.895" y1="91.662" y2="49.357" stroke-width="11.752"/>
          <line x1="69.334" x2="69.334" y1="91.662" y2="49.357" stroke-width="11.752"/>
          <polygon stroke-width="11.752" points="108.115 70.51 42.306 108.115 173.924 108.115"/>
          <line x1="58.758" x2="159.822" y1="50.532" y2="50.532" stroke-width="14.102"/>
          <path stroke-width="11.752" d="M116.131451,15.5601826 L100.737307,15.5601826 L100.737307,7.83425546 C100.737307,3.5844507 104.200447,0.119225292 108.434379,0.119225292 C112.668312,0.119225292 116.131451,3.5844507 116.131451,7.83425546 L116.131451,15.5601826 Z"/>
          <polyline stroke-width="11.752" points="39.194 124.354 .731 124.354 .731 227.232 216.14 227.232 216.14 124.354 177.677 124.354"/>
          <path stroke-width="11.752" d="M78.3474037 227.230971L78.3474037 204.750593C78.3474037 198.190638 73.3426784 193.167151 66.8072237 193.167151 60.2609128 193.167151 55.2670437 198.190638 55.2670437 204.750593L55.2670437 227.230971M121.772352 227.230971L121.772352 204.750593C121.772352 198.190638 116.767627 193.167151 110.232172 193.167151 103.696717 193.167151 98.691992 198.190638 98.691992 204.750593L98.691992 227.230971M165.1973 227.230971L165.1973 204.750593C165.1973 198.190638 160.192575 193.167151 153.65712 193.167151 147.121666 193.167151 142.11694 198.190638 142.11694 204.750593L142.11694 227.230971"/>
          <line x1="24.49" x2="24.49" y1="142.977" y2="150.692" stroke-width="11.752"/>
          <line x1="195.285" x2="195.285" y1="142.977" y2="150.692" stroke-width="11.752"/>
          <line x1="25.174" x2="191.687" y1="170.688" y2="170.688" stroke-width="11.752"/>
          <line x1="54.154" x2="54.154" y1="123.668" y2="162.962" stroke-width="11.752"/>
          <line x1="75.867" x2="75.867" y1="123.668" y2="162.962" stroke-width="11.752"/>
          <line x1="97.579" x2="97.579" y1="123.668" y2="162.962" stroke-width="11.752"/>
          <line x1="162.717" x2="162.717" y1="123.668" y2="162.962" stroke-width="11.752"/>
          <line x1="141.004" x2="141.004" y1="123.668" y2="162.962" stroke-width="11.752"/>
          <line x1="119.292" x2="119.292" y1="123.668" y2="162.962" stroke-width="11.752"/>
          <path stroke-width="14.102" d="M68.1642534,47.9547413 C73.6575093,27.795411 89.6161778,13.2153117 108.430037,13.2153117 C127.265608,13.2153117 143.224277,27.795411 148.706676,47.9547413"/>
        </g>
        <path stroke-width="11.752" d="M57.2570703,19.119613 C57.2570703,25.3926154 52.1709792,30.4787066 45.8956265,30.4787066 L11.9288109,30.4787066 C8.8193384,30.636178 5.78037546,29.5080247 3.52641918,27.3598328 C1.27011259,25.2116408 -0.00376051099,22.2337862 0.000927164586,19.119613 L0.000927164586,14.3484647 C-0.00376051099,11.2342916 1.27011259,8.25408659 3.52641918,6.10589469 C5.78037546,3.96005311 8.8193384,2.83189981 11.9288109,2.98702089 L45.3291995,2.98702089 C51.6022019,2.98702089 56.688293,8.073112 56.688293,14.3484647 L57.2570703,19.119613 Z"/>
        <line x2="57.256" y1="60.017" y2="60.017" stroke-width="11.752"/>
        <line x2="57.256" y1="88.759" y2="88.759" stroke-width="11.752"/>
        <line x2="57.256" y1="117.388" y2="117.388" stroke-width="11.752"/>
        <line x2="57.256" y1="145.903" y2="145.903" stroke-width="11.752"/>
        <line x2="57.256" y1="174.531" y2="174.531" stroke-width="11.752"/>
        <line x2="35.786" y1="203.161" y2="203.161" stroke-width="11.752"/>
      </g>
    </g>
    <g opacity=".5" transform="translate(59)">
      <path fill="#69A1AC" d="M178.22298,111.444518 C182.425309,105.452509 190.223629,90.2347729 196.138329,88.0936482 C199.947942,86.7145659 198.837195,100.980115 198.884241,103.700243 C199.067454,114.223987 198.04293,124.681002 196.777726,135.11639 C194.498335,153.936569 187.044926,170.697369 176.822023,186.715278 C171.561534,194.957467 165.391397,203.299596 156.84547,208.442327 C152.911771,210.810658 148.178543,211.207195 144.293769,213.247706 C139.769382,215.623126 142.233354,213.702848 140.194367,218.417487 C137.362802,224.963133 136.457106,233.407714 135.146985,240.392151 C129.131553,272.454512 114.568305,441.944513 117.093014,474.558062 C117.317249,477.448784 113.286509,478.140055 113.085292,474.611088 C112.015789,455.899518 121.270437,326.322179 125.939564,283.946664 C130.608691,241.571148 135.333634,204.134499 140.071325,189.473898 C145.818851,171.687472 156.199212,150.297922 164.840137,133.71131 C168.853782,126.005544 173.228734,118.565238 178.22298,111.444518 Z"/>
      <path fill="#C1DEE2" d="M209.414132,319.277765 C220.349167,311.249697 232.185522,326.401056 222.290441,334.430358 C216.820206,338.868469 211.101395,337.289712 207.88186,333.591199 C205.791868,336.13879 203.835706,338.802543 201.956089,341.052489 C196.229376,347.9085 190.816767,354.92815 185.643881,362.111477 C174.898009,377.034662 165.688992,392.800688 156.060308,408.278421 C146.558057,423.5541 137.131786,438.908021 128.519073,454.570722 C121.222883,467.840829 111.497988,483.452044 109,498 C112.790111,467.146303 127.171863,437.490438 144.298022,410.29054 C161.284824,383.314089 180.779154,353.852808 207.081026,332.563583 C204.404139,328.627042 204.329828,323.00793 209.414132,319.277765 Z"/>
      <path fill="#69A1AC" d="M1.9131966,244.030768 C8.03244063,245.227492 18.0312164,259.070175 23.0752982,264.344345 C29.0698505,270.611956 34.5083971,277.292338 39.6348672,284.291716 C50.6711078,299.357587 60.5410853,315.375735 68.9339235,332.079859 C82.6164473,359.310923 93.5779281,387.264554 101.533144,416.917658 C106.40282,435.069395 109.555733,453.882964 111.42432,472.565152 C111.77721,476.088501 115.4712,503.252852 110.148387,503.985007 C105.361077,504.644266 106.839698,483.358557 106.608745,480.463176 C103.998072,447.797866 96.1772343,416.014794 85.2985211,385.226103 C82.9289815,378.519078 80.7275953,370.304171 76.9381423,364.268497 C74.2092052,359.921096 76.9185722,361.437175 72.1228242,359.791894 C68.0049102,358.378312 63.3131333,358.72373 59.0962962,356.993389 C49.9356343,353.236662 42.6005721,345.943735 36.1708879,338.607909 C23.6757579,324.351374 13.774003,308.928035 8.61263648,290.66039 C5.74946717,280.531578 3.11836073,270.343849 1.65825821,259.901833 C1.28055511,257.202878 -2.02816228,243.259967 1.9131966,244.030768 Z"/>
      <path fill="#89C5CC" d="M26.061363,13.7160319 C49.111288,53.6904115 68.0527721,97.6012194 80.2834249,142.076227 C87.6937407,169.023152 92.875997,196.674657 98.0249813,224.126418 C105.997255,266.632047 113.538111,309.134396 115.683127,352.395051 C117.841152,395.906414 122.108499,446.091658 107.860834,488 C114.977614,445.451647 108.201957,400.162237 107.002263,357.34982 C106.428958,336.911865 104.767627,316.673726 102.588271,296.3552 C100.473423,276.645138 97.0183596,257.028931 93.8009172,237.47379 C92.2336415,227.950082 90.5876488,218.440705 88.9117997,208.936528 C88.4115013,206.100946 88.2001646,197.686783 86.4014385,195.749671 C84.5910631,193.799805 75.3542884,193.004911 72.454369,191.574216 C66.6149274,188.69262 61.1221445,184.599523 56.2608889,180.274642 C46.9417982,171.983953 38.8346584,161.151161 32.435855,150.472492 C17.6306837,125.76373 11.7115834,95.6100441 12.0107586,66.9941546 C12.0682413,61.4382419 21.003398,1.60995132 17.4148953,0.786066265 C17.6309536,0.533029377 17.8353283,0.27176118 18.0280364,0 C20.7448404,4.54878452 23.4108122,9.12839556 26.061363,13.7160319 Z"/>
      <path fill="#89C5CC" d="M274.846162,157.887288 C275.201814,157.374304 277.516546,153.806661 276.35092,154.034666 C278.724178,153.570439 273.086653,157.969398 279,155.270217 C276.192302,157.921907 277.812715,161.366495 277.85019,164.93538 C277.91133,170.729664 276.941861,176.476433 275.850557,182.146394 C274.126127,191.108872 271.55719,199.823019 267.828427,208.1592 C259.70147,226.325634 245.90148,243.814146 229.518328,255.171668 C221.430419,260.779333 213.503908,262.688536 204.279644,265.270093 C198.453207,266.901031 197.991162,269.91496 194.898475,275.568863 C188.459734,287.344734 182.135661,299.078246 176.457263,311.251437 C169.676879,325.787507 163.094762,340.339599 156.885915,355.131559 C135.969422,404.957486 118.945337,456.577892 110.004808,510 C109.785907,478.518515 117.068634,446.095278 126.255091,416.088186 C132.946871,394.2257 141.658313,373.150925 150.949917,352.289498 C153.201461,347.235572 156.613471,340.734509 157.569628,335.154756 C158.23913,331.245304 156.192265,327.485558 155.255097,323.367253 C151.601499,307.329812 151.862999,289.362708 155.071402,273.239515 C158.608912,255.460636 168.839228,247.208854 186.145128,244.690591 C192.474243,243.769436 200.51871,244.107045 206.322196,241.408429 C212.645007,238.469723 215.253262,228.810237 218.848644,222.609606 C228.505717,205.953401 239.979718,189.979083 253.15504,175.944848 C256.803162,172.05859 260.726377,168.473254 264.88847,165.150086 C267.513083,163.053353 273.057504,160.47018 274.846162,157.887288 Z"/>
      <path fill="#C1DEE2" d="M80.7914533,476 L142.208547,476 C144.96997,476 147.208547,478.238576 147.208547,481 C147.208547,481.244141 147.190665,481.487955 147.155046,481.729484 L142.408062,513.917935 C140.96096,523.730477 132.540739,531 122.622066,531 L100.377934,531 C90.4592609,531 82.03904,523.730477 80.5919379,513.917935 L75.8449542,481.729484 C75.4420714,478.997608 77.3300935,476.456384 80.0619696,476.053501 C80.3034985,476.017881 80.547312,476 80.7914533,476 Z"/>
    </g>
    <g transform="translate(-47 68)">
      <g transform="translate(90.2 80.369)">
        <path fill="#D4A181" d="M41.9576755,10.0559027 C48.3319673,21.9472785 47.5745357,52.1107395 39.3363315,54.2360601 C36.0510402,55.083611 29.0524982,53.0075336 21.9295151,48.7106461 L26.4,80.3685446 L0,80.3685446 L9.08789258,37.9708094 C4.01952614,32.0162357 0.589221221,24.71892 1.16245397,16.5421077 C2.81416324,-7.01850857 35.5833837,-1.83547318 41.9576755,10.0559027 Z" transform="translate(59.4 34.13)"/>
        <path fill="#191847" d="M66.4599522,77.4042885 C63.1464923,62.6505379 53.706986,52.5934005 55.148625,45.999105 C56.1097177,41.6029079 58.6713179,38.8690673 62.8334255,37.7975831 C64.9860282,29.0818542 71.9286134,25.374715 83.6611812,26.6761655 C101.260033,28.6283412 112.001392,35.9431898 107.36273,52.0390487 C103.098709,52.0390487 97.9511234,50.495652 90.833083,53.1399876 C88.5745574,53.9790247 86.9591938,56.5809521 85.986992,60.94577 L82.7703776,60.94577 C79.6485179,55.7659245 76.5703442,53.8624726 73.5358566,55.2354144 C70.5013689,56.6083561 69.8115805,59.9432372 71.4664914,65.2400575 L69.8819836,77.4042885 L66.4599522,77.4042885 Z"/>
      </g>
      <g transform="translate(0 286.244)">
        <g transform="translate(49.5 46.24)">
          <polygon fill="#C5CFD6" points="52.385 0 137.365 0 148.5 136.516 22 136.516"/>
          <polygon fill="#000" fill-opacity=".1" points="30.385 0 56.521 0 72.164 136.516 0 136.516"/>
        </g>
        <path fill="#D4A181" d="M283.749358,22.8520114 L284.066079,22.666904 C293.159405,17.5682705 308.010317,24.4922526 308.000005,32.1897108 C307.968772,55.4905283 286.72235,165.307197 285.613046,172.249289 C284.503742,179.191381 272.620316,181.02505 271.928305,172.27204 C271.289663,164.19408 270.333254,144.582093 270.041887,125.178749 L270.014158,123.172733 C269.845652,109.810669 270.009575,96.7404317 270.828305,87.8138119 C271.673245,78.601417 272.583205,69.8278678 273.479036,62.000725 C262.331569,82.1502594 245.088951,111.001662 221.752441,148.553854 L209.08423,142.76115 C219.032182,109.957489 227.189353,86.7989769 233.555744,73.2856143 C244.45655,50.1474566 254.677837,30.3327093 258.979647,23.3531253 C265.746663,12.373804 277.525933,16.2052335 283.749358,22.8520114 Z"/>
        <path fill="#0064A9" d="M229.716898,135.778495 L235.316133,24.0346796 C239.368524,4.71345049 273.714529,13.6903746 273.703247,24.0452098 C273.677626,47.5538913 259.587521,128.759712 259.579888,135.763733 L229.716898,135.778495 Z" transform="rotate(20 251.71 74.223)"/>
        <path fill="#E4E4E4" d="M2.94606872,27.9656377 C1.71535624,31.2537429 1.1,33.7139917 1.1,35.3463841 C1.1,37.3316921 1.43045563,40.2287503 2.09136688,44.0375587 C4.39249929,44.0375587 25.0731638,44.0375587 64.1333603,44.0375587 C65.7456118,38.7029669 64.8149267,35.8229925 61.3413051,35.3976354 C57.8676835,34.9722782 54.9820871,34.5882148 52.6845158,34.2454451 L23.8484847,21.3792254 C23.2936912,21.1316845 22.6432707,21.380762 22.3957298,21.9355556 C22.3914027,21.9452535 22.3872163,21.9550135 22.3831719,21.9648327 L20.5295344,26.4651361 L20.5295344,26.4651361 C17.3138693,27.9667696 14.7008076,28.7175864 12.6903493,28.7175864 C11.0570714,28.7175864 8.8015662,28.0574644 5.92383379,26.7372203 L5.92382694,26.7372352 C4.819484,26.2305855 3.51351644,26.7151116 3.00686675,27.8194545 C2.98485339,27.867437 2.96457425,27.9161963 2.94606872,27.9656377 Z" transform="rotate(30 -96.845 463.958)"/>
        <path fill="#E4E4E4" d="M2.94606872,27.9656377 C1.71535624,31.2537429 1.1,33.7139917 1.1,35.3463841 C1.1,37.3316921 1.43045563,40.2287503 2.09136688,44.0375587 C4.39249929,44.0375587 25.0731638,44.0375587 64.1333603,44.0375587 C65.7456118,38.7029669 64.8149267,35.8229925 61.3413051,35.3976354 C57.8676835,34.9722782 54.9820871,34.5882148 52.6845158,34.2454451 L23.8484847,21.3792254 C23.2936912,21.1316845 22.6432707,21.380762 22.3957298,21.9355556 C22.3914027,21.9452535 22.3872163,21.9550135 22.3831719,21.9648327 L20.5295344,26.4651361 L20.5295344,26.4651361 C17.3138693,27.9667696 14.7008076,28.7175864 12.6903493,28.7175864 C11.0570714,28.7175864 8.8015662,28.0574644 5.92383379,26.7372203 L5.92382694,26.7372352 C4.819484,26.2305855 3.51351644,26.7151116 3.00686675,27.8194545 C2.98485339,27.867437 2.96457425,27.9161963 2.94606872,27.9656377 Z" transform="translate(266.2 138.718)"/>
        <path fill="#206DBB" d="M311.04741,40.11054 C311.04741,69.3591549 297.16896,137.584666 297.160177,144.024958 L267.3,144.047914 C271.670605,83.1709639 273.220389,52.4045768 271.949351,51.7487531 C270.042795,50.7650175 193.793421,59.3681675 170.924994,59.3681675 C137.948608,59.3681675 124.306937,38.5553198 123.2,-4.85003795e-13 L188.524994,-4.85003795e-13 C201.825749,1.42446853 271.203708,15.4299423 296.969306,20.2445203 C308,22.3057235 311.04741,32.0532996 311.04741,40.11054 Z"/>
      </g>
      <g transform="translate(24.2 170.646)">
        <path fill="#D4A181" d="M163.930021,109.136944 L184.171942,147.709742 C191.599714,154.195119 197.3453,160.557545 201.408701,166.797019 C202.161839,168.695067 202.580114,171.998571 197.168931,168.821467 C196.972161,168.705936 196.774831,168.59051 196.57716,168.475406 L195.983341,168.131286 C190.930902,165.218243 185.798796,162.658137 184.212226,164.086653 C182.50122,165.62721 184.784895,169.583159 181.954872,171.40724 C180.06819,172.623294 177.238808,165.883597 173.466727,151.18815 L148.553104,122.982023 L163.930021,109.136944 Z M206.917541,76.1498843 L242.005639,101.937837 C251.522253,104.507955 259.473077,107.705616 265.858111,111.53082 C267.366366,112.906338 269.189235,115.691992 262.934134,115.210561 L262.59264,115.184569 L262.59264,115.184569 L261.908471,115.134413 C255.975988,114.711625 250.030894,114.620766 249.214889,116.639632 C248.351806,118.774972 252.137055,121.328604 250.392389,124.209736 C249.229279,126.130491 243.734279,121.314269 233.907388,109.761072 L199.160967,95.3403093 L206.917541,76.1498843 Z"/>
        <path fill="#256D41" d="M139.671541,17.2215272 C167.357459,46.7199353 201.121407,65.9722967 247.168133,83.0524545 L236.947731,103.511 C189.440895,99.0184266 164.042634,95.4330584 144.1261,65.8908182 C139.127453,58.4763148 130.186965,32.966163 124.830224,19.7185503 L139.671541,17.2215272 Z" transform="rotate(15 186 60.366)"/>
        <path fill="#F2F2F2" d="M99,125.507042 L183.7,125.507042 C164.514032,66.9430134 154.713111,26.7483048 154.297237,4.92291628 C154.276036,3.81023688 152.222816,1.84953863 151.314427,2.10630952 C144.671476,3.98404736 137.562993,3.28194418 129.98898,0 C109.909233,32.3218141 102.965309,72.1165115 99,125.507042 Z"/>
        <path fill="#0A6B54" d="M137.19944,-2.13344778e-13 C144.820302,22.965677 151.005664,45.905681 154.916527,66.762483 C160.76729,87.546539 169.573166,112.358151 186.31791,137.393569 L166.011488,147.891097 C162.281415,144.616786 158.620243,141.316056 155.055439,137.989875 C151.155321,147.260351 144.542897,152.596709 134.64822,152.596709 L134.64822,152.596709 L89.4862395,152.596709 C82.3134746,104.351341 101.164904,37.4579237 118.641551,3.71742422 C119.308931,2.42897617 120.729851,-2.13344778e-13 124.076701,-2.13344778e-13 L124.076701,-2.13344778e-13 Z"/>
        <polygon fill="#49821B" points="108.893 125.514 137.508 125.502 137.507 129.904 108.892 129.916" transform="rotate(-52 123.2 127.709)"/>
      </g>
    </g>
    <g transform="matrix(-1 0 0 1 622 177)">
      <g transform="translate(82)">
        <path fill="#D4A181" d="M38.1433414,9.13393292 C43.9381521,19.9350547 43.249578,47.3329958 35.7603014,49.2634576 C32.773664,50.0333035 26.4113241,48.1475566 19.935865,44.2446031 L24,73 L0,73 L8.26160177,34.4893378 C3.65406109,29.0807313 0.535660132,22.452516 1.05677633,15.0254539 C2.55833022,-6.37502057 32.3485306,-1.66718886 38.1433414,9.13393292 Z" transform="translate(54 31)"/>
        <path fill="#EDBA09" d="M82.6634951,28.3699763 C79.3840534,27.3699763 74.6234565,27.0308443 72.6208149,27.2602642 C73.7600087,24.5308439 74.2120576,21.4899413 73.8435286,18.5290858 C73.4853344,15.6520661 72.1997702,13.2023672 71.0108165,10.6353788 C70.4627695,9.45216518 69.8416903,8.27540043 68.9156982,7.37037661 C67.972405,6.44834378 66.7783223,5.83972796 65.5262119,5.54936581 C64.2448581,5.2521517 62.9050174,5.27689939 61.6216732,5.54662502 C61.0539519,5.66592985 60.5445644,5.92549845 59.9877902,6.0697928 C59.4176191,6.21763405 59.141031,5.86076752 58.7271824,5.50212755 C57.7298424,4.63797369 56.2677456,4.21137833 55.0059895,4.0587004 C53.5903607,3.88748186 52.1214506,4.10102137 50.7713517,4.56639079 C49.457233,5.01942668 48.1947879,5.75508602 47.2446815,6.82681415 C46.8216464,7.30387223 46.4376536,7.8468704 46.188089,8.44637714 C46.0857368,8.69240304 46.0688185,8.83814839 45.8233112,8.9282719 C45.5962532,9.01170466 45.3306889,9.014123 45.0963584,9.0935252 C42.8305256,9.86094542 40.8932607,11.6116631 39.8384289,13.8595111 C39.2230147,15.1708968 38.9314987,17.4797836 39.0113441,20.0676663 C39.0911894,22.655549 41.4279109,29.4080735 43.613439,31.8710732 C45.5642539,34.0695065 48.4317213,35.5202692 51.1990566,36.1553256 C49.36223,38.2548487 48.1395162,40.8784262 47.2353419,43.5466625 C46.2532361,46.4450442 45.6454006,49.4566043 45.4209456,52.525076 C45.2077438,55.4404668 45.187993,58.5235291 45.8714634,61.3766879 C46.5108389,64.0448435 47.8781623,66.233684 50.1607604,67.6222954 C51.2063292,68.2583997 52.331284,68.7362639 53.4627459,69.1730163 C54.5778253,69.6034004 55.6962731,70.021854 56.8643276,70.2633656 C59.0749653,70.7202709 61.6221325,70.641836 63.3249903,68.8822511 C63.9387204,68.2479202 64.6136933,67.450835 65.0614552,66.675918 C65.2224473,66.3972445 65.3195173,66.2149822 65.1239229,65.9425963 C64.8895924,65.6163621 64.5105756,65.3663863 64.2095669,65.1111707 C62.493006,63.6560549 61.4304424,61.7134822 61.1625814,59.4049338 C60.8908162,57.0626093 61.5200101,54.03928 63.7973259,53.0170472 C66.6084499,51.7551569 69.7042766,53.2035819 72.2028323,54.5537417 C73.264707,50.805958 75.4450295,47.4314855 78.8633764,45.7123675 C82.6451998,43.8105035 86.9847925,43.5879355 90.871188,41.9561196 C91.8839153,41.5308947 92.9153983,41.0481938 93.6610301,40.1817828 C93.9726032,39.8196765 94.3381465,39.3499541 94.4625461,38.871042 C94.625988,38.2419509 94.220254,37.7145107 93.9068437,37.2240711 C92.2450186,34.623629 85.9429367,29.3699763 82.6634951,28.3699763 Z"/>
      </g>
      <g transform="translate(0 187)">
        <ellipse cx="116" cy="73.5" fill="#C5CFD6" rx="77" ry="73.5" transform="translate(10 27)"/>
        <path fill="#D4A181" d="M259.090229,37.5018287 C264.168086,50.6507477 273.032873,93.8526085 283.684593,159.107411 L271.509253,162.659849 C258.696468,134.301545 249.430392,109.608281 245.711023,96.5800564 C239.34256,74.2725728 234.497817,54.6432898 233.273327,47.3127766 C230.353374,29.8322277 255.735275,28.8143004 259.090229,37.5018287 Z M220.678573,74.1595557 C212.894501,75.2798518 204.427684,76.4078323 195.866506,77.49659 L193.418396,77.8065559 C193.010119,77.8580254 192.601755,77.909396 192.193368,77.9606623 L189.743273,78.2669705 C159.534511,82.0283592 129.89359,85.1640304 126.565792,85.6215241 C120.26302,86.4880065 115.500245,76.5838567 122.888346,73.6635414 C129.471548,71.0613813 145.278407,65.3560763 161.40084,60.1167633 L163.129045,59.5573541 C163.417145,59.4644706 163.705245,59.3717763 163.993293,59.2792917 L165.720555,58.7270609 C176.938467,55.1560209 187.923673,51.9655533 195.66723,50.3612296 C201.37284,49.1791314 206.902884,48.0808288 212.102095,47.0882686 C227.555991,44.1380286 235.56256,72.0174283 220.678573,74.1595557 Z"/>
        <path fill="#7BA459" d="M165.562186,0 C227.079876,15.6757222 258.515366,25.7216696 259.868655,30.1378423 C259.883714,30.1869846 259.897479,30.2361936 259.909948,30.2854692 C259.94163,30.3238462 259.971064,30.3634124 260,30.4032083 C272.191506,47.1700257 279.49295,129.026966 281.889416,135.156136 L258.52773,138.641377 C249.591265,105.503295 221,82.4181007 221.759487,42.7290106 C221.55445,41.5650096 221.502612,40.4611405 221.58707,39.4168872 L158,7.04671741 L158,0 L165.562186,0 Z"/>
        <path fill="#84B35E" d="M168.941763,-4.97379915e-14 C174.200333,1.51058766 192.480145,8.89160388 211.521413,16.8119804 L213.459961,17.6190941 C226.071374,22.8747191 238.833914,28.2870523 248.206622,32.316337 C264.112045,39.1540062 259.098892,63.8027037 250.091931,70.2187883 C250.042683,70.6119747 249.880506,70.8801196 249.591265,71 C201.136867,91.0826527 162.804991,80.5453361 150,83.9121674 L144.07712,65.2284164 L163.282146,58.6402703 C157.464468,57.475702 152.107008,56.4363434 147.522705,55.6322592 C117.90929,50.4380832 109.273766,34.5862504 114.379549,-4.97379915e-14 L168.941763,-4.97379915e-14 Z"/>
        <path fill="#E4E4E4" d="M2.67813181,25.4019242 C1.55937727,28.3884109 1,30.6229931 1,32.1056708 C1,33.908957 1.3004142,36.5404001 1.90124261,40 C3.99318117,40 22.7937852,40 58.3030548,40 C59.768738,35.1545073 58.9226607,32.5385816 55.7648228,32.1522232 C52.606985,31.7658647 49.9837155,31.4170139 47.8950143,31.1056708 L21.6799926,19.4188835 C21.1755635,19.1940064 20.584344,19.4206282 20.359467,19.9250573 C20.35562,19.9336867 20.3518954,19.9423702 20.3482945,19.9511052 L18.6632131,24.038695 L18.6632131,24.038695 C15.7398812,25.4026522 13.3643706,26.0846307 11.5366811,26.0846307 C10.0517269,26.0846307 8.00099246,25.4849054 5.38447792,24.2854549 L5.38448339,24.285443 C4.38038273,23.8251478 3.19325534,24.2659892 2.73296014,25.2700899 C2.71312074,25.3133681 2.69483298,25.3573409 2.67813181,25.4019242 Z" transform="rotate(64 28.552 147.452)"/>
        <path fill="#E4E4E4" d="M2.67813181,25.4019242 C1.55937727,28.3884109 1,30.6229931 1,32.1056708 C1,33.908957 1.3004142,36.5404001 1.90124261,40 C3.99318117,40 22.7937852,40 58.3030548,40 C59.768738,35.1545073 58.9226607,32.5385816 55.7648228,32.1522232 C52.606985,31.7658647 49.9837155,31.4170139 47.8950143,31.1056708 L21.6799926,19.4188835 C21.1755635,19.1940064 20.584344,19.4206282 20.359467,19.9250573 C20.35562,19.9336867 20.3518954,19.9423702 20.3482945,19.9511052 L18.6632131,24.038695 L18.6632131,24.038695 C15.7398812,25.4026522 13.3643706,26.0846307 11.5366811,26.0846307 C10.0517269,26.0846307 8.00099246,25.4849054 5.38447792,24.2854549 L5.38448339,24.285443 C4.38038273,23.8251478 3.19325534,24.2659892 2.73296014,25.2700899 C2.71312074,25.3133681 2.69483298,25.3573409 2.67813181,25.4019242 Z" transform="translate(263 132)"/>
      </g>
      <g transform="translate(22 82)">
        <path fill="#D4A181" d="M68.3079281,93.0198914 L89.2053198,93.1020711 C78.4956844,127.674615 71.8763087,148.777448 69.3471926,156.410568 L69.088982,157.185464 C68.7122581,158.308737 68.4519068,159.048781 68.3079281,159.405597 C65.9939846,165.140133 70.8906002,173.873732 72.9845874,178.567103 C66.1645409,181.61887 66.8912241,170.316929 58.2879189,174.319492 C56.5428749,175.131349 54.8906295,176.089688 53.276551,177.027882 L52.7398634,177.339639 C52.5613888,177.443156 52.3833105,177.546197 52.2055535,177.648531 L51.6731714,177.953189 C46.6232753,180.822978 41.7734982,182.933781 35.3890352,178.994371 C34.2736052,178.306117 33.0512757,175.714714 36.0045784,173.68967 C38.2342008,172.160845 40.7618228,170.284476 43.2419631,168.330709 L43.9842353,167.742526 C49.4120517,163.416125 54.4428443,158.845865 55.3979297,156.908251 C57.3515741,152.944826 61.6549068,131.648706 68.3079281,93.0198914 L68.3079281,93.0198914 Z M194.04441,89.1225115 L222.372314,116.757535 C230.61469,120.273345 237.368143,124.155511 242.632673,128.40403 C243.816587,129.832102 245.10547,132.568362 239.535214,131.343925 C238.999612,131.22619 238.460831,131.110185 237.923503,130.998275 L237.279704,130.866101 C232.460889,129.891811 227.909884,129.325933 227.003896,130.893567 C225.956977,132.705055 229.041811,135.480899 227.106974,137.851671 C225.817082,139.432186 221.479076,134.404878 214.092956,122.769747 L184.635682,105.402467 L194.04441,89.1225115 Z"/>
        <path fill="#0968AB" d="M122.01899,9.23199981 L130.503942,7.00082913 C148.576175,42.7520052 177.414525,74.1501034 217.01899,101.195124 L192.061793,137.56505 C151.33882,97.6857553 124.670571,55.1985909 122.01899,9.23199981 Z" transform="rotate(5 169.519 72.283)"/>
        <path fill="#DDE3E9" d="M90,114 L167,114 C149.16087,70.6251468 140.241304,33.7787236 140.241304,3.4607303 L117.014208,0 C98.7598929,29.3584068 93.6048263,65.5045499 90,114 Z"/>
        <path fill="url(#voty_screen_modul_1_g1-d)" d="M118.047752,-4.26325641e-14 C119.86198,0.0624731357 122.625282,0.175030894 126.337658,0.337673275 L126.337658,0.337673275 L131.950158,16.3768801 C132.543836,35.9324229 136.010826,75.3421183 142.351127,134.605966 L142.351127,134.605966 L91.8760675,134.60553 C92.008386,138.698782 92.2265651,142.830272 92.5306047,147 L92.5306047,147 L55,147 C60.6139164,83.6639633 81.1152373,34.6639633 116.503963,1.42108547e-14 L116.503963,1.42108547e-14 L116.522,0.017 L116.531583,-4.26325641e-14 Z"/>
        <path fill="#000" fill-opacity=".1" d="M106,135 L91.889057,134.999288 C91.2713571,116.643048 92.3783198,99.0548837 95.2099449,82.2347951 C96.6469231,107.748771 100.243477,125.3371 106,135 Z"/>
        <polygon fill="#FFF" fill-opacity=".2" points="103.111 104 128 92.429 128 104"/>
      </g>
    </g>
  </g>
</svg>
