<?xml version="1.0" encoding="UTF-8"?>
<svg width="502px" height="376px" viewBox="0 0 502 376" version="1.1" xmlns="http://www.w3.org/2000/svg" xmlns:xlink="http://www.w3.org/1999/xlink">
    <title>students_welcome</title>
    <g id="Page-1" stroke="none" stroke-width="1" fill="none" fill-rule="evenodd">
        <g id="students_welcome" transform="translate(6.000000, 5.000000)">
            <g id="Group" stroke-linecap="round" transform="translate(150.500000, 197.760000)" stroke="#FFFFFF" stroke-width="12.68">
                <path d="M63.9444061,70.1250948 C81.9089173,86.4928222 109.380864,86.4928222 127.345375,70.1250948" id="Path"></path>
                <line x1="76.625" y1="31.882" x2="76.625" y2="44.562" id="Path"></line>
                <line x1="114.665" y1="31.882" x2="114.665" y2="44.562" id="Path"></line>
                <path d="M171.726054,107.962793 L171.726054,12.8613395 C171.726054,5.85826178 166.048938,0.181145626 159.04586,0.181145626 L32.2439215,0.181145626 C25.2408438,0.181145626 19.5637276,5.85826178 19.5637276,12.8613395 L19.5637276,107.962793 L171.726054,107.962793 Z M189.655848,147.195313 C191.398515,151.117916 191.038467,155.65584 188.699042,159.254561 C186.359617,162.853282 182.358434,165.023666 178.066151,165.023666 L13.2236307,165.023666 C8.93134689,165.023666 4.93016384,162.853282 2.5907392,159.254561 C0.251314571,155.65584 -0.108733734,151.117916 1.63393355,147.195313 L19.5637276,107.962793 L171.726054,107.962793 L189.655848,147.195313 Z" id="Shape"></path>
                <line x1="82.965" y1="139.663" x2="108.325" y2="139.663" id="Path"></line>
            </g>
            <path d="M135.5,306.76 C124.166436,286.960629 103.196606,274.76 80.5,274.76 C57.8033944,274.76 36.833564,286.960629 25.5,306.76" id="Path" stroke="#FFFFFF" stroke-width="13.088" stroke-linecap="round"></path>
            <path d="M45.5000001,204.76 C63.6715293,223.342809 91.4996801,228.899767 115.5,218.738187" id="Path" stroke="#FFFFFF" stroke-width="10.906" stroke-linecap="round" transform="translate(80.500000, 214.260000) rotate(-23.000000) translate(-80.500000, -214.260000) "></path>
            <path d="M44.5,219.76 C44.5,240.74682 61.5131795,257.76 82.5,257.76 C103.48682,257.76 120.5,240.74682 120.5,219.76 C120.5,198.77318 103.48682,181.76 82.5,181.76 C61.5131795,181.76 44.5,198.77318 44.5,219.76 Z" id="Path" stroke="#FFFFFF" stroke-width="11.707" stroke-linecap="round" transform="translate(82.500000, 219.760000) rotate(-23.000000) translate(-82.500000, -219.760000) "></path>
            <path d="M133.5,128.694545 C133.5,134.685615 127.814016,139.542337 120.8,139.542337 L95.4,139.542337 L91.589606,164.76 L63.65,139.542337 L19.2,139.542337 C12.1859837,139.542337 6.5,134.685615 6.5,128.694545 L6.5,63.6077921 C6.5,57.6167219 12.1859837,52.76 19.2,52.76 L120.8,52.76 C127.814016,52.76 133.5,57.6167219 133.5,63.6077921 L133.5,128.694545 Z" id="Path" stroke="#FFFFFF" stroke-width="10.906" stroke-linecap="round" transform="translate(70.000000, 108.760000) rotate(-7.000000) translate(-70.000000, -108.760000) "></path>
            <path d="M483.49989,127.694538 C483.49989,133.685608 477.813906,138.54233 470.79989,138.54233 L445.39989,138.54233 L441.589496,163.759993 L413.64989,138.54233 L369.19989,138.54233 C362.185874,138.54233 356.49989,133.685608 356.49989,127.694538 L356.49989,62.6077854 C356.49989,56.6167152 362.185874,51.7599933 369.19989,51.7599933 L470.79989,51.7599933 C477.813906,51.7599933 483.49989,56.6167152 483.49989,62.6077854 L483.49989,127.694538 Z" id="Path" stroke="#FFFFFF" stroke-width="10.906" stroke-linecap="round" transform="translate(419.999890, 107.759993) scale(-1, 1) rotate(-7.000000) translate(-419.999890, -107.759993) "></path>
            <path d="M93.5,77.76 L68.8348686,110.245419 C67.7264021,111.704685 66.0309364,112.616586 64.1884119,112.744503 C62.3458873,112.87242 60.5379325,112.203743 59.2336765,110.91198 L46.5,98.335356" id="Path" stroke="#78C539" stroke-width="12.724" stroke-linecap="round" transform="translate(70.000000, 95.260000) rotate(-6.000000) translate(-70.000000, -95.260000) "></path>
            <g id="Group" transform="translate(411.043639, 188.260387) rotate(1.000000) translate(-411.043639, -188.260387) translate(356.543639, 74.760387)">
                <path d="M108.618911,226.790711 C97.4276441,207.474069 76.7210973,195.570904 54.3094556,195.570904 C31.8978139,195.570904 11.1912671,207.474069 3.27418093e-11,226.790711" id="Path" stroke="#FFFFFF" stroke-width="12.859"></path>
                <path d="M98.2123051,180.611404 C93.3609015,172.697768 90.9420327,163.544441 91.2529325,154.282429 L91.2529325,143.512411 C91.2529325,123.052433 74.5668375,106.464363 53.9859536,106.464363 C33.4016533,106.464363 16.7155583,123.052433 16.7155583,143.512411 L16.7155583,154.282429 C17.0264581,163.544441 14.6075893,172.697768 9.75618573,180.611404" id="Path" stroke="#FFFFFF" stroke-width="12.859" transform="translate(53.984245, 143.537884) rotate(-2.000000) translate(-53.984245, -143.537884) "></path>
                <path d="M16.8199261,149.393175 C31.0538741,149.369505 44.5842816,143.198323 53.8934467,132.482447 C63.2026118,143.198323 76.7330194,149.369505 90.9669673,149.393175" id="Path" stroke="#FFFFFF" stroke-width="10.716" transform="translate(53.893447, 140.937811) rotate(-2.000000) translate(-53.893447, -140.937811) "></path>
                <path d="M22.1786528,149.379151 C23.8493379,165.992593 37.9109373,178.64772 54.6992849,178.64772 C71.4876326,178.64772 85.5458363,165.992593 87.219917,149.379151" id="Path" stroke="#FFFFFF" stroke-width="11.707" transform="translate(54.699285, 164.013436) rotate(-2.000000) translate(-54.699285, -164.013436) "></path>
                <path d="M80.4377975,0.957802174 L42.7138643,38.6817354 M42.7138643,0.957802174 L80.4377975,38.6817354" id="Shape" stroke="#E02212" stroke-width="12.501"></path>
            </g>
            <path d="M211.95,156.0243 L239.9088,90.7917 C240.591804,89.1927077 240.427339,87.357748 239.470875,85.9056989 C238.51441,84.4536499 236.893451,83.5780825 235.1547,83.5743 L214.71,83.5743 C212.965378,83.5809068 211.335182,82.7068559 210.375152,81.2501156 C209.415123,79.7933753 209.254861,77.9505997 209.949,76.35 L241.62,3.9 C242.442691,2.01497819 244.303573,0.795 246.3603,0.795 L299.4903,0.795 C301.480026,0.795 303.293137,1.93713651 304.15401,3.73098968 C305.014883,5.52484285 304.771042,7.65340163 303.5268,9.2061 L275.5818,44.1408 C274.341051,45.6945689 274.100263,47.8218247 274.962322,49.6136144 C275.824382,51.405404 277.63682,52.544819 279.6252,52.545 L302.961,52.545 C305.055711,52.5440483 306.944402,53.8059639 307.745229,55.7415487 C308.546057,57.6771336 308.101055,59.9045894 306.618,61.3839 L211.95,156.0243 Z" id="Path" stroke="#FDB919" stroke-width="10.35"></path>
        </g>
    </g>
</svg>