<svg xmlns="http://www.w3.org/2000/svg" width="498" height="375" viewBox="0 0 498 375">
  <g fill="none" fill-rule="evenodd" stroke-linejoin="round" transform="translate(-19.5 -5.24)">
    <g stroke="#FFF" stroke-linecap="round" stroke-width="12.68" transform="translate(174 208)">
      <path d="M63.9444061,70.1250948 C81.9089173,86.4928222 109.380864,86.4928222 127.345375,70.1250948"/>
      <line x1="76.625" x2="76.625" y1="31.882" y2="44.562"/>
      <line x1="114.665" x2="114.665" y1="31.882" y2="44.562"/>
      <path d="M171.726054 107.962793L171.726054 12.8613395C171.726054 5.85826178 166.048938.181145626 159.04586.181145626L32.2439215.181145626C25.2408438.181145626 19.5637276 5.85826178 19.5637276 12.8613395L19.5637276 107.962793 171.726054 107.962793zM189.655848 147.195313C191.398515 151.117916 191.038467 155.65584 188.699042 159.254561 186.359617 162.853282 182.358434 165.023666 178.066151 165.023666L13.2236307 165.023666C8.93134689 165.023666 4.93016384 162.853282 2.5907392 159.254561.251314571 155.65584-.108733734 151.117916 1.63393355 147.195313L19.5637276 107.962793 171.726054 107.962793 189.655848 147.195313z"/>
      <line x1="82.965" x2="108.325" y1="139.663" y2="139.663"/>
    </g>
    <path stroke="#FFF" stroke-linecap="round" stroke-width="13.088" d="M159,317 C147.666436,297.200629 126.696606,285 104,285 C81.3033944,285 60.333564,297.200629 49,317"/>
    <path stroke="#FFF" stroke-linecap="round" stroke-width="10.906" d="M69,215 C87.1715292,233.582809 114.99968,239.139767 139,228.978187" transform="rotate(-23 104 224.5)"/>
    <path stroke="#FFF" stroke-linecap="round" stroke-width="11.707" d="M68,230 C68,250.98682 85.0131795,268 106,268 C126.98682,268 144,250.98682 144,230 C144,209.01318 126.98682,192 106,192 C85.0131795,192 68,209.01318 68,230 Z" transform="rotate(-23 106 230)"/>
    <path stroke="#FFF" stroke-linecap="round" stroke-width="10.906" d="M157,138.934545 C157,144.925615 151.314016,149.782337 144.3,149.782337 L118.9,149.782337 L115.089606,175 L87.15,149.782337 L42.7,149.782337 C35.6859837,149.782337 30,144.925615 30,138.934545 L30,73.8477921 C30,67.8567219 35.6859837,63 42.7,63 L144.3,63 C151.314016,63 157,67.8567219 157,73.8477921 L157,138.934545 Z" transform="rotate(-7 93.5 119)"/>
    <path stroke="#FFF" stroke-linecap="round" stroke-width="10.906" d="M507,137.934545 C507,143.925615 501.314016,148.782337 494.3,148.782337 L468.9,148.782337 L465.089606,174 L437.15,148.782337 L392.7,148.782337 C385.685984,148.782337 380,143.925615 380,137.934545 L380,72.8477921 C380,66.8567219 385.685984,62 392.7,62 L494.3,62 C501.314016,62 507,66.8567219 507,72.8477921 L507,137.934545 Z" transform="scale(-1 1) rotate(-7 0 7369.16)"/>
    <path stroke="#78C539" stroke-linecap="round" stroke-width="12.724" d="M117,88 L92.3348686,120.485419 C91.2264021,121.944685 89.5309364,122.856586 87.6884119,122.984503 C85.8458873,123.11242 84.0379325,122.443743 82.7336765,121.15198 L70,108.575356" transform="rotate(-6 93.5 105.5)"/>
    <g stroke-linecap="round" transform="rotate(1 -4625.518 21930.344)">
      <path stroke="#FFF" stroke-width="12.859" d="M108.618911,226.790711 C97.4276441,207.474069 76.7210973,195.570904 54.3094556,195.570904 C31.8978139,195.570904 11.1912671,207.474069 3.27418093e-11,226.790711"/>
      <path stroke="#FFF" stroke-width="12.859" d="M98.212309,180.611413 C93.3609054,172.697777 90.9420366,163.54445 91.2529364,154.282438 L91.2529364,143.51242 C91.2529364,123.052442 74.5668414,106.464372 53.9859575,106.464372 C33.4016572,106.464372 16.7155622,123.052442 16.7155622,143.51242 L16.7155622,154.282438 C17.026462,163.54445 14.6075932,172.697777 9.75618963,180.611413" transform="rotate(-2 53.984 143.538)"/>
      <path stroke="#FFF" stroke-width="10.716" d="M16.8199324,149.393191 C31.0538804,149.369521 44.5842879,143.198339 53.893453,132.482463 C63.2026181,143.198339 76.7330257,149.369521 90.9669736,149.393191" transform="rotate(-2 53.893 140.938)"/>
      <path stroke="#FFF" stroke-width="11.707" d="M22.178638,149.379126 C23.8493231,165.992568 37.9109225,178.647695 54.6992701,178.647695 C71.4876178,178.647695 85.5458215,165.992568 87.2199022,149.379126" transform="rotate(-2 54.7 164.013)"/>
      <path stroke="#E02212" stroke-width="12.501" d="M80.4377975,0.957802174 L42.7138643,38.6817354 M42.7138643,0.957802174 L80.4377975,38.6817354"/>
    </g>
    <path stroke="#FDB919" stroke-width="10.35" d="M2.45,155.2643 L30.4088,90.0317 C31.091804,88.4327077 30.9273391,86.597748 29.9708747,85.1456989 C29.0144102,83.6936499 27.3934514,82.8180825 25.6547,82.8143 L5.21,82.8143 C3.46537824,82.8209068 1.83518157,81.9468559 0.875152153,80.4901156 C-0.0848772604,79.0333753 -0.245139361,77.1905997 0.449,75.59 L32.12,3.14 C32.9426906,1.25497819 34.803573,0.035 36.8603,0.035 L89.9903,0.035 C91.9800263,0.035 93.7931369,1.17713651 94.6540099,2.97098968 C95.5148828,4.76484285 95.2710424,6.89340163 94.0268,8.4461 L66.0818,43.3808 C64.8410506,44.9345689 64.6002627,47.0618247 65.4623224,48.8536144 C66.3243821,50.645404 68.1368195,51.784819 70.1252,51.785 L93.461,51.785 C95.5557106,51.7840483 97.4444018,53.0459639 98.2452293,54.9815487 C99.0460567,56.9171336 98.6010555,59.1445894 97.118,60.6239 L2.45,155.2643 Z" transform="translate(233 11)"/>
  </g>
</svg>
