<?xml version="1.0" encoding="utf-8"?>
<!-- Generator: Adobe Illustrator 24.3.0, SVG Export Plug-In . SVG Version: 6.00 Build 0)  -->
<svg version="1.1" id="Ebene_1" xmlns="http://www.w3.org/2000/svg" xmlns:xlink="http://www.w3.org/1999/xlink" x="0px" y="0px"
	 viewBox="0 0 429 428" style="enable-background:new 0 0 429 428;" xml:space="preserve">
<style type="text/css">
	.st0{opacity:0.1823;}
	.st1{fill:none;stroke:#FFFFFF;stroke-width:17.3674;stroke-linecap:round;stroke-linejoin:round;}
</style>
<g id="Stefan" class="st0">
	<g id="Artboard" transform="translate(-101.000000, -18.000000)">
		<g id="Group" transform="translate(110.000000, 27.000000)">
			<polygon id="Path" class="st1" points="236,410 148,410 162.7,328 221.3,328 			"/>
			<line id="Path_1_" class="st1" x1="103" y1="410" x2="280" y2="410"/>
			<line id="Path_2_" class="st1" x1="0" y1="246" x2="383" y2="246"/>
			<path id="Path_3_" class="st1" d="M383,246v27.3c0,30.2-24.5,54.7-54.7,54.7H54.7C24.5,328,0,303.5,0,273.3V54.7
				C0,24.5,24.5,0,54.7,0h273.6c8.5,0,16.9,2,24.5,5.8"/>
			<path id="Path_4_" class="st1" d="M392.3,164.6c-3.7,15.5-17.3,26.7-33.2,27.4H222.5c-6.8,0.4-13.2-2.8-17.1-8.4
				c-3.8-5.6-4.4-12.8-1.6-19l25.8-82.2c4.8-15.2,18.2-26,34-27.4h126.9c6.6,0,12.9,3.3,16.7,8.7s4.9,12.4,2.8,18.7L392.3,164.6z"/>
			<polyline id="Path_5_" class="st1" points="242,64 304.5,137 407,64 			"/>
			<line id="Path_6_" class="st1" x1="82" y1="192" x2="109" y2="192"/>
			<line id="Path_7_" class="st1" x1="82" y1="137" x2="137" y2="137"/>
			<line id="Path_8_" class="st1" x1="82" y1="82" x2="178" y2="82"/>
		</g>
	</g>
</g>
</svg>
