<?xml version="1.0" encoding="UTF-8"?>
<svg width="419px" height="163px" viewBox="0 0 419 163" version="1.1" xmlns="http://www.w3.org/2000/svg" xmlns:xlink="http://www.w3.org/1999/xlink">
  <path d="M159.957122,101.677839 C145.612287,101.677839 135.308,90.5890679 135.308,75.4635258 C135.308,60.3360077 145.612287,49.2452607 159.957122,49.2452607 C174.103988,49.2452607 184.408276,60.3360077 184.408276,75.4635258 C184.408276,90.5890679 174.103988,101.677839 159.957122,101.677839 L159.957122,101.677839 Z M159.957122,23.4320559 C130.459738,23.4320559 107.426043,46.8267547 107.426043,75.4635258 C107.426043,104.098321 130.459738,127.491044 159.957122,127.491044 C189.256537,127.491044 212.492161,104.098321 212.492161,75.4635258 C212.492161,46.8267547 189.256537,23.4320559 159.957122,23.4320559 L159.957122,23.4320559 Z M295.261028,48.5457908 L295.261028,24.3449233 L268.323383,24.3449233 L268.323383,0.950224554 L240.265234,0.950224554 L240.265234,24.3449233 L213.58495,24.3449233 L213.58495,48.5457908 L240.455285,48.5457908 L240.455285,126.720441 L295.261028,126.720441 L295.261028,101.511863 L268.323383,101.511863 L268.323383,48.5457908 L295.261028,48.5457908 Z M334.975791,24.3698194 L360.456383,70.8430724 L386.703116,24.3698194 L418.425671,24.3698194 L341.211815,162.633675 L308.875555,162.633675 L344.923734,98.5037471 L303.255215,24.3698194 L334.975791,24.3698194 Z M31.6949744,24.3449233 L57.5576471,73.3512848 L83.4203197,24.3449233 L115.142875,24.3449233 L57.5576471,126.791574 L-0.0275811549,24.3449233 L31.6949744,24.3449233 Z" fill="currentColor"></path>
</svg>