<?xml version="1.0" encoding="UTF-8"?>
<svg width="508px" height="154px" viewBox="0 0 508 154" version="1.1" xmlns="http://www.w3.org/2000/svg" xmlns:xlink="http://www.w3.org/1999/xlink">
    <title>Group 2</title>
    <defs>
        <rect id="path-1" x="0" y="-1.42108547e-14" width="514.710368" height="156.017447"></rect>
        <path d="M82.4826745,-1.70528852e-13 C99.0757277,56.5186629 103.650139,94.1771583 96.2059076,112.975486 L96.2059076,112.975486 L38.5251477,112.975486 C39.4377255,99.2203081 42.3638257,84.6736957 46.3716525,70.4904836 C33.3087778,94.0354502 22.3286747,110.986595 13.4314118,121.344041 L2.84324749e-14,118.715327 C8.65190457,65.0995481 33.7066655,25.5277725 75.1642829,-1.70528852e-13 L82.4826745,-1.70528852e-13 Z" id="path-3"></path>
        <polygon id="path-5" points="0 0 40.515 0 40.515 135.012 0 135.012"></polygon>
        <path d="M64.3901317,0.347540035 L64.369,0.721540035 L70.3540419,0.722050403 C71.7336496,8.84600002 76.0553075,117.837822 89.3074136,155.287658 L89.7117323,156.400425 L16.2931113,156.400425 C17.8848061,123.100383 30.4406457,83.0988984 43.1598262,49.6253048 C31.9127457,59.9301869 22.1102931,77.390309 13.7521078,102.006001 L13.7521078,102.006001 L3.73034936e-14,98.4715357 C10.2249519,54.3575606 31.2472622,21.9334056 63.0669309,1.19907079 L63.2744578,0.722050403 L63.806,0.721540035 L64.3901317,0.347540035 Z" id="path-7"></path>
        <polygon id="path-9" points="0 0.049 141.292 0.049 141.292 185.567 0 185.567"></polygon>
    </defs>
    <g id="Page-1" stroke="none" stroke-width="1" fill="none" fill-rule="evenodd">
        <g id="Group-2" transform="translate(-1.000000, -3.000000)">
            <mask id="mask-2" fill="white">
                <use xlink:href="#path-1"></use>
            </mask>
            <g id="Mask"></g>
            <g id="voty_now" mask="url(#mask-2)">
                <g transform="translate(0.000000, 7.000000)" id="Group">
                    <g transform="translate(53.000000, 1.000000)">
                        <path d="M383.277544,0.3622761 L383.277544,228.912648 C383.277544,237.775389 379.685208,245.799095 373.877187,251.607115 C368.069167,257.415136 360.045461,261.007472 351.18272,261.007472 L351.18272,261.007472 L33.0873523,261.007472 C24.2246113,261.007472 16.2009053,257.415136 10.3928845,251.607115 C4.58486374,245.799095 0.99252819,237.775389 0.99252819,228.912648 L0.99252819,228.912648 L0.99252819,0.3622761 L383.277544,0.3622761 Z" id="Path" stroke="#DDE3E9" stroke-width="9.985" fill="#F5FCFF" fill-rule="nonzero"></path>
                        <g transform="translate(49.893000, 11.613000)" fill-rule="nonzero">
                            <g id="Group-4" transform="translate(87.650139, 0.987783)">
                                <g id="Group" transform="translate(52.000000, 45.500000) scale(-1, 1) rotate(-4.000000) translate(-52.000000, -45.500000) translate(3.000000, 4.000000)">
                                    <g id="voty_screen_vote_now-d-link" transform="translate(-0.000000, 0.000000)" fill="#D8D8D8">
                                        <path d="M97.224354,56.6124173 C97.224354,61.0300451 92.891666,64.6108031 87.546029,64.6102641 L63.193476,64.2590776 L51.669498,82.3068602 L35.666119,64.0238146 L10.112968,64.6024565 C4.7673306,64.6019175 0.4334737,61.0202856 0.4330277,56.6026578 L0.4281816,8.6097213 C0.4281816,4.19209352 4.7608692,0.61187454 10.106507,0.61187454 L87.539567,0.61968214 C92.885205,0.62022114 97.219062,4.20185301 97.219508,8.6194808 L97.224354,56.6124173 Z" id="voty_screen_vote_now-d"></path>
                                    </g>
                                    <g id="voty_screen_vote_now-d-link" transform="translate(-0.000000, 0.000000)" fill="#FFFFFF" stroke="#DDE3E9" stroke-width="8.344">
                                        <path d="M97.224354,56.6124173 C97.224354,61.0300451 92.891666,64.6108031 87.546029,64.6102641 L63.193476,64.2590776 L51.669498,82.3068602 L35.666119,64.0238146 L10.112968,64.6024565 C4.7673306,64.6019175 0.4334737,61.0202856 0.4330277,56.6026578 L0.4281816,8.6097213 C0.4281816,4.19209352 4.7608692,0.61187454 10.106507,0.61187454 L87.539567,0.61968214 C92.885205,0.62022114 97.219062,4.20185301 97.219508,8.6194808 L97.224354,56.6124173 Z" id="voty_screen_vote_now-d"></path>
                                    </g>
                                </g>
                                <path d="M57.8307207,46.9520653 C57.6935527,45.7328376 57.8421517,44.6265014 58.2765187,43.6330567 C58.7108857,42.6396119 59.2709897,41.713902 59.9568317,40.855927 C60.6426747,39.9979519 61.4085317,39.1625552 62.2544037,38.3497368 C63.1002757,37.5369183 63.8775637,36.6789433 64.5862677,35.7758117 C65.2949707,34.8726801 65.9007987,33.8905245 66.4037497,32.8293448 C66.9067007,31.7681652 67.1581757,30.5602267 67.1581757,29.2055293 C67.1581757,27.08317 66.8038237,25.2656177 66.0951207,23.7528722 C65.3864167,22.2401268 64.4148067,21.00961 63.1802907,20.0613218 C61.9457747,19.1130336 60.5055057,18.4131066 58.8594847,17.9615408 C57.2134627,17.509975 55.4531347,17.2841921 53.5784987,17.2841921 C50.8351297,17.2841921 48.3089447,17.8712276 45.9999417,19.0452987 C43.6909397,20.2193698 41.6905667,21.7546935 39.9988227,23.6512699 L39.9988227,23.6512699 L46.4457397,29.4764688 C47.3601957,28.6636503 48.2289297,27.9863016 49.0519407,27.4444226 C49.8749507,26.9025437 50.8808527,26.6316042 52.0696457,26.6316042 C53.1212707,26.6316042 54.0242967,26.8912545 54.7787227,27.4105552 C55.5331497,27.9298559 55.9103627,28.7991201 55.9103627,30.0183477 C55.9103627,30.740853 55.6703177,31.4520691 55.1902287,32.1519961 C54.7101387,32.8519231 54.1271727,33.5857176 53.4413307,34.3533794 C52.7554887,35.1210413 52.0124927,35.9338597 51.2123437,36.7918348 C50.4121937,37.6498098 49.7034907,38.5868088 49.0862327,39.6028319 C48.4689747,40.6188549 48.0003157,41.7364803 47.6802557,42.955708 C47.3601957,44.1749356 47.3144727,45.5070547 47.5430877,46.9520653 L47.5430877,46.9520653 L57.8307207,46.9520653 Z M52.6183197,64.2921921 C54.6301237,64.2921921 56.2761457,63.6148434 57.5563837,62.260146 C58.8366227,60.9054486 59.4767427,59.2346551 59.4767427,57.2477656 C59.4767427,55.2608761 58.8366227,53.5900826 57.5563837,52.2353852 C56.2761457,50.8806878 54.6301237,50.2033391 52.6183197,50.2033391 C50.6065157,50.2033391 48.9604947,50.8806878 47.6802557,52.2353852 C46.4000167,53.5900826 45.7598977,55.2608761 45.7598977,57.2477656 C45.7598977,59.2346551 46.4000167,60.9054486 47.6802557,62.260146 C48.9604947,63.6148434 50.6065157,64.2921921 52.6183197,64.2921921 Z" id="Shape" fill="#A9CCDC" transform="translate(53.578499, 40.788192) rotate(4.000000) translate(-53.578499, -40.788192) "></path>
                            </g>
                            <g id="Group-3" transform="translate(173.644009, 18.610923)">
                                <path d="M99.796374,65.3335327 C99.796374,69.9352284 95.463721,73.6652033 90.118083,73.6646643 L70.759818,73.6627123 L67.790538,92.3350403 L46.561986,73.6602723 L12.685022,73.6568563 C7.339385,73.6563173 3.005513,69.9254689 3.005048,65.3237733 L3,15.3311311 C3,10.7294355 7.332654,7 12.678292,7 L90.111353,7.0078076 C95.45699,7.0083466 99.790862,10.739195 99.791326,15.3408906 L99.796374,65.3335327 Z" id="Path" stroke="#DDE3E9" stroke-width="8.344" fill="#FFFFFF" stroke-linecap="round" stroke-linejoin="round" transform="translate(51.398187, 49.667520) scale(-1, 1) rotate(-4.000000) translate(-51.398187, -49.667520) "></path>
                                <path d="M57.6533522,61.2628168 L57.6411382,44.3259666 L57.6411382,44.3259666 L74.7094532,44.3382726 C76.7691982,44.3397577 78.4401562,42.6712079 78.441642,40.6114623 C78.441642,40.6096696 78.441642,40.6078768 78.441642,40.6060841 L78.4385402,36.306365 C78.4370572,34.2487195 76.7693762,32.5810387 74.7117302,32.5795551 L57.6326592,32.5672413 L57.6326592,32.5672413 L57.6202452,15.3511705 C57.6187612,13.293525 55.9510802,11.6258442 53.8934342,11.6243606 L49.5800902,11.6212498 C47.5203442,11.6197657 45.8493872,13.2883155 45.8479012,15.3480611 C45.8479002,15.3498538 45.8479002,15.3516466 45.8479012,15.3534393 L45.8603082,32.5587536 L45.8603082,32.5587536 L28.7919942,32.5464475 C26.7322482,32.5449625 25.0612912,34.2135123 25.0598047,36.2732578 C25.0598047,36.2750506 25.0598047,36.2768433 25.0598047,36.2786361 L25.0629062,40.5783551 C25.0643902,42.6360006 26.7320712,44.3036815 28.7897172,44.305165 L45.8687872,44.3174788 L45.8687872,44.3174788 L45.8810082,61.2650856 C45.8824922,63.3227311 47.5501732,64.9904119 49.6078192,64.9918955 L53.9211632,64.9950064 C55.9809092,64.9964904 57.6518662,63.3279406 57.6533522,61.2681951 C57.6533532,61.2664023 57.6533532,61.2646095 57.6533522,61.2628168 Z" id="Path" fill="#D90000" transform="translate(51.750723, 38.308128) rotate(-42.000000) translate(-51.750723, -38.308128) "></path>
                            </g>
                            <g id="Group-5" transform="translate(0.426631, 17.958625)">
                                <path d="M101.7987,64.340863 C101.7987,68.9426253 97.4667305,72.6723312 92.1211705,72.6713943 L72.7631854,72.6680013 L69.8625868,92.0372698 L48.5657039,72.6637601 L14.6892299,72.6578225 C9.34366992,72.6568855 5.00958257,68.9256606 5.00877486,64.3238982 L5,14.3305317 C5,9.72876928 9.33197011,5.99906338 14.6775301,6 L92.1094707,6.01357218 C97.4550307,6.01450908 101.789118,9.74573408 101.789925,14.3474964 L101.7987,64.340863 Z" id="Path" stroke="#DDE3E9" stroke-width="8.344" fill="#FFFFFF" stroke-linecap="round" stroke-linejoin="round" transform="translate(53.399350, 49.018635) rotate(-7.000000) translate(-53.399350, -49.018635) "></path>
                                <path d="M40.5640572,38.084076 L47.0271565,45.2574782 L68.1111024,24.4030933 C69.4298516,23.1037093 71.5685486,23.1037093 72.8941308,24.4030933 L76.9560707,28.3950788 C78.2816529,29.7011953 78.2816529,31.8084863 76.9560707,33.1078703 L50.2189417,59.4523749 C48.8113648,60.8392821 46.5360099,60.8392821 45.1284329,59.4523749 L31.6917573,46.2300506 C30.577995,45.1326434 30.6053265,43.3350501 31.7532534,42.2645732 L36.4096554,38.0302155 C36.9954371,37.4834137 37.7512425,37.2158236 38.5031473,37.2265968 C39.2510244,37.2373124 39.9950425,37.523417 40.5640572,38.084076 Z" id="Path" fill="#96CB6A"></path>
                            </g>
                        </g>
                    </g>
                    <g transform="translate(42.680000, 129.280000) scale(-1, 1) translate(-42.680000, -129.280000) translate(0.680000, 44.280000)">
                        <path d="M65.4275078,0.422256238 C63.2445,-0.054643289 60.8341235,-0.018143646 58.6104662,0.0211972866 C46.6849987,0.183369353 34.9743924,5.82944886 27.3528497,14.8509804 C20.864577,22.5312047 19.0804695,32.0799047 17.7986727,41.7324211 C17.6715875,42.6908099 17.6170904,43.643079 17.5453956,44.6034349 C17.5299845,44.8095377 17.5069796,44.9933473 17.4824113,45.1664474 C16.9783138,45.6171196 16.7138693,46.1425396 17.0122628,46.7197585 C15.9017743,49.1499354 14.9623707,51.6417463 14.1563061,54.211802 C11.7838988,61.7766262 9.3706187,69.4852634 10.857226,77.44 C11.2045329,73.062447 11.9351057,68.5861046 12.8088449,64.280458 C12.8590983,64.0332659 12.9133719,63.7880407 12.9698791,63.5436898 C12.9756861,63.5178996 12.9810465,63.4921095 12.9868536,63.4665379 C13.2961912,62.1479609 13.6982184,60.8689435 14.1871282,59.6100337 C14.1922652,59.5962643 14.1971789,59.5827136 14.2025392,59.5691628 C14.2670869,59.4034938 14.3356549,59.238699 14.4033295,59.0739042 C14.543369,58.7327309 14.6872054,58.3922132 14.8397524,58.0534441 C14.8913459,57.938044 14.9409292,57.8215512 14.9885024,57.704184 C15.700314,55.9596322 16.000941,53.993897 16.6386008,52.1888038 C16.7911478,51.7783468 16.9506186,51.3694196 17.1176833,50.9626781 C17.1275106,50.938855 17.1375613,50.9150319 17.147612,50.8912088 C17.5992226,49.7966566 18.098183,48.7154366 18.6257321,47.6455818 C18.9125115,47.4300809 19.0657285,46.8954814 19.3129753,46.4096208 C19.3641221,46.3138912 19.7639158,45.6754753 19.8829605,45.3076376 C20.1936382,44.7065956 20.5031992,44.105335 20.8161104,43.5053858 C20.8067298,43.5088827 20.7973491,43.5123797 20.7879685,43.5158767 C21.101103,42.9397506 21.4151309,42.3660287 21.726702,41.7947109 C21.79527,41.669257 21.864508,41.5435846 21.9335227,41.4176936 C22.0454203,41.2172734 22.1573179,41.0170718 22.2689921,40.8173073 C23.3135928,38.9479573 24.4211778,37.1159812 25.5714224,35.3067354 C25.9819368,34.661107 26.9626599,33.7352837 27.1507193,33.0103178 C27.1576431,32.9832162 27.1592066,32.9583003 27.1634502,32.9322916 C29.6593692,29.4267959 32.5327471,26.1934084 35.9785671,23.6314394 C35.5620222,24.0816745 34.6766689,25.6096327 34.4425997,25.9121207 C33.7263212,26.8383811 32.9486219,27.7006032 32.1680191,28.5733162 C30.7700811,30.1366812 29.4051986,31.7496594 28.1924165,33.4553074 C25.9745663,36.5746063 24.0611401,39.8573885 22.2524643,43.2061761 C22.2352665,43.2258466 22.2165052,43.2444243 22.2002008,43.2645318 C21.2911726,44.3850927 20.7189538,46.0787199 20.0645428,47.3605786 C22.6542682,46.1611173 25.5178188,45.3797627 28.1756654,44.3147162 C30.8261415,43.2529481 33.4044761,42.0705345 35.8936947,40.6820182 C39.2021554,38.8367099 42.6341278,36.7531704 45.7601128,34.3953372 C49.3423987,32.1732301 52.3526892,29.1146912 55.0098658,25.9051268 C58.1537186,22.107634 61.0349137,18.2769199 62.8167877,13.6659441 C63.6920903,11.4001249 64.3806736,9.03748336 64.7889546,6.64730314 C64.8068225,6.54304967 64.829604,6.43005377 64.8543957,6.31268665 C65.2720573,5.48718275 65.6454959,4.64310119 65.9588538,3.77956771 C66.4564742,2.41006614 67.6317338,0.903526981 65.4275078,0.422256238" id="Path" fill="#69A1AC" fill-rule="nonzero"></path>
                        <path d="M81.910753,30.4803475 C79.3863898,28.7685741 76.0294737,28.32 73.0086036,28.32 C61.2096519,28.32 50.1191856,32.6976311 40.5383271,39.2203959 C35.2884931,42.7944663 30.592119,47.3459025 26.4458962,52.0847441 C24.0526903,54.820216 21.9187267,57.779514 20.4079372,61.0707476 C19.3884556,63.2921804 18.6887141,65.6067396 18.2144212,67.9941402 C17.6363841,70.9036478 17.1772156,73.8721663 16.9694909,76.8300812 C16.8877244,77.9948524 16.2109059,84.1755391 18.1475428,84.280191 C18.1364358,84.4325587 18.1338363,84.5777805 18.1456522,84.7080191 C13.940586,91.2831099 11.3424912,98.9888563 8.93321563,106.294666 C6.83706314,112.652155 4.96919512,119.063353 3.75664061,125.640287 C2.16030351,134.299196 1.11175462,143.088343 0.613120827,151.871728 C0.506068169,153.759381 0.432572856,155.647956 0.369239274,157.538145 C0.315594785,159.150338 0.261241338,160.76253 0.208305807,162.374723 C0.149225974,164.181467 -0.16885985,166.261597 0.11850446,168.057737 C0.368530316,169.621983 1.72240378,169.385249 1.78219257,167.828609 C1.85450629,165.948793 1.84269032,164.065289 1.92492945,162.184091 C2.0343453,159.687428 2.14706963,157.190765 2.26924672,154.694794 C3.11976001,137.356 6.31054366,120.272151 12.1991488,103.893896 C14.582193,97.2660184 17.3128629,90.9917442 20.8224413,84.8606173 C23.9080629,79.4698911 27.6196944,74.2511261 31.413565,69.3905748 C35.1010919,64.6671775 38.9349004,60.0530423 43.4530898,56.0511438 C47.1195842,52.8037073 51.15261,49.974648 55.2983601,47.3422143 C60.5640275,43.9988853 65.8195332,40.7366961 71.5233366,38.1701886 C74.488199,36.8362224 77.509069,35.6419459 80.4970907,34.3619192 C81.0347172,34.1316389 81.6111001,33.9082739 82.1281668,33.6415729 C83.8530616,32.7520316 83.2851862,31.4123027 81.910753,30.4803475" id="Path" fill="#C1DEE2" fill-rule="nonzero"></path>
                        <path d="M37.6366082,88.04 C32.8511428,88.04 28.5928256,88.6618151 24.1835452,90.5635946 C20.3774505,92.2049427 16.9088552,94.3778144 13.5411984,96.7434531 C8.80420133,100.070534 5.07303238,103.942845 2.46130305,109.073581 C0.900979859,112.138707 -0.243583229,116.475965 0.804265612,119.819146 C2.03865067,123.756728 5.42787362,127.04073 9.8916252,126.346899 C12.651872,125.918286 15.182228,124.091133 17.280149,122.37146 C19.7898281,120.314118 21.7988165,117.840347 23.4576326,115.092873 C26.1636305,110.611148 27.7537461,105.544595 30.0524326,100.861401 C31.1431914,98.6387055 32.1972655,96.4001277 33.503686,94.2877404 C34.1504487,93.2416638 34.8390096,92.2055954 35.820159,91.4282178 C36.3450839,91.0124415 38.558395,90.2927199 37.7119786,89.3589094 C50.1218616,89.5218693 61.1157147,99.0527412 63.4979978,110.85004 C63.7198848,111.949639 63.8933034,113.058158 64.0765047,114.164501 C64.1921171,114.863119 64.1454275,117.439365 64.7699569,117.885601 C66.1473012,118.870106 65.5683497,115.879388 65.5092095,115.448817 C65.3564677,114.335947 65.1934986,113.223946 65.0225256,112.113904 C64.0922902,106.076119 61.4043011,100.463248 56.9216514,96.1573195 C51.7955739,91.2334926 44.8792825,88.04 37.6366082,88.04" id="Path" fill="#89C5CC" fill-rule="nonzero" transform="translate(33.040000, 107.240000) scale(-1, 1) translate(-33.040000, -107.240000) "></path>
                    </g>
                    <g transform="translate(425.480000, 0.280000)">
                        <path d="M77.4275078,0.422256238 C75.2445,-0.054643289 72.8341235,-0.018143646 70.6104662,0.0211972866 C58.6849987,0.183369353 46.9743924,5.82944886 39.3528497,14.8509804 C32.864577,22.5312047 31.0804695,32.0799047 29.7986727,41.7324211 C29.6715875,42.6908099 29.6170904,43.643079 29.5453956,44.6034349 C29.5299845,44.8095377 29.5069796,44.9933473 29.4824113,45.1664474 C28.9783138,45.6171196 28.7138693,46.1425396 29.0122628,46.7197585 C27.9017743,49.1499354 26.9623707,51.6417463 26.1563061,54.211802 C23.7838988,61.7766262 21.3706187,69.4852634 22.857226,77.44 C23.2045329,73.062447 23.9351057,68.5861046 24.8088449,64.280458 C24.8590983,64.0332659 24.9133719,63.7880407 24.9698791,63.5436898 C24.9756861,63.5178996 24.9810465,63.4921095 24.9868536,63.4665379 C25.2961912,62.1479609 25.6982184,60.8689435 26.1871282,59.6100337 C26.1922652,59.5962643 26.1971789,59.5827136 26.2025392,59.5691628 C26.2670869,59.4034938 26.3356549,59.238699 26.4033295,59.0739042 C26.543369,58.7327309 26.6872054,58.3922132 26.8397524,58.0534441 C26.8913459,57.938044 26.9409292,57.8215512 26.9885024,57.704184 C27.700314,55.9596322 28.000941,53.993897 28.6386008,52.1888038 C28.7911478,51.7783468 28.9506186,51.3694196 29.1176833,50.9626781 C29.1275106,50.938855 29.1375613,50.9150319 29.147612,50.8912088 C29.5992226,49.7966566 30.098183,48.7154366 30.6257321,47.6455818 C30.9125115,47.4300809 31.0657285,46.8954814 31.3129753,46.4096208 C31.3641221,46.3138912 31.7639158,45.6754753 31.8829605,45.3076376 C32.1936382,44.7065956 32.5031992,44.105335 32.8161104,43.5053858 C32.8067298,43.5088827 32.7973491,43.5123797 32.7879685,43.5158767 C33.101103,42.9397506 33.4151309,42.3660287 33.726702,41.7947109 C33.79527,41.669257 33.864508,41.5435846 33.9335227,41.4176936 C34.0454203,41.2172734 34.1573179,41.0170718 34.2689921,40.8173073 C35.3135928,38.9479573 36.4211778,37.1159812 37.5714224,35.3067354 C37.9819368,34.661107 38.9626599,33.7352837 39.1507193,33.0103178 C39.1576431,32.9832162 39.1592066,32.9583003 39.1634502,32.9322916 C41.6593692,29.4267959 44.5327471,26.1934084 47.9785671,23.6314394 C47.5620222,24.0816745 46.6766689,25.6096327 46.4425997,25.9121207 C45.7263212,26.8383811 44.9486219,27.7006032 44.1680191,28.5733162 C42.7700811,30.1366812 41.4051986,31.7496594 40.1924165,33.4553074 C37.9745663,36.5746063 36.0611401,39.8573885 34.2524643,43.2061761 C34.2352665,43.2258466 34.2165052,43.2444243 34.2002008,43.2645318 C33.2911726,44.3850927 32.7189538,46.0787199 32.0645428,47.3605786 C34.6542682,46.1611173 37.5178188,45.3797627 40.1756654,44.3147162 C42.8261415,43.2529481 45.4044761,42.0705345 47.8936947,40.6820182 C51.2021554,38.8367099 54.6341278,36.7531704 57.7601128,34.3953372 C61.3423987,32.1732301 64.3526892,29.1146912 67.0098658,25.9051268 C70.1537186,22.107634 73.0349137,18.2769199 74.8167877,13.6659441 C75.6920903,11.4001249 76.3806736,9.03748336 76.7889546,6.64730314 C76.8068225,6.54304967 76.829604,6.43005377 76.8543957,6.31268665 C77.2720573,5.48718275 77.6454959,4.64310119 77.9588538,3.77956771 C78.4564742,2.41006614 79.6317338,0.903526981 77.4275078,0.422256238" id="Path" fill="#69A1AC" fill-rule="nonzero"></path>
                        <path d="M81.910753,42.4803475 C79.3863898,40.7685741 76.0294737,40.32 73.0086036,40.32 C61.2096519,40.32 50.1191856,44.6976311 40.5383271,51.2203959 C35.2884931,54.7944663 30.592119,59.3459025 26.4458962,64.0847441 C24.0526903,66.820216 21.9187267,69.779514 20.4079372,73.0707476 C19.3884556,75.2921804 18.6887141,77.6067396 18.2144212,79.9941402 C17.6363841,82.9036478 17.1772156,85.8721663 16.9694909,88.8300812 C16.8877244,89.9948524 16.2109059,96.1755391 18.1475428,96.280191 C18.1364358,96.4325587 18.1338363,96.5777805 18.1456522,96.7080191 C13.940586,103.28311 11.3424912,110.988856 8.93321563,118.294666 C6.83706314,124.652155 4.96919512,131.063353 3.75664061,137.640287 C2.16030351,146.299196 1.11175462,155.088343 0.613120827,163.871728 C0.506068169,165.759381 0.432572856,167.647956 0.369239274,169.538145 C0.315594785,171.150338 0.261241338,172.76253 0.208305807,174.374723 C0.149225974,176.181467 -0.16885985,178.261597 0.11850446,180.057737 C0.368530316,181.621983 1.72240378,181.385249 1.78219257,179.828609 C1.85450629,177.948793 1.84269032,176.065289 1.92492945,174.184091 C2.0343453,171.687428 2.14706963,169.190765 2.26924672,166.694794 C3.11976001,149.356 6.31054366,132.272151 12.1991488,115.893896 C14.582193,109.266018 17.3128629,102.991744 20.8224413,96.8606173 C23.9080629,91.4698911 27.6196944,86.2511261 31.413565,81.3905748 C35.1010919,76.6671775 38.9349004,72.0530423 43.4530898,68.0511438 C47.1195842,64.8037073 51.15261,61.974648 55.2983601,59.3422143 C60.5640275,55.9988853 65.8195332,52.7366961 71.5233366,50.1701886 C74.488199,48.8362224 77.509069,47.6419459 80.4970907,46.3619192 C81.0347172,46.1316389 81.6111001,45.9082739 82.1281668,45.6415729 C83.8530616,44.7520316 83.2851862,43.4123027 81.910753,42.4803475" id="Path" fill="#C1DEE2" fill-rule="nonzero"></path>
                        <path d="M43.6366082,103.04 C38.8511428,103.04 34.5928256,103.661815 30.1835452,105.563595 C26.3774505,107.204943 22.9088552,109.377814 19.5411984,111.743453 C14.8042013,115.070534 11.0730324,118.942845 8.46130305,124.073581 C6.90097986,127.138707 5.75641677,131.475965 6.80426561,134.819146 C8.03865067,138.756728 11.4278736,142.04073 15.8916252,141.346899 C18.651872,140.918286 21.182228,139.091133 23.280149,137.37146 C25.7898281,135.314118 27.7988165,132.840347 29.4576326,130.092873 C32.1636305,125.611148 33.7537461,120.544595 36.0524326,115.861401 C37.1431914,113.638705 38.1972655,111.400128 39.503686,109.28774 C40.1504487,108.241664 40.8390096,107.205595 41.820159,106.428218 C42.3450839,106.012441 44.558395,105.29272 43.7119786,104.358909 C56.1218616,104.521869 67.1157147,114.052741 69.4979978,125.85004 C69.7198848,126.949639 69.8933034,128.058158 70.0765047,129.164501 C70.1921171,129.863119 70.1454275,132.439365 70.7699569,132.885601 C72.1473012,133.870106 71.5683497,130.879388 71.5092095,130.448817 C71.3564677,129.335947 71.1934986,128.223946 71.0225256,127.113904 C70.0922902,121.076119 67.4043011,115.463248 62.9216514,111.15732 C57.7955739,106.233493 50.8792825,103.04 43.6366082,103.04" id="Path" fill="#89C5CC" fill-rule="nonzero" transform="translate(39.040000, 122.240000) scale(-1, 1) translate(-39.040000, -122.240000) "></path>
                    </g>
                    <g transform="translate(13.000000, 10.000000)">
                        <g transform="translate(400.627000, 155.500000) scale(-1, 1) translate(-400.627000, -155.500000) translate(293.127000, 8.000000)">
                            <g transform="translate(110.381284, 37.483000) rotate(-12.000000) translate(-110.381284, -37.483000) translate(84.381284, 5.483000)" fill-rule="nonzero" id="Path">
                                <path d="M44.07394,18.8646217 C48.1035087,26.3637603 47.6246912,45.3859471 42.4168327,46.7262524 C40.3399879,47.2607534 35.9157385,45.9514771 31.4128397,43.2416571 L34.2390088,63.2063573 L17.55,63.2063573 L23.2958729,36.4698142 C20.0913766,32.7144534 17.9224487,28.1121291 18.2848562,22.9550609 C19.3289998,8.09687061 40.0443714,11.3654832 44.07394,18.8646217 Z" fill="#D4A181"></path>
                                <path d="M51.46769,8.4687049 C51.1220953,7.2558183 50.1925329,6.2173346 48.9397919,5.9092456 C48.6360041,5.8345145 48.3222688,5.8043303 48.0096795,5.8169147 C47.8975525,5.821383 47.8661057,5.8536647 47.8137095,5.7753771 C47.7748364,5.717334 47.7739654,5.5755319 47.7579669,5.507321 C47.7081837,5.2952106 47.6459317,5.0857448 47.5691023,4.8817048 C47.3069838,4.1857803 46.8664983,3.5698759 46.335477,3.0510444 C45.3422416,2.0804068 44.0002025,1.4105174 42.6059048,1.2893244 C41.8427908,1.2230285 41.0852236,1.3468204 40.363779,1.5946777 C39.9902671,1.7229835 39.6280779,1.8827502 39.275332,2.0593873 C39.1691186,2.1125517 38.8245323,2.3729477 38.7179521,2.3560774 C38.6002326,2.3374744 38.3636476,2.0453895 38.2679317,1.9720719 C37.0848231,1.0657696 35.6238269,0.70944053 34.1501785,0.719864443 C32.4868403,0.73260306 30.8851582,0.81558692 29.49792,1.82799 C29.204263,2.0423346 28.9245875,2.2770147 28.6582975,2.5240969 C28.5180701,2.6541809 28.3822434,2.7891437 28.252697,2.9297147 C28.1745382,3.0145224 28.0984422,3.1012451 28.0251884,3.1902931 C27.9008678,3.3414423 27.9208086,3.3910958 27.7467965,3.2856334 C27.0791691,2.8806539 26.3055118,2.6912501 25.5262618,2.7868639 C25.0635434,2.843676 24.6133397,2.9823775 24.185873,3.164942 C24.040328,3.2270887 23.703443,3.4749916 23.5483173,3.4774082 C23.3944293,3.4797791 23.062266,3.2499777 22.903748,3.1915698 C22.047577,2.8760032 21.1247532,2.7982172 20.2248499,2.9440317 C19.2965711,3.0944969 18.3847033,3.4642767 17.5982104,3.9752657 C17.2199311,4.2210712 16.8898764,4.4934133 16.6247783,4.8589071 C16.5103135,5.0167132 16.4068505,5.1836384 16.2771207,5.3299544 C16.2011623,5.4156284 16.0507582,5.5035366 16.0100056,5.6119628 C16.0343929,5.5470347 14.9948123,5.1468884 14.8967127,5.1213093 C14.3740803,4.9850243 13.8419129,5.0126552 13.3301448,5.1808115 C12.3678061,5.4970164 11.540194,6.2061181 10.8600063,6.9331388 C10.5106525,7.3065661 10.2049394,7.7193424 9.9454339,8.1591113 C9.8210674,8.3697626 9.7073361,8.5864326 9.6032772,8.8077077 C9.5528521,8.9149027 9.5194341,9.0489992 9.4530106,9.1455705 C9.3673797,9.2700007 9.3098494,9.2723717 9.1547695,9.3266303 C8.3671765,9.6021185 7.6492158,10.068424 7.1024711,10.6985086 C6.5494461,11.3359796 6.1906033,12.1209978 6.0401533,12.9476903 C6.031306,12.9963863 6.0260343,13.1981921 5.9974754,13.2245463 C5.9583273,13.2608404 5.7999469,13.2447908 5.7400328,13.2518125 C5.5325567,13.2761149 5.3265476,13.3122721 5.1232889,13.3603298 C4.7485851,13.4488763 4.3838747,13.5791884 4.0388759,13.7496244 C2.6939946,14.4139969 1.7322519,15.6595299 1.2615573,17.0610452 C0.7676671,18.5318657 0.7764227,20.2169396 1.3667164,21.6603116 C1.4620655,21.8934415 1.5755218,22.1197321 1.7087814,22.3338031 C1.7906074,22.4652094 1.8170118,22.4655286 1.7638822,22.6034094 C1.7046557,22.7567928 1.5964711,22.9058446 1.5261511,23.0557171 C1.2967173,23.5448203 1.1363198,24.0635606 1.0350114,24.5933806 C0.8687922,25.462477 0.786416,26.375801 0.950389,27.2515086 C1.0265308,27.6581296 1.1591945,28.0556314 1.3615822,28.4177966 C1.4647701,28.6024585 1.5855151,28.7775909 1.721846,28.9395918 C1.7926244,29.0237156 1.8678036,29.1040549 1.9464208,29.1810202 C1.9913907,29.2249742 2.0503421,29.2634569 2.0885735,29.3125632 C2.1819056,29.4322971 2.2015255,29.3338564 2.1533926,29.5096727 C2.0860981,29.7554782 1.9335395,29.9980008 1.8401156,30.2371949 C1.7438497,30.4836844 1.6568436,30.7335478 1.5772637,30.9858735 C1.416087,31.496817 1.279802,32.0170163 1.1945837,32.5461524 C1.0309315,33.5620664 1.0596738,34.6445498 1.5409577,35.5769327 C1.7467377,35.9757568 2.0419533,36.3256112 2.4000168,36.5977709 C2.5752666,36.7309099 2.7650939,36.8456738 2.9642269,36.9399198 C3.0665439,36.9884334 3.1971905,37.009225 3.2438566,37.1080305 C3.2940983,37.2142681 3.2195151,37.4252386 3.2025081,37.5440149 C3.0545336,38.5773007 2.9803171,39.6622007 3.2879556,40.6747862 C3.5712984,41.6074427 4.1951476,42.4308979 5.005111,42.9760836 C6.5764005,44.0336719 8.6944349,43.9740329 10.3454418,43.1273696 C10.7757965,42.9066416 11.1784174,42.6326125 11.5375811,42.3093858 C12.4521535,43.5386412 14.3341528,43.4997482 15.6708285,43.1494834 C17.3361378,42.7131342 18.672401,41.5569684 19.4422994,40.0379079 C20.4950363,41.3174551 22.7043858,40.9023078 23.4344026,39.5141976 C23.6130906,39.1744654 23.7190748,38.8000349 23.7712418,38.4211361 C23.7987005,38.2218836 23.7811893,38.0208985 23.8018177,37.8232419 C23.8281304,37.5713722 23.9966416,37.3266154 24.0935035,37.0829529 C24.2821389,36.6087595 24.3992625,36.1189267 24.404305,35.6074361 C24.406918,35.3403831 24.3730415,35.0801238 24.3475998,34.8152138 C24.3247252,34.5767492 24.3909653,34.3545622 24.4286007,34.1191981 C24.0015008,34.1894152 23.4811604,34.0744233 23.0787687,33.9507682 C22.6838949,33.8294385 22.3140503,33.5098595 22.0353374,33.2180025 C21.388201,32.5402706 20.9928688,31.6518418 20.722499,30.7676077 C20.1289965,28.8268797 20.3722743,26.4984529 22.3273442,25.4333414 C23.2381118,24.9371709 25.9666565,24.9387984 27.0514211,25.1840228 C28.1920036,25.4418655 29.4850387,27.9546829 29.5486659,28.1908677 C29.5880433,28.337047 29.56824,28.51797 29.7027373,28.615362 C29.9983196,28.8295242 30.485792,28.4578751 30.7038115,28.2744443 C31.080028,27.9578745 31.3483808,27.5366631 31.5807943,27.1097066 C32.0871991,26.1795578 32.4954584,25.1820645 32.7838437,24.1637796 C33.0061722,23.3787158 33.1483249,22.5691672 33.4389106,21.8041199 C33.7280752,21.0428569 34.1839174,20.3624349 34.892664,19.9311924 C35.6636626,19.46206 36.5474299,19.2149779 37.3938368,18.9201572 C38.2328176,18.627981 39.0573125,18.2708769 39.7076578,17.6509145 C39.8506357,17.5145839 39.9895337,17.3697269 40.1046403,17.2092306 C40.195497,17.0825207 40.2852994,16.8399525 40.423739,16.7596131 C40.6389621,16.6346358 40.9530642,16.9596407 41.1391784,17.0776419 C42.0573722,17.6598968 42.82342,18.4719532 43.441264,19.3590597 C44.05567,20.2413332 44.5598195,21.0902763 44.9694999,22.0754588 C45.2733794,22.8061272 45.4630324,23.7418842 45.9974918,24.3406902 C46.2360939,24.6080624 48.0096795,24.7698153 48.584158,24.5363862 C49.1586365,24.3029572 49.8024724,23.6968358 49.9952794,23.3169794 C50.1926704,22.9281864 50.2398407,22.5010931 50.1554934,22.0754588 C50.1058935,21.8250482 50.0045851,21.5911432 49.9491634,21.3452009 C49.9024973,21.1386075 49.8601403,20.9433219 49.7594278,20.7540549 C49.5685461,20.3954005 49.2424338,20.1376033 48.8491644,20.0298155 C49.2584322,19.6530597 49.5975634,19.2023479 49.8322232,18.6985173 C50.0760511,18.1750807 50.282702,17.5385215 50.3413325,16.9640179 C50.3890071,16.4973933 50.3154324,16.0139439 50.0595942,15.6129312 C49.7911955,15.1922669 49.3157334,14.9178274 48.9043569,14.6554252 C49.5327444,14.1645437 50.0705502,13.5675615 50.5126859,12.9066087 C51.3725243,11.6212708 51.9043707,10.0010794 51.46769,8.4687049 Z" fill="#191847"></path>
                            </g>
                            <g transform="translate(20.127000, 128.680000)" fill-rule="nonzero" id="Path">
                                <polygon fill="#D4A181" points="82.18 0 116.31 86.25 139.202 159.167 148.241 159.167 113.245 0"></polygon>
                                <path d="M75.3076458,0 C74.9442084,30.3087788 69.6439559,71.1146299 68.7971541,73.0039249 C68.2326197,74.263455 48.7439795,90.2805739 10.3312337,121.055282 L16.55708,127.707297 C61.8805616,101.321846 85.5909762,86.3695365 87.6883239,82.8503676 C90.834345,77.5716143 101.076708,28.9958355 109.299939,0 L75.3076458,0 Z" fill="#F1C0A6"></path>
                                <polygon fill="#73899D" points="105.128 151.656 148.105 146.999 116.254 0 77.761 0"></polygon>
                                <path d="M19.2209843,110.323421 L47.4115309,143.639384 C77.1040263,111.260357 94.414829,90.1330352 99.343938,80.2574201 C104.273047,70.381805 108.704065,43.6293316 112.636993,0 L69.3006582,0 C67.1522936,38.3831829 65.7041463,58.467853 64.9562163,60.2540103 C64.2082864,62.0401676 48.9632091,78.7299713 19.2209843,110.323421 Z" fill="#A9CCDC"></path>
                            </g>
                            <g transform="translate(107.255127, 121.267253) rotate(3.000000) translate(-107.255127, -121.267253) translate(4.255127, 45.267253)">
                                <path d="M42.3008491,80.0540997 L59.462728,83.456624 C42.7213067,114.632049 33.5102843,131.594615 31.8296607,134.344322 L31.7353087,134.49628 C31.721184,134.518586 31.7078597,134.53938 31.6953357,134.558665 C28.877441,138.897596 31.5065938,146.849591 32.4777919,151.037166 C29.7594871,151.669439 28.7322485,150.195648 27.7434764,148.539102 L27.5389097,148.194392 C26.3766649,146.233405 25.1106332,144.203536 21.0775741,145.204288 C19.6700606,145.553545 18.3053694,146.012213 16.9701742,146.474206 L16.3997148,146.672097 C11.281133,148.449379 6.5730562,150.050638 1.51075395,145.388024 C0.703964657,144.644934 0.113356745,142.322244 2.86411014,141.130948 C9.71724,138.162995 19.8421622,132.605562 21.4839192,130.447942 C23.7227481,127.505642 30.6617247,110.707695 42.3008491,80.0540997 Z M203.736494,18.0342846 C203.473904,18.4817255 203.212023,18.932972 202.955305,19.3835822 L202.650007,19.9237252 C200.685383,23.4289734 199.143245,26.7874306 200.13701,27.8913298 C201.309143,29.1933647 204.317926,27.4565315 205.70591,29.6099925 C206.631232,31.0456328 201.505034,33.1971972 190.327314,36.0646851 L168.875949,55.0150269 L158.341924,43.3135605 L187.679642,27.9192854 C192.611631,22.2690953 197.450372,17.8987388 202.195864,14.8082157 C203.639523,14.2355198 206.15232,13.917828 203.736494,18.0342846 Z" id="Shape" fill="#F1C0A6" fill-rule="nonzero"></path>
                                <g id="voty_screen_vote_now-e-link" transform="translate(136.880195, 44.132070) rotate(-10.000000) translate(-136.880195, -44.132070) translate(84.880195, 8.632070)" fill="#0CBBCD" fill-rule="nonzero">
                                    <path d="M0.3490262,19.5981975 L34.9006483,0.5835761 C51.9497778,14.4477937 43.7528723,43.9266713 55.4352674,44.1241723 C63.0303646,44.2525739 77.2999176,38.6220599 98.243926,27.2326301 L103.620099,38.4432761 C94.475654,50.2500116 74.5337141,60.8590064 43.794279,70.2702603 C15.8218963,53.5767244 1.3401453,36.6860368 0.3490262,19.5981975 Z" id="voty_screen_vote_now-e"></path>
                                </g>
                                <path d="M74.5377858,106.833474 C103.575493,106.833474 124.935021,106.833474 138.616371,106.833474 C141.544436,106.833474 140.992698,102.608724 140.569429,100.476892 C135.684387,75.8729743 116.615039,49.3511414 116.615039,14.3280837 L98.1317588,11.4319527 C82.8437113,36.0006955 77.5568394,66.2497924 74.5377858,106.833474 Z" id="Path" fill="#DDE3E9" fill-rule="nonzero"></path>
                                <g transform="translate(21.775000, 11.432000)" id="Clipped">
                                    <g transform="translate(-0.000000, 0.000000)">
                                        <mask id="mask-4" fill="white">
                                            <use xlink:href="#path-3"></use>
                                        </mask>
                                        <g id="voty_screen_vote_now-f"></g>
                                        <g id="Group" mask="url(#mask-4)">
                                            <g transform="translate(-73.700000, -5.858000)">
                                                <g id="Group" stroke-width="1" fill="none" fill-rule="evenodd" transform="translate(135.471000, 0.000000)">
                                                    <g id="Clipped" transform="translate(-0.000000, 0.000000)">
                                                        <mask id="mask-6" fill="white">
                                                            <use xlink:href="#path-5"></use>
                                                        </mask>
                                                        <g id="voty_screen_vote_now-h"></g>
                                                        <polyline id="Path" fill="#0CBBCD" fill-rule="nonzero" mask="url(#mask-6)" points="40.515 -0.001 27.01 -0.001 0 -0.001 0 27.002 0 40.503 0 67.506 0 94.508 0 108.01 0 135.012 27.01 135.012 40.515 135.012"></polyline>
                                                    </g>
                                                </g>
                                                <path d="M166.824072,12.1789538 C166.219052,12.1789538 165.658598,12.362571 165.192679,12.6771506 C164.417497,13.2009998 163.907011,14.0880331 163.907011,15.0952277 C163.907011,16.1024222 164.417497,16.9894556 165.192679,17.5146549 C165.658598,17.8292344 166.219052,18.0128517 166.824072,18.0128517 C167.828837,18.0128517 168.71611,17.5025037 169.241451,16.7261808 C169.554765,16.2603871 169.739783,15.6987343 169.739783,15.0952277 C169.739783,14.4903709 169.554765,13.9300682 169.241451,13.4642745 C168.71611,12.6879516 167.828837,12.1789538 166.824072,12.1789538 M166.824072,89.9477424 C166.219052,89.9477424 165.658598,90.1313596 165.192679,90.4459392 C164.417497,90.9697884 163.907011,91.8581718 163.907011,92.8653664 C163.907011,93.4742736 164.094729,94.0399767 164.416146,94.5084707 L166.824072,94.5084707 L169.230647,94.5084707 C169.233348,94.5044203 169.2374,94.5003699 169.241451,94.4963196 C169.554765,94.0291757 169.739783,93.4688731 169.739783,92.8653664 C169.739783,92.2605096 169.554765,91.6988568 169.241451,91.2344132 C168.71611,90.4580903 167.828837,89.9477424 166.824072,89.9477424 M166.824072,70.5053765 C166.219052,70.5053765 165.658598,70.6889937 165.192679,71.0035733 C164.417497,71.5274225 163.907011,72.4158059 163.907011,73.4230005 C163.907011,74.4288449 164.417497,75.3158782 165.192679,75.8410776 C165.658598,76.1556571 166.219052,76.3379242 166.824072,76.3379242 C167.828837,76.3379242 168.71611,75.8289264 169.241451,75.0526035 C169.554765,74.5868098 169.739783,74.0265072 169.739783,73.4230005 C169.739783,72.8181437 169.554765,72.2564909 169.241451,71.7920473 C168.71611,71.0157244 167.828837,70.5053765 166.824072,70.5053765 M147.376458,12.1789538 C145.765322,12.1789538 144.459397,13.4845264 144.459397,15.0952277 C144.459397,16.7072791 145.765322,18.0128517 147.376458,18.0128517 C148.986244,18.0128517 150.293519,16.7072791 150.293519,15.0952277 C150.293519,13.4845264 148.986244,12.1789538 147.376458,12.1789538 M137.652651,2.45912095 C136.780234,2.45912095 136.006402,2.84930759 135.471608,3.45551452 L135.471608,7.29257488 C136.006402,7.89878181 136.780234,8.28896845 137.652651,8.28896845 C139.262437,8.28896845 140.569712,6.98474597 140.569712,5.37269457 C140.569712,3.76469356 139.262437,2.45912095 137.652651,2.45912095 M157.100265,2.45912095 C155.489129,2.45912095 154.183204,3.76469356 154.183204,5.37269457 C154.183204,6.98474597 155.489129,8.28896845 157.100265,8.28896845 C158.7087,8.28896845 160.017326,6.98474597 160.017326,5.37269457 C160.017326,3.76469356 158.7087,2.45912095 157.100265,2.45912095 M147.376458,89.9477424 C145.765322,89.9477424 144.459397,91.253315 144.459397,92.8653664 C144.459397,94.4760677 145.765322,95.7816403 147.376458,95.7816403 C148.986244,95.7816403 150.293519,94.4760677 150.293519,92.8653664 C150.293519,91.253315 148.986244,89.9477424 147.376458,89.9477424 M147.376458,70.5053765 C145.765322,70.5053765 144.459397,71.8109491 144.459397,73.4230005 C144.459397,75.0337017 145.765322,76.3379242 147.376458,76.3379242 C148.986244,76.3379242 150.293519,75.0337017 150.293519,73.4230005 C150.293519,71.8109491 148.986244,70.5053765 147.376458,70.5053765 M137.652651,80.2284496 C136.780234,80.2284496 136.006402,80.6186362 135.471608,81.2248432 L135.471608,85.0619035 C136.006402,85.6681105 136.780234,86.0582971 137.652651,86.0582971 C139.262437,86.0582971 140.569712,84.7527245 140.569712,83.1420232 C140.569712,81.5340222 139.262437,80.2284496 137.652651,80.2284496 M157.100265,80.2284496 C155.489129,80.2284496 154.183204,81.5340222 154.183204,83.1420232 C154.183204,84.7527245 155.489129,86.0582971 157.100265,86.0582971 C158.7087,86.0582971 160.017326,84.7527245 160.017326,83.1420232 C160.017326,81.5340222 158.7087,80.2284496 157.100265,80.2284496 M137.652651,60.7860837 C136.780234,60.7860837 136.006402,61.1762703 135.471608,61.7824773 L135.471608,65.6195376 C136.006402,66.2257445 136.780234,66.6159312 137.652651,66.6159312 C139.262437,66.6159312 140.569712,65.3103586 140.569712,63.7023576 C140.569712,62.0916563 139.262437,60.7860837 137.652651,60.7860837 M157.100265,60.7860837 C155.489129,60.7860837 154.183204,62.0916563 154.183204,63.7023576 C154.183204,65.3103586 155.489129,66.6159312 157.100265,66.6159312 C158.7087,66.6159312 160.017326,65.3103586 160.017326,63.7023576 C160.017326,62.0916563 158.7087,60.7860837 157.100265,60.7860837 M166.824072,128.832339 C166.219052,128.832339 165.658598,129.015956 165.192679,129.330536 C164.417497,129.854385 163.907011,130.742769 163.907011,131.748613 C163.907011,132.755808 164.417497,133.644191 165.192679,134.16804 C165.658598,134.48397 166.219052,134.666237 166.824072,134.666237 C167.828837,134.666237 168.71611,134.155889 169.241451,133.380916 C169.554765,132.913773 169.739783,132.35347 169.739783,131.748613 C169.739783,131.145106 169.554765,130.583454 169.241451,130.11901 C168.71611,129.342687 167.828837,128.832339 166.824072,128.832339 M166.824072,109.389973 C166.219052,109.389973 165.658598,109.573591 165.192679,109.88817 C164.417497,110.412019 163.907011,111.300403 163.907011,112.306247 C163.907011,113.313442 164.417497,114.200475 165.192679,114.725674 C165.658598,115.040254 166.219052,115.222521 166.824072,115.222521 C167.828837,115.222521 168.71611,114.713523 169.241451,113.9372 C169.554765,113.471407 169.739783,112.911104 169.739783,112.306247 C169.739783,111.70274 169.554765,111.141088 169.241451,110.676644 C168.71611,109.900321 167.828837,109.389973 166.824072,109.389973 M147.376458,128.832339 C145.765322,128.832339 144.459397,130.137912 144.459397,131.748613 C144.459397,133.360664 145.765322,134.666237 147.376458,134.666237 C148.986244,134.666237 150.293519,133.360664 150.293519,131.748613 C150.293519,130.137912 148.986244,128.832339 147.376458,128.832339 M147.376458,109.389973 C145.765322,109.389973 144.459397,110.695546 144.459397,112.306247 C144.459397,113.918299 145.765322,115.222521 147.376458,115.222521 C148.986244,115.222521 150.293519,113.918299 150.293519,112.306247 C150.293519,110.695546 148.986244,109.389973 147.376458,109.389973 M137.652651,119.113181 C136.780234,119.113181 136.006402,119.503368 135.471608,120.109575 L135.471608,123.946635 C136.006402,124.552842 136.780234,124.943029 137.652651,124.943029 C139.262437,124.943029 140.569712,123.637456 140.569712,122.026755 C140.569712,120.418754 139.262437,119.113181 137.652651,119.113181 M157.100265,119.113181 C155.489129,119.113181 154.183204,120.418754 154.183204,122.026755 C154.183204,123.637456 155.489129,124.943029 157.100265,124.943029 C158.7087,124.943029 160.017326,123.637456 160.017326,122.026755 C160.017326,120.418754 158.7087,119.113181 157.100265,119.113181 M137.652651,99.6708155 C136.780234,99.6708155 136.006402,100.061002 135.471608,100.667209 L135.471608,104.504269 C136.006402,105.110476 136.780234,105.500663 137.652651,105.500663 C139.262437,105.500663 140.569712,104.19509 140.569712,102.587089 C140.569712,100.976388 139.262437,99.6708155 137.652651,99.6708155 M157.100265,99.6708155 C155.489129,99.6708155 154.183204,100.976388 154.183204,102.587089 C154.183204,104.19509 155.489129,105.500663 157.100265,105.500663 C158.7087,105.500663 160.017326,104.19509 160.017326,102.587089 C160.017326,100.976388 158.7087,99.6708155 157.100265,99.6708155 M166.824072,51.0636856 C166.219052,51.0636856 165.658598,51.2473029 165.192679,51.5618824 C164.417497,52.0857316 163.907011,52.9727649 163.907011,53.9799595 C163.907011,54.9871541 164.417497,55.8741874 165.192679,56.3993867 C165.658598,56.7139663 166.219052,56.8975835 166.824072,56.8975835 C167.828837,56.8975835 168.71611,56.3872356 169.241451,55.6109127 C169.554765,55.1451189 169.739783,54.5834662 169.739783,53.9799595 C169.739783,53.3751027 169.554765,52.8148001 169.241451,52.3490063 C168.71611,51.5726834 167.828837,51.0636856 166.824072,51.0636856 M147.376458,51.0636856 C145.765322,51.0636856 144.459397,52.3692582 144.459397,53.9799595 C144.459397,55.5906608 145.765322,56.8975835 147.376458,56.8975835 C148.986244,56.8975835 150.293519,55.5906608 150.293519,53.9799595 C150.293519,52.3692582 148.986244,51.0636856 147.376458,51.0636856 M147.376458,31.6213197 C145.765322,31.6213197 144.459397,32.9268923 144.459397,34.5375936 C144.459397,36.1482948 145.765322,37.4538675 147.376458,37.4538675 C148.986244,37.4538675 150.293519,36.1482948 150.293519,34.5375936 C150.293519,32.9268923 148.986244,31.6213197 147.376458,31.6213197 M137.652651,41.3438528 C136.780234,41.3438528 136.006402,41.7340394 135.471608,42.3402464 L135.471608,46.1773067 C136.006402,46.7835136 136.780234,47.1737003 137.652651,47.1737003 C139.262437,47.1737003 140.569712,45.8694778 140.569712,44.2574264 C140.569712,42.6494254 139.262437,41.3438528 137.652651,41.3438528 M157.100265,41.3438528 C155.489129,41.3438528 154.183204,42.6494254 154.183204,44.2574264 C154.183204,45.8694778 155.489129,47.1737003 157.100265,47.1737003 C158.7087,47.1737003 160.017326,45.8694778 160.017326,44.2574264 C160.017326,42.6494254 158.7087,41.3438528 157.100265,41.3438528 M137.652651,21.9014869 C136.780234,21.9014869 136.006402,22.2916735 135.471608,22.8978804 L135.471608,26.7349408 C136.006402,27.3411477 136.780234,27.7313344 137.652651,27.7313344 C139.262437,27.7313344 140.569712,26.4271119 140.569712,24.8177607 C140.569712,23.2070595 139.262437,21.9014869 137.652651,21.9014869 M157.100265,21.9014869 C155.489129,21.9014869 154.183204,23.2070595 154.183204,24.8177607 C154.183204,26.4271119 155.489129,27.7313344 157.100265,27.7313344 C158.7087,27.7313344 160.017326,26.4271119 160.017326,24.8177607 C160.017326,23.2070595 158.7087,21.9014869 157.100265,21.9014869" id="Shape" fill="#FEFEFE" fill-rule="nonzero"></path>
                                                <polygon id="Path" fill="#302A36" fill-rule="nonzero" points="0.422 135.013 135.471 135.013 135.471 0 0.422 0"></polygon>
                                                <polygon id="Path" fill="#0CBBCD" fill-rule="nonzero" points="135.471 135.013 67.928 135.013 0.422 67.485 0.438 0"></polygon>
                                                <polygon id="Path" fill="#0CBBCD" fill-rule="nonzero" points="136.309 -0.001 136.309 67.506 68.784 -0.001"></polygon>
                                            </g>
                                        </g>
                                    </g>
                                </g>
                            </g>
                        </g>
                        <g transform="translate(0.000000, 0.466000)">
                            <g transform="translate(62.136000, 0.000000)" fill-rule="nonzero" id="Path">
                                <path d="M38.4507252,26.9791599 C42.6297524,34.7781143 42.1331754,54.5608087 36.732155,55.9546994 C34.5782097,56.5105878 29.9896363,55.1488608 25.3195671,52.3305173 L28.2510119,73.0936794 L10.943,73.0936794 L16.9018106,45.2879978 C13.5785565,41.3825361 11.3292698,36.5962865 11.7051124,31.233135 C12.7879837,15.7809138 34.271698,19.1802056 38.4507252,26.9791599 Z" fill="#F1C0A6"></path>
                                <path d="M31.6141981,18.4845528 C29.2491725,17.7625024 25.8159863,17.517632 24.3717469,17.6832848 C25.1932961,15.7125058 25.5192989,13.5168208 25.2535279,11.3789339 C24.99521,9.3015806 24.0681033,7.53277458 23.210669,5.67927957 C22.8154354,4.82493968 22.3675335,3.97525622 21.6997384,3.3217834 C21.0194664,2.65602923 20.1583331,2.21657793 19.2553523,2.00692182 C18.331282,1.79231825 17.3650328,1.81018733 16.4395271,2.00494284 C16.0301052,2.09108693 15.6627516,2.27850855 15.2612244,2.38269634 C14.8500357,2.48944517 14.6505695,2.23176955 14.3521154,1.97281342 C13.6328665,1.34885077 12.5784503,1.04082742 11.6685133,0.93058626 C10.6476083,0.80695784 9.5882786,0.96114413 8.6146316,1.29716431 C7.6669323,1.62427906 6.7564984,2.15546218 6.0713128,2.92930391 C5.7662338,3.27376389 5.4893108,3.66583594 5.309333,4.09871002 C5.23552,4.27635312 5.2233191,4.38158861 5.0462672,4.44666232 C4.8825205,4.50690499 4.6910042,4.50865115 4.5220128,4.56598354 C2.8879685,5.12009962 1.4908767,6.38420603 0.7301667,8.0072656 C0.2863502,8.9541522 0.0761184,10.6212848 0.1337003,12.4898666 C0.1912821,14.3584483 1.8764489,19.2341113 3.45258,21.0125213 C4.8594436,22.5999009 6.9273669,23.6474247 8.9230783,24.1059674 C7.5984193,25.6219289 6.7166383,27.5162842 6.0645774,29.4428852 C5.3563149,31.5356629 4.917964,33.7101611 4.7560944,35.9257523 C4.6023403,38.0308114 4.5880966,40.2569378 5.080993,42.3170622 C5.5420896,44.2436051 6.5281584,45.8240582 8.1742932,46.8267057 C8.928323,47.286005 9.7396035,47.6310471 10.5555767,47.9464043 C11.3597354,48.2571633 12.1663232,48.5593079 13.0086857,48.7336915 C14.602925,49.0636001 16.4398584,49.0069662 17.6679035,47.7364572 C18.1105055,47.2784383 18.5972738,46.7029026 18.9201849,46.1433734 C19.0362872,45.9421571 19.1062909,45.8105546 18.9652346,45.6138783 C18.7962431,45.3783207 18.5229087,45.1978256 18.3058311,45.0135471 C17.0679038,43.9628801 16.3016177,42.5602447 16.1084452,40.8933564 C15.9124571,39.2020801 16.366211,37.0190839 18.0085364,36.2809803 C20.0358267,35.3698319 22.2684353,36.4156678 24.0703116,37.3905512 C24.8361008,34.6844625 26.4084777,32.2479233 28.8736773,31.0066334 C31.6010041,29.6333917 34.7305759,29.4726864 37.5333167,28.2944331 C38.2636624,27.9873992 39.007534,27.6388649 39.5452592,27.0132725 C39.7699555,26.7518135 40.0335733,26.4126502 40.1232862,26.0668515 C40.2411551,25.612616 39.9485531,25.2317776 39.7225319,24.8776556 C38.5240782,23.0000053 33.9792237,19.2066032 31.6141981,18.4845528 Z" fill="#191847"></path>
                            </g>
                            <g transform="translate(35.000000, 133.023000)" fill-rule="nonzero" id="Path">
                                <polygon fill="#F1C0A6" points="32.309 0 58.726 91.142 71.152 159.573 83.623 159.573 71.174 0"></polygon>
                                <polygon fill-opacity="0.1" fill="#000000" points="32.309 0 58.726 91.142 71.152 159.573 83.623 159.573 71.174 0"></polygon>
                                <path d="M20.4373462,0 C22.2806333,47.3478952 21.5536677,73.1727238 21.141118,77.4744859 C20.7285683,81.7762481 18.3864932,110.586567 2.4268887,161.01724 L15.3980071,161.01724 C36.5338785,112.637626 43.912209,83.8273072 46.336333,77.4744859 C48.760458,71.1216646 55.919979,45.296836 66.372563,0 L20.4373462,0 Z" fill="#F1C0A6"></path>
                                <path d="M31.7422987,8.2087627e-14 C38.6137612,31.3622775 50.498446,81.4244388 67.396354,150.186484 L85.636866,150.186484 C86.984136,79.608821 81.252913,33.1569117 71.327867,8.2087627e-14 L31.7422987,8.2087627e-14 Z" fill="#64717D"></path>
                                <path d="M20.3451748,0 C22.1504334,47.3478952 17.4719912,93.9945399 2.9798944,150.923667 L22.4415173,150.923667 C43.616246,103.266103 58.792856,56.8496424 69.16506,0 L20.3451748,0 Z" fill="#73899D"></path>
                            </g>
                            <g transform="translate(0.145000, 5.112000)">
                                <path d="M17.8345766,137.17268 L31.4812558,144.766175 L18.0166794,169.711815 C17.7579583,181.157142 16.8326084,186.591487 15.2406299,186.01485 C12.8526621,185.149894 13.8528859,181.855183 12.3344051,181.010246 C10.8819452,180.202046 7.3858777,183.151488 4.0845791,186.252636 L3.6358195,186.676122 C0.2078079,189.924861 -0.04931074,187.424371 0.1792388,185.901298 C2.0954572,180.626998 5.224988,174.978833 9.567831,168.956805 L9.567831,168.956805 L17.8345766,137.17268 Z M141.271342,3.7204369 C141.239368,4.0059523 141.208174,4.2926009 141.178274,4.5790439 L141.120351,5.1512587 C140.766367,8.7685233 140.675081,12.2095564 141.89298,12.7531029 C143.271129,13.3681687 145.029467,10.943459 146.875677,12.153922 C148.106484,12.9608973 144.827825,16.4554326 137.039701,22.6375279 L126.804163,45.1014395 L114.418657,39.5738063 L132.103524,17.1459333 C134.003791,10.9617698 136.279052,5.8191437 138.929307,1.718055 C139.864297,0.7601089 141.729629,-0.3719502 141.271342,3.7204369 Z" id="Shape" fill="#F1C0A6" fill-rule="nonzero"></path>
                                <g id="voty_screen_vote_now-j-link" transform="translate(96.062000, 56.692000) rotate(-90.000000) translate(-96.062000, -56.692000) translate(62.062000, 15.192000)" fill="#0061AA" fill-rule="nonzero">
                                    <path d="M0.29213144,3.72447696 L7.9580329,0.42722112 C21.0070962,26.2097953 39.2422688,50.6655881 67.8391318,70.1695686 L62.2361247,82.1163468 C38.0614409,69.5751423 19.9559801,53.879239 3.6163059,41.6734875 C-2.01271448,37.4686041 0.77323978,12.0545504 0.29213144,3.72447696 Z" id="voty_screen_vote_now-j"></path>
                                </g>
                                <path d="M54.9050445,139.464433 C77.5773329,141.871268 95.422911,141.871268 108.441778,139.464433 C110.054729,139.166243 110.309193,136.462428 109.561189,134.627393 C97.912824,106.05112 89.9251395,81.1167149 89.9251395,61.2682791 C87.7878111,62.3471313 84.0472849,62.5088108 78.7035608,61.7533176 C64.3423834,82.2077688 57.7410616,105.676911 54.9050445,139.464433 Z" id="Path" fill="#323337" fill-rule="nonzero"></path>
                                <g transform="translate(10.764000, 59.317000)" id="Clipped">
                                    <mask id="mask-8" fill="white">
                                        <use xlink:href="#path-7"></use>
                                    </mask>
                                    <g id="voty_screen_vote_now-k"></g>
                                    <g id="Group" mask="url(#mask-8)">
                                        <g transform="translate(0.870000, -25.272000)">
                                            <g id="Group" stroke="none" stroke-width="1" fill="none" fill-rule="evenodd" transform="translate(0.000000, 0.673000)">
                                                <g id="Clipped">
                                                    <mask id="mask-10" fill="white">
                                                        <use xlink:href="#path-9"></use>
                                                    </mask>
                                                    <g id="voty_screen_vote_now-m"></g>
                                                    <path d="M117.743448,169.683 L117.743448,169.683 C104.737919,169.683 94.1951766,159.127345 94.1951766,146.105888 L94.1951766,0.0488106073 L-7.21167161e-05,0.0488106073 L-7.21167161e-05,185.566665 L0.109545292,185.566665 L0.109545292,116.443336 C0.109545292,90.4372462 21.1373374,69.3490422 47.0971917,69.289834 L47.0971917,69.2883899 L47.0971917,39.8294555 C47.0971917,26.8079986 57.6406556,16.2523437 70.6461842,16.2523437 C83.6517127,16.2523437 94.1951766,26.8079986 94.1951766,39.8294555 L94.1951766,108.728949 C94.1951766,109.813469 94.1201753,110.879937 93.9788265,111.925466 C94.1201753,113.412168 94.1951766,114.919087 94.1951766,116.443336 L94.1951766,185.566665 L141.29244,185.566665 L141.29244,146.105888 C141.29244,159.127345 130.748977,169.683 117.743448,169.683" id="Path" fill="#0671B5" fill-rule="nonzero" mask="url(#mask-10)"></path>
                                                </g>
                                            </g>
                                            <path d="M47.1525773,69.962063 C47.1706065,69.962063 47.1886357,69.9613409 47.207386,69.9613409 L47.207386,69.962785 C71.6462988,70.0183829 91.7106115,88.7108237 93.9786823,112.598417 C94.120031,111.552888 94.1950324,110.48642 94.1950324,109.4019 L94.1950324,40.5024065 C94.1950324,27.4809495 83.6515685,16.9252947 70.6460399,16.9252947 C57.6405113,16.9252947 47.0970474,27.4809495 47.0970474,40.5024065 L47.0970474,69.9613409 L47.0977686,69.9613409 C47.1157978,69.9613409 47.133827,69.962063 47.1525773,69.962063" id="Path" stroke="none" fill="#154EA2" fill-rule="nonzero"></path>
                                            <path d="M47.0972638,69.962785 C21.1366883,70.0219931 0.109617409,91.1101972 0.109617409,117.116287 L0.109617409,186.239616 L47.0972638,186.239616 L47.0972638,109.4019 L47.0972638,69.962785 Z" id="Path" stroke="#0061AA" stroke-width="0.721" fill="#0061AA" fill-rule="nonzero"></path>
                                            <path d="M47.2074581,69.962785 L47.2074581,111.681413 C48.3526716,123.633514 58.4086265,132.979012 70.646112,132.979012 C82.5684476,132.979012 92.4203121,124.107179 93.9787544,112.598417 C91.7099625,88.7108237 71.6463709,70.0183829 47.2074581,69.962785" id="Path" stroke="#0671B5" stroke-width="0.721" fill="#0671B5" fill-rule="nonzero"></path>
                                        </g>
                                    </g>
                                </g>
                            </g>
                        </g>
                    </g>
                </g>
            </g>
            <line x1="18.5" y1="155.5" x2="494.5" y2="155.5" id="Line" stroke="#979797" stroke-linecap="square" mask="url(#mask-2)"></line>
        </g>
    </g>
</svg>