<?xml version="1.0" encoding="utf-8"?>
<!-- Generator: Adobe Illustrator 24.3.0, SVG Export Plug-In . SVG Version: 6.00 Build 0)  -->
<svg version="1.1" id="Ebene_1" xmlns="http://www.w3.org/2000/svg" xmlns:xlink="http://www.w3.org/1999/xlink" x="0px" y="0px"
	 viewBox="0 0 375 790" style="enable-background:new 0 0 375 790;" xml:space="preserve">
<style type="text/css">
	.st0{fill-rule:evenodd;clip-rule:evenodd;fill:#313131;}
	.st1{opacity:0.26;fill:none;stroke:#A7AAAB;stroke-width:22;stroke-linecap:round;stroke-linejoin:round;}
	.st2{opacity:0.2619;}
	.st3{fill:none;stroke:#A7AAAB;stroke-width:22;stroke-linecap:round;stroke-linejoin:round;}
</style>
<rect y="0" class="st0" width="375" height="790"/>
<path class="st1" d="M324.6-2.8c37.3,0,67.5,30.2,67.5,67.5s-30.2,67.5-67.5,67.5s-67.5-30.2-67.5-67.5S287.4-2.8,324.6-2.8z
	 M266.5,30.4c32.4,33.6,82.2,43.6,125.1,25.1"/>
<path id="Path_1_" class="st1" d="M324.6,154.7c-62.1,0-112.5,50.4-112.5,112.5h225C437.1,205,386.8,154.7,324.6,154.7z"/>
<g id="couple-man-woman-copy-2" transform="translate(212.000000, 501.000000)" class="st2">
	<circle id="Oval_1_" class="st3" cx="112.7" cy="67.7" r="67.5"/>
	<path id="Path_2_" class="st3" d="M54.5,33.4C86.9,66.9,136.7,77,179.5,58.5"/>
	<path id="Path_3_" class="st3" d="M112.7,157.7C50.5,157.7,0.2,208,0.2,270.2h225C225.1,208,174.8,157.7,112.7,157.7z"/>
</g>
<g id="couple-man-woman-copy" transform="translate(-335.000000, 262.000000)" class="st2">
	<path id="Path_4_" class="st3" d="M487.1,138.4c-9-14.8-13.5-31.8-12.9-49.1V69.2c0-38.1-30.9-69.1-69.1-69.1s-69.1,30.9-69.1,69.1
		v20.1c0.6,17.3-3.9,34.3-12.9,49.1"/>
	<path id="Path_5_" class="st3" d="M336.1,80.7c26.5,0,51.7-11.6,69.1-31.7c17.3,20.1,42.5,31.6,69.1,31.7"/>
	<path id="Path_6_" class="st3" d="M344.5,80.3c3.1,31.1,29.3,54.9,60.6,54.9s57.5-23.7,60.6-54.9"/>
	<path id="Path_7_" class="st3" d="M405.1,157.7c-62.1,0-112.5,50.4-112.5,112.5h225C517.7,208,467.3,157.7,405.1,157.7z"/>
</g>
</svg>
