<?xml version="1.0" encoding="UTF-8"?>
<svg width="218px" height="252px" viewBox="0 0 218 252" version="1.1" xmlns="http://www.w3.org/2000/svg" xmlns:xlink="http://www.w3.org/1999/xlink">
    <title>Modul 1</title>
    <g id="Modul-1" stroke="none" stroke-width="1" fill="none" fill-rule="evenodd">
        <g id="Modul-Icon" transform="translate(2.000000, 2.000000)">
            <path d="M213.6655,192.5397 C213.6655,202.6307 205.4855,210.8107 195.3945,210.8107 L19.1845,210.8107 C15.6005,210.8107 12.0375,209.9077 9.0115,207.9877 C3.5535,204.5227 0.4205,198.5567 0.49996718,192.2977 L0.49996718,76.6297 C0.49996718,66.5307 8.6755,58.3367 18.7735,58.3097 L36.5615,58.3097 L197.7915,58.3097 C206.5595,58.3097 213.6655,65.4167 213.6655,74.1837 L213.6655,192.2977 L213.6655,186.2077 L213.6655,165.4227" id="Stroke-1" stroke="#000000" stroke-width="5" stroke-linecap="round" stroke-linejoin="round"></path>
            <path d="M195.395,210.810275 C205.466,210.810275 213.639,202.6602 213.666,192.5872 L213.666,186.2072 L0.499480263,186.2072 L0.499480263,192.3462 C0.438,197.2292 2.336,201.9342 5.771,205.4052 C9.207,208.8762 13.891,210.8242 18.774,210.810275 L195.395,210.810275 Z" id="Stroke-3" stroke="#000000" stroke-width="5" fill="#B9C2C6" stroke-linecap="round" stroke-linejoin="round"></path>
            <polygon id="Stroke-5" stroke="#000000" stroke-width="5" stroke-linecap="round" stroke-linejoin="round" points="125.3559 234.9782 88.8129 234.9782 91.8589 210.5692 122.3099 210.5692"></polygon>
            <path d="M146.6713,247.111 L67.4973,247.111 C67.5243,240.403 72.9693,234.978 79.6783,234.978 L134.4903,234.978 C141.1993,234.978 146.6453,240.403 146.6713,247.111 Z" id="Stroke-7" stroke="#000000" stroke-width="5" stroke-linecap="round" stroke-linejoin="round"></path>
            <path d="M195.8696,140.5783 C195.8446,147.3023 190.4136,152.7543 183.6886,152.8073 L31.4306,152.8073 C24.7146,152.7803 19.2756,147.3423 19.2496,140.6263 L19.2496,37.0423 L195.8696,37.0423 L195.8696,140.5783 Z" id="Fill-9" fill="#B9C2C6"></path>
            <g id="BH" transform="translate(81.000000, 48.000000)" stroke="#000000" stroke-linecap="round" stroke-linejoin="round">
                <line x1="62.5" y1="39" x2="62.5" y2="21" id="Stroke-1" stroke-width="5"></line>
                <line x1="29.5" y1="39" x2="29.5" y2="21" id="Stroke-2" stroke-width="5"></line>
                <polygon id="Stroke-3" stroke-width="5" points="46 30 18 46 74 46"></polygon>
                <line x1="25" y1="21.5" x2="68" y2="21.5" id="Stroke-4" stroke-width="6"></line>
                <g id="Group-35">
                    <path d="M49.4109238,6.62045455 L42.8611143,6.62045455 L42.8611143,3.33327273 C42.8611143,1.52509091 44.3345905,0.0507272727 46.136019,0.0507272727 C47.9374476,0.0507272727 49.4109238,1.52509091 49.4109238,3.33327273 L49.4109238,6.62045455 Z" id="Stroke-5" stroke-width="5"></path>
                    <polyline id="Stroke-7" stroke-width="5" points="16.6761952 52.9094455 0.310909524 52.9094455 0.310909524 96.6813545 91.9620524 96.6813545 91.9620524 52.9094455 75.5967667 52.9094455"></polyline>
                    <path d="M33.3347905,96.6808909 L33.3347905,87.1160727 C33.3347905,84.3249818 31.2054095,82.1876182 28.4247429,82.1876182 C25.6394571,82.1876182 23.5146952,84.3249818 23.5146952,87.1160727 L23.5146952,96.6808909" id="Stroke-9" stroke-width="5"></path>
                    <path d="M51.810981,96.6808909 L51.810981,87.1160727 C51.810981,84.3249818 49.6816,82.1876182 46.9009333,82.1876182 C44.1202667,82.1876182 41.9908857,84.3249818 41.9908857,87.1160727 L41.9908857,96.6808909" id="Stroke-11" stroke-width="5"></path>
                    <path d="M70.2871714,96.6808909 L70.2871714,87.1160727 C70.2871714,84.3249818 68.1577905,82.1876182 65.3771238,82.1876182 C62.5964571,82.1876182 60.4670762,84.3249818 60.4670762,87.1160727 L60.4670762,96.6808909" id="Stroke-13" stroke-width="5"></path>
                    <line x1="10.4196952" y1="60.8329909" x2="10.4196952" y2="64.1155364" id="Stroke-15" stroke-width="5"></line>
                    <line x1="83.0888619" y1="60.8329909" x2="83.0888619" y2="64.1155364" id="Stroke-17" stroke-width="5"></line>
                    <line x1="10.7106952" y1="72.6232636" x2="81.5576476" y2="72.6232636" id="Stroke-19" stroke-width="5"></line>
                    <line x1="23.0412429" y1="52.6173545" x2="23.0412429" y2="69.3360818" id="Stroke-21" stroke-width="5"></line>
                    <line x1="32.2793381" y1="52.6173545" x2="32.2793381" y2="69.3360818" id="Stroke-23" stroke-width="5"></line>
                    <line x1="41.5174333" y1="52.6173545" x2="41.5174333" y2="69.3360818" id="Stroke-25" stroke-width="5"></line>
                    <line x1="69.231719" y1="52.6173545" x2="69.231719" y2="69.3360818" id="Stroke-27" stroke-width="5"></line>
                    <line x1="59.9936238" y1="52.6173545" x2="59.9936238" y2="69.3360818" id="Stroke-29" stroke-width="5"></line>
                    <line x1="50.7555286" y1="52.6173545" x2="50.7555286" y2="69.3360818" id="Stroke-31" stroke-width="5"></line>
                    <path d="M29.0021238,20.4035 C31.3393619,11.8262273 38.1293619,5.62277273 46.1341714,5.62277273 C54.148219,5.62277273 60.938219,11.8262273 63.2708381,20.4035" id="Stroke-33" stroke-width="6"></path>
                </g>
            </g>
            <path d="M195.8696,140.5783 C195.8446,147.3023 190.4136,152.7543 183.6886,152.8073 L31.4306,152.8073 C24.7146,152.7803 19.2756,147.3423 19.2496,140.6263 L19.2496,37.0423 L195.8696,37.0423 L195.8696,140.5783 Z" id="Stroke-11" stroke="#000000" stroke-width="5" stroke-linecap="round" stroke-linejoin="round"></path>
            <path d="M195.8696,37.0422 L19.2496,37.0422 L19.2496,12.6322 C19.2756,5.9242 24.7226,0.5002 31.4306,0.5002 L183.6886,0.5002 C190.3876,0.5262 195.8166,5.9352 195.8696,12.6322 L195.8696,36.8002 L195.8696,37.0422 Z" id="Fill-13" fill="#8F969B"></path>
            <path d="M195.8696,37.0422 L19.2496,37.0422 L19.2496,12.6322 C19.2756,5.9242 24.7226,0.5002 31.4306,0.5002 L183.6886,0.5002 C190.3876,0.5262 195.8166,5.9352 195.8696,12.6322 L195.8696,36.8002 L195.8696,37.0422 Z" id="Stroke-15" stroke="#000000" stroke-width="5" stroke-linecap="round" stroke-linejoin="round"></path>
            <path d="M37.5209,12.6325 C40.0119,12.6125 42.2679,14.1015 43.2309,16.3995 C44.1939,18.6975 43.6709,21.3495 41.9099,23.1115 C40.1479,24.8735 37.4959,25.3955 35.1979,24.4325 C32.8989,23.4705 31.4109,21.2145 31.4299,18.7225 C31.4569,15.3695 34.1679,12.6585 37.5209,12.6325 Z" id="Stroke-17" stroke="#000000" stroke-width="5" stroke-linecap="round" stroke-linejoin="round"></path>
            <path d="M61.8823,12.6325 C64.3733,12.6125 66.6303,14.1015 67.5923,16.3995 C68.5553,18.6975 68.0323,21.3495 66.2713,23.1115 C64.5093,24.8735 61.8573,25.3955 59.5593,24.4325 C57.2603,23.4705 55.7723,21.2145 55.7913,18.7225 C55.8183,15.3695 58.5293,12.6585 61.8823,12.6325 Z" id="Stroke-19" stroke="#000000" stroke-width="5" stroke-linecap="round" stroke-linejoin="round"></path>
            <path d="M86.2436,12.6325 C88.7346,12.6125 90.9916,14.1015 91.9536,16.3995 C92.9166,18.6975 92.3936,21.3495 90.6326,23.1115 C88.8706,24.8735 86.2186,25.3955 83.9206,24.4325 C81.6226,23.4705 80.1336,21.2145 80.1526,18.7225 C80.1796,15.3695 82.8906,12.6585 86.2436,12.6325 Z" id="Stroke-21" stroke="#000000" stroke-width="5" stroke-linecap="round" stroke-linejoin="round"></path>
            <path d="M61.8823,56.1349 C61.8823,58.8039 59.7183,60.9679 57.0483,60.9679 L42.5963,60.9679 C41.2733,61.0349 39.9803,60.5549 39.0212945,59.6409 C38.0613,58.7269 37.5193,57.4599 37.5212945,56.1349 L37.5212945,54.1049 C37.5193,52.7799 38.0613,51.5119 39.0212945,50.5979 C39.9803,49.6849 41.2733,49.2049 42.5963,49.2709 L56.8073,49.2709 C59.4763,49.2709 61.6403,51.4349 61.6403,54.1049 L61.8823,56.1349 Z" id="Stroke-35" stroke="#000000" stroke-width="5" stroke-linecap="round" stroke-linejoin="round"></path>
            <line x1="37.5209" y1="73.5358" x2="61.8819" y2="73.5358" id="Stroke-39" stroke="#000000" stroke-width="5" stroke-linecap="round" stroke-linejoin="round"></line>
            <line x1="37.5209" y1="85.7648" x2="61.8819" y2="85.7648" id="Stroke-41" stroke="#000000" stroke-width="5" stroke-linecap="round" stroke-linejoin="round"></line>
            <line x1="37.5209" y1="97.9455" x2="61.8819" y2="97.9455" id="Stroke-43" stroke="#000000" stroke-width="5" stroke-linecap="round" stroke-linejoin="round"></line>
            <line x1="37.5209" y1="110.0778" x2="61.8819" y2="110.0778" id="Stroke-45" stroke="#000000" stroke-width="5" stroke-linecap="round" stroke-linejoin="round"></line>
            <line x1="37.5209" y1="122.2585" x2="61.8819" y2="122.2585" id="Stroke-47" stroke="#000000" stroke-width="5" stroke-linecap="round" stroke-linejoin="round"></line>
            <line x1="37.5209" y1="134.4396" x2="52.7469" y2="134.4396" id="Stroke-49" stroke="#000000" stroke-width="5" stroke-linecap="round" stroke-linejoin="round"></line>
            <path d="M107.0844,200.9499 C108.4724,200.9499 109.5984,199.8249 109.5984,198.4359 C109.5984,197.0489 108.4724,195.9229 107.0844,195.9229 C105.6954,195.9229 104.5704,197.0489 104.5704,198.4359 C104.5704,199.8249 105.6954,200.9499 107.0844,200.9499 Z" id="Stroke-51" stroke="#000000" stroke-width="5" stroke-linecap="round" stroke-linejoin="round"></path>
        </g>
        <path d="M165.815217,77.8135754 L165.815217,76.7588879 C165.815217,76.0557629 165.964631,75.4874035 166.26346,75.0538098 C166.562288,74.620216 167.274202,73.9874035 168.399202,73.1553723 C170.039827,71.9834973 171.153108,70.9288098 171.739045,69.9913098 C172.324983,69.0538098 172.617952,67.9405285 172.617952,66.651466 C172.617952,64.7178723 171.906038,63.1709973 170.48221,62.010841 C169.058381,60.8506848 167.139436,60.2706067 164.725374,60.2706067 C161.795686,60.2706067 159.024202,61.0030285 156.41092,62.4678723 L156.41092,62.4678723 L158.326936,66.3174817 C160.576936,65.1690442 162.580842,64.5948254 164.338655,64.5948254 C165.346467,64.5948254 166.131624,64.7940442 166.694124,65.1924817 C167.256624,65.5909192 167.537874,66.1709973 167.537874,66.932716 C167.537874,67.6124035 167.341585,68.2276379 166.949006,68.7784192 C166.556428,69.3292004 165.744905,70.0440442 164.514436,70.9229504 C163.237092,71.8604504 162.358186,72.745216 161.877717,73.5772473 C161.397249,74.4092785 161.157014,75.3877942 161.157014,76.5127942 L161.157014,76.5127942 L161.157014,77.8135754 L165.815217,77.8135754 Z M163.688264,86.8135754 C164.649202,86.8135754 165.399202,86.5469739 165.938264,86.0137707 C166.477327,85.4805676 166.746858,84.7510754 166.746858,83.8252942 C166.746858,82.8643567 166.480256,82.1260754 165.947053,81.6104504 C165.41385,81.0948254 164.66092,80.8370129 163.688264,80.8370129 C162.680452,80.8370129 161.912874,81.088966 161.38553,81.5928723 C160.858186,82.0967785 160.594514,82.8409192 160.594514,83.8252942 C160.594514,84.7745129 160.864045,85.5098645 161.403108,86.0313489 C161.94217,86.5528332 162.703889,86.8135754 163.688264,86.8135754 Z" id="?" fill="#FF0000" fill-rule="nonzero" transform="translate(164.514436, 73.542091) rotate(19.000000) translate(-164.514436, -73.542091) "></path>
        <path d="M91.0061812,77.9862573 L91.0061812,76.9315698 C91.0061812,76.2284448 91.1555953,75.6600854 91.4544234,75.2264916 C91.7532516,74.7928979 92.4651656,74.1600854 93.5901656,73.3280541 C95.2307906,72.1561791 96.3440719,71.1014916 96.9300094,70.1639916 C97.5159469,69.2264916 97.8089156,68.1132104 97.8089156,66.8241479 C97.8089156,64.8905541 97.0970016,63.3436791 95.6731734,62.1835229 C94.2493453,61.0233666 92.3304,60.4432885 89.9163375,60.4432885 C86.98665,60.4432885 84.2151656,61.1757104 81.6018844,62.6405541 L81.6018844,62.6405541 L83.5179,66.4901635 C85.7679,65.341726 87.7718062,64.7675073 89.5296187,64.7675073 C90.5374312,64.7675073 91.3225875,64.966726 91.8850875,65.3651635 C92.4475875,65.763601 92.7288375,66.3436791 92.7288375,67.1053979 C92.7288375,67.7850854 92.5325484,68.4003198 92.1399703,68.951101 C91.7473922,69.5018823 90.9358687,70.216726 89.7054,71.0956323 C88.4280562,72.0331323 87.54915,72.9178979 87.0686812,73.7499291 C86.5882125,74.5819604 86.3479781,75.560476 86.3479781,76.685476 L86.3479781,76.685476 L86.3479781,77.9862573 L91.0061812,77.9862573 Z M88.8792281,86.9862573 C89.8401656,86.9862573 90.5901656,86.7196557 91.1292281,86.1864526 C91.6682906,85.6532494 91.9378219,84.9237573 91.9378219,83.997976 C91.9378219,83.0370385 91.6712203,82.2987573 91.1380172,81.7831323 C90.6048141,81.2675073 89.8518844,81.0096948 88.8792281,81.0096948 C87.8714156,81.0096948 87.1038375,81.2616479 86.5764937,81.7655541 C86.04915,82.2694604 85.7854781,83.013601 85.7854781,83.997976 C85.7854781,84.9471948 86.0550094,85.6825463 86.5940719,86.2040307 C87.1331344,86.7255151 87.8948531,86.9862573 88.8792281,86.9862573 Z" id="?" fill="#FF0000" fill-rule="nonzero" transform="translate(89.705400, 73.714773) rotate(-26.000000) translate(-89.705400, -73.714773) "></path>
    </g>
</svg>