<?xml version="1.0" encoding="UTF-8"?>
<svg width="425px" height="164px" viewBox="0 0 425 164" version="1.1" xmlns="http://www.w3.org/2000/svg" xmlns:xlink="http://www.w3.org/1999/xlink">
    <title>Logo voty schwarz Copy</title>
    <defs>
        <polygon id="path-1" points="0.00121714286 0 424.330486 0 424.330486 164 0.00121714286 164"></polygon>
    </defs>
    <g id="Page-1" stroke="none" stroke-width="1" fill="none" fill-rule="evenodd">
        <g id="Desktp-Startsite" transform="translate(-491.000000, -52.000000)">
            <g id="Logo-voty-schwarz" transform="translate(491.000000, 52.000000)">
                <mask id="mask-2" fill="white">
                    <use xlink:href="#path-1"></use>
                </mask>
                <g id="Clip-2"></g>
                <path d="M163.93616,101.696198 C149.237131,101.696198 138.678417,90.3316049 138.678417,74.8325926 C138.678417,59.3335802 149.237131,47.9689877 163.93616,47.9689877 C178.432331,47.9689877 188.991046,59.3335802 188.991046,74.8325926 C188.991046,90.3316049 178.432331,101.696198 163.93616,101.696198 L163.93616,101.696198 Z M163.93616,21.5184198 C133.710446,21.5184198 110.105989,45.4887407 110.105989,74.8325926 C110.105989,104.176444 133.710446,128.146765 163.93616,128.146765 C193.959017,128.146765 217.76836,104.176444 217.76836,74.8325926 C217.76836,45.4887407 193.959017,21.5184198 163.93616,21.5184198 L163.93616,21.5184198 Z M273.24776,48.5925926 L299.619189,48.5925926 L299.619189,22.2716049 L271.219189,22.2716049 L271.219189,0 L244.84776,0 L244.84776,22.2716049 L216.44776,22.2716049 L216.44776,48.5925926 L244.84776,48.5925926 L244.84776,127.555556 L301.64776,127.555556 L301.64776,101.234568 L273.24776,101.234568 L273.24776,48.5925926 Z M85.50956,22.2716049 L59.0083029,72.488 L32.5070457,22.2716049 L0.00121714286,22.2716049 L59.0083029,127.247802 L118.017417,22.2716049 L85.50956,22.2716049 Z M391.823846,22.2716049 L365.322589,72.488 L338.821331,22.2716049 L306.315503,22.2716049 L350.660074,101.163704 L317.876331,164 L350.333474,164 L412.697846,42.968 L424.331703,22.2716049 L391.823846,22.2716049 Z" id="Fill-1" fill="#141412" mask="url(#mask-2)"></path>
            </g>
        </g>
    </g>
</svg>