<?xml version="1.0" encoding="UTF-8"?>
<svg width="222px" height="252px" viewBox="0 0 222 252" version="1.1" xmlns="http://www.w3.org/2000/svg" xmlns:xlink="http://www.w3.org/1999/xlink">
    <title>voty_module_3_soon</title>
    <defs>
        <linearGradient x1="0%" y1="28.239%" x2="100%" y2="68.781%" id="linearGradient-1">
            <stop stop-color="#BEF3FD" offset="0%"></stop>
            <stop stop-color="#BEF3FD" stop-opacity="0.662" offset="100%"></stop>
        </linearGradient>
    </defs>
    <g id="Page-1" stroke="none" stroke-width="1" fill="none" fill-rule="evenodd">
        <g id="voty_module_3_soon" transform="translate(4.000000, 2.000000)">
            <path d="M213.6655,192.5397 C213.6655,202.6307 205.4855,210.8107 195.3945,210.8107 L19.1845,210.8107 C15.6005,210.8107 12.0375,209.9077 9.0115,207.9877 C3.5535,204.5227 0.4205,198.5567 0.498491155,192.2977 L0.498491155,76.6297 C0.498491155,66.5307 8.6755,58.3367 18.7735,58.3097 L36.5615,58.3097 L197.7915,58.3097 C206.5595,58.3097 213.6655,65.4167 213.6655,74.1837 L213.6655,192.2977 L213.6655,186.2077 L213.6655,165.4227" id="Path" stroke="#000000" stroke-width="7.5" fill="url(#linearGradient-1)" fill-rule="nonzero" stroke-linecap="round" stroke-linejoin="round"></path>
            <path d="M195.395,210.810349 C205.466,210.810349 213.639,202.6602 213.666,192.5872 L213.666,186.2072 L0.498031883,186.2072 L0.498031883,192.3462 C0.438,197.2292 2.336,201.9342 5.771,205.4052 C9.207,208.8762 13.891,210.8242 18.774,210.810349 L195.395,210.810349 Z" id="Path" stroke="#000000" stroke-width="5" fill="#B9C2C6" fill-rule="nonzero" stroke-linecap="round" stroke-linejoin="round"></path>
            <polygon id="Path" stroke="#000000" stroke-width="5" fill="#73899D" fill-rule="nonzero" stroke-linecap="round" stroke-linejoin="round" points="125.356 234.978 88.813 234.978 91.859 210.978 122.31 210.978"></polygon>
            <path d="M146.6713,247.111 L67.4973,247.111 C67.5243,240.403 72.9693,234.978 79.6783,234.978 L134.4903,234.978 C141.1993,234.978 146.6453,240.403 146.6713,247.111 Z" id="Path" stroke="#000000" stroke-width="5" fill="#D1DADE" fill-rule="nonzero" stroke-linecap="round" stroke-linejoin="round"></path>
            <path d="M195.8696,140.5783 C195.8446,147.3023 190.4136,152.7543 183.6886,152.8073 L31.4306,152.8073 C24.7146,152.7803 19.2756,147.3423 19.2496,140.6263 L19.2496,37.0423 L195.8696,37.0423 L195.8696,140.5783 Z" id="Path" fill="#DEE4E7" fill-rule="nonzero"></path>
            <path d="M195.8696,140.5783 C195.8446,147.3023 190.4136,152.7543 183.6886,152.8073 L31.4306,152.8073 C24.7146,152.7803 19.2756,147.3423 19.2496,140.6263 L19.2496,37.0423 L195.8696,37.0423 L195.8696,140.5783 Z" id="Path" stroke="#000000" stroke-width="5" stroke-linecap="round" stroke-linejoin="round"></path>
            <path d="M195.8696,37.0422 L19.2496,37.0422 L19.2496,12.6322 C19.2756,5.9242 24.7226,0.5002 31.4306,0.5002 L183.6886,0.5002 C190.3876,0.5262 195.8166,5.9352 195.8696,12.6322 L195.8696,36.8002 L195.8696,37.0422 Z" id="Path" fill="#73899D" fill-rule="nonzero"></path>
            <path d="M195.8696,37.0422 L19.2496,37.0422 L19.2496,12.6322 C19.2756,5.9242 24.7226,0.5002 31.4306,0.5002 L183.6886,0.5002 C190.3876,0.5262 195.8166,5.9352 195.8696,12.6322 L195.8696,36.8002 L195.8696,37.0422 Z" id="Path" stroke="#000000" stroke-width="5" stroke-linecap="round" stroke-linejoin="round"></path>
            <path d="M37.5209,12.6325 C40.0119,12.6125 42.2679,14.1015 43.2309,16.3995 C44.1939,18.6975 43.6709,21.3495 41.9099,23.1115 C40.1479,24.8735 37.4959,25.3955 35.1979,24.4325 C32.8989,23.4705 31.4109,21.2145 31.4299,18.7225 C31.4569,15.3695 34.1679,12.6585 37.5209,12.6325 Z M61.8823,12.6325 C64.3733,12.6125 66.6303,14.1015 67.5923,16.3995 C68.5553,18.6975 68.0323,21.3495 66.2713,23.1115 C64.5093,24.8735 61.8573,25.3955 59.5593,24.4325 C57.2603,23.4705 55.7723,21.2145 55.7913,18.7225 C55.8183,15.3695 58.5293,12.6585 61.8823,12.6325 Z M86.2436,12.6325 C88.7346,12.6125 90.9916,14.1015 91.9536,16.3995 C92.9166,18.6975 92.3936,21.3495 90.6326,23.1115 C88.8706,24.8735 86.2186,25.3955 83.9206,24.4325 C81.6226,23.4705 80.1336,21.2145 80.1526,18.7225 C80.1796,15.3695 82.8906,12.6585 86.2436,12.6325 Z M61.8823,56.1349 C61.8823,58.8039 59.7183,60.9679 57.0483,60.9679 L42.5963,60.9679 C41.2733,61.0349 39.9803,60.5549 39.021289,59.6409 C38.0613,58.7269 37.5193,57.4599 37.521289,56.1349 L37.521289,54.1049 C37.5193,52.7799 38.0613,51.5119 39.021289,50.5979 C39.9803,49.6849 41.2733,49.2049 42.5963,49.2709 L56.8073,49.2709 C59.4763,49.2709 61.6403,51.4349 61.6403,54.1049 L61.8823,56.1349 Z" id="Shape" stroke="#000000" stroke-width="5" stroke-linecap="round" stroke-linejoin="round"></path>
            <line x1="37.521" y1="73.536" x2="61.882" y2="73.536" id="Path" stroke="#000000" stroke-width="5" stroke-linecap="round" stroke-linejoin="round"></line>
            <line x1="37.521" y1="85.765" x2="61.882" y2="85.765" id="Path" stroke="#000000" stroke-width="5" stroke-linecap="round" stroke-linejoin="round"></line>
            <line x1="37.521" y1="97.945" x2="61.882" y2="97.945" id="Path" stroke="#000000" stroke-width="5" stroke-linecap="round" stroke-linejoin="round"></line>
            <line x1="37.521" y1="110.078" x2="61.882" y2="110.078" id="Path" stroke="#000000" stroke-width="5" stroke-linecap="round" stroke-linejoin="round"></line>
            <line x1="37.521" y1="122.258" x2="61.882" y2="122.258" id="Path" stroke="#000000" stroke-width="5" stroke-linecap="round" stroke-linejoin="round"></line>
            <line x1="37.521" y1="134.44" x2="52.747" y2="134.44" id="Path" stroke="#000000" stroke-width="5" stroke-linecap="round" stroke-linejoin="round"></line>
            <path d="M107.0844,200.9499 C108.4724,200.9499 109.5984,199.8249 109.5984,198.4359 C109.5984,197.0489 108.4724,195.9229 107.0844,195.9229 C105.6954,195.9229 104.5704,197.0489 104.5704,198.4359 C104.5704,199.8249 105.6954,200.9499 107.0844,200.9499 Z" id="Path" stroke="#000000" stroke-width="5" stroke-linecap="round" stroke-linejoin="round"></path>
            <g id="Group" transform="translate(86.000000, 45.000000)" fill-rule="nonzero" stroke="#000000" stroke-width="4.28">
                <path d="M45.0012763,48.2252874 C49.2049884,48.2734621 52.6399965,44.8837157 52.6399965,40.6925177 L52.6399965,19.0971487 C52.6399965,14.9322278 49.2576995,11.5599995 45.0847356,11.5599995 L7.76526072,11.5599995 C3.59229684,11.5599995 0.2099998,14.9322278 0.2099998,19.0971487 L0.2099998,40.6925177 C0.2099998,44.8530591 3.59229684,48.2252874 7.76526072,48.2252874 L28.577369,48.2252874 C29.4031766,48.2252874 30.0708508,48.890974 30.0708508,49.7143233 L33.365296,58.8499963 L41.9176756,48.501197 L45.0012763,48.2252874 Z" id="Path" fill="#ABB7BC"></path>
                <path d="M50.5093575,35.7352879 C46.3009003,35.7834626 42.8699973,32.3980957 42.8699973,28.2025182 L42.8699973,7.60714916 C42.8699973,3.44660775 46.2525777,0.0699999332 50.4214983,0.0699999332 L87.748493,0.0699999332 C91.9218065,0.0699999332 95.299994,3.44660775 95.299994,7.60714916 L95.299994,28.2025182 C95.299994,32.3630596 91.9218065,35.7352879 87.748493,35.7352879 L66.930248,35.7352879 C66.1087641,35.7352879 65.436641,36.4009745 65.436641,37.2243238 L65.436641,46.3599968 L53.5932165,36.0111975 L50.5093575,35.7352879 Z" id="Path" fill="#B9C2C6"></path>
            </g>
            <path d="M148.237608,60.8820655 L151.731018,64.740081 L163.127231,53.5241282 C163.840036,52.8252906 164.996036,52.8252906 165.712535,53.5241282 L167.908079,55.6711069 C168.624577,56.3735655 168.624577,57.5069136 167.908079,58.2057512 L153.456229,72.3744127 C152.695411,73.1203223 151.465545,73.1203223 150.704727,72.3744127 L143.441987,65.2631521 C142.83998,64.6729421 142.854753,63.7061563 143.475226,63.13043 L145.992087,60.8530981 C146.308711,60.5590159 146.717236,60.4151 147.123653,60.4208941 C147.527893,60.4266572 147.930046,60.5805306 148.237608,60.8820655 Z" id="Path" fill="#2EBA09" fill-rule="nonzero"></path>
            <path d="M113.517707,87.6355768 L113.517707,78.5442682 L113.517707,78.5442682 L122.666633,78.5442682 C123.771202,78.5442682 124.666633,77.6488377 124.666633,76.5442682 L124.666633,74.2351862 C124.666633,73.1306167 123.771202,72.2351862 122.666633,72.2351862 L113.517707,72.2351862 L113.517707,72.2351862 L113.517707,62.9998346 C113.517707,61.8952651 112.622276,60.9998346 111.517707,60.9998346 L109.208625,60.9998346 C108.104055,60.9998346 107.208625,61.8952651 107.208625,62.9998346 L107.208625,72.2351862 L107.208625,72.2351862 L98.0596989,72.2351862 C96.9551294,72.2351862 96.0596989,73.1306167 96.0596989,74.2351862 L96.0596989,76.5442682 C96.0596989,77.6488377 96.9551294,78.5442682 98.0596989,78.5442682 L107.208625,78.5442682 L107.208625,78.5442682 L107.208625,87.6355768 C107.208625,88.7401463 108.104055,89.6355768 109.208625,89.6355768 L111.517707,89.6355768 C112.622276,89.6355768 113.517707,88.7401463 113.517707,87.6355768 Z" id="Path" fill="#D90000" fill-rule="nonzero" transform="translate(110.363166, 75.317706) rotate(-44.000000) translate(-110.363166, -75.317706) "></path>
            <g id="Group" stroke-linecap="round" stroke-linejoin="round" transform="translate(83.000000, 100.000000)" stroke="#000000" stroke-width="4.28">
                <g transform="translate(0.792000, 0.792000)">
                    <circle id="Oval" cx="18" cy="11" r="11"></circle>
                    <path d="M8,6 C13.182307,11.876442 21.1461127,13.6284652 28,10.3999649" id="Path"></path>
                    <path d="M18.5,26 C8.28273213,26 0,34.0588745 0,44 L37,44 C37,34.0588745 28.7172679,26 18.5,26 Z" id="Path" fill="#D1DADE" fill-rule="nonzero"></path>
                </g>
                <g transform="translate(55.375000, 1.799000)" id="Path">
                    <path d="M30.9671667,22.0088333 C29.5357566,19.6595114 28.8220902,16.9430953 28.9139167,14.1935833 L28.9139167,10.99725 C28.9139167,4.92363653 23.9902801,-7.10542736e-15 17.9166667,-7.10542736e-15 C11.8430532,-7.10542736e-15 6.91941667,4.92363653 6.91941667,10.99725 L6.91941667,14.1935833 C7.01124318,16.9430953 6.29757676,19.6595114 4.86616667,22.0088333"></path>
                    <path d="M6.91941667,12.814 C11.1427259,12.8071473 15.1551542,10.9676274 17.9166667,7.77225 C20.6781791,10.9676274 24.6906075,12.8071473 28.9139167,12.814"></path>
                    <path d="M8.26316667,12.7495 C8.76025286,17.7090882 12.9340215,21.4854427 17.9184583,21.4854427 C22.9028951,21.4854427 27.0766638,17.7090882 27.57375,12.7495"></path>
                    <path d="M17.9166667,25.0761667 C8.0215649,25.0761667 7.46069873e-14,33.0977316 7.46069873e-14,42.9928333 L35.8333333,42.9928333 C35.8333333,33.0977316 27.8117684,25.0761667 17.9166667,25.0761667 Z" fill="#D1DADE" fill-rule="nonzero"></path>
                </g>
            </g>
            <path d="M64.496,174.192 C64.9333333,174.192 65.3813333,174.12 65.84,173.976 C66.2986667,173.832 66.7253333,173.589333 67.12,173.248 L67.12,173.248 L66.192,171.712 C65.9786667,171.872 65.752,172.008 65.512,172.12 C65.272,172.232 65.024,172.288 64.768,172.288 C64.256,172.288 63.832,172.085333 63.496,171.68 C63.16,171.274667 62.992,170.725333 62.992,170.032 C62.992,169.338667 63.1573333,168.789333 63.488,168.384 C63.8186667,167.978667 64.272,167.776 64.848,167.776 C65.1893333,167.776 65.5466667,167.930667 65.92,168.24 L65.92,168.24 L67.024,166.72 C66.7253333,166.474667 66.3866667,166.272 66.008,166.112 C65.6293333,165.952 65.1946667,165.872 64.704,165.872 C64.16,165.872 63.6373333,165.965333 63.136,166.152 C62.6346667,166.338667 62.1946667,166.608 61.816,166.96 C61.4373333,167.312 61.136,167.746667 60.912,168.264 C60.688,168.781333 60.576,169.370667 60.576,170.032 C60.576,170.693333 60.6773333,171.282667 60.88,171.8 C61.0826667,172.317333 61.36,172.752 61.712,173.104 C62.064,173.456 62.4773333,173.725333 62.952,173.912 C63.4266667,174.098667 63.9413333,174.192 64.496,174.192 Z M71.92,174.192 C72.4213333,174.192 72.904,174.098667 73.368,173.912 C73.832,173.725333 74.2426667,173.456 74.6,173.104 C74.9573333,172.752 75.2426667,172.317333 75.456,171.8 C75.6693333,171.282667 75.776,170.693333 75.776,170.032 C75.776,169.370667 75.6693333,168.781333 75.456,168.264 C75.2426667,167.746667 74.9573333,167.312 74.6,166.96 C74.2426667,166.608 73.832,166.338667 73.368,166.152 C72.904,165.965333 72.4213333,165.872 71.92,165.872 C71.4186667,165.872 70.9333333,165.965333 70.464,166.152 C69.9946667,166.338667 69.5813333,166.608 69.224,166.96 C68.8666667,167.312 68.5813333,167.746667 68.368,168.264 C68.1546667,168.781333 68.048,169.370667 68.048,170.032 C68.048,170.693333 68.1546667,171.282667 68.368,171.8 C68.5813333,172.317333 68.8666667,172.752 69.224,173.104 C69.5813333,173.456 69.9946667,173.725333 70.464,173.912 C70.9333333,174.098667 71.4186667,174.192 71.92,174.192 Z M71.92,172.288 C71.4293333,172.288 71.064,172.085333 70.824,171.68 C70.584,171.274667 70.464,170.725333 70.464,170.032 C70.464,169.338667 70.584,168.789333 70.824,168.384 C71.064,167.978667 71.4293333,167.776 71.92,167.776 C72.4,167.776 72.7626667,167.978667 73.008,168.384 C73.2533333,168.789333 73.376,169.338667 73.376,170.032 C73.376,170.725333 73.2533333,171.274667 73.008,171.68 C72.7626667,172.085333 72.4,172.288 71.92,172.288 Z M79.744,174 L79.744,168.64 C80.2346667,168.128 80.6826667,167.872 81.088,167.872 C81.4293333,167.872 81.6773333,167.978667 81.832,168.192 C81.9866667,168.405333 82.064,168.8 82.064,169.376 L82.064,169.376 L82.064,174 L84.416,174 L84.416,168.64 C84.928,168.128 85.3813333,167.872 85.776,167.872 C86.1173333,167.872 86.3653333,167.978667 86.52,168.192 C86.6746667,168.405333 86.752,168.8 86.752,169.376 L86.752,169.376 L86.752,174 L89.104,174 L89.104,169.072 C89.104,168.08 88.904,167.298667 88.504,166.728 C88.104,166.157333 87.4773333,165.872 86.624,165.872 C86.0906667,165.872 85.6293333,166.002667 85.24,166.264 C84.8506667,166.525333 84.48,166.837333 84.128,167.2 C83.9253333,166.773333 83.6506667,166.445333 83.304,166.216 C82.9573333,165.986667 82.5013333,165.872 81.936,165.872 C81.4133333,165.872 80.9653333,165.992 80.592,166.232 C80.2186667,166.472 79.8666667,166.757333 79.536,167.088 L79.536,167.088 L79.472,167.088 L79.312,166.064 L77.392,166.064 L77.392,174 L79.744,174 Z M92.272,164.896 C92.6773333,164.896 93.0053333,164.781333 93.256,164.552 C93.5066667,164.322667 93.632,164.026667 93.632,163.664 C93.632,163.301333 93.5066667,163.008 93.256,162.784 C93.0053333,162.56 92.6773333,162.448 92.272,162.448 C91.8773333,162.448 91.552,162.56 91.296,162.784 C91.04,163.008 90.912,163.301333 90.912,163.664 C90.912,164.026667 91.04,164.322667 91.296,164.552 C91.552,164.781333 91.8773333,164.896 92.272,164.896 Z M93.456,174 L93.456,166.064 L91.104,166.064 L91.104,174 L93.456,174 Z M97.872,174 L97.872,168.64 C98.128,168.394667 98.3626667,168.205333 98.576,168.072 C98.7893333,167.938667 99.0453333,167.872 99.344,167.872 C99.6853333,167.872 99.9333333,167.978667 100.088,168.192 C100.242667,168.405333 100.32,168.8 100.32,169.376 L100.32,169.376 L100.32,174 L102.672,174 L102.672,169.072 C102.672,168.069333 102.477333,167.285333 102.088,166.72 C101.698667,166.154667 101.072,165.872 100.208,165.872 C99.664,165.872 99.1893333,165.992 98.784,166.232 C98.3786667,166.472 98.0053333,166.752 97.664,167.072 L97.664,167.072 L97.6,167.072 L97.44,166.064 L95.52,166.064 L95.52,174 L97.872,174 Z M107.504,177.376 C108.186667,177.376 108.8,177.304 109.344,177.16 C109.888,177.016 110.352,176.818667 110.736,176.568 C111.12,176.317333 111.416,176.018667 111.624,175.672 C111.832,175.325333 111.936,174.944 111.936,174.528 C111.936,173.813333 111.677333,173.298667 111.16,172.984 C110.642667,172.669333 109.893333,172.512 108.912,172.512 L108.912,172.512 L107.632,172.512 C107.184,172.512 106.872,172.464 106.696,172.368 C106.52,172.272 106.432,172.122667 106.432,171.92 C106.432,171.781333 106.453333,171.669333 106.496,171.584 C106.538667,171.498667 106.613333,171.413333 106.72,171.328 C107.050667,171.434667 107.370667,171.488 107.68,171.488 C108.117333,171.488 108.525333,171.434667 108.904,171.328 C109.282667,171.221333 109.613333,171.058667 109.896,170.84 C110.178667,170.621333 110.4,170.344 110.56,170.008 C110.72,169.672 110.8,169.274667 110.8,168.816 C110.8,168.602667 110.776,168.405333 110.728,168.224 C110.68,168.042667 110.618667,167.893333 110.544,167.776 L110.544,167.776 L111.808,167.776 L111.808,166.064 L108.912,166.064 C108.56,165.936 108.149333,165.872 107.68,165.872 C107.253333,165.872 106.842667,165.930667 106.448,166.048 C106.053333,166.165333 105.704,166.344 105.4,166.584 C105.096,166.824 104.853333,167.122667 104.672,167.48 C104.490667,167.837333 104.4,168.256 104.4,168.736 C104.4,169.205333 104.509333,169.618667 104.728,169.976 C104.946667,170.333333 105.194667,170.608 105.472,170.8 L105.472,170.8 L105.472,170.864 C105.216,171.045333 105.002667,171.266667 104.832,171.528 C104.661333,171.789333 104.576,172.064 104.576,172.352 C104.576,172.682667 104.645333,172.954667 104.784,173.168 C104.922667,173.381333 105.098667,173.557333 105.312,173.696 L105.312,173.696 L105.312,173.76 C104.554667,174.186667 104.176,174.72 104.176,175.36 C104.176,175.712 104.261333,176.016 104.432,176.272 C104.602667,176.528 104.84,176.736 105.144,176.896 C105.448,177.056 105.8,177.176 106.2,177.256 C106.6,177.336 107.034667,177.376 107.504,177.376 Z M107.68,170.064 C107.370667,170.064 107.112,169.954667 106.904,169.736 C106.696,169.517333 106.592,169.184 106.592,168.736 C106.592,168.309333 106.696,167.989333 106.904,167.776 C107.112,167.562667 107.370667,167.456 107.68,167.456 C107.989333,167.456 108.248,167.565333 108.456,167.784 C108.664,168.002667 108.768,168.32 108.768,168.736 C108.768,169.184 108.664,169.517333 108.456,169.736 C108.248,169.954667 107.989333,170.064 107.68,170.064 Z M107.872,175.904 C107.338667,175.904 106.912,175.826667 106.592,175.672 C106.272,175.517333 106.112,175.290667 106.112,174.992 C106.112,174.725333 106.256,174.464 106.544,174.208 C106.672,174.24 106.821333,174.264 106.992,174.28 C107.162667,174.296 107.386667,174.304 107.664,174.304 L108.48,174.304 C108.874667,174.304 109.176,174.346667 109.384,174.432 C109.592,174.517333 109.696,174.682667 109.696,174.928 C109.696,175.205333 109.525333,175.437333 109.184,175.624 C108.842667,175.810667 108.405333,175.904 107.872,175.904 Z M118.752,174.192 C119.285333,174.192 119.754667,174.125333 120.16,173.992 C120.565333,173.858667 120.906667,173.677333 121.184,173.448 C121.461333,173.218667 121.669333,172.949333 121.808,172.64 C121.946667,172.330667 122.016,171.994667 122.016,171.632 C122.016,171.269333 121.952,170.957333 121.824,170.696 C121.696,170.434667 121.528,170.213333 121.32,170.032 C121.112,169.850667 120.882667,169.698667 120.632,169.576 C120.381333,169.453333 120.128,169.344 119.872,169.248 C119.669333,169.173333 119.474667,169.101333 119.288,169.032 C119.101333,168.962667 118.936,168.890667 118.792,168.816 C118.648,168.741333 118.533333,168.658667 118.448,168.568 C118.362667,168.477333 118.32,168.368 118.32,168.24 C118.32,167.824 118.618667,167.616 119.216,167.616 C119.493333,167.616 119.770667,167.674667 120.048,167.792 C120.325333,167.909333 120.608,168.074667 120.896,168.288 L120.896,168.288 L121.952,166.88 C121.610667,166.624 121.210667,166.392 120.752,166.184 C120.293333,165.976 119.76,165.872 119.152,165.872 C118.693333,165.872 118.277333,165.933333 117.904,166.056 C117.530667,166.178667 117.210667,166.346667 116.944,166.56 C116.677333,166.773333 116.472,167.034667 116.328,167.344 C116.184,167.653333 116.112,167.989333 116.112,168.352 C116.112,168.682667 116.176,168.973333 116.304,169.224 C116.432,169.474667 116.597333,169.693333 116.8,169.88 C117.002667,170.066667 117.226667,170.224 117.472,170.352 C117.717333,170.48 117.962667,170.592 118.208,170.688 C118.410667,170.773333 118.608,170.850667 118.8,170.92 C118.992,170.989333 119.165333,171.066667 119.32,171.152 C119.474667,171.237333 119.597333,171.330667 119.688,171.432 C119.778667,171.533333 119.824,171.648 119.824,171.776 C119.824,171.989333 119.744,172.154667 119.584,172.272 C119.424,172.389333 119.168,172.448 118.816,172.448 C118.474667,172.448 118.138667,172.378667 117.808,172.24 C117.477333,172.101333 117.130667,171.893333 116.768,171.616 L116.768,171.616 L115.712,173.088 C116.117333,173.418667 116.594667,173.685333 117.144,173.888 C117.693333,174.090667 118.229333,174.192 118.752,174.192 Z M126.912,174.192 C127.413333,174.192 127.896,174.098667 128.36,173.912 C128.824,173.725333 129.234667,173.456 129.592,173.104 C129.949333,172.752 130.234667,172.317333 130.448,171.8 C130.661333,171.282667 130.768,170.693333 130.768,170.032 C130.768,169.370667 130.661333,168.781333 130.448,168.264 C130.234667,167.746667 129.949333,167.312 129.592,166.96 C129.234667,166.608 128.824,166.338667 128.36,166.152 C127.896,165.965333 127.413333,165.872 126.912,165.872 C126.410667,165.872 125.925333,165.965333 125.456,166.152 C124.986667,166.338667 124.573333,166.608 124.216,166.96 C123.858667,167.312 123.573333,167.746667 123.36,168.264 C123.146667,168.781333 123.04,169.370667 123.04,170.032 C123.04,170.693333 123.146667,171.282667 123.36,171.8 C123.573333,172.317333 123.858667,172.752 124.216,173.104 C124.573333,173.456 124.986667,173.725333 125.456,173.912 C125.925333,174.098667 126.410667,174.192 126.912,174.192 Z M126.912,172.288 C126.421333,172.288 126.056,172.085333 125.816,171.68 C125.576,171.274667 125.456,170.725333 125.456,170.032 C125.456,169.338667 125.576,168.789333 125.816,168.384 C126.056,167.978667 126.421333,167.776 126.912,167.776 C127.392,167.776 127.754667,167.978667 128,168.384 C128.245333,168.789333 128.368,169.338667 128.368,170.032 C128.368,170.725333 128.245333,171.274667 128,171.68 C127.754667,172.085333 127.392,172.288 126.912,172.288 Z M135.792,174.192 C136.293333,174.192 136.776,174.098667 137.24,173.912 C137.704,173.725333 138.114667,173.456 138.472,173.104 C138.829333,172.752 139.114667,172.317333 139.328,171.8 C139.541333,171.282667 139.648,170.693333 139.648,170.032 C139.648,169.370667 139.541333,168.781333 139.328,168.264 C139.114667,167.746667 138.829333,167.312 138.472,166.96 C138.114667,166.608 137.704,166.338667 137.24,166.152 C136.776,165.965333 136.293333,165.872 135.792,165.872 C135.290667,165.872 134.805333,165.965333 134.336,166.152 C133.866667,166.338667 133.453333,166.608 133.096,166.96 C132.738667,167.312 132.453333,167.746667 132.24,168.264 C132.026667,168.781333 131.92,169.370667 131.92,170.032 C131.92,170.693333 132.026667,171.282667 132.24,171.8 C132.453333,172.317333 132.738667,172.752 133.096,173.104 C133.453333,173.456 133.866667,173.725333 134.336,173.912 C134.805333,174.098667 135.290667,174.192 135.792,174.192 Z M135.792,172.288 C135.301333,172.288 134.936,172.085333 134.696,171.68 C134.456,171.274667 134.336,170.725333 134.336,170.032 C134.336,169.338667 134.456,168.789333 134.696,168.384 C134.936,167.978667 135.301333,167.776 135.792,167.776 C136.272,167.776 136.634667,167.978667 136.88,168.384 C137.125333,168.789333 137.248,169.338667 137.248,170.032 C137.248,170.725333 137.125333,171.274667 136.88,171.68 C136.634667,172.085333 136.272,172.288 135.792,172.288 Z M143.616,174 L143.616,168.64 C143.872,168.394667 144.106667,168.205333 144.32,168.072 C144.533333,167.938667 144.789333,167.872 145.088,167.872 C145.429333,167.872 145.677333,167.978667 145.832,168.192 C145.986667,168.405333 146.064,168.8 146.064,169.376 L146.064,169.376 L146.064,174 L148.416,174 L148.416,169.072 C148.416,168.069333 148.221333,167.285333 147.832,166.72 C147.442667,166.154667 146.816,165.872 145.952,165.872 C145.408,165.872 144.933333,165.992 144.528,166.232 C144.122667,166.472 143.749333,166.752 143.408,167.072 L143.408,167.072 L143.344,167.072 L143.184,166.064 L141.264,166.064 L141.264,174 L143.616,174 Z M152.864,170.304 L153.2,165.408 L153.28,163.28 L150.912,163.28 L150.992,165.408 L151.328,170.304 L152.864,170.304 Z M152.096,174.192 C152.501333,174.192 152.84,174.050667 153.112,173.768 C153.384,173.485333 153.52,173.136 153.52,172.72 C153.52,172.293333 153.384,171.938667 153.112,171.656 C152.84,171.373333 152.501333,171.232 152.096,171.232 C151.690667,171.232 151.352,171.373333 151.08,171.656 C150.808,171.938667 150.672,172.293333 150.672,172.72 C150.672,173.136 150.808,173.485333 151.08,173.768 C151.352,174.050667 151.690667,174.192 152.096,174.192 Z" id="Shape" fill="#DB2A1B" fill-rule="nonzero"></path>
        </g>
    </g>
</svg>