<?xml version="1.0" encoding="UTF-8"?>
<svg width="329px" height="290px" viewBox="0 0 329 290" version="1.1" xmlns="http://www.w3.org/2000/svg" xmlns:xlink="http://www.w3.org/1999/xlink">
    <title>Group boy &amp; girl</title>
    <g id="Smartphone" stroke="none" stroke-width="1" fill="none" fill-rule="evenodd" stroke-linecap="round" stroke-linejoin="round">
        <g id="iP-Bestätigung-Voting-PIXP-Copy-2" transform="translate(-23.000000, -257.000000)">
            <g id="Card" transform="translate(0.000000, 90.000000)">
                <g id="Group-boy-&amp;-girl" transform="translate(30.000000, 174.000632)">
                    <g id="Group-15" transform="translate(0.000000, 107.999368)" stroke="#010204" stroke-width="14.8575">
                        <path d="M62.92125,90.80855 C84.01225,90.80855 101.10975,73.71105 101.10975,52.62005 C101.10975,31.52555 84.01225,14.43155 62.92125,14.43155 C41.83025,14.43155 24.73275,31.52555 24.73275,52.62005 C24.73275,73.71105 41.83025,90.80855 62.92125,90.80855 Z" id="Stroke-1" transform="translate(62.921250, 52.620050) rotate(-29.000000) translate(-62.921250, -52.620050) "></path>
                        <path d="M24.8364311,36.1302634 C42.8299311,56.5317634 70.4764311,62.6147634 94.2729311,51.4077634" id="Stroke-3" transform="translate(59.554681, 46.545877) rotate(-29.000000) translate(-59.554681, -46.545877) "></path>
                        <path d="M128.8847,167.188 C128.8847,132.6745 100.1287,104.6955 64.6562,104.6955 C29.1872,104.6955 0.4277,132.6745 0.4277,167.188" id="Stroke-5"></path>
                        <path d="M297.4419,94.33585 C292.4719,86.18085 289.9939,76.74835 290.3124,67.20385 L290.3124,56.10535 C290.3124,35.02135 273.2184,17.92735 252.1344,17.92735 C231.0469,17.92735 213.9529,35.02135 213.9529,56.10535 L213.9529,67.20385 C214.2714,76.74835 211.7934,86.18085 206.8234,94.33585" id="Stroke-7" transform="translate(252.132650, 56.131600) rotate(-8.000000) translate(-252.132650, -56.131600) "></path>
                        <path d="M213.610948,62.437784 C228.268948,62.413284 242.202448,56.025784 251.788948,44.934284 C261.375448,56.025784 275.308948,62.413284 289.966948,62.437784" id="Stroke-9" transform="translate(251.788948, 53.686034) rotate(-8.000000) translate(-251.788948, -53.686034) "></path>
                        <path d="M221.573843,61.9822287 C223.295843,79.1987287 237.789343,92.3132287 255.093343,92.3132287 C272.397343,92.3132287 286.887343,79.1987287 288.612843,61.9822287" id="Stroke-11" transform="translate(255.093343, 77.147729) rotate(-8.000000) translate(-255.093343, -77.147729) "></path>
                        <path d="M314.33675,167.188 C314.33675,132.8355 286.48725,104.986 252.13475,104.986 C217.77875,104.986 189.92925,132.8355 189.92925,167.188" id="Stroke-13"></path>
                    </g>
                    <path d="M114.732701,87.2 L63.8660348,87.2 L34.7977884,109 L34.7977884,87.2 L20.2660348,87.2 C16.2519913,87.2 12.9993681,83.9457971 12.9993681,79.9317536 L12.9993681,7.26508696 C12.9993681,3.25262319 16.2519913,0 20.2660348,0 L114.732701,0 C118.745165,0 121.999368,3.25262319 121.999368,7.26508696 L121.999368,79.9317536 C121.999368,83.9457971 118.745165,87.2 114.732701,87.2 Z" id="Stroke-1" stroke="#000000" stroke-width="12.6376812" transform="translate(67.499368, 54.500000) scale(-1, 1) translate(-67.499368, -54.500000) "></path>
                    <path d="M91.3286638,24.5275275 L64.6047072,60.2258174 C63.4025478,61.8276435 61.5637652,62.8291797 59.5670116,62.9697739 C57.5686783,63.1103681 55.608258,62.3789623 54.191258,60.963542 L40.3687942,47.1410783" id="Stroke-3" stroke="#000000" stroke-width="13.8224638"></path>
                    <path d="M288.733965,87.2 L237.867299,87.2 L208.799052,109 L208.799052,87.2 L194.267299,87.2 C190.253255,87.2 187.000632,83.9457971 187.000632,79.9317536 L187.000632,7.26508696 C187.000632,3.25262319 190.253255,0 194.267299,0 L288.733965,0 C292.746429,0 296.000632,3.25262319 296.000632,7.26508696 L296.000632,79.9317536 C296.000632,83.9457971 292.746429,87.2 288.733965,87.2 Z" id="Stroke-1" stroke="#000000" stroke-width="12.6376812"></path>
                    <path d="M268.631206,24.5275275 L241.907249,60.2258174 C240.70509,61.8276435 238.866307,62.8291797 236.869554,62.9697739 C234.87122,63.1103681 232.9108,62.3789623 231.4938,60.963542 L217.671336,47.1410783" id="Stroke-3" stroke="#000000" stroke-width="13.8224638"></path>
                </g>
            </g>
        </g>
    </g>
</svg>