<?xml version="1.0" encoding="utf-8"?>
<!-- Generator: Adobe Illustrator 26.2.1, SVG Export Plug-In . SVG Version: 6.00 Build 0)  -->
<svg version="1.1" id="Ebene_1" xmlns="http://www.w3.org/2000/svg" xmlns:xlink="http://www.w3.org/1999/xlink" x="0px" y="0px"
	 viewBox="0 0 435.5 162.7" style="enable-background:new 0 0 435.5 162.7;" xml:space="preserve">
<style type="text/css">
	.st0{fill:none;stroke:#181716;stroke-width:1.0459;stroke-linecap:round;stroke-linejoin:round;}
	.st1{fill:none;stroke:#181716;stroke-width:1.0459;stroke-linecap:round;stroke-linejoin:round;stroke-dasharray:12.5052,12.5052;}
	.st2{fill:none;stroke:#181716;stroke-width:1.0459;stroke-linecap:round;stroke-linejoin:round;stroke-dasharray:13.5572,13.5572;}
	.st3{fill:url(#SVGID_1_);}
	.st4{fill:#99A5A7;}
	.st5{fill:#FFFFFF;}
	.st6{fill:#D99827;}
	.st7{fill:none;stroke:#FFFFFF;stroke-linecap:round;stroke-linejoin:round;stroke-miterlimit:8;}
	.st8{fill:none;stroke:#FFFFFF;stroke-width:0.9;stroke-linecap:round;stroke-linejoin:round;stroke-miterlimit:8;}
	.st9{fill:#181716;}
	.st10{fill:none;stroke:#FFFFFF;stroke-width:0.8627;stroke-linecap:round;stroke-linejoin:round;stroke-miterlimit:8;}
	.st11{fill:none;stroke:#FFFFFF;stroke-miterlimit:10;}
</style>
<g>
	<g>
		<polyline class="st0" points="435,155.9 435,162.2 428.7,162.2 		"/>
		<line class="st1" x1="416.2" y1="162.2" x2="97.4" y2="162.2"/>
		<polyline class="st0" points="91.1,162.2 84.8,162.2 84.8,155.9 		"/>
		<line class="st2" x1="84.8" y1="142.4" x2="84.8" y2="13.6"/>
		<polyline class="st0" points="84.8,6.8 84.8,0.5 91.1,0.5 		"/>
		<line class="st1" x1="103.6" y1="0.5" x2="422.5" y2="0.5"/>
		<polyline class="st0" points="428.7,0.5 435,0.5 435,6.8 		"/>
		<line class="st2" x1="435" y1="20.4" x2="435" y2="149.1"/>
	</g>
</g>
<linearGradient id="SVGID_1_" gradientUnits="userSpaceOnUse" x1="0" y1="52.7944" x2="423.2691" y2="52.7944">
	<stop  offset="0" style="stop-color:#2B559F"/>
	<stop  offset="1" style="stop-color:#309E4D"/>
</linearGradient>
<path class="st3" d="M67.1,76.5H3.7c-2.1,0-3.7-1.7-3.7-3.7V32.8c0-2.1,1.7-3.7,3.7-3.7h63.4c2.1,0,3.7,1.7,3.7,3.7v39.9
	C70.9,74.8,69.2,76.5,67.1,76.5z M159,72.8V32.8c0-2.1-1.7-3.7-3.7-3.7H91.8c-2.1,0-3.7,1.7-3.7,3.7v39.9c0,2.1,1.7,3.7,3.7,3.7
	h63.4C157.3,76.5,159,74.8,159,72.8z M247.1,72.8V32.8c0-2.1-1.7-3.7-3.7-3.7h-63.4c-2.1,0-3.7,1.7-3.7,3.7v39.9
	c0,2.1,1.7,3.7,3.7,3.7h63.4C245.4,76.5,247.1,74.8,247.1,72.8z M335.2,72.8V32.8c0-2.1-1.7-3.7-3.7-3.7H268c-2.1,0-3.7,1.7-3.7,3.7
	v39.9c0,2.1,1.7,3.7,3.7,3.7h63.4C333.5,76.5,335.2,74.8,335.2,72.8z M423.3,72.8V32.8c0-2.1-1.7-3.7-3.7-3.7h-63.4
	c-2.1,0-3.7,1.7-3.7,3.7v39.9c0,2.1,1.7,3.7,3.7,3.7h63.4C421.6,76.5,423.3,74.8,423.3,72.8z"/>
<path class="st4" d="M115.7,149H5.9c-3,0-5.3-2.4-5.3-5.3v-40.3c0-3,2.4-5.3,5.3-5.3h109.8c3,0,5.3,2.4,5.3,5.3v40.3
	C121.1,146.6,118.7,149,115.7,149z"/>
<path class="st4" d="M209.1,149h-76.6c-2.5,0-4.5-2-4.5-4.5v-42c0-2.5,2-4.5,4.5-4.5h76.6c2.5,0,4.5,2,4.5,4.5v42
	C213.6,147,211.6,149,209.1,149z"/>
<path class="st4" d="M301.6,149h-76.6c-2.5,0-4.5-2-4.5-4.5v-42c0-2.5,2-4.5,4.5-4.5h76.6c2.5,0,4.5,2,4.5,4.5v42
	C306.1,147,304.1,149,301.6,149z"/>
<g>
	<path class="st5" d="M20.4,68.1H19l-1.1-4.1l-1.1,4.1h-1.3L14,63h1.2l1,4.1l1.1-4.1h1.3l1.1,4.1l1-4.1h1.1L20.4,68.1z"/>
	<path class="st5" d="M22.1,63.8V63h1.1v0.8H22.1z M22.1,68.1v-3.5h1v3.5H22.1z"/>
	<path class="st5" d="M24.2,68.1V63h1v5.1H24.2z"/>
	<path class="st5" d="M28.6,68.1l0-0.5c-0.2,0.2-0.3,0.3-0.5,0.4c-0.2,0.1-0.4,0.1-0.6,0.1c-0.3,0-0.5,0-0.7-0.1
		c-0.2-0.1-0.4-0.2-0.5-0.4S26.1,67.2,26,67c-0.1-0.2-0.1-0.5-0.1-0.7c0-0.2,0-0.4,0.1-0.7c0.1-0.2,0.1-0.4,0.3-0.6
		c0.1-0.2,0.3-0.3,0.5-0.4s0.4-0.2,0.7-0.2c0.2,0,0.5,0,0.6,0.1c0.2,0.1,0.3,0.2,0.5,0.4v-2h1v4.1c0,0.2,0,0.3,0,0.5
		c0,0.2,0,0.3,0,0.5H28.6z M28.6,66.3c0-0.1,0-0.3,0-0.4c0-0.1-0.1-0.3-0.1-0.4c-0.1-0.1-0.2-0.2-0.3-0.3c-0.1-0.1-0.2-0.1-0.4-0.1
		c-0.2,0-0.3,0-0.4,0.1c-0.1,0.1-0.2,0.2-0.2,0.3c-0.1,0.1-0.1,0.2-0.1,0.4s0,0.3,0,0.4c0,0.1,0,0.3,0,0.4s0.1,0.3,0.1,0.4
		s0.1,0.2,0.3,0.3c0.1,0.1,0.2,0.1,0.4,0.1c0.2,0,0.3,0,0.4-0.1c0.1-0.1,0.2-0.2,0.2-0.3c0.1-0.1,0.1-0.2,0.1-0.4
		C28.6,66.5,28.6,66.4,28.6,66.3z"/>
	<path class="st5" d="M31.4,66.5c0,0.1,0,0.3,0,0.4c0,0.1,0.1,0.2,0.1,0.3s0.1,0.2,0.3,0.2c0.1,0.1,0.2,0.1,0.4,0.1
		c0.4,0,0.7-0.2,0.7-0.6h1c0,0.2-0.1,0.4-0.2,0.6s-0.2,0.3-0.4,0.4C33.1,68,33,68,32.8,68.1s-0.4,0.1-0.6,0.1c-0.6,0-1-0.2-1.3-0.5
		c-0.3-0.3-0.5-0.7-0.5-1.3c0-0.6,0.2-1.1,0.5-1.4c0.3-0.3,0.8-0.5,1.4-0.5c0.2,0,0.3,0,0.5,0.1s0.3,0.1,0.4,0.2s0.3,0.2,0.4,0.3
		s0.2,0.3,0.3,0.4c0.1,0.2,0.1,0.4,0.1,0.5c0,0.2,0,0.4,0,0.6H31.4z M32.9,65.9c0-0.3-0.1-0.5-0.2-0.6c-0.1-0.2-0.3-0.2-0.6-0.2
		c-0.3,0-0.4,0.1-0.6,0.2c-0.1,0.2-0.2,0.4-0.2,0.6H32.9z"/>
	<path class="st5" d="M37,68.1V63h1.1v5.1H37z"/>
	<path class="st5" d="M41.6,68.1l0-0.5c-0.2,0.2-0.3,0.3-0.5,0.4c-0.2,0.1-0.4,0.1-0.6,0.1c-0.3,0-0.5,0-0.7-0.1
		c-0.2-0.1-0.4-0.2-0.5-0.4S39.1,67.2,39,67c-0.1-0.2-0.1-0.5-0.1-0.7c0-0.2,0-0.4,0.1-0.7c0.1-0.2,0.1-0.4,0.3-0.6
		c0.1-0.2,0.3-0.3,0.5-0.4s0.4-0.2,0.7-0.2c0.2,0,0.5,0,0.6,0.1c0.2,0.1,0.3,0.2,0.5,0.4v-2h1v4.1c0,0.2,0,0.3,0,0.5
		c0,0.2,0,0.3,0,0.5H41.6z M41.6,66.3c0-0.1,0-0.3,0-0.4c0-0.1-0.1-0.3-0.1-0.4c-0.1-0.1-0.2-0.2-0.3-0.3c-0.1-0.1-0.2-0.1-0.4-0.1
		c-0.2,0-0.3,0-0.4,0.1c-0.1,0.1-0.2,0.2-0.2,0.3C40,65.6,40,65.7,40,65.9s0,0.3,0,0.4c0,0.1,0,0.3,0,0.4s0.1,0.3,0.1,0.4
		s0.1,0.2,0.3,0.3c0.1,0.1,0.2,0.1,0.4,0.1c0.2,0,0.3,0,0.4-0.1c0.1-0.1,0.2-0.2,0.2-0.3c0.1-0.1,0.1-0.2,0.1-0.4
		C41.6,66.5,41.6,66.4,41.6,66.3z"/>
	<path class="st5" d="M44.3,66.5c0,0.1,0,0.3,0,0.4c0,0.1,0.1,0.2,0.1,0.3s0.1,0.2,0.3,0.2c0.1,0.1,0.2,0.1,0.4,0.1
		c0.4,0,0.7-0.2,0.7-0.6h1c0,0.2-0.1,0.4-0.2,0.6s-0.2,0.3-0.4,0.4c-0.2,0.1-0.3,0.2-0.5,0.2s-0.4,0.1-0.6,0.1c-0.6,0-1-0.2-1.3-0.5
		c-0.3-0.3-0.5-0.7-0.5-1.3c0-0.6,0.2-1.1,0.5-1.4c0.3-0.3,0.8-0.5,1.4-0.5c0.2,0,0.3,0,0.5,0.1s0.3,0.1,0.4,0.2s0.3,0.2,0.4,0.3
		s0.2,0.3,0.3,0.4c0.1,0.2,0.1,0.4,0.1,0.5c0,0.2,0,0.4,0,0.6H44.3z M45.9,65.9c0-0.3-0.1-0.5-0.2-0.6c-0.1-0.2-0.3-0.2-0.6-0.2
		c-0.3,0-0.4,0.1-0.6,0.2c-0.1,0.2-0.2,0.4-0.2,0.6H45.9z"/>
	<path class="st5" d="M48.4,66.5c0,0.1,0,0.3,0,0.4c0,0.1,0.1,0.2,0.1,0.3s0.1,0.2,0.3,0.2c0.1,0.1,0.2,0.1,0.4,0.1
		c0.4,0,0.7-0.2,0.7-0.6h1c0,0.2-0.1,0.4-0.2,0.6s-0.2,0.3-0.4,0.4C50.2,68,50,68,49.8,68.1s-0.4,0.1-0.6,0.1c-0.6,0-1-0.2-1.3-0.5
		c-0.3-0.3-0.5-0.7-0.5-1.3c0-0.6,0.2-1.1,0.5-1.4c0.3-0.3,0.8-0.5,1.4-0.5c0.2,0,0.3,0,0.5,0.1s0.3,0.1,0.4,0.2s0.3,0.2,0.4,0.3
		s0.2,0.3,0.3,0.4c0.1,0.2,0.1,0.4,0.1,0.5c0,0.2,0,0.4,0,0.6H48.4z M50,65.9c0-0.3-0.1-0.5-0.2-0.6c-0.1-0.2-0.3-0.2-0.6-0.2
		c-0.3,0-0.4,0.1-0.6,0.2c-0.1,0.2-0.2,0.4-0.2,0.6H50z"/>
	<path class="st5" d="M54.1,68.1v-1.9c0-0.1,0-0.2,0-0.4c0-0.1,0-0.2-0.1-0.3c0-0.1-0.1-0.2-0.2-0.2c-0.1-0.1-0.2-0.1-0.4-0.1
		c-0.2,0-0.3,0-0.4,0.1c-0.1,0.1-0.2,0.2-0.2,0.3s-0.1,0.2-0.1,0.4c0,0.1,0,0.2,0,0.3v1.8h-1v-2.8c0-0.1,0-0.2,0-0.3
		c0-0.1,0-0.2,0-0.4h1l0,0.5c0.2-0.2,0.3-0.4,0.5-0.5s0.4-0.1,0.7-0.1c0.4,0,0.8,0.1,1,0.3c0.2,0.2,0.3,0.5,0.3,1v2.3H54.1z"/>
</g>
<g>
	<path class="st5" d="M104.4,68.1l-0.4-1.2h-2.2l-0.4,1.2h-1.1l2.1-5.1h1.2l2.1,5.1H104.4z M102.9,63.8l-0.8,2.4h1.7L102.9,63.8z"/>
	<path class="st5" d="M108.4,68.1l0-0.5c-0.2,0.2-0.3,0.4-0.5,0.5c-0.2,0.1-0.4,0.1-0.7,0.1c-0.4,0-0.8-0.1-1-0.3s-0.3-0.5-0.3-1
		v-2.3h1v1.9c0,0.1,0,0.2,0,0.4c0,0.1,0,0.2,0.1,0.3c0,0.1,0.1,0.2,0.2,0.2c0.1,0.1,0.2,0.1,0.4,0.1s0.3,0,0.4-0.1s0.2-0.1,0.2-0.3
		s0.1-0.2,0.1-0.3c0-0.1,0-0.3,0-0.4v-1.8h1v2.2c0,0.2,0,0.4,0,0.6c0,0.2,0,0.4,0,0.7H108.4z"/>
	<path class="st5" d="M113.4,67c0,0.2-0.1,0.4-0.2,0.6c-0.1,0.1-0.2,0.3-0.4,0.4c-0.2,0.1-0.3,0.2-0.5,0.2c-0.2,0-0.4,0.1-0.6,0.1
		c-0.2,0-0.4,0-0.6-0.1s-0.4-0.1-0.5-0.2c-0.1-0.1-0.3-0.2-0.3-0.4c-0.1-0.2-0.1-0.4-0.1-0.6h1c0,0.2,0.1,0.4,0.2,0.5
		c0.1,0.1,0.2,0.2,0.5,0.2c0.1,0,0.1,0,0.2,0c0.1,0,0.1,0,0.2-0.1c0.1,0,0.1-0.1,0.1-0.1c0-0.1,0.1-0.1,0.1-0.2
		c0-0.1-0.1-0.2-0.2-0.3c-0.1-0.1-0.3-0.1-0.5-0.2l-0.4-0.1c-0.1,0-0.3-0.1-0.4-0.1c-0.1,0-0.2-0.1-0.3-0.2
		c-0.1-0.1-0.2-0.2-0.2-0.3c-0.1-0.1-0.1-0.2-0.1-0.4c0-0.2,0-0.4,0.1-0.5c0.1-0.1,0.2-0.2,0.4-0.3s0.3-0.1,0.5-0.2
		c0.2,0,0.4,0,0.5,0c0.2,0,0.4,0,0.6,0.1c0.2,0,0.3,0.1,0.5,0.2s0.3,0.2,0.3,0.4s0.1,0.3,0.2,0.5h-1c0-0.2-0.1-0.3-0.1-0.4
		c-0.1-0.1-0.2-0.2-0.4-0.2c-0.1,0-0.1,0-0.2,0c-0.1,0-0.1,0-0.2,0.1c-0.1,0-0.1,0.1-0.1,0.1c0,0,0,0.1,0,0.2c0,0.1,0.1,0.2,0.2,0.3
		c0.1,0.1,0.3,0.1,0.5,0.2l0.4,0.1c0.1,0,0.3,0.1,0.4,0.1c0.1,0,0.2,0.1,0.4,0.2s0.2,0.2,0.2,0.3C113.4,66.7,113.4,66.8,113.4,67z"
		/>
	<path class="st5" d="M116.4,68.1c0-0.1,0-0.2-0.1-0.2c0-0.1,0-0.2,0-0.2c-0.1,0.2-0.3,0.4-0.5,0.4s-0.4,0.1-0.6,0.1
		c-0.2,0-0.3,0-0.5-0.1s-0.3-0.1-0.4-0.2c-0.1-0.1-0.2-0.2-0.3-0.3c-0.1-0.1-0.1-0.3-0.1-0.5c0-0.3,0.1-0.5,0.2-0.7
		c0.1-0.2,0.3-0.3,0.5-0.4s0.4-0.1,0.7-0.2c0.2,0,0.5,0,0.7,0h0.3v-0.1c0-0.1,0-0.2,0-0.3c0-0.1,0-0.2-0.1-0.2
		c0-0.1-0.1-0.1-0.2-0.2s-0.2-0.1-0.3-0.1c-0.2,0-0.3,0.1-0.4,0.2s-0.1,0.2-0.1,0.4h-1c0-0.2,0.1-0.4,0.1-0.5
		c0.1-0.1,0.2-0.3,0.4-0.3c0.2-0.1,0.3-0.1,0.5-0.2c0.2,0,0.4-0.1,0.6-0.1c0.2,0,0.5,0,0.6,0.1c0.2,0,0.4,0.1,0.5,0.2
		s0.2,0.2,0.3,0.4s0.1,0.4,0.1,0.7v1c0,0.2,0,0.4,0,0.6c0,0.2,0,0.4,0,0.6H116.4z M116.3,66.4c-0.1,0-0.1,0-0.1,0c0,0-0.1,0-0.1,0
		c-0.1,0-0.2,0-0.4,0c-0.1,0-0.2,0-0.4,0.1c-0.1,0-0.2,0.1-0.3,0.2c-0.1,0.1-0.1,0.2-0.1,0.3c0,0.2,0.1,0.3,0.2,0.4
		c0.1,0.1,0.2,0.1,0.4,0.1c0.2,0,0.3,0,0.4-0.1s0.2-0.2,0.2-0.3c0.1-0.1,0.1-0.2,0.1-0.4S116.3,66.6,116.3,66.4L116.3,66.4z"/>
	<path class="st5" d="M120.2,65.4c-0.3,0-0.6,0.1-0.7,0.3c-0.1,0.2-0.2,0.4-0.2,0.7v1.7h-1v-2.7c0-0.1,0-0.3,0-0.4
		c0-0.1,0-0.3,0-0.4h1l0,0.7c0.1-0.2,0.3-0.4,0.4-0.5c0.2-0.1,0.4-0.2,0.7-0.2c0,0,0.1,0,0.1,0c0,0,0.1,0,0.1,0v0.9
		C120.4,65.4,120.3,65.4,120.2,65.4z"/>
	<path class="st5" d="M124.8,66.3c0,0.2,0,0.5-0.1,0.7s-0.2,0.4-0.3,0.6c-0.1,0.2-0.3,0.3-0.5,0.4s-0.4,0.2-0.7,0.2
		c-0.2,0-0.4,0-0.6-0.1c-0.2-0.1-0.3-0.2-0.5-0.4l0,0.5h-1c0-0.2,0-0.3,0-0.5c0-0.2,0-0.3,0-0.5V63h1v2c0.1-0.2,0.3-0.3,0.5-0.4
		c0.2-0.1,0.4-0.1,0.6-0.1c0.3,0,0.5,0,0.7,0.1s0.4,0.2,0.5,0.4c0.1,0.2,0.2,0.4,0.3,0.6C124.7,65.8,124.8,66,124.8,66.3z
		 M123.7,66.3c0-0.1,0-0.3,0-0.4s-0.1-0.3-0.1-0.4c-0.1-0.1-0.1-0.2-0.2-0.3c-0.1-0.1-0.2-0.1-0.4-0.1c-0.2,0-0.3,0-0.4,0.1
		c-0.1,0.1-0.2,0.2-0.3,0.3c-0.1,0.1-0.1,0.2-0.1,0.4c0,0.1,0,0.3,0,0.4c0,0.1,0,0.3,0,0.4c0,0.1,0.1,0.3,0.1,0.4
		c0.1,0.1,0.1,0.2,0.2,0.3c0.1,0.1,0.2,0.1,0.4,0.1c0.2,0,0.3,0,0.4-0.1c0.1-0.1,0.2-0.2,0.3-0.3s0.1-0.2,0.1-0.4
		S123.7,66.4,123.7,66.3z"/>
	<path class="st5" d="M126.3,66.5c0,0.1,0,0.3,0,0.4c0,0.1,0.1,0.2,0.1,0.3s0.1,0.2,0.3,0.2c0.1,0.1,0.2,0.1,0.4,0.1
		c0.4,0,0.7-0.2,0.7-0.6h1c0,0.2-0.1,0.4-0.2,0.6s-0.2,0.3-0.4,0.4c-0.2,0.1-0.3,0.2-0.5,0.2s-0.4,0.1-0.6,0.1c-0.6,0-1-0.2-1.3-0.5
		c-0.3-0.3-0.5-0.7-0.5-1.3c0-0.6,0.2-1.1,0.5-1.4c0.3-0.3,0.8-0.5,1.4-0.5c0.2,0,0.3,0,0.5,0.1s0.3,0.1,0.4,0.2
		c0.1,0.1,0.3,0.2,0.4,0.3s0.2,0.3,0.3,0.4c0.1,0.2,0.1,0.4,0.1,0.5c0,0.2,0,0.4,0,0.6H126.3z M127.8,65.9c0-0.3-0.1-0.5-0.2-0.6
		c-0.1-0.2-0.3-0.2-0.6-0.2c-0.3,0-0.4,0.1-0.6,0.2c-0.1,0.2-0.2,0.4-0.2,0.6H127.8z"/>
	<path class="st5" d="M129.6,63.8V63h1.1v0.8H129.6z M129.6,68.1v-3.5h1v3.5H129.6z"/>
	<path class="st5" d="M132.8,65.2v1.6c0,0.1,0,0.2,0,0.3c0,0.1,0,0.1,0.1,0.2c0,0,0.1,0.1,0.1,0.1s0.2,0,0.3,0c0.1,0,0.1,0,0.2,0
		s0.1,0,0.2,0v0.7c-0.1,0-0.2,0-0.4,0c-0.1,0-0.2,0-0.4,0c-0.2,0-0.3,0-0.5,0s-0.2-0.1-0.3-0.1c-0.1-0.1-0.2-0.2-0.2-0.3
		c0-0.1-0.1-0.3-0.1-0.5v-2h-0.7v-0.7h0.7v-0.6l1-0.4v1h0.8v0.7H132.8z"/>
	<path class="st5" d="M136.7,68.1l0-0.5c-0.2,0.2-0.3,0.4-0.5,0.5c-0.2,0.1-0.4,0.1-0.7,0.1c-0.4,0-0.8-0.1-1-0.3s-0.3-0.5-0.3-1
		v-2.3h1v1.9c0,0.1,0,0.2,0,0.4c0,0.1,0,0.2,0.1,0.3c0,0.1,0.1,0.2,0.2,0.2c0.1,0.1,0.2,0.1,0.4,0.1s0.3,0,0.4-0.1s0.2-0.1,0.2-0.3
		s0.1-0.2,0.1-0.3c0-0.1,0-0.3,0-0.4v-1.8h1v2.2c0,0.2,0,0.4,0,0.6c0,0.2,0,0.4,0,0.7H136.7z"/>
	<path class="st5" d="M141.2,68.1v-1.9c0-0.1,0-0.2,0-0.4c0-0.1,0-0.2-0.1-0.3c0-0.1-0.1-0.2-0.2-0.2c-0.1-0.1-0.2-0.1-0.4-0.1
		c-0.2,0-0.3,0-0.4,0.1c-0.1,0.1-0.2,0.2-0.2,0.3s-0.1,0.2-0.1,0.4c0,0.1,0,0.2,0,0.3v1.8h-1v-2.8c0-0.1,0-0.2,0-0.3
		c0-0.1,0-0.2,0-0.4h1l0,0.5c0.2-0.2,0.3-0.4,0.5-0.5s0.4-0.1,0.7-0.1c0.4,0,0.8,0.1,1,0.3c0.2,0.2,0.3,0.5,0.3,1v2.3H141.2z"/>
	<path class="st5" d="M146.6,64.5c0,0.2,0,0.4,0,0.6c0,0.2,0,0.3,0,0.4v1.9c0,0.7-0.1,1.2-0.4,1.6c-0.3,0.3-0.8,0.5-1.4,0.5
		c-0.2,0-0.4,0-0.6,0s-0.4-0.1-0.5-0.2c-0.2-0.1-0.3-0.2-0.4-0.3s-0.2-0.3-0.2-0.5v-0.1h1c0,0.1,0,0.2,0.1,0.3
		c0,0.1,0.1,0.1,0.2,0.2c0.1,0,0.1,0.1,0.2,0.1c0.1,0,0.2,0,0.3,0c0.2,0,0.3,0,0.4-0.1c0.1,0,0.2-0.1,0.2-0.2
		c0.1-0.1,0.1-0.2,0.1-0.3c0-0.1,0-0.2,0-0.4c0-0.1,0-0.2,0-0.2s0-0.2,0-0.2c-0.3,0.4-0.6,0.6-1.1,0.6c-0.3,0-0.5,0-0.7-0.1
		c-0.2-0.1-0.4-0.2-0.5-0.4c-0.1-0.2-0.2-0.3-0.3-0.6c-0.1-0.2-0.1-0.4-0.1-0.7c0-0.2,0-0.5,0.1-0.7c0.1-0.2,0.2-0.4,0.3-0.6
		c0.1-0.2,0.3-0.3,0.5-0.4c0.2-0.1,0.4-0.1,0.7-0.1c0.3,0,0.5,0,0.7,0.1c0.2,0.1,0.4,0.3,0.5,0.5v-0.5H146.6z M145.6,66.2
		c0-0.1,0-0.3,0-0.4c0-0.1-0.1-0.3-0.1-0.4c-0.1-0.1-0.1-0.2-0.2-0.3c-0.1-0.1-0.2-0.1-0.4-0.1c-0.2,0-0.3,0-0.4,0.1
		s-0.2,0.2-0.3,0.3s-0.1,0.2-0.1,0.4c0,0.1,0,0.3,0,0.4c0,0.1,0,0.3,0,0.4c0,0.1,0.1,0.3,0.1,0.4c0.1,0.1,0.1,0.2,0.2,0.3
		c0.1,0.1,0.2,0.1,0.4,0.1s0.3,0,0.4-0.1s0.2-0.2,0.3-0.3s0.1-0.2,0.1-0.4C145.6,66.5,145.6,66.3,145.6,66.2z"/>
</g>
<g>
	<path class="st5" d="M20.2,136.6h-1.3l-1.8-5.1h1.2l1.3,4.1l1.4-4.1h1.1L20.2,136.6z"/>
	<path class="st5" d="M22.8,135c0,0.1,0,0.3,0,0.4c0,0.1,0.1,0.2,0.1,0.3s0.1,0.2,0.3,0.2c0.1,0.1,0.2,0.1,0.4,0.1
		c0.4,0,0.7-0.2,0.7-0.6h1c0,0.2-0.1,0.4-0.2,0.6s-0.2,0.3-0.4,0.4c-0.2,0.1-0.3,0.2-0.5,0.2s-0.4,0.1-0.6,0.1c-0.6,0-1-0.2-1.3-0.5
		c-0.3-0.3-0.5-0.7-0.5-1.3c0-0.6,0.2-1.1,0.5-1.4c0.3-0.3,0.8-0.5,1.4-0.5c0.2,0,0.3,0,0.5,0.1s0.3,0.1,0.4,0.2s0.3,0.2,0.4,0.3
		s0.2,0.3,0.3,0.4c0.1,0.2,0.1,0.4,0.1,0.5c0,0.2,0,0.4,0,0.6H22.8z M24.3,134.4c0-0.3-0.1-0.5-0.2-0.6c-0.1-0.2-0.3-0.2-0.6-0.2
		c-0.3,0-0.4,0.1-0.6,0.2c-0.1,0.2-0.2,0.4-0.2,0.6H24.3z"/>
	<path class="st5" d="M28,133.9c-0.3,0-0.6,0.1-0.7,0.3c-0.1,0.2-0.2,0.4-0.2,0.7v1.7h-1v-2.7c0-0.1,0-0.3,0-0.4c0-0.1,0-0.3,0-0.4
		h1l0,0.7c0.1-0.2,0.3-0.4,0.4-0.5c0.2-0.1,0.4-0.2,0.7-0.2c0,0,0.1,0,0.1,0c0,0,0.1,0,0.1,0v0.9C28.2,133.9,28.1,133.9,28,133.9z"
		/>
	<path class="st5" d="M32.6,134.8c0,0.2,0,0.5-0.1,0.7s-0.2,0.4-0.3,0.6c-0.1,0.2-0.3,0.3-0.5,0.4s-0.4,0.2-0.7,0.2
		c-0.2,0-0.4,0-0.6-0.1c-0.2-0.1-0.3-0.2-0.5-0.4l0,0.5h-1c0-0.2,0-0.3,0-0.5c0-0.2,0-0.3,0-0.5v-4.1h1v2c0.1-0.2,0.3-0.3,0.5-0.4
		c0.2-0.1,0.4-0.1,0.6-0.1c0.3,0,0.5,0,0.7,0.1s0.4,0.2,0.5,0.4c0.1,0.2,0.2,0.4,0.3,0.6C32.6,134.3,32.6,134.5,32.6,134.8z
		 M31.5,134.8c0-0.1,0-0.3,0-0.4s-0.1-0.3-0.1-0.4c-0.1-0.1-0.1-0.2-0.2-0.3c-0.1-0.1-0.2-0.1-0.4-0.1c-0.2,0-0.3,0-0.4,0.1
		c-0.1,0.1-0.2,0.2-0.3,0.3c-0.1,0.1-0.1,0.2-0.1,0.4c0,0.1,0,0.3,0,0.4c0,0.1,0,0.3,0,0.4c0,0.1,0.1,0.3,0.1,0.4
		c0.1,0.1,0.1,0.2,0.2,0.3c0.1,0.1,0.2,0.1,0.4,0.1c0.2,0,0.3,0,0.4-0.1c0.1-0.1,0.2-0.2,0.3-0.3s0.1-0.2,0.1-0.4
		S31.5,134.9,31.5,134.8z"/>
	<path class="st5" d="M34.1,135c0,0.1,0,0.3,0,0.4c0,0.1,0.1,0.2,0.1,0.3s0.1,0.2,0.3,0.2c0.1,0.1,0.2,0.1,0.4,0.1
		c0.4,0,0.7-0.2,0.7-0.6h1c0,0.2-0.1,0.4-0.2,0.6s-0.2,0.3-0.4,0.4c-0.2,0.1-0.3,0.2-0.5,0.2s-0.4,0.1-0.6,0.1c-0.6,0-1-0.2-1.3-0.5
		c-0.3-0.3-0.5-0.7-0.5-1.3c0-0.6,0.2-1.1,0.5-1.4c0.3-0.3,0.8-0.5,1.4-0.5c0.2,0,0.3,0,0.5,0.1s0.3,0.1,0.4,0.2s0.3,0.2,0.4,0.3
		s0.2,0.3,0.3,0.4c0.1,0.2,0.1,0.4,0.1,0.5c0,0.2,0,0.4,0,0.6H34.1z M35.7,134.4c0-0.3-0.1-0.5-0.2-0.6c-0.1-0.2-0.3-0.2-0.6-0.2
		c-0.3,0-0.4,0.1-0.6,0.2c-0.1,0.2-0.2,0.4-0.2,0.6H35.7z"/>
	<path class="st5" d="M40.4,135.5c0,0.2-0.1,0.4-0.2,0.6c-0.1,0.1-0.2,0.3-0.4,0.4c-0.2,0.1-0.3,0.2-0.5,0.2c-0.2,0-0.4,0.1-0.6,0.1
		c-0.2,0-0.4,0-0.6-0.1s-0.4-0.1-0.5-0.2c-0.1-0.1-0.3-0.2-0.3-0.4c-0.1-0.2-0.1-0.4-0.1-0.6h1c0,0.2,0.1,0.4,0.2,0.5
		c0.1,0.1,0.2,0.2,0.5,0.2c0.1,0,0.1,0,0.2,0c0.1,0,0.1,0,0.2-0.1c0.1,0,0.1-0.1,0.1-0.1c0-0.1,0.1-0.1,0.1-0.2
		c0-0.1-0.1-0.2-0.2-0.3c-0.1-0.1-0.3-0.1-0.5-0.2l-0.4-0.1c-0.1,0-0.3-0.1-0.4-0.1c-0.1,0-0.2-0.1-0.3-0.2
		c-0.1-0.1-0.2-0.2-0.2-0.3c-0.1-0.1-0.1-0.2-0.1-0.4c0-0.2,0-0.4,0.1-0.5c0.1-0.1,0.2-0.2,0.4-0.3s0.3-0.1,0.5-0.2
		c0.2,0,0.4,0,0.5,0c0.2,0,0.4,0,0.6,0.1c0.2,0,0.3,0.1,0.5,0.2s0.3,0.2,0.3,0.4s0.1,0.3,0.2,0.5h-1c0-0.2-0.1-0.3-0.1-0.4
		c-0.1-0.1-0.2-0.2-0.4-0.2c-0.1,0-0.1,0-0.2,0c-0.1,0-0.1,0-0.2,0.1c-0.1,0-0.1,0.1-0.1,0.1c0,0,0,0.1,0,0.2c0,0.1,0.1,0.2,0.2,0.3
		c0.1,0.1,0.3,0.1,0.5,0.2l0.4,0.1c0.1,0,0.3,0.1,0.4,0.1c0.1,0,0.2,0.1,0.4,0.2s0.2,0.2,0.2,0.3C40.4,135.2,40.4,135.3,40.4,135.5z
		"/>
	<path class="st5" d="M44.2,135.5c0,0.2-0.1,0.4-0.2,0.6c-0.1,0.1-0.2,0.3-0.4,0.4c-0.2,0.1-0.3,0.2-0.5,0.2c-0.2,0-0.4,0.1-0.6,0.1
		c-0.2,0-0.4,0-0.6-0.1s-0.4-0.1-0.5-0.2c-0.1-0.1-0.3-0.2-0.3-0.4c-0.1-0.2-0.1-0.4-0.1-0.6h1c0,0.2,0.1,0.4,0.2,0.5
		c0.1,0.1,0.2,0.2,0.5,0.2c0.1,0,0.1,0,0.2,0c0.1,0,0.1,0,0.2-0.1c0.1,0,0.1-0.1,0.1-0.1c0-0.1,0.1-0.1,0.1-0.2
		c0-0.1-0.1-0.2-0.2-0.3c-0.1-0.1-0.3-0.1-0.5-0.2l-0.4-0.1c-0.1,0-0.3-0.1-0.4-0.1c-0.1,0-0.2-0.1-0.3-0.2
		c-0.1-0.1-0.2-0.2-0.2-0.3c-0.1-0.1-0.1-0.2-0.1-0.4c0-0.2,0-0.4,0.1-0.5c0.1-0.1,0.2-0.2,0.4-0.3s0.3-0.1,0.5-0.2
		c0.2,0,0.4,0,0.5,0c0.2,0,0.4,0,0.6,0.1c0.2,0,0.3,0.1,0.5,0.2s0.3,0.2,0.3,0.4s0.1,0.3,0.2,0.5h-1c0-0.2-0.1-0.3-0.1-0.4
		c-0.1-0.1-0.2-0.2-0.4-0.2c-0.1,0-0.1,0-0.2,0c-0.1,0-0.1,0-0.2,0.1c-0.1,0-0.1,0.1-0.1,0.1c0,0,0,0.1,0,0.2c0,0.1,0.1,0.2,0.2,0.3
		c0.1,0.1,0.3,0.1,0.5,0.2l0.4,0.1c0.1,0,0.3,0.1,0.4,0.1c0.1,0,0.2,0.1,0.4,0.2s0.2,0.2,0.2,0.3C44.2,135.2,44.2,135.3,44.2,135.5z
		"/>
	<path class="st5" d="M45.7,135c0,0.1,0,0.3,0,0.4c0,0.1,0.1,0.2,0.1,0.3s0.1,0.2,0.3,0.2c0.1,0.1,0.2,0.1,0.4,0.1
		c0.4,0,0.7-0.2,0.7-0.6h1c0,0.2-0.1,0.4-0.2,0.6s-0.2,0.3-0.4,0.4c-0.2,0.1-0.3,0.2-0.5,0.2s-0.4,0.1-0.6,0.1c-0.6,0-1-0.2-1.3-0.5
		c-0.3-0.3-0.5-0.7-0.5-1.3c0-0.6,0.2-1.1,0.5-1.4c0.3-0.3,0.8-0.5,1.4-0.5c0.2,0,0.3,0,0.5,0.1s0.3,0.1,0.4,0.2s0.3,0.2,0.4,0.3
		s0.2,0.3,0.3,0.4c0.1,0.2,0.1,0.4,0.1,0.5c0,0.2,0,0.4,0,0.6H45.7z M47.3,134.4c0-0.3-0.1-0.5-0.2-0.6c-0.1-0.2-0.3-0.2-0.6-0.2
		c-0.3,0-0.4,0.1-0.6,0.2c-0.1,0.2-0.2,0.4-0.2,0.6H47.3z"/>
	<path class="st5" d="M51,133.9c-0.3,0-0.6,0.1-0.7,0.3c-0.1,0.2-0.2,0.4-0.2,0.7v1.7h-1v-2.7c0-0.1,0-0.3,0-0.4c0-0.1,0-0.3,0-0.4
		h1l0,0.7c0.1-0.2,0.3-0.4,0.4-0.5c0.2-0.1,0.4-0.2,0.7-0.2c0,0,0.1,0,0.1,0c0,0,0.1,0,0.1,0v0.9C51.2,133.9,51.1,133.9,51,133.9z"
		/>
	<path class="st5" d="M54.3,136.6l0-0.5c-0.2,0.2-0.3,0.4-0.5,0.5c-0.2,0.1-0.4,0.1-0.7,0.1c-0.4,0-0.8-0.1-1-0.3s-0.3-0.5-0.3-1
		v-2.3h1v1.9c0,0.1,0,0.2,0,0.4c0,0.1,0,0.2,0.1,0.3c0,0.1,0.1,0.2,0.2,0.2c0.1,0.1,0.2,0.1,0.4,0.1s0.3,0,0.4-0.1s0.2-0.1,0.2-0.3
		s0.1-0.2,0.1-0.3c0-0.1,0-0.3,0-0.4v-1.8h1v2.2c0,0.2,0,0.4,0,0.6c0,0.2,0,0.4,0,0.7H54.3z"/>
	<path class="st5" d="M58.7,136.6v-1.9c0-0.1,0-0.2,0-0.4c0-0.1,0-0.2-0.1-0.3c0-0.1-0.1-0.2-0.2-0.2c-0.1-0.1-0.2-0.1-0.4-0.1
		c-0.2,0-0.3,0-0.4,0.1c-0.1,0.1-0.2,0.2-0.2,0.3s-0.1,0.2-0.1,0.4c0,0.1,0,0.2,0,0.3v1.8h-1v-2.8c0-0.1,0-0.2,0-0.3
		c0-0.1,0-0.2,0-0.4h1l0,0.5c0.2-0.2,0.3-0.4,0.5-0.5s0.4-0.1,0.7-0.1c0.4,0,0.8,0.1,1,0.3c0.2,0.2,0.3,0.5,0.3,1v2.3H58.7z"/>
	<path class="st5" d="M64.2,133.1c0,0.2,0,0.4,0,0.6c0,0.2,0,0.3,0,0.4v1.9c0,0.7-0.1,1.2-0.4,1.6c-0.3,0.3-0.8,0.5-1.4,0.5
		c-0.2,0-0.4,0-0.6,0s-0.4-0.1-0.5-0.2c-0.2-0.1-0.3-0.2-0.4-0.3s-0.2-0.3-0.2-0.5v-0.1h1c0,0.1,0,0.2,0.1,0.3
		c0,0.1,0.1,0.1,0.2,0.2c0.1,0,0.1,0.1,0.2,0.1c0.1,0,0.2,0,0.3,0c0.2,0,0.3,0,0.4-0.1c0.1,0,0.2-0.1,0.2-0.2
		c0.1-0.1,0.1-0.2,0.1-0.3c0-0.1,0-0.2,0-0.4c0-0.1,0-0.2,0-0.2s0-0.2,0-0.2c-0.3,0.4-0.6,0.6-1.1,0.6c-0.3,0-0.5,0-0.7-0.1
		c-0.2-0.1-0.4-0.2-0.5-0.4c-0.1-0.2-0.2-0.3-0.3-0.6c-0.1-0.2-0.1-0.4-0.1-0.7c0-0.2,0-0.5,0.1-0.7c0.1-0.2,0.2-0.4,0.3-0.6
		c0.1-0.2,0.3-0.3,0.5-0.4c0.2-0.1,0.4-0.1,0.7-0.1c0.3,0,0.5,0,0.7,0.1c0.2,0.1,0.4,0.3,0.5,0.5v-0.5H64.2z M63.2,134.7
		c0-0.1,0-0.3,0-0.4c0-0.1-0.1-0.3-0.1-0.4c-0.1-0.1-0.1-0.2-0.2-0.3c-0.1-0.1-0.2-0.1-0.4-0.1c-0.2,0-0.3,0-0.4,0.1
		s-0.2,0.2-0.3,0.3s-0.1,0.2-0.1,0.4c0,0.1,0,0.3,0,0.4c0,0.1,0,0.3,0,0.4c0,0.1,0.1,0.3,0.1,0.4c0.1,0.1,0.1,0.2,0.2,0.3
		c0.1,0.1,0.2,0.1,0.4,0.1s0.3,0,0.4-0.1s0.2-0.2,0.3-0.3s0.1-0.2,0.1-0.4C63.2,135,63.2,134.8,63.2,134.7z"/>
	<path class="st5" d="M68.2,135.5c0,0.2-0.1,0.4-0.2,0.6c-0.1,0.1-0.2,0.3-0.4,0.4c-0.2,0.1-0.3,0.2-0.5,0.2c-0.2,0-0.4,0.1-0.6,0.1
		c-0.2,0-0.4,0-0.6-0.1s-0.4-0.1-0.5-0.2c-0.1-0.1-0.3-0.2-0.3-0.4c-0.1-0.2-0.1-0.4-0.1-0.6h1c0,0.2,0.1,0.4,0.2,0.5
		c0.1,0.1,0.2,0.2,0.5,0.2c0.1,0,0.1,0,0.2,0c0.1,0,0.1,0,0.2-0.1c0.1,0,0.1-0.1,0.1-0.1c0-0.1,0.1-0.1,0.1-0.2
		c0-0.1-0.1-0.2-0.2-0.3c-0.1-0.1-0.3-0.1-0.5-0.2l-0.4-0.1c-0.1,0-0.3-0.1-0.4-0.1c-0.1,0-0.2-0.1-0.3-0.2
		c-0.1-0.1-0.2-0.2-0.2-0.3c-0.1-0.1-0.1-0.2-0.1-0.4c0-0.2,0-0.4,0.1-0.5c0.1-0.1,0.2-0.2,0.4-0.3s0.3-0.1,0.5-0.2
		c0.2,0,0.4,0,0.5,0c0.2,0,0.4,0,0.6,0.1c0.2,0,0.3,0.1,0.5,0.2s0.3,0.2,0.3,0.4s0.1,0.3,0.2,0.5h-1c0-0.2-0.1-0.3-0.1-0.4
		c-0.1-0.1-0.2-0.2-0.4-0.2c-0.1,0-0.1,0-0.2,0c-0.1,0-0.1,0-0.2,0.1c-0.1,0-0.1,0.1-0.1,0.1c0,0,0,0.1,0,0.2c0,0.1,0.1,0.2,0.2,0.3
		c0.1,0.1,0.3,0.1,0.5,0.2l0.4,0.1c0.1,0,0.3,0.1,0.4,0.1c0.1,0,0.2,0.1,0.4,0.2s0.2,0.2,0.2,0.3C68.1,135.2,68.2,135.3,68.2,135.5z
		"/>
	<path class="st5" d="M71,136.6h-1.1l-1.4-3.5h1.1l0.9,2.7l1-2.7h1L71,136.6z"/>
	<path class="st5" d="M76.4,134.8c0,0.3,0,0.6-0.1,0.8c-0.1,0.2-0.2,0.4-0.4,0.6c-0.2,0.2-0.4,0.3-0.6,0.4c-0.2,0.1-0.5,0.1-0.8,0.1
		c-0.3,0-0.6,0-0.8-0.1c-0.2-0.1-0.4-0.2-0.6-0.4c-0.2-0.2-0.3-0.4-0.4-0.6c-0.1-0.2-0.1-0.5-0.1-0.8c0-0.3,0-0.6,0.1-0.8
		c0.1-0.2,0.2-0.4,0.4-0.6c0.2-0.2,0.4-0.3,0.6-0.4c0.2-0.1,0.5-0.1,0.8-0.1c0.3,0,0.6,0,0.8,0.1c0.2,0.1,0.4,0.2,0.6,0.4
		c0.2,0.2,0.3,0.4,0.4,0.6C76.4,134.2,76.4,134.5,76.4,134.8z M75.4,134.8c0-0.1,0-0.3,0-0.4c0-0.1-0.1-0.3-0.1-0.4
		s-0.2-0.2-0.3-0.3c-0.1-0.1-0.3-0.1-0.4-0.1c-0.2,0-0.3,0-0.4,0.1c-0.1,0.1-0.2,0.2-0.3,0.3s-0.1,0.3-0.1,0.4s0,0.3,0,0.4
		s0,0.3,0,0.4s0.1,0.3,0.1,0.4c0.1,0.1,0.1,0.2,0.3,0.3c0.1,0.1,0.3,0.1,0.4,0.1c0.2,0,0.3,0,0.4-0.1c0.1-0.1,0.2-0.2,0.3-0.3
		c0.1-0.1,0.1-0.3,0.1-0.4C75.3,135.1,75.4,134.9,75.4,134.8z"/>
	<path class="st5" d="M79.1,133.9c-0.3,0-0.6,0.1-0.7,0.3c-0.1,0.2-0.2,0.4-0.2,0.7v1.7h-1v-2.7c0-0.1,0-0.3,0-0.4
		c0-0.1,0-0.3,0-0.4h1l0,0.7c0.1-0.2,0.3-0.4,0.4-0.5c0.2-0.1,0.4-0.2,0.7-0.2c0,0,0.1,0,0.1,0c0,0,0.1,0,0.1,0v0.9
		C79.3,133.9,79.2,133.9,79.1,133.9z"/>
	<path class="st5" d="M82.9,135.5c0,0.2-0.1,0.4-0.2,0.6c-0.1,0.1-0.2,0.3-0.4,0.4c-0.2,0.1-0.3,0.2-0.5,0.2c-0.2,0-0.4,0.1-0.6,0.1
		c-0.2,0-0.4,0-0.6-0.1s-0.4-0.1-0.5-0.2c-0.1-0.1-0.3-0.2-0.3-0.4c-0.1-0.2-0.1-0.4-0.1-0.6h1c0,0.2,0.1,0.4,0.2,0.5
		c0.1,0.1,0.2,0.2,0.5,0.2c0.1,0,0.1,0,0.2,0c0.1,0,0.1,0,0.2-0.1c0.1,0,0.1-0.1,0.1-0.1c0-0.1,0.1-0.1,0.1-0.2
		c0-0.1-0.1-0.2-0.2-0.3c-0.1-0.1-0.3-0.1-0.5-0.2l-0.4-0.1c-0.1,0-0.3-0.1-0.4-0.1c-0.1,0-0.2-0.1-0.3-0.2
		c-0.1-0.1-0.2-0.2-0.2-0.3c-0.1-0.1-0.1-0.2-0.1-0.4c0-0.2,0-0.4,0.1-0.5c0.1-0.1,0.2-0.2,0.4-0.3s0.3-0.1,0.5-0.2
		c0.2,0,0.4,0,0.5,0c0.2,0,0.4,0,0.6,0.1c0.2,0,0.3,0.1,0.5,0.2s0.3,0.2,0.3,0.4s0.1,0.3,0.2,0.5h-1c0-0.2-0.1-0.3-0.1-0.4
		c-0.1-0.1-0.2-0.2-0.4-0.2c-0.1,0-0.1,0-0.2,0c-0.1,0-0.1,0-0.2,0.1c-0.1,0-0.1,0.1-0.1,0.1c0,0,0,0.1,0,0.2c0,0.1,0.1,0.2,0.2,0.3
		c0.1,0.1,0.3,0.1,0.5,0.2l0.4,0.1c0.1,0,0.3,0.1,0.4,0.1c0.1,0,0.2,0.1,0.4,0.2s0.2,0.2,0.2,0.3C82.9,135.2,82.9,135.3,82.9,135.5z
		"/>
	<path class="st5" d="M86.8,135.9c-0.1,0.2-0.2,0.3-0.4,0.4c-0.2,0.1-0.3,0.2-0.5,0.2c-0.2,0.1-0.4,0.1-0.6,0.1
		c-0.6,0-1-0.2-1.4-0.5c-0.3-0.3-0.5-0.8-0.5-1.3c0-0.3,0-0.5,0.1-0.8c0.1-0.2,0.2-0.4,0.4-0.6c0.2-0.2,0.4-0.3,0.6-0.4
		s0.5-0.1,0.8-0.1c0.2,0,0.4,0,0.6,0.1c0.2,0,0.4,0.1,0.5,0.2c0.1,0.1,0.3,0.2,0.4,0.4c0.1,0.2,0.1,0.4,0.2,0.6h-1
		c0-0.2-0.1-0.4-0.2-0.5c-0.1-0.1-0.3-0.2-0.5-0.2c-0.2,0-0.3,0-0.4,0.1s-0.2,0.2-0.2,0.3c-0.1,0.1-0.1,0.3-0.1,0.4s0,0.3,0,0.4
		c0,0.1,0,0.3,0,0.4s0.1,0.3,0.1,0.4c0.1,0.1,0.1,0.2,0.2,0.3c0.1,0.1,0.2,0.1,0.4,0.1c0.2,0,0.4-0.1,0.5-0.2
		c0.1-0.1,0.1-0.3,0.2-0.6h1v0C87,135.6,86.9,135.8,86.8,135.9z"/>
	<path class="st5" d="M90.1,136.6v-1.9c0-0.1,0-0.2,0-0.4s0-0.2-0.1-0.3s-0.1-0.2-0.2-0.2c-0.1-0.1-0.2-0.1-0.4-0.1
		c-0.2,0-0.3,0-0.4,0.1s-0.2,0.2-0.2,0.3s-0.1,0.2-0.1,0.4s0,0.2,0,0.3v1.8h-1v-5.1h1l0,2c0.1-0.2,0.3-0.3,0.5-0.4
		c0.2-0.1,0.4-0.1,0.6-0.1c0.4,0,0.8,0.1,1,0.3c0.2,0.2,0.3,0.5,0.3,1v2.3H90.1z"/>
	<path class="st5" d="M92,136.6v-5.1h1v5.1H92z"/>
	<path class="st5" d="M96.2,136.6c0-0.1,0-0.2-0.1-0.2c0-0.1,0-0.2,0-0.2c-0.1,0.2-0.3,0.4-0.5,0.4s-0.4,0.1-0.6,0.1
		c-0.2,0-0.3,0-0.5-0.1s-0.3-0.1-0.4-0.2c-0.1-0.1-0.2-0.2-0.3-0.3c-0.1-0.1-0.1-0.3-0.1-0.5c0-0.3,0.1-0.5,0.2-0.7
		c0.1-0.2,0.3-0.3,0.5-0.4s0.4-0.1,0.7-0.2c0.2,0,0.5,0,0.7,0h0.3v-0.1c0-0.1,0-0.2,0-0.3c0-0.1,0-0.2-0.1-0.2
		c0-0.1-0.1-0.1-0.2-0.2s-0.2-0.1-0.3-0.1c-0.2,0-0.3,0.1-0.4,0.2s-0.1,0.2-0.1,0.4h-1c0-0.2,0.1-0.4,0.1-0.5
		c0.1-0.1,0.2-0.3,0.4-0.3c0.2-0.1,0.3-0.1,0.5-0.2c0.2,0,0.4-0.1,0.6-0.1c0.2,0,0.5,0,0.6,0.1c0.2,0,0.4,0.1,0.5,0.2
		s0.2,0.2,0.3,0.4s0.1,0.4,0.1,0.7v1c0,0.2,0,0.4,0,0.6c0,0.2,0,0.4,0,0.6H96.2z M94.3,132.3v-0.8h0.9v0.8H94.3z M96.2,134.9
		c-0.1,0-0.1,0-0.1,0c0,0-0.1,0-0.1,0c-0.1,0-0.2,0-0.4,0c-0.1,0-0.2,0-0.4,0.1c-0.1,0-0.2,0.1-0.3,0.2c-0.1,0.1-0.1,0.2-0.1,0.3
		c0,0.2,0.1,0.3,0.2,0.4c0.1,0.1,0.2,0.1,0.4,0.1c0.2,0,0.3,0,0.4-0.1s0.2-0.2,0.2-0.3c0.1-0.1,0.1-0.2,0.1-0.4
		S96.2,135.1,96.2,134.9L96.2,134.9z M96,132.3v-0.8h0.9v0.8H96z"/>
	<path class="st5" d="M101.6,133.1c0,0.2,0,0.4,0,0.6c0,0.2,0,0.3,0,0.4v1.9c0,0.7-0.1,1.2-0.4,1.6c-0.3,0.3-0.8,0.5-1.4,0.5
		c-0.2,0-0.4,0-0.6,0s-0.4-0.1-0.5-0.2c-0.2-0.1-0.3-0.2-0.4-0.3s-0.2-0.3-0.2-0.5v-0.1h1c0,0.1,0,0.2,0.1,0.3
		c0,0.1,0.1,0.1,0.2,0.2c0.1,0,0.1,0.1,0.2,0.1c0.1,0,0.2,0,0.3,0c0.2,0,0.3,0,0.4-0.1c0.1,0,0.2-0.1,0.2-0.2
		c0.1-0.1,0.1-0.2,0.1-0.3c0-0.1,0-0.2,0-0.4c0-0.1,0-0.2,0-0.2s0-0.2,0-0.2c-0.3,0.4-0.6,0.6-1.1,0.6c-0.3,0-0.5,0-0.7-0.1
		c-0.2-0.1-0.4-0.2-0.5-0.4c-0.1-0.2-0.2-0.3-0.3-0.6c-0.1-0.2-0.1-0.4-0.1-0.7c0-0.2,0-0.5,0.1-0.7c0.1-0.2,0.2-0.4,0.3-0.6
		c0.1-0.2,0.3-0.3,0.5-0.4c0.2-0.1,0.4-0.1,0.7-0.1c0.3,0,0.5,0,0.7,0.1c0.2,0.1,0.4,0.3,0.5,0.5v-0.5H101.6z M100.6,134.7
		c0-0.1,0-0.3,0-0.4c0-0.1-0.1-0.3-0.1-0.4c-0.1-0.1-0.1-0.2-0.2-0.3c-0.1-0.1-0.2-0.1-0.4-0.1c-0.2,0-0.3,0-0.4,0.1
		s-0.2,0.2-0.3,0.3s-0.1,0.2-0.1,0.4c0,0.1,0,0.3,0,0.4c0,0.1,0,0.3,0,0.4c0,0.1,0.1,0.3,0.1,0.4c0.1,0.1,0.1,0.2,0.2,0.3
		c0.1,0.1,0.2,0.1,0.4,0.1s0.3,0,0.4-0.1s0.2-0.2,0.3-0.3s0.1-0.2,0.1-0.4C100.5,135,100.6,134.8,100.6,134.7z"/>
	<path class="st5" d="M103.3,135c0,0.1,0,0.3,0,0.4c0,0.1,0.1,0.2,0.1,0.3s0.1,0.2,0.3,0.2c0.1,0.1,0.2,0.1,0.4,0.1
		c0.4,0,0.7-0.2,0.7-0.6h1c0,0.2-0.1,0.4-0.2,0.6s-0.2,0.3-0.4,0.4c-0.2,0.1-0.3,0.2-0.5,0.2s-0.4,0.1-0.6,0.1c-0.6,0-1-0.2-1.3-0.5
		c-0.3-0.3-0.5-0.7-0.5-1.3c0-0.6,0.2-1.1,0.5-1.4c0.3-0.3,0.8-0.5,1.4-0.5c0.2,0,0.3,0,0.5,0.1s0.3,0.1,0.4,0.2s0.3,0.2,0.4,0.3
		s0.2,0.3,0.3,0.4c0.1,0.2,0.1,0.4,0.1,0.5c0,0.2,0,0.4,0,0.6H103.3z M104.9,134.4c0-0.3-0.1-0.5-0.2-0.6c-0.1-0.2-0.3-0.2-0.6-0.2
		c-0.3,0-0.4,0.1-0.6,0.2c-0.1,0.2-0.2,0.4-0.2,0.6H104.9z"/>
</g>
<g>
	<path class="st5" d="M235.6,132.2c0,0.3-0.1,0.5-0.2,0.7s-0.3,0.4-0.5,0.5c-0.2,0.1-0.4,0.2-0.7,0.3c-0.3,0.1-0.5,0.1-0.7,0.1
		c-0.3,0-0.5,0-0.8-0.1c-0.2-0.1-0.5-0.2-0.6-0.3c-0.2-0.1-0.3-0.3-0.4-0.5s-0.2-0.5-0.2-0.8h1.1c0,0.3,0.1,0.5,0.2,0.6
		c0.2,0.2,0.4,0.2,0.7,0.2c0.1,0,0.2,0,0.3,0c0.1,0,0.2-0.1,0.3-0.1s0.2-0.1,0.2-0.2c0.1-0.1,0.1-0.2,0.1-0.3c0-0.1,0-0.2-0.1-0.2
		s-0.1-0.1-0.2-0.2c-0.1-0.1-0.2-0.1-0.3-0.1c-0.1,0-0.2-0.1-0.4-0.1l-0.4-0.1c-0.2-0.1-0.4-0.1-0.6-0.2c-0.2-0.1-0.4-0.2-0.5-0.3
		c-0.1-0.1-0.3-0.2-0.4-0.4s-0.1-0.3-0.1-0.6c0-0.3,0.1-0.5,0.2-0.7s0.3-0.3,0.5-0.5c0.2-0.1,0.4-0.2,0.6-0.3
		c0.2-0.1,0.5-0.1,0.7-0.1c0.2,0,0.5,0,0.7,0.1s0.4,0.1,0.6,0.2s0.3,0.3,0.4,0.5c0.1,0.2,0.2,0.4,0.2,0.7h-1.1
		c0-0.2-0.1-0.4-0.2-0.5s-0.3-0.2-0.6-0.2c-0.1,0-0.2,0-0.3,0s-0.2,0.1-0.3,0.1c-0.1,0.1-0.1,0.1-0.2,0.2c0,0.1-0.1,0.2-0.1,0.3
		c0,0.1,0,0.2,0.1,0.2c0,0.1,0.1,0.1,0.2,0.2c0.1,0.1,0.2,0.1,0.3,0.1c0.1,0,0.3,0.1,0.5,0.2l0.4,0.1c0.2,0.1,0.4,0.1,0.6,0.2
		c0.2,0.1,0.3,0.2,0.4,0.3c0.1,0.1,0.2,0.2,0.3,0.4C235.6,131.8,235.6,132,235.6,132.2z"/>
	<path class="st5" d="M239.5,133.1c-0.1,0.2-0.2,0.3-0.4,0.4c-0.2,0.1-0.3,0.2-0.5,0.2c-0.2,0.1-0.4,0.1-0.6,0.1
		c-0.6,0-1-0.2-1.4-0.5c-0.3-0.3-0.5-0.8-0.5-1.3c0-0.3,0-0.5,0.1-0.8s0.2-0.4,0.4-0.6c0.2-0.2,0.4-0.3,0.6-0.4
		c0.2-0.1,0.5-0.1,0.8-0.1c0.2,0,0.4,0,0.6,0.1s0.4,0.1,0.5,0.2c0.1,0.1,0.3,0.2,0.4,0.4c0.1,0.2,0.1,0.4,0.2,0.6h-1
		c0-0.2-0.1-0.4-0.2-0.5s-0.3-0.2-0.5-0.2c-0.2,0-0.3,0-0.4,0.1c-0.1,0.1-0.2,0.2-0.2,0.3c-0.1,0.1-0.1,0.3-0.1,0.4s0,0.3,0,0.4
		c0,0.1,0,0.3,0,0.4s0.1,0.3,0.1,0.4s0.1,0.2,0.2,0.3s0.2,0.1,0.4,0.1c0.2,0,0.4-0.1,0.5-0.2c0.1-0.1,0.1-0.3,0.2-0.6h1v0
		C239.7,132.7,239.6,132.9,239.5,133.1z"/>
	<path class="st5" d="M242.8,133.7v-1.9c0-0.1,0-0.2,0-0.4c0-0.1,0-0.2-0.1-0.3c0-0.1-0.1-0.2-0.2-0.2s-0.2-0.1-0.4-0.1
		c-0.2,0-0.3,0-0.4,0.1c-0.1,0.1-0.2,0.2-0.2,0.3c-0.1,0.1-0.1,0.2-0.1,0.4s0,0.2,0,0.3v1.8h-1v-5.1h1l0,2c0.1-0.2,0.3-0.3,0.5-0.4
		c0.2-0.1,0.4-0.1,0.6-0.1c0.4,0,0.8,0.1,1,0.3c0.2,0.2,0.3,0.5,0.3,1v2.3H242.8z"/>
	<path class="st5" d="M247.2,133.7l0-0.5c-0.2,0.2-0.3,0.4-0.5,0.5c-0.2,0.1-0.4,0.1-0.7,0.1c-0.4,0-0.8-0.1-1-0.3s-0.3-0.5-0.3-1
		v-2.3h1v1.9c0,0.1,0,0.2,0,0.4c0,0.1,0,0.2,0.1,0.3c0,0.1,0.1,0.2,0.2,0.2c0.1,0.1,0.2,0.1,0.4,0.1c0.2,0,0.3,0,0.4-0.1
		c0.1-0.1,0.2-0.1,0.2-0.3c0.1-0.1,0.1-0.2,0.1-0.3c0-0.1,0-0.3,0-0.4v-1.8h1v2.2c0,0.2,0,0.4,0,0.6c0,0.2,0,0.4,0,0.7H247.2z"/>
	<path class="st5" d="M249.2,133.7v-5.1h1v5.1H249.2z"/>
	<path class="st5" d="M251.2,133.7v-5.1h1v5.1H251.2z"/>
	<path class="st5" d="M254,132.1c0,0.1,0,0.3,0,0.4c0,0.1,0.1,0.2,0.1,0.3s0.1,0.2,0.3,0.2c0.1,0.1,0.2,0.1,0.4,0.1
		c0.4,0,0.7-0.2,0.7-0.6h1c0,0.2-0.1,0.4-0.2,0.6c-0.1,0.2-0.2,0.3-0.4,0.4s-0.3,0.2-0.5,0.2c-0.2,0-0.4,0.1-0.6,0.1
		c-0.6,0-1-0.2-1.3-0.5c-0.3-0.3-0.5-0.7-0.5-1.3c0-0.6,0.2-1.1,0.5-1.4c0.3-0.3,0.8-0.5,1.4-0.5c0.2,0,0.3,0,0.5,0.1
		c0.2,0,0.3,0.1,0.4,0.2c0.1,0.1,0.3,0.2,0.4,0.3c0.1,0.1,0.2,0.3,0.3,0.4c0.1,0.2,0.1,0.4,0.1,0.5c0,0.2,0,0.4,0,0.6H254z
		 M255.6,131.5c0-0.3-0.1-0.5-0.2-0.6s-0.3-0.2-0.6-0.2c-0.3,0-0.4,0.1-0.6,0.2c-0.1,0.2-0.2,0.4-0.2,0.6H255.6z"/>
	<path class="st5" d="M257.3,129.5v-0.8h1.1v0.8H257.3z M257.3,133.7v-3.5h1v3.5H257.3z"/>
	<path class="st5" d="M260.6,130.8v1.6c0,0.1,0,0.2,0,0.3s0,0.1,0.1,0.2c0,0,0.1,0.1,0.1,0.1s0.2,0,0.3,0c0.1,0,0.1,0,0.2,0
		c0.1,0,0.1,0,0.2,0v0.7c-0.1,0-0.2,0-0.4,0c-0.1,0-0.2,0-0.4,0c-0.2,0-0.3,0-0.5,0c-0.1,0-0.2-0.1-0.3-0.1
		c-0.1-0.1-0.2-0.2-0.2-0.3c0-0.1-0.1-0.3-0.1-0.5v-2h-0.7v-0.7h0.7v-0.6l1-0.4v1h0.8v0.7H260.6z"/>
	<path class="st5" d="M264.5,133.7l0-0.5c-0.2,0.2-0.3,0.4-0.5,0.5c-0.2,0.1-0.4,0.1-0.7,0.1c-0.4,0-0.8-0.1-1-0.3s-0.3-0.5-0.3-1
		v-2.3h1v1.9c0,0.1,0,0.2,0,0.4c0,0.1,0,0.2,0.1,0.3c0,0.1,0.1,0.2,0.2,0.2s0.2,0.1,0.4,0.1c0.2,0,0.3,0,0.4-0.1
		c0.1-0.1,0.2-0.1,0.2-0.3c0.1-0.1,0.1-0.2,0.1-0.3c0-0.1,0-0.3,0-0.4v-1.8h1v2.2c0,0.2,0,0.4,0,0.6c0,0.2,0,0.4,0,0.7H264.5z"/>
	<path class="st5" d="M268.9,133.7v-1.9c0-0.1,0-0.2,0-0.4c0-0.1,0-0.2-0.1-0.3c0-0.1-0.1-0.2-0.2-0.2c-0.1-0.1-0.2-0.1-0.4-0.1
		c-0.2,0-0.3,0-0.4,0.1c-0.1,0.1-0.2,0.2-0.2,0.3s-0.1,0.2-0.1,0.4c0,0.1,0,0.2,0,0.3v1.8h-1v-2.8c0-0.1,0-0.2,0-0.3s0-0.2,0-0.4h1
		l0,0.5c0.2-0.2,0.3-0.4,0.5-0.5c0.2-0.1,0.4-0.1,0.7-0.1c0.4,0,0.8,0.1,1,0.3c0.2,0.2,0.3,0.5,0.3,1v2.3H268.9z"/>
	<path class="st5" d="M274.4,130.2c0,0.2,0,0.4,0,0.6c0,0.2,0,0.3,0,0.4v1.9c0,0.7-0.1,1.2-0.4,1.6c-0.3,0.3-0.8,0.5-1.4,0.5
		c-0.2,0-0.4,0-0.6,0c-0.2,0-0.4-0.1-0.5-0.2s-0.3-0.2-0.4-0.3c-0.1-0.1-0.2-0.3-0.2-0.5V134h1c0,0.1,0,0.2,0.1,0.3
		c0,0.1,0.1,0.1,0.2,0.2c0.1,0,0.1,0.1,0.2,0.1c0.1,0,0.2,0,0.3,0c0.2,0,0.3,0,0.4-0.1c0.1,0,0.2-0.1,0.2-0.2
		c0.1-0.1,0.1-0.2,0.1-0.3c0-0.1,0-0.2,0-0.4c0-0.1,0-0.2,0-0.2c0-0.1,0-0.2,0-0.2c-0.3,0.4-0.6,0.6-1.1,0.6c-0.3,0-0.5,0-0.7-0.1
		c-0.2-0.1-0.4-0.2-0.5-0.4c-0.1-0.2-0.2-0.3-0.3-0.6c-0.1-0.2-0.1-0.4-0.1-0.7c0-0.2,0-0.5,0.1-0.7c0.1-0.2,0.2-0.4,0.3-0.6
		c0.1-0.2,0.3-0.3,0.5-0.4c0.2-0.1,0.4-0.1,0.7-0.1c0.3,0,0.5,0,0.7,0.1c0.2,0.1,0.4,0.3,0.5,0.5v-0.5H274.4z M273.3,131.8
		c0-0.1,0-0.3,0-0.4c0-0.1-0.1-0.3-0.1-0.4c-0.1-0.1-0.1-0.2-0.2-0.3c-0.1-0.1-0.2-0.1-0.4-0.1c-0.2,0-0.3,0-0.4,0.1
		s-0.2,0.2-0.3,0.3c-0.1,0.1-0.1,0.2-0.1,0.4s0,0.3,0,0.4c0,0.1,0,0.3,0,0.4s0.1,0.3,0.1,0.4c0.1,0.1,0.1,0.2,0.2,0.3
		c0.1,0.1,0.2,0.1,0.4,0.1c0.2,0,0.3,0,0.4-0.1s0.2-0.2,0.3-0.3c0.1-0.1,0.1-0.2,0.1-0.4C273.3,132.1,273.3,132,273.3,131.8z"/>
	<path class="st5" d="M281.2,131.9c0,0.2,0,0.5-0.1,0.7c-0.1,0.2-0.2,0.4-0.3,0.6c-0.1,0.2-0.3,0.3-0.5,0.4
		c-0.2,0.1-0.4,0.2-0.7,0.2c-0.2,0-0.4,0-0.6-0.1c-0.2-0.1-0.3-0.2-0.5-0.4v1.8h-1v-4c0-0.1,0-0.3,0-0.4c0-0.1,0-0.3,0-0.4h1l0,0.5
		c0.1-0.2,0.3-0.4,0.5-0.5s0.4-0.1,0.7-0.1c0.3,0,0.5,0,0.7,0.1c0.2,0.1,0.3,0.2,0.5,0.4s0.2,0.3,0.3,0.6S281.2,131.6,281.2,131.9z
		 M280.2,131.9c0-0.1,0-0.3,0-0.4c0-0.1-0.1-0.3-0.1-0.4s-0.1-0.2-0.2-0.3c-0.1-0.1-0.2-0.1-0.4-0.1c-0.2,0-0.3,0-0.4,0.1
		s-0.2,0.2-0.3,0.3c-0.1,0.1-0.1,0.2-0.1,0.4c0,0.1,0,0.3,0,0.4c0,0.1,0,0.3,0,0.4c0,0.1,0.1,0.3,0.1,0.4c0.1,0.1,0.1,0.2,0.2,0.3
		c0.1,0.1,0.2,0.1,0.4,0.1c0.2,0,0.3,0,0.4-0.1c0.1-0.1,0.2-0.2,0.3-0.3s0.1-0.3,0.1-0.4C280.1,132.2,280.2,132.1,280.2,131.9z"/>
	<path class="st5" d="M283.9,131c-0.3,0-0.6,0.1-0.7,0.3c-0.1,0.2-0.2,0.4-0.2,0.7v1.7h-1V131c0-0.1,0-0.3,0-0.4c0-0.1,0-0.3,0-0.4
		h1l0,0.7c0.1-0.2,0.3-0.4,0.4-0.5s0.4-0.2,0.7-0.2c0,0,0.1,0,0.1,0s0.1,0,0.1,0v0.9C284.1,131,284,131,283.9,131z"/>
	<path class="st5" d="M287.2,133.7l0-0.5c-0.2,0.2-0.3,0.4-0.5,0.5c-0.2,0.1-0.4,0.1-0.7,0.1c-0.4,0-0.8-0.1-1-0.3s-0.3-0.5-0.3-1
		v-2.3h1v1.9c0,0.1,0,0.2,0,0.4c0,0.1,0,0.2,0.1,0.3c0,0.1,0.1,0.2,0.2,0.2s0.2,0.1,0.4,0.1c0.2,0,0.3,0,0.4-0.1
		c0.1-0.1,0.2-0.1,0.2-0.3c0.1-0.1,0.1-0.2,0.1-0.3c0-0.1,0-0.3,0-0.4v-1.8h1v2.2c0,0.2,0,0.4,0,0.6c0,0.2,0,0.4,0,0.7H287.2z
		 M285.2,129.4v-0.8h0.9v0.8H285.2z M286.9,129.4v-0.8h0.9v0.8H286.9z"/>
	<path class="st5" d="M291.2,129.3c-0.1,0-0.1,0-0.2,0c-0.1,0-0.2,0-0.3,0c-0.1,0-0.1,0.1-0.2,0.1s-0.1,0.1-0.1,0.2
		c0,0.1,0,0.1,0,0.2v0.3h0.8v0.7h-0.8v2.9h-1v-2.9h-0.7v-0.7h0.7v-0.3c0-0.4,0.1-0.7,0.3-0.9c0.2-0.2,0.5-0.3,0.9-0.3
		c0.1,0,0.2,0,0.3,0c0.1,0,0.2,0,0.3,0v0.7C291.3,129.3,291.3,129.3,291.2,129.3z"/>
	<path class="st5" d="M293.2,130.8v1.6c0,0.1,0,0.2,0,0.3c0,0.1,0,0.1,0.1,0.2c0,0,0.1,0.1,0.1,0.1s0.2,0,0.3,0c0.1,0,0.1,0,0.2,0
		c0.1,0,0.1,0,0.2,0v0.7c-0.1,0-0.2,0-0.4,0c-0.1,0-0.2,0-0.4,0c-0.2,0-0.3,0-0.5,0c-0.1,0-0.2-0.1-0.3-0.1
		c-0.1-0.1-0.2-0.2-0.2-0.3c0-0.1-0.1-0.3-0.1-0.5v-2h-0.7v-0.7h0.7v-0.6l1-0.4v1h0.8v0.7H293.2z"/>
	<path class="st5" d="M241.8,141.7c-0.4,0.4-0.9,0.6-1.7,0.6c-0.2,0-0.4,0-0.6,0c-0.2,0-0.4-0.1-0.5-0.1s-0.3-0.2-0.5-0.3
		c-0.1-0.1-0.3-0.3-0.4-0.4c-0.1-0.2-0.2-0.4-0.2-0.7c0-0.2,0-0.5,0-0.7V137h1.1v3c0,0.2,0,0.4,0,0.5s0.1,0.3,0.2,0.4
		c0.1,0.1,0.2,0.2,0.3,0.3c0.1,0.1,0.3,0.1,0.6,0.1c0.2,0,0.4,0,0.6-0.1c0.1-0.1,0.3-0.2,0.3-0.3c0.1-0.1,0.1-0.3,0.2-0.5
		c0-0.2,0-0.4,0-0.5v-3h1.1v3C242.4,140.7,242.2,141.3,241.8,141.7z"/>
	<path class="st5" d="M248.2,142.1v-2c0-0.1,0-0.2,0-0.4c0-0.1,0-0.2-0.1-0.3c0-0.1-0.1-0.2-0.2-0.2c-0.1-0.1-0.2-0.1-0.4-0.1
		s-0.3,0-0.4,0.1c-0.1,0.1-0.2,0.1-0.2,0.2c-0.1,0.1-0.1,0.2-0.1,0.3c0,0.1,0,0.2,0,0.4v1.9h-1v-2c0-0.1,0-0.2,0-0.3
		c0-0.1,0-0.2-0.1-0.3c0-0.1-0.1-0.2-0.2-0.2c-0.1-0.1-0.2-0.1-0.3-0.1c-0.1,0-0.3,0-0.3,0.1c-0.1,0.1-0.2,0.1-0.2,0.2
		c-0.1,0.1-0.1,0.2-0.1,0.3c0,0.1,0,0.2,0,0.4v2h-1v-2.4c0-0.2,0-0.4,0-0.6s0-0.4,0-0.6h1l0,0.6c0.1-0.2,0.3-0.4,0.5-0.5
		c0.2-0.1,0.4-0.1,0.7-0.1c0.3,0,0.5,0.1,0.7,0.2c0.2,0.1,0.3,0.3,0.4,0.5c0.1-0.2,0.3-0.4,0.5-0.5s0.5-0.2,0.7-0.2
		c0.2,0,0.4,0,0.6,0.1s0.3,0.2,0.4,0.3c0.1,0.1,0.2,0.3,0.2,0.4c0,0.2,0.1,0.4,0.1,0.6v2.2H248.2z"/>
	<path class="st5" d="M253.2,141c0,0.2-0.1,0.4-0.2,0.6s-0.2,0.3-0.4,0.4c-0.2,0.1-0.3,0.2-0.5,0.2c-0.2,0-0.4,0.1-0.6,0.1
		c-0.2,0-0.4,0-0.6-0.1s-0.4-0.1-0.5-0.2c-0.1-0.1-0.3-0.2-0.3-0.4s-0.1-0.4-0.1-0.6h1c0,0.2,0.1,0.4,0.2,0.5
		c0.1,0.1,0.2,0.2,0.5,0.2c0.1,0,0.1,0,0.2,0c0.1,0,0.1,0,0.2-0.1c0.1,0,0.1-0.1,0.1-0.1c0-0.1,0.1-0.1,0.1-0.2
		c0-0.1-0.1-0.2-0.2-0.3s-0.3-0.1-0.5-0.2l-0.4-0.1c-0.1,0-0.3-0.1-0.4-0.1c-0.1,0-0.2-0.1-0.3-0.2c-0.1-0.1-0.2-0.2-0.2-0.3
		c-0.1-0.1-0.1-0.2-0.1-0.4c0-0.2,0-0.4,0.1-0.5c0.1-0.1,0.2-0.2,0.4-0.3c0.1-0.1,0.3-0.1,0.5-0.2c0.2,0,0.4,0,0.5,0
		c0.2,0,0.4,0,0.6,0.1c0.2,0,0.3,0.1,0.5,0.2c0.1,0.1,0.3,0.2,0.3,0.4c0.1,0.1,0.1,0.3,0.2,0.5h-1c0-0.2-0.1-0.3-0.1-0.4
		c-0.1-0.1-0.2-0.2-0.4-0.2c-0.1,0-0.1,0-0.2,0c-0.1,0-0.1,0-0.2,0.1c-0.1,0-0.1,0.1-0.1,0.1c0,0,0,0.1,0,0.2c0,0.1,0.1,0.2,0.2,0.3
		c0.1,0.1,0.3,0.1,0.5,0.2l0.4,0.1c0.1,0,0.3,0.1,0.4,0.1c0.1,0,0.2,0.1,0.4,0.2s0.2,0.2,0.2,0.3S253.2,140.9,253.2,141z"/>
	<path class="st5" d="M254.8,140.5c0,0.1,0,0.3,0,0.4c0,0.1,0.1,0.2,0.1,0.3s0.1,0.2,0.3,0.2c0.1,0.1,0.2,0.1,0.4,0.1
		c0.4,0,0.7-0.2,0.7-0.6h1c0,0.2-0.1,0.4-0.2,0.6c-0.1,0.2-0.2,0.3-0.4,0.4c-0.2,0.1-0.3,0.2-0.5,0.2c-0.2,0-0.4,0.1-0.6,0.1
		c-0.6,0-1-0.2-1.3-0.5c-0.3-0.3-0.5-0.7-0.5-1.3c0-0.6,0.2-1.1,0.5-1.4c0.3-0.3,0.8-0.5,1.4-0.5c0.2,0,0.3,0,0.5,0.1
		c0.2,0,0.3,0.1,0.4,0.2c0.1,0.1,0.3,0.2,0.4,0.3c0.1,0.1,0.2,0.3,0.3,0.4c0.1,0.2,0.1,0.4,0.1,0.5c0,0.2,0,0.4,0,0.6H254.8z
		 M256.3,139.9c0-0.3-0.1-0.5-0.2-0.6c-0.1-0.2-0.3-0.2-0.6-0.2c-0.3,0-0.4,0.1-0.6,0.2c-0.1,0.2-0.2,0.4-0.2,0.6H256.3z"/>
	<path class="st5" d="M259.3,139.2v1.6c0,0.1,0,0.2,0,0.3s0,0.1,0.1,0.2c0,0,0.1,0.1,0.1,0.1s0.2,0,0.3,0c0.1,0,0.1,0,0.2,0
		c0.1,0,0.1,0,0.2,0v0.7c-0.1,0-0.2,0-0.4,0c-0.1,0-0.2,0-0.4,0c-0.2,0-0.3,0-0.5,0c-0.1,0-0.2-0.1-0.3-0.1
		c-0.1-0.1-0.2-0.2-0.2-0.3c0-0.1-0.1-0.3-0.1-0.5v-2h-0.7v-0.7h0.7V138l1-0.4v1h0.8v0.7H259.3z"/>
	<path class="st5" d="M260.5,142.1v-0.7l1.8-2.1h-1.8v-0.7h2.9v0.7l-1.8,2.1h1.9v0.7H260.5z"/>
	<path class="st5" d="M267.9,140.3c0,0.2,0,0.5-0.1,0.7c-0.1,0.2-0.2,0.4-0.3,0.6s-0.3,0.3-0.5,0.4c-0.2,0.1-0.4,0.2-0.7,0.2
		c-0.2,0-0.4,0-0.6-0.1c-0.2-0.1-0.3-0.2-0.5-0.4l0,0.5h-1c0-0.2,0-0.3,0-0.5c0-0.2,0-0.3,0-0.5V137h1v2c0.1-0.2,0.3-0.3,0.5-0.4
		s0.4-0.1,0.6-0.1c0.3,0,0.5,0,0.7,0.1c0.2,0.1,0.4,0.2,0.5,0.4c0.1,0.2,0.2,0.4,0.3,0.6C267.9,139.8,267.9,140.1,267.9,140.3z
		 M266.9,140.3c0-0.1,0-0.3,0-0.4s-0.1-0.3-0.1-0.4s-0.1-0.2-0.2-0.3c-0.1-0.1-0.2-0.1-0.4-0.1c-0.2,0-0.3,0-0.4,0.1
		c-0.1,0.1-0.2,0.2-0.3,0.3c-0.1,0.1-0.1,0.2-0.1,0.4c0,0.1,0,0.3,0,0.4c0,0.1,0,0.3,0,0.4s0.1,0.3,0.1,0.4c0.1,0.1,0.1,0.2,0.2,0.3
		c0.1,0.1,0.2,0.1,0.4,0.1c0.2,0,0.3,0,0.4-0.1c0.1-0.1,0.2-0.2,0.3-0.3c0.1-0.1,0.1-0.2,0.1-0.4S266.9,140.4,266.9,140.3z"/>
	<path class="st5" d="M270.8,142.1c0-0.1,0-0.2-0.1-0.2c0-0.1,0-0.2,0-0.2c-0.1,0.2-0.3,0.4-0.5,0.4c-0.2,0.1-0.4,0.1-0.6,0.1
		c-0.2,0-0.3,0-0.5-0.1s-0.3-0.1-0.4-0.2c-0.1-0.1-0.2-0.2-0.3-0.3c-0.1-0.1-0.1-0.3-0.1-0.5c0-0.3,0.1-0.5,0.2-0.7
		c0.1-0.2,0.3-0.3,0.5-0.4c0.2-0.1,0.4-0.1,0.7-0.2c0.2,0,0.5,0,0.7,0h0.3v-0.1c0-0.1,0-0.2,0-0.3c0-0.1,0-0.2-0.1-0.2
		c0-0.1-0.1-0.1-0.2-0.2c-0.1,0-0.2-0.1-0.3-0.1c-0.2,0-0.3,0.1-0.4,0.2s-0.1,0.2-0.1,0.4h-1c0-0.2,0.1-0.4,0.1-0.5s0.2-0.3,0.4-0.3
		c0.2-0.1,0.3-0.1,0.5-0.2c0.2,0,0.4-0.1,0.6-0.1c0.2,0,0.5,0,0.6,0.1c0.2,0,0.4,0.1,0.5,0.2s0.2,0.2,0.3,0.4s0.1,0.4,0.1,0.7v1
		c0,0.2,0,0.4,0,0.6c0,0.2,0,0.4,0,0.6H270.8z M270.8,140.4c-0.1,0-0.1,0-0.1,0c0,0-0.1,0-0.1,0c-0.1,0-0.2,0-0.4,0s-0.2,0-0.4,0.1
		s-0.2,0.1-0.3,0.2s-0.1,0.2-0.1,0.3c0,0.2,0.1,0.3,0.2,0.4c0.1,0.1,0.2,0.1,0.4,0.1c0.2,0,0.3,0,0.4-0.1s0.2-0.2,0.2-0.3
		c0.1-0.1,0.1-0.2,0.1-0.4S270.8,140.6,270.8,140.4L270.8,140.4z"/>
	<path class="st5" d="M274.6,139.4c-0.3,0-0.6,0.1-0.7,0.3c-0.1,0.2-0.2,0.4-0.2,0.7v1.7h-1v-2.7c0-0.1,0-0.3,0-0.4
		c0-0.1,0-0.3,0-0.4h1l0,0.7c0.1-0.2,0.3-0.4,0.4-0.5s0.4-0.2,0.7-0.2c0,0,0.1,0,0.1,0s0.1,0,0.1,0v0.9
		C274.8,139.4,274.7,139.4,274.6,139.4z"/>
	<path class="st5" d="M275.5,142.1V137h1v5.1H275.5z M278,142.1l-1.4-2l1.4-1.6h1.2l-1.4,1.5l1.6,2H278z"/>
	<path class="st5" d="M280.4,140.5c0,0.1,0,0.3,0,0.4c0,0.1,0.1,0.2,0.1,0.3s0.1,0.2,0.3,0.2c0.1,0.1,0.2,0.1,0.4,0.1
		c0.4,0,0.7-0.2,0.7-0.6h1c0,0.2-0.1,0.4-0.2,0.6c-0.1,0.2-0.2,0.3-0.4,0.4c-0.2,0.1-0.3,0.2-0.5,0.2c-0.2,0-0.4,0.1-0.6,0.1
		c-0.6,0-1-0.2-1.3-0.5c-0.3-0.3-0.5-0.7-0.5-1.3c0-0.6,0.2-1.1,0.5-1.4c0.3-0.3,0.8-0.5,1.4-0.5c0.2,0,0.3,0,0.5,0.1
		c0.2,0,0.3,0.1,0.4,0.2c0.1,0.1,0.3,0.2,0.4,0.3c0.1,0.1,0.2,0.3,0.3,0.4c0.1,0.2,0.1,0.4,0.1,0.5c0,0.2,0,0.4,0,0.6H280.4z
		 M282,139.9c0-0.3-0.1-0.5-0.2-0.6c-0.1-0.2-0.3-0.2-0.6-0.2c-0.3,0-0.4,0.1-0.6,0.2c-0.1,0.2-0.2,0.4-0.2,0.6H282z"/>
	<path class="st5" d="M283.7,137.9V137h1.1v0.8H283.7z M283.7,142.1v-3.5h1v3.5H283.7z"/>
	<path class="st5" d="M287,139.2v1.6c0,0.1,0,0.2,0,0.3s0,0.1,0.1,0.2c0,0,0.1,0.1,0.1,0.1s0.2,0,0.3,0c0.1,0,0.1,0,0.2,0
		c0.1,0,0.1,0,0.2,0v0.7c-0.1,0-0.2,0-0.4,0c-0.1,0-0.2,0-0.4,0c-0.2,0-0.3,0-0.5,0c-0.1,0-0.2-0.1-0.3-0.1
		c-0.1-0.1-0.2-0.2-0.2-0.3c0-0.1-0.1-0.3-0.1-0.5v-2h-0.7v-0.7h0.7V138l1-0.4v1h0.8v0.7H287z"/>
</g>
<g>
	<path class="st5" d="M141.9,134.3v-5.1h1.1v5.1H141.9z"/>
	<path class="st5" d="M146.5,134.3l0-0.5c-0.2,0.2-0.3,0.3-0.5,0.4c-0.2,0.1-0.4,0.1-0.6,0.1c-0.3,0-0.5,0-0.7-0.1
		c-0.2-0.1-0.4-0.2-0.5-0.4s-0.2-0.4-0.3-0.6c-0.1-0.2-0.1-0.5-0.1-0.7c0-0.2,0-0.4,0.1-0.7c0.1-0.2,0.1-0.4,0.3-0.6
		c0.1-0.2,0.3-0.3,0.5-0.4s0.4-0.2,0.7-0.2c0.2,0,0.5,0,0.6,0.1c0.2,0.1,0.3,0.2,0.5,0.4v-2h1v4.1c0,0.2,0,0.3,0,0.5
		c0,0.2,0,0.3,0,0.5H146.5z M146.5,132.5c0-0.1,0-0.3,0-0.4c0-0.1-0.1-0.3-0.1-0.4c-0.1-0.1-0.2-0.2-0.3-0.3
		c-0.1-0.1-0.2-0.1-0.4-0.1c-0.2,0-0.3,0-0.4,0.1c-0.1,0.1-0.2,0.2-0.2,0.3c-0.1,0.1-0.1,0.2-0.1,0.4s0,0.3,0,0.4c0,0.1,0,0.3,0,0.4
		s0.1,0.3,0.1,0.4s0.1,0.2,0.3,0.3c0.1,0.1,0.2,0.1,0.4,0.1c0.2,0,0.3,0,0.4-0.1c0.1-0.1,0.2-0.2,0.2-0.3c0.1-0.1,0.1-0.2,0.1-0.4
		C146.5,132.8,146.5,132.7,146.5,132.5z"/>
	<path class="st5" d="M149.2,132.8c0,0.1,0,0.3,0,0.4c0,0.1,0.1,0.2,0.1,0.3s0.1,0.2,0.3,0.2c0.1,0.1,0.2,0.1,0.4,0.1
		c0.4,0,0.7-0.2,0.7-0.6h1c0,0.2-0.1,0.4-0.2,0.6s-0.2,0.3-0.4,0.4c-0.2,0.1-0.3,0.2-0.5,0.2s-0.4,0.1-0.6,0.1c-0.6,0-1-0.2-1.3-0.5
		c-0.3-0.3-0.5-0.7-0.5-1.3c0-0.6,0.2-1.1,0.5-1.4c0.3-0.3,0.8-0.5,1.4-0.5c0.2,0,0.3,0,0.5,0.1s0.3,0.1,0.4,0.2s0.3,0.2,0.4,0.3
		s0.2,0.3,0.3,0.4c0.1,0.2,0.1,0.4,0.1,0.5c0,0.2,0,0.4,0,0.6H149.2z M150.8,132.2c0-0.3-0.1-0.5-0.2-0.6c-0.1-0.2-0.3-0.2-0.6-0.2
		c-0.3,0-0.4,0.1-0.6,0.2c-0.1,0.2-0.2,0.4-0.2,0.6H150.8z"/>
	<path class="st5" d="M153.3,132.8c0,0.1,0,0.3,0,0.4c0,0.1,0.1,0.2,0.1,0.3s0.1,0.2,0.3,0.2c0.1,0.1,0.2,0.1,0.4,0.1
		c0.4,0,0.7-0.2,0.7-0.6h1c0,0.2-0.1,0.4-0.2,0.6s-0.2,0.3-0.4,0.4c-0.2,0.1-0.3,0.2-0.5,0.2s-0.4,0.1-0.6,0.1c-0.6,0-1-0.2-1.3-0.5
		c-0.3-0.3-0.5-0.7-0.5-1.3c0-0.6,0.2-1.1,0.5-1.4c0.3-0.3,0.8-0.5,1.4-0.5c0.2,0,0.3,0,0.5,0.1s0.3,0.1,0.4,0.2s0.3,0.2,0.4,0.3
		s0.2,0.3,0.3,0.4c0.1,0.2,0.1,0.4,0.1,0.5c0,0.2,0,0.4,0,0.6H153.3z M154.9,132.2c0-0.3-0.1-0.5-0.2-0.6c-0.1-0.2-0.3-0.2-0.6-0.2
		c-0.3,0-0.4,0.1-0.6,0.2c-0.1,0.2-0.2,0.4-0.2,0.6H154.9z"/>
	<path class="st5" d="M159,134.3v-1.9c0-0.1,0-0.2,0-0.4c0-0.1,0-0.2-0.1-0.3c0-0.1-0.1-0.2-0.2-0.2c-0.1-0.1-0.2-0.1-0.4-0.1
		c-0.2,0-0.3,0-0.4,0.1c-0.1,0.1-0.2,0.2-0.2,0.3s-0.1,0.2-0.1,0.4c0,0.1,0,0.2,0,0.3v1.8h-1v-2.8c0-0.1,0-0.2,0-0.3
		c0-0.1,0-0.2,0-0.4h1l0,0.5c0.2-0.2,0.3-0.4,0.5-0.5s0.4-0.1,0.7-0.1c0.4,0,0.8,0.1,1,0.3c0.2,0.2,0.3,0.5,0.3,1v2.3H159z"/>
	<path class="st5" d="M168,134.3h-1.1l-0.8-2.7l-0.9,2.7H164l-1.2-3.5h1.1l0.7,2.7l0.9-2.7h1.2l0.8,2.7l0.7-2.7h1L168,134.3z"/>
	<path class="st5" d="M170.4,132.8c0,0.1,0,0.3,0,0.4c0,0.1,0.1,0.2,0.1,0.3s0.1,0.2,0.3,0.2c0.1,0.1,0.2,0.1,0.4,0.1
		c0.4,0,0.7-0.2,0.7-0.6h1c0,0.2-0.1,0.4-0.2,0.6s-0.2,0.3-0.4,0.4c-0.2,0.1-0.3,0.2-0.5,0.2s-0.4,0.1-0.6,0.1c-0.6,0-1-0.2-1.3-0.5
		c-0.3-0.3-0.5-0.7-0.5-1.3c0-0.6,0.2-1.1,0.5-1.4c0.3-0.3,0.8-0.5,1.4-0.5c0.2,0,0.3,0,0.5,0.1s0.3,0.1,0.4,0.2s0.3,0.2,0.4,0.3
		s0.2,0.3,0.3,0.4c0.1,0.2,0.1,0.4,0.1,0.5c0,0.2,0,0.4,0,0.6H170.4z M171.9,132.2c0-0.3-0.1-0.5-0.2-0.6c-0.1-0.2-0.3-0.2-0.6-0.2
		c-0.3,0-0.4,0.1-0.6,0.2c-0.1,0.2-0.2,0.4-0.2,0.6H171.9z"/>
	<path class="st5" d="M175.6,131.7c-0.3,0-0.6,0.1-0.7,0.3c-0.1,0.2-0.2,0.4-0.2,0.7v1.7h-1v-2.7c0-0.1,0-0.3,0-0.4
		c0-0.1,0-0.3,0-0.4h1l0,0.7c0.1-0.2,0.3-0.4,0.4-0.5c0.2-0.1,0.4-0.2,0.7-0.2c0,0,0.1,0,0.1,0c0,0,0.1,0,0.1,0v0.9
		C175.8,131.7,175.7,131.7,175.6,131.7z"/>
	<path class="st5" d="M178.8,134.3l0-0.5c-0.2,0.2-0.3,0.3-0.5,0.4c-0.2,0.1-0.4,0.1-0.6,0.1c-0.3,0-0.5,0-0.7-0.1
		c-0.2-0.1-0.4-0.2-0.5-0.4s-0.2-0.4-0.3-0.6c-0.1-0.2-0.1-0.5-0.1-0.7c0-0.2,0-0.4,0.1-0.7c0.1-0.2,0.1-0.4,0.3-0.6
		c0.1-0.2,0.3-0.3,0.5-0.4s0.4-0.2,0.7-0.2c0.2,0,0.5,0,0.6,0.1c0.2,0.1,0.3,0.2,0.5,0.4v-2h1v4.1c0,0.2,0,0.3,0,0.5
		c0,0.2,0,0.3,0,0.5H178.8z M178.8,132.5c0-0.1,0-0.3,0-0.4c0-0.1-0.1-0.3-0.1-0.4c-0.1-0.1-0.2-0.2-0.3-0.3
		c-0.1-0.1-0.2-0.1-0.4-0.1c-0.2,0-0.3,0-0.4,0.1c-0.1,0.1-0.2,0.2-0.2,0.3c-0.1,0.1-0.1,0.2-0.1,0.4s0,0.3,0,0.4c0,0.1,0,0.3,0,0.4
		s0.1,0.3,0.1,0.4s0.1,0.2,0.3,0.3c0.1,0.1,0.2,0.1,0.4,0.1c0.2,0,0.3,0,0.4-0.1c0.1-0.1,0.2-0.2,0.2-0.3c0.1-0.1,0.1-0.2,0.1-0.4
		C178.8,132.8,178.8,132.7,178.8,132.5z"/>
	<path class="st5" d="M181.6,132.8c0,0.1,0,0.3,0,0.4c0,0.1,0.1,0.2,0.1,0.3s0.1,0.2,0.3,0.2c0.1,0.1,0.2,0.1,0.4,0.1
		c0.4,0,0.7-0.2,0.7-0.6h1c0,0.2-0.1,0.4-0.2,0.6s-0.2,0.3-0.4,0.4c-0.2,0.1-0.3,0.2-0.5,0.2s-0.4,0.1-0.6,0.1c-0.6,0-1-0.2-1.3-0.5
		c-0.3-0.3-0.5-0.7-0.5-1.3c0-0.6,0.2-1.1,0.5-1.4c0.3-0.3,0.8-0.5,1.4-0.5c0.2,0,0.3,0,0.5,0.1s0.3,0.1,0.4,0.2s0.3,0.2,0.4,0.3
		s0.2,0.3,0.3,0.4c0.1,0.2,0.1,0.4,0.1,0.5c0,0.2,0,0.4,0,0.6H181.6z M183.2,132.2c0-0.3-0.1-0.5-0.2-0.6c-0.1-0.2-0.3-0.2-0.6-0.2
		c-0.3,0-0.4,0.1-0.6,0.2c-0.1,0.2-0.2,0.4-0.2,0.6H183.2z"/>
	<path class="st5" d="M187.3,134.3v-1.9c0-0.1,0-0.2,0-0.4c0-0.1,0-0.2-0.1-0.3c0-0.1-0.1-0.2-0.2-0.2c-0.1-0.1-0.2-0.1-0.4-0.1
		c-0.2,0-0.3,0-0.4,0.1c-0.1,0.1-0.2,0.2-0.2,0.3s-0.1,0.2-0.1,0.4c0,0.1,0,0.2,0,0.3v1.8h-1v-2.8c0-0.1,0-0.2,0-0.3
		c0-0.1,0-0.2,0-0.4h1l0,0.5c0.2-0.2,0.3-0.4,0.5-0.5s0.4-0.1,0.7-0.1c0.4,0,0.8,0.1,1,0.3c0.2,0.2,0.3,0.5,0.3,1v2.3H187.3z"/>
	<path class="st5" d="M191.2,134.3v-0.7l1.8-2.1h-1.8v-0.7h2.9v0.7l-1.8,2.1h1.9v0.7H191.2z"/>
	<path class="st5" d="M197.4,134.3l0-0.5c-0.2,0.2-0.3,0.4-0.5,0.5c-0.2,0.1-0.4,0.1-0.7,0.1c-0.4,0-0.8-0.1-1-0.3s-0.3-0.5-0.3-1
		v-2.3h1v1.9c0,0.1,0,0.2,0,0.4c0,0.1,0,0.2,0.1,0.3c0,0.1,0.1,0.2,0.2,0.2c0.1,0.1,0.2,0.1,0.4,0.1s0.3,0,0.4-0.1s0.2-0.1,0.2-0.3
		s0.1-0.2,0.1-0.3c0-0.1,0-0.3,0-0.4v-1.8h1v2.2c0,0.2,0,0.4,0,0.6c0,0.2,0,0.4,0,0.7H197.4z"/>
	<path class="st5" d="M142.8,138.5v4.3h-1.1v-4.3h-1.6v-0.8h4.3v0.8H142.8z"/>
	<path class="st5" d="M147.1,142.7v-1.9c0-0.1,0-0.2,0-0.4s0-0.2-0.1-0.3s-0.1-0.2-0.2-0.2c-0.1-0.1-0.2-0.1-0.4-0.1
		c-0.2,0-0.3,0-0.4,0.1s-0.2,0.2-0.2,0.3s-0.1,0.2-0.1,0.4s0,0.2,0,0.3v1.8h-1v-5.1h1l0,2c0.1-0.2,0.3-0.3,0.5-0.4
		c0.2-0.1,0.4-0.1,0.6-0.1c0.4,0,0.8,0.1,1,0.3c0.2,0.2,0.3,0.5,0.3,1v2.3H147.1z"/>
	<path class="st5" d="M149.9,141.2c0,0.1,0,0.3,0,0.4c0,0.1,0.1,0.2,0.1,0.3s0.1,0.2,0.3,0.2c0.1,0.1,0.2,0.1,0.4,0.1
		c0.4,0,0.7-0.2,0.7-0.6h1c0,0.2-0.1,0.4-0.2,0.6s-0.2,0.3-0.4,0.4c-0.2,0.1-0.3,0.2-0.5,0.2s-0.4,0.1-0.6,0.1c-0.6,0-1-0.2-1.3-0.5
		c-0.3-0.3-0.5-0.7-0.5-1.3c0-0.6,0.2-1.1,0.5-1.4c0.3-0.3,0.8-0.5,1.4-0.5c0.2,0,0.3,0,0.5,0.1s0.3,0.1,0.4,0.2s0.3,0.2,0.4,0.3
		s0.2,0.3,0.3,0.4c0.1,0.2,0.1,0.4,0.1,0.5c0,0.2,0,0.4,0,0.6H149.9z M151.4,140.6c0-0.3-0.1-0.5-0.2-0.6c-0.1-0.2-0.3-0.2-0.6-0.2
		c-0.3,0-0.4,0.1-0.6,0.2c-0.1,0.2-0.2,0.4-0.2,0.6H151.4z"/>
	<path class="st5" d="M158,142.7v-2c0-0.1,0-0.2,0-0.4c0-0.1,0-0.2-0.1-0.3c0-0.1-0.1-0.2-0.2-0.2c-0.1-0.1-0.2-0.1-0.4-0.1
		s-0.3,0-0.4,0.1s-0.2,0.1-0.2,0.2c-0.1,0.1-0.1,0.2-0.1,0.3c0,0.1,0,0.2,0,0.4v1.9h-1v-2c0-0.1,0-0.2,0-0.3c0-0.1,0-0.2-0.1-0.3
		c0-0.1-0.1-0.2-0.2-0.2s-0.2-0.1-0.3-0.1s-0.3,0-0.4,0.1s-0.2,0.1-0.2,0.2c-0.1,0.1-0.1,0.2-0.1,0.3c0,0.1,0,0.2,0,0.4v2h-1v-2.4
		c0-0.2,0-0.4,0-0.6c0-0.2,0-0.4,0-0.6h1l0,0.6c0.1-0.2,0.3-0.4,0.5-0.5c0.2-0.1,0.4-0.1,0.7-0.1c0.3,0,0.5,0.1,0.7,0.2
		s0.3,0.3,0.4,0.5c0.1-0.2,0.3-0.4,0.5-0.5c0.2-0.1,0.5-0.2,0.7-0.2c0.2,0,0.4,0,0.6,0.1c0.2,0.1,0.3,0.2,0.4,0.3
		c0.1,0.1,0.2,0.3,0.2,0.4c0,0.2,0.1,0.4,0.1,0.6v2.2H158z"/>
	<path class="st5" d="M160.7,141.2c0,0.1,0,0.3,0,0.4c0,0.1,0.1,0.2,0.1,0.3s0.1,0.2,0.3,0.2c0.1,0.1,0.2,0.1,0.4,0.1
		c0.4,0,0.7-0.2,0.7-0.6h1c0,0.2-0.1,0.4-0.2,0.6s-0.2,0.3-0.4,0.4c-0.2,0.1-0.3,0.2-0.5,0.2s-0.4,0.1-0.6,0.1c-0.6,0-1-0.2-1.3-0.5
		c-0.3-0.3-0.5-0.7-0.5-1.3c0-0.6,0.2-1.1,0.5-1.4c0.3-0.3,0.8-0.5,1.4-0.5c0.2,0,0.3,0,0.5,0.1s0.3,0.1,0.4,0.2s0.3,0.2,0.4,0.3
		s0.2,0.3,0.3,0.4c0.1,0.2,0.1,0.4,0.1,0.5c0,0.2,0,0.4,0,0.6H160.7z M162.3,140.6c0-0.3-0.1-0.5-0.2-0.6c-0.1-0.2-0.3-0.2-0.6-0.2
		c-0.3,0-0.4,0.1-0.6,0.2c-0.1,0.2-0.2,0.4-0.2,0.6H162.3z"/>
	<path class="st5" d="M166.5,142.7v-1.9c0-0.1,0-0.2,0-0.4c0-0.1,0-0.2-0.1-0.3c0-0.1-0.1-0.2-0.2-0.2c-0.1-0.1-0.2-0.1-0.4-0.1
		c-0.2,0-0.3,0-0.4,0.1c-0.1,0.1-0.2,0.2-0.2,0.3s-0.1,0.2-0.1,0.4c0,0.1,0,0.2,0,0.3v1.8h-1v-2.8c0-0.1,0-0.2,0-0.3
		c0-0.1,0-0.2,0-0.4h1l0,0.5c0.2-0.2,0.3-0.4,0.5-0.5s0.4-0.1,0.7-0.1c0.4,0,0.8,0.1,1,0.3c0.2,0.2,0.3,0.5,0.3,1v2.3H166.5z"/>
	<path class="st5" d="M174.1,139.2c0,0.2,0,0.4,0,0.6c0,0.2,0,0.3,0,0.4v1.9c0,0.7-0.1,1.2-0.4,1.6c-0.3,0.3-0.8,0.5-1.4,0.5
		c-0.2,0-0.4,0-0.6,0s-0.4-0.1-0.5-0.2c-0.2-0.1-0.3-0.2-0.4-0.3s-0.2-0.3-0.2-0.5V143h1c0,0.1,0,0.2,0.1,0.3c0,0.1,0.1,0.1,0.2,0.2
		c0.1,0,0.1,0.1,0.2,0.1c0.1,0,0.2,0,0.3,0c0.2,0,0.3,0,0.4-0.1c0.1,0,0.2-0.1,0.2-0.2c0.1-0.1,0.1-0.2,0.1-0.3c0-0.1,0-0.2,0-0.4
		c0-0.1,0-0.2,0-0.2s0-0.2,0-0.2c-0.3,0.4-0.6,0.6-1.1,0.6c-0.3,0-0.5,0-0.7-0.1c-0.2-0.1-0.4-0.2-0.5-0.4c-0.1-0.2-0.2-0.3-0.3-0.6
		c-0.1-0.2-0.1-0.4-0.1-0.7c0-0.2,0-0.5,0.1-0.7c0.1-0.2,0.2-0.4,0.3-0.6c0.1-0.2,0.3-0.3,0.5-0.4c0.2-0.1,0.4-0.1,0.7-0.1
		c0.3,0,0.5,0,0.7,0.1c0.2,0.1,0.4,0.3,0.5,0.5v-0.5H174.1z M173.1,140.9c0-0.1,0-0.3,0-0.4c0-0.1-0.1-0.3-0.1-0.4
		c-0.1-0.1-0.1-0.2-0.2-0.3c-0.1-0.1-0.2-0.1-0.4-0.1c-0.2,0-0.3,0-0.4,0.1s-0.2,0.2-0.3,0.3s-0.1,0.2-0.1,0.4c0,0.1,0,0.3,0,0.4
		c0,0.1,0,0.3,0,0.4c0,0.1,0.1,0.3,0.1,0.4c0.1,0.1,0.1,0.2,0.2,0.3c0.1,0.1,0.2,0.1,0.4,0.1s0.3,0,0.4-0.1s0.2-0.2,0.3-0.3
		s0.1-0.2,0.1-0.4C173.1,141.1,173.1,141,173.1,140.9z"/>
	<path class="st5" d="M177,140.1c-0.3,0-0.6,0.1-0.7,0.3c-0.1,0.2-0.2,0.4-0.2,0.7v1.7h-1v-2.7c0-0.1,0-0.3,0-0.4c0-0.1,0-0.3,0-0.4
		h1l0,0.7c0.1-0.2,0.3-0.4,0.4-0.5c0.2-0.1,0.4-0.2,0.7-0.2c0,0,0.1,0,0.1,0c0,0,0.1,0,0.1,0v0.9C177.2,140.1,177.1,140.1,177,140.1
		z"/>
	<path class="st5" d="M180.4,142.7l0-0.5c-0.2,0.2-0.3,0.4-0.5,0.5c-0.2,0.1-0.4,0.1-0.7,0.1c-0.4,0-0.8-0.1-1-0.3s-0.3-0.5-0.3-1
		v-2.3h1v1.9c0,0.1,0,0.2,0,0.4c0,0.1,0,0.2,0.1,0.3c0,0.1,0.1,0.2,0.2,0.2c0.1,0.1,0.2,0.1,0.4,0.1s0.3,0,0.4-0.1s0.2-0.1,0.2-0.3
		s0.1-0.2,0.1-0.3c0-0.1,0-0.3,0-0.4v-1.8h1v2.2c0,0.2,0,0.4,0,0.6c0,0.2,0,0.4,0,0.7H180.4z"/>
	<path class="st5" d="M186,140.9c0,0.2,0,0.5-0.1,0.7s-0.2,0.4-0.3,0.6c-0.1,0.2-0.3,0.3-0.5,0.4c-0.2,0.1-0.4,0.2-0.7,0.2
		c-0.2,0-0.4,0-0.6-0.1c-0.2-0.1-0.3-0.2-0.5-0.4v1.8h-1v-4c0-0.1,0-0.3,0-0.4c0-0.1,0-0.3,0-0.4h1l0,0.5c0.1-0.2,0.3-0.4,0.5-0.5
		s0.4-0.1,0.7-0.1c0.3,0,0.5,0,0.7,0.1c0.2,0.1,0.4,0.2,0.5,0.4s0.2,0.3,0.3,0.6C186,140.4,186,140.7,186,140.9z M185,140.9
		c0-0.1,0-0.3,0-0.4c0-0.1-0.1-0.3-0.1-0.4c-0.1-0.1-0.1-0.2-0.2-0.3c-0.1-0.1-0.2-0.1-0.4-0.1c-0.2,0-0.3,0-0.4,0.1
		s-0.2,0.2-0.3,0.3s-0.1,0.2-0.1,0.4c0,0.1,0,0.3,0,0.4c0,0.1,0,0.3,0,0.4c0,0.1,0.1,0.3,0.1,0.4c0.1,0.1,0.1,0.2,0.2,0.3
		c0.1,0.1,0.2,0.1,0.4,0.1c0.2,0,0.3,0,0.4-0.1c0.1-0.1,0.2-0.2,0.3-0.3c0.1-0.1,0.1-0.3,0.1-0.4C185,141.2,185,141.1,185,140.9z"/>
	<path class="st5" d="M190.5,140.9c0,0.2,0,0.5-0.1,0.7s-0.2,0.4-0.3,0.6c-0.1,0.2-0.3,0.3-0.5,0.4c-0.2,0.1-0.4,0.2-0.7,0.2
		c-0.2,0-0.4,0-0.6-0.1c-0.2-0.1-0.3-0.2-0.5-0.4v1.8h-1v-4c0-0.1,0-0.3,0-0.4c0-0.1,0-0.3,0-0.4h1l0,0.5c0.1-0.2,0.3-0.4,0.5-0.5
		s0.4-0.1,0.7-0.1c0.3,0,0.5,0,0.7,0.1c0.2,0.1,0.4,0.2,0.5,0.4s0.2,0.3,0.3,0.6C190.5,140.4,190.5,140.7,190.5,140.9z M189.4,140.9
		c0-0.1,0-0.3,0-0.4c0-0.1-0.1-0.3-0.1-0.4c-0.1-0.1-0.1-0.2-0.2-0.3c-0.1-0.1-0.2-0.1-0.4-0.1c-0.2,0-0.3,0-0.4,0.1
		s-0.2,0.2-0.3,0.3s-0.1,0.2-0.1,0.4c0,0.1,0,0.3,0,0.4c0,0.1,0,0.3,0,0.4c0,0.1,0.1,0.3,0.1,0.4c0.1,0.1,0.1,0.2,0.2,0.3
		c0.1,0.1,0.2,0.1,0.4,0.1c0.2,0,0.3,0,0.4-0.1c0.1-0.1,0.2-0.2,0.3-0.3c0.1-0.1,0.1-0.3,0.1-0.4
		C189.4,141.2,189.4,141.1,189.4,140.9z"/>
	<path class="st5" d="M191.2,138.5v-0.8h1.1v0.8H191.2z M191.2,142.7v-3.5h1v3.5H191.2z"/>
	<path class="st5" d="M194,141.2c0,0.1,0,0.3,0,0.4c0,0.1,0.1,0.2,0.1,0.3s0.1,0.2,0.3,0.2c0.1,0.1,0.2,0.1,0.4,0.1
		c0.4,0,0.7-0.2,0.7-0.6h1c0,0.2-0.1,0.4-0.2,0.6s-0.2,0.3-0.4,0.4c-0.2,0.1-0.3,0.2-0.5,0.2s-0.4,0.1-0.6,0.1c-0.6,0-1-0.2-1.3-0.5
		c-0.3-0.3-0.5-0.7-0.5-1.3c0-0.6,0.2-1.1,0.5-1.4c0.3-0.3,0.8-0.5,1.4-0.5c0.2,0,0.3,0,0.5,0.1s0.3,0.1,0.4,0.2s0.3,0.2,0.4,0.3
		s0.2,0.3,0.3,0.4c0.1,0.2,0.1,0.4,0.1,0.5c0,0.2,0,0.4,0,0.6H194z M195.6,140.6c0-0.3-0.1-0.5-0.2-0.6c-0.1-0.2-0.3-0.2-0.6-0.2
		c-0.3,0-0.4,0.1-0.6,0.2c-0.1,0.2-0.2,0.4-0.2,0.6H195.6z"/>
	<path class="st5" d="M199.3,140.1c-0.3,0-0.6,0.1-0.7,0.3c-0.1,0.2-0.2,0.4-0.2,0.7v1.7h-1v-2.7c0-0.1,0-0.3,0-0.4
		c0-0.1,0-0.3,0-0.4h1l0,0.7c0.1-0.2,0.3-0.4,0.4-0.5c0.2-0.1,0.4-0.2,0.7-0.2c0,0,0.1,0,0.1,0c0,0,0.1,0,0.1,0v0.9
		C199.5,140.1,199.3,140.1,199.3,140.1z"/>
	<path class="st5" d="M201.4,139.9v1.6c0,0.1,0,0.2,0,0.3c0,0.1,0,0.1,0.1,0.2c0,0,0.1,0.1,0.1,0.1s0.2,0,0.3,0c0.1,0,0.1,0,0.2,0
		s0.1,0,0.2,0v0.7c-0.1,0-0.2,0-0.4,0c-0.1,0-0.2,0-0.4,0c-0.2,0-0.3,0-0.5,0s-0.2-0.1-0.3-0.1c-0.1-0.1-0.2-0.2-0.2-0.3
		c0-0.1-0.1-0.3-0.1-0.5v-2h-0.7v-0.7h0.7v-0.6l1-0.4v1h0.8v0.7H201.4z"/>
</g>
<g>
	<path class="st5" d="M193.5,67.9c-0.4,0.4-0.9,0.6-1.7,0.6c-0.2,0-0.4,0-0.6,0c-0.2,0-0.4-0.1-0.5-0.1c-0.2-0.1-0.3-0.2-0.5-0.3
		c-0.1-0.1-0.3-0.3-0.4-0.4c-0.1-0.2-0.2-0.4-0.2-0.7s0-0.5,0-0.7v-2.9h1.1v3c0,0.2,0,0.4,0,0.5s0.1,0.3,0.2,0.4
		c0.1,0.1,0.2,0.2,0.3,0.3c0.1,0.1,0.3,0.1,0.6,0.1s0.4,0,0.6-0.1c0.1-0.1,0.3-0.2,0.3-0.3c0.1-0.1,0.1-0.3,0.2-0.5
		c0-0.2,0-0.4,0-0.5v-3h1.1v3C194.1,67,193.9,67.5,193.5,67.9z M190.5,62.9V62h0.9v0.8H190.5z M192.2,62.9V62h0.9v0.8H192.2z"/>
	<path class="st5" d="M198.8,66.5c0,0.2,0,0.5-0.1,0.7s-0.2,0.4-0.3,0.6c-0.1,0.2-0.3,0.3-0.5,0.4s-0.4,0.2-0.7,0.2
		c-0.2,0-0.4,0-0.6-0.1c-0.2-0.1-0.3-0.2-0.5-0.4l0,0.5h-1c0-0.2,0-0.3,0-0.5c0-0.2,0-0.3,0-0.5v-4.1h1v2c0.1-0.2,0.3-0.3,0.5-0.4
		c0.2-0.1,0.4-0.1,0.6-0.1c0.3,0,0.5,0,0.7,0.1s0.4,0.2,0.5,0.4c0.1,0.2,0.2,0.4,0.3,0.6C198.8,66.1,198.8,66.3,198.8,66.5z
		 M197.7,66.5c0-0.1,0-0.3,0-0.4s-0.1-0.3-0.1-0.4c-0.1-0.1-0.1-0.2-0.2-0.3c-0.1-0.1-0.2-0.1-0.4-0.1c-0.2,0-0.3,0-0.4,0.1
		c-0.1,0.1-0.2,0.2-0.3,0.3c-0.1,0.1-0.1,0.2-0.1,0.4c0,0.1,0,0.3,0,0.4c0,0.1,0,0.3,0,0.4c0,0.1,0.1,0.3,0.1,0.4
		c0.1,0.1,0.1,0.2,0.2,0.3c0.1,0.1,0.2,0.1,0.4,0.1c0.2,0,0.3,0,0.4-0.1c0.1-0.1,0.2-0.2,0.3-0.3s0.1-0.2,0.1-0.4
		S197.7,66.7,197.7,66.5z"/>
	<path class="st5" d="M200.3,66.8c0,0.1,0,0.3,0,0.4c0,0.1,0.1,0.2,0.1,0.3s0.1,0.2,0.3,0.2c0.1,0.1,0.2,0.1,0.4,0.1
		c0.4,0,0.7-0.2,0.7-0.6h1c0,0.2-0.1,0.4-0.2,0.6s-0.2,0.3-0.4,0.4c-0.2,0.1-0.3,0.2-0.5,0.2s-0.4,0.1-0.6,0.1c-0.6,0-1-0.2-1.3-0.5
		c-0.3-0.3-0.5-0.7-0.5-1.3c0-0.6,0.2-1.1,0.5-1.4c0.3-0.3,0.8-0.5,1.4-0.5c0.2,0,0.3,0,0.5,0.1s0.3,0.1,0.4,0.2s0.3,0.2,0.4,0.3
		s0.2,0.3,0.3,0.4c0.1,0.2,0.1,0.4,0.1,0.5c0,0.2,0,0.4,0,0.6H200.3z M201.9,66.2c0-0.3-0.1-0.5-0.2-0.6c-0.1-0.2-0.3-0.2-0.6-0.2
		c-0.3,0-0.4,0.1-0.6,0.2c-0.1,0.2-0.2,0.4-0.2,0.6H201.9z"/>
	<path class="st5" d="M205.5,65.7c-0.3,0-0.6,0.1-0.7,0.3c-0.1,0.2-0.2,0.4-0.2,0.7v1.7h-1v-2.7c0-0.1,0-0.3,0-0.4
		c0-0.1,0-0.3,0-0.4h1l0,0.7c0.1-0.2,0.3-0.4,0.4-0.5c0.2-0.1,0.4-0.2,0.7-0.2c0,0,0.1,0,0.1,0c0,0,0.1,0,0.1,0v0.9
		C205.7,65.7,205.6,65.7,205.5,65.7z"/>
	<path class="st5" d="M210.1,66.5c0,0.2,0,0.5-0.1,0.7s-0.2,0.4-0.3,0.6c-0.1,0.2-0.3,0.3-0.5,0.4c-0.2,0.1-0.4,0.2-0.7,0.2
		c-0.2,0-0.4,0-0.6-0.1c-0.2-0.1-0.3-0.2-0.5-0.4v1.8h-1v-4c0-0.1,0-0.3,0-0.4c0-0.1,0-0.3,0-0.4h1l0,0.5c0.1-0.2,0.3-0.4,0.5-0.5
		s0.4-0.1,0.7-0.1c0.3,0,0.5,0,0.7,0.1c0.2,0.1,0.4,0.2,0.5,0.4s0.2,0.3,0.3,0.6C210.1,66.1,210.1,66.3,210.1,66.5z M209.1,66.6
		c0-0.1,0-0.3,0-0.4c0-0.1-0.1-0.3-0.1-0.4c-0.1-0.1-0.1-0.2-0.2-0.3c-0.1-0.1-0.2-0.1-0.4-0.1c-0.2,0-0.3,0-0.4,0.1
		s-0.2,0.2-0.3,0.3s-0.1,0.2-0.1,0.4c0,0.1,0,0.3,0,0.4c0,0.1,0,0.3,0,0.4c0,0.1,0.1,0.3,0.1,0.4c0.1,0.1,0.1,0.2,0.2,0.3
		c0.1,0.1,0.2,0.1,0.4,0.1c0.2,0,0.3,0,0.4-0.1c0.1-0.1,0.2-0.2,0.3-0.3c0.1-0.1,0.1-0.3,0.1-0.4C209,66.8,209.1,66.7,209.1,66.6z"
		/>
	<path class="st5" d="M212.8,65.7c-0.3,0-0.6,0.1-0.7,0.3c-0.1,0.2-0.2,0.4-0.2,0.7v1.7h-1v-2.7c0-0.1,0-0.3,0-0.4
		c0-0.1,0-0.3,0-0.4h1l0,0.7c0.1-0.2,0.3-0.4,0.4-0.5c0.2-0.1,0.4-0.2,0.7-0.2c0,0,0.1,0,0.1,0c0,0,0.1,0,0.1,0v0.9
		C213,65.7,212.9,65.7,212.8,65.7z"/>
	<path class="st5" d="M216.1,68.3l0-0.5c-0.2,0.2-0.3,0.4-0.5,0.5c-0.2,0.1-0.4,0.1-0.7,0.1c-0.4,0-0.8-0.1-1-0.3s-0.3-0.5-0.3-1
		v-2.3h1v1.9c0,0.1,0,0.2,0,0.4c0,0.1,0,0.2,0.1,0.3c0,0.1,0.1,0.2,0.2,0.2c0.1,0.1,0.2,0.1,0.4,0.1s0.3,0,0.4-0.1s0.2-0.1,0.2-0.3
		s0.1-0.2,0.1-0.3c0-0.1,0-0.3,0-0.4v-1.8h1V67c0,0.2,0,0.4,0,0.6c0,0.2,0,0.4,0,0.7H216.1z M214.1,64.1v-0.8h0.9v0.8H214.1z
		 M215.8,64.1v-0.8h0.9v0.8H215.8z"/>
	<path class="st5" d="M220.1,64c-0.1,0-0.1,0-0.2,0c-0.1,0-0.2,0-0.3,0c-0.1,0-0.1,0.1-0.2,0.1s-0.1,0.1-0.1,0.2c0,0.1,0,0.1,0,0.2
		v0.3h0.8v0.7h-0.8v2.9h-1v-2.9h-0.7v-0.7h0.7v-0.3c0-0.4,0.1-0.7,0.3-0.9c0.2-0.2,0.5-0.3,0.9-0.3c0.1,0,0.2,0,0.3,0
		c0.1,0,0.2,0,0.3,0V64C220.2,64,220.2,64,220.1,64z"/>
	<path class="st5" d="M223.3,68.3l0-0.5c-0.2,0.2-0.3,0.4-0.5,0.5c-0.2,0.1-0.4,0.1-0.7,0.1c-0.4,0-0.8-0.1-1-0.3s-0.3-0.5-0.3-1
		v-2.3h1v1.9c0,0.1,0,0.2,0,0.4c0,0.1,0,0.2,0.1,0.3c0,0.1,0.1,0.2,0.2,0.2c0.1,0.1,0.2,0.1,0.4,0.1c0.2,0,0.3,0,0.4-0.1
		c0.1-0.1,0.2-0.1,0.2-0.3c0.1-0.1,0.1-0.2,0.1-0.3c0-0.1,0-0.3,0-0.4v-1.8h1V67c0,0.2,0,0.4,0,0.6c0,0.2,0,0.4,0,0.7H223.3z"/>
	<path class="st5" d="M227.7,68.3v-1.9c0-0.1,0-0.2,0-0.4c0-0.1,0-0.2-0.1-0.3c0-0.1-0.1-0.2-0.2-0.2s-0.2-0.1-0.4-0.1
		c-0.2,0-0.3,0-0.4,0.1c-0.1,0.1-0.2,0.2-0.2,0.3s-0.1,0.2-0.1,0.4s0,0.2,0,0.3v1.8h-1v-2.8c0-0.1,0-0.2,0-0.3c0-0.1,0-0.2,0-0.4h1
		l0,0.5c0.2-0.2,0.3-0.4,0.5-0.5c0.2-0.1,0.4-0.1,0.7-0.1c0.4,0,0.8,0.1,1,0.3c0.2,0.2,0.3,0.5,0.3,1v2.3H227.7z"/>
	<path class="st5" d="M233.2,64.8c0,0.2,0,0.4,0,0.6c0,0.2,0,0.3,0,0.4v1.9c0,0.7-0.1,1.2-0.4,1.6c-0.3,0.3-0.8,0.5-1.4,0.5
		c-0.2,0-0.4,0-0.6,0c-0.2,0-0.4-0.1-0.5-0.2s-0.3-0.2-0.4-0.3c-0.1-0.1-0.2-0.3-0.2-0.5v-0.1h1c0,0.1,0,0.2,0.1,0.3
		c0,0.1,0.1,0.1,0.2,0.2c0.1,0,0.1,0.1,0.2,0.1c0.1,0,0.2,0,0.3,0c0.2,0,0.3,0,0.4-0.1c0.1,0,0.2-0.1,0.2-0.2
		c0.1-0.1,0.1-0.2,0.1-0.3c0-0.1,0-0.2,0-0.4c0-0.1,0-0.2,0-0.2c0-0.1,0-0.2,0-0.2c-0.3,0.4-0.6,0.6-1.1,0.6c-0.3,0-0.5,0-0.7-0.1
		c-0.2-0.1-0.4-0.2-0.5-0.4c-0.1-0.2-0.2-0.3-0.3-0.6c-0.1-0.2-0.1-0.4-0.1-0.7c0-0.2,0-0.5,0.1-0.7c0.1-0.2,0.2-0.4,0.3-0.6
		c0.1-0.2,0.3-0.3,0.5-0.4c0.2-0.1,0.4-0.1,0.7-0.1c0.3,0,0.5,0,0.7,0.1c0.2,0.1,0.4,0.3,0.5,0.5v-0.5H233.2z M232.1,66.5
		c0-0.1,0-0.3,0-0.4c0-0.1-0.1-0.3-0.1-0.4c-0.1-0.1-0.1-0.2-0.2-0.3c-0.1-0.1-0.2-0.1-0.4-0.1c-0.2,0-0.3,0-0.4,0.1
		s-0.2,0.2-0.3,0.3c-0.1,0.1-0.1,0.2-0.1,0.4s0,0.3,0,0.4c0,0.1,0,0.3,0,0.4s0.1,0.3,0.1,0.4c0.1,0.1,0.1,0.2,0.2,0.3
		c0.1,0.1,0.2,0.1,0.4,0.1c0.2,0,0.3,0,0.4-0.1s0.2-0.2,0.3-0.3c0.1-0.1,0.1-0.2,0.1-0.4C232.1,66.7,232.1,66.6,232.1,66.5z"/>
</g>
<g>
	<path class="st5" d="M281.7,68.1l-0.4-1.2h-2.2l-0.4,1.2h-1.1l2.1-5.1h1.2l2.1,5.1H281.7z M280.2,63.8l-0.8,2.4h1.7L280.2,63.8z"/>
	<path class="st5" d="M287.1,66.3c0,0.2,0,0.5-0.1,0.7c-0.1,0.2-0.2,0.4-0.3,0.6s-0.3,0.3-0.5,0.4c-0.2,0.1-0.4,0.2-0.7,0.2
		c-0.2,0-0.4,0-0.6-0.1c-0.2-0.1-0.3-0.2-0.5-0.4l0,0.5h-1c0-0.2,0-0.3,0-0.5c0-0.2,0-0.3,0-0.5V63h1v2c0.1-0.2,0.3-0.3,0.5-0.4
		s0.4-0.1,0.6-0.1c0.3,0,0.5,0,0.7,0.1c0.2,0.1,0.4,0.2,0.5,0.4c0.1,0.2,0.2,0.4,0.3,0.6C287.1,65.8,287.1,66,287.1,66.3z M286,66.3
		c0-0.1,0-0.3,0-0.4s-0.1-0.3-0.1-0.4s-0.1-0.2-0.2-0.3c-0.1-0.1-0.2-0.1-0.4-0.1c-0.2,0-0.3,0-0.4,0.1c-0.1,0.1-0.2,0.2-0.3,0.3
		c-0.1,0.1-0.1,0.2-0.1,0.4c0,0.1,0,0.3,0,0.4c0,0.1,0,0.3,0,0.4s0.1,0.3,0.1,0.4c0.1,0.1,0.1,0.2,0.2,0.3c0.1,0.1,0.2,0.1,0.4,0.1
		c0.2,0,0.3,0,0.4-0.1c0.1-0.1,0.2-0.2,0.3-0.3c0.1-0.1,0.1-0.2,0.1-0.4S286,66.4,286,66.3z"/>
	<path class="st5" d="M290.9,67c0,0.2-0.1,0.4-0.2,0.6c-0.1,0.1-0.2,0.3-0.4,0.4c-0.2,0.1-0.3,0.2-0.5,0.2c-0.2,0-0.4,0.1-0.6,0.1
		c-0.2,0-0.4,0-0.6-0.1s-0.4-0.1-0.5-0.2s-0.3-0.2-0.3-0.4c-0.1-0.2-0.1-0.4-0.1-0.6h1c0,0.2,0.1,0.4,0.2,0.5s0.2,0.2,0.5,0.2
		c0.1,0,0.1,0,0.2,0c0.1,0,0.1,0,0.2-0.1c0.1,0,0.1-0.1,0.1-0.1c0-0.1,0.1-0.1,0.1-0.2c0-0.1-0.1-0.2-0.2-0.3
		c-0.1-0.1-0.3-0.1-0.5-0.2l-0.4-0.1c-0.1,0-0.3-0.1-0.4-0.1c-0.1,0-0.2-0.1-0.3-0.2s-0.2-0.2-0.2-0.3c-0.1-0.1-0.1-0.2-0.1-0.4
		c0-0.2,0-0.4,0.1-0.5s0.2-0.2,0.4-0.3c0.1-0.1,0.3-0.1,0.5-0.2c0.2,0,0.4,0,0.5,0c0.2,0,0.4,0,0.6,0.1c0.2,0,0.3,0.1,0.5,0.2
		c0.1,0.1,0.3,0.2,0.3,0.4c0.1,0.1,0.1,0.3,0.2,0.5h-1c0-0.2-0.1-0.3-0.1-0.4c-0.1-0.1-0.2-0.2-0.4-0.2c-0.1,0-0.1,0-0.2,0
		c-0.1,0-0.1,0-0.2,0.1c-0.1,0-0.1,0.1-0.1,0.1c0,0,0,0.1,0,0.2c0,0.1,0.1,0.2,0.2,0.3s0.3,0.1,0.5,0.2l0.4,0.1
		c0.1,0,0.3,0.1,0.4,0.1s0.2,0.1,0.4,0.2s0.2,0.2,0.2,0.3C290.8,66.7,290.9,66.8,290.9,67z"/>
	<path class="st5" d="M292.9,65.2v1.6c0,0.1,0,0.2,0,0.3s0,0.1,0.1,0.2c0,0,0.1,0.1,0.1,0.1s0.2,0,0.3,0c0.1,0,0.1,0,0.2,0
		c0.1,0,0.1,0,0.2,0v0.7c-0.1,0-0.2,0-0.4,0c-0.1,0-0.2,0-0.4,0c-0.2,0-0.3,0-0.5,0c-0.1,0-0.2-0.1-0.3-0.1
		c-0.1-0.1-0.2-0.2-0.2-0.3c0-0.1-0.1-0.3-0.1-0.5v-2h-0.7v-0.7h0.7v-0.6l1-0.4v1h0.8v0.7H292.9z"/>
	<path class="st5" d="M294.3,63.8V63h1.1v0.8H294.3z M294.3,68.1v-3.5h1v3.5H294.3z"/>
	<path class="st5" d="M301.2,68.1v-2c0-0.1,0-0.2,0-0.4c0-0.1,0-0.2-0.1-0.3c0-0.1-0.1-0.2-0.2-0.2c-0.1-0.1-0.2-0.1-0.4-0.1
		s-0.3,0-0.4,0.1c-0.1,0.1-0.2,0.1-0.2,0.2s-0.1,0.2-0.1,0.3c0,0.1,0,0.2,0,0.4v1.9h-1v-2c0-0.1,0-0.2,0-0.3c0-0.1,0-0.2-0.1-0.3
		c0-0.1-0.1-0.2-0.2-0.2c-0.1-0.1-0.2-0.1-0.3-0.1c-0.1,0-0.3,0-0.4,0.1c-0.1,0.1-0.2,0.1-0.2,0.2s-0.1,0.2-0.1,0.3s0,0.2,0,0.4v2
		h-1v-2.4c0-0.2,0-0.4,0-0.6c0-0.2,0-0.4,0-0.6h1l0,0.6c0.1-0.2,0.3-0.4,0.5-0.5c0.2-0.1,0.4-0.1,0.7-0.1c0.3,0,0.5,0.1,0.7,0.2
		c0.2,0.1,0.3,0.3,0.4,0.5c0.1-0.2,0.3-0.4,0.5-0.5c0.2-0.1,0.5-0.2,0.7-0.2c0.2,0,0.4,0,0.6,0.1c0.2,0.1,0.3,0.2,0.4,0.3
		c0.1,0.1,0.2,0.3,0.2,0.4c0,0.2,0.1,0.4,0.1,0.6v2.2H301.2z"/>
	<path class="st5" d="M308,68.1v-2c0-0.1,0-0.2,0-0.4c0-0.1,0-0.2-0.1-0.3c0-0.1-0.1-0.2-0.2-0.2c-0.1-0.1-0.2-0.1-0.4-0.1
		s-0.3,0-0.4,0.1c-0.1,0.1-0.2,0.1-0.2,0.2s-0.1,0.2-0.1,0.3c0,0.1,0,0.2,0,0.4v1.9h-1v-2c0-0.1,0-0.2,0-0.3c0-0.1,0-0.2-0.1-0.3
		c0-0.1-0.1-0.2-0.2-0.2c-0.1-0.1-0.2-0.1-0.3-0.1c-0.1,0-0.3,0-0.4,0.1c-0.1,0.1-0.2,0.1-0.2,0.2s-0.1,0.2-0.1,0.3s0,0.2,0,0.4v2
		h-1v-2.4c0-0.2,0-0.4,0-0.6c0-0.2,0-0.4,0-0.6h1l0,0.6c0.1-0.2,0.3-0.4,0.5-0.5c0.2-0.1,0.4-0.1,0.7-0.1c0.3,0,0.5,0.1,0.7,0.2
		c0.2,0.1,0.3,0.3,0.4,0.5c0.1-0.2,0.3-0.4,0.5-0.5c0.2-0.1,0.5-0.2,0.7-0.2c0.2,0,0.4,0,0.6,0.1c0.2,0.1,0.3,0.2,0.4,0.3
		c0.1,0.1,0.2,0.3,0.2,0.4c0,0.2,0.1,0.4,0.1,0.6v2.2H308z"/>
	<path class="st5" d="M312.4,68.1l0-0.5c-0.2,0.2-0.3,0.4-0.5,0.5c-0.2,0.1-0.4,0.1-0.7,0.1c-0.4,0-0.8-0.1-1-0.3s-0.3-0.5-0.3-1
		v-2.3h1v1.9c0,0.1,0,0.2,0,0.4c0,0.1,0,0.2,0.1,0.3c0,0.1,0.1,0.2,0.2,0.2c0.1,0.1,0.2,0.1,0.4,0.1c0.2,0,0.3,0,0.4-0.1
		c0.1-0.1,0.2-0.1,0.2-0.3c0.1-0.1,0.1-0.2,0.1-0.3c0-0.1,0-0.3,0-0.4v-1.8h1v2.2c0,0.2,0,0.4,0,0.6c0,0.2,0,0.4,0,0.7H312.4z"/>
	<path class="st5" d="M316.8,68.1v-1.9c0-0.1,0-0.2,0-0.4c0-0.1,0-0.2-0.1-0.3c0-0.1-0.1-0.2-0.2-0.2c-0.1-0.1-0.2-0.1-0.4-0.1
		c-0.2,0-0.3,0-0.4,0.1c-0.1,0.1-0.2,0.2-0.2,0.3s-0.1,0.2-0.1,0.4c0,0.1,0,0.2,0,0.3v1.8h-1v-2.8c0-0.1,0-0.2,0-0.3s0-0.2,0-0.4h1
		l0,0.5c0.2-0.2,0.3-0.4,0.5-0.5c0.2-0.1,0.4-0.1,0.7-0.1c0.4,0,0.8,0.1,1,0.3c0.2,0.2,0.3,0.5,0.3,1v2.3H316.8z"/>
	<path class="st5" d="M322.3,64.5c0,0.2,0,0.4,0,0.6c0,0.2,0,0.3,0,0.4v1.9c0,0.7-0.1,1.2-0.4,1.6c-0.3,0.3-0.8,0.5-1.4,0.5
		c-0.2,0-0.4,0-0.6,0c-0.2,0-0.4-0.1-0.5-0.2c-0.2-0.1-0.3-0.2-0.4-0.3c-0.1-0.1-0.2-0.3-0.2-0.5v-0.1h1c0,0.1,0,0.2,0.1,0.3
		c0,0.1,0.1,0.1,0.2,0.2c0.1,0,0.1,0.1,0.2,0.1c0.1,0,0.2,0,0.3,0c0.2,0,0.3,0,0.4-0.1c0.1,0,0.2-0.1,0.2-0.2s0.1-0.2,0.1-0.3
		s0-0.2,0-0.4c0-0.1,0-0.2,0-0.2c0-0.1,0-0.2,0-0.2c-0.3,0.4-0.6,0.6-1.1,0.6c-0.3,0-0.5,0-0.7-0.1s-0.4-0.2-0.5-0.4
		c-0.1-0.2-0.2-0.3-0.3-0.6c-0.1-0.2-0.1-0.4-0.1-0.7c0-0.2,0-0.5,0.1-0.7c0.1-0.2,0.2-0.4,0.3-0.6c0.1-0.2,0.3-0.3,0.5-0.4
		c0.2-0.1,0.4-0.1,0.7-0.1c0.3,0,0.5,0,0.7,0.1c0.2,0.1,0.4,0.3,0.5,0.5v-0.5H322.3z M321.3,66.2c0-0.1,0-0.3,0-0.4
		c0-0.1-0.1-0.3-0.1-0.4c-0.1-0.1-0.1-0.2-0.2-0.3c-0.1-0.1-0.2-0.1-0.4-0.1c-0.2,0-0.3,0-0.4,0.1s-0.2,0.2-0.3,0.3
		c-0.1,0.1-0.1,0.2-0.1,0.4c0,0.1,0,0.3,0,0.4c0,0.1,0,0.3,0,0.4c0,0.1,0.1,0.3,0.1,0.4s0.1,0.2,0.2,0.3c0.1,0.1,0.2,0.1,0.4,0.1
		c0.2,0,0.3,0,0.4-0.1s0.2-0.2,0.3-0.3c0.1-0.1,0.1-0.2,0.1-0.4C321.3,66.5,321.3,66.3,321.3,66.2z"/>
</g>
<g>
	<path class="st5" d="M375,67.6c-0.4,0.4-0.9,0.6-1.7,0.6c-0.2,0-0.4,0-0.6,0c-0.2,0-0.4-0.1-0.5-0.1c-0.2-0.1-0.3-0.2-0.5-0.3
		c-0.1-0.1-0.3-0.3-0.4-0.4c-0.1-0.2-0.2-0.4-0.2-0.7c0-0.2,0-0.5,0-0.7V63h1.1v3c0,0.2,0,0.4,0,0.5s0.1,0.3,0.2,0.4
		c0.1,0.1,0.2,0.2,0.3,0.3s0.3,0.1,0.6,0.1c0.2,0,0.4,0,0.6-0.1c0.1-0.1,0.3-0.2,0.3-0.3c0.1-0.1,0.1-0.3,0.2-0.5c0-0.2,0-0.4,0-0.5
		v-3h1.1v3C375.5,66.7,375.3,67.2,375,67.6z"/>
	<path class="st5" d="M381.4,68.1v-2c0-0.1,0-0.2,0-0.4c0-0.1,0-0.2-0.1-0.3c0-0.1-0.1-0.2-0.2-0.2c-0.1-0.1-0.2-0.1-0.4-0.1
		s-0.3,0-0.4,0.1c-0.1,0.1-0.2,0.1-0.2,0.2s-0.1,0.2-0.1,0.3c0,0.1,0,0.2,0,0.4v1.9h-1v-2c0-0.1,0-0.2,0-0.3c0-0.1,0-0.2-0.1-0.3
		c0-0.1-0.1-0.2-0.2-0.2c-0.1-0.1-0.2-0.1-0.3-0.1c-0.1,0-0.3,0-0.4,0.1c-0.1,0.1-0.2,0.1-0.2,0.2s-0.1,0.2-0.1,0.3s0,0.2,0,0.4v2
		h-1v-2.4c0-0.2,0-0.4,0-0.6c0-0.2,0-0.4,0-0.6h1l0,0.6c0.1-0.2,0.3-0.4,0.5-0.5c0.2-0.1,0.4-0.1,0.7-0.1c0.3,0,0.5,0.1,0.7,0.2
		c0.2,0.1,0.3,0.3,0.4,0.5c0.1-0.2,0.3-0.4,0.5-0.5c0.2-0.1,0.5-0.2,0.7-0.2c0.2,0,0.4,0,0.6,0.1c0.2,0.1,0.3,0.2,0.4,0.3
		c0.1,0.1,0.2,0.3,0.2,0.4c0,0.2,0.1,0.4,0.1,0.6v2.2H381.4z"/>
	<path class="st5" d="M386.4,67c0,0.2-0.1,0.4-0.2,0.6c-0.1,0.1-0.2,0.3-0.4,0.4c-0.2,0.1-0.3,0.2-0.5,0.2c-0.2,0-0.4,0.1-0.6,0.1
		c-0.2,0-0.4,0-0.6-0.1s-0.4-0.1-0.5-0.2s-0.3-0.2-0.3-0.4c-0.1-0.2-0.1-0.4-0.1-0.6h1c0,0.2,0.1,0.4,0.2,0.5s0.2,0.2,0.5,0.2
		c0.1,0,0.1,0,0.2,0c0.1,0,0.1,0,0.2-0.1c0.1,0,0.1-0.1,0.1-0.1c0-0.1,0.1-0.1,0.1-0.2c0-0.1-0.1-0.2-0.2-0.3
		c-0.1-0.1-0.3-0.1-0.5-0.2l-0.4-0.1c-0.1,0-0.3-0.1-0.4-0.1c-0.1,0-0.2-0.1-0.3-0.2s-0.2-0.2-0.2-0.3c-0.1-0.1-0.1-0.2-0.1-0.4
		c0-0.2,0-0.4,0.1-0.5s0.2-0.2,0.4-0.3c0.1-0.1,0.3-0.1,0.5-0.2c0.2,0,0.4,0,0.5,0c0.2,0,0.4,0,0.6,0.1c0.2,0,0.3,0.1,0.5,0.2
		c0.1,0.1,0.3,0.2,0.3,0.4c0.1,0.1,0.1,0.3,0.2,0.5h-1c0-0.2-0.1-0.3-0.1-0.4c-0.1-0.1-0.2-0.2-0.4-0.2c-0.1,0-0.1,0-0.2,0
		c-0.1,0-0.1,0-0.2,0.1c-0.1,0-0.1,0.1-0.1,0.1c0,0,0,0.1,0,0.2c0,0.1,0.1,0.2,0.2,0.3s0.3,0.1,0.5,0.2l0.4,0.1
		c0.1,0,0.3,0.1,0.4,0.1s0.2,0.1,0.4,0.2s0.2,0.2,0.2,0.3C386.3,66.7,386.4,66.8,386.4,67z"/>
	<path class="st5" d="M387.9,66.5c0,0.1,0,0.3,0,0.4c0,0.1,0.1,0.2,0.1,0.3s0.1,0.2,0.3,0.2c0.1,0.1,0.2,0.1,0.4,0.1
		c0.4,0,0.7-0.2,0.7-0.6h1c0,0.2-0.1,0.4-0.2,0.6c-0.1,0.2-0.2,0.3-0.4,0.4s-0.3,0.2-0.5,0.2c-0.2,0-0.4,0.1-0.6,0.1
		c-0.6,0-1-0.2-1.3-0.5c-0.3-0.3-0.5-0.7-0.5-1.3c0-0.6,0.2-1.1,0.5-1.4c0.3-0.3,0.8-0.5,1.4-0.5c0.2,0,0.3,0,0.5,0.1
		c0.2,0,0.3,0.1,0.4,0.2c0.1,0.1,0.3,0.2,0.4,0.3c0.1,0.1,0.2,0.3,0.3,0.4c0.1,0.2,0.1,0.4,0.1,0.5c0,0.2,0,0.4,0,0.6H387.9z
		 M389.5,65.9c0-0.3-0.1-0.5-0.2-0.6S389,65,388.7,65c-0.3,0-0.4,0.1-0.6,0.2c-0.1,0.2-0.2,0.4-0.2,0.6H389.5z"/>
	<path class="st5" d="M392.5,65.2v1.6c0,0.1,0,0.2,0,0.3c0,0.1,0,0.1,0.1,0.2c0,0,0.1,0.1,0.1,0.1s0.2,0,0.3,0c0.1,0,0.1,0,0.2,0
		c0.1,0,0.1,0,0.2,0v0.7c-0.1,0-0.2,0-0.4,0c-0.1,0-0.2,0-0.4,0c-0.2,0-0.3,0-0.5,0c-0.1,0-0.2-0.1-0.3-0.1
		c-0.1-0.1-0.2-0.2-0.2-0.3c0-0.1-0.1-0.3-0.1-0.5v-2h-0.7v-0.7h0.7v-0.6l1-0.4v1h0.8v0.7H392.5z"/>
	<path class="st5" d="M393.6,68.1v-0.7l1.8-2.1h-1.8v-0.7h2.9v0.7l-1.8,2.1h1.9v0.7H393.6z"/>
	<path class="st5" d="M399.8,68.1l0-0.5c-0.2,0.2-0.3,0.4-0.5,0.5c-0.2,0.1-0.4,0.1-0.7,0.1c-0.4,0-0.8-0.1-1-0.3s-0.3-0.5-0.3-1
		v-2.3h1v1.9c0,0.1,0,0.2,0,0.4c0,0.1,0,0.2,0.1,0.3c0,0.1,0.1,0.2,0.2,0.2c0.1,0.1,0.2,0.1,0.4,0.1c0.2,0,0.3,0,0.4-0.1
		c0.1-0.1,0.2-0.1,0.2-0.3c0.1-0.1,0.1-0.2,0.1-0.3c0-0.1,0-0.3,0-0.4v-1.8h1v2.2c0,0.2,0,0.4,0,0.6c0,0.2,0,0.4,0,0.7H399.8z"/>
	<path class="st5" d="M404.2,68.1v-1.9c0-0.1,0-0.2,0-0.4c0-0.1,0-0.2-0.1-0.3c0-0.1-0.1-0.2-0.2-0.2c-0.1-0.1-0.2-0.1-0.4-0.1
		c-0.2,0-0.3,0-0.4,0.1c-0.1,0.1-0.2,0.2-0.2,0.3s-0.1,0.2-0.1,0.4c0,0.1,0,0.2,0,0.3v1.8h-1v-2.8c0-0.1,0-0.2,0-0.3s0-0.2,0-0.4h1
		l0,0.5c0.2-0.2,0.3-0.4,0.5-0.5c0.2-0.1,0.4-0.1,0.7-0.1c0.4,0,0.8,0.1,1,0.3c0.2,0.2,0.3,0.5,0.3,1v2.3H404.2z"/>
	<path class="st5" d="M409.7,64.5c0,0.2,0,0.4,0,0.6c0,0.2,0,0.3,0,0.4v1.9c0,0.7-0.1,1.2-0.4,1.6c-0.3,0.3-0.8,0.5-1.4,0.5
		c-0.2,0-0.4,0-0.6,0c-0.2,0-0.4-0.1-0.5-0.2c-0.2-0.1-0.3-0.2-0.4-0.3c-0.1-0.1-0.2-0.3-0.2-0.5v-0.1h1c0,0.1,0,0.2,0.1,0.3
		c0,0.1,0.1,0.1,0.2,0.2c0.1,0,0.1,0.1,0.2,0.1c0.1,0,0.2,0,0.3,0c0.2,0,0.3,0,0.4-0.1c0.1,0,0.2-0.1,0.2-0.2s0.1-0.2,0.1-0.3
		s0-0.2,0-0.4c0-0.1,0-0.2,0-0.2c0-0.1,0-0.2,0-0.2c-0.3,0.4-0.6,0.6-1.1,0.6c-0.3,0-0.5,0-0.7-0.1s-0.4-0.2-0.5-0.4
		c-0.1-0.2-0.2-0.3-0.3-0.6c-0.1-0.2-0.1-0.4-0.1-0.7c0-0.2,0-0.5,0.1-0.7c0.1-0.2,0.2-0.4,0.3-0.6c0.1-0.2,0.3-0.3,0.5-0.4
		c0.2-0.1,0.4-0.1,0.7-0.1c0.3,0,0.5,0,0.7,0.1c0.2,0.1,0.4,0.3,0.5,0.5v-0.5H409.7z M408.7,66.2c0-0.1,0-0.3,0-0.4
		c0-0.1-0.1-0.3-0.1-0.4c-0.1-0.1-0.1-0.2-0.2-0.3c-0.1-0.1-0.2-0.1-0.4-0.1c-0.2,0-0.3,0-0.4,0.1s-0.2,0.2-0.3,0.3
		c-0.1,0.1-0.1,0.2-0.1,0.4c0,0.1,0,0.3,0,0.4c0,0.1,0,0.3,0,0.4c0,0.1,0.1,0.3,0.1,0.4s0.1,0.2,0.2,0.3c0.1,0.1,0.2,0.1,0.4,0.1
		c0.2,0,0.3,0,0.4-0.1s0.2-0.2,0.3-0.3c0.1-0.1,0.1-0.2,0.1-0.4C408.7,66.5,408.7,66.3,408.7,66.2z"/>
</g>
<polygon class="st6" points="73.3,44.4 82.3,53.4 73.3,62.4 "/>
<polygon class="st6" points="27.1,90.4 36,81.5 45,90.4 "/>
<polygon class="st6" points="94.4,90.4 103.4,81.5 112.4,90.4 "/>
<polygon class="st6" points="135.7,90.4 144.7,81.5 153.7,90.4 "/>
<polygon class="st6" points="275,91 284,82.1 293,91 "/>
<polygon class="st6" points="241.9,84.2 232.9,93.2 223.9,84.2 "/>
<polygon class="st6" points="165.2,44.4 174.2,53.4 165.2,62.4 "/>
<polygon class="st6" points="252.7,44.4 261.7,53.4 252.7,62.4 "/>
<polygon class="st6" points="340.9,44.4 349.9,53.4 340.9,62.4 "/>
<g transform="matrix(2,0,0,2,0,0)">
	<line class="st7" x1="18.7" y1="27.9" x2="17.2" y2="27.9"/>
	<line class="st7" x1="19.2" y1="26.9" x2="16.7" y2="26.9"/>
	<line class="st7" x1="17.9" y1="16.5" x2="17.9" y2="18"/>
	<line class="st7" x1="13.7" y1="18.3" x2="14.8" y2="19.3"/>
	<line class="st7" x1="22.1" y1="18.3" x2="21.1" y2="19.3"/>
	<line class="st7" x1="12.3" y1="22.5" x2="13.7" y2="22.5"/>
	<line class="st7" x1="23.6" y1="22.5" x2="22.1" y2="22.5"/>
	<path class="st7" d="M20.9,22.5c0-1.6-1.3-3-3-3c-1.6,0-3,1.3-3,3c0,1,0.5,1.9,1.3,2.4c0.1,0.1,0.2,0.2,0.2,0.4v0.4
		c0,0.1,0.1,0.2,0.2,0.2h2.5c0.1,0,0.2-0.1,0.2-0.2v-0.4c0-0.2,0.1-0.3,0.2-0.4C20.4,24.3,20.9,23.4,20.9,22.5z"/>
</g>
<g transform="matrix(2,0,0,2,0,0)">
	<path class="st8" d="M65.5,21.8v-2.4c0-0.5-0.4-0.9-0.9-0.9h-5.2c-0.5,0-0.9,0.4-0.9,0.9v6.9c0,0.5,0.4,0.9,0.9,0.9H63l1.3,1.3
		v-1.3h0.4c0.3,0,0.6-0.2,0.7-0.4"/>
	<path class="st8" d="M57.8,20c-0.3,0.2-0.4,0.4-0.4,0.7v6.9c0,0.5,0.4,0.9,0.9,0.9l0,0h3.4c0.3,0,0.6-0.2,0.7-0.4"/>
	<line class="st8" x1="59.5" y1="19.9" x2="61.2" y2="19.9"/>
	<line class="st8" x1="60.4" y1="21.8" x2="60.4" y2="19.9"/>
	<path class="st8" d="M63.9,21.5L62.1,21l0.5,1.8l3.1,3.1c0.4,0.4,0.9,0.4,1.3,0c0.4-0.4,0.4-0.9,0-1.3l0,0L63.9,21.5z"/>
	<line class="st8" x1="65.3" y1="25.5" x2="66.6" y2="24.2"/>
	<line class="st8" x1="62.6" y1="22.8" x2="63.9" y2="21.5"/>
	<line class="st8" x1="62.5" y1="19.9" x2="64.3" y2="19.9"/>
	<line class="st8" x1="59.9" y1="23.4" x2="61.7" y2="23.4"/>
	<line class="st8" x1="59.9" y1="24.6" x2="62.7" y2="24.6"/>
	<line class="st8" x1="59.9" y1="25.9" x2="63.8" y2="25.9"/>
</g>
<g transform="matrix(2,0,0,2,0,0)">
	<g>
		<path class="st7" d="M141,55l-2,2.7c-0.1,0.1-0.1,0.1-0.2,0.1c-0.1,0-0.2,0-0.2-0.1l-1.3-1"/>
		<circle class="st7" cx="139.1" cy="56.5" r="3.5"/>
	</g>
</g>
<g transform="matrix(2,0,0,2,0,0)">
	<path class="st7" d="M29.1,61.6l-3-3.1c-0.8-0.7-1-1.9-0.5-2.9l0,0c0.6-1.2,2.2-1.7,3.4-1.1c0.2,0.1,0.4,0.3,0.6,0.4l0.7,0.6L31,55
		c1-1,2.6-1,3.6,0c0.2,0.2,0.3,0.4,0.4,0.6l0,0c0.3,0.6,0.4,1.4,0.1,2"/>
	<circle class="st7" cx="32.7" cy="60.7" r="2.6"/>
	<path class="st7" d="M33.8,59.9l-1.3,1.7c-0.1,0.1-0.3,0.2-0.5,0.1c0,0,0,0,0,0L31.4,61"/>
</g>
<g transform="matrix(2,0,0,2,0,0)">
	<g>
		<g>
			<line class="st7" x1="193.5" y1="17.5" x2="193.5" y2="18.7"/>
			<line class="st7" x1="194.1" y1="18.1" x2="192.9" y2="18.1"/>
		</g>
		<g>
			<line class="st7" x1="197.7" y1="28.9" x2="197.7" y2="30.1"/>
			<line class="st7" x1="198.3" y1="29.5" x2="197.1" y2="29.5"/>
		</g>
		<line class="st7" x1="193.1" y1="23" x2="195.9" y2="25.8"/>
		<path class="st7" d="M192,28.9c-0.9,0.9-2.6,0.6-2.6,0.6s-0.3-1.7,0.6-2.6c0.4-0.5,1.2-0.6,1.8-0.2c0.1,0.1,0.2,0.1,0.2,0.2
			c0.5,0.4,0.6,1.2,0.2,1.8C192.2,28.8,192.1,28.9,192,28.9z"/>
		<g>
			<path class="st7" d="M200.7,18.2c-5.1-0.5-6.6,3.1-8.4,6.4l2,2C197.6,24.9,201.2,23.4,200.7,18.2z"/>
			<path class="st7" d="M193.3,22.6l-0.8-0.3c-0.5-0.1-1.1,0-1.5,0.4l-0.8,0.8c-0.1,0.1-0.1,0.2-0.1,0.4c0,0.1,0.1,0.2,0.3,0.2
				l1.9,0.4"/>
			<path class="st7" d="M196.3,25.6l0.2,0.8c0.1,0.5,0,1.1-0.4,1.5l-0.8,0.8c-0.1,0.1-0.2,0.1-0.4,0.1c-0.1,0-0.2-0.1-0.3-0.3
				l-0.4-1.9"/>
		</g>
		<circle class="st7" cx="197.6" cy="21.3" r="1.1"/>
	</g>
</g>
<g transform="matrix(2,0,0,2,0,0)">
	<path class="st8" d="M84,56.9h-2.8c-0.4,0-0.8-0.3-0.8-0.8v-4.1c0-0.4,0.3-0.8,0.8-0.8H86c0.4,0,1,0.3,1,0.8v3.3"/>
	<line class="st8" x1="84" y1="56.9" x2="84" y2="58.5"/>
	<line class="st8" x1="81.7" y1="58.5" x2="84" y2="58.5"/>
	<path class="st8" d="M90.7,61.5h-4.9c-0.4,0-0.8-0.3-0.8-0.8v-3.6c0-0.4,0.3-0.7,0.7-0.8c0,0,0,0,0,0h4.9c0.4,0,1,0.3,1,0.8v3.6
		C91.6,61.2,91.1,61.5,90.7,61.5z"/>
	<line class="st8" x1="88.6" y1="61.5" x2="88.6" y2="63"/>
	<line class="st8" x1="86.3" y1="63" x2="90.9" y2="63"/>
	<path class="st8" d="M83,55.4v-2.3c0-0.4,0.3-0.8,0.8-0.8c0.4,0,0.8,0.3,0.8,0.8v2.3"/>
	<line class="st8" x1="83" y1="53.9" x2="84.5" y2="53.9"/>
	<path class="st8" d="M89.1,58.2c0,0.4-0.3,0.8-0.8,0.8h-0.8v-1.5h0.8C88.8,57.5,89.1,57.8,89.1,58.2z"/>
	<path class="st8" d="M89.1,59.7c0,0.4-0.3,0.8-0.8,0.8h-0.8V59h0.8C88.8,59,89.1,59.3,89.1,59.7z"/>
</g>
<g>
	<g transform="matrix(2,0,0,2,0,0)">
		<g>
			<circle class="st7" cx="124.8" cy="56.5" r="3.5"/>
		</g>
	</g>
	<g>
		<line class="st7" x1="246.3" y1="109.5" x2="253.2" y2="116.4"/>
		<line class="st7" x1="246.3" y1="116.4" x2="253.2" y2="109.5"/>
	</g>
</g>
<g>
	<path class="st9" d="M228.6,11.3v5.5h-1.4v-5.5h-2v-1h5.5v1H228.6z"/>
	<path class="st9" d="M234.2,16.8v-2.4c0-0.2,0-0.3,0-0.5c0-0.2,0-0.3-0.1-0.4c-0.1-0.1-0.1-0.2-0.3-0.3s-0.3-0.1-0.5-0.1
		s-0.4,0-0.5,0.1c-0.1,0.1-0.2,0.2-0.3,0.4c-0.1,0.1-0.1,0.3-0.1,0.5c0,0.2,0,0.3,0,0.4v2.3H231v-6.5h1.3l0,2.6
		c0.2-0.3,0.4-0.4,0.6-0.6c0.2-0.1,0.5-0.2,0.8-0.2c0.6,0,1,0.1,1.3,0.4c0.3,0.3,0.4,0.7,0.4,1.3v2.9H234.2z"/>
	<path class="st9" d="M237.7,14.8c0,0.2,0,0.3,0.1,0.5c0,0.2,0.1,0.3,0.2,0.4s0.2,0.2,0.3,0.3s0.3,0.1,0.5,0.1
		c0.5,0,0.8-0.3,0.9-0.8h1.3c0,0.3-0.1,0.5-0.3,0.7s-0.3,0.4-0.5,0.5c-0.2,0.1-0.4,0.2-0.7,0.3c-0.2,0.1-0.5,0.1-0.8,0.1
		c-0.7,0-1.3-0.2-1.7-0.6c-0.4-0.4-0.6-1-0.6-1.7c0-0.8,0.2-1.4,0.6-1.8c0.4-0.4,1-0.7,1.8-0.7c0.2,0,0.4,0,0.6,0.1
		c0.2,0,0.4,0.1,0.6,0.2s0.3,0.2,0.5,0.4c0.1,0.2,0.2,0.3,0.3,0.5c0.1,0.2,0.2,0.5,0.2,0.7c0,0.2,0,0.5,0,0.8H237.7z M239.7,14
		c0-0.3-0.1-0.6-0.2-0.8c-0.2-0.2-0.4-0.3-0.7-0.3c-0.3,0-0.6,0.1-0.8,0.3s-0.3,0.5-0.3,0.8H239.7z"/>
	<path class="st9" d="M248.1,16.8v-2.5c0-0.2,0-0.3,0-0.5c0-0.1-0.1-0.3-0.1-0.4c-0.1-0.1-0.1-0.2-0.3-0.3c-0.1-0.1-0.3-0.1-0.5-0.1
		c-0.2,0-0.3,0-0.5,0.1c-0.1,0.1-0.2,0.2-0.3,0.3c-0.1,0.1-0.1,0.2-0.1,0.4c0,0.1,0,0.3,0,0.5v2.5H245v-2.5c0-0.1,0-0.3,0-0.4
		c0-0.1-0.1-0.3-0.1-0.4c-0.1-0.1-0.1-0.2-0.3-0.3c-0.1-0.1-0.3-0.1-0.4-0.1s-0.3,0-0.5,0.1c-0.1,0.1-0.2,0.2-0.3,0.3
		c-0.1,0.1-0.1,0.2-0.2,0.4c0,0.1,0,0.3,0,0.5v2.5h-1.3v-3c0-0.3,0-0.5,0-0.8s0-0.5,0-0.8h1.3l0,0.7c0.2-0.3,0.4-0.5,0.6-0.6
		c0.3-0.1,0.5-0.2,0.9-0.2c0.3,0,0.6,0.1,0.9,0.2c0.2,0.1,0.4,0.4,0.6,0.7c0.2-0.3,0.4-0.5,0.7-0.7s0.6-0.2,0.9-0.2
		c0.3,0,0.5,0,0.7,0.1s0.4,0.2,0.5,0.4c0.1,0.2,0.2,0.3,0.3,0.6c0.1,0.2,0.1,0.5,0.1,0.7v2.8H248.1z"/>
	<path class="st9" d="M251.6,14.8c0,0.2,0,0.3,0.1,0.5c0,0.2,0.1,0.3,0.2,0.4s0.2,0.2,0.3,0.3s0.3,0.1,0.5,0.1
		c0.5,0,0.8-0.3,0.9-0.8h1.3c0,0.3-0.1,0.5-0.3,0.7s-0.3,0.4-0.5,0.5c-0.2,0.1-0.4,0.2-0.7,0.3c-0.2,0.1-0.5,0.1-0.8,0.1
		c-0.7,0-1.3-0.2-1.7-0.6c-0.4-0.4-0.6-1-0.6-1.7c0-0.8,0.2-1.4,0.6-1.8c0.4-0.4,1-0.7,1.8-0.7c0.2,0,0.4,0,0.6,0.1
		c0.2,0,0.4,0.1,0.6,0.2s0.3,0.2,0.5,0.4c0.1,0.2,0.2,0.3,0.3,0.5c0.1,0.2,0.2,0.5,0.2,0.7c0,0.2,0,0.5,0,0.8H251.6z M253.6,14
		c0-0.3-0.1-0.6-0.2-0.8c-0.2-0.2-0.4-0.3-0.7-0.3c-0.3,0-0.6,0.1-0.8,0.3s-0.3,0.5-0.3,0.8H253.6z"/>
	<path class="st9" d="M259,16.8v-2.4c0-0.2,0-0.3,0-0.5c0-0.2,0-0.3-0.1-0.4c-0.1-0.1-0.1-0.2-0.3-0.3s-0.3-0.1-0.5-0.1
		c-0.2,0-0.4,0.1-0.5,0.2c-0.1,0.1-0.2,0.2-0.3,0.4c-0.1,0.1-0.1,0.3-0.1,0.5c0,0.2,0,0.3,0,0.4v2.3h-1.3v-3.6c0-0.1,0-0.3,0-0.4
		s0-0.3,0-0.5h1.3l0,0.7c0.2-0.3,0.4-0.5,0.6-0.6c0.2-0.1,0.5-0.2,0.8-0.2c0.6,0,1,0.1,1.2,0.4c0.3,0.3,0.4,0.7,0.4,1.2v2.9H259z"/>
	<path class="st9" d="M264.1,13.3c-0.4,0-0.7,0.1-0.9,0.3c-0.2,0.2-0.3,0.5-0.3,1v2.1h-1.3v-3.4c0-0.2,0-0.4,0-0.5
		c0-0.2,0-0.4,0-0.6h1.3l0,0.8c0.2-0.3,0.3-0.5,0.6-0.7c0.2-0.1,0.5-0.2,0.8-0.2c0,0,0.1,0,0.1,0c0,0,0.1,0,0.1,0v1.1
		C264.3,13.3,264.2,13.3,264.1,13.3z"/>
	<path class="st9" d="M267.9,16.8c0-0.1-0.1-0.2-0.1-0.3c0-0.1,0-0.2,0-0.3c-0.2,0.3-0.4,0.5-0.6,0.6c-0.2,0.1-0.5,0.2-0.8,0.2
		c-0.2,0-0.4,0-0.6-0.1c-0.2-0.1-0.4-0.1-0.5-0.3c-0.1-0.1-0.3-0.3-0.3-0.4c-0.1-0.2-0.1-0.4-0.1-0.6c0-0.4,0.1-0.6,0.3-0.8
		c0.2-0.2,0.4-0.4,0.7-0.5c0.3-0.1,0.6-0.2,0.9-0.2c0.3,0,0.6,0,0.9,0h0.4v-0.2c0-0.1,0-0.2,0-0.4c0-0.1,0-0.2-0.1-0.3
		c-0.1-0.1-0.1-0.2-0.2-0.2c-0.1-0.1-0.2-0.1-0.4-0.1c-0.3,0-0.4,0.1-0.5,0.2c-0.1,0.1-0.2,0.3-0.2,0.5H265c0-0.3,0.1-0.5,0.2-0.7
		s0.3-0.3,0.5-0.4c0.2-0.1,0.4-0.2,0.6-0.2s0.5-0.1,0.7-0.1c0.3,0,0.6,0,0.8,0.1s0.5,0.1,0.6,0.3s0.3,0.3,0.4,0.5
		c0.1,0.2,0.1,0.5,0.1,0.9v1.4c0,0.3,0,0.5,0,0.8c0,0.3,0,0.5,0.1,0.8H267.9z M267.8,14.6c-0.1,0-0.1,0-0.2,0c0,0-0.1,0-0.2,0
		c-0.1,0-0.3,0-0.5,0s-0.3,0.1-0.5,0.1c-0.1,0.1-0.3,0.1-0.3,0.3c-0.1,0.1-0.1,0.3-0.1,0.4c0,0.2,0.1,0.4,0.2,0.5
		c0.1,0.1,0.3,0.2,0.5,0.2c0.2,0,0.4,0,0.5-0.1s0.2-0.2,0.3-0.3c0.1-0.1,0.1-0.3,0.1-0.5C267.7,15,267.8,14.8,267.8,14.6L267.8,14.6
		z"/>
	<path class="st9" d="M273.4,16.8l0-0.7c-0.2,0.3-0.4,0.5-0.6,0.6c-0.2,0.1-0.5,0.2-0.8,0.2c-0.6,0-1-0.1-1.3-0.4
		c-0.3-0.3-0.4-0.7-0.4-1.2v-2.9h1.3v2.4c0,0.2,0,0.3,0,0.5c0,0.2,0,0.3,0.1,0.4c0.1,0.1,0.1,0.2,0.3,0.3c0.1,0.1,0.3,0.1,0.5,0.1
		s0.4,0,0.5-0.1s0.2-0.2,0.3-0.3s0.1-0.3,0.1-0.4c0-0.2,0-0.3,0-0.5v-2.3h1.3v2.9c0,0.3,0,0.6,0,0.8s0,0.6,0,0.8H273.4z"/>
	<path class="st9" d="M282.1,16.8v-2.5c0-0.2,0-0.3,0-0.5c0-0.1-0.1-0.3-0.1-0.4c-0.1-0.1-0.1-0.2-0.3-0.3c-0.1-0.1-0.3-0.1-0.5-0.1
		c-0.2,0-0.3,0-0.5,0.1c-0.1,0.1-0.2,0.2-0.3,0.3c-0.1,0.1-0.1,0.2-0.1,0.4c0,0.1,0,0.3,0,0.5v2.5H279v-2.5c0-0.1,0-0.3,0-0.4
		c0-0.1-0.1-0.3-0.1-0.4c-0.1-0.1-0.1-0.2-0.3-0.3c-0.1-0.1-0.3-0.1-0.4-0.1s-0.3,0-0.5,0.1c-0.1,0.1-0.2,0.2-0.3,0.3
		c-0.1,0.1-0.1,0.2-0.2,0.4c0,0.1,0,0.3,0,0.5v2.5H276v-3c0-0.3,0-0.5,0-0.8s0-0.5,0-0.8h1.3l0,0.7c0.2-0.3,0.4-0.5,0.6-0.6
		c0.3-0.1,0.5-0.2,0.9-0.2c0.3,0,0.6,0.1,0.9,0.2c0.2,0.1,0.4,0.4,0.6,0.7c0.2-0.3,0.4-0.5,0.7-0.7s0.6-0.2,0.9-0.2
		c0.3,0,0.5,0,0.7,0.1s0.4,0.2,0.5,0.4c0.1,0.2,0.2,0.3,0.3,0.6c0.1,0.2,0.1,0.5,0.1,0.7v2.8H282.1z"/>
</g>
<g>
	<g transform="matrix(2,0,0,2,0,0)">
		<path class="st10" d="M105.5,28.6h-3.7c-0.2,0-0.4-0.2-0.4-0.4v-8.2c0-0.2,0.2-0.4,0.4-0.4h0.9"/>
		<path class="st10" d="M107.9,19.5h0.9c0.2,0,0.4,0.2,0.4,0.4v2.6"/>
		<path class="st10" d="M106.1,19.5c0-0.5-0.4-0.9-0.9-0.9c-0.5,0-0.9,0.4-0.9,0.9h-0.9v1.3h3.5v-1.3H106.1z"/>
		<path class="st10" d="M108.3,22.5v-1.9c0-0.1-0.1-0.2-0.2-0.2H107"/>
		<path class="st10" d="M103.6,20.4h-1.1c-0.1,0-0.2,0.1-0.2,0.2v6.9c0,0.1,0.1,0.2,0.2,0.2h3"/>
		<line class="st10" x1="103.6" y1="22.1" x2="107" y2="22.1"/>
		<line class="st10" x1="103.6" y1="23.4" x2="106.1" y2="23.4"/>
		<line class="st10" x1="103.6" y1="24.7" x2="105.3" y2="24.7"/>
		<circle class="st10" cx="108.7" cy="26" r="2.6"/>
	</g>
	<g>
		<path class="st5" d="M218,50.4c0-0.3-0.3-0.5-0.6-0.5c-0.3,0-0.6,0.2-0.8,0.4l-0.6-0.6c0.4-0.4,0.9-0.7,1.5-0.7
			c0.9,0,1.6,0.4,1.6,1.3c0,1-1.3,1.2-1.2,2.1h-1C216.8,51.3,218,51,218,50.4z M216.7,53.7c0-0.5,0.3-0.8,0.8-0.8s0.8,0.3,0.8,0.8
			s-0.3,0.8-0.8,0.8S216.7,54.1,216.7,53.7z"/>
	</g>
</g>
<path class="st11" d="M305.9,36.5v1.8h-10.1c-0.2,0-0.4,0.2-0.4,0.4v1.8h-2.6v-4c0-0.2,0.2-0.4,0.4-0.4h12.3
	C305.7,36.2,305.9,36.3,305.9,36.5z"/>
<path class="st11" d="M308.5,38.7v4.5h-5.1v-2.3c0-0.2-0.2-0.4-0.4-0.4h-7.5v-1.8c0-0.2,0.2-0.4,0.4-0.4h12.3
	C308.3,38.3,308.5,38.5,308.5,38.7z"/>
<path class="st11" d="M310.8,43.6v13.9c0,0.2-0.2,0.4-0.4,0.4h-21.5c-0.2,0-0.4-0.2-0.4-0.4V43.6c0-0.2,0.2-0.4,0.4-0.4h21.5
	C310.6,43.2,310.8,43.4,310.8,43.6z"/>
<path class="st11" d="M303.4,40.9v2.3h-13v-2.3c0-0.2,0.2-0.4,0.4-0.4H303C303.2,40.5,303.4,40.7,303.4,40.9z"/>
</svg>
