<?xml version="1.0" encoding="UTF-8"?>
<svg width="1194px" height="1194px" viewBox="0 0 1194 1194" version="1.1" xmlns="http://www.w3.org/2000/svg" xmlns:xlink="http://www.w3.org/1999/xlink">
    <title>office-work-wireless</title>
    <g id="Page-1" stroke="none" stroke-width="1" fill="none" fill-rule="evenodd" opacity="0.105957031" stroke-linecap="round" stroke-linejoin="round">
        <g id="Desktp-Startsite-2x" transform="translate(-123.000000, 132.000000)" stroke="#000000" stroke-width="39.2000002">
            <g id="office-work-wireless" transform="translate(143.000000, -112.000000)">
                <circle id="Oval" cx="226.240001" cy="125.440001" r="125.440001"></circle>
                <line x1="576.800002" y1="652.400003" x2="1127.84" y2="652.400003" id="Path"></line>
                <path d="M1153.6,276.640001 L1065.24007,519.197791 C1058.03022,538.975859 1039.20624,552.145268 1018.1248,552.160002 L777.280003,552.160002" id="Path"></path>
                <line x1="802.480003" y1="651.840003" x2="802.480003" y2="1153.6" id="Path"></line>
                <line x1="75.0400003" y1="878.080004" x2="0" y2="1153.6" id="Path"></line>
                <polyline id="Path" points="1.12 400.960002 76.1600003 876.960004 226.240001 876.960004"></polyline>
                <path d="M596.384003,1152.48 C566.279986,1152.50673 539.060978,1134.59158 527.200001,1106.94409 L446.986669,922.496187 C435.14004,894.882162 407.970524,876.973633 377.902935,876.960299 L226.400001,876.960299 C184.868188,876.960299 151.200001,843.318201 151.200001,801.818569 L151.200001,401.062677 C151.200001,369.616513 170.798449,341.496894 200.315042,330.589023 C229.831634,319.681152 263.023923,328.292338 283.501868,352.170458 L373.741868,457.36888 C397.574348,485.151277 432.374913,501.128831 468.995202,501.101367 L602.400003,501.101367 C643.931816,501.101367 677.600003,534.743465 677.600003,576.243097 C677.600003,617.742728 643.931816,651.384826 602.400003,651.384826 L469.045335,651.384826 C408.548904,651.446498 349.711157,631.626148 301.600001,594.978435 L301.600001,726.67684 L377.902935,726.67684 C468.177988,726.605927 549.779176,780.386282 585.254402,863.334599 L665.467736,1047.7324 C675.425385,1070.94328 673.048755,1097.59996 659.141686,1118.68642 C645.234618,1139.77289 621.657215,1152.46877 596.384003,1152.48 Z" id="Path"></path>
                <line x1="827.120004" y1="298.480001" x2="827.120004" y2="298.480001" id="Path"></line>
                <path d="M827.119953,298.200052 C820.161165,298.200052 814.519953,303.841264 814.519953,310.800052 C814.519953,317.75884 820.161165,323.400052 827.119953,323.400052 C834.078741,323.400052 839.719953,317.75884 839.719953,310.800052 C839.733417,307.454215 838.410245,304.241527 836.044362,301.875643 C833.678478,299.50976 830.46579,298.186588 827.119953,298.200052" id="Path"></path>
                <path d="M1028.16,71.6800003 C911.240111,-22.4000001 744.119896,-22.4000001 627.200003,71.6800003" id="Path"></path>
                <path d="M710.080003,192.71159 C778.348062,137.267352 875.891945,137.267352 944.160004,192.71159" id="Path"></path>
            </g>
        </g>
    </g>
</svg>