<?xml version="1.0" encoding="UTF-8"?>
<svg width="219px" height="252px" viewBox="0 0 219 252" version="1.1" xmlns="http://www.w3.org/2000/svg" xmlns:xlink="http://www.w3.org/1999/xlink">
    <title>Group 3</title>
    <g id="Desktop-/-Schüler" stroke="none" stroke-width="1" fill="none" fill-rule="evenodd">
        <g id="Startseite-Desktop-" transform="translate(-206.000000, -308.000000)">
            <g id="Container-Module" transform="translate(157.000000, 298.000000)">
                <g id="Group-3" transform="translate(49.000000, 10.000000)">
                    <g id="Group">
                        <g id="Modul-Icon" transform="translate(2.000000, 2.000000)">
                            <path d="M213.6655,192.5397 C213.6655,202.6307 205.4855,210.8107 195.3945,210.8107 L19.1845,210.8107 C15.6005,210.8107 12.0375,209.9077 9.0115,207.9877 C3.5535,204.5227 0.4205,198.5567 0.49996718,192.2977 L0.49996718,76.6297 C0.49996718,66.5307 8.6755,58.3367 18.7735,58.3097 L36.5615,58.3097 L197.7915,58.3097 C206.5595,58.3097 213.6655,65.4167 213.6655,74.1837 L213.6655,192.2977 L213.6655,186.2077 L213.6655,165.4227" id="Stroke-1" stroke="#000000" stroke-width="5" fill="#FFFFFF" stroke-linecap="round" stroke-linejoin="round"></path>
                            <path d="M195.395,210.810275 C205.466,210.810275 213.639,202.6602 213.666,192.5872 L213.666,186.2072 L0.499480263,186.2072 L0.499480263,192.3462 C0.438,197.2292 2.336,201.9342 5.771,205.4052 C9.207,208.8762 13.891,210.8242 18.774,210.810275 L195.395,210.810275 Z" id="Stroke-3" stroke="#000000" stroke-width="5" fill="#B9C2C6" stroke-linecap="round" stroke-linejoin="round"></path>
                            <polygon id="Stroke-5" stroke="#000000" stroke-width="5" fill="#DEE4E7" stroke-linecap="round" stroke-linejoin="round" points="125.3559 234.9782 88.8129 234.9782 91.8589 210.9782 122.3099 210.9782"></polygon>
                            <path d="M146.6713,247.111 L67.4973,247.111 C67.5243,240.403 72.9693,234.978 79.6783,234.978 L134.4903,234.978 C141.1993,234.978 146.6453,240.403 146.6713,247.111 Z" id="Stroke-7" stroke="#000000" stroke-width="5" fill="#DEE4E7" stroke-linecap="round" stroke-linejoin="round"></path>
                            <path d="M195.8696,140.5783 C195.8446,147.3023 190.4136,152.7543 183.6886,152.8073 L31.4306,152.8073 C24.7146,152.7803 19.2756,147.3423 19.2496,140.6263 L19.2496,37.0423 L195.8696,37.0423 L195.8696,140.5783 Z" id="Fill-9" fill="#DEE4E7"></path>
                            <g id="BH" transform="translate(81.000000, 48.000000)" stroke="#000000" stroke-linecap="round" stroke-linejoin="round">
                                <line x1="62.5" y1="39" x2="62.5" y2="21" id="Stroke-1" stroke-width="5"></line>
                                <line x1="29.5" y1="39" x2="29.5" y2="21" id="Stroke-2" stroke-width="5"></line>
                                <polygon id="Stroke-3" stroke-width="5" points="46 30 18 46 74 46"></polygon>
                                <line x1="25" y1="21.5" x2="68" y2="21.5" id="Stroke-4" stroke-width="6"></line>
                                <g id="Group-35">
                                    <path d="M49.4109238,6.62045455 L42.8611143,6.62045455 L42.8611143,3.33327273 C42.8611143,1.52509091 44.3345905,0.0507272727 46.136019,0.0507272727 C47.9374476,0.0507272727 49.4109238,1.52509091 49.4109238,3.33327273 L49.4109238,6.62045455 Z" id="Stroke-5" stroke-width="5"></path>
                                    <polyline id="Stroke-7" stroke-width="5" points="16.6761952 52.9094455 0.310909524 52.9094455 0.310909524 96.6813545 91.9620524 96.6813545 91.9620524 52.9094455 75.5967667 52.9094455"></polyline>
                                    <path d="M33.3347905,96.6808909 L33.3347905,87.1160727 C33.3347905,84.3249818 31.2054095,82.1876182 28.4247429,82.1876182 C25.6394571,82.1876182 23.5146952,84.3249818 23.5146952,87.1160727 L23.5146952,96.6808909" id="Stroke-9" stroke-width="5"></path>
                                    <path d="M51.810981,96.6808909 L51.810981,87.1160727 C51.810981,84.3249818 49.6816,82.1876182 46.9009333,82.1876182 C44.1202667,82.1876182 41.9908857,84.3249818 41.9908857,87.1160727 L41.9908857,96.6808909" id="Stroke-11" stroke-width="5"></path>
                                    <path d="M70.2871714,96.6808909 L70.2871714,87.1160727 C70.2871714,84.3249818 68.1577905,82.1876182 65.3771238,82.1876182 C62.5964571,82.1876182 60.4670762,84.3249818 60.4670762,87.1160727 L60.4670762,96.6808909" id="Stroke-13" stroke-width="5"></path>
                                    <line x1="10.4196952" y1="60.8329909" x2="10.4196952" y2="64.1155364" id="Stroke-15" stroke-width="5"></line>
                                    <line x1="83.0888619" y1="60.8329909" x2="83.0888619" y2="64.1155364" id="Stroke-17" stroke-width="5"></line>
                                    <line x1="10.7106952" y1="72.6232636" x2="81.5576476" y2="72.6232636" id="Stroke-19" stroke-width="5"></line>
                                    <line x1="23.0412429" y1="52.6173545" x2="23.0412429" y2="69.3360818" id="Stroke-21" stroke-width="5"></line>
                                    <line x1="32.2793381" y1="52.6173545" x2="32.2793381" y2="69.3360818" id="Stroke-23" stroke-width="5"></line>
                                    <line x1="41.5174333" y1="52.6173545" x2="41.5174333" y2="69.3360818" id="Stroke-25" stroke-width="5"></line>
                                    <line x1="69.231719" y1="52.6173545" x2="69.231719" y2="69.3360818" id="Stroke-27" stroke-width="5"></line>
                                    <line x1="59.9936238" y1="52.6173545" x2="59.9936238" y2="69.3360818" id="Stroke-29" stroke-width="5"></line>
                                    <line x1="50.7555286" y1="52.6173545" x2="50.7555286" y2="69.3360818" id="Stroke-31" stroke-width="5"></line>
                                    <path d="M29.0021238,20.4035 C31.3393619,11.8262273 38.1293619,5.62277273 46.1341714,5.62277273 C54.148219,5.62277273 60.938219,11.8262273 63.2708381,20.4035" id="Stroke-33" stroke-width="6"></path>
                                </g>
                            </g>
                            <path d="M195.8696,140.5783 C195.8446,147.3023 190.4136,152.7543 183.6886,152.8073 L31.4306,152.8073 C24.7146,152.7803 19.2756,147.3423 19.2496,140.6263 L19.2496,37.0423 L195.8696,37.0423 L195.8696,140.5783 Z" id="Stroke-11" stroke="#000000" stroke-width="5" stroke-linecap="round" stroke-linejoin="round"></path>
                            <path d="M195.8696,37.0422 L19.2496,37.0422 L19.2496,12.6322 C19.2756,5.9242 24.7226,0.5002 31.4306,0.5002 L183.6886,0.5002 C190.3876,0.5262 195.8166,5.9352 195.8696,12.6322 L195.8696,36.8002 L195.8696,37.0422 Z" id="Fill-13" fill="#ABB7BC"></path>
                            <path d="M195.8696,37.0422 L19.2496,37.0422 L19.2496,12.6322 C19.2756,5.9242 24.7226,0.5002 31.4306,0.5002 L183.6886,0.5002 C190.3876,0.5262 195.8166,5.9352 195.8696,12.6322 L195.8696,36.8002 L195.8696,37.0422 Z" id="Stroke-15" stroke="#000000" stroke-width="5" stroke-linecap="round" stroke-linejoin="round"></path>
                            <path d="M37.5209,12.6325 C40.0119,12.6125 42.2679,14.1015 43.2309,16.3995 C44.1939,18.6975 43.6709,21.3495 41.9099,23.1115 C40.1479,24.8735 37.4959,25.3955 35.1979,24.4325 C32.8989,23.4705 31.4109,21.2145 31.4299,18.7225 C31.4569,15.3695 34.1679,12.6585 37.5209,12.6325 Z" id="Stroke-17" stroke="#000000" stroke-width="5" stroke-linecap="round" stroke-linejoin="round"></path>
                            <path d="M61.8823,12.6325 C64.3733,12.6125 66.6303,14.1015 67.5923,16.3995 C68.5553,18.6975 68.0323,21.3495 66.2713,23.1115 C64.5093,24.8735 61.8573,25.3955 59.5593,24.4325 C57.2603,23.4705 55.7723,21.2145 55.7913,18.7225 C55.8183,15.3695 58.5293,12.6585 61.8823,12.6325 Z" id="Stroke-19" stroke="#000000" stroke-width="5" stroke-linecap="round" stroke-linejoin="round"></path>
                            <path d="M86.2436,12.6325 C88.7346,12.6125 90.9916,14.1015 91.9536,16.3995 C92.9166,18.6975 92.3936,21.3495 90.6326,23.1115 C88.8706,24.8735 86.2186,25.3955 83.9206,24.4325 C81.6226,23.4705 80.1336,21.2145 80.1526,18.7225 C80.1796,15.3695 82.8906,12.6585 86.2436,12.6325 Z" id="Stroke-21" stroke="#000000" stroke-width="5" stroke-linecap="round" stroke-linejoin="round"></path>
                            <path d="M61.8823,56.1349 C61.8823,58.8039 59.7183,60.9679 57.0483,60.9679 L42.5963,60.9679 C41.2733,61.0349 39.9803,60.5549 39.0212945,59.6409 C38.0613,58.7269 37.5193,57.4599 37.5212945,56.1349 L37.5212945,54.1049 C37.5193,52.7799 38.0613,51.5119 39.0212945,50.5979 C39.9803,49.6849 41.2733,49.2049 42.5963,49.2709 L56.8073,49.2709 C59.4763,49.2709 61.6403,51.4349 61.6403,54.1049 L61.8823,56.1349 Z" id="Stroke-35" stroke="#000000" stroke-width="5" stroke-linecap="round" stroke-linejoin="round"></path>
                            <line x1="37.5209" y1="73.5358" x2="61.8819" y2="73.5358" id="Stroke-39" stroke="#000000" stroke-width="5" stroke-linecap="round" stroke-linejoin="round"></line>
                            <line x1="37.5209" y1="85.7648" x2="61.8819" y2="85.7648" id="Stroke-41" stroke="#000000" stroke-width="5" stroke-linecap="round" stroke-linejoin="round"></line>
                            <line x1="37.5209" y1="97.9455" x2="61.8819" y2="97.9455" id="Stroke-43" stroke="#000000" stroke-width="5" stroke-linecap="round" stroke-linejoin="round"></line>
                            <line x1="37.5209" y1="110.0778" x2="61.8819" y2="110.0778" id="Stroke-45" stroke="#000000" stroke-width="5" stroke-linecap="round" stroke-linejoin="round"></line>
                            <line x1="37.5209" y1="122.2585" x2="61.8819" y2="122.2585" id="Stroke-47" stroke="#000000" stroke-width="5" stroke-linecap="round" stroke-linejoin="round"></line>
                            <line x1="37.5209" y1="134.4396" x2="52.7469" y2="134.4396" id="Stroke-49" stroke="#000000" stroke-width="5" stroke-linecap="round" stroke-linejoin="round"></line>
                            <path d="M107.0844,200.9499 C108.4724,200.9499 109.5984,199.8249 109.5984,198.4359 C109.5984,197.0489 108.4724,195.9229 107.0844,195.9229 C105.6954,195.9229 104.5704,197.0489 104.5704,198.4359 C104.5704,199.8249 105.6954,200.9499 107.0844,200.9499 Z" id="Stroke-51" stroke="#000000" stroke-width="5" stroke-linecap="round" stroke-linejoin="round"></path>
                        </g>
                        <path d="M168.864425,77.5059603 L168.864425,76.3933775 C168.864425,75.6516556 169.02115,75.0520971 169.334599,74.594702 C169.648048,74.1373068 170.394794,73.4697572 171.574837,72.592053 C173.295734,71.3558499 174.463485,70.2432671 175.078091,69.2543046 C175.692697,68.2653422 176,67.0909492 176,65.7311258 C176,63.6913907 175.253254,62.0596026 173.759761,60.8357616 C172.266269,59.6119205 170.253435,59 167.721258,59 C164.648228,59 161.741142,59.7726269 159,61.3178808 L159,61.3178808 L161.009761,65.3788079 C163.369848,64.1673289 165.4718,63.5615894 167.315618,63.5615894 C168.37274,63.5615894 169.196312,63.7717439 169.786334,64.192053 C170.376356,64.612362 170.671367,65.2242826 170.671367,66.0278146 C170.671367,66.7448124 170.465474,67.393819 170.053688,67.9748344 C169.641902,68.5558499 168.790672,69.3099338 167.5,70.2370861 C166.160159,71.2260486 165.23825,72.1593819 164.734273,73.0370861 C164.230296,73.9147903 163.978308,74.9470199 163.978308,76.1337748 L163.978308,76.1337748 L163.978308,77.5059603 L168.864425,77.5059603 Z M166.633406,87 C167.641359,87 168.428055,86.7187638 168.993492,86.1562914 C169.55893,85.593819 169.841649,84.8242826 169.841649,83.8476821 C169.841649,82.8339956 169.562003,82.0551876 169.002711,81.5112583 C168.44342,80.9673289 167.653651,80.6953642 166.633406,80.6953642 C165.576283,80.6953642 164.77115,80.9611479 164.218004,81.4927152 C163.664859,82.0242826 163.388286,82.8092715 163.388286,83.8476821 C163.388286,84.8490066 163.671005,85.6247241 164.236443,86.1748344 C164.80188,86.7249448 165.600868,87 166.633406,87 Z" id="?" fill="#D90000" fill-rule="nonzero" transform="translate(167.500000, 73.000000) rotate(-1.000000) translate(-167.500000, -73.000000) "></path>
                        <path d="M91.8644252,86.8450331 L91.8644252,85.7721854 C91.8644252,85.0569536 92.0211497,84.4788079 92.3345987,84.0377483 C92.6480477,83.5966887 93.3947939,82.9529801 94.5748373,82.1066225 C96.2957339,80.9145695 97.4634852,79.8417219 98.0780911,78.8880795 C98.692697,77.9344371 99,76.8019868 99,75.4907285 C99,73.5238411 98.2532538,71.9503311 96.7597614,70.7701987 C95.266269,69.5900662 93.2534346,69 90.7212581,69 C87.6482285,69 84.7411424,69.7450331 82,71.2350993 L82,71.2350993 L84.0097614,75.1509934 C86.3698482,73.9827815 88.4718004,73.3986755 90.3156182,73.3986755 C91.3727404,73.3986755 92.1963124,73.6013245 92.7863341,74.0066225 C93.3763557,74.4119205 93.6713666,75.0019868 93.6713666,75.7768212 C93.6713666,76.4682119 93.4654736,77.0940397 93.0536876,77.6543046 C92.6419017,78.2145695 91.7906725,78.9417219 90.5,79.8357616 C89.1601591,80.789404 88.2382502,81.689404 87.7342733,82.5357616 C87.2302965,83.3821192 86.978308,84.3774834 86.978308,85.5218543 L86.978308,85.5218543 L86.978308,86.8450331 L91.8644252,86.8450331 Z M89.6334056,96 C90.6413594,96 91.428055,95.7288079 91.9934924,95.1864238 C92.5589299,94.6440397 92.8416486,93.9019868 92.8416486,92.9602649 C92.8416486,91.9827815 92.5620029,91.2317881 92.0027115,90.7072848 C91.4434201,90.1827815 90.6536515,89.9205298 89.6334056,89.9205298 C88.5762834,89.9205298 87.7711497,90.1768212 87.2180043,90.689404 C86.664859,91.2019868 86.3882863,91.9589404 86.3882863,92.9602649 C86.3882863,93.9258278 86.6710051,94.6738411 87.2364425,95.2043046 C87.80188,95.7347682 88.6008677,96 89.6334056,96 Z" id="?" fill="#2EBA09" fill-rule="nonzero"></path>
                    </g>
                    <path d="M61.496,177.192 C61.9333333,177.192 62.3813333,177.12 62.84,176.976 C63.2986667,176.832 63.7253333,176.589333 64.12,176.248 L64.12,176.248 L63.192,174.712 C62.9786667,174.872 62.752,175.008 62.512,175.12 C62.272,175.232 62.024,175.288 61.768,175.288 C61.256,175.288 60.832,175.085333 60.496,174.68 C60.16,174.274667 59.992,173.725333 59.992,173.032 C59.992,172.338667 60.1573333,171.789333 60.488,171.384 C60.8186667,170.978667 61.272,170.776 61.848,170.776 C62.1893333,170.776 62.5466667,170.930667 62.92,171.24 L62.92,171.24 L64.024,169.72 C63.7253333,169.474667 63.3866667,169.272 63.008,169.112 C62.6293333,168.952 62.1946667,168.872 61.704,168.872 C61.16,168.872 60.6373333,168.965333 60.136,169.152 C59.6346667,169.338667 59.1946667,169.608 58.816,169.96 C58.4373333,170.312 58.136,170.746667 57.912,171.264 C57.688,171.781333 57.576,172.370667 57.576,173.032 C57.576,173.693333 57.6773333,174.282667 57.88,174.8 C58.0826667,175.317333 58.36,175.752 58.712,176.104 C59.064,176.456 59.4773333,176.725333 59.952,176.912 C60.4266667,177.098667 60.9413333,177.192 61.496,177.192 Z M68.92,177.192 C69.4213333,177.192 69.904,177.098667 70.368,176.912 C70.832,176.725333 71.2426667,176.456 71.6,176.104 C71.9573333,175.752 72.2426667,175.317333 72.456,174.8 C72.6693333,174.282667 72.776,173.693333 72.776,173.032 C72.776,172.370667 72.6693333,171.781333 72.456,171.264 C72.2426667,170.746667 71.9573333,170.312 71.6,169.96 C71.2426667,169.608 70.832,169.338667 70.368,169.152 C69.904,168.965333 69.4213333,168.872 68.92,168.872 C68.4186667,168.872 67.9333333,168.965333 67.464,169.152 C66.9946667,169.338667 66.5813333,169.608 66.224,169.96 C65.8666667,170.312 65.5813333,170.746667 65.368,171.264 C65.1546667,171.781333 65.048,172.370667 65.048,173.032 C65.048,173.693333 65.1546667,174.282667 65.368,174.8 C65.5813333,175.317333 65.8666667,175.752 66.224,176.104 C66.5813333,176.456 66.9946667,176.725333 67.464,176.912 C67.9333333,177.098667 68.4186667,177.192 68.92,177.192 Z M68.92,175.288 C68.4293333,175.288 68.064,175.085333 67.824,174.68 C67.584,174.274667 67.464,173.725333 67.464,173.032 C67.464,172.338667 67.584,171.789333 67.824,171.384 C68.064,170.978667 68.4293333,170.776 68.92,170.776 C69.4,170.776 69.7626667,170.978667 70.008,171.384 C70.2533333,171.789333 70.376,172.338667 70.376,173.032 C70.376,173.725333 70.2533333,174.274667 70.008,174.68 C69.7626667,175.085333 69.4,175.288 68.92,175.288 Z M76.744,177 L76.744,171.64 C77.2346667,171.128 77.6826667,170.872 78.088,170.872 C78.4293333,170.872 78.6773333,170.978667 78.832,171.192 C78.9866667,171.405333 79.064,171.8 79.064,172.376 L79.064,172.376 L79.064,177 L81.416,177 L81.416,171.64 C81.928,171.128 82.3813333,170.872 82.776,170.872 C83.1173333,170.872 83.3653333,170.978667 83.52,171.192 C83.6746667,171.405333 83.752,171.8 83.752,172.376 L83.752,172.376 L83.752,177 L86.104,177 L86.104,172.072 C86.104,171.08 85.904,170.298667 85.504,169.728 C85.104,169.157333 84.4773333,168.872 83.624,168.872 C83.0906667,168.872 82.6293333,169.002667 82.24,169.264 C81.8506667,169.525333 81.48,169.837333 81.128,170.2 C80.9253333,169.773333 80.6506667,169.445333 80.304,169.216 C79.9573333,168.986667 79.5013333,168.872 78.936,168.872 C78.4133333,168.872 77.9653333,168.992 77.592,169.232 C77.2186667,169.472 76.8666667,169.757333 76.536,170.088 L76.536,170.088 L76.472,170.088 L76.312,169.064 L74.392,169.064 L74.392,177 L76.744,177 Z M89.272,167.896 C89.6773333,167.896 90.0053333,167.781333 90.256,167.552 C90.5066667,167.322667 90.632,167.026667 90.632,166.664 C90.632,166.301333 90.5066667,166.008 90.256,165.784 C90.0053333,165.56 89.6773333,165.448 89.272,165.448 C88.8773333,165.448 88.552,165.56 88.296,165.784 C88.04,166.008 87.912,166.301333 87.912,166.664 C87.912,167.026667 88.04,167.322667 88.296,167.552 C88.552,167.781333 88.8773333,167.896 89.272,167.896 Z M90.456,177 L90.456,169.064 L88.104,169.064 L88.104,177 L90.456,177 Z M94.872,177 L94.872,171.64 C95.128,171.394667 95.3626667,171.205333 95.576,171.072 C95.7893333,170.938667 96.0453333,170.872 96.344,170.872 C96.6853333,170.872 96.9333333,170.978667 97.088,171.192 C97.2426667,171.405333 97.32,171.8 97.32,172.376 L97.32,172.376 L97.32,177 L99.672,177 L99.672,172.072 C99.672,171.069333 99.4773333,170.285333 99.088,169.72 C98.6986667,169.154667 98.072,168.872 97.208,168.872 C96.664,168.872 96.1893333,168.992 95.784,169.232 C95.3786667,169.472 95.0053333,169.752 94.664,170.072 L94.664,170.072 L94.6,170.072 L94.44,169.064 L92.52,169.064 L92.52,177 L94.872,177 Z M104.504,180.376 C105.186667,180.376 105.8,180.304 106.344,180.16 C106.888,180.016 107.352,179.818667 107.736,179.568 C108.12,179.317333 108.416,179.018667 108.624,178.672 C108.832,178.325333 108.936,177.944 108.936,177.528 C108.936,176.813333 108.677333,176.298667 108.16,175.984 C107.642667,175.669333 106.893333,175.512 105.912,175.512 L105.912,175.512 L104.632,175.512 C104.184,175.512 103.872,175.464 103.696,175.368 C103.52,175.272 103.432,175.122667 103.432,174.92 C103.432,174.781333 103.453333,174.669333 103.496,174.584 C103.538667,174.498667 103.613333,174.413333 103.72,174.328 C104.050667,174.434667 104.370667,174.488 104.68,174.488 C105.117333,174.488 105.525333,174.434667 105.904,174.328 C106.282667,174.221333 106.613333,174.058667 106.896,173.84 C107.178667,173.621333 107.4,173.344 107.56,173.008 C107.72,172.672 107.8,172.274667 107.8,171.816 C107.8,171.602667 107.776,171.405333 107.728,171.224 C107.68,171.042667 107.618667,170.893333 107.544,170.776 L107.544,170.776 L108.808,170.776 L108.808,169.064 L105.912,169.064 C105.56,168.936 105.149333,168.872 104.68,168.872 C104.253333,168.872 103.842667,168.930667 103.448,169.048 C103.053333,169.165333 102.704,169.344 102.4,169.584 C102.096,169.824 101.853333,170.122667 101.672,170.48 C101.490667,170.837333 101.4,171.256 101.4,171.736 C101.4,172.205333 101.509333,172.618667 101.728,172.976 C101.946667,173.333333 102.194667,173.608 102.472,173.8 L102.472,173.8 L102.472,173.864 C102.216,174.045333 102.002667,174.266667 101.832,174.528 C101.661333,174.789333 101.576,175.064 101.576,175.352 C101.576,175.682667 101.645333,175.954667 101.784,176.168 C101.922667,176.381333 102.098667,176.557333 102.312,176.696 L102.312,176.696 L102.312,176.76 C101.554667,177.186667 101.176,177.72 101.176,178.36 C101.176,178.712 101.261333,179.016 101.432,179.272 C101.602667,179.528 101.84,179.736 102.144,179.896 C102.448,180.056 102.8,180.176 103.2,180.256 C103.6,180.336 104.034667,180.376 104.504,180.376 Z M104.68,173.064 C104.370667,173.064 104.112,172.954667 103.904,172.736 C103.696,172.517333 103.592,172.184 103.592,171.736 C103.592,171.309333 103.696,170.989333 103.904,170.776 C104.112,170.562667 104.370667,170.456 104.68,170.456 C104.989333,170.456 105.248,170.565333 105.456,170.784 C105.664,171.002667 105.768,171.32 105.768,171.736 C105.768,172.184 105.664,172.517333 105.456,172.736 C105.248,172.954667 104.989333,173.064 104.68,173.064 Z M104.872,178.904 C104.338667,178.904 103.912,178.826667 103.592,178.672 C103.272,178.517333 103.112,178.290667 103.112,177.992 C103.112,177.725333 103.256,177.464 103.544,177.208 C103.672,177.24 103.821333,177.264 103.992,177.28 C104.162667,177.296 104.386667,177.304 104.664,177.304 L105.48,177.304 C105.874667,177.304 106.176,177.346667 106.384,177.432 C106.592,177.517333 106.696,177.682667 106.696,177.928 C106.696,178.205333 106.525333,178.437333 106.184,178.624 C105.842667,178.810667 105.405333,178.904 104.872,178.904 Z M115.752,177.192 C116.285333,177.192 116.754667,177.125333 117.16,176.992 C117.565333,176.858667 117.906667,176.677333 118.184,176.448 C118.461333,176.218667 118.669333,175.949333 118.808,175.64 C118.946667,175.330667 119.016,174.994667 119.016,174.632 C119.016,174.269333 118.952,173.957333 118.824,173.696 C118.696,173.434667 118.528,173.213333 118.32,173.032 C118.112,172.850667 117.882667,172.698667 117.632,172.576 C117.381333,172.453333 117.128,172.344 116.872,172.248 C116.669333,172.173333 116.474667,172.101333 116.288,172.032 C116.101333,171.962667 115.936,171.890667 115.792,171.816 C115.648,171.741333 115.533333,171.658667 115.448,171.568 C115.362667,171.477333 115.32,171.368 115.32,171.24 C115.32,170.824 115.618667,170.616 116.216,170.616 C116.493333,170.616 116.770667,170.674667 117.048,170.792 C117.325333,170.909333 117.608,171.074667 117.896,171.288 L117.896,171.288 L118.952,169.88 C118.610667,169.624 118.210667,169.392 117.752,169.184 C117.293333,168.976 116.76,168.872 116.152,168.872 C115.693333,168.872 115.277333,168.933333 114.904,169.056 C114.530667,169.178667 114.210667,169.346667 113.944,169.56 C113.677333,169.773333 113.472,170.034667 113.328,170.344 C113.184,170.653333 113.112,170.989333 113.112,171.352 C113.112,171.682667 113.176,171.973333 113.304,172.224 C113.432,172.474667 113.597333,172.693333 113.8,172.88 C114.002667,173.066667 114.226667,173.224 114.472,173.352 C114.717333,173.48 114.962667,173.592 115.208,173.688 C115.410667,173.773333 115.608,173.850667 115.8,173.92 C115.992,173.989333 116.165333,174.066667 116.32,174.152 C116.474667,174.237333 116.597333,174.330667 116.688,174.432 C116.778667,174.533333 116.824,174.648 116.824,174.776 C116.824,174.989333 116.744,175.154667 116.584,175.272 C116.424,175.389333 116.168,175.448 115.816,175.448 C115.474667,175.448 115.138667,175.378667 114.808,175.24 C114.477333,175.101333 114.130667,174.893333 113.768,174.616 L113.768,174.616 L112.712,176.088 C113.117333,176.418667 113.594667,176.685333 114.144,176.888 C114.693333,177.090667 115.229333,177.192 115.752,177.192 Z M123.912,177.192 C124.413333,177.192 124.896,177.098667 125.36,176.912 C125.824,176.725333 126.234667,176.456 126.592,176.104 C126.949333,175.752 127.234667,175.317333 127.448,174.8 C127.661333,174.282667 127.768,173.693333 127.768,173.032 C127.768,172.370667 127.661333,171.781333 127.448,171.264 C127.234667,170.746667 126.949333,170.312 126.592,169.96 C126.234667,169.608 125.824,169.338667 125.36,169.152 C124.896,168.965333 124.413333,168.872 123.912,168.872 C123.410667,168.872 122.925333,168.965333 122.456,169.152 C121.986667,169.338667 121.573333,169.608 121.216,169.96 C120.858667,170.312 120.573333,170.746667 120.36,171.264 C120.146667,171.781333 120.04,172.370667 120.04,173.032 C120.04,173.693333 120.146667,174.282667 120.36,174.8 C120.573333,175.317333 120.858667,175.752 121.216,176.104 C121.573333,176.456 121.986667,176.725333 122.456,176.912 C122.925333,177.098667 123.410667,177.192 123.912,177.192 Z M123.912,175.288 C123.421333,175.288 123.056,175.085333 122.816,174.68 C122.576,174.274667 122.456,173.725333 122.456,173.032 C122.456,172.338667 122.576,171.789333 122.816,171.384 C123.056,170.978667 123.421333,170.776 123.912,170.776 C124.392,170.776 124.754667,170.978667 125,171.384 C125.245333,171.789333 125.368,172.338667 125.368,173.032 C125.368,173.725333 125.245333,174.274667 125,174.68 C124.754667,175.085333 124.392,175.288 123.912,175.288 Z M132.792,177.192 C133.293333,177.192 133.776,177.098667 134.24,176.912 C134.704,176.725333 135.114667,176.456 135.472,176.104 C135.829333,175.752 136.114667,175.317333 136.328,174.8 C136.541333,174.282667 136.648,173.693333 136.648,173.032 C136.648,172.370667 136.541333,171.781333 136.328,171.264 C136.114667,170.746667 135.829333,170.312 135.472,169.96 C135.114667,169.608 134.704,169.338667 134.24,169.152 C133.776,168.965333 133.293333,168.872 132.792,168.872 C132.290667,168.872 131.805333,168.965333 131.336,169.152 C130.866667,169.338667 130.453333,169.608 130.096,169.96 C129.738667,170.312 129.453333,170.746667 129.24,171.264 C129.026667,171.781333 128.92,172.370667 128.92,173.032 C128.92,173.693333 129.026667,174.282667 129.24,174.8 C129.453333,175.317333 129.738667,175.752 130.096,176.104 C130.453333,176.456 130.866667,176.725333 131.336,176.912 C131.805333,177.098667 132.290667,177.192 132.792,177.192 Z M132.792,175.288 C132.301333,175.288 131.936,175.085333 131.696,174.68 C131.456,174.274667 131.336,173.725333 131.336,173.032 C131.336,172.338667 131.456,171.789333 131.696,171.384 C131.936,170.978667 132.301333,170.776 132.792,170.776 C133.272,170.776 133.634667,170.978667 133.88,171.384 C134.125333,171.789333 134.248,172.338667 134.248,173.032 C134.248,173.725333 134.125333,174.274667 133.88,174.68 C133.634667,175.085333 133.272,175.288 132.792,175.288 Z M140.616,177 L140.616,171.64 C140.872,171.394667 141.106667,171.205333 141.32,171.072 C141.533333,170.938667 141.789333,170.872 142.088,170.872 C142.429333,170.872 142.677333,170.978667 142.832,171.192 C142.986667,171.405333 143.064,171.8 143.064,172.376 L143.064,172.376 L143.064,177 L145.416,177 L145.416,172.072 C145.416,171.069333 145.221333,170.285333 144.832,169.72 C144.442667,169.154667 143.816,168.872 142.952,168.872 C142.408,168.872 141.933333,168.992 141.528,169.232 C141.122667,169.472 140.749333,169.752 140.408,170.072 L140.408,170.072 L140.344,170.072 L140.184,169.064 L138.264,169.064 L138.264,177 L140.616,177 Z M149.864,173.304 L150.2,168.408 L150.28,166.28 L147.912,166.28 L147.992,168.408 L148.328,173.304 L149.864,173.304 Z M149.096,177.192 C149.501333,177.192 149.84,177.050667 150.112,176.768 C150.384,176.485333 150.52,176.136 150.52,175.72 C150.52,175.293333 150.384,174.938667 150.112,174.656 C149.84,174.373333 149.501333,174.232 149.096,174.232 C148.690667,174.232 148.352,174.373333 148.08,174.656 C147.808,174.938667 147.672,175.293333 147.672,175.72 C147.672,176.136 147.808,176.485333 148.08,176.768 C148.352,177.050667 148.690667,177.192 149.096,177.192 Z" id="comingsoon!" fill="#DB2A1B" fill-rule="nonzero"></path>
                </g>
            </g>
        </g>
    </g>
</svg>