<?xml version="1.0" encoding="utf-8"?>
<!-- Generator: Adobe Illustrator 26.2.1, SVG Export Plug-In . SVG Version: 6.00 Build 0)  -->
<svg version="1.1" id="Ebene_1" xmlns="http://www.w3.org/2000/svg" xmlns:xlink="http://www.w3.org/1999/xlink" x="0px" y="0px"
	 viewBox="0 0 435.5 162.7" style="enable-background:new 0 0 435.5 162.7;" xml:space="preserve">
<style type="text/css">
	.st0{fill:none;stroke:#181716;stroke-width:1.0459;stroke-linecap:round;stroke-linejoin:round;}
	.st1{fill:none;stroke:#181716;stroke-width:1.0459;stroke-linecap:round;stroke-linejoin:round;stroke-dasharray:12.5052,12.5052;}
	.st2{fill:none;stroke:#181716;stroke-width:1.0459;stroke-linecap:round;stroke-linejoin:round;stroke-dasharray:13.5572,13.5572;}
	.st3{fill:url(#SVGID_1_);}
	.st4{fill:#99A5A7;}
	.st5{fill:#FFFFFF;}
	.st6{fill:#D99827;}
	.st7{fill:#181716;}
</style>
<g>
	<g>
		<polyline class="st0" points="435,155.9 435,162.2 428.7,162.2 		"/>
		<line class="st1" x1="416.2" y1="162.2" x2="97.4" y2="162.2"/>
		<polyline class="st0" points="91.1,162.2 84.8,162.2 84.8,155.9 		"/>
		<line class="st2" x1="84.8" y1="142.4" x2="84.8" y2="13.6"/>
		<polyline class="st0" points="84.8,6.8 84.8,0.5 91.1,0.5 		"/>
		<line class="st1" x1="103.6" y1="0.5" x2="422.5" y2="0.5"/>
		<polyline class="st0" points="428.7,0.5 435,0.5 435,6.8 		"/>
		<line class="st2" x1="435" y1="20.4" x2="435" y2="149.1"/>
	</g>
</g>
<linearGradient id="SVGID_1_" gradientUnits="userSpaceOnUse" x1="0" y1="55.3406" x2="423.2691" y2="55.3406">
	<stop  offset="0" style="stop-color:#2B559F"/>
	<stop  offset="1" style="stop-color:#309E4D"/>
</linearGradient>
<path class="st3" d="M67.4,75.2h-64c-1.9,0-3.4-1.5-3.4-3.4V38.9c0-1.9,1.5-3.4,3.4-3.4h64c1.9,0,3.4,1.5,3.4,3.4v32.8
	C70.9,73.7,69.3,75.2,67.4,75.2z M159,71.8V38.9c0-1.9-1.5-3.4-3.4-3.4h-64c-1.9,0-3.4,1.5-3.4,3.4v32.8c0,1.9,1.5,3.4,3.4,3.4h64
	C157.4,75.2,159,73.7,159,71.8z M247.1,71.8V38.9c0-1.9-1.5-3.4-3.4-3.4h-64c-1.9,0-3.4,1.5-3.4,3.4v32.8c0,1.9,1.5,3.4,3.4,3.4h64
	C245.5,75.2,247.1,73.7,247.1,71.8z M335.2,71.8V38.9c0-1.9-1.5-3.4-3.4-3.4h-64c-1.9,0-3.4,1.5-3.4,3.4v32.8c0,1.9,1.5,3.4,3.4,3.4
	h64C333.6,75.2,335.2,73.7,335.2,71.8z M423.3,71.8V38.9c0-1.9-1.5-3.4-3.4-3.4h-64c-1.9,0-3.4,1.5-3.4,3.4v32.8
	c0,1.9,1.5,3.4,3.4,3.4h64C421.7,75.2,423.3,73.7,423.3,71.8z"/>
<path class="st4" d="M116.4,137.2H5.3c-2.6,0-4.7-2.1-4.7-4.7v-30.3c0-2.6,2.1-4.7,4.7-4.7h111.1c2.6,0,4.7,2.1,4.7,4.7v30.3
	C121.1,135.1,119,137.2,116.4,137.2z"/>
<path class="st4" d="M209.7,137.2H132c-2.2,0-4-1.8-4-4v-31.7c0-2.2,1.8-4,4-4h77.6c2.2,0,4,1.8,4,4v31.7
	C213.6,135.4,211.9,137.2,209.7,137.2z"/>
<path class="st4" d="M302.1,137.2h-77.6c-2.2,0-4-1.8-4-4v-31.7c0-2.2,1.8-4,4-4h77.6c2.2,0,4,1.8,4,4v31.7
	C306.1,135.4,304.3,137.2,302.1,137.2z"/>
<g>
	<path class="st5" d="M20.4,58.7H19l-1.1-4.1l-1.1,4.1h-1.3L14,53.6h1.2l1,4.1l1.1-4.1h1.3l1.1,4.1l1-4.1h1.1L20.4,58.7z"/>
	<path class="st5" d="M22.1,54.4v-0.8h1.1v0.8H22.1z M22.1,58.7v-3.5h1v3.5H22.1z"/>
	<path class="st5" d="M24.2,58.7v-5.1h1v5.1H24.2z"/>
	<path class="st5" d="M28.6,58.7l0-0.5c-0.2,0.2-0.3,0.3-0.5,0.4c-0.2,0.1-0.4,0.1-0.6,0.1c-0.3,0-0.5,0-0.7-0.1
		c-0.2-0.1-0.4-0.2-0.5-0.4s-0.2-0.4-0.3-0.6c-0.1-0.2-0.1-0.5-0.1-0.7c0-0.2,0-0.4,0.1-0.7c0.1-0.2,0.1-0.4,0.3-0.6
		c0.1-0.2,0.3-0.3,0.5-0.4s0.4-0.2,0.7-0.2c0.2,0,0.5,0,0.6,0.1c0.2,0.1,0.3,0.2,0.5,0.4v-2h1v4.1c0,0.2,0,0.3,0,0.5
		c0,0.2,0,0.3,0,0.5H28.6z M28.6,56.9c0-0.1,0-0.3,0-0.4c0-0.1-0.1-0.3-0.1-0.4c-0.1-0.1-0.2-0.2-0.3-0.3c-0.1-0.1-0.2-0.1-0.4-0.1
		c-0.2,0-0.3,0-0.4,0.1c-0.1,0.1-0.2,0.2-0.2,0.3c-0.1,0.1-0.1,0.2-0.1,0.4s0,0.3,0,0.4c0,0.1,0,0.3,0,0.4s0.1,0.3,0.1,0.4
		s0.1,0.2,0.3,0.3c0.1,0.1,0.2,0.1,0.4,0.1c0.2,0,0.3,0,0.4-0.1c0.1-0.1,0.2-0.2,0.2-0.3c0.1-0.1,0.1-0.2,0.1-0.4
		C28.6,57.1,28.6,57,28.6,56.9z"/>
	<path class="st5" d="M31.4,57.1c0,0.1,0,0.3,0,0.4c0,0.1,0.1,0.2,0.1,0.3s0.1,0.2,0.3,0.2c0.1,0.1,0.2,0.1,0.4,0.1
		c0.4,0,0.7-0.2,0.7-0.6h1c0,0.2-0.1,0.4-0.2,0.6s-0.2,0.3-0.4,0.4c-0.2,0.1-0.3,0.2-0.5,0.2s-0.4,0.1-0.6,0.1c-0.6,0-1-0.2-1.3-0.5
		c-0.3-0.3-0.5-0.7-0.5-1.3c0-0.6,0.2-1.1,0.5-1.4c0.3-0.3,0.8-0.5,1.4-0.5c0.2,0,0.3,0,0.5,0.1s0.3,0.1,0.4,0.2s0.3,0.2,0.4,0.3
		s0.2,0.3,0.3,0.4c0.1,0.2,0.1,0.4,0.1,0.5c0,0.2,0,0.4,0,0.6H31.4z M32.9,56.5c0-0.3-0.1-0.5-0.2-0.6c-0.1-0.2-0.3-0.2-0.6-0.2
		c-0.3,0-0.4,0.1-0.6,0.2c-0.1,0.2-0.2,0.4-0.2,0.6H32.9z"/>
	<path class="st5" d="M37,58.7v-5.1h1.1v5.1H37z"/>
	<path class="st5" d="M41.6,58.7l0-0.5c-0.2,0.2-0.3,0.3-0.5,0.4c-0.2,0.1-0.4,0.1-0.6,0.1c-0.3,0-0.5,0-0.7-0.1
		c-0.2-0.1-0.4-0.2-0.5-0.4s-0.2-0.4-0.3-0.6c-0.1-0.2-0.1-0.5-0.1-0.7c0-0.2,0-0.4,0.1-0.7c0.1-0.2,0.1-0.4,0.3-0.6
		c0.1-0.2,0.3-0.3,0.5-0.4s0.4-0.2,0.7-0.2c0.2,0,0.5,0,0.6,0.1c0.2,0.1,0.3,0.2,0.5,0.4v-2h1v4.1c0,0.2,0,0.3,0,0.5
		c0,0.2,0,0.3,0,0.5H41.6z M41.6,56.9c0-0.1,0-0.3,0-0.4c0-0.1-0.1-0.3-0.1-0.4c-0.1-0.1-0.2-0.2-0.3-0.3c-0.1-0.1-0.2-0.1-0.4-0.1
		c-0.2,0-0.3,0-0.4,0.1c-0.1,0.1-0.2,0.2-0.2,0.3C40,56.2,40,56.3,40,56.5s0,0.3,0,0.4c0,0.1,0,0.3,0,0.4s0.1,0.3,0.1,0.4
		s0.1,0.2,0.3,0.3c0.1,0.1,0.2,0.1,0.4,0.1c0.2,0,0.3,0,0.4-0.1c0.1-0.1,0.2-0.2,0.2-0.3c0.1-0.1,0.1-0.2,0.1-0.4
		C41.6,57.1,41.6,57,41.6,56.9z"/>
	<path class="st5" d="M44.3,57.1c0,0.1,0,0.3,0,0.4c0,0.1,0.1,0.2,0.1,0.3s0.1,0.2,0.3,0.2c0.1,0.1,0.2,0.1,0.4,0.1
		c0.4,0,0.7-0.2,0.7-0.6h1c0,0.2-0.1,0.4-0.2,0.6s-0.2,0.3-0.4,0.4c-0.2,0.1-0.3,0.2-0.5,0.2s-0.4,0.1-0.6,0.1c-0.6,0-1-0.2-1.3-0.5
		c-0.3-0.3-0.5-0.7-0.5-1.3c0-0.6,0.2-1.1,0.5-1.4c0.3-0.3,0.8-0.5,1.4-0.5c0.2,0,0.3,0,0.5,0.1s0.3,0.1,0.4,0.2s0.3,0.2,0.4,0.3
		s0.2,0.3,0.3,0.4c0.1,0.2,0.1,0.4,0.1,0.5c0,0.2,0,0.4,0,0.6H44.3z M45.9,56.5c0-0.3-0.1-0.5-0.2-0.6c-0.1-0.2-0.3-0.2-0.6-0.2
		c-0.3,0-0.4,0.1-0.6,0.2c-0.1,0.2-0.2,0.4-0.2,0.6H45.9z"/>
	<path class="st5" d="M48.4,57.1c0,0.1,0,0.3,0,0.4c0,0.1,0.1,0.2,0.1,0.3s0.1,0.2,0.3,0.2c0.1,0.1,0.2,0.1,0.4,0.1
		c0.4,0,0.7-0.2,0.7-0.6h1c0,0.2-0.1,0.4-0.2,0.6s-0.2,0.3-0.4,0.4c-0.2,0.1-0.3,0.2-0.5,0.2s-0.4,0.1-0.6,0.1c-0.6,0-1-0.2-1.3-0.5
		c-0.3-0.3-0.5-0.7-0.5-1.3c0-0.6,0.2-1.1,0.5-1.4c0.3-0.3,0.8-0.5,1.4-0.5c0.2,0,0.3,0,0.5,0.1s0.3,0.1,0.4,0.2s0.3,0.2,0.4,0.3
		s0.2,0.3,0.3,0.4c0.1,0.2,0.1,0.4,0.1,0.5c0,0.2,0,0.4,0,0.6H48.4z M50,56.5c0-0.3-0.1-0.5-0.2-0.6c-0.1-0.2-0.3-0.2-0.6-0.2
		c-0.3,0-0.4,0.1-0.6,0.2c-0.1,0.2-0.2,0.4-0.2,0.6H50z"/>
	<path class="st5" d="M54.1,58.7v-1.9c0-0.1,0-0.2,0-0.4c0-0.1,0-0.2-0.1-0.3c0-0.1-0.1-0.2-0.2-0.2c-0.1-0.1-0.2-0.1-0.4-0.1
		c-0.2,0-0.3,0-0.4,0.1c-0.1,0.1-0.2,0.2-0.2,0.3s-0.1,0.2-0.1,0.4c0,0.1,0,0.2,0,0.3v1.8h-1v-2.8c0-0.1,0-0.2,0-0.3
		c0-0.1,0-0.2,0-0.4h1l0,0.5c0.2-0.2,0.3-0.4,0.5-0.5s0.4-0.1,0.7-0.1c0.4,0,0.8,0.1,1,0.3c0.2,0.2,0.3,0.5,0.3,1v2.3H54.1z"/>
</g>
<g>
	<path class="st5" d="M104.4,58.7l-0.4-1.2h-2.2l-0.4,1.2h-1.1l2.1-5.1h1.2l2.1,5.1H104.4z M102.9,54.4l-0.8,2.4h1.7L102.9,54.4z"/>
	<path class="st5" d="M108.4,58.7l0-0.5c-0.2,0.2-0.3,0.4-0.5,0.5c-0.2,0.1-0.4,0.1-0.7,0.1c-0.4,0-0.8-0.1-1-0.3s-0.3-0.5-0.3-1
		v-2.3h1V57c0,0.1,0,0.2,0,0.4c0,0.1,0,0.2,0.1,0.3c0,0.1,0.1,0.2,0.2,0.2c0.1,0.1,0.2,0.1,0.4,0.1s0.3,0,0.4-0.1s0.2-0.1,0.2-0.3
		s0.1-0.2,0.1-0.3c0-0.1,0-0.3,0-0.4v-1.8h1v2.2c0,0.2,0,0.4,0,0.6c0,0.2,0,0.4,0,0.7H108.4z"/>
	<path class="st5" d="M113.4,57.6c0,0.2-0.1,0.4-0.2,0.6c-0.1,0.1-0.2,0.3-0.4,0.4c-0.2,0.1-0.3,0.2-0.5,0.2c-0.2,0-0.4,0.1-0.6,0.1
		c-0.2,0-0.4,0-0.6-0.1s-0.4-0.1-0.5-0.2c-0.1-0.1-0.3-0.2-0.3-0.4c-0.1-0.2-0.1-0.4-0.1-0.6h1c0,0.2,0.1,0.4,0.2,0.5
		c0.1,0.1,0.2,0.2,0.5,0.2c0.1,0,0.1,0,0.2,0c0.1,0,0.1,0,0.2-0.1c0.1,0,0.1-0.1,0.1-0.1c0-0.1,0.1-0.1,0.1-0.2
		c0-0.1-0.1-0.2-0.2-0.3c-0.1-0.1-0.3-0.1-0.5-0.2l-0.4-0.1c-0.1,0-0.3-0.1-0.4-0.1c-0.1,0-0.2-0.1-0.3-0.2
		c-0.1-0.1-0.2-0.2-0.2-0.3c-0.1-0.1-0.1-0.2-0.1-0.4c0-0.2,0-0.4,0.1-0.5c0.1-0.1,0.2-0.2,0.4-0.3s0.3-0.1,0.5-0.2
		c0.2,0,0.4,0,0.5,0c0.2,0,0.4,0,0.6,0.1c0.2,0,0.3,0.1,0.5,0.2s0.3,0.2,0.3,0.4s0.1,0.3,0.2,0.5h-1c0-0.2-0.1-0.3-0.1-0.4
		c-0.1-0.1-0.2-0.2-0.4-0.2c-0.1,0-0.1,0-0.2,0c-0.1,0-0.1,0-0.2,0.1c-0.1,0-0.1,0.1-0.1,0.1c0,0,0,0.1,0,0.2c0,0.1,0.1,0.2,0.2,0.3
		c0.1,0.1,0.3,0.1,0.5,0.2l0.4,0.1c0.1,0,0.3,0.1,0.4,0.1c0.1,0,0.2,0.1,0.4,0.2s0.2,0.2,0.2,0.3C113.4,57.3,113.4,57.4,113.4,57.6z
		"/>
	<path class="st5" d="M116.4,58.7c0-0.1,0-0.2-0.1-0.2c0-0.1,0-0.2,0-0.2c-0.1,0.2-0.3,0.4-0.5,0.4s-0.4,0.1-0.6,0.1
		c-0.2,0-0.3,0-0.5-0.1s-0.3-0.1-0.4-0.2c-0.1-0.1-0.2-0.2-0.3-0.3c-0.1-0.1-0.1-0.3-0.1-0.5c0-0.3,0.1-0.5,0.2-0.7
		c0.1-0.2,0.3-0.3,0.5-0.4s0.4-0.1,0.7-0.2c0.2,0,0.5,0,0.7,0h0.3v-0.1c0-0.1,0-0.2,0-0.3c0-0.1,0-0.2-0.1-0.2
		c0-0.1-0.1-0.1-0.2-0.2s-0.2-0.1-0.3-0.1c-0.2,0-0.3,0.1-0.4,0.2s-0.1,0.2-0.1,0.4h-1c0-0.2,0.1-0.4,0.1-0.5
		c0.1-0.1,0.2-0.3,0.4-0.3c0.2-0.1,0.3-0.1,0.5-0.2c0.2,0,0.4-0.1,0.6-0.1c0.2,0,0.5,0,0.6,0.1c0.2,0,0.4,0.1,0.5,0.2
		s0.2,0.2,0.3,0.4s0.1,0.4,0.1,0.7v1c0,0.2,0,0.4,0,0.6c0,0.2,0,0.4,0,0.6H116.4z M116.3,57c-0.1,0-0.1,0-0.1,0c0,0-0.1,0-0.1,0
		c-0.1,0-0.2,0-0.4,0c-0.1,0-0.2,0-0.4,0.1c-0.1,0-0.2,0.1-0.3,0.2c-0.1,0.1-0.1,0.2-0.1,0.3c0,0.2,0.1,0.3,0.2,0.4
		c0.1,0.1,0.2,0.1,0.4,0.1c0.2,0,0.3,0,0.4-0.1s0.2-0.2,0.2-0.3c0.1-0.1,0.1-0.2,0.1-0.4S116.3,57.2,116.3,57L116.3,57z"/>
	<path class="st5" d="M120.2,56c-0.3,0-0.6,0.1-0.7,0.3c-0.1,0.2-0.2,0.4-0.2,0.7v1.7h-1V56c0-0.1,0-0.3,0-0.4c0-0.1,0-0.3,0-0.4h1
		l0,0.7c0.1-0.2,0.3-0.4,0.4-0.5c0.2-0.1,0.4-0.2,0.7-0.2c0,0,0.1,0,0.1,0c0,0,0.1,0,0.1,0V56C120.4,56,120.3,56,120.2,56z"/>
	<path class="st5" d="M124.8,56.9c0,0.2,0,0.5-0.1,0.7s-0.2,0.4-0.3,0.6c-0.1,0.2-0.3,0.3-0.5,0.4s-0.4,0.2-0.7,0.2
		c-0.2,0-0.4,0-0.6-0.1c-0.2-0.1-0.3-0.2-0.5-0.4l0,0.5h-1c0-0.2,0-0.3,0-0.5c0-0.2,0-0.3,0-0.5v-4.1h1v2c0.1-0.2,0.3-0.3,0.5-0.4
		c0.2-0.1,0.4-0.1,0.6-0.1c0.3,0,0.5,0,0.7,0.1s0.4,0.2,0.5,0.4c0.1,0.2,0.2,0.4,0.3,0.6C124.7,56.4,124.8,56.6,124.8,56.9z
		 M123.7,56.9c0-0.1,0-0.3,0-0.4s-0.1-0.3-0.1-0.4c-0.1-0.1-0.1-0.2-0.2-0.3c-0.1-0.1-0.2-0.1-0.4-0.1c-0.2,0-0.3,0-0.4,0.1
		c-0.1,0.1-0.2,0.2-0.3,0.3c-0.1,0.1-0.1,0.2-0.1,0.4c0,0.1,0,0.3,0,0.4c0,0.1,0,0.3,0,0.4c0,0.1,0.1,0.3,0.1,0.4
		c0.1,0.1,0.1,0.2,0.2,0.3c0.1,0.1,0.2,0.1,0.4,0.1c0.2,0,0.3,0,0.4-0.1c0.1-0.1,0.2-0.2,0.3-0.3s0.1-0.2,0.1-0.4
		S123.7,57,123.7,56.9z"/>
	<path class="st5" d="M126.3,57.1c0,0.1,0,0.3,0,0.4c0,0.1,0.1,0.2,0.1,0.3s0.1,0.2,0.3,0.2c0.1,0.1,0.2,0.1,0.4,0.1
		c0.4,0,0.7-0.2,0.7-0.6h1c0,0.2-0.1,0.4-0.2,0.6s-0.2,0.3-0.4,0.4c-0.2,0.1-0.3,0.2-0.5,0.2s-0.4,0.1-0.6,0.1c-0.6,0-1-0.2-1.3-0.5
		c-0.3-0.3-0.5-0.7-0.5-1.3c0-0.6,0.2-1.1,0.5-1.4c0.3-0.3,0.8-0.5,1.4-0.5c0.2,0,0.3,0,0.5,0.1s0.3,0.1,0.4,0.2
		c0.1,0.1,0.3,0.2,0.4,0.3s0.2,0.3,0.3,0.4c0.1,0.2,0.1,0.4,0.1,0.5c0,0.2,0,0.4,0,0.6H126.3z M127.8,56.5c0-0.3-0.1-0.5-0.2-0.6
		c-0.1-0.2-0.3-0.2-0.6-0.2c-0.3,0-0.4,0.1-0.6,0.2c-0.1,0.2-0.2,0.4-0.2,0.6H127.8z"/>
	<path class="st5" d="M129.6,54.4v-0.8h1.1v0.8H129.6z M129.6,58.7v-3.5h1v3.5H129.6z"/>
	<path class="st5" d="M132.8,55.8v1.6c0,0.1,0,0.2,0,0.3c0,0.1,0,0.1,0.1,0.2c0,0,0.1,0.1,0.1,0.1s0.2,0,0.3,0c0.1,0,0.1,0,0.2,0
		s0.1,0,0.2,0v0.7c-0.1,0-0.2,0-0.4,0c-0.1,0-0.2,0-0.4,0c-0.2,0-0.3,0-0.5,0s-0.2-0.1-0.3-0.1c-0.1-0.1-0.2-0.2-0.2-0.3
		c0-0.1-0.1-0.3-0.1-0.5v-2h-0.7v-0.7h0.7v-0.6l1-0.4v1h0.8v0.7H132.8z"/>
	<path class="st5" d="M136.7,58.7l0-0.5c-0.2,0.2-0.3,0.4-0.5,0.5c-0.2,0.1-0.4,0.1-0.7,0.1c-0.4,0-0.8-0.1-1-0.3s-0.3-0.5-0.3-1
		v-2.3h1V57c0,0.1,0,0.2,0,0.4c0,0.1,0,0.2,0.1,0.3c0,0.1,0.1,0.2,0.2,0.2c0.1,0.1,0.2,0.1,0.4,0.1s0.3,0,0.4-0.1s0.2-0.1,0.2-0.3
		s0.1-0.2,0.1-0.3c0-0.1,0-0.3,0-0.4v-1.8h1v2.2c0,0.2,0,0.4,0,0.6c0,0.2,0,0.4,0,0.7H136.7z"/>
	<path class="st5" d="M141.2,58.7v-1.9c0-0.1,0-0.2,0-0.4c0-0.1,0-0.2-0.1-0.3c0-0.1-0.1-0.2-0.2-0.2c-0.1-0.1-0.2-0.1-0.4-0.1
		c-0.2,0-0.3,0-0.4,0.1c-0.1,0.1-0.2,0.2-0.2,0.3s-0.1,0.2-0.1,0.4c0,0.1,0,0.2,0,0.3v1.8h-1v-2.8c0-0.1,0-0.2,0-0.3
		c0-0.1,0-0.2,0-0.4h1l0,0.5c0.2-0.2,0.3-0.4,0.5-0.5s0.4-0.1,0.7-0.1c0.4,0,0.8,0.1,1,0.3c0.2,0.2,0.3,0.5,0.3,1v2.3H141.2z"/>
	<path class="st5" d="M146.6,55.1c0,0.2,0,0.4,0,0.6c0,0.2,0,0.3,0,0.4V58c0,0.7-0.1,1.2-0.4,1.6c-0.3,0.3-0.8,0.5-1.4,0.5
		c-0.2,0-0.4,0-0.6,0s-0.4-0.1-0.5-0.2c-0.2-0.1-0.3-0.2-0.4-0.3s-0.2-0.3-0.2-0.5v-0.1h1c0,0.1,0,0.2,0.1,0.3
		c0,0.1,0.1,0.1,0.2,0.2c0.1,0,0.1,0.1,0.2,0.1c0.1,0,0.2,0,0.3,0c0.2,0,0.3,0,0.4-0.1c0.1,0,0.2-0.1,0.2-0.2
		c0.1-0.1,0.1-0.2,0.1-0.3c0-0.1,0-0.2,0-0.4c0-0.1,0-0.2,0-0.2s0-0.2,0-0.2c-0.3,0.4-0.6,0.6-1.1,0.6c-0.3,0-0.5,0-0.7-0.1
		c-0.2-0.1-0.4-0.2-0.5-0.4c-0.1-0.2-0.2-0.3-0.3-0.6c-0.1-0.2-0.1-0.4-0.1-0.7c0-0.2,0-0.5,0.1-0.7c0.1-0.2,0.2-0.4,0.3-0.6
		c0.1-0.2,0.3-0.3,0.5-0.4c0.2-0.1,0.4-0.1,0.7-0.1c0.3,0,0.5,0,0.7,0.1c0.2,0.1,0.4,0.3,0.5,0.5v-0.5H146.6z M145.6,56.8
		c0-0.1,0-0.3,0-0.4c0-0.1-0.1-0.3-0.1-0.4c-0.1-0.1-0.1-0.2-0.2-0.3c-0.1-0.1-0.2-0.1-0.4-0.1c-0.2,0-0.3,0-0.4,0.1
		s-0.2,0.2-0.3,0.3s-0.1,0.2-0.1,0.4c0,0.1,0,0.3,0,0.4c0,0.1,0,0.3,0,0.4c0,0.1,0.1,0.3,0.1,0.4c0.1,0.1,0.1,0.2,0.2,0.3
		c0.1,0.1,0.2,0.1,0.4,0.1s0.3,0,0.4-0.1s0.2-0.2,0.3-0.3s0.1-0.2,0.1-0.4C145.6,57.1,145.6,56.9,145.6,56.8z"/>
</g>
<g>
	<path class="st5" d="M20.2,120h-1.3l-1.8-5.1h1.2l1.3,4.1l1.4-4.1h1.1L20.2,120z"/>
	<path class="st5" d="M22.8,118.4c0,0.1,0,0.3,0,0.4c0,0.1,0.1,0.2,0.1,0.3s0.1,0.2,0.3,0.2c0.1,0.1,0.2,0.1,0.4,0.1
		c0.4,0,0.7-0.2,0.7-0.6h1c0,0.2-0.1,0.4-0.2,0.6s-0.2,0.3-0.4,0.4c-0.2,0.1-0.3,0.2-0.5,0.2s-0.4,0.1-0.6,0.1c-0.6,0-1-0.2-1.3-0.5
		c-0.3-0.3-0.5-0.7-0.5-1.3c0-0.6,0.2-1.1,0.5-1.4c0.3-0.3,0.8-0.5,1.4-0.5c0.2,0,0.3,0,0.5,0.1s0.3,0.1,0.4,0.2s0.3,0.2,0.4,0.3
		s0.2,0.3,0.3,0.4c0.1,0.2,0.1,0.4,0.1,0.5c0,0.2,0,0.4,0,0.6H22.8z M24.3,117.8c0-0.3-0.1-0.5-0.2-0.6c-0.1-0.2-0.3-0.2-0.6-0.2
		c-0.3,0-0.4,0.1-0.6,0.2c-0.1,0.2-0.2,0.4-0.2,0.6H24.3z"/>
	<path class="st5" d="M28,117.3c-0.3,0-0.6,0.1-0.7,0.3c-0.1,0.2-0.2,0.4-0.2,0.7v1.7h-1v-2.7c0-0.1,0-0.3,0-0.4c0-0.1,0-0.3,0-0.4
		h1l0,0.7c0.1-0.2,0.3-0.4,0.4-0.5c0.2-0.1,0.4-0.2,0.7-0.2c0,0,0.1,0,0.1,0c0,0,0.1,0,0.1,0v0.9C28.2,117.3,28.1,117.3,28,117.3z"
		/>
	<path class="st5" d="M32.6,118.1c0,0.2,0,0.5-0.1,0.7s-0.2,0.4-0.3,0.6c-0.1,0.2-0.3,0.3-0.5,0.4S31.3,120,31,120
		c-0.2,0-0.4,0-0.6-0.1c-0.2-0.1-0.3-0.2-0.5-0.4l0,0.5h-1c0-0.2,0-0.3,0-0.5c0-0.2,0-0.3,0-0.5v-4.1h1v2c0.1-0.2,0.3-0.3,0.5-0.4
		c0.2-0.1,0.4-0.1,0.6-0.1c0.3,0,0.5,0,0.7,0.1s0.4,0.2,0.5,0.4c0.1,0.2,0.2,0.4,0.3,0.6C32.6,117.7,32.6,117.9,32.6,118.1z
		 M31.5,118.2c0-0.1,0-0.3,0-0.4s-0.1-0.3-0.1-0.4c-0.1-0.1-0.1-0.2-0.2-0.3c-0.1-0.1-0.2-0.1-0.4-0.1c-0.2,0-0.3,0-0.4,0.1
		c-0.1,0.1-0.2,0.2-0.3,0.3c-0.1,0.1-0.1,0.2-0.1,0.4c0,0.1,0,0.3,0,0.4c0,0.1,0,0.3,0,0.4c0,0.1,0.1,0.3,0.1,0.4
		c0.1,0.1,0.1,0.2,0.2,0.3c0.1,0.1,0.2,0.1,0.4,0.1c0.2,0,0.3,0,0.4-0.1c0.1-0.1,0.2-0.2,0.3-0.3s0.1-0.2,0.1-0.4
		S31.5,118.3,31.5,118.2z"/>
	<path class="st5" d="M34.1,118.4c0,0.1,0,0.3,0,0.4c0,0.1,0.1,0.2,0.1,0.3s0.1,0.2,0.3,0.2c0.1,0.1,0.2,0.1,0.4,0.1
		c0.4,0,0.7-0.2,0.7-0.6h1c0,0.2-0.1,0.4-0.2,0.6s-0.2,0.3-0.4,0.4c-0.2,0.1-0.3,0.2-0.5,0.2s-0.4,0.1-0.6,0.1c-0.6,0-1-0.2-1.3-0.5
		c-0.3-0.3-0.5-0.7-0.5-1.3c0-0.6,0.2-1.1,0.5-1.4c0.3-0.3,0.8-0.5,1.4-0.5c0.2,0,0.3,0,0.5,0.1s0.3,0.1,0.4,0.2s0.3,0.2,0.4,0.3
		s0.2,0.3,0.3,0.4c0.1,0.2,0.1,0.4,0.1,0.5c0,0.2,0,0.4,0,0.6H34.1z M35.7,117.8c0-0.3-0.1-0.5-0.2-0.6c-0.1-0.2-0.3-0.2-0.6-0.2
		c-0.3,0-0.4,0.1-0.6,0.2c-0.1,0.2-0.2,0.4-0.2,0.6H35.7z"/>
	<path class="st5" d="M40.4,118.9c0,0.2-0.1,0.4-0.2,0.6c-0.1,0.1-0.2,0.3-0.4,0.4c-0.2,0.1-0.3,0.2-0.5,0.2c-0.2,0-0.4,0.1-0.6,0.1
		c-0.2,0-0.4,0-0.6-0.1s-0.4-0.1-0.5-0.2c-0.1-0.1-0.3-0.2-0.3-0.4c-0.1-0.2-0.1-0.4-0.1-0.6h1c0,0.2,0.1,0.4,0.2,0.5
		c0.1,0.1,0.2,0.2,0.5,0.2c0.1,0,0.1,0,0.2,0c0.1,0,0.1,0,0.2-0.1c0.1,0,0.1-0.1,0.1-0.1c0-0.1,0.1-0.1,0.1-0.2
		c0-0.1-0.1-0.2-0.2-0.3c-0.1-0.1-0.3-0.1-0.5-0.2l-0.4-0.1c-0.1,0-0.3-0.1-0.4-0.1c-0.1,0-0.2-0.1-0.3-0.2
		c-0.1-0.1-0.2-0.2-0.2-0.3c-0.1-0.1-0.1-0.2-0.1-0.4c0-0.2,0-0.4,0.1-0.5c0.1-0.1,0.2-0.2,0.4-0.3s0.3-0.1,0.5-0.2
		c0.2,0,0.4,0,0.5,0c0.2,0,0.4,0,0.6,0.1c0.2,0,0.3,0.1,0.5,0.2s0.3,0.2,0.3,0.4s0.1,0.3,0.2,0.5h-1c0-0.2-0.1-0.3-0.1-0.4
		c-0.1-0.1-0.2-0.2-0.4-0.2c-0.1,0-0.1,0-0.2,0c-0.1,0-0.1,0-0.2,0.1c-0.1,0-0.1,0.1-0.1,0.1c0,0,0,0.1,0,0.2c0,0.1,0.1,0.2,0.2,0.3
		c0.1,0.1,0.3,0.1,0.5,0.2l0.4,0.1c0.1,0,0.3,0.1,0.4,0.1c0.1,0,0.2,0.1,0.4,0.2s0.2,0.2,0.2,0.3C40.4,118.6,40.4,118.7,40.4,118.9z
		"/>
	<path class="st5" d="M44.2,118.9c0,0.2-0.1,0.4-0.2,0.6c-0.1,0.1-0.2,0.3-0.4,0.4c-0.2,0.1-0.3,0.2-0.5,0.2c-0.2,0-0.4,0.1-0.6,0.1
		c-0.2,0-0.4,0-0.6-0.1s-0.4-0.1-0.5-0.2c-0.1-0.1-0.3-0.2-0.3-0.4c-0.1-0.2-0.1-0.4-0.1-0.6h1c0,0.2,0.1,0.4,0.2,0.5
		c0.1,0.1,0.2,0.2,0.5,0.2c0.1,0,0.1,0,0.2,0c0.1,0,0.1,0,0.2-0.1c0.1,0,0.1-0.1,0.1-0.1c0-0.1,0.1-0.1,0.1-0.2
		c0-0.1-0.1-0.2-0.2-0.3c-0.1-0.1-0.3-0.1-0.5-0.2l-0.4-0.1c-0.1,0-0.3-0.1-0.4-0.1c-0.1,0-0.2-0.1-0.3-0.2
		c-0.1-0.1-0.2-0.2-0.2-0.3c-0.1-0.1-0.1-0.2-0.1-0.4c0-0.2,0-0.4,0.1-0.5c0.1-0.1,0.2-0.2,0.4-0.3s0.3-0.1,0.5-0.2
		c0.2,0,0.4,0,0.5,0c0.2,0,0.4,0,0.6,0.1c0.2,0,0.3,0.1,0.5,0.2s0.3,0.2,0.3,0.4s0.1,0.3,0.2,0.5h-1c0-0.2-0.1-0.3-0.1-0.4
		c-0.1-0.1-0.2-0.2-0.4-0.2c-0.1,0-0.1,0-0.2,0c-0.1,0-0.1,0-0.2,0.1c-0.1,0-0.1,0.1-0.1,0.1c0,0,0,0.1,0,0.2c0,0.1,0.1,0.2,0.2,0.3
		c0.1,0.1,0.3,0.1,0.5,0.2l0.4,0.1c0.1,0,0.3,0.1,0.4,0.1c0.1,0,0.2,0.1,0.4,0.2s0.2,0.2,0.2,0.3C44.2,118.6,44.2,118.7,44.2,118.9z
		"/>
	<path class="st5" d="M45.7,118.4c0,0.1,0,0.3,0,0.4c0,0.1,0.1,0.2,0.1,0.3s0.1,0.2,0.3,0.2c0.1,0.1,0.2,0.1,0.4,0.1
		c0.4,0,0.7-0.2,0.7-0.6h1c0,0.2-0.1,0.4-0.2,0.6s-0.2,0.3-0.4,0.4c-0.2,0.1-0.3,0.2-0.5,0.2s-0.4,0.1-0.6,0.1c-0.6,0-1-0.2-1.3-0.5
		c-0.3-0.3-0.5-0.7-0.5-1.3c0-0.6,0.2-1.1,0.5-1.4c0.3-0.3,0.8-0.5,1.4-0.5c0.2,0,0.3,0,0.5,0.1s0.3,0.1,0.4,0.2s0.3,0.2,0.4,0.3
		s0.2,0.3,0.3,0.4c0.1,0.2,0.1,0.4,0.1,0.5c0,0.2,0,0.4,0,0.6H45.7z M47.3,117.8c0-0.3-0.1-0.5-0.2-0.6c-0.1-0.2-0.3-0.2-0.6-0.2
		c-0.3,0-0.4,0.1-0.6,0.2c-0.1,0.2-0.2,0.4-0.2,0.6H47.3z"/>
	<path class="st5" d="M51,117.3c-0.3,0-0.6,0.1-0.7,0.3c-0.1,0.2-0.2,0.4-0.2,0.7v1.7h-1v-2.7c0-0.1,0-0.3,0-0.4c0-0.1,0-0.3,0-0.4
		h1l0,0.7c0.1-0.2,0.3-0.4,0.4-0.5c0.2-0.1,0.4-0.2,0.7-0.2c0,0,0.1,0,0.1,0c0,0,0.1,0,0.1,0v0.9C51.2,117.3,51.1,117.3,51,117.3z"
		/>
	<path class="st5" d="M54.3,120l0-0.5c-0.2,0.2-0.3,0.4-0.5,0.5c-0.2,0.1-0.4,0.1-0.7,0.1c-0.4,0-0.8-0.1-1-0.3s-0.3-0.5-0.3-1v-2.3
		h1v1.9c0,0.1,0,0.2,0,0.4c0,0.1,0,0.2,0.1,0.3c0,0.1,0.1,0.2,0.2,0.2c0.1,0.1,0.2,0.1,0.4,0.1s0.3,0,0.4-0.1s0.2-0.1,0.2-0.3
		s0.1-0.2,0.1-0.3c0-0.1,0-0.3,0-0.4v-1.8h1v2.2c0,0.2,0,0.4,0,0.6c0,0.2,0,0.4,0,0.7H54.3z"/>
	<path class="st5" d="M58.7,120v-1.9c0-0.1,0-0.2,0-0.4c0-0.1,0-0.2-0.1-0.3c0-0.1-0.1-0.2-0.2-0.2c-0.1-0.1-0.2-0.1-0.4-0.1
		c-0.2,0-0.3,0-0.4,0.1c-0.1,0.1-0.2,0.2-0.2,0.3s-0.1,0.2-0.1,0.4c0,0.1,0,0.2,0,0.3v1.8h-1v-2.8c0-0.1,0-0.2,0-0.3
		c0-0.1,0-0.2,0-0.4h1l0,0.5c0.2-0.2,0.3-0.4,0.5-0.5s0.4-0.1,0.7-0.1c0.4,0,0.8,0.1,1,0.3c0.2,0.2,0.3,0.5,0.3,1v2.3H58.7z"/>
	<path class="st5" d="M64.2,116.4c0,0.2,0,0.4,0,0.6c0,0.2,0,0.3,0,0.4v1.9c0,0.7-0.1,1.2-0.4,1.6c-0.3,0.3-0.8,0.5-1.4,0.5
		c-0.2,0-0.4,0-0.6,0s-0.4-0.1-0.5-0.2c-0.2-0.1-0.3-0.2-0.4-0.3s-0.2-0.3-0.2-0.5v-0.1h1c0,0.1,0,0.2,0.1,0.3
		c0,0.1,0.1,0.1,0.2,0.2c0.1,0,0.1,0.1,0.2,0.1c0.1,0,0.2,0,0.3,0c0.2,0,0.3,0,0.4-0.1c0.1,0,0.2-0.1,0.2-0.2
		c0.1-0.1,0.1-0.2,0.1-0.3c0-0.1,0-0.2,0-0.4c0-0.1,0-0.2,0-0.2s0-0.2,0-0.2c-0.3,0.4-0.6,0.6-1.1,0.6c-0.3,0-0.5,0-0.7-0.1
		c-0.2-0.1-0.4-0.2-0.5-0.4c-0.1-0.2-0.2-0.3-0.3-0.6c-0.1-0.2-0.1-0.4-0.1-0.7c0-0.2,0-0.5,0.1-0.7c0.1-0.2,0.2-0.4,0.3-0.6
		c0.1-0.2,0.3-0.3,0.5-0.4c0.2-0.1,0.4-0.1,0.7-0.1c0.3,0,0.5,0,0.7,0.1c0.2,0.1,0.4,0.3,0.5,0.5v-0.5H64.2z M63.2,118.1
		c0-0.1,0-0.3,0-0.4c0-0.1-0.1-0.3-0.1-0.4c-0.1-0.1-0.1-0.2-0.2-0.3c-0.1-0.1-0.2-0.1-0.4-0.1c-0.2,0-0.3,0-0.4,0.1
		s-0.2,0.2-0.3,0.3s-0.1,0.2-0.1,0.4c0,0.1,0,0.3,0,0.4c0,0.1,0,0.3,0,0.4c0,0.1,0.1,0.3,0.1,0.4c0.1,0.1,0.1,0.2,0.2,0.3
		c0.1,0.1,0.2,0.1,0.4,0.1s0.3,0,0.4-0.1s0.2-0.2,0.3-0.3s0.1-0.2,0.1-0.4C63.2,118.4,63.2,118.2,63.2,118.1z"/>
	<path class="st5" d="M68.2,118.9c0,0.2-0.1,0.4-0.2,0.6c-0.1,0.1-0.2,0.3-0.4,0.4c-0.2,0.1-0.3,0.2-0.5,0.2c-0.2,0-0.4,0.1-0.6,0.1
		c-0.2,0-0.4,0-0.6-0.1s-0.4-0.1-0.5-0.2c-0.1-0.1-0.3-0.2-0.3-0.4c-0.1-0.2-0.1-0.4-0.1-0.6h1c0,0.2,0.1,0.4,0.2,0.5
		c0.1,0.1,0.2,0.2,0.5,0.2c0.1,0,0.1,0,0.2,0c0.1,0,0.1,0,0.2-0.1c0.1,0,0.1-0.1,0.1-0.1c0-0.1,0.1-0.1,0.1-0.2
		c0-0.1-0.1-0.2-0.2-0.3c-0.1-0.1-0.3-0.1-0.5-0.2l-0.4-0.1c-0.1,0-0.3-0.1-0.4-0.1c-0.1,0-0.2-0.1-0.3-0.2
		c-0.1-0.1-0.2-0.2-0.2-0.3c-0.1-0.1-0.1-0.2-0.1-0.4c0-0.2,0-0.4,0.1-0.5c0.1-0.1,0.2-0.2,0.4-0.3s0.3-0.1,0.5-0.2
		c0.2,0,0.4,0,0.5,0c0.2,0,0.4,0,0.6,0.1c0.2,0,0.3,0.1,0.5,0.2s0.3,0.2,0.3,0.4s0.1,0.3,0.2,0.5h-1c0-0.2-0.1-0.3-0.1-0.4
		c-0.1-0.1-0.2-0.2-0.4-0.2c-0.1,0-0.1,0-0.2,0c-0.1,0-0.1,0-0.2,0.1c-0.1,0-0.1,0.1-0.1,0.1c0,0,0,0.1,0,0.2c0,0.1,0.1,0.2,0.2,0.3
		c0.1,0.1,0.3,0.1,0.5,0.2l0.4,0.1c0.1,0,0.3,0.1,0.4,0.1c0.1,0,0.2,0.1,0.4,0.2s0.2,0.2,0.2,0.3C68.1,118.6,68.2,118.7,68.2,118.9z
		"/>
	<path class="st5" d="M71,120h-1.1l-1.4-3.5h1.1l0.9,2.7l1-2.7h1L71,120z"/>
	<path class="st5" d="M76.4,118.2c0,0.3,0,0.6-0.1,0.8c-0.1,0.2-0.2,0.4-0.4,0.6c-0.2,0.2-0.4,0.3-0.6,0.4c-0.2,0.1-0.5,0.1-0.8,0.1
		c-0.3,0-0.6,0-0.8-0.1c-0.2-0.1-0.4-0.2-0.6-0.4c-0.2-0.2-0.3-0.4-0.4-0.6c-0.1-0.2-0.1-0.5-0.1-0.8c0-0.3,0-0.6,0.1-0.8
		c0.1-0.2,0.2-0.4,0.4-0.6c0.2-0.2,0.4-0.3,0.6-0.4c0.2-0.1,0.5-0.1,0.8-0.1c0.3,0,0.6,0,0.8,0.1c0.2,0.1,0.4,0.2,0.6,0.4
		c0.2,0.2,0.3,0.4,0.4,0.6C76.4,117.6,76.4,117.9,76.4,118.2z M75.4,118.2c0-0.1,0-0.3,0-0.4c0-0.1-0.1-0.3-0.1-0.4
		s-0.2-0.2-0.3-0.3c-0.1-0.1-0.3-0.1-0.4-0.1c-0.2,0-0.3,0-0.4,0.1c-0.1,0.1-0.2,0.2-0.3,0.3s-0.1,0.3-0.1,0.4s0,0.3,0,0.4
		s0,0.3,0,0.4s0.1,0.3,0.1,0.4c0.1,0.1,0.1,0.2,0.3,0.3c0.1,0.1,0.3,0.1,0.4,0.1c0.2,0,0.3,0,0.4-0.1c0.1-0.1,0.2-0.2,0.3-0.3
		c0.1-0.1,0.1-0.3,0.1-0.4C75.3,118.5,75.4,118.3,75.4,118.2z"/>
	<path class="st5" d="M79.1,117.3c-0.3,0-0.6,0.1-0.7,0.3c-0.1,0.2-0.2,0.4-0.2,0.7v1.7h-1v-2.7c0-0.1,0-0.3,0-0.4
		c0-0.1,0-0.3,0-0.4h1l0,0.7c0.1-0.2,0.3-0.4,0.4-0.5c0.2-0.1,0.4-0.2,0.7-0.2c0,0,0.1,0,0.1,0c0,0,0.1,0,0.1,0v0.9
		C79.3,117.3,79.2,117.3,79.1,117.3z"/>
	<path class="st5" d="M82.9,118.9c0,0.2-0.1,0.4-0.2,0.6c-0.1,0.1-0.2,0.3-0.4,0.4c-0.2,0.1-0.3,0.2-0.5,0.2c-0.2,0-0.4,0.1-0.6,0.1
		c-0.2,0-0.4,0-0.6-0.1s-0.4-0.1-0.5-0.2c-0.1-0.1-0.3-0.2-0.3-0.4c-0.1-0.2-0.1-0.4-0.1-0.6h1c0,0.2,0.1,0.4,0.2,0.5
		c0.1,0.1,0.2,0.2,0.5,0.2c0.1,0,0.1,0,0.2,0c0.1,0,0.1,0,0.2-0.1c0.1,0,0.1-0.1,0.1-0.1c0-0.1,0.1-0.1,0.1-0.2
		c0-0.1-0.1-0.2-0.2-0.3c-0.1-0.1-0.3-0.1-0.5-0.2l-0.4-0.1c-0.1,0-0.3-0.1-0.4-0.1c-0.1,0-0.2-0.1-0.3-0.2
		c-0.1-0.1-0.2-0.2-0.2-0.3c-0.1-0.1-0.1-0.2-0.1-0.4c0-0.2,0-0.4,0.1-0.5c0.1-0.1,0.2-0.2,0.4-0.3s0.3-0.1,0.5-0.2
		c0.2,0,0.4,0,0.5,0c0.2,0,0.4,0,0.6,0.1c0.2,0,0.3,0.1,0.5,0.2s0.3,0.2,0.3,0.4s0.1,0.3,0.2,0.5h-1c0-0.2-0.1-0.3-0.1-0.4
		c-0.1-0.1-0.2-0.2-0.4-0.2c-0.1,0-0.1,0-0.2,0c-0.1,0-0.1,0-0.2,0.1c-0.1,0-0.1,0.1-0.1,0.1c0,0,0,0.1,0,0.2c0,0.1,0.1,0.2,0.2,0.3
		c0.1,0.1,0.3,0.1,0.5,0.2l0.4,0.1c0.1,0,0.3,0.1,0.4,0.1c0.1,0,0.2,0.1,0.4,0.2s0.2,0.2,0.2,0.3C82.9,118.6,82.9,118.7,82.9,118.9z
		"/>
	<path class="st5" d="M86.8,119.3c-0.1,0.2-0.2,0.3-0.4,0.4c-0.2,0.1-0.3,0.2-0.5,0.2c-0.2,0.1-0.4,0.1-0.6,0.1
		c-0.6,0-1-0.2-1.4-0.5c-0.3-0.3-0.5-0.8-0.5-1.3c0-0.3,0-0.5,0.1-0.8c0.1-0.2,0.2-0.4,0.4-0.6c0.2-0.2,0.4-0.3,0.6-0.4
		s0.5-0.1,0.8-0.1c0.2,0,0.4,0,0.6,0.1c0.2,0,0.4,0.1,0.5,0.2c0.1,0.1,0.3,0.2,0.4,0.4c0.1,0.2,0.1,0.4,0.2,0.6h-1
		c0-0.2-0.1-0.4-0.2-0.5c-0.1-0.1-0.3-0.2-0.5-0.2c-0.2,0-0.3,0-0.4,0.1s-0.2,0.2-0.2,0.3c-0.1,0.1-0.1,0.3-0.1,0.4s0,0.3,0,0.4
		c0,0.1,0,0.3,0,0.4s0.1,0.3,0.1,0.4c0.1,0.1,0.1,0.2,0.2,0.3c0.1,0.1,0.2,0.1,0.4,0.1c0.2,0,0.4-0.1,0.5-0.2
		c0.1-0.1,0.1-0.3,0.2-0.6h1v0C87,118.9,86.9,119.1,86.8,119.3z"/>
	<path class="st5" d="M90.1,120v-1.9c0-0.1,0-0.2,0-0.4s0-0.2-0.1-0.3s-0.1-0.2-0.2-0.2c-0.1-0.1-0.2-0.1-0.4-0.1
		c-0.2,0-0.3,0-0.4,0.1s-0.2,0.2-0.2,0.3s-0.1,0.2-0.1,0.4s0,0.2,0,0.3v1.8h-1v-5.1h1l0,2c0.1-0.2,0.3-0.3,0.5-0.4
		c0.2-0.1,0.4-0.1,0.6-0.1c0.4,0,0.8,0.1,1,0.3c0.2,0.2,0.3,0.5,0.3,1v2.3H90.1z"/>
	<path class="st5" d="M92,120v-5.1h1v5.1H92z"/>
	<path class="st5" d="M96.2,120c0-0.1,0-0.2-0.1-0.2c0-0.1,0-0.2,0-0.2c-0.1,0.2-0.3,0.4-0.5,0.4S95.3,120,95,120
		c-0.2,0-0.3,0-0.5-0.1s-0.3-0.1-0.4-0.2c-0.1-0.1-0.2-0.2-0.3-0.3c-0.1-0.1-0.1-0.3-0.1-0.5c0-0.3,0.1-0.5,0.2-0.7
		c0.1-0.2,0.3-0.3,0.5-0.4s0.4-0.1,0.7-0.2c0.2,0,0.5,0,0.7,0h0.3v-0.1c0-0.1,0-0.2,0-0.3c0-0.1,0-0.2-0.1-0.2
		c0-0.1-0.1-0.1-0.2-0.2s-0.2-0.1-0.3-0.1c-0.2,0-0.3,0.1-0.4,0.2s-0.1,0.2-0.1,0.4h-1c0-0.2,0.1-0.4,0.1-0.5
		c0.1-0.1,0.2-0.3,0.4-0.3c0.2-0.1,0.3-0.1,0.5-0.2c0.2,0,0.4-0.1,0.6-0.1c0.2,0,0.5,0,0.6,0.1c0.2,0,0.4,0.1,0.5,0.2
		s0.2,0.2,0.3,0.4s0.1,0.4,0.1,0.7v1c0,0.2,0,0.4,0,0.6c0,0.2,0,0.4,0,0.6H96.2z M94.3,115.7v-0.8h0.9v0.8H94.3z M96.2,118.3
		c-0.1,0-0.1,0-0.1,0c0,0-0.1,0-0.1,0c-0.1,0-0.2,0-0.4,0c-0.1,0-0.2,0-0.4,0.1c-0.1,0-0.2,0.1-0.3,0.2c-0.1,0.1-0.1,0.2-0.1,0.3
		c0,0.2,0.1,0.3,0.2,0.4c0.1,0.1,0.2,0.1,0.4,0.1c0.2,0,0.3,0,0.4-0.1s0.2-0.2,0.2-0.3c0.1-0.1,0.1-0.2,0.1-0.4
		S96.2,118.4,96.2,118.3L96.2,118.3z M96,115.7v-0.8h0.9v0.8H96z"/>
	<path class="st5" d="M101.6,116.4c0,0.2,0,0.4,0,0.6c0,0.2,0,0.3,0,0.4v1.9c0,0.7-0.1,1.2-0.4,1.6c-0.3,0.3-0.8,0.5-1.4,0.5
		c-0.2,0-0.4,0-0.6,0s-0.4-0.1-0.5-0.2c-0.2-0.1-0.3-0.2-0.4-0.3s-0.2-0.3-0.2-0.5v-0.1h1c0,0.1,0,0.2,0.1,0.3
		c0,0.1,0.1,0.1,0.2,0.2c0.1,0,0.1,0.1,0.2,0.1c0.1,0,0.2,0,0.3,0c0.2,0,0.3,0,0.4-0.1c0.1,0,0.2-0.1,0.2-0.2
		c0.1-0.1,0.1-0.2,0.1-0.3c0-0.1,0-0.2,0-0.4c0-0.1,0-0.2,0-0.2s0-0.2,0-0.2c-0.3,0.4-0.6,0.6-1.1,0.6c-0.3,0-0.5,0-0.7-0.1
		c-0.2-0.1-0.4-0.2-0.5-0.4c-0.1-0.2-0.2-0.3-0.3-0.6c-0.1-0.2-0.1-0.4-0.1-0.7c0-0.2,0-0.5,0.1-0.7c0.1-0.2,0.2-0.4,0.3-0.6
		c0.1-0.2,0.3-0.3,0.5-0.4c0.2-0.1,0.4-0.1,0.7-0.1c0.3,0,0.5,0,0.7,0.1c0.2,0.1,0.4,0.3,0.5,0.5v-0.5H101.6z M100.6,118.1
		c0-0.1,0-0.3,0-0.4c0-0.1-0.1-0.3-0.1-0.4c-0.1-0.1-0.1-0.2-0.2-0.3c-0.1-0.1-0.2-0.1-0.4-0.1c-0.2,0-0.3,0-0.4,0.1
		s-0.2,0.2-0.3,0.3s-0.1,0.2-0.1,0.4c0,0.1,0,0.3,0,0.4c0,0.1,0,0.3,0,0.4c0,0.1,0.1,0.3,0.1,0.4c0.1,0.1,0.1,0.2,0.2,0.3
		c0.1,0.1,0.2,0.1,0.4,0.1s0.3,0,0.4-0.1s0.2-0.2,0.3-0.3s0.1-0.2,0.1-0.4C100.5,118.4,100.6,118.2,100.6,118.1z"/>
	<path class="st5" d="M103.3,118.4c0,0.1,0,0.3,0,0.4c0,0.1,0.1,0.2,0.1,0.3s0.1,0.2,0.3,0.2c0.1,0.1,0.2,0.1,0.4,0.1
		c0.4,0,0.7-0.2,0.7-0.6h1c0,0.2-0.1,0.4-0.2,0.6s-0.2,0.3-0.4,0.4c-0.2,0.1-0.3,0.2-0.5,0.2s-0.4,0.1-0.6,0.1c-0.6,0-1-0.2-1.3-0.5
		c-0.3-0.3-0.5-0.7-0.5-1.3c0-0.6,0.2-1.1,0.5-1.4c0.3-0.3,0.8-0.5,1.4-0.5c0.2,0,0.3,0,0.5,0.1s0.3,0.1,0.4,0.2s0.3,0.2,0.4,0.3
		s0.2,0.3,0.3,0.4c0.1,0.2,0.1,0.4,0.1,0.5c0,0.2,0,0.4,0,0.6H103.3z M104.9,117.8c0-0.3-0.1-0.5-0.2-0.6c-0.1-0.2-0.3-0.2-0.6-0.2
		c-0.3,0-0.4,0.1-0.6,0.2c-0.1,0.2-0.2,0.4-0.2,0.6H104.9z"/>
</g>
<g>
	<path class="st5" d="M235.6,114.3c0,0.3-0.1,0.5-0.2,0.7s-0.3,0.4-0.5,0.5c-0.2,0.1-0.4,0.2-0.7,0.3c-0.3,0.1-0.5,0.1-0.7,0.1
		c-0.3,0-0.5,0-0.8-0.1c-0.2-0.1-0.5-0.2-0.6-0.3c-0.2-0.1-0.3-0.3-0.4-0.5s-0.2-0.5-0.2-0.8h1.1c0,0.3,0.1,0.5,0.2,0.6
		c0.2,0.2,0.4,0.2,0.7,0.2c0.1,0,0.2,0,0.3,0c0.1,0,0.2-0.1,0.3-0.1s0.2-0.1,0.2-0.2c0.1-0.1,0.1-0.2,0.1-0.3c0-0.1,0-0.2-0.1-0.2
		s-0.1-0.1-0.2-0.2c-0.1-0.1-0.2-0.1-0.3-0.1c-0.1,0-0.2-0.1-0.4-0.1l-0.4-0.1c-0.2-0.1-0.4-0.1-0.6-0.2c-0.2-0.1-0.4-0.2-0.5-0.3
		c-0.1-0.1-0.3-0.2-0.4-0.4s-0.1-0.3-0.1-0.6c0-0.3,0.1-0.5,0.2-0.7s0.3-0.3,0.5-0.5c0.2-0.1,0.4-0.2,0.6-0.3
		c0.2-0.1,0.5-0.1,0.7-0.1c0.2,0,0.5,0,0.7,0.1s0.4,0.1,0.6,0.2s0.3,0.3,0.4,0.5c0.1,0.2,0.2,0.4,0.2,0.7h-1.1
		c0-0.2-0.1-0.4-0.2-0.5s-0.3-0.2-0.6-0.2c-0.1,0-0.2,0-0.3,0s-0.2,0.1-0.3,0.1c-0.1,0.1-0.1,0.1-0.2,0.2c0,0.1-0.1,0.2-0.1,0.3
		c0,0.1,0,0.2,0.1,0.2c0,0.1,0.1,0.1,0.2,0.2c0.1,0.1,0.2,0.1,0.3,0.1c0.1,0,0.3,0.1,0.5,0.2l0.4,0.1c0.2,0.1,0.4,0.1,0.6,0.2
		c0.2,0.1,0.3,0.2,0.4,0.3c0.1,0.1,0.2,0.2,0.3,0.4C235.6,113.9,235.6,114,235.6,114.3z"/>
	<path class="st5" d="M239.5,115.1c-0.1,0.2-0.2,0.3-0.4,0.4c-0.2,0.1-0.3,0.2-0.5,0.2c-0.2,0.1-0.4,0.1-0.6,0.1
		c-0.6,0-1-0.2-1.4-0.5c-0.3-0.3-0.5-0.8-0.5-1.3c0-0.3,0-0.5,0.1-0.8s0.2-0.4,0.4-0.6c0.2-0.2,0.4-0.3,0.6-0.4
		c0.2-0.1,0.5-0.1,0.8-0.1c0.2,0,0.4,0,0.6,0.1s0.4,0.1,0.5,0.2c0.1,0.1,0.3,0.2,0.4,0.4c0.1,0.2,0.1,0.4,0.2,0.6h-1
		c0-0.2-0.1-0.4-0.2-0.5s-0.3-0.2-0.5-0.2c-0.2,0-0.3,0-0.4,0.1c-0.1,0.1-0.2,0.2-0.2,0.3c-0.1,0.1-0.1,0.3-0.1,0.4s0,0.3,0,0.4
		c0,0.1,0,0.3,0,0.4s0.1,0.3,0.1,0.4s0.1,0.2,0.2,0.3s0.2,0.1,0.4,0.1c0.2,0,0.4-0.1,0.5-0.2c0.1-0.1,0.1-0.3,0.2-0.6h1v0
		C239.7,114.7,239.6,114.9,239.5,115.1z"/>
	<path class="st5" d="M242.8,115.8v-1.9c0-0.1,0-0.2,0-0.4c0-0.1,0-0.2-0.1-0.3c0-0.1-0.1-0.2-0.2-0.2s-0.2-0.1-0.4-0.1
		c-0.2,0-0.3,0-0.4,0.1c-0.1,0.1-0.2,0.2-0.2,0.3c-0.1,0.1-0.1,0.2-0.1,0.4s0,0.2,0,0.3v1.8h-1v-5.1h1l0,2c0.1-0.2,0.3-0.3,0.5-0.4
		c0.2-0.1,0.4-0.1,0.6-0.1c0.4,0,0.8,0.1,1,0.3c0.2,0.2,0.3,0.5,0.3,1v2.3H242.8z"/>
	<path class="st5" d="M247.2,115.8l0-0.5c-0.2,0.2-0.3,0.4-0.5,0.5c-0.2,0.1-0.4,0.1-0.7,0.1c-0.4,0-0.8-0.1-1-0.3s-0.3-0.5-0.3-1
		v-2.3h1v1.9c0,0.1,0,0.2,0,0.4c0,0.1,0,0.2,0.1,0.3c0,0.1,0.1,0.2,0.2,0.2c0.1,0.1,0.2,0.1,0.4,0.1c0.2,0,0.3,0,0.4-0.1
		c0.1-0.1,0.2-0.1,0.2-0.3c0.1-0.1,0.1-0.2,0.1-0.3c0-0.1,0-0.3,0-0.4v-1.8h1v2.2c0,0.2,0,0.4,0,0.6c0,0.2,0,0.4,0,0.7H247.2z"/>
	<path class="st5" d="M249.2,115.8v-5.1h1v5.1H249.2z"/>
	<path class="st5" d="M251.2,115.8v-5.1h1v5.1H251.2z"/>
	<path class="st5" d="M254,114.2c0,0.1,0,0.3,0,0.4c0,0.1,0.1,0.2,0.1,0.3s0.1,0.2,0.3,0.2c0.1,0.1,0.2,0.1,0.4,0.1
		c0.4,0,0.7-0.2,0.7-0.6h1c0,0.2-0.1,0.4-0.2,0.6c-0.1,0.2-0.2,0.3-0.4,0.4s-0.3,0.2-0.5,0.2c-0.2,0-0.4,0.1-0.6,0.1
		c-0.6,0-1-0.2-1.3-0.5c-0.3-0.3-0.5-0.7-0.5-1.3c0-0.6,0.2-1.1,0.5-1.4c0.3-0.3,0.8-0.5,1.4-0.5c0.2,0,0.3,0,0.5,0.1
		c0.2,0,0.3,0.1,0.4,0.2c0.1,0.1,0.3,0.2,0.4,0.3c0.1,0.1,0.2,0.3,0.3,0.4c0.1,0.2,0.1,0.4,0.1,0.5c0,0.2,0,0.4,0,0.6H254z
		 M255.6,113.6c0-0.3-0.1-0.5-0.2-0.6s-0.3-0.2-0.6-0.2c-0.3,0-0.4,0.1-0.6,0.2c-0.1,0.2-0.2,0.4-0.2,0.6H255.6z"/>
	<path class="st5" d="M257.3,111.5v-0.8h1.1v0.8H257.3z M257.3,115.8v-3.5h1v3.5H257.3z"/>
	<path class="st5" d="M260.6,112.9v1.6c0,0.1,0,0.2,0,0.3s0,0.1,0.1,0.2c0,0,0.1,0.1,0.1,0.1s0.2,0,0.3,0c0.1,0,0.1,0,0.2,0
		c0.1,0,0.1,0,0.2,0v0.7c-0.1,0-0.2,0-0.4,0c-0.1,0-0.2,0-0.4,0c-0.2,0-0.3,0-0.5,0c-0.1,0-0.2-0.1-0.3-0.1
		c-0.1-0.1-0.2-0.2-0.2-0.3c0-0.1-0.1-0.3-0.1-0.5v-2h-0.7v-0.7h0.7v-0.6l1-0.4v1h0.8v0.7H260.6z"/>
	<path class="st5" d="M264.5,115.8l0-0.5c-0.2,0.2-0.3,0.4-0.5,0.5c-0.2,0.1-0.4,0.1-0.7,0.1c-0.4,0-0.8-0.1-1-0.3s-0.3-0.5-0.3-1
		v-2.3h1v1.9c0,0.1,0,0.2,0,0.4c0,0.1,0,0.2,0.1,0.3c0,0.1,0.1,0.2,0.2,0.2s0.2,0.1,0.4,0.1c0.2,0,0.3,0,0.4-0.1
		c0.1-0.1,0.2-0.1,0.2-0.3c0.1-0.1,0.1-0.2,0.1-0.3c0-0.1,0-0.3,0-0.4v-1.8h1v2.2c0,0.2,0,0.4,0,0.6c0,0.2,0,0.4,0,0.7H264.5z"/>
	<path class="st5" d="M268.9,115.8v-1.9c0-0.1,0-0.2,0-0.4c0-0.1,0-0.2-0.1-0.3c0-0.1-0.1-0.2-0.2-0.2c-0.1-0.1-0.2-0.1-0.4-0.1
		c-0.2,0-0.3,0-0.4,0.1c-0.1,0.1-0.2,0.2-0.2,0.3s-0.1,0.2-0.1,0.4c0,0.1,0,0.2,0,0.3v1.8h-1v-2.8c0-0.1,0-0.2,0-0.3s0-0.2,0-0.4h1
		l0,0.5c0.2-0.2,0.3-0.4,0.5-0.5c0.2-0.1,0.4-0.1,0.7-0.1c0.4,0,0.8,0.1,1,0.3c0.2,0.2,0.3,0.5,0.3,1v2.3H268.9z"/>
	<path class="st5" d="M274.4,112.2c0,0.2,0,0.4,0,0.6c0,0.2,0,0.3,0,0.4v1.9c0,0.7-0.1,1.2-0.4,1.6c-0.3,0.3-0.8,0.5-1.4,0.5
		c-0.2,0-0.4,0-0.6,0c-0.2,0-0.4-0.1-0.5-0.2s-0.3-0.2-0.4-0.3c-0.1-0.1-0.2-0.3-0.2-0.5V116h1c0,0.1,0,0.2,0.1,0.3
		c0,0.1,0.1,0.1,0.2,0.2c0.1,0,0.1,0.1,0.2,0.1c0.1,0,0.2,0,0.3,0c0.2,0,0.3,0,0.4-0.1c0.1,0,0.2-0.1,0.2-0.2
		c0.1-0.1,0.1-0.2,0.1-0.3c0-0.1,0-0.2,0-0.4c0-0.1,0-0.2,0-0.2c0-0.1,0-0.2,0-0.2c-0.3,0.4-0.6,0.6-1.1,0.6c-0.3,0-0.5,0-0.7-0.1
		c-0.2-0.1-0.4-0.2-0.5-0.4c-0.1-0.2-0.2-0.3-0.3-0.6c-0.1-0.2-0.1-0.4-0.1-0.7c0-0.2,0-0.5,0.1-0.7c0.1-0.2,0.2-0.4,0.3-0.6
		c0.1-0.2,0.3-0.3,0.5-0.4c0.2-0.1,0.4-0.1,0.7-0.1c0.3,0,0.5,0,0.7,0.1c0.2,0.1,0.4,0.3,0.5,0.5v-0.5H274.4z M273.3,113.9
		c0-0.1,0-0.3,0-0.4c0-0.1-0.1-0.3-0.1-0.4c-0.1-0.1-0.1-0.2-0.2-0.3c-0.1-0.1-0.2-0.1-0.4-0.1c-0.2,0-0.3,0-0.4,0.1
		s-0.2,0.2-0.3,0.3c-0.1,0.1-0.1,0.2-0.1,0.4s0,0.3,0,0.4c0,0.1,0,0.3,0,0.4s0.1,0.3,0.1,0.4c0.1,0.1,0.1,0.2,0.2,0.3
		c0.1,0.1,0.2,0.1,0.4,0.1c0.2,0,0.3,0,0.4-0.1s0.2-0.2,0.3-0.3c0.1-0.1,0.1-0.2,0.1-0.4C273.3,114.2,273.3,114,273.3,113.9z"/>
	<path class="st5" d="M281.2,113.9c0,0.2,0,0.5-0.1,0.7c-0.1,0.2-0.2,0.4-0.3,0.6c-0.1,0.2-0.3,0.3-0.5,0.4
		c-0.2,0.1-0.4,0.2-0.7,0.2c-0.2,0-0.4,0-0.6-0.1c-0.2-0.1-0.3-0.2-0.5-0.4v1.8h-1v-4c0-0.1,0-0.3,0-0.4c0-0.1,0-0.3,0-0.4h1l0,0.5
		c0.1-0.2,0.3-0.4,0.5-0.5s0.4-0.1,0.7-0.1c0.3,0,0.5,0,0.7,0.1c0.2,0.1,0.3,0.2,0.5,0.4s0.2,0.3,0.3,0.6S281.2,113.7,281.2,113.9z
		 M280.2,114c0-0.1,0-0.3,0-0.4c0-0.1-0.1-0.3-0.1-0.4s-0.1-0.2-0.2-0.3c-0.1-0.1-0.2-0.1-0.4-0.1c-0.2,0-0.3,0-0.4,0.1
		s-0.2,0.2-0.3,0.3c-0.1,0.1-0.1,0.2-0.1,0.4c0,0.1,0,0.3,0,0.4c0,0.1,0,0.3,0,0.4c0,0.1,0.1,0.3,0.1,0.4c0.1,0.1,0.1,0.2,0.2,0.3
		c0.1,0.1,0.2,0.1,0.4,0.1c0.2,0,0.3,0,0.4-0.1c0.1-0.1,0.2-0.2,0.3-0.3s0.1-0.3,0.1-0.4C280.1,114.2,280.2,114.1,280.2,114z"/>
	<path class="st5" d="M283.9,113.1c-0.3,0-0.6,0.1-0.7,0.3c-0.1,0.2-0.2,0.4-0.2,0.7v1.7h-1v-2.7c0-0.1,0-0.3,0-0.4
		c0-0.1,0-0.3,0-0.4h1l0,0.7c0.1-0.2,0.3-0.4,0.4-0.5s0.4-0.2,0.7-0.2c0,0,0.1,0,0.1,0s0.1,0,0.1,0v0.9
		C284.1,113.1,284,113.1,283.9,113.1z"/>
	<path class="st5" d="M287.2,115.8l0-0.5c-0.2,0.2-0.3,0.4-0.5,0.5c-0.2,0.1-0.4,0.1-0.7,0.1c-0.4,0-0.8-0.1-1-0.3s-0.3-0.5-0.3-1
		v-2.3h1v1.9c0,0.1,0,0.2,0,0.4c0,0.1,0,0.2,0.1,0.3c0,0.1,0.1,0.2,0.2,0.2s0.2,0.1,0.4,0.1c0.2,0,0.3,0,0.4-0.1
		c0.1-0.1,0.2-0.1,0.2-0.3c0.1-0.1,0.1-0.2,0.1-0.3c0-0.1,0-0.3,0-0.4v-1.8h1v2.2c0,0.2,0,0.4,0,0.6c0,0.2,0,0.4,0,0.7H287.2z
		 M285.2,111.5v-0.8h0.9v0.8H285.2z M286.9,111.5v-0.8h0.9v0.8H286.9z"/>
	<path class="st5" d="M291.2,111.4c-0.1,0-0.1,0-0.2,0c-0.1,0-0.2,0-0.3,0c-0.1,0-0.1,0.1-0.2,0.1s-0.1,0.1-0.1,0.2
		c0,0.1,0,0.1,0,0.2v0.3h0.8v0.7h-0.8v2.9h-1v-2.9h-0.7v-0.7h0.7v-0.3c0-0.4,0.1-0.7,0.3-0.9c0.2-0.2,0.5-0.3,0.9-0.3
		c0.1,0,0.2,0,0.3,0c0.1,0,0.2,0,0.3,0v0.7C291.3,111.4,291.3,111.4,291.2,111.4z"/>
	<path class="st5" d="M293.2,112.9v1.6c0,0.1,0,0.2,0,0.3c0,0.1,0,0.1,0.1,0.2c0,0,0.1,0.1,0.1,0.1s0.2,0,0.3,0c0.1,0,0.1,0,0.2,0
		c0.1,0,0.1,0,0.2,0v0.7c-0.1,0-0.2,0-0.4,0c-0.1,0-0.2,0-0.4,0c-0.2,0-0.3,0-0.5,0c-0.1,0-0.2-0.1-0.3-0.1
		c-0.1-0.1-0.2-0.2-0.2-0.3c0-0.1-0.1-0.3-0.1-0.5v-2h-0.7v-0.7h0.7v-0.6l1-0.4v1h0.8v0.7H293.2z"/>
	<path class="st5" d="M241.8,123.7c-0.4,0.4-0.9,0.6-1.7,0.6c-0.2,0-0.4,0-0.6,0c-0.2,0-0.4-0.1-0.5-0.1s-0.3-0.2-0.5-0.3
		c-0.1-0.1-0.3-0.3-0.4-0.4c-0.1-0.2-0.2-0.4-0.2-0.7c0-0.2,0-0.5,0-0.7v-2.9h1.1v3c0,0.2,0,0.4,0,0.5s0.1,0.3,0.2,0.4
		c0.1,0.1,0.2,0.2,0.3,0.3c0.1,0.1,0.3,0.1,0.6,0.1c0.2,0,0.4,0,0.6-0.1c0.1-0.1,0.3-0.2,0.3-0.3c0.1-0.1,0.1-0.3,0.2-0.5
		c0-0.2,0-0.4,0-0.5v-3h1.1v3C242.4,122.8,242.2,123.3,241.8,123.7z"/>
	<path class="st5" d="M248.2,124.2v-2c0-0.1,0-0.2,0-0.4c0-0.1,0-0.2-0.1-0.3c0-0.1-0.1-0.2-0.2-0.2c-0.1-0.1-0.2-0.1-0.4-0.1
		s-0.3,0-0.4,0.1c-0.1,0.1-0.2,0.1-0.2,0.2c-0.1,0.1-0.1,0.2-0.1,0.3c0,0.1,0,0.2,0,0.4v1.9h-1v-2c0-0.1,0-0.2,0-0.3
		c0-0.1,0-0.2-0.1-0.3c0-0.1-0.1-0.2-0.2-0.2c-0.1-0.1-0.2-0.1-0.3-0.1c-0.1,0-0.3,0-0.3,0.1c-0.1,0.1-0.2,0.1-0.2,0.2
		c-0.1,0.1-0.1,0.2-0.1,0.3c0,0.1,0,0.2,0,0.4v2h-1v-2.4c0-0.2,0-0.4,0-0.6s0-0.4,0-0.6h1l0,0.6c0.1-0.2,0.3-0.4,0.5-0.5
		c0.2-0.1,0.4-0.1,0.7-0.1c0.3,0,0.5,0.1,0.7,0.2c0.2,0.1,0.3,0.3,0.4,0.5c0.1-0.2,0.3-0.4,0.5-0.5s0.5-0.2,0.7-0.2
		c0.2,0,0.4,0,0.6,0.1s0.3,0.2,0.4,0.3c0.1,0.1,0.2,0.3,0.2,0.4c0,0.2,0.1,0.4,0.1,0.6v2.2H248.2z"/>
	<path class="st5" d="M253.2,123.1c0,0.2-0.1,0.4-0.2,0.6s-0.2,0.3-0.4,0.4c-0.2,0.1-0.3,0.2-0.5,0.2c-0.2,0-0.4,0.1-0.6,0.1
		c-0.2,0-0.4,0-0.6-0.1s-0.4-0.1-0.5-0.2c-0.1-0.1-0.3-0.2-0.3-0.4s-0.1-0.4-0.1-0.6h1c0,0.2,0.1,0.4,0.2,0.5
		c0.1,0.1,0.2,0.2,0.5,0.2c0.1,0,0.1,0,0.2,0c0.1,0,0.1,0,0.2-0.1c0.1,0,0.1-0.1,0.1-0.1c0-0.1,0.1-0.1,0.1-0.2
		c0-0.1-0.1-0.2-0.2-0.3s-0.3-0.1-0.5-0.2l-0.4-0.1c-0.1,0-0.3-0.1-0.4-0.1c-0.1,0-0.2-0.1-0.3-0.2c-0.1-0.1-0.2-0.2-0.2-0.3
		c-0.1-0.1-0.1-0.2-0.1-0.4c0-0.2,0-0.4,0.1-0.5c0.1-0.1,0.2-0.2,0.4-0.3c0.1-0.1,0.3-0.1,0.5-0.2c0.2,0,0.4,0,0.5,0
		c0.2,0,0.4,0,0.6,0.1c0.2,0,0.3,0.1,0.5,0.2c0.1,0.1,0.3,0.2,0.3,0.4c0.1,0.1,0.1,0.3,0.2,0.5h-1c0-0.2-0.1-0.3-0.1-0.4
		c-0.1-0.1-0.2-0.2-0.4-0.2c-0.1,0-0.1,0-0.2,0c-0.1,0-0.1,0-0.2,0.1c-0.1,0-0.1,0.1-0.1,0.1c0,0,0,0.1,0,0.2c0,0.1,0.1,0.2,0.2,0.3
		c0.1,0.1,0.3,0.1,0.5,0.2l0.4,0.1c0.1,0,0.3,0.1,0.4,0.1c0.1,0,0.2,0.1,0.4,0.2s0.2,0.2,0.2,0.3S253.2,122.9,253.2,123.1z"/>
	<path class="st5" d="M254.8,122.6c0,0.1,0,0.3,0,0.4c0,0.1,0.1,0.2,0.1,0.3s0.1,0.2,0.3,0.2c0.1,0.1,0.2,0.1,0.4,0.1
		c0.4,0,0.7-0.2,0.7-0.6h1c0,0.2-0.1,0.4-0.2,0.6c-0.1,0.2-0.2,0.3-0.4,0.4c-0.2,0.1-0.3,0.2-0.5,0.2c-0.2,0-0.4,0.1-0.6,0.1
		c-0.6,0-1-0.2-1.3-0.5c-0.3-0.3-0.5-0.7-0.5-1.3c0-0.6,0.2-1.1,0.5-1.4c0.3-0.3,0.8-0.5,1.4-0.5c0.2,0,0.3,0,0.5,0.1
		c0.2,0,0.3,0.1,0.4,0.2c0.1,0.1,0.3,0.2,0.4,0.3c0.1,0.1,0.2,0.3,0.3,0.4c0.1,0.2,0.1,0.4,0.1,0.5c0,0.2,0,0.4,0,0.6H254.8z
		 M256.3,122c0-0.3-0.1-0.5-0.2-0.6c-0.1-0.2-0.3-0.2-0.6-0.2c-0.3,0-0.4,0.1-0.6,0.2c-0.1,0.2-0.2,0.4-0.2,0.6H256.3z"/>
	<path class="st5" d="M259.3,121.3v1.6c0,0.1,0,0.2,0,0.3s0,0.1,0.1,0.2c0,0,0.1,0.1,0.1,0.1s0.2,0,0.3,0c0.1,0,0.1,0,0.2,0
		c0.1,0,0.1,0,0.2,0v0.7c-0.1,0-0.2,0-0.4,0c-0.1,0-0.2,0-0.4,0c-0.2,0-0.3,0-0.5,0c-0.1,0-0.2-0.1-0.3-0.1
		c-0.1-0.1-0.2-0.2-0.2-0.3c0-0.1-0.1-0.3-0.1-0.5v-2h-0.7v-0.7h0.7V120l1-0.4v1h0.8v0.7H259.3z"/>
	<path class="st5" d="M260.5,124.2v-0.7l1.8-2.1h-1.8v-0.7h2.9v0.7l-1.8,2.1h1.9v0.7H260.5z"/>
	<path class="st5" d="M267.9,122.3c0,0.2,0,0.5-0.1,0.7c-0.1,0.2-0.2,0.4-0.3,0.6s-0.3,0.3-0.5,0.4c-0.2,0.1-0.4,0.2-0.7,0.2
		c-0.2,0-0.4,0-0.6-0.1c-0.2-0.1-0.3-0.2-0.5-0.4l0,0.5h-1c0-0.2,0-0.3,0-0.5c0-0.2,0-0.3,0-0.5v-4.1h1v2c0.1-0.2,0.3-0.3,0.5-0.4
		s0.4-0.1,0.6-0.1c0.3,0,0.5,0,0.7,0.1c0.2,0.1,0.4,0.2,0.5,0.4c0.1,0.2,0.2,0.4,0.3,0.6C267.9,121.9,267.9,122.1,267.9,122.3z
		 M266.9,122.4c0-0.1,0-0.3,0-0.4s-0.1-0.3-0.1-0.4s-0.1-0.2-0.2-0.3c-0.1-0.1-0.2-0.1-0.4-0.1c-0.2,0-0.3,0-0.4,0.1
		c-0.1,0.1-0.2,0.2-0.3,0.3c-0.1,0.1-0.1,0.2-0.1,0.4c0,0.1,0,0.3,0,0.4c0,0.1,0,0.3,0,0.4s0.1,0.3,0.1,0.4c0.1,0.1,0.1,0.2,0.2,0.3
		c0.1,0.1,0.2,0.1,0.4,0.1c0.2,0,0.3,0,0.4-0.1c0.1-0.1,0.2-0.2,0.3-0.3c0.1-0.1,0.1-0.2,0.1-0.4S266.9,122.5,266.9,122.4z"/>
	<path class="st5" d="M270.8,124.2c0-0.1,0-0.2-0.1-0.2c0-0.1,0-0.2,0-0.2c-0.1,0.2-0.3,0.4-0.5,0.4c-0.2,0.1-0.4,0.1-0.6,0.1
		c-0.2,0-0.3,0-0.5-0.1s-0.3-0.1-0.4-0.2c-0.1-0.1-0.2-0.2-0.3-0.3c-0.1-0.1-0.1-0.3-0.1-0.5c0-0.3,0.1-0.5,0.2-0.7
		c0.1-0.2,0.3-0.3,0.5-0.4c0.2-0.1,0.4-0.1,0.7-0.2c0.2,0,0.5,0,0.7,0h0.3v-0.1c0-0.1,0-0.2,0-0.3c0-0.1,0-0.2-0.1-0.2
		c0-0.1-0.1-0.1-0.2-0.2c-0.1,0-0.2-0.1-0.3-0.1c-0.2,0-0.3,0.1-0.4,0.2s-0.1,0.2-0.1,0.4h-1c0-0.2,0.1-0.4,0.1-0.5s0.2-0.3,0.4-0.3
		c0.2-0.1,0.3-0.1,0.5-0.2c0.2,0,0.4-0.1,0.6-0.1c0.2,0,0.5,0,0.6,0.1c0.2,0,0.4,0.1,0.5,0.2s0.2,0.2,0.3,0.4s0.1,0.4,0.1,0.7v1
		c0,0.2,0,0.4,0,0.6c0,0.2,0,0.4,0,0.6H270.8z M270.8,122.5c-0.1,0-0.1,0-0.1,0c0,0-0.1,0-0.1,0c-0.1,0-0.2,0-0.4,0s-0.2,0-0.4,0.1
		s-0.2,0.1-0.3,0.2s-0.1,0.2-0.1,0.3c0,0.2,0.1,0.3,0.2,0.4c0.1,0.1,0.2,0.1,0.4,0.1c0.2,0,0.3,0,0.4-0.1s0.2-0.2,0.2-0.3
		c0.1-0.1,0.1-0.2,0.1-0.4S270.8,122.7,270.8,122.5L270.8,122.5z"/>
	<path class="st5" d="M274.6,121.5c-0.3,0-0.6,0.1-0.7,0.3c-0.1,0.2-0.2,0.4-0.2,0.7v1.7h-1v-2.7c0-0.1,0-0.3,0-0.4
		c0-0.1,0-0.3,0-0.4h1l0,0.7c0.1-0.2,0.3-0.4,0.4-0.5s0.4-0.2,0.7-0.2c0,0,0.1,0,0.1,0s0.1,0,0.1,0v0.9
		C274.8,121.5,274.7,121.5,274.6,121.5z"/>
	<path class="st5" d="M275.5,124.2v-5.1h1v5.1H275.5z M278,124.2l-1.4-2l1.4-1.6h1.2l-1.4,1.5l1.6,2H278z"/>
	<path class="st5" d="M280.4,122.6c0,0.1,0,0.3,0,0.4c0,0.1,0.1,0.2,0.1,0.3s0.1,0.2,0.3,0.2c0.1,0.1,0.2,0.1,0.4,0.1
		c0.4,0,0.7-0.2,0.7-0.6h1c0,0.2-0.1,0.4-0.2,0.6c-0.1,0.2-0.2,0.3-0.4,0.4c-0.2,0.1-0.3,0.2-0.5,0.2c-0.2,0-0.4,0.1-0.6,0.1
		c-0.6,0-1-0.2-1.3-0.5c-0.3-0.3-0.5-0.7-0.5-1.3c0-0.6,0.2-1.1,0.5-1.4c0.3-0.3,0.8-0.5,1.4-0.5c0.2,0,0.3,0,0.5,0.1
		c0.2,0,0.3,0.1,0.4,0.2c0.1,0.1,0.3,0.2,0.4,0.3c0.1,0.1,0.2,0.3,0.3,0.4c0.1,0.2,0.1,0.4,0.1,0.5c0,0.2,0,0.4,0,0.6H280.4z
		 M282,122c0-0.3-0.1-0.5-0.2-0.6c-0.1-0.2-0.3-0.2-0.6-0.2c-0.3,0-0.4,0.1-0.6,0.2c-0.1,0.2-0.2,0.4-0.2,0.6H282z"/>
	<path class="st5" d="M283.7,119.9v-0.8h1.1v0.8H283.7z M283.7,124.2v-3.5h1v3.5H283.7z"/>
	<path class="st5" d="M287,121.3v1.6c0,0.1,0,0.2,0,0.3s0,0.1,0.1,0.2c0,0,0.1,0.1,0.1,0.1s0.2,0,0.3,0c0.1,0,0.1,0,0.2,0
		c0.1,0,0.1,0,0.2,0v0.7c-0.1,0-0.2,0-0.4,0c-0.1,0-0.2,0-0.4,0c-0.2,0-0.3,0-0.5,0c-0.1,0-0.2-0.1-0.3-0.1
		c-0.1-0.1-0.2-0.2-0.2-0.3c0-0.1-0.1-0.3-0.1-0.5v-2h-0.7v-0.7h0.7V120l1-0.4v1h0.8v0.7H287z"/>
</g>
<g>
	<path class="st5" d="M143.7,115.8v-5.1h1.1v5.1H143.7z"/>
	<path class="st5" d="M148.3,115.8l0-0.5c-0.2,0.2-0.3,0.3-0.5,0.4c-0.2,0.1-0.4,0.1-0.6,0.1c-0.3,0-0.5,0-0.7-0.1
		c-0.2-0.1-0.4-0.2-0.5-0.4s-0.2-0.4-0.3-0.6c-0.1-0.2-0.1-0.5-0.1-0.7c0-0.2,0-0.4,0.1-0.7c0.1-0.2,0.1-0.4,0.3-0.6
		c0.1-0.2,0.3-0.3,0.5-0.4s0.4-0.2,0.7-0.2c0.2,0,0.5,0,0.6,0.1c0.2,0.1,0.3,0.2,0.5,0.4v-2h1v4.1c0,0.2,0,0.3,0,0.5
		c0,0.2,0,0.3,0,0.5H148.3z M148.3,114c0-0.1,0-0.3,0-0.4c0-0.1-0.1-0.3-0.1-0.4c-0.1-0.1-0.2-0.2-0.3-0.3c-0.1-0.1-0.2-0.1-0.4-0.1
		c-0.2,0-0.3,0-0.4,0.1c-0.1,0.1-0.2,0.2-0.2,0.3c-0.1,0.1-0.1,0.2-0.1,0.4s0,0.3,0,0.4c0,0.1,0,0.3,0,0.4s0.1,0.3,0.1,0.4
		s0.1,0.2,0.3,0.3c0.1,0.1,0.2,0.1,0.4,0.1c0.2,0,0.3,0,0.4-0.1c0.1-0.1,0.2-0.2,0.2-0.3c0.1-0.1,0.1-0.2,0.1-0.4
		C148.3,114.2,148.3,114.1,148.3,114z"/>
	<path class="st5" d="M151.1,114.2c0,0.1,0,0.3,0,0.4c0,0.1,0.1,0.2,0.1,0.3s0.1,0.2,0.3,0.2c0.1,0.1,0.2,0.1,0.4,0.1
		c0.4,0,0.7-0.2,0.7-0.6h1c0,0.2-0.1,0.4-0.2,0.6s-0.2,0.3-0.4,0.4c-0.2,0.1-0.3,0.2-0.5,0.2s-0.4,0.1-0.6,0.1c-0.6,0-1-0.2-1.3-0.5
		c-0.3-0.3-0.5-0.7-0.5-1.3c0-0.6,0.2-1.1,0.5-1.4c0.3-0.3,0.8-0.5,1.4-0.5c0.2,0,0.3,0,0.5,0.1s0.3,0.1,0.4,0.2s0.3,0.2,0.4,0.3
		s0.2,0.3,0.3,0.4c0.1,0.2,0.1,0.4,0.1,0.5c0,0.2,0,0.4,0,0.6H151.1z M152.7,113.6c0-0.3-0.1-0.5-0.2-0.6c-0.1-0.2-0.3-0.2-0.6-0.2
		c-0.3,0-0.4,0.1-0.6,0.2c-0.1,0.2-0.2,0.4-0.2,0.6H152.7z"/>
	<path class="st5" d="M155.2,114.2c0,0.1,0,0.3,0,0.4c0,0.1,0.1,0.2,0.1,0.3s0.1,0.2,0.3,0.2c0.1,0.1,0.2,0.1,0.4,0.1
		c0.4,0,0.7-0.2,0.7-0.6h1c0,0.2-0.1,0.4-0.2,0.6s-0.2,0.3-0.4,0.4c-0.2,0.1-0.3,0.2-0.5,0.2s-0.4,0.1-0.6,0.1c-0.6,0-1-0.2-1.3-0.5
		c-0.3-0.3-0.5-0.7-0.5-1.3c0-0.6,0.2-1.1,0.5-1.4c0.3-0.3,0.8-0.5,1.4-0.5c0.2,0,0.3,0,0.5,0.1s0.3,0.1,0.4,0.2s0.3,0.2,0.4,0.3
		s0.2,0.3,0.3,0.4c0.1,0.2,0.1,0.4,0.1,0.5c0,0.2,0,0.4,0,0.6H155.2z M156.7,113.6c0-0.3-0.1-0.5-0.2-0.6c-0.1-0.2-0.3-0.2-0.6-0.2
		c-0.3,0-0.4,0.1-0.6,0.2c-0.1,0.2-0.2,0.4-0.2,0.6H156.7z"/>
	<path class="st5" d="M160.9,115.8v-1.9c0-0.1,0-0.2,0-0.4c0-0.1,0-0.2-0.1-0.3c0-0.1-0.1-0.2-0.2-0.2c-0.1-0.1-0.2-0.1-0.4-0.1
		c-0.2,0-0.3,0-0.4,0.1c-0.1,0.1-0.2,0.2-0.2,0.3s-0.1,0.2-0.1,0.4c0,0.1,0,0.2,0,0.3v1.8h-1v-2.8c0-0.1,0-0.2,0-0.3
		c0-0.1,0-0.2,0-0.4h1l0,0.5c0.2-0.2,0.3-0.4,0.5-0.5s0.4-0.1,0.7-0.1c0.4,0,0.8,0.1,1,0.3c0.2,0.2,0.3,0.5,0.3,1v2.3H160.9z"/>
	<path class="st5" d="M169.8,115.8h-1.1l-0.8-2.7l-0.9,2.7h-1.1l-1.2-3.5h1.1l0.7,2.7l0.9-2.7h1.2l0.8,2.7l0.7-2.7h1L169.8,115.8z"
		/>
	<path class="st5" d="M172.2,114.2c0,0.1,0,0.3,0,0.4c0,0.1,0.1,0.2,0.1,0.3s0.1,0.2,0.3,0.2c0.1,0.1,0.2,0.1,0.4,0.1
		c0.4,0,0.7-0.2,0.7-0.6h1c0,0.2-0.1,0.4-0.2,0.6s-0.2,0.3-0.4,0.4c-0.2,0.1-0.3,0.2-0.5,0.2s-0.4,0.1-0.6,0.1c-0.6,0-1-0.2-1.3-0.5
		c-0.3-0.3-0.5-0.7-0.5-1.3c0-0.6,0.2-1.1,0.5-1.4c0.3-0.3,0.8-0.5,1.4-0.5c0.2,0,0.3,0,0.5,0.1s0.3,0.1,0.4,0.2s0.3,0.2,0.4,0.3
		s0.2,0.3,0.3,0.4c0.1,0.2,0.1,0.4,0.1,0.5c0,0.2,0,0.4,0,0.6H172.2z M173.8,113.6c0-0.3-0.1-0.5-0.2-0.6c-0.1-0.2-0.3-0.2-0.6-0.2
		c-0.3,0-0.4,0.1-0.6,0.2c-0.1,0.2-0.2,0.4-0.2,0.6H173.8z"/>
	<path class="st5" d="M177.5,113.1c-0.3,0-0.6,0.1-0.7,0.3c-0.1,0.2-0.2,0.4-0.2,0.7v1.7h-1v-2.7c0-0.1,0-0.3,0-0.4
		c0-0.1,0-0.3,0-0.4h1l0,0.7c0.1-0.2,0.3-0.4,0.4-0.5c0.2-0.1,0.4-0.2,0.7-0.2c0,0,0.1,0,0.1,0c0,0,0.1,0,0.1,0v0.9
		C177.7,113.1,177.6,113.1,177.5,113.1z"/>
	<path class="st5" d="M180.7,115.8l0-0.5c-0.2,0.2-0.3,0.3-0.5,0.4c-0.2,0.1-0.4,0.1-0.6,0.1c-0.3,0-0.5,0-0.7-0.1
		c-0.2-0.1-0.4-0.2-0.5-0.4s-0.2-0.4-0.3-0.6c-0.1-0.2-0.1-0.5-0.1-0.7c0-0.2,0-0.4,0.1-0.7c0.1-0.2,0.1-0.4,0.3-0.6
		c0.1-0.2,0.3-0.3,0.5-0.4s0.4-0.2,0.7-0.2c0.2,0,0.5,0,0.6,0.1c0.2,0.1,0.3,0.2,0.5,0.4v-2h1v4.1c0,0.2,0,0.3,0,0.5
		c0,0.2,0,0.3,0,0.5H180.7z M180.7,114c0-0.1,0-0.3,0-0.4c0-0.1-0.1-0.3-0.1-0.4c-0.1-0.1-0.2-0.2-0.3-0.3c-0.1-0.1-0.2-0.1-0.4-0.1
		c-0.2,0-0.3,0-0.4,0.1c-0.1,0.1-0.2,0.2-0.2,0.3c-0.1,0.1-0.1,0.2-0.1,0.4s0,0.3,0,0.4c0,0.1,0,0.3,0,0.4s0.1,0.3,0.1,0.4
		s0.1,0.2,0.3,0.3c0.1,0.1,0.2,0.1,0.4,0.1c0.2,0,0.3,0,0.4-0.1c0.1-0.1,0.2-0.2,0.2-0.3c0.1-0.1,0.1-0.2,0.1-0.4
		C180.7,114.2,180.7,114.1,180.7,114z"/>
	<path class="st5" d="M183.4,114.2c0,0.1,0,0.3,0,0.4c0,0.1,0.1,0.2,0.1,0.3s0.1,0.2,0.3,0.2c0.1,0.1,0.2,0.1,0.4,0.1
		c0.4,0,0.7-0.2,0.7-0.6h1c0,0.2-0.1,0.4-0.2,0.6s-0.2,0.3-0.4,0.4c-0.2,0.1-0.3,0.2-0.5,0.2s-0.4,0.1-0.6,0.1c-0.6,0-1-0.2-1.3-0.5
		c-0.3-0.3-0.5-0.7-0.5-1.3c0-0.6,0.2-1.1,0.5-1.4c0.3-0.3,0.8-0.5,1.4-0.5c0.2,0,0.3,0,0.5,0.1s0.3,0.1,0.4,0.2s0.3,0.2,0.4,0.3
		s0.2,0.3,0.3,0.4c0.1,0.2,0.1,0.4,0.1,0.5c0,0.2,0,0.4,0,0.6H183.4z M185,113.6c0-0.3-0.1-0.5-0.2-0.6c-0.1-0.2-0.3-0.2-0.6-0.2
		c-0.3,0-0.4,0.1-0.6,0.2c-0.1,0.2-0.2,0.4-0.2,0.6H185z"/>
	<path class="st5" d="M189.2,115.8v-1.9c0-0.1,0-0.2,0-0.4c0-0.1,0-0.2-0.1-0.3c0-0.1-0.1-0.2-0.2-0.2c-0.1-0.1-0.2-0.1-0.4-0.1
		c-0.2,0-0.3,0-0.4,0.1c-0.1,0.1-0.2,0.2-0.2,0.3s-0.1,0.2-0.1,0.4c0,0.1,0,0.2,0,0.3v1.8h-1v-2.8c0-0.1,0-0.2,0-0.3
		c0-0.1,0-0.2,0-0.4h1l0,0.5c0.2-0.2,0.3-0.4,0.5-0.5s0.4-0.1,0.7-0.1c0.4,0,0.8,0.1,1,0.3c0.2,0.2,0.3,0.5,0.3,1v2.3H189.2z"/>
	<path class="st5" d="M193.1,115.8v-0.7l1.8-2.1h-1.8v-0.7h2.9v0.7l-1.8,2.1h1.9v0.7H193.1z"/>
	<path class="st5" d="M199.3,115.8l0-0.5c-0.2,0.2-0.3,0.4-0.5,0.5c-0.2,0.1-0.4,0.1-0.7,0.1c-0.4,0-0.8-0.1-1-0.3s-0.3-0.5-0.3-1
		v-2.3h1v1.9c0,0.1,0,0.2,0,0.4c0,0.1,0,0.2,0.1,0.3c0,0.1,0.1,0.2,0.2,0.2c0.1,0.1,0.2,0.1,0.4,0.1s0.3,0,0.4-0.1s0.2-0.1,0.2-0.3
		s0.1-0.2,0.1-0.3c0-0.1,0-0.3,0-0.4v-1.8h1v2.2c0,0.2,0,0.4,0,0.6c0,0.2,0,0.4,0,0.7H199.3z"/>
	<path class="st5" d="M144.6,119.9v4.3h-1.1v-4.3h-1.6v-0.8h4.3v0.8H144.6z"/>
	<path class="st5" d="M149,124.2v-1.9c0-0.1,0-0.2,0-0.4s0-0.2-0.1-0.3s-0.1-0.2-0.2-0.2c-0.1-0.1-0.2-0.1-0.4-0.1
		c-0.2,0-0.3,0-0.4,0.1s-0.2,0.2-0.2,0.3s-0.1,0.2-0.1,0.4s0,0.2,0,0.3v1.8h-1v-5.1h1l0,2c0.1-0.2,0.3-0.3,0.5-0.4
		c0.2-0.1,0.4-0.1,0.6-0.1c0.4,0,0.8,0.1,1,0.3c0.2,0.2,0.3,0.5,0.3,1v2.3H149z"/>
	<path class="st5" d="M151.7,122.6c0,0.1,0,0.3,0,0.4c0,0.1,0.1,0.2,0.1,0.3s0.1,0.2,0.3,0.2c0.1,0.1,0.2,0.1,0.4,0.1
		c0.4,0,0.7-0.2,0.7-0.6h1c0,0.2-0.1,0.4-0.2,0.6s-0.2,0.3-0.4,0.4c-0.2,0.1-0.3,0.2-0.5,0.2s-0.4,0.1-0.6,0.1c-0.6,0-1-0.2-1.3-0.5
		c-0.3-0.3-0.5-0.7-0.5-1.3c0-0.6,0.2-1.1,0.5-1.4c0.3-0.3,0.8-0.5,1.4-0.5c0.2,0,0.3,0,0.5,0.1s0.3,0.1,0.4,0.2s0.3,0.2,0.4,0.3
		s0.2,0.3,0.3,0.4c0.1,0.2,0.1,0.4,0.1,0.5c0,0.2,0,0.4,0,0.6H151.7z M153.3,122c0-0.3-0.1-0.5-0.2-0.6c-0.1-0.2-0.3-0.2-0.6-0.2
		c-0.3,0-0.4,0.1-0.6,0.2c-0.1,0.2-0.2,0.4-0.2,0.6H153.3z"/>
	<path class="st5" d="M159.8,124.2v-2c0-0.1,0-0.2,0-0.4c0-0.1,0-0.2-0.1-0.3c0-0.1-0.1-0.2-0.2-0.2c-0.1-0.1-0.2-0.1-0.4-0.1
		s-0.3,0-0.4,0.1s-0.2,0.1-0.2,0.2c-0.1,0.1-0.1,0.2-0.1,0.3c0,0.1,0,0.2,0,0.4v1.9h-1v-2c0-0.1,0-0.2,0-0.3c0-0.1,0-0.2-0.1-0.3
		c0-0.1-0.1-0.2-0.2-0.2s-0.2-0.1-0.3-0.1s-0.3,0-0.4,0.1s-0.2,0.1-0.2,0.2c-0.1,0.1-0.1,0.2-0.1,0.3c0,0.1,0,0.2,0,0.4v2h-1v-2.4
		c0-0.2,0-0.4,0-0.6c0-0.2,0-0.4,0-0.6h1l0,0.6c0.1-0.2,0.3-0.4,0.5-0.5c0.2-0.1,0.4-0.1,0.7-0.1c0.3,0,0.5,0.1,0.7,0.2
		s0.3,0.3,0.4,0.5c0.1-0.2,0.3-0.4,0.5-0.5c0.2-0.1,0.5-0.2,0.7-0.2c0.2,0,0.4,0,0.6,0.1c0.2,0.1,0.3,0.2,0.4,0.3
		c0.1,0.1,0.2,0.3,0.2,0.4c0,0.2,0.1,0.4,0.1,0.6v2.2H159.8z"/>
	<path class="st5" d="M162.6,122.6c0,0.1,0,0.3,0,0.4c0,0.1,0.1,0.2,0.1,0.3s0.1,0.2,0.3,0.2c0.1,0.1,0.2,0.1,0.4,0.1
		c0.4,0,0.7-0.2,0.7-0.6h1c0,0.2-0.1,0.4-0.2,0.6s-0.2,0.3-0.4,0.4c-0.2,0.1-0.3,0.2-0.5,0.2s-0.4,0.1-0.6,0.1c-0.6,0-1-0.2-1.3-0.5
		c-0.3-0.3-0.5-0.7-0.5-1.3c0-0.6,0.2-1.1,0.5-1.4c0.3-0.3,0.8-0.5,1.4-0.5c0.2,0,0.3,0,0.5,0.1s0.3,0.1,0.4,0.2s0.3,0.2,0.4,0.3
		s0.2,0.3,0.3,0.4c0.1,0.2,0.1,0.4,0.1,0.5c0,0.2,0,0.4,0,0.6H162.6z M164.1,122c0-0.3-0.1-0.5-0.2-0.6c-0.1-0.2-0.3-0.2-0.6-0.2
		c-0.3,0-0.4,0.1-0.6,0.2c-0.1,0.2-0.2,0.4-0.2,0.6H164.1z"/>
	<path class="st5" d="M168.3,124.2v-1.9c0-0.1,0-0.2,0-0.4c0-0.1,0-0.2-0.1-0.3c0-0.1-0.1-0.2-0.2-0.2c-0.1-0.1-0.2-0.1-0.4-0.1
		c-0.2,0-0.3,0-0.4,0.1c-0.1,0.1-0.2,0.2-0.2,0.3s-0.1,0.2-0.1,0.4c0,0.1,0,0.2,0,0.3v1.8h-1v-2.8c0-0.1,0-0.2,0-0.3
		c0-0.1,0-0.2,0-0.4h1l0,0.5c0.2-0.2,0.3-0.4,0.5-0.5s0.4-0.1,0.7-0.1c0.4,0,0.8,0.1,1,0.3c0.2,0.2,0.3,0.5,0.3,1v2.3H168.3z"/>
	<path class="st5" d="M176,120.6c0,0.2,0,0.4,0,0.6c0,0.2,0,0.3,0,0.4v1.9c0,0.7-0.1,1.2-0.4,1.6c-0.3,0.3-0.8,0.5-1.4,0.5
		c-0.2,0-0.4,0-0.6,0s-0.4-0.1-0.5-0.2c-0.2-0.1-0.3-0.2-0.4-0.3s-0.2-0.3-0.2-0.5v-0.1h1c0,0.1,0,0.2,0.1,0.3
		c0,0.1,0.1,0.1,0.2,0.2c0.1,0,0.1,0.1,0.2,0.1c0.1,0,0.2,0,0.3,0c0.2,0,0.3,0,0.4-0.1c0.1,0,0.2-0.1,0.2-0.2
		c0.1-0.1,0.1-0.2,0.1-0.3c0-0.1,0-0.2,0-0.4c0-0.1,0-0.2,0-0.2s0-0.2,0-0.2c-0.3,0.4-0.6,0.6-1.1,0.6c-0.3,0-0.5,0-0.7-0.1
		c-0.2-0.1-0.4-0.2-0.5-0.4c-0.1-0.2-0.2-0.3-0.3-0.6c-0.1-0.2-0.1-0.4-0.1-0.7c0-0.2,0-0.5,0.1-0.7c0.1-0.2,0.2-0.4,0.3-0.6
		c0.1-0.2,0.3-0.3,0.5-0.4c0.2-0.1,0.4-0.1,0.7-0.1c0.3,0,0.5,0,0.7,0.1c0.2,0.1,0.4,0.3,0.5,0.5v-0.5H176z M175,122.3
		c0-0.1,0-0.3,0-0.4c0-0.1-0.1-0.3-0.1-0.4c-0.1-0.1-0.1-0.2-0.2-0.3c-0.1-0.1-0.2-0.1-0.4-0.1c-0.2,0-0.3,0-0.4,0.1
		s-0.2,0.2-0.3,0.3s-0.1,0.2-0.1,0.4c0,0.1,0,0.3,0,0.4c0,0.1,0,0.3,0,0.4c0,0.1,0.1,0.3,0.1,0.4c0.1,0.1,0.1,0.2,0.2,0.3
		c0.1,0.1,0.2,0.1,0.4,0.1s0.3,0,0.4-0.1s0.2-0.2,0.3-0.3s0.1-0.2,0.1-0.4C174.9,122.6,175,122.4,175,122.3z"/>
	<path class="st5" d="M178.9,121.5c-0.3,0-0.6,0.1-0.7,0.3c-0.1,0.2-0.2,0.4-0.2,0.7v1.7h-1v-2.7c0-0.1,0-0.3,0-0.4
		c0-0.1,0-0.3,0-0.4h1l0,0.7c0.1-0.2,0.3-0.4,0.4-0.5c0.2-0.1,0.4-0.2,0.7-0.2c0,0,0.1,0,0.1,0c0,0,0.1,0,0.1,0v0.9
		C179.1,121.5,179,121.5,178.9,121.5z"/>
	<path class="st5" d="M182.2,124.2l0-0.5c-0.2,0.2-0.3,0.4-0.5,0.5c-0.2,0.1-0.4,0.1-0.7,0.1c-0.4,0-0.8-0.1-1-0.3s-0.3-0.5-0.3-1
		v-2.3h1v1.9c0,0.1,0,0.2,0,0.4c0,0.1,0,0.2,0.1,0.3c0,0.1,0.1,0.2,0.2,0.2c0.1,0.1,0.2,0.1,0.4,0.1s0.3,0,0.4-0.1s0.2-0.1,0.2-0.3
		s0.1-0.2,0.1-0.3c0-0.1,0-0.3,0-0.4v-1.8h1v2.2c0,0.2,0,0.4,0,0.6c0,0.2,0,0.4,0,0.7H182.2z"/>
	<path class="st5" d="M187.9,122.3c0,0.2,0,0.5-0.1,0.7s-0.2,0.4-0.3,0.6c-0.1,0.2-0.3,0.3-0.5,0.4c-0.2,0.1-0.4,0.2-0.7,0.2
		c-0.2,0-0.4,0-0.6-0.1c-0.2-0.1-0.3-0.2-0.5-0.4v1.8h-1v-4c0-0.1,0-0.3,0-0.4c0-0.1,0-0.3,0-0.4h1l0,0.5c0.1-0.2,0.3-0.4,0.5-0.5
		s0.4-0.1,0.7-0.1c0.3,0,0.5,0,0.7,0.1c0.2,0.1,0.4,0.2,0.5,0.4s0.2,0.3,0.3,0.6C187.9,121.9,187.9,122.1,187.9,122.3z M186.8,122.4
		c0-0.1,0-0.3,0-0.4c0-0.1-0.1-0.3-0.1-0.4c-0.1-0.1-0.1-0.2-0.2-0.3c-0.1-0.1-0.2-0.1-0.4-0.1c-0.2,0-0.3,0-0.4,0.1
		s-0.2,0.2-0.3,0.3s-0.1,0.2-0.1,0.4c0,0.1,0,0.3,0,0.4c0,0.1,0,0.3,0,0.4c0,0.1,0.1,0.3,0.1,0.4c0.1,0.1,0.1,0.2,0.2,0.3
		c0.1,0.1,0.2,0.1,0.4,0.1c0.2,0,0.3,0,0.4-0.1c0.1-0.1,0.2-0.2,0.3-0.3c0.1-0.1,0.1-0.3,0.1-0.4
		C186.8,122.7,186.8,122.5,186.8,122.4z"/>
	<path class="st5" d="M192.3,122.3c0,0.2,0,0.5-0.1,0.7s-0.2,0.4-0.3,0.6c-0.1,0.2-0.3,0.3-0.5,0.4c-0.2,0.1-0.4,0.2-0.7,0.2
		c-0.2,0-0.4,0-0.6-0.1c-0.2-0.1-0.3-0.2-0.5-0.4v1.8h-1v-4c0-0.1,0-0.3,0-0.4c0-0.1,0-0.3,0-0.4h1l0,0.5c0.1-0.2,0.3-0.4,0.5-0.5
		s0.4-0.1,0.7-0.1c0.3,0,0.5,0,0.7,0.1c0.2,0.1,0.4,0.2,0.5,0.4s0.2,0.3,0.3,0.6C192.3,121.9,192.3,122.1,192.3,122.3z M191.3,122.4
		c0-0.1,0-0.3,0-0.4c0-0.1-0.1-0.3-0.1-0.4c-0.1-0.1-0.1-0.2-0.2-0.3c-0.1-0.1-0.2-0.1-0.4-0.1c-0.2,0-0.3,0-0.4,0.1
		s-0.2,0.2-0.3,0.3s-0.1,0.2-0.1,0.4c0,0.1,0,0.3,0,0.4c0,0.1,0,0.3,0,0.4c0,0.1,0.1,0.3,0.1,0.4c0.1,0.1,0.1,0.2,0.2,0.3
		c0.1,0.1,0.2,0.1,0.4,0.1c0.2,0,0.3,0,0.4-0.1c0.1-0.1,0.2-0.2,0.3-0.3c0.1-0.1,0.1-0.3,0.1-0.4
		C191.3,122.7,191.3,122.5,191.3,122.4z"/>
	<path class="st5" d="M193.1,119.9v-0.8h1.1v0.8H193.1z M193.1,124.2v-3.5h1v3.5H193.1z"/>
	<path class="st5" d="M195.9,122.6c0,0.1,0,0.3,0,0.4c0,0.1,0.1,0.2,0.1,0.3s0.1,0.2,0.3,0.2c0.1,0.1,0.2,0.1,0.4,0.1
		c0.4,0,0.7-0.2,0.7-0.6h1c0,0.2-0.1,0.4-0.2,0.6s-0.2,0.3-0.4,0.4c-0.2,0.1-0.3,0.2-0.5,0.2s-0.4,0.1-0.6,0.1c-0.6,0-1-0.2-1.3-0.5
		c-0.3-0.3-0.5-0.7-0.5-1.3c0-0.6,0.2-1.1,0.5-1.4c0.3-0.3,0.8-0.5,1.4-0.5c0.2,0,0.3,0,0.5,0.1s0.3,0.1,0.4,0.2s0.3,0.2,0.4,0.3
		s0.2,0.3,0.3,0.4c0.1,0.2,0.1,0.4,0.1,0.5c0,0.2,0,0.4,0,0.6H195.9z M197.4,122c0-0.3-0.1-0.5-0.2-0.6c-0.1-0.2-0.3-0.2-0.6-0.2
		c-0.3,0-0.4,0.1-0.6,0.2c-0.1,0.2-0.2,0.4-0.2,0.6H197.4z"/>
	<path class="st5" d="M201.1,121.5c-0.3,0-0.6,0.1-0.7,0.3c-0.1,0.2-0.2,0.4-0.2,0.7v1.7h-1v-2.7c0-0.1,0-0.3,0-0.4
		c0-0.1,0-0.3,0-0.4h1l0,0.7c0.1-0.2,0.3-0.4,0.4-0.5c0.2-0.1,0.4-0.2,0.7-0.2c0,0,0.1,0,0.1,0c0,0,0.1,0,0.1,0v0.9
		C201.3,121.5,201.2,121.5,201.1,121.5z"/>
	<path class="st5" d="M203.2,121.3v1.6c0,0.1,0,0.2,0,0.3c0,0.1,0,0.1,0.1,0.2c0,0,0.1,0.1,0.1,0.1s0.2,0,0.3,0c0.1,0,0.1,0,0.2,0
		s0.1,0,0.2,0v0.7c-0.1,0-0.2,0-0.4,0c-0.1,0-0.2,0-0.4,0c-0.2,0-0.3,0-0.5,0s-0.2-0.1-0.3-0.1c-0.1-0.1-0.2-0.2-0.2-0.3
		c0-0.1-0.1-0.3-0.1-0.5v-2h-0.7v-0.7h0.7V120l1-0.4v1h0.8v0.7H203.2z"/>
</g>
<g>
	<path class="st5" d="M193.5,58.5c-0.4,0.4-0.9,0.6-1.7,0.6c-0.2,0-0.4,0-0.6,0c-0.2,0-0.4-0.1-0.5-0.1c-0.2-0.1-0.3-0.2-0.5-0.3
		c-0.1-0.1-0.3-0.3-0.4-0.4c-0.1-0.2-0.2-0.4-0.2-0.7s0-0.5,0-0.7v-2.9h1.1v3c0,0.2,0,0.4,0,0.5s0.1,0.3,0.2,0.4
		c0.1,0.1,0.2,0.2,0.3,0.3c0.1,0.1,0.3,0.1,0.6,0.1s0.4,0,0.6-0.1c0.1-0.1,0.3-0.2,0.3-0.3c0.1-0.1,0.1-0.3,0.2-0.5
		c0-0.2,0-0.4,0-0.5v-3h1.1v3C194.1,57.6,193.9,58.1,193.5,58.5z M190.5,53.5v-0.8h0.9v0.8H190.5z M192.2,53.5v-0.8h0.9v0.8H192.2z"
		/>
	<path class="st5" d="M198.8,57.1c0,0.2,0,0.5-0.1,0.7s-0.2,0.4-0.3,0.6c-0.1,0.2-0.3,0.3-0.5,0.4s-0.4,0.2-0.7,0.2
		c-0.2,0-0.4,0-0.6-0.1c-0.2-0.1-0.3-0.2-0.5-0.4l0,0.5h-1c0-0.2,0-0.3,0-0.5c0-0.2,0-0.3,0-0.5v-4.1h1v2c0.1-0.2,0.3-0.3,0.5-0.4
		c0.2-0.1,0.4-0.1,0.6-0.1c0.3,0,0.5,0,0.7,0.1s0.4,0.2,0.5,0.4c0.1,0.2,0.2,0.4,0.3,0.6C198.8,56.7,198.8,56.9,198.8,57.1z
		 M197.7,57.1c0-0.1,0-0.3,0-0.4s-0.1-0.3-0.1-0.4c-0.1-0.1-0.1-0.2-0.2-0.3c-0.1-0.1-0.2-0.1-0.4-0.1c-0.2,0-0.3,0-0.4,0.1
		c-0.1,0.1-0.2,0.2-0.3,0.3c-0.1,0.1-0.1,0.2-0.1,0.4c0,0.1,0,0.3,0,0.4c0,0.1,0,0.3,0,0.4c0,0.1,0.1,0.3,0.1,0.4
		c0.1,0.1,0.1,0.2,0.2,0.3c0.1,0.1,0.2,0.1,0.4,0.1c0.2,0,0.3,0,0.4-0.1c0.1-0.1,0.2-0.2,0.3-0.3s0.1-0.2,0.1-0.4
		S197.7,57.3,197.7,57.1z"/>
	<path class="st5" d="M200.3,57.4c0,0.1,0,0.3,0,0.4c0,0.1,0.1,0.2,0.1,0.3s0.1,0.2,0.3,0.2c0.1,0.1,0.2,0.1,0.4,0.1
		c0.4,0,0.7-0.2,0.7-0.6h1c0,0.2-0.1,0.4-0.2,0.6s-0.2,0.3-0.4,0.4c-0.2,0.1-0.3,0.2-0.5,0.2s-0.4,0.1-0.6,0.1c-0.6,0-1-0.2-1.3-0.5
		c-0.3-0.3-0.5-0.7-0.5-1.3c0-0.6,0.2-1.1,0.5-1.4c0.3-0.3,0.8-0.5,1.4-0.5c0.2,0,0.3,0,0.5,0.1s0.3,0.1,0.4,0.2s0.3,0.2,0.4,0.3
		s0.2,0.3,0.3,0.4c0.1,0.2,0.1,0.4,0.1,0.5c0,0.2,0,0.4,0,0.6H200.3z M201.9,56.8c0-0.3-0.1-0.5-0.2-0.6c-0.1-0.2-0.3-0.2-0.6-0.2
		c-0.3,0-0.4,0.1-0.6,0.2c-0.1,0.2-0.2,0.4-0.2,0.6H201.9z"/>
	<path class="st5" d="M205.5,56.3c-0.3,0-0.6,0.1-0.7,0.3c-0.1,0.2-0.2,0.4-0.2,0.7v1.7h-1v-2.7c0-0.1,0-0.3,0-0.4
		c0-0.1,0-0.3,0-0.4h1l0,0.7c0.1-0.2,0.3-0.4,0.4-0.5c0.2-0.1,0.4-0.2,0.7-0.2c0,0,0.1,0,0.1,0c0,0,0.1,0,0.1,0v0.9
		C205.7,56.3,205.6,56.3,205.5,56.3z"/>
	<path class="st5" d="M210.1,57.1c0,0.2,0,0.5-0.1,0.7s-0.2,0.4-0.3,0.6c-0.1,0.2-0.3,0.3-0.5,0.4c-0.2,0.1-0.4,0.2-0.7,0.2
		c-0.2,0-0.4,0-0.6-0.1c-0.2-0.1-0.3-0.2-0.5-0.4v1.8h-1v-4c0-0.1,0-0.3,0-0.4c0-0.1,0-0.3,0-0.4h1l0,0.5c0.1-0.2,0.3-0.4,0.5-0.5
		s0.4-0.1,0.7-0.1c0.3,0,0.5,0,0.7,0.1c0.2,0.1,0.4,0.2,0.5,0.4s0.2,0.3,0.3,0.6C210.1,56.7,210.1,56.9,210.1,57.1z M209.1,57.2
		c0-0.1,0-0.3,0-0.4c0-0.1-0.1-0.3-0.1-0.4c-0.1-0.1-0.1-0.2-0.2-0.3c-0.1-0.1-0.2-0.1-0.4-0.1c-0.2,0-0.3,0-0.4,0.1
		s-0.2,0.2-0.3,0.3s-0.1,0.2-0.1,0.4c0,0.1,0,0.3,0,0.4c0,0.1,0,0.3,0,0.4c0,0.1,0.1,0.3,0.1,0.4c0.1,0.1,0.1,0.2,0.2,0.3
		c0.1,0.1,0.2,0.1,0.4,0.1c0.2,0,0.3,0,0.4-0.1c0.1-0.1,0.2-0.2,0.3-0.3c0.1-0.1,0.1-0.3,0.1-0.4C209,57.4,209.1,57.3,209.1,57.2z"
		/>
	<path class="st5" d="M212.8,56.3c-0.3,0-0.6,0.1-0.7,0.3c-0.1,0.2-0.2,0.4-0.2,0.7v1.7h-1v-2.7c0-0.1,0-0.3,0-0.4
		c0-0.1,0-0.3,0-0.4h1l0,0.7c0.1-0.2,0.3-0.4,0.4-0.5c0.2-0.1,0.4-0.2,0.7-0.2c0,0,0.1,0,0.1,0c0,0,0.1,0,0.1,0v0.9
		C213,56.3,212.9,56.3,212.8,56.3z"/>
	<path class="st5" d="M216.1,58.9l0-0.5c-0.2,0.2-0.3,0.4-0.5,0.5c-0.2,0.1-0.4,0.1-0.7,0.1c-0.4,0-0.8-0.1-1-0.3s-0.3-0.5-0.3-1
		v-2.3h1v1.9c0,0.1,0,0.2,0,0.4c0,0.1,0,0.2,0.1,0.3c0,0.1,0.1,0.2,0.2,0.2c0.1,0.1,0.2,0.1,0.4,0.1s0.3,0,0.4-0.1s0.2-0.1,0.2-0.3
		s0.1-0.2,0.1-0.3c0-0.1,0-0.3,0-0.4v-1.8h1v2.2c0,0.2,0,0.4,0,0.6c0,0.2,0,0.4,0,0.7H216.1z M214.1,54.7v-0.8h0.9v0.8H214.1z
		 M215.8,54.7v-0.8h0.9v0.8H215.8z"/>
	<path class="st5" d="M220.1,54.6c-0.1,0-0.1,0-0.2,0c-0.1,0-0.2,0-0.3,0c-0.1,0-0.1,0.1-0.2,0.1s-0.1,0.1-0.1,0.2
		c0,0.1,0,0.1,0,0.2v0.3h0.8v0.7h-0.8v2.9h-1v-2.9h-0.7v-0.7h0.7v-0.3c0-0.4,0.1-0.7,0.3-0.9c0.2-0.2,0.5-0.3,0.9-0.3
		c0.1,0,0.2,0,0.3,0c0.1,0,0.2,0,0.3,0v0.7C220.2,54.6,220.2,54.6,220.1,54.6z"/>
	<path class="st5" d="M223.3,58.9l0-0.5c-0.2,0.2-0.3,0.4-0.5,0.5c-0.2,0.1-0.4,0.1-0.7,0.1c-0.4,0-0.8-0.1-1-0.3s-0.3-0.5-0.3-1
		v-2.3h1v1.9c0,0.1,0,0.2,0,0.4c0,0.1,0,0.2,0.1,0.3c0,0.1,0.1,0.2,0.2,0.2c0.1,0.1,0.2,0.1,0.4,0.1c0.2,0,0.3,0,0.4-0.1
		c0.1-0.1,0.2-0.1,0.2-0.3c0.1-0.1,0.1-0.2,0.1-0.3c0-0.1,0-0.3,0-0.4v-1.8h1v2.2c0,0.2,0,0.4,0,0.6c0,0.2,0,0.4,0,0.7H223.3z"/>
	<path class="st5" d="M227.7,58.9v-1.9c0-0.1,0-0.2,0-0.4c0-0.1,0-0.2-0.1-0.3c0-0.1-0.1-0.2-0.2-0.2S227.2,56,227,56
		c-0.2,0-0.3,0-0.4,0.1c-0.1,0.1-0.2,0.2-0.2,0.3s-0.1,0.2-0.1,0.4s0,0.2,0,0.3v1.8h-1v-2.8c0-0.1,0-0.2,0-0.3c0-0.1,0-0.2,0-0.4h1
		l0,0.5c0.2-0.2,0.3-0.4,0.5-0.5c0.2-0.1,0.4-0.1,0.7-0.1c0.4,0,0.8,0.1,1,0.3c0.2,0.2,0.3,0.5,0.3,1v2.3H227.7z"/>
	<path class="st5" d="M233.2,55.4c0,0.2,0,0.4,0,0.6c0,0.2,0,0.3,0,0.4v1.9c0,0.7-0.1,1.2-0.4,1.6c-0.3,0.3-0.8,0.5-1.4,0.5
		c-0.2,0-0.4,0-0.6,0c-0.2,0-0.4-0.1-0.5-0.2s-0.3-0.2-0.4-0.3c-0.1-0.1-0.2-0.3-0.2-0.5v-0.1h1c0,0.1,0,0.2,0.1,0.3
		c0,0.1,0.1,0.1,0.2,0.2c0.1,0,0.1,0.1,0.2,0.1c0.1,0,0.2,0,0.3,0c0.2,0,0.3,0,0.4-0.1c0.1,0,0.2-0.1,0.2-0.2
		c0.1-0.1,0.1-0.2,0.1-0.3c0-0.1,0-0.2,0-0.4c0-0.1,0-0.2,0-0.2c0-0.1,0-0.2,0-0.2c-0.3,0.4-0.6,0.6-1.1,0.6c-0.3,0-0.5,0-0.7-0.1
		c-0.2-0.1-0.4-0.2-0.5-0.4c-0.1-0.2-0.2-0.3-0.3-0.6c-0.1-0.2-0.1-0.4-0.1-0.7c0-0.2,0-0.5,0.1-0.7c0.1-0.2,0.2-0.4,0.3-0.6
		c0.1-0.2,0.3-0.3,0.5-0.4c0.2-0.1,0.4-0.1,0.7-0.1c0.3,0,0.5,0,0.7,0.1c0.2,0.1,0.4,0.3,0.5,0.5v-0.5H233.2z M232.1,57.1
		c0-0.1,0-0.3,0-0.4c0-0.1-0.1-0.3-0.1-0.4c-0.1-0.1-0.1-0.2-0.2-0.3c-0.1-0.1-0.2-0.1-0.4-0.1c-0.2,0-0.3,0-0.4,0.1
		s-0.2,0.2-0.3,0.3c-0.1,0.1-0.1,0.2-0.1,0.4s0,0.3,0,0.4c0,0.1,0,0.3,0,0.4s0.1,0.3,0.1,0.4c0.1,0.1,0.1,0.2,0.2,0.3
		c0.1,0.1,0.2,0.1,0.4,0.1c0.2,0,0.3,0,0.4-0.1s0.2-0.2,0.3-0.3c0.1-0.1,0.1-0.2,0.1-0.4C232.1,57.3,232.1,57.2,232.1,57.1z"/>
</g>
<g>
	<path class="st5" d="M281.7,58.7l-0.4-1.2h-2.2l-0.4,1.2h-1.1l2.1-5.1h1.2l2.1,5.1H281.7z M280.2,54.4l-0.8,2.4h1.7L280.2,54.4z"/>
	<path class="st5" d="M287.1,56.9c0,0.2,0,0.5-0.1,0.7c-0.1,0.2-0.2,0.4-0.3,0.6s-0.3,0.3-0.5,0.4c-0.2,0.1-0.4,0.2-0.7,0.2
		c-0.2,0-0.4,0-0.6-0.1c-0.2-0.1-0.3-0.2-0.5-0.4l0,0.5h-1c0-0.2,0-0.3,0-0.5c0-0.2,0-0.3,0-0.5v-4.1h1v2c0.1-0.2,0.3-0.3,0.5-0.4
		s0.4-0.1,0.6-0.1c0.3,0,0.5,0,0.7,0.1c0.2,0.1,0.4,0.2,0.5,0.4c0.1,0.2,0.2,0.4,0.3,0.6C287.1,56.4,287.1,56.6,287.1,56.9z
		 M286,56.9c0-0.1,0-0.3,0-0.4s-0.1-0.3-0.1-0.4s-0.1-0.2-0.2-0.3c-0.1-0.1-0.2-0.1-0.4-0.1c-0.2,0-0.3,0-0.4,0.1
		c-0.1,0.1-0.2,0.2-0.3,0.3c-0.1,0.1-0.1,0.2-0.1,0.4c0,0.1,0,0.3,0,0.4c0,0.1,0,0.3,0,0.4s0.1,0.3,0.1,0.4c0.1,0.1,0.1,0.2,0.2,0.3
		c0.1,0.1,0.2,0.1,0.4,0.1c0.2,0,0.3,0,0.4-0.1c0.1-0.1,0.2-0.2,0.3-0.3c0.1-0.1,0.1-0.2,0.1-0.4S286,57,286,56.9z"/>
	<path class="st5" d="M290.9,57.6c0,0.2-0.1,0.4-0.2,0.6c-0.1,0.1-0.2,0.3-0.4,0.4c-0.2,0.1-0.3,0.2-0.5,0.2c-0.2,0-0.4,0.1-0.6,0.1
		c-0.2,0-0.4,0-0.6-0.1s-0.4-0.1-0.5-0.2s-0.3-0.2-0.3-0.4c-0.1-0.2-0.1-0.4-0.1-0.6h1c0,0.2,0.1,0.4,0.2,0.5s0.2,0.2,0.5,0.2
		c0.1,0,0.1,0,0.2,0c0.1,0,0.1,0,0.2-0.1c0.1,0,0.1-0.1,0.1-0.1c0-0.1,0.1-0.1,0.1-0.2c0-0.1-0.1-0.2-0.2-0.3
		c-0.1-0.1-0.3-0.1-0.5-0.2l-0.4-0.1c-0.1,0-0.3-0.1-0.4-0.1c-0.1,0-0.2-0.1-0.3-0.2s-0.2-0.2-0.2-0.3c-0.1-0.1-0.1-0.2-0.1-0.4
		c0-0.2,0-0.4,0.1-0.5s0.2-0.2,0.4-0.3c0.1-0.1,0.3-0.1,0.5-0.2c0.2,0,0.4,0,0.5,0c0.2,0,0.4,0,0.6,0.1c0.2,0,0.3,0.1,0.5,0.2
		c0.1,0.1,0.3,0.2,0.3,0.4c0.1,0.1,0.1,0.3,0.2,0.5h-1c0-0.2-0.1-0.3-0.1-0.4c-0.1-0.1-0.2-0.2-0.4-0.2c-0.1,0-0.1,0-0.2,0
		c-0.1,0-0.1,0-0.2,0.1c-0.1,0-0.1,0.1-0.1,0.1c0,0,0,0.1,0,0.2c0,0.1,0.1,0.2,0.2,0.3s0.3,0.1,0.5,0.2l0.4,0.1
		c0.1,0,0.3,0.1,0.4,0.1s0.2,0.1,0.4,0.2s0.2,0.2,0.2,0.3C290.8,57.3,290.9,57.4,290.9,57.6z"/>
	<path class="st5" d="M292.9,55.8v1.6c0,0.1,0,0.2,0,0.3s0,0.1,0.1,0.2c0,0,0.1,0.1,0.1,0.1s0.2,0,0.3,0c0.1,0,0.1,0,0.2,0
		c0.1,0,0.1,0,0.2,0v0.7c-0.1,0-0.2,0-0.4,0c-0.1,0-0.2,0-0.4,0c-0.2,0-0.3,0-0.5,0c-0.1,0-0.2-0.1-0.3-0.1
		c-0.1-0.1-0.2-0.2-0.2-0.3c0-0.1-0.1-0.3-0.1-0.5v-2h-0.7v-0.7h0.7v-0.6l1-0.4v1h0.8v0.7H292.9z"/>
	<path class="st5" d="M294.3,54.4v-0.8h1.1v0.8H294.3z M294.3,58.7v-3.5h1v3.5H294.3z"/>
	<path class="st5" d="M301.2,58.7v-2c0-0.1,0-0.2,0-0.4c0-0.1,0-0.2-0.1-0.3c0-0.1-0.1-0.2-0.2-0.2c-0.1-0.1-0.2-0.1-0.4-0.1
		s-0.3,0-0.4,0.1c-0.1,0.1-0.2,0.1-0.2,0.2s-0.1,0.2-0.1,0.3c0,0.1,0,0.2,0,0.4v1.9h-1v-2c0-0.1,0-0.2,0-0.3c0-0.1,0-0.2-0.1-0.3
		c0-0.1-0.1-0.2-0.2-0.2c-0.1-0.1-0.2-0.1-0.3-0.1c-0.1,0-0.3,0-0.4,0.1c-0.1,0.1-0.2,0.1-0.2,0.2s-0.1,0.2-0.1,0.3s0,0.2,0,0.4v2
		h-1v-2.4c0-0.2,0-0.4,0-0.6c0-0.2,0-0.4,0-0.6h1l0,0.6c0.1-0.2,0.3-0.4,0.5-0.5c0.2-0.1,0.4-0.1,0.7-0.1c0.3,0,0.5,0.1,0.7,0.2
		c0.2,0.1,0.3,0.3,0.4,0.5c0.1-0.2,0.3-0.4,0.5-0.5c0.2-0.1,0.5-0.2,0.7-0.2c0.2,0,0.4,0,0.6,0.1c0.2,0.1,0.3,0.2,0.4,0.3
		c0.1,0.1,0.2,0.3,0.2,0.4c0,0.2,0.1,0.4,0.1,0.6v2.2H301.2z"/>
	<path class="st5" d="M308,58.7v-2c0-0.1,0-0.2,0-0.4c0-0.1,0-0.2-0.1-0.3c0-0.1-0.1-0.2-0.2-0.2c-0.1-0.1-0.2-0.1-0.4-0.1
		s-0.3,0-0.4,0.1c-0.1,0.1-0.2,0.1-0.2,0.2s-0.1,0.2-0.1,0.3c0,0.1,0,0.2,0,0.4v1.9h-1v-2c0-0.1,0-0.2,0-0.3c0-0.1,0-0.2-0.1-0.3
		c0-0.1-0.1-0.2-0.2-0.2c-0.1-0.1-0.2-0.1-0.3-0.1c-0.1,0-0.3,0-0.4,0.1c-0.1,0.1-0.2,0.1-0.2,0.2s-0.1,0.2-0.1,0.3s0,0.2,0,0.4v2
		h-1v-2.4c0-0.2,0-0.4,0-0.6c0-0.2,0-0.4,0-0.6h1l0,0.6c0.1-0.2,0.3-0.4,0.5-0.5c0.2-0.1,0.4-0.1,0.7-0.1c0.3,0,0.5,0.1,0.7,0.2
		c0.2,0.1,0.3,0.3,0.4,0.5c0.1-0.2,0.3-0.4,0.5-0.5c0.2-0.1,0.5-0.2,0.7-0.2c0.2,0,0.4,0,0.6,0.1c0.2,0.1,0.3,0.2,0.4,0.3
		c0.1,0.1,0.2,0.3,0.2,0.4c0,0.2,0.1,0.4,0.1,0.6v2.2H308z"/>
	<path class="st5" d="M312.4,58.7l0-0.5c-0.2,0.2-0.3,0.4-0.5,0.5c-0.2,0.1-0.4,0.1-0.7,0.1c-0.4,0-0.8-0.1-1-0.3s-0.3-0.5-0.3-1
		v-2.3h1V57c0,0.1,0,0.2,0,0.4c0,0.1,0,0.2,0.1,0.3c0,0.1,0.1,0.2,0.2,0.2c0.1,0.1,0.2,0.1,0.4,0.1c0.2,0,0.3,0,0.4-0.1
		c0.1-0.1,0.2-0.1,0.2-0.3c0.1-0.1,0.1-0.2,0.1-0.3c0-0.1,0-0.3,0-0.4v-1.8h1v2.2c0,0.2,0,0.4,0,0.6c0,0.2,0,0.4,0,0.7H312.4z"/>
	<path class="st5" d="M316.8,58.7v-1.9c0-0.1,0-0.2,0-0.4c0-0.1,0-0.2-0.1-0.3c0-0.1-0.1-0.2-0.2-0.2c-0.1-0.1-0.2-0.1-0.4-0.1
		c-0.2,0-0.3,0-0.4,0.1c-0.1,0.1-0.2,0.2-0.2,0.3s-0.1,0.2-0.1,0.4c0,0.1,0,0.2,0,0.3v1.8h-1v-2.8c0-0.1,0-0.2,0-0.3s0-0.2,0-0.4h1
		l0,0.5c0.2-0.2,0.3-0.4,0.5-0.5c0.2-0.1,0.4-0.1,0.7-0.1c0.4,0,0.8,0.1,1,0.3c0.2,0.2,0.3,0.5,0.3,1v2.3H316.8z"/>
	<path class="st5" d="M322.3,55.1c0,0.2,0,0.4,0,0.6c0,0.2,0,0.3,0,0.4V58c0,0.7-0.1,1.2-0.4,1.6c-0.3,0.3-0.8,0.5-1.4,0.5
		c-0.2,0-0.4,0-0.6,0c-0.2,0-0.4-0.1-0.5-0.2c-0.2-0.1-0.3-0.2-0.4-0.3c-0.1-0.1-0.2-0.3-0.2-0.5v-0.1h1c0,0.1,0,0.2,0.1,0.3
		c0,0.1,0.1,0.1,0.2,0.2c0.1,0,0.1,0.1,0.2,0.1c0.1,0,0.2,0,0.3,0c0.2,0,0.3,0,0.4-0.1c0.1,0,0.2-0.1,0.2-0.2s0.1-0.2,0.1-0.3
		s0-0.2,0-0.4c0-0.1,0-0.2,0-0.2c0-0.1,0-0.2,0-0.2c-0.3,0.4-0.6,0.6-1.1,0.6c-0.3,0-0.5,0-0.7-0.1s-0.4-0.2-0.5-0.4
		c-0.1-0.2-0.2-0.3-0.3-0.6c-0.1-0.2-0.1-0.4-0.1-0.7c0-0.2,0-0.5,0.1-0.7c0.1-0.2,0.2-0.4,0.3-0.6c0.1-0.2,0.3-0.3,0.5-0.4
		c0.2-0.1,0.4-0.1,0.7-0.1c0.3,0,0.5,0,0.7,0.1c0.2,0.1,0.4,0.3,0.5,0.5v-0.5H322.3z M321.3,56.8c0-0.1,0-0.3,0-0.4
		c0-0.1-0.1-0.3-0.1-0.4c-0.1-0.1-0.1-0.2-0.2-0.3c-0.1-0.1-0.2-0.1-0.4-0.1c-0.2,0-0.3,0-0.4,0.1s-0.2,0.2-0.3,0.3
		c-0.1,0.1-0.1,0.2-0.1,0.4c0,0.1,0,0.3,0,0.4c0,0.1,0,0.3,0,0.4c0,0.1,0.1,0.3,0.1,0.4s0.1,0.2,0.2,0.3c0.1,0.1,0.2,0.1,0.4,0.1
		c0.2,0,0.3,0,0.4-0.1s0.2-0.2,0.3-0.3c0.1-0.1,0.1-0.2,0.1-0.4C321.3,57.1,321.3,56.9,321.3,56.8z"/>
</g>
<g>
	<path class="st5" d="M375,58.2c-0.4,0.4-0.9,0.6-1.7,0.6c-0.2,0-0.4,0-0.6,0c-0.2,0-0.4-0.1-0.5-0.1c-0.2-0.1-0.3-0.2-0.5-0.3
		c-0.1-0.1-0.3-0.3-0.4-0.4c-0.1-0.2-0.2-0.4-0.2-0.7c0-0.2,0-0.5,0-0.7v-2.9h1.1v3c0,0.2,0,0.4,0,0.5s0.1,0.3,0.2,0.4
		c0.1,0.1,0.2,0.2,0.3,0.3s0.3,0.1,0.6,0.1c0.2,0,0.4,0,0.6-0.1c0.1-0.1,0.3-0.2,0.3-0.3c0.1-0.1,0.1-0.3,0.2-0.5c0-0.2,0-0.4,0-0.5
		v-3h1.1v3C375.5,57.3,375.3,57.9,375,58.2z"/>
	<path class="st5" d="M381.4,58.7v-2c0-0.1,0-0.2,0-0.4c0-0.1,0-0.2-0.1-0.3c0-0.1-0.1-0.2-0.2-0.2c-0.1-0.1-0.2-0.1-0.4-0.1
		s-0.3,0-0.4,0.1c-0.1,0.1-0.2,0.1-0.2,0.2s-0.1,0.2-0.1,0.3c0,0.1,0,0.2,0,0.4v1.9h-1v-2c0-0.1,0-0.2,0-0.3c0-0.1,0-0.2-0.1-0.3
		c0-0.1-0.1-0.2-0.2-0.2c-0.1-0.1-0.2-0.1-0.3-0.1c-0.1,0-0.3,0-0.4,0.1c-0.1,0.1-0.2,0.1-0.2,0.2s-0.1,0.2-0.1,0.3s0,0.2,0,0.4v2
		h-1v-2.4c0-0.2,0-0.4,0-0.6c0-0.2,0-0.4,0-0.6h1l0,0.6c0.1-0.2,0.3-0.4,0.5-0.5c0.2-0.1,0.4-0.1,0.7-0.1c0.3,0,0.5,0.1,0.7,0.2
		c0.2,0.1,0.3,0.3,0.4,0.5c0.1-0.2,0.3-0.4,0.5-0.5c0.2-0.1,0.5-0.2,0.7-0.2c0.2,0,0.4,0,0.6,0.1c0.2,0.1,0.3,0.2,0.4,0.3
		c0.1,0.1,0.2,0.3,0.2,0.4c0,0.2,0.1,0.4,0.1,0.6v2.2H381.4z"/>
	<path class="st5" d="M386.4,57.6c0,0.2-0.1,0.4-0.2,0.6c-0.1,0.1-0.2,0.3-0.4,0.4c-0.2,0.1-0.3,0.2-0.5,0.2c-0.2,0-0.4,0.1-0.6,0.1
		c-0.2,0-0.4,0-0.6-0.1s-0.4-0.1-0.5-0.2s-0.3-0.2-0.3-0.4c-0.1-0.2-0.1-0.4-0.1-0.6h1c0,0.2,0.1,0.4,0.2,0.5s0.2,0.2,0.5,0.2
		c0.1,0,0.1,0,0.2,0c0.1,0,0.1,0,0.2-0.1c0.1,0,0.1-0.1,0.1-0.1c0-0.1,0.1-0.1,0.1-0.2c0-0.1-0.1-0.2-0.2-0.3
		c-0.1-0.1-0.3-0.1-0.5-0.2l-0.4-0.1c-0.1,0-0.3-0.1-0.4-0.1c-0.1,0-0.2-0.1-0.3-0.2s-0.2-0.2-0.2-0.3c-0.1-0.1-0.1-0.2-0.1-0.4
		c0-0.2,0-0.4,0.1-0.5s0.2-0.2,0.4-0.3c0.1-0.1,0.3-0.1,0.5-0.2c0.2,0,0.4,0,0.5,0c0.2,0,0.4,0,0.6,0.1c0.2,0,0.3,0.1,0.5,0.2
		c0.1,0.1,0.3,0.2,0.3,0.4c0.1,0.1,0.1,0.3,0.2,0.5h-1c0-0.2-0.1-0.3-0.1-0.4c-0.1-0.1-0.2-0.2-0.4-0.2c-0.1,0-0.1,0-0.2,0
		c-0.1,0-0.1,0-0.2,0.1c-0.1,0-0.1,0.1-0.1,0.1c0,0,0,0.1,0,0.2c0,0.1,0.1,0.2,0.2,0.3s0.3,0.1,0.5,0.2l0.4,0.1
		c0.1,0,0.3,0.1,0.4,0.1s0.2,0.1,0.4,0.2s0.2,0.2,0.2,0.3C386.3,57.3,386.4,57.4,386.4,57.6z"/>
	<path class="st5" d="M387.9,57.1c0,0.1,0,0.3,0,0.4c0,0.1,0.1,0.2,0.1,0.3s0.1,0.2,0.3,0.2c0.1,0.1,0.2,0.1,0.4,0.1
		c0.4,0,0.7-0.2,0.7-0.6h1c0,0.2-0.1,0.4-0.2,0.6c-0.1,0.2-0.2,0.3-0.4,0.4s-0.3,0.2-0.5,0.2c-0.2,0-0.4,0.1-0.6,0.1
		c-0.6,0-1-0.2-1.3-0.5c-0.3-0.3-0.5-0.7-0.5-1.3c0-0.6,0.2-1.1,0.5-1.4c0.3-0.3,0.8-0.5,1.4-0.5c0.2,0,0.3,0,0.5,0.1
		c0.2,0,0.3,0.1,0.4,0.2c0.1,0.1,0.3,0.2,0.4,0.3c0.1,0.1,0.2,0.3,0.3,0.4c0.1,0.2,0.1,0.4,0.1,0.5c0,0.2,0,0.4,0,0.6H387.9z
		 M389.5,56.5c0-0.3-0.1-0.5-0.2-0.6s-0.3-0.2-0.6-0.2c-0.3,0-0.4,0.1-0.6,0.2c-0.1,0.2-0.2,0.4-0.2,0.6H389.5z"/>
	<path class="st5" d="M392.5,55.8v1.6c0,0.1,0,0.2,0,0.3c0,0.1,0,0.1,0.1,0.2c0,0,0.1,0.1,0.1,0.1s0.2,0,0.3,0c0.1,0,0.1,0,0.2,0
		c0.1,0,0.1,0,0.2,0v0.7c-0.1,0-0.2,0-0.4,0c-0.1,0-0.2,0-0.4,0c-0.2,0-0.3,0-0.5,0c-0.1,0-0.2-0.1-0.3-0.1
		c-0.1-0.1-0.2-0.2-0.2-0.3c0-0.1-0.1-0.3-0.1-0.5v-2h-0.7v-0.7h0.7v-0.6l1-0.4v1h0.8v0.7H392.5z"/>
	<path class="st5" d="M393.6,58.7V58l1.8-2.1h-1.8v-0.7h2.9v0.7l-1.8,2.1h1.9v0.7H393.6z"/>
	<path class="st5" d="M399.8,58.7l0-0.5c-0.2,0.2-0.3,0.4-0.5,0.5c-0.2,0.1-0.4,0.1-0.7,0.1c-0.4,0-0.8-0.1-1-0.3s-0.3-0.5-0.3-1
		v-2.3h1V57c0,0.1,0,0.2,0,0.4c0,0.1,0,0.2,0.1,0.3c0,0.1,0.1,0.2,0.2,0.2c0.1,0.1,0.2,0.1,0.4,0.1c0.2,0,0.3,0,0.4-0.1
		c0.1-0.1,0.2-0.1,0.2-0.3c0.1-0.1,0.1-0.2,0.1-0.3c0-0.1,0-0.3,0-0.4v-1.8h1v2.2c0,0.2,0,0.4,0,0.6c0,0.2,0,0.4,0,0.7H399.8z"/>
	<path class="st5" d="M404.2,58.7v-1.9c0-0.1,0-0.2,0-0.4c0-0.1,0-0.2-0.1-0.3c0-0.1-0.1-0.2-0.2-0.2c-0.1-0.1-0.2-0.1-0.4-0.1
		c-0.2,0-0.3,0-0.4,0.1c-0.1,0.1-0.2,0.2-0.2,0.3s-0.1,0.2-0.1,0.4c0,0.1,0,0.2,0,0.3v1.8h-1v-2.8c0-0.1,0-0.2,0-0.3s0-0.2,0-0.4h1
		l0,0.5c0.2-0.2,0.3-0.4,0.5-0.5c0.2-0.1,0.4-0.1,0.7-0.1c0.4,0,0.8,0.1,1,0.3c0.2,0.2,0.3,0.5,0.3,1v2.3H404.2z"/>
	<path class="st5" d="M409.7,55.1c0,0.2,0,0.4,0,0.6c0,0.2,0,0.3,0,0.4V58c0,0.7-0.1,1.2-0.4,1.6c-0.3,0.3-0.8,0.5-1.4,0.5
		c-0.2,0-0.4,0-0.6,0c-0.2,0-0.4-0.1-0.5-0.2c-0.2-0.1-0.3-0.2-0.4-0.3c-0.1-0.1-0.2-0.3-0.2-0.5v-0.1h1c0,0.1,0,0.2,0.1,0.3
		c0,0.1,0.1,0.1,0.2,0.2c0.1,0,0.1,0.1,0.2,0.1c0.1,0,0.2,0,0.3,0c0.2,0,0.3,0,0.4-0.1c0.1,0,0.2-0.1,0.2-0.2s0.1-0.2,0.1-0.3
		s0-0.2,0-0.4c0-0.1,0-0.2,0-0.2c0-0.1,0-0.2,0-0.2c-0.3,0.4-0.6,0.6-1.1,0.6c-0.3,0-0.5,0-0.7-0.1s-0.4-0.2-0.5-0.4
		c-0.1-0.2-0.2-0.3-0.3-0.6c-0.1-0.2-0.1-0.4-0.1-0.7c0-0.2,0-0.5,0.1-0.7c0.1-0.2,0.2-0.4,0.3-0.6c0.1-0.2,0.3-0.3,0.5-0.4
		c0.2-0.1,0.4-0.1,0.7-0.1c0.3,0,0.5,0,0.7,0.1c0.2,0.1,0.4,0.3,0.5,0.5v-0.5H409.7z M408.7,56.8c0-0.1,0-0.3,0-0.4
		c0-0.1-0.1-0.3-0.1-0.4c-0.1-0.1-0.1-0.2-0.2-0.3c-0.1-0.1-0.2-0.1-0.4-0.1c-0.2,0-0.3,0-0.4,0.1s-0.2,0.2-0.3,0.3
		c-0.1,0.1-0.1,0.2-0.1,0.4c0,0.1,0,0.3,0,0.4c0,0.1,0,0.3,0,0.4c0,0.1,0.1,0.3,0.1,0.4s0.1,0.2,0.2,0.3c0.1,0.1,0.2,0.1,0.4,0.1
		c0.2,0,0.3,0,0.4-0.1s0.2-0.2,0.3-0.3c0.1-0.1,0.1-0.2,0.1-0.4C408.7,57.1,408.7,56.9,408.7,56.8z"/>
</g>
<polygon class="st6" points="73.7,46.4 82.7,55.3 73.7,64.3 "/>
<polygon class="st6" points="27.1,89.7 36,80.7 45,89.7 "/>
<polygon class="st6" points="94.4,89.7 103.4,80.7 112.4,89.7 "/>
<polygon class="st6" points="135.7,89.7 144.7,80.7 153.7,89.7 "/>
<polygon class="st6" points="275,90.3 284,81.3 293,90.3 "/>
<polygon class="st6" points="241.9,83.4 232.9,92.4 223.9,83.4 "/>
<polygon class="st6" points="165.2,46.4 174.2,55.3 165.2,64.3 "/>
<polygon class="st6" points="252.7,46.4 261.7,55.3 252.7,64.3 "/>
<polygon class="st6" points="340.9,46.4 349.9,55.3 340.9,64.3 "/>
<g>
	<path class="st7" d="M228.6,10.3v5.5h-1.4v-5.5h-2v-1h5.5v1H228.6z"/>
	<path class="st7" d="M234.2,15.8v-2.4c0-0.2,0-0.3,0-0.5c0-0.2,0-0.3-0.1-0.4c-0.1-0.1-0.1-0.2-0.3-0.3s-0.3-0.1-0.5-0.1
		s-0.4,0-0.5,0.1c-0.1,0.1-0.2,0.2-0.3,0.4c-0.1,0.1-0.1,0.3-0.1,0.5c0,0.2,0,0.3,0,0.4v2.3H231V9.3h1.3l0,2.6
		c0.2-0.3,0.4-0.4,0.6-0.6c0.2-0.1,0.5-0.2,0.8-0.2c0.6,0,1,0.1,1.3,0.4c0.3,0.3,0.4,0.7,0.4,1.3v2.9H234.2z"/>
	<path class="st7" d="M237.7,13.8c0,0.2,0,0.3,0.1,0.5c0,0.2,0.1,0.3,0.2,0.4s0.2,0.2,0.3,0.3s0.3,0.1,0.5,0.1
		c0.5,0,0.8-0.3,0.9-0.8h1.3c0,0.3-0.1,0.5-0.3,0.7s-0.3,0.4-0.5,0.5c-0.2,0.1-0.4,0.2-0.7,0.3c-0.2,0.1-0.5,0.1-0.8,0.1
		c-0.7,0-1.3-0.2-1.7-0.6c-0.4-0.4-0.6-1-0.6-1.7c0-0.8,0.2-1.4,0.6-1.8c0.4-0.4,1-0.7,1.8-0.7c0.2,0,0.4,0,0.6,0.1
		c0.2,0,0.4,0.1,0.6,0.2s0.3,0.2,0.5,0.4c0.1,0.2,0.2,0.3,0.3,0.5c0.1,0.2,0.2,0.5,0.2,0.7c0,0.2,0,0.5,0,0.8H237.7z M239.7,13
		c0-0.3-0.1-0.6-0.2-0.8c-0.2-0.2-0.4-0.3-0.7-0.3c-0.3,0-0.6,0.1-0.8,0.3s-0.3,0.5-0.3,0.8H239.7z"/>
	<path class="st7" d="M248.1,15.8v-2.5c0-0.2,0-0.3,0-0.5c0-0.1-0.1-0.3-0.1-0.4c-0.1-0.1-0.1-0.2-0.3-0.3c-0.1-0.1-0.3-0.1-0.5-0.1
		c-0.2,0-0.3,0-0.5,0.1c-0.1,0.1-0.2,0.2-0.3,0.3c-0.1,0.1-0.1,0.2-0.1,0.4c0,0.1,0,0.3,0,0.5v2.5H245v-2.5c0-0.1,0-0.3,0-0.4
		c0-0.1-0.1-0.3-0.1-0.4c-0.1-0.1-0.1-0.2-0.3-0.3c-0.1-0.1-0.3-0.1-0.4-0.1s-0.3,0-0.5,0.1c-0.1,0.1-0.2,0.2-0.3,0.3
		c-0.1,0.1-0.1,0.2-0.2,0.4c0,0.1,0,0.3,0,0.5v2.5h-1.3v-3c0-0.3,0-0.5,0-0.8s0-0.5,0-0.8h1.3l0,0.7c0.2-0.3,0.4-0.5,0.6-0.6
		c0.3-0.1,0.5-0.2,0.9-0.2c0.3,0,0.6,0.1,0.9,0.2c0.2,0.1,0.4,0.4,0.6,0.7c0.2-0.3,0.4-0.5,0.7-0.7s0.6-0.2,0.9-0.2
		c0.3,0,0.5,0,0.7,0.1s0.4,0.2,0.5,0.4c0.1,0.2,0.2,0.3,0.3,0.6c0.1,0.2,0.1,0.5,0.1,0.7v2.8H248.1z"/>
	<path class="st7" d="M251.6,13.8c0,0.2,0,0.3,0.1,0.5c0,0.2,0.1,0.3,0.2,0.4s0.2,0.2,0.3,0.3s0.3,0.1,0.5,0.1
		c0.5,0,0.8-0.3,0.9-0.8h1.3c0,0.3-0.1,0.5-0.3,0.7s-0.3,0.4-0.5,0.5c-0.2,0.1-0.4,0.2-0.7,0.3c-0.2,0.1-0.5,0.1-0.8,0.1
		c-0.7,0-1.3-0.2-1.7-0.6c-0.4-0.4-0.6-1-0.6-1.7c0-0.8,0.2-1.4,0.6-1.8c0.4-0.4,1-0.7,1.8-0.7c0.2,0,0.4,0,0.6,0.1
		c0.2,0,0.4,0.1,0.6,0.2s0.3,0.2,0.5,0.4c0.1,0.2,0.2,0.3,0.3,0.5c0.1,0.2,0.2,0.5,0.2,0.7c0,0.2,0,0.5,0,0.8H251.6z M253.6,13
		c0-0.3-0.1-0.6-0.2-0.8c-0.2-0.2-0.4-0.3-0.7-0.3c-0.3,0-0.6,0.1-0.8,0.3s-0.3,0.5-0.3,0.8H253.6z"/>
	<path class="st7" d="M259,15.8v-2.4c0-0.2,0-0.3,0-0.5c0-0.2,0-0.3-0.1-0.4c-0.1-0.1-0.1-0.2-0.3-0.3s-0.3-0.1-0.5-0.1
		c-0.2,0-0.4,0.1-0.5,0.2c-0.1,0.1-0.2,0.2-0.3,0.4c-0.1,0.1-0.1,0.3-0.1,0.5c0,0.2,0,0.3,0,0.4v2.3h-1.3v-3.6c0-0.1,0-0.3,0-0.4
		s0-0.3,0-0.5h1.3l0,0.7c0.2-0.3,0.4-0.5,0.6-0.6c0.2-0.1,0.5-0.2,0.8-0.2c0.6,0,1,0.1,1.2,0.4c0.3,0.3,0.4,0.7,0.4,1.2v2.9H259z"/>
	<path class="st7" d="M264.1,12.3c-0.4,0-0.7,0.1-0.9,0.3c-0.2,0.2-0.3,0.5-0.3,1v2.1h-1.3v-3.4c0-0.2,0-0.4,0-0.5
		c0-0.2,0-0.4,0-0.6h1.3l0,0.8c0.2-0.3,0.3-0.5,0.6-0.7c0.2-0.1,0.5-0.2,0.8-0.2c0,0,0.1,0,0.1,0c0,0,0.1,0,0.1,0v1.1
		C264.3,12.3,264.2,12.3,264.1,12.3z"/>
	<path class="st7" d="M267.9,15.8c0-0.1-0.1-0.2-0.1-0.3c0-0.1,0-0.2,0-0.3c-0.2,0.3-0.4,0.5-0.6,0.6c-0.2,0.1-0.5,0.2-0.8,0.2
		c-0.2,0-0.4,0-0.6-0.1c-0.2-0.1-0.4-0.1-0.5-0.3c-0.1-0.1-0.3-0.3-0.3-0.4c-0.1-0.2-0.1-0.4-0.1-0.6c0-0.4,0.1-0.6,0.3-0.8
		c0.2-0.2,0.4-0.4,0.7-0.5c0.3-0.1,0.6-0.2,0.9-0.2c0.3,0,0.6,0,0.9,0h0.4v-0.2c0-0.1,0-0.2,0-0.4c0-0.1,0-0.2-0.1-0.3
		c-0.1-0.1-0.1-0.2-0.2-0.2c-0.1-0.1-0.2-0.1-0.4-0.1c-0.3,0-0.4,0.1-0.5,0.2c-0.1,0.1-0.2,0.3-0.2,0.5H265c0-0.3,0.1-0.5,0.2-0.7
		s0.3-0.3,0.5-0.4c0.2-0.1,0.4-0.2,0.6-0.2s0.5-0.1,0.7-0.1c0.3,0,0.6,0,0.8,0.1s0.5,0.1,0.6,0.3s0.3,0.3,0.4,0.5
		c0.1,0.2,0.1,0.5,0.1,0.9v1.4c0,0.3,0,0.5,0,0.8c0,0.3,0,0.5,0.1,0.8H267.9z M267.8,13.6c-0.1,0-0.1,0-0.2,0c0,0-0.1,0-0.2,0
		c-0.1,0-0.3,0-0.5,0s-0.3,0.1-0.5,0.1c-0.1,0.1-0.3,0.1-0.3,0.3c-0.1,0.1-0.1,0.3-0.1,0.4c0,0.2,0.1,0.4,0.2,0.5
		c0.1,0.1,0.3,0.2,0.5,0.2c0.2,0,0.4,0,0.5-0.1s0.2-0.2,0.3-0.3c0.1-0.1,0.1-0.3,0.1-0.5C267.7,14,267.8,13.8,267.8,13.6L267.8,13.6
		z"/>
	<path class="st7" d="M273.4,15.8l0-0.7c-0.2,0.3-0.4,0.5-0.6,0.6c-0.2,0.1-0.5,0.2-0.8,0.2c-0.6,0-1-0.1-1.3-0.4
		c-0.3-0.3-0.4-0.7-0.4-1.2v-2.9h1.3v2.4c0,0.2,0,0.3,0,0.5c0,0.2,0,0.3,0.1,0.4c0.1,0.1,0.1,0.2,0.3,0.3c0.1,0.1,0.3,0.1,0.5,0.1
		s0.4,0,0.5-0.1s0.2-0.2,0.3-0.3s0.1-0.3,0.1-0.4c0-0.2,0-0.3,0-0.5v-2.3h1.3v2.9c0,0.3,0,0.6,0,0.8s0,0.6,0,0.8H273.4z"/>
	<path class="st7" d="M282.1,15.8v-2.5c0-0.2,0-0.3,0-0.5c0-0.1-0.1-0.3-0.1-0.4c-0.1-0.1-0.1-0.2-0.3-0.3c-0.1-0.1-0.3-0.1-0.5-0.1
		c-0.2,0-0.3,0-0.5,0.1c-0.1,0.1-0.2,0.2-0.3,0.3c-0.1,0.1-0.1,0.2-0.1,0.4c0,0.1,0,0.3,0,0.5v2.5H279v-2.5c0-0.1,0-0.3,0-0.4
		c0-0.1-0.1-0.3-0.1-0.4c-0.1-0.1-0.1-0.2-0.3-0.3c-0.1-0.1-0.3-0.1-0.4-0.1s-0.3,0-0.5,0.1c-0.1,0.1-0.2,0.2-0.3,0.3
		c-0.1,0.1-0.1,0.2-0.2,0.4c0,0.1,0,0.3,0,0.5v2.5H276v-3c0-0.3,0-0.5,0-0.8s0-0.5,0-0.8h1.3l0,0.7c0.2-0.3,0.4-0.5,0.6-0.6
		c0.3-0.1,0.5-0.2,0.9-0.2c0.3,0,0.6,0.1,0.9,0.2c0.2,0.1,0.4,0.4,0.6,0.7c0.2-0.3,0.4-0.5,0.7-0.7s0.6-0.2,0.9-0.2
		c0.3,0,0.5,0,0.7,0.1s0.4,0.2,0.5,0.4c0.1,0.2,0.2,0.3,0.3,0.6c0.1,0.2,0.1,0.5,0.1,0.7v2.8H282.1z"/>
</g>
</svg>
