<?xml version="1.0" encoding="utf-8"?>
<!-- Generator: Adobe Illustrator 24.3.0, SVG Export Plug-In . SVG Version: 6.00 Build 0)  -->
<svg version="1.1" id="Ebene_1" xmlns="http://www.w3.org/2000/svg" xmlns:xlink="http://www.w3.org/1999/xlink" x="0px" y="0px"
	 viewBox="0 0 392 392" style="enable-background:new 0 0 392 392;" xml:space="preserve">
<style type="text/css">
	.st0{opacity:0.2023;}
	.st1{fill:none;stroke:#000000;stroke-width:23.3333;stroke-linecap:round;stroke-linejoin:round;}
</style>
<g id="Desktop-_x2F_-Schüler" class="st0">
	<g id="Startseite-Desktop-Vote-Bestätigung-" transform="translate(-506.000000, -505.000000)">
		<g id="Card" transform="translate(317.000000, 189.000000)">
			<g id="Picto" transform="translate(201.000000, 328.000000)">
				<path id="Path" class="st1" d="M0,263.5C0,287,19,306,42.5,306S85,287,85,263.5S66,221,42.5,221S0,240,0,263.5z"/>
				<path id="Path_1_" class="st1" d="M283,263.5c0,15.2,8.1,29.2,21.2,36.8c13.1,7.6,29.4,7.6,42.5,0c13.1-7.6,21.2-21.6,21.2-36.8
					c0-15.2-8.1-29.2-21.2-36.8c-13.1-7.6-29.4-7.6-42.5,0C291.1,234.3,283,248.3,283,263.5L283,263.5z"/>
				<path id="Path_2_" class="st1" d="M142,263.5c0,23.5,19,42.5,42.5,42.5s42.5-19,42.5-42.5S208,221,184.5,221S142,240,142,263.5z
					"/>
				<path id="Path_3_" class="st1" d="M114,368c-8.1-21.8-25.9-38.7-48.2-45.6S19.1,319.2,0,332.6"/>
				<path id="Path_4_" class="st1" d="M254,368c8.1-21.8,25.9-38.7,48.2-45.6c22.3-6.9,46.6-3.2,65.8,10.2"/>
				<path id="Path_5_" class="st1" d="M255,368c-10.9-29.5-39.1-49-70.5-49s-59.6,19.5-70.5,49"/>
				<path id="Path_6_" class="st1" d="M221,171c0,0,12.2-60.8,61-73"/>
				<line id="Path_7_" class="st1" x1="319" y1="85" x2="368" y2="85"/>
				<line id="Path_8_" class="st1" x1="344" y1="62" x2="344" y2="111"/>
				<path id="Path_9_" class="st1" d="M147,171c0,0-12.2-60.8-61-73"/>
				<line id="Path_10_" class="st1" x1="49" y1="85" x2="0" y2="85"/>
				<line id="Path_11_" class="st1" x1="24" y1="62" x2="24" y2="111"/>
				<line id="Path_12_" class="st1" x1="160" y1="24" x2="209" y2="24"/>
				<line id="Path_13_" class="st1" x1="184" y1="0" x2="184" y2="49"/>
				<line id="Path_14_" class="st1" x1="184" y1="171" x2="184" y2="98"/>
			</g>
		</g>
	</g>
</g>
</svg>
