<?xml version="1.0" encoding="UTF-8"?>
<svg width="219px" height="252px" viewBox="0 0 219 252" version="1.1" xmlns="http://www.w3.org/2000/svg" xmlns:xlink="http://www.w3.org/1999/xlink">
    <title>Group 5</title>
    <g id="Desktop-/-Schüler" stroke="none" stroke-width="1" fill="none" fill-rule="evenodd">
        <g id="Startseite-Desktop-" transform="translate(-1019.000000, -308.000000)">
            <g id="Container-Module" transform="translate(157.000000, 298.000000)">
                <g id="Container-Modul-3" transform="translate(813.000000, 10.000000)">
                    <g id="Group-5" transform="translate(49.000000, 0.000000)">
                        <g id="Group">
                            <g id="Modul-Icon" transform="translate(2.000000, 2.000000)">
                                <path d="M213.6655,192.5397 C213.6655,202.6307 205.4855,210.8107 195.3945,210.8107 L19.1845,210.8107 C15.6005,210.8107 12.0375,209.9077 9.0115,207.9877 C3.5535,204.5227 0.4205,198.5567 0.49996718,192.2977 L0.49996718,76.6297 C0.49996718,66.5307 8.6755,58.3367 18.7735,58.3097 L36.5615,58.3097 L197.7915,58.3097 C206.5595,58.3097 213.6655,65.4167 213.6655,74.1837 L213.6655,192.2977 L213.6655,186.2077 L213.6655,165.4227" id="Stroke-1" stroke="#000000" stroke-width="5" fill="#FFFFFF" stroke-linecap="round" stroke-linejoin="round"></path>
                                <path d="M195.395,210.810275 C205.466,210.810275 213.639,202.6602 213.666,192.5872 L213.666,186.2072 L0.499480263,186.2072 L0.499480263,192.3462 C0.438,197.2292 2.336,201.9342 5.771,205.4052 C9.207,208.8762 13.891,210.8242 18.774,210.810275 L195.395,210.810275 Z" id="Stroke-3" stroke="#000000" stroke-width="5" fill="#B9C2C6" stroke-linecap="round" stroke-linejoin="round"></path>
                                <polygon id="Stroke-5" stroke="#000000" stroke-width="5" fill="#DEE4E7" stroke-linecap="round" stroke-linejoin="round" points="125.3559 234.9782 88.8129 234.9782 91.8589 210.9782 122.3099 210.9782"></polygon>
                                <path d="M146.6713,247.111 L67.4973,247.111 C67.5243,240.403 72.9693,234.978 79.6783,234.978 L134.4903,234.978 C141.1993,234.978 146.6453,240.403 146.6713,247.111 Z" id="Stroke-7" stroke="#000000" stroke-width="5" fill="#DEE4E7" stroke-linecap="round" stroke-linejoin="round"></path>
                                <path d="M195.8696,140.5783 C195.8446,147.3023 190.4136,152.7543 183.6886,152.8073 L31.4306,152.8073 C24.7146,152.7803 19.2756,147.3423 19.2496,140.6263 L19.2496,37.0423 L195.8696,37.0423 L195.8696,140.5783 Z" id="Fill-9" fill="#DEE4E7"></path>
                                <path d="M195.8696,140.5783 C195.8446,147.3023 190.4136,152.7543 183.6886,152.8073 L31.4306,152.8073 C24.7146,152.7803 19.2756,147.3423 19.2496,140.6263 L19.2496,37.0423 L195.8696,37.0423 L195.8696,140.5783 Z" id="Stroke-11" stroke="#000000" stroke-width="5" fill="#E3EAED" stroke-linecap="round" stroke-linejoin="round"></path>
                                <path d="M195.8696,37.0422 L19.2496,37.0422 L19.2496,12.6322 C19.2756,5.9242 24.7226,0.5002 31.4306,0.5002 L183.6886,0.5002 C190.3876,0.5262 195.8166,5.9352 195.8696,12.6322 L195.8696,36.8002 L195.8696,37.0422 Z" id="Fill-13" fill="#ABB7BC"></path>
                                <path d="M195.8696,37.0422 L19.2496,37.0422 L19.2496,12.6322 C19.2756,5.9242 24.7226,0.5002 31.4306,0.5002 L183.6886,0.5002 C190.3876,0.5262 195.8166,5.9352 195.8696,12.6322 L195.8696,36.8002 L195.8696,37.0422 Z" id="Stroke-15" stroke="#000000" stroke-width="5" stroke-linecap="round" stroke-linejoin="round"></path>
                                <path d="M37.5209,12.6325 C40.0119,12.6125 42.2679,14.1015 43.2309,16.3995 C44.1939,18.6975 43.6709,21.3495 41.9099,23.1115 C40.1479,24.8735 37.4959,25.3955 35.1979,24.4325 C32.8989,23.4705 31.4109,21.2145 31.4299,18.7225 C31.4569,15.3695 34.1679,12.6585 37.5209,12.6325 Z" id="Stroke-17" stroke="#000000" stroke-width="5" stroke-linecap="round" stroke-linejoin="round"></path>
                                <path d="M61.8823,12.6325 C64.3733,12.6125 66.6303,14.1015 67.5923,16.3995 C68.5553,18.6975 68.0323,21.3495 66.2713,23.1115 C64.5093,24.8735 61.8573,25.3955 59.5593,24.4325 C57.2603,23.4705 55.7723,21.2145 55.7913,18.7225 C55.8183,15.3695 58.5293,12.6585 61.8823,12.6325 Z" id="Stroke-19" stroke="#000000" stroke-width="5" stroke-linecap="round" stroke-linejoin="round"></path>
                                <path d="M86.2436,12.6325 C88.7346,12.6125 90.9916,14.1015 91.9536,16.3995 C92.9166,18.6975 92.3936,21.3495 90.6326,23.1115 C88.8706,24.8735 86.2186,25.3955 83.9206,24.4325 C81.6226,23.4705 80.1336,21.2145 80.1526,18.7225 C80.1796,15.3695 82.8906,12.6585 86.2436,12.6325 Z" id="Stroke-21" stroke="#000000" stroke-width="5" stroke-linecap="round" stroke-linejoin="round"></path>
                                <path d="M61.8823,56.1349 C61.8823,58.8039 59.7183,60.9679 57.0483,60.9679 L42.5963,60.9679 C41.2733,61.0349 39.9803,60.5549 39.0212945,59.6409 C38.0613,58.7269 37.5193,57.4599 37.5212945,56.1349 L37.5212945,54.1049 C37.5193,52.7799 38.0613,51.5119 39.0212945,50.5979 C39.9803,49.6849 41.2733,49.2049 42.5963,49.2709 L56.8073,49.2709 C59.4763,49.2709 61.6403,51.4349 61.6403,54.1049 L61.8823,56.1349 Z" id="Stroke-35" stroke="#000000" stroke-width="5" stroke-linecap="round" stroke-linejoin="round"></path>
                                <line x1="37.5209" y1="73.5358" x2="61.8819" y2="73.5358" id="Stroke-39" stroke="#000000" stroke-width="5" stroke-linecap="round" stroke-linejoin="round"></line>
                                <line x1="37.5209" y1="85.7648" x2="61.8819" y2="85.7648" id="Stroke-41" stroke="#000000" stroke-width="5" stroke-linecap="round" stroke-linejoin="round"></line>
                                <line x1="37.5209" y1="97.9455" x2="61.8819" y2="97.9455" id="Stroke-43" stroke="#000000" stroke-width="5" stroke-linecap="round" stroke-linejoin="round"></line>
                                <line x1="37.5209" y1="110.0778" x2="61.8819" y2="110.0778" id="Stroke-45" stroke="#000000" stroke-width="5" stroke-linecap="round" stroke-linejoin="round"></line>
                                <line x1="37.5209" y1="122.2585" x2="61.8819" y2="122.2585" id="Stroke-47" stroke="#000000" stroke-width="5" stroke-linecap="round" stroke-linejoin="round"></line>
                                <line x1="37.5209" y1="134.4396" x2="52.7469" y2="134.4396" id="Stroke-49" stroke="#000000" stroke-width="5" stroke-linecap="round" stroke-linejoin="round"></line>
                                <path d="M107.0844,200.9499 C108.4724,200.9499 109.5984,199.8249 109.5984,198.4359 C109.5984,197.0489 108.4724,195.9229 107.0844,195.9229 C105.6954,195.9229 104.5704,197.0489 104.5704,198.4359 C104.5704,199.8249 105.6954,200.9499 107.0844,200.9499 Z" id="Stroke-51" stroke="#000000" stroke-width="5" stroke-linecap="round" stroke-linejoin="round"></path>
                            </g>
                            <g id="Content" transform="translate(88.000000, 47.000000)" stroke="#000000" stroke-width="4.27999973">
                                <path d="M45.0012763,48.2252874 C49.2049884,48.2734621 52.6399965,44.8837157 52.6399965,40.6925177 L52.6399965,19.0971487 C52.6399965,14.9322278 49.2576995,11.5599995 45.0847356,11.5599995 L7.76526072,11.5599995 C3.59229684,11.5599995 0.2099998,14.9322278 0.2099998,19.0971487 L0.2099998,40.6925177 C0.2099998,44.8530591 3.59229684,48.2252874 7.76526072,48.2252874 L28.577369,48.2252874 C29.4031766,48.2252874 30.0708508,48.890974 30.0708508,49.7143233 L33.365296,58.8499963 L41.9176756,48.501197 L45.0012763,48.2252874 Z" id="Bubble-links" fill="#ABB7BC"></path>
                                <path d="M50.5093575,35.7352879 C46.3009003,35.7834626 42.8699973,32.3980957 42.8699973,28.2025182 L42.8699973,7.60714916 C42.8699973,3.44660775 46.2525777,0.0699999332 50.4214983,0.0699999332 L87.748493,0.0699999332 C91.9218065,0.0699999332 95.299994,3.44660775 95.299994,7.60714916 L95.299994,28.2025182 C95.299994,32.3630596 91.9218065,35.7352879 87.748493,35.7352879 L66.930248,35.7352879 C66.1087641,35.7352879 65.436641,36.4009745 65.436641,37.2243238 L65.436641,46.3599968 L53.5932165,36.0111975 L50.5093575,35.7352879 Z" id="Bubble-rechts" fill="#B9C2C6"></path>
                            </g>
                            <g transform="translate(145.000000, 55.000000)" fill="#2EBA09" id="Haken-grün">
                                <path d="M5.23760813,7.8820655 L8.73101763,11.740081 L20.1272308,0.524128225 C20.8400361,-0.174709408 21.9960363,-0.174709408 22.7125349,0.524128225 L24.908079,2.67110695 C25.6245775,3.3735655 25.6245775,4.50691358 24.908079,5.20575121 L10.4562291,19.3744127 C9.69541105,20.1203223 8.46554496,20.1203223 7.70472689,19.3744127 L0.441986777,12.2631521 C-0.160019748,11.6729421 -0.145246581,10.7061563 0.475226401,10.13043 L2.99208686,7.85309814 C3.30871132,7.55901593 3.71723638,7.41510001 4.12365306,7.4208941 C4.52789269,7.42665716 4.93004648,7.58053062 5.23760813,7.8820655 Z" id="Stroke-7"></path>
                            </g>
                            <g transform="translate(92.059600, 57.000000)" fill="#D90000" fill-rule="nonzero" id="Kreuz">
                                <g>
                                    <path d="M23.4580078,32.6357422 L23.4580078,23.5444336 L23.4580078,23.5444336 L32.6069336,23.5444336 C33.7115031,23.5444336 34.6069336,22.6490031 34.6069336,21.5444336 L34.6069336,19.2353516 C34.6069336,18.1307821 33.7115031,17.2353516 32.6069336,17.2353516 L23.4580078,17.2353516 L23.4580078,17.2353516 L23.4580078,8 C23.4580078,6.8954305 22.5625773,6 21.4580078,6 L19.1489258,6 C18.0443563,6 17.1489258,6.8954305 17.1489258,8 L17.1489258,17.2353516 L17.1489258,17.2353516 L8,17.2353516 C6.8954305,17.2353516 6,18.1307821 6,19.2353516 L6,21.5444336 C6,22.6490031 6.8954305,23.5444336 8,23.5444336 L17.1489258,23.5444336 L17.1489258,23.5444336 L17.1489258,32.6357422 C17.1489258,33.7403117 18.0443563,34.6357422 19.1489258,34.6357422 L21.4580078,34.6357422 C22.5625773,34.6357422 23.4580078,33.7403117 23.4580078,32.6357422 Z" transform="translate(20.303467, 20.317871) rotate(-44.000000) translate(-20.303467, -20.317871) "></path>
                                </g>
                            </g>
                            <g id="couple-man-woman" transform="translate(85.000000, 102.000000)" stroke="#000000" stroke-linecap="round" stroke-linejoin="round" stroke-width="4.28">
                                <g id="Boy" transform="translate(0.791667, 0.791667)">
                                    <circle id="Oval" cx="18" cy="11" r="11"></circle>
                                    <path d="M8,6 C13.182307,11.876442 21.1461127,13.6284652 28,10.3999649" id="Path"></path>
                                    <path d="M18.5,26 C8.28273213,26 0,34.0588745 0,44 L37,44 C37,34.0588745 28.7172679,26 18.5,26 Z" id="Path" fill="#B8B8B8"></path>
                                </g>
                                <g id="Girl" transform="translate(55.375000, 1.798833)">
                                    <path d="M30.9671667,22.0088333 C29.5357566,19.6595114 28.8220902,16.9430953 28.9139167,14.1935833 L28.9139167,10.99725 C28.9139167,4.92363653 23.9902801,-7.10542736e-15 17.9166667,-7.10542736e-15 C11.8430532,-7.10542736e-15 6.91941667,4.92363653 6.91941667,10.99725 L6.91941667,14.1935833 C7.01124318,16.9430953 6.29757676,19.6595114 4.86616667,22.0088333" id="Path"></path>
                                    <path d="M6.91941667,12.814 C11.1427259,12.8071473 15.1551542,10.9676274 17.9166667,7.77225 C20.6781791,10.9676274 24.6906075,12.8071473 28.9139167,12.814" id="Path"></path>
                                    <path d="M8.26316667,12.7495 C8.76025286,17.7090882 12.9340215,21.4854427 17.9184583,21.4854427 C22.9028951,21.4854427 27.0766638,17.7090882 27.57375,12.7495" id="Path"></path>
                                    <path d="M17.9166667,25.0761667 C8.0215649,25.0761667 7.46069873e-14,33.0977316 7.46069873e-14,42.9928333 L35.8333333,42.9928333 C35.8333333,33.0977316 27.8117684,25.0761667 17.9166667,25.0761667 Z" id="Path" fill="#B8B8B8"></path>
                                </g>
                            </g>
                        </g>
                        <g id="comingsoon!-2" transform="translate(62.576000, 164.448000)" fill="#DB2A1B" fill-rule="nonzero">
                            <path d="M3.92,11.744 C4.35733333,11.744 4.80533333,11.672 5.264,11.528 C5.72266667,11.384 6.14933333,11.1413333 6.544,10.8 L6.544,10.8 L5.616,9.264 C5.40266667,9.424 5.176,9.56 4.936,9.672 C4.696,9.784 4.448,9.84 4.192,9.84 C3.68,9.84 3.256,9.63733333 2.92,9.232 C2.584,8.82666667 2.416,8.27733333 2.416,7.584 C2.416,6.89066667 2.58133333,6.34133333 2.912,5.936 C3.24266667,5.53066667 3.696,5.328 4.272,5.328 C4.61333333,5.328 4.97066667,5.48266667 5.344,5.792 L5.344,5.792 L6.448,4.272 C6.14933333,4.02666667 5.81066667,3.824 5.432,3.664 C5.05333333,3.504 4.61866667,3.424 4.128,3.424 C3.584,3.424 3.06133333,3.51733333 2.56,3.704 C2.05866667,3.89066667 1.61866667,4.16 1.24,4.512 C0.861333333,4.864 0.56,5.29866667 0.336,5.816 C0.112,6.33333333 -2.84217094e-14,6.92266667 -2.84217094e-14,7.584 C-2.84217094e-14,8.24533333 0.101333333,8.83466667 0.304,9.352 C0.506666667,9.86933333 0.784,10.304 1.136,10.656 C1.488,11.008 1.90133333,11.2773333 2.376,11.464 C2.85066667,11.6506667 3.36533333,11.744 3.92,11.744 Z M11.344,11.744 C11.8453333,11.744 12.328,11.6506667 12.792,11.464 C13.256,11.2773333 13.6666667,11.008 14.024,10.656 C14.3813333,10.304 14.6666667,9.86933333 14.88,9.352 C15.0933333,8.83466667 15.2,8.24533333 15.2,7.584 C15.2,6.92266667 15.0933333,6.33333333 14.88,5.816 C14.6666667,5.29866667 14.3813333,4.864 14.024,4.512 C13.6666667,4.16 13.256,3.89066667 12.792,3.704 C12.328,3.51733333 11.8453333,3.424 11.344,3.424 C10.8426667,3.424 10.3573333,3.51733333 9.888,3.704 C9.41866667,3.89066667 9.00533333,4.16 8.648,4.512 C8.29066667,4.864 8.00533333,5.29866667 7.792,5.816 C7.57866667,6.33333333 7.472,6.92266667 7.472,7.584 C7.472,8.24533333 7.57866667,8.83466667 7.792,9.352 C8.00533333,9.86933333 8.29066667,10.304 8.648,10.656 C9.00533333,11.008 9.41866667,11.2773333 9.888,11.464 C10.3573333,11.6506667 10.8426667,11.744 11.344,11.744 Z M11.344,9.84 C10.8533333,9.84 10.488,9.63733333 10.248,9.232 C10.008,8.82666667 9.888,8.27733333 9.888,7.584 C9.888,6.89066667 10.008,6.34133333 10.248,5.936 C10.488,5.53066667 10.8533333,5.328 11.344,5.328 C11.824,5.328 12.1866667,5.53066667 12.432,5.936 C12.6773333,6.34133333 12.8,6.89066667 12.8,7.584 C12.8,8.27733333 12.6773333,8.82666667 12.432,9.232 C12.1866667,9.63733333 11.824,9.84 11.344,9.84 Z M19.168,11.552 L19.168,6.192 C19.6586667,5.68 20.1066667,5.424 20.512,5.424 C20.8533333,5.424 21.1013333,5.53066667 21.256,5.744 C21.4106667,5.95733333 21.488,6.352 21.488,6.928 L21.488,6.928 L21.488,11.552 L23.84,11.552 L23.84,6.192 C24.352,5.68 24.8053333,5.424 25.2,5.424 C25.5413333,5.424 25.7893333,5.53066667 25.944,5.744 C26.0986667,5.95733333 26.176,6.352 26.176,6.928 L26.176,6.928 L26.176,11.552 L28.528,11.552 L28.528,6.624 C28.528,5.632 28.328,4.85066667 27.928,4.28 C27.528,3.70933333 26.9013333,3.424 26.048,3.424 C25.5146667,3.424 25.0533333,3.55466667 24.664,3.816 C24.2746667,4.07733333 23.904,4.38933333 23.552,4.752 C23.3493333,4.32533333 23.0746667,3.99733333 22.728,3.768 C22.3813333,3.53866667 21.9253333,3.424 21.36,3.424 C20.8373333,3.424 20.3893333,3.544 20.016,3.784 C19.6426667,4.024 19.2906667,4.30933333 18.96,4.64 L18.96,4.64 L18.896,4.64 L18.736,3.616 L16.816,3.616 L16.816,11.552 L19.168,11.552 Z M31.696,2.448 C32.1013333,2.448 32.4293333,2.33333333 32.68,2.104 C32.9306667,1.87466667 33.056,1.57866667 33.056,1.216 C33.056,0.853333333 32.9306667,0.56 32.68,0.336 C32.4293333,0.112 32.1013333,5.68434189e-14 31.696,5.68434189e-14 C31.3013333,5.68434189e-14 30.976,0.112 30.72,0.336 C30.464,0.56 30.336,0.853333333 30.336,1.216 C30.336,1.57866667 30.464,1.87466667 30.72,2.104 C30.976,2.33333333 31.3013333,2.448 31.696,2.448 Z M32.88,11.552 L32.88,3.616 L30.528,3.616 L30.528,11.552 L32.88,11.552 Z M37.296,11.552 L37.296,6.192 C37.552,5.94666667 37.7866667,5.75733333 38,5.624 C38.2133333,5.49066667 38.4693333,5.424 38.768,5.424 C39.1093333,5.424 39.3573333,5.53066667 39.512,5.744 C39.6666667,5.95733333 39.744,6.352 39.744,6.928 L39.744,6.928 L39.744,11.552 L42.096,11.552 L42.096,6.624 C42.096,5.62133333 41.9013333,4.83733333 41.512,4.272 C41.1226667,3.70666667 40.496,3.424 39.632,3.424 C39.088,3.424 38.6133333,3.544 38.208,3.784 C37.8026667,4.024 37.4293333,4.304 37.088,4.624 L37.088,4.624 L37.024,4.624 L36.864,3.616 L34.944,3.616 L34.944,11.552 L37.296,11.552 Z M46.928,14.928 C47.6106667,14.928 48.224,14.856 48.768,14.712 C49.312,14.568 49.776,14.3706667 50.16,14.12 C50.544,13.8693333 50.84,13.5706667 51.048,13.224 C51.256,12.8773333 51.36,12.496 51.36,12.08 C51.36,11.3653333 51.1013333,10.8506667 50.584,10.536 C50.0666667,10.2213333 49.3173333,10.064 48.336,10.064 L48.336,10.064 L47.056,10.064 C46.608,10.064 46.296,10.016 46.12,9.92 C45.944,9.824 45.856,9.67466667 45.856,9.472 C45.856,9.33333333 45.8773333,9.22133333 45.92,9.136 C45.9626667,9.05066667 46.0373333,8.96533333 46.144,8.88 C46.4746667,8.98666667 46.7946667,9.04 47.104,9.04 C47.5413333,9.04 47.9493333,8.98666667 48.328,8.88 C48.7066667,8.77333333 49.0373333,8.61066667 49.32,8.392 C49.6026667,8.17333333 49.824,7.896 49.984,7.56 C50.144,7.224 50.224,6.82666667 50.224,6.368 C50.224,6.15466667 50.2,5.95733333 50.152,5.776 C50.104,5.59466667 50.0426667,5.44533333 49.968,5.328 L49.968,5.328 L51.232,5.328 L51.232,3.616 L48.336,3.616 C47.984,3.488 47.5733333,3.424 47.104,3.424 C46.6773333,3.424 46.2666667,3.48266667 45.872,3.6 C45.4773333,3.71733333 45.128,3.896 44.824,4.136 C44.52,4.376 44.2773333,4.67466667 44.096,5.032 C43.9146667,5.38933333 43.824,5.808 43.824,6.288 C43.824,6.75733333 43.9333333,7.17066667 44.152,7.528 C44.3706667,7.88533333 44.6186667,8.16 44.896,8.352 L44.896,8.352 L44.896,8.416 C44.64,8.59733333 44.4266667,8.81866667 44.256,9.08 C44.0853333,9.34133333 44,9.616 44,9.904 C44,10.2346667 44.0693333,10.5066667 44.208,10.72 C44.3466667,10.9333333 44.5226667,11.1093333 44.736,11.248 L44.736,11.248 L44.736,11.312 C43.9786667,11.7386667 43.6,12.272 43.6,12.912 C43.6,13.264 43.6853333,13.568 43.856,13.824 C44.0266667,14.08 44.264,14.288 44.568,14.448 C44.872,14.608 45.224,14.728 45.624,14.808 C46.024,14.888 46.4586667,14.928 46.928,14.928 Z M47.104,7.616 C46.7946667,7.616 46.536,7.50666667 46.328,7.288 C46.12,7.06933333 46.016,6.736 46.016,6.288 C46.016,5.86133333 46.12,5.54133333 46.328,5.328 C46.536,5.11466667 46.7946667,5.008 47.104,5.008 C47.4133333,5.008 47.672,5.11733333 47.88,5.336 C48.088,5.55466667 48.192,5.872 48.192,6.288 C48.192,6.736 48.088,7.06933333 47.88,7.288 C47.672,7.50666667 47.4133333,7.616 47.104,7.616 Z M47.296,13.456 C46.7626667,13.456 46.336,13.3786667 46.016,13.224 C45.696,13.0693333 45.536,12.8426667 45.536,12.544 C45.536,12.2773333 45.68,12.016 45.968,11.76 C46.096,11.792 46.2453333,11.816 46.416,11.832 C46.5866667,11.848 46.8106667,11.856 47.088,11.856 L47.904,11.856 C48.2986667,11.856 48.6,11.8986667 48.808,11.984 C49.016,12.0693333 49.12,12.2346667 49.12,12.48 C49.12,12.7573333 48.9493333,12.9893333 48.608,13.176 C48.2666667,13.3626667 47.8293333,13.456 47.296,13.456 Z M58.176,11.744 C58.7093333,11.744 59.1786667,11.6773333 59.584,11.544 C59.9893333,11.4106667 60.3306667,11.2293333 60.608,11 C60.8853333,10.7706667 61.0933333,10.5013333 61.232,10.192 C61.3706667,9.88266667 61.44,9.54666667 61.44,9.184 C61.44,8.82133333 61.376,8.50933333 61.248,8.248 C61.12,7.98666667 60.952,7.76533333 60.744,7.584 C60.536,7.40266667 60.3066667,7.25066667 60.056,7.128 C59.8053333,7.00533333 59.552,6.896 59.296,6.8 C59.0933333,6.72533333 58.8986667,6.65333333 58.712,6.584 C58.5253333,6.51466667 58.36,6.44266667 58.216,6.368 C58.072,6.29333333 57.9573333,6.21066667 57.872,6.12 C57.7866667,6.02933333 57.744,5.92 57.744,5.792 C57.744,5.376 58.0426667,5.168 58.64,5.168 C58.9173333,5.168 59.1946667,5.22666667 59.472,5.344 C59.7493333,5.46133333 60.032,5.62666667 60.32,5.84 L60.32,5.84 L61.376,4.432 C61.0346667,4.176 60.6346667,3.944 60.176,3.736 C59.7173333,3.528 59.184,3.424 58.576,3.424 C58.1173333,3.424 57.7013333,3.48533333 57.328,3.608 C56.9546667,3.73066667 56.6346667,3.89866667 56.368,4.112 C56.1013333,4.32533333 55.896,4.58666667 55.752,4.896 C55.608,5.20533333 55.536,5.54133333 55.536,5.904 C55.536,6.23466667 55.6,6.52533333 55.728,6.776 C55.856,7.02666667 56.0213333,7.24533333 56.224,7.432 C56.4266667,7.61866667 56.6506667,7.776 56.896,7.904 C57.1413333,8.032 57.3866667,8.144 57.632,8.24 C57.8346667,8.32533333 58.032,8.40266667 58.224,8.472 C58.416,8.54133333 58.5893333,8.61866667 58.744,8.704 C58.8986667,8.78933333 59.0213333,8.88266667 59.112,8.984 C59.2026667,9.08533333 59.248,9.2 59.248,9.328 C59.248,9.54133333 59.168,9.70666667 59.008,9.824 C58.848,9.94133333 58.592,10 58.24,10 C57.8986667,10 57.5626667,9.93066667 57.232,9.792 C56.9013333,9.65333333 56.5546667,9.44533333 56.192,9.168 L56.192,9.168 L55.136,10.64 C55.5413333,10.9706667 56.0186667,11.2373333 56.568,11.44 C57.1173333,11.6426667 57.6533333,11.744 58.176,11.744 Z M66.336,11.744 C66.8373333,11.744 67.32,11.6506667 67.784,11.464 C68.248,11.2773333 68.6586667,11.008 69.016,10.656 C69.3733333,10.304 69.6586667,9.86933333 69.872,9.352 C70.0853333,8.83466667 70.192,8.24533333 70.192,7.584 C70.192,6.92266667 70.0853333,6.33333333 69.872,5.816 C69.6586667,5.29866667 69.3733333,4.864 69.016,4.512 C68.6586667,4.16 68.248,3.89066667 67.784,3.704 C67.32,3.51733333 66.8373333,3.424 66.336,3.424 C65.8346667,3.424 65.3493333,3.51733333 64.88,3.704 C64.4106667,3.89066667 63.9973333,4.16 63.64,4.512 C63.2826667,4.864 62.9973333,5.29866667 62.784,5.816 C62.5706667,6.33333333 62.464,6.92266667 62.464,7.584 C62.464,8.24533333 62.5706667,8.83466667 62.784,9.352 C62.9973333,9.86933333 63.2826667,10.304 63.64,10.656 C63.9973333,11.008 64.4106667,11.2773333 64.88,11.464 C65.3493333,11.6506667 65.8346667,11.744 66.336,11.744 Z M66.336,9.84 C65.8453333,9.84 65.48,9.63733333 65.24,9.232 C65,8.82666667 64.88,8.27733333 64.88,7.584 C64.88,6.89066667 65,6.34133333 65.24,5.936 C65.48,5.53066667 65.8453333,5.328 66.336,5.328 C66.816,5.328 67.1786667,5.53066667 67.424,5.936 C67.6693333,6.34133333 67.792,6.89066667 67.792,7.584 C67.792,8.27733333 67.6693333,8.82666667 67.424,9.232 C67.1786667,9.63733333 66.816,9.84 66.336,9.84 Z M75.216,11.744 C75.7173333,11.744 76.2,11.6506667 76.664,11.464 C77.128,11.2773333 77.5386667,11.008 77.896,10.656 C78.2533333,10.304 78.5386667,9.86933333 78.752,9.352 C78.9653333,8.83466667 79.072,8.24533333 79.072,7.584 C79.072,6.92266667 78.9653333,6.33333333 78.752,5.816 C78.5386667,5.29866667 78.2533333,4.864 77.896,4.512 C77.5386667,4.16 77.128,3.89066667 76.664,3.704 C76.2,3.51733333 75.7173333,3.424 75.216,3.424 C74.7146667,3.424 74.2293333,3.51733333 73.76,3.704 C73.2906667,3.89066667 72.8773333,4.16 72.52,4.512 C72.1626667,4.864 71.8773333,5.29866667 71.664,5.816 C71.4506667,6.33333333 71.344,6.92266667 71.344,7.584 C71.344,8.24533333 71.4506667,8.83466667 71.664,9.352 C71.8773333,9.86933333 72.1626667,10.304 72.52,10.656 C72.8773333,11.008 73.2906667,11.2773333 73.76,11.464 C74.2293333,11.6506667 74.7146667,11.744 75.216,11.744 Z M75.216,9.84 C74.7253333,9.84 74.36,9.63733333 74.12,9.232 C73.88,8.82666667 73.76,8.27733333 73.76,7.584 C73.76,6.89066667 73.88,6.34133333 74.12,5.936 C74.36,5.53066667 74.7253333,5.328 75.216,5.328 C75.696,5.328 76.0586667,5.53066667 76.304,5.936 C76.5493333,6.34133333 76.672,6.89066667 76.672,7.584 C76.672,8.27733333 76.5493333,8.82666667 76.304,9.232 C76.0586667,9.63733333 75.696,9.84 75.216,9.84 Z M83.04,11.552 L83.04,6.192 C83.296,5.94666667 83.5306667,5.75733333 83.744,5.624 C83.9573333,5.49066667 84.2133333,5.424 84.512,5.424 C84.8533333,5.424 85.1013333,5.53066667 85.256,5.744 C85.4106667,5.95733333 85.488,6.352 85.488,6.928 L85.488,6.928 L85.488,11.552 L87.84,11.552 L87.84,6.624 C87.84,5.62133333 87.6453333,4.83733333 87.256,4.272 C86.8666667,3.70666667 86.24,3.424 85.376,3.424 C84.832,3.424 84.3573333,3.544 83.952,3.784 C83.5466667,4.024 83.1733333,4.304 82.832,4.624 L82.832,4.624 L82.768,4.624 L82.608,3.616 L80.688,3.616 L80.688,11.552 L83.04,11.552 Z M92.288,7.856 L92.624,2.96 L92.704,0.832 L90.336,0.832 L90.416,2.96 L90.752,7.856 L92.288,7.856 Z M91.52,11.744 C91.9253333,11.744 92.264,11.6026667 92.536,11.32 C92.808,11.0373333 92.944,10.688 92.944,10.272 C92.944,9.84533333 92.808,9.49066667 92.536,9.208 C92.264,8.92533333 91.9253333,8.784 91.52,8.784 C91.1146667,8.784 90.776,8.92533333 90.504,9.208 C90.232,9.49066667 90.096,9.84533333 90.096,10.272 C90.096,10.688 90.232,11.0373333 90.504,11.32 C90.776,11.6026667 91.1146667,11.744 91.52,11.744 Z" id="comingsoon!"></path>
                        </g>
                    </g>
                </g>
            </g>
        </g>
    </g>
</svg>