<?xml version="1.0" encoding="UTF-8"?>
<svg width="1431px" height="931px" viewBox="0 0 1431 931" version="1.1" xmlns="http://www.w3.org/2000/svg" xmlns:xlink="http://www.w3.org/1999/xlink">
    <title>couple-man-woman</title>
    <g id="Desktop-/-Schüler" stroke="none" stroke-width="1" fill="none" fill-rule="evenodd" opacity="0.0608956473" stroke-linecap="round" stroke-linejoin="round">
        <g id="Startseite-Desktop-" transform="translate(-5.000000, -48.000000)" stroke="#000000" stroke-width="44.9999973">
            <g id="BGs" transform="translate(28.000000, -9.000000)">
                <g id="couple-man-woman" transform="translate(0.000000, 80.000000)">
                    <g id="Group-2" transform="translate(0.007506, 277.444428)">
                        <ellipse id="Oval" cx="251.876498" cy="151.333324" rx="151.125899" ry="151.333324"></ellipse>
                        <path d="M121.656349,74.50644 C194.204998,149.760811 305.692668,172.197416 401.642264,130.852881" id="Path"></path>
                        <path d="M251.876498,353.11109 C112.768949,353.11109 0,466.034819 0,605.333297 L503.752997,605.333297 C503.752997,466.034819 390.984047,353.11109 251.876498,353.11109 Z" id="Path"></path>
                    </g>
                    <g id="Group-2-Copy" transform="translate(881.575250, 277.444428)">
                        <ellipse id="Oval" cx="251.876498" cy="151.333324" rx="151.125899" ry="151.333324"></ellipse>
                        <path d="M151.438793,78.6293745 C216.686756,153.86107 316.981226,176.26835 403.314529,134.902171" id="Path" transform="translate(277.376661, 117.022740) rotate(-12.000000) translate(-277.376661, -117.022740) "></path>
                        <path d="M251.876498,353.11109 C112.768949,353.11109 0,466.034819 0,605.333297 L503.752997,605.333297 C503.752997,466.034819 390.984047,353.11109 251.876498,353.11109 Z" id="Path"></path>
                    </g>
                    <g id="Group" transform="translate(428.197553, 0.000000)">
                        <path d="M435.34334,309.829759 C415.220257,276.757137 405.187375,238.516738 406.478293,199.810433 L406.478293,154.813991 C406.478293,69.3125846 337.260712,2.24018321e-14 251.876498,2.24018321e-14 C166.492285,2.24018321e-14 97.2747036,69.3125846 97.2747036,154.813991 L97.2747036,199.810433 C98.5656212,238.516738 88.5327395,276.757137 68.4096569,309.829759" id="Path"></path>
                        <path d="M97.2747036,180.389323 C156.646927,180.292854 213.05454,154.396978 251.876498,109.413993 C290.698456,154.396978 347.10607,180.292854 406.478293,180.389323" id="Path"></path>
                        <path d="M116.165441,179.481323 C123.15359,249.300018 181.829361,302.461718 251.901686,302.461718 C321.974011,302.461718 380.649782,249.300018 387.637931,179.481323" id="Path"></path>
                        <path d="M251.876498,353.010201 C112.768949,353.010201 0,465.93393 0,605.232408 L503.752997,605.232408 C503.752997,465.93393 390.984047,353.010201 251.876498,353.010201 Z" id="Path"></path>
                    </g>
                </g>
            </g>
        </g>
    </g>
</svg>