<?xml version="1.0" encoding="UTF-8"?>
<svg width="218px" height="252px" viewBox="0 0 218 252" version="1.1" xmlns="http://www.w3.org/2000/svg" xmlns:xlink="http://www.w3.org/1999/xlink">
    <title>Modul 1</title>
    <g id="Modul-1" stroke="none" stroke-width="1" fill="none" fill-rule="evenodd">
        <g id="Modul-Icon" transform="translate(2.000000, 2.000000)">
            <path d="M213.6655,192.5397 C213.6655,202.6307 205.4855,210.8107 195.3945,210.8107 L19.1845,210.8107 C15.6005,210.8107 12.0375,209.9077 9.0115,207.9877 C3.5535,204.5227 0.4205,198.5567 0.49996718,192.2977 L0.49996718,76.6297 C0.49996718,66.5307 8.6755,58.3367 18.7735,58.3097 L36.5615,58.3097 L197.7915,58.3097 C206.5595,58.3097 213.6655,65.4167 213.6655,74.1837 L213.6655,192.2977 L213.6655,186.2077 L213.6655,165.4227" id="Stroke-1" stroke="#000000" stroke-width="5" stroke-linecap="round" stroke-linejoin="round"></path>
            <path d="M195.395,210.810275 C205.466,210.810275 213.639,202.6602 213.666,192.5872 L213.666,186.2072 L0.499480263,186.2072 L0.499480263,192.3462 C0.438,197.2292 2.336,201.9342 5.771,205.4052 C9.207,208.8762 13.891,210.8242 18.774,210.810275 L195.395,210.810275 Z" id="Stroke-3" stroke="#000000" stroke-width="5" fill="#B9C2C6" stroke-linecap="round" stroke-linejoin="round"></path>
            <polygon id="Stroke-5" stroke="#000000" stroke-width="5" fill="#DEE4E7" stroke-linecap="round" stroke-linejoin="round" points="125.3559 234.9782 88.8129 234.9782 91.8589 210.9782 122.3099 210.9782"></polygon>
            <path d="M146.6713,247.111 L67.4973,247.111 C67.5243,240.403 72.9693,234.978 79.6783,234.978 L134.4903,234.978 C141.1993,234.978 146.6453,240.403 146.6713,247.111 Z" id="Stroke-7" stroke="#000000" stroke-width="5" fill="#DEE4E7" stroke-linecap="round" stroke-linejoin="round"></path>
            <path d="M195.8696,140.5783 C195.8446,147.3023 190.4136,152.7543 183.6886,152.8073 L31.4306,152.8073 C24.7146,152.7803 19.2756,147.3423 19.2496,140.6263 L19.2496,37.0423 L195.8696,37.0423 L195.8696,140.5783 Z" id="Fill-9" fill="#DEE4E7"></path>
            <g id="BH" transform="translate(81.000000, 48.000000)" stroke="#000000" stroke-linecap="round" stroke-linejoin="round">
                <line x1="62.5" y1="39" x2="62.5" y2="21" id="Stroke-1" stroke-width="5"></line>
                <line x1="29.5" y1="39" x2="29.5" y2="21" id="Stroke-2" stroke-width="5"></line>
                <polygon id="Stroke-3" stroke-width="5" points="46 30 18 46 74 46"></polygon>
                <line x1="25" y1="21.5" x2="68" y2="21.5" id="Stroke-4" stroke-width="6"></line>
                <g id="Group-35">
                    <path d="M49.4109238,6.62045455 L42.8611143,6.62045455 L42.8611143,3.33327273 C42.8611143,1.52509091 44.3345905,0.0507272727 46.136019,0.0507272727 C47.9374476,0.0507272727 49.4109238,1.52509091 49.4109238,3.33327273 L49.4109238,6.62045455 Z" id="Stroke-5" stroke-width="5"></path>
                    <polyline id="Stroke-7" stroke-width="5" points="16.6761952 52.9094455 0.310909524 52.9094455 0.310909524 96.6813545 91.9620524 96.6813545 91.9620524 52.9094455 75.5967667 52.9094455"></polyline>
                    <path d="M33.3347905,96.6808909 L33.3347905,87.1160727 C33.3347905,84.3249818 31.2054095,82.1876182 28.4247429,82.1876182 C25.6394571,82.1876182 23.5146952,84.3249818 23.5146952,87.1160727 L23.5146952,96.6808909" id="Stroke-9" stroke-width="5"></path>
                    <path d="M51.810981,96.6808909 L51.810981,87.1160727 C51.810981,84.3249818 49.6816,82.1876182 46.9009333,82.1876182 C44.1202667,82.1876182 41.9908857,84.3249818 41.9908857,87.1160727 L41.9908857,96.6808909" id="Stroke-11" stroke-width="5"></path>
                    <path d="M70.2871714,96.6808909 L70.2871714,87.1160727 C70.2871714,84.3249818 68.1577905,82.1876182 65.3771238,82.1876182 C62.5964571,82.1876182 60.4670762,84.3249818 60.4670762,87.1160727 L60.4670762,96.6808909" id="Stroke-13" stroke-width="5"></path>
                    <line x1="10.4196952" y1="60.8329909" x2="10.4196952" y2="64.1155364" id="Stroke-15" stroke-width="5"></line>
                    <line x1="83.0888619" y1="60.8329909" x2="83.0888619" y2="64.1155364" id="Stroke-17" stroke-width="5"></line>
                    <line x1="10.7106952" y1="72.6232636" x2="81.5576476" y2="72.6232636" id="Stroke-19" stroke-width="5"></line>
                    <line x1="23.0412429" y1="52.6173545" x2="23.0412429" y2="69.3360818" id="Stroke-21" stroke-width="5"></line>
                    <line x1="32.2793381" y1="52.6173545" x2="32.2793381" y2="69.3360818" id="Stroke-23" stroke-width="5"></line>
                    <line x1="41.5174333" y1="52.6173545" x2="41.5174333" y2="69.3360818" id="Stroke-25" stroke-width="5"></line>
                    <line x1="69.231719" y1="52.6173545" x2="69.231719" y2="69.3360818" id="Stroke-27" stroke-width="5"></line>
                    <line x1="59.9936238" y1="52.6173545" x2="59.9936238" y2="69.3360818" id="Stroke-29" stroke-width="5"></line>
                    <line x1="50.7555286" y1="52.6173545" x2="50.7555286" y2="69.3360818" id="Stroke-31" stroke-width="5"></line>
                    <path d="M29.0021238,20.4035 C31.3393619,11.8262273 38.1293619,5.62277273 46.1341714,5.62277273 C54.148219,5.62277273 60.938219,11.8262273 63.2708381,20.4035" id="Stroke-33" stroke-width="6"></path>
                </g>
            </g>
            <path d="M195.8696,140.5783 C195.8446,147.3023 190.4136,152.7543 183.6886,152.8073 L31.4306,152.8073 C24.7146,152.7803 19.2756,147.3423 19.2496,140.6263 L19.2496,37.0423 L195.8696,37.0423 L195.8696,140.5783 Z" id="Stroke-11" stroke="#000000" stroke-width="5" stroke-linecap="round" stroke-linejoin="round"></path>
            <path d="M195.8696,37.0422 L19.2496,37.0422 L19.2496,12.6322 C19.2756,5.9242 24.7226,0.5002 31.4306,0.5002 L183.6886,0.5002 C190.3876,0.5262 195.8166,5.9352 195.8696,12.6322 L195.8696,36.8002 L195.8696,37.0422 Z" id="Fill-13" fill="#ABB7BC"></path>
            <path d="M195.8696,37.0422 L19.2496,37.0422 L19.2496,12.6322 C19.2756,5.9242 24.7226,0.5002 31.4306,0.5002 L183.6886,0.5002 C190.3876,0.5262 195.8166,5.9352 195.8696,12.6322 L195.8696,36.8002 L195.8696,37.0422 Z" id="Stroke-15" stroke="#000000" stroke-width="5" stroke-linecap="round" stroke-linejoin="round"></path>
            <path d="M37.5209,12.6325 C40.0119,12.6125 42.2679,14.1015 43.2309,16.3995 C44.1939,18.6975 43.6709,21.3495 41.9099,23.1115 C40.1479,24.8735 37.4959,25.3955 35.1979,24.4325 C32.8989,23.4705 31.4109,21.2145 31.4299,18.7225 C31.4569,15.3695 34.1679,12.6585 37.5209,12.6325 Z" id="Stroke-17" stroke="#000000" stroke-width="5" stroke-linecap="round" stroke-linejoin="round"></path>
            <path d="M61.8823,12.6325 C64.3733,12.6125 66.6303,14.1015 67.5923,16.3995 C68.5553,18.6975 68.0323,21.3495 66.2713,23.1115 C64.5093,24.8735 61.8573,25.3955 59.5593,24.4325 C57.2603,23.4705 55.7723,21.2145 55.7913,18.7225 C55.8183,15.3695 58.5293,12.6585 61.8823,12.6325 Z" id="Stroke-19" stroke="#000000" stroke-width="5" stroke-linecap="round" stroke-linejoin="round"></path>
            <path d="M86.2436,12.6325 C88.7346,12.6125 90.9916,14.1015 91.9536,16.3995 C92.9166,18.6975 92.3936,21.3495 90.6326,23.1115 C88.8706,24.8735 86.2186,25.3955 83.9206,24.4325 C81.6226,23.4705 80.1336,21.2145 80.1526,18.7225 C80.1796,15.3695 82.8906,12.6585 86.2436,12.6325 Z" id="Stroke-21" stroke="#000000" stroke-width="5" stroke-linecap="round" stroke-linejoin="round"></path>
            <path d="M61.8823,56.1349 C61.8823,58.8039 59.7183,60.9679 57.0483,60.9679 L42.5963,60.9679 C41.2733,61.0349 39.9803,60.5549 39.0212945,59.6409 C38.0613,58.7269 37.5193,57.4599 37.5212945,56.1349 L37.5212945,54.1049 C37.5193,52.7799 38.0613,51.5119 39.0212945,50.5979 C39.9803,49.6849 41.2733,49.2049 42.5963,49.2709 L56.8073,49.2709 C59.4763,49.2709 61.6403,51.4349 61.6403,54.1049 L61.8823,56.1349 Z" id="Stroke-35" stroke="#000000" stroke-width="5" stroke-linecap="round" stroke-linejoin="round"></path>
            <line x1="37.5209" y1="73.5358" x2="61.8819" y2="73.5358" id="Stroke-39" stroke="#000000" stroke-width="5" stroke-linecap="round" stroke-linejoin="round"></line>
            <line x1="37.5209" y1="85.7648" x2="61.8819" y2="85.7648" id="Stroke-41" stroke="#000000" stroke-width="5" stroke-linecap="round" stroke-linejoin="round"></line>
            <line x1="37.5209" y1="97.9455" x2="61.8819" y2="97.9455" id="Stroke-43" stroke="#000000" stroke-width="5" stroke-linecap="round" stroke-linejoin="round"></line>
            <line x1="37.5209" y1="110.0778" x2="61.8819" y2="110.0778" id="Stroke-45" stroke="#000000" stroke-width="5" stroke-linecap="round" stroke-linejoin="round"></line>
            <line x1="37.5209" y1="122.2585" x2="61.8819" y2="122.2585" id="Stroke-47" stroke="#000000" stroke-width="5" stroke-linecap="round" stroke-linejoin="round"></line>
            <line x1="37.5209" y1="134.4396" x2="52.7469" y2="134.4396" id="Stroke-49" stroke="#000000" stroke-width="5" stroke-linecap="round" stroke-linejoin="round"></line>
            <path d="M107.0844,200.9499 C108.4724,200.9499 109.5984,199.8249 109.5984,198.4359 C109.5984,197.0489 108.4724,195.9229 107.0844,195.9229 C105.6954,195.9229 104.5704,197.0489 104.5704,198.4359 C104.5704,199.8249 105.6954,200.9499 107.0844,200.9499 Z" id="Stroke-51" stroke="#000000" stroke-width="5" stroke-linecap="round" stroke-linejoin="round"></path>
        </g>
        <path d="M168.864425,77.5059603 L168.864425,76.3933775 C168.864425,75.6516556 169.02115,75.0520971 169.334599,74.594702 C169.648048,74.1373068 170.394794,73.4697572 171.574837,72.592053 C173.295734,71.3558499 174.463485,70.2432671 175.078091,69.2543046 C175.692697,68.2653422 176,67.0909492 176,65.7311258 C176,63.6913907 175.253254,62.0596026 173.759761,60.8357616 C172.266269,59.6119205 170.253435,59 167.721258,59 C164.648228,59 161.741142,59.7726269 159,61.3178808 L159,61.3178808 L161.009761,65.3788079 C163.369848,64.1673289 165.4718,63.5615894 167.315618,63.5615894 C168.37274,63.5615894 169.196312,63.7717439 169.786334,64.192053 C170.376356,64.612362 170.671367,65.2242826 170.671367,66.0278146 C170.671367,66.7448124 170.465474,67.393819 170.053688,67.9748344 C169.641902,68.5558499 168.790672,69.3099338 167.5,70.2370861 C166.160159,71.2260486 165.23825,72.1593819 164.734273,73.0370861 C164.230296,73.9147903 163.978308,74.9470199 163.978308,76.1337748 L163.978308,76.1337748 L163.978308,77.5059603 L168.864425,77.5059603 Z M166.633406,87 C167.641359,87 168.428055,86.7187638 168.993492,86.1562914 C169.55893,85.593819 169.841649,84.8242826 169.841649,83.8476821 C169.841649,82.8339956 169.562003,82.0551876 169.002711,81.5112583 C168.44342,80.9673289 167.653651,80.6953642 166.633406,80.6953642 C165.576283,80.6953642 164.77115,80.9611479 164.218004,81.4927152 C163.664859,82.0242826 163.388286,82.8092715 163.388286,83.8476821 C163.388286,84.8490066 163.671005,85.6247241 164.236443,86.1748344 C164.80188,86.7249448 165.600868,87 166.633406,87 Z" id="?" fill="#D90000" fill-rule="nonzero" transform="translate(167.500000, 73.000000) rotate(-1.000000) translate(-167.500000, -73.000000) "></path>
        <path d="M91.8644252,86.8450331 L91.8644252,85.7721854 C91.8644252,85.0569536 92.0211497,84.4788079 92.3345987,84.0377483 C92.6480477,83.5966887 93.3947939,82.9529801 94.5748373,82.1066225 C96.2957339,80.9145695 97.4634852,79.8417219 98.0780911,78.8880795 C98.692697,77.9344371 99,76.8019868 99,75.4907285 C99,73.5238411 98.2532538,71.9503311 96.7597614,70.7701987 C95.266269,69.5900662 93.2534346,69 90.7212581,69 C87.6482285,69 84.7411424,69.7450331 82,71.2350993 L82,71.2350993 L84.0097614,75.1509934 C86.3698482,73.9827815 88.4718004,73.3986755 90.3156182,73.3986755 C91.3727404,73.3986755 92.1963124,73.6013245 92.7863341,74.0066225 C93.3763557,74.4119205 93.6713666,75.0019868 93.6713666,75.7768212 C93.6713666,76.4682119 93.4654736,77.0940397 93.0536876,77.6543046 C92.6419017,78.2145695 91.7906725,78.9417219 90.5,79.8357616 C89.1601591,80.789404 88.2382502,81.689404 87.7342733,82.5357616 C87.2302965,83.3821192 86.978308,84.3774834 86.978308,85.5218543 L86.978308,85.5218543 L86.978308,86.8450331 L91.8644252,86.8450331 Z M89.6334056,96 C90.6413594,96 91.428055,95.7288079 91.9934924,95.1864238 C92.5589299,94.6440397 92.8416486,93.9019868 92.8416486,92.9602649 C92.8416486,91.9827815 92.5620029,91.2317881 92.0027115,90.7072848 C91.4434201,90.1827815 90.6536515,89.9205298 89.6334056,89.9205298 C88.5762834,89.9205298 87.7711497,90.1768212 87.2180043,90.689404 C86.664859,91.2019868 86.3882863,91.9589404 86.3882863,92.9602649 C86.3882863,93.9258278 86.6710051,94.6738411 87.2364425,95.2043046 C87.80188,95.7347682 88.6008677,96 89.6334056,96 Z" id="?" fill="#2EBA09" fill-rule="nonzero"></path>
    </g>
</svg>