<svg xmlns="http://www.w3.org/2000/svg" xmlns:xlink="http://www.w3.org/1999/xlink" width="546" height="449" viewBox="0 0 546 449">
  <defs>
    <filter id="voty_now-a" width="103.7%" height="104.9%" x="-1.9%" y="-2.4%" filterUnits="objectBoundingBox">
      <feOffset dx="-2" dy="2" in="SourceAlpha" result="shadowOffsetOuter1"/>
      <feGaussianBlur in="shadowOffsetOuter1" result="shadowBlurOuter1" stdDeviation="2"/>
      <feColorMatrix in="shadowBlurOuter1" result="shadowMatrixOuter1" values="0 0 0 0 0   0 0 0 0 0   0 0 0 0 0  0 0 0 0.5 0"/>
      <feMerge>
        <feMergeNode in="shadowMatrixOuter1"/>
        <feMergeNode in="SourceGraphic"/>
      </feMerge>
    </filter>
    <linearGradient id="voty_now-b" x1="50%" x2="50%" y1="0%" y2="100%">
      <stop offset="0%"/>
      <stop offset="100%"/>
    </linearGradient>
    <path id="voty_now-c" d="M357.890817,113.182397 C357.890369,121.61415 349.636943,128.449876 339.456274,128.450417 L302.58881,128.452376 L280.636303,162.902858 L256.504481,128.454825 L191.986419,128.458254 C181.80575,128.458795 173.553498,121.623947 173.553498,113.192194 L173.558363,21.5899533 C173.55881,13.1581999 181.812236,6.32247464 191.992905,6.32193358 L339.46276,6.31409614 C349.643429,6.31409614 357.895681,13.1484031 357.895681,21.5801565 L357.890817,113.182397 Z"/>
  </defs>
  <g fill="none" fill-rule="evenodd" stroke-linecap="round" stroke-linejoin="round" filter="url(#voty_now-a)" transform="translate(-46 -49)">
    <g transform="translate(57.208 57.252)">
      <path stroke="#000" stroke-width="18.359" d="M160.627129,46.444651 C144.07733,17.7079355 113.456206,1.12999216e-14 80.3135644,1.12999216e-14 C47.1709226,1.12999216e-14 16.5497986,17.7079355 -1.12912979e-14,46.444651" transform="translate(28.34 379.118)"/>
      <path stroke="#000" stroke-width="16.874" d="M147.631974,42.6871572 C132.421097,16.2753172 104.277302,0 73.8159868,0 C43.3546716,0 15.2108766,16.2753172 0,42.6871572" transform="translate(184.337 302.161)"/>
      <g stroke="#000" transform="translate(38.163 225.105)">
        <path stroke-width="15.299" d="M18.908518,51.7323174 C45.5475024,79.1993294 86.3521346,87.4039789 121.55006,72.3706083" transform="rotate(-23 70.23 65.769)"/>
        <path stroke-width="18.359" d="M18.2466792,73.8504988 C18.2382434,104.587799 43.1356969,129.498464 73.8567002,129.490028 C104.577703,129.481588 129.488838,104.557243 129.497278,73.8199424 C129.505713,43.0826423 104.60826,18.1719776 73.8872566,18.1804134 C43.1662533,18.1888534 18.2551192,43.1131987 18.2466792,73.8504988 Z" transform="rotate(-23 73.872 73.835)"/>
      </g>
      <g stroke="#000" transform="translate(215.104 179.537)">
        <path stroke-width="14.061" d="M3.17821782,28.6258065 C27.9295369,53.512257 65.8340755,60.9542411 98.5247525,47.3456596"/>
        <path stroke-width="16.874" d="M0,50.8903226 C0,78.9962717 22.7669854,101.780645 50.8514851,101.780645 C78.9359849,101.780645 101.70297,78.9962717 101.70297,50.8903226 C101.70297,22.7843735 78.9359849,0 50.8514851,0 C22.7669854,0 0,22.7843735 0,50.8903226 Z"/>
      </g>
      <path stroke="url(#voty_now-b)" stroke-width="18.359" d="M502.423267,425.562371 C485.873469,396.825655 455.252345,379.11772 422.109703,379.11772 C388.967061,379.11772 358.345937,396.825655 341.796139,425.562371"/>
      <path fill="#FFF" stroke="#000" stroke-width="15.299" d="M194.135924,171.74349 C194.135113,180.5265 185.88133,187.647298 175.700584,187.648238 L138.832839,187.651644 L133.298692,224.621674 L92.7481574,187.655902 L28.2296038,187.661862 C18.0488572,187.662803 9.79719941,180.543529 9.79719941,171.76052 L9.80600781,76.3422462 C9.8068186,67.5592367 18.0606017,60.4384382 28.2413483,60.4374977 L175.712328,60.4238741 C185.893075,60.4238741 194.144732,67.5422071 194.144732,76.3252167 L194.135924,171.74349 Z" transform="rotate(-7 101.971 142.523)"/>
      <path stroke="#78C539" stroke-width="17.849" d="M136.27261,98.2088048 L100.357295,146.135627 C98.7432387,148.288531 96.274597,149.634006 93.5919349,149.822928 C90.9092729,150.01185 88.2770362,149.025595 86.3782393,147.120079 L67.8399526,128.567942" transform="rotate(-6 102.056 124.027)"/>
      <path fill="#FFF" stroke="#000" stroke-width="15.299" d="M520.204377,174.894755 C520.203911,183.677831 511.95047,190.79836 501.769801,190.798901 L464.902337,190.800861 L459.241914,226.440875 L418.818007,190.80331 L354.299946,190.806739 C344.119277,190.80728 335.867058,183.687628 335.867058,174.904552 L335.872126,79.485551 C335.872592,70.7024745 344.126033,63.5819456 354.306702,63.5814046 L501.776557,63.5735671 C511.957226,63.5735671 520.209444,70.6926777 520.209444,79.4757542 L520.204377,174.894755 Z" transform="scale(-1 1) rotate(-4 0 12402.419)"/>
      <g transform="scale(-1 1) rotate(-4 0 7693.965)">
        <use fill="#D8D8D8" xlink:href="#voty_now-c"/>
        <use fill="#FFF" stroke="#000" stroke-width="15.299" xlink:href="#voty_now-c"/>
      </g>
    </g>
    <g stroke="#010204" transform="rotate(-1 17566.37 -23465.458)">
      <path stroke-width="18.359" d="M131.52699,111.422875 C124.347107,99.6328014 120.767278,85.9957853 121.227397,72.1968454 L121.227397,56.1512134 C121.227397,25.6690668 96.5326449,0.955453901 66.073761,0.955453901 C35.6098209,0.955453901 10.9150684,25.6690668 10.9150684,56.1512134 L10.9150684,72.1968454 C11.3751877,85.9957853 7.7953587,99.6328014 0.615475715,111.422875"/>
      <path stroke-width="15.299" d="M10.9175966,65.2710628 C32.0931951,65.235642 52.2221488,56.0009279 66.0712329,39.9654162 C79.9203171,56.0009279 100.049271,65.235642 121.224869,65.2710628"/>
      <path stroke-width="18.359" d="M17.6575853,64.9477213 C20.1452631,89.8384384 41.0832176,108.798698 66.0813454,108.798698 C91.0794732,108.798698 112.012372,89.8384384 114.505106,64.9477213"/>
    </g>
    <path stroke="#E02212" stroke-width="17.849" d="M55.6188119,0 L0,55.6612903 M0,0 L55.6188119,55.6612903" transform="translate(458.193 152.236)"/>
    <path stroke="#E02212" stroke-width="17.849" d="M55.6188119,0 L0,55.6612903 M0,0 L55.6188119,55.6612903" transform="translate(292.926 94.985)"/>
  </g>
</svg>
