<?xml version="1.0" encoding="UTF-8"?>
<svg width="218px" height="252px" viewBox="0 0 218 252" version="1.1" xmlns="http://www.w3.org/2000/svg" xmlns:xlink="http://www.w3.org/1999/xlink">
    <title>Modul 3</title>
    <g id="Modul-3" stroke="none" stroke-width="1" fill="none" fill-rule="evenodd">
        <g id="Modul-Icon" transform="translate(2.000000, 2.000000)">
            <path d="M213.6655,192.5397 C213.6655,202.6307 205.4855,210.8107 195.3945,210.8107 L19.1845,210.8107 C15.6005,210.8107 12.0375,209.9077 9.0115,207.9877 C3.5535,204.5227 0.4205,198.5567 0.49996718,192.2977 L0.49996718,76.6297 C0.49996718,66.5307 8.6755,58.3367 18.7735,58.3097 L36.5615,58.3097 L197.7915,58.3097 C206.5595,58.3097 213.6655,65.4167 213.6655,74.1837 L213.6655,192.2977 L213.6655,186.2077 L213.6655,165.4227" id="Stroke-1" stroke="#000000" stroke-width="5" stroke-linecap="round" stroke-linejoin="round"></path>
            <path d="M195.395,210.810275 C205.466,210.810275 213.639,202.6602 213.666,192.5872 L213.666,186.2072 L0.499480263,186.2072 L0.499480263,192.3462 C0.438,197.2292 2.336,201.9342 5.771,205.4052 C9.207,208.8762 13.891,210.8242 18.774,210.810275 L195.395,210.810275 Z" id="Stroke-3" stroke="#000000" stroke-width="5" fill="#B9C2C6" stroke-linecap="round" stroke-linejoin="round"></path>
            <polygon id="Stroke-5" stroke="#000000" stroke-width="5" stroke-linecap="round" stroke-linejoin="round" points="125.3559 234.9782 88.8129 234.9782 91.8589 210.5692 122.3099 210.5692"></polygon>
            <path d="M146.6713,247.111 L67.4973,247.111 C67.5243,240.403 72.9693,234.978 79.6783,234.978 L134.4903,234.978 C141.1993,234.978 146.6453,240.403 146.6713,247.111 Z" id="Stroke-7" stroke="#000000" stroke-width="5" stroke-linecap="round" stroke-linejoin="round"></path>
            <path d="M195.8696,140.5783 C195.8446,147.3023 190.4136,152.7543 183.6886,152.8073 L31.4306,152.8073 C24.7146,152.7803 19.2756,147.3423 19.2496,140.6263 L19.2496,37.0423 L195.8696,37.0423 L195.8696,140.5783 Z" id="Fill-9" fill="#B9C2C6"></path>
            <path d="M195.8696,140.5783 C195.8446,147.3023 190.4136,152.7543 183.6886,152.8073 L31.4306,152.8073 C24.7146,152.7803 19.2756,147.3423 19.2496,140.6263 L19.2496,37.0423 L195.8696,37.0423 L195.8696,140.5783 Z" id="Stroke-11" stroke="#000000" stroke-width="5" stroke-linecap="round" stroke-linejoin="round"></path>
            <path d="M195.8696,37.0422 L19.2496,37.0422 L19.2496,12.6322 C19.2756,5.9242 24.7226,0.5002 31.4306,0.5002 L183.6886,0.5002 C190.3876,0.5262 195.8166,5.9352 195.8696,12.6322 L195.8696,36.8002 L195.8696,37.0422 Z" id="Fill-13" fill="#8F969B"></path>
            <path d="M195.8696,37.0422 L19.2496,37.0422 L19.2496,12.6322 C19.2756,5.9242 24.7226,0.5002 31.4306,0.5002 L183.6886,0.5002 C190.3876,0.5262 195.8166,5.9352 195.8696,12.6322 L195.8696,36.8002 L195.8696,37.0422 Z" id="Stroke-15" stroke="#000000" stroke-width="5" stroke-linecap="round" stroke-linejoin="round"></path>
            <path d="M37.5209,12.6325 C40.0119,12.6125 42.2679,14.1015 43.2309,16.3995 C44.1939,18.6975 43.6709,21.3495 41.9099,23.1115 C40.1479,24.8735 37.4959,25.3955 35.1979,24.4325 C32.8989,23.4705 31.4109,21.2145 31.4299,18.7225 C31.4569,15.3695 34.1679,12.6585 37.5209,12.6325 Z" id="Stroke-17" stroke="#000000" stroke-width="5" stroke-linecap="round" stroke-linejoin="round"></path>
            <path d="M61.8823,12.6325 C64.3733,12.6125 66.6303,14.1015 67.5923,16.3995 C68.5553,18.6975 68.0323,21.3495 66.2713,23.1115 C64.5093,24.8735 61.8573,25.3955 59.5593,24.4325 C57.2603,23.4705 55.7723,21.2145 55.7913,18.7225 C55.8183,15.3695 58.5293,12.6585 61.8823,12.6325 Z" id="Stroke-19" stroke="#000000" stroke-width="5" stroke-linecap="round" stroke-linejoin="round"></path>
            <path d="M86.2436,12.6325 C88.7346,12.6125 90.9916,14.1015 91.9536,16.3995 C92.9166,18.6975 92.3936,21.3495 90.6326,23.1115 C88.8706,24.8735 86.2186,25.3955 83.9206,24.4325 C81.6226,23.4705 80.1336,21.2145 80.1526,18.7225 C80.1796,15.3695 82.8906,12.6585 86.2436,12.6325 Z" id="Stroke-21" stroke="#000000" stroke-width="5" stroke-linecap="round" stroke-linejoin="round"></path>
            <path d="M61.8823,56.1349 C61.8823,58.8039 59.7183,60.9679 57.0483,60.9679 L42.5963,60.9679 C41.2733,61.0349 39.9803,60.5549 39.0212945,59.6409 C38.0613,58.7269 37.5193,57.4599 37.5212945,56.1349 L37.5212945,54.1049 C37.5193,52.7799 38.0613,51.5119 39.0212945,50.5979 C39.9803,49.6849 41.2733,49.2049 42.5963,49.2709 L56.8073,49.2709 C59.4763,49.2709 61.6403,51.4349 61.6403,54.1049 L61.8823,56.1349 Z" id="Stroke-35" stroke="#000000" stroke-width="5" stroke-linecap="round" stroke-linejoin="round"></path>
            <line x1="37.5209" y1="73.5358" x2="61.8819" y2="73.5358" id="Stroke-39" stroke="#000000" stroke-width="5" stroke-linecap="round" stroke-linejoin="round"></line>
            <line x1="37.5209" y1="85.7648" x2="61.8819" y2="85.7648" id="Stroke-41" stroke="#000000" stroke-width="5" stroke-linecap="round" stroke-linejoin="round"></line>
            <line x1="37.5209" y1="97.9455" x2="61.8819" y2="97.9455" id="Stroke-43" stroke="#000000" stroke-width="5" stroke-linecap="round" stroke-linejoin="round"></line>
            <line x1="37.5209" y1="110.0778" x2="61.8819" y2="110.0778" id="Stroke-45" stroke="#000000" stroke-width="5" stroke-linecap="round" stroke-linejoin="round"></line>
            <line x1="37.5209" y1="122.2585" x2="61.8819" y2="122.2585" id="Stroke-47" stroke="#000000" stroke-width="5" stroke-linecap="round" stroke-linejoin="round"></line>
            <line x1="37.5209" y1="134.4396" x2="52.7469" y2="134.4396" id="Stroke-49" stroke="#000000" stroke-width="5" stroke-linecap="round" stroke-linejoin="round"></line>
            <path d="M107.0844,200.9499 C108.4724,200.9499 109.5984,199.8249 109.5984,198.4359 C109.5984,197.0489 108.4724,195.9229 107.0844,195.9229 C105.6954,195.9229 104.5704,197.0489 104.5704,198.4359 C104.5704,199.8249 105.6954,200.9499 107.0844,200.9499 Z" id="Stroke-51" stroke="#000000" stroke-width="5" stroke-linecap="round" stroke-linejoin="round"></path>
        </g>
        <g id="Group-17" transform="translate(84.000000, 47.000000)">
            <path d="M48.0012763,48.2252874 C52.2049884,48.2734621 55.6399965,44.8837157 55.6399965,40.6925177 L55.6399965,16.0971487 C55.6399965,11.9322278 52.2576995,8.55999947 48.0847356,8.55999947 L10.7652607,8.55999947 C6.59229684,8.55999947 3.2099998,11.9322278 3.2099998,16.0971487 L3.2099998,40.6925177 C3.2099998,44.8530591 6.59229684,48.2252874 10.7652607,48.2252874 L31.577369,48.2252874 C32.4031766,48.2252874 33.0708508,48.890974 33.0708508,49.7143233 L33.0708508,58.8499963 L36.365296,58.8499963 L44.9176756,48.501197 L48.0012763,48.2252874 Z" id="Stroke-1" stroke="#000000" stroke-width="4.27999973"></path>
            <path d="M51.5093575,39.665288 C47.3009003,39.7134626 43.8699973,36.3280958 43.8699973,32.1325182 L43.8699973,7.53714923 C43.8699973,3.37660782 47.2525777,0 51.4214983,0 L88.748493,0 C92.9218065,0 96.299994,3.37660782 96.299994,7.53714923 L96.299994,32.1325182 C96.299994,36.2930597 92.9218065,39.665288 88.748493,39.665288 L67.930248,39.665288 C67.1087641,39.665288 66.436641,40.3309746 66.436641,41.1543238 L66.436641,50.2899969 L63.1419198,50.2899969 L54.5932165,39.9411975 L51.5093575,39.665288 Z" id="Fill-3" fill="#8F969B"></path>
            <path d="M51.5093575,40.7352879 C47.3009003,40.7834626 43.8699973,37.3980957 43.8699973,33.2025182 L43.8699973,8.60714916 C43.8699973,4.44660775 47.2525777,1.06999993 51.4214983,1.06999993 L88.748493,1.06999993 C92.9218065,1.06999993 96.299994,4.44660775 96.299994,8.60714916 L96.299994,33.2025182 C96.299994,37.3630596 92.9218065,40.7352879 88.748493,40.7352879 L67.930248,40.7352879 C67.1087641,40.7352879 66.436641,41.4009745 66.436641,42.2243238 L66.436641,51.3599968 L63.1419198,51.3599968 L54.5932165,41.0111975 L51.5093575,40.7352879 Z" id="Stroke-5" stroke="#000000" stroke-width="4.27999973"></path>
            <path d="M64.1115175,17.3187472 L68.6300546,21.8062746 L81.3099452,9.20892013 C82.1811517,8.34369258 83.5940409,8.34369258 84.4697613,9.20892013 L88.1532041,12.8670843 C89.0289246,13.7367948 89.0289246,15.1399877 88.1532041,16.0052153 L70.489832,33.5473675 C69.5599433,34.4708746 68.0567736,34.4708746 67.1268849,33.5473675 L57.2502025,23.7429497 C56.5144168,23.0122135 56.5324729,21.8152406 57.2908287,21.1024366 L61.3669915,17.2828829 C62.1388895,16.5566297 63.3576757,16.5700788 64.1115175,17.3187472 Z" id="Stroke-7" stroke="#8F969B" stroke-width="4.27999973" fill="#4BDF24"></path>
            <path d="M0,98.4399939 C0,90.7578199 9.10413605,84.5299947 20.3277295,84.5299947 C31.5558614,84.5299947 40.6599975,90.7578199 40.6599975,98.4399939 L0,98.4399939 Z" id="Stroke-9" stroke="#000000" stroke-width="4.27999973"></path>
            <path d="M49.2199969,98.4399939 C49.2199969,90.7578199 58.3206103,84.5299947 69.5499957,84.5299947 C80.779381,84.5299947 89.8799944,90.7578199 89.8799944,98.4399939 L49.2199969,98.4399939 Z" id="Stroke-11" stroke="#000000" stroke-width="4.27999973"></path>
            <path d="M19.7949988,79.1799951 L19.7949988,79.1799951 C14.1829347,79.1799951 9.6299994,74.6825602 9.6299994,69.1389073 L9.6299994,64.6154255 C9.6299994,59.0674315 14.1829347,54.5699966 19.7949988,54.5699966 C25.4114576,54.5699966 29.9599981,59.0674315 29.9599981,64.6154255 L29.9599981,69.1389073 C29.9599981,74.6825602 25.4114576,79.1799951 19.7949988,79.1799951 Z" id="Stroke-13" stroke="#000000" stroke-width="4.27999973"></path>
            <path d="M69.0149957,79.1799951 L69.0149957,79.1799951 C63.3985369,79.1799951 58.8499963,74.6825602 58.8499963,69.1389073 L58.8499963,64.6154255 C58.8499963,59.0674315 63.3985369,54.5699966 69.0149957,54.5699966 C74.6270598,54.5699966 79.1799951,59.0674315 79.1799951,64.6154255 L79.1799951,69.1389073 C79.1799951,74.6825602 74.6270598,79.1799951 69.0149957,79.1799951 Z" id="Stroke-15" stroke="#000000" stroke-width="4.27999973"></path>
        </g>
        <g id="Group" transform="translate(89.000000, 55.000000)" fill="#FF0000" fill-rule="nonzero">
            <g id="+">
                <path d="M23.4580078,32.6357422 L23.4580078,23.5444336 L23.4580078,23.5444336 L32.6069336,23.5444336 C33.7115031,23.5444336 34.6069336,22.6490031 34.6069336,21.5444336 L34.6069336,19.2353516 C34.6069336,18.1307821 33.7115031,17.2353516 32.6069336,17.2353516 L23.4580078,17.2353516 L23.4580078,17.2353516 L23.4580078,8 C23.4580078,6.8954305 22.5625773,6 21.4580078,6 L19.1489258,6 C18.0443563,6 17.1489258,6.8954305 17.1489258,8 L17.1489258,17.2353516 L17.1489258,17.2353516 L8,17.2353516 C6.8954305,17.2353516 6,18.1307821 6,19.2353516 L6,21.5444336 C6,22.6490031 6.8954305,23.5444336 8,23.5444336 L17.1489258,23.5444336 L17.1489258,23.5444336 L17.1489258,32.6357422 C17.1489258,33.7403117 18.0443563,34.6357422 19.1489258,34.6357422 L21.4580078,34.6357422 C22.5625773,34.6357422 23.4580078,33.7403117 23.4580078,32.6357422 Z" transform="translate(20.303467, 20.317871) rotate(-44.000000) translate(-20.303467, -20.317871) "></path>
            </g>
        </g>
    </g>
</svg>