<svg xmlns="http://www.w3.org/2000/svg" width="240" height="270" viewBox="0 0 240 270">
  <defs>
    <filter id="start_modul_1-a" width="115%" height="111.3%" x="-7.5%" y="-5.6%" filterUnits="objectBoundingBox">
      <feOffset dy="2" in="SourceAlpha" result="shadowOffsetOuter1"/>
      <feGaussianBlur in="shadowOffsetOuter1" result="shadowBlurOuter1" stdDeviation="2"/>
      <feColorMatrix in="shadowBlurOuter1" result="shadowMatrixOuter1" values="0 0 0 0 0   0 0 0 0 0   0 0 0 0 0  0 0 0 0.5 0"/>
      <feMerge>
        <feMergeNode in="shadowMatrixOuter1"/>
        <feMergeNode in="SourceGraphic"/>
      </feMerge>
    </filter>
    <linearGradient id="start_modul_1-b" x1="0%" x2="100%" y1="28.239%" y2="68.781%">
      <stop offset="0%" stop-color="#BEF3FD"/>
      <stop offset="100%" stop-color="#BEF3FD" stop-opacity=".662"/>
    </linearGradient>
  </defs>
  <g fill="none" fill-rule="evenodd" filter="url(#start_modul_1-a)" transform="translate(13 11)">
    <path fill="url(#start_modul_1-b)" stroke="#000" stroke-linecap="round" stroke-linejoin="round" stroke-width="7.5" d="M213.6655,192.5397 C213.6655,202.6307 205.4855,210.8107 195.3945,210.8107 L19.1845,210.8107 C15.6005,210.8107 12.0375,209.9077 9.0115,207.9877 C3.5535,204.5227 0.4205,198.5567 0.49996718,192.2977 L0.49996718,76.6297 C0.49996718,66.5307 8.6755,58.3367 18.7735,58.3097 L36.5615,58.3097 L197.7915,58.3097 C206.5595,58.3097 213.6655,65.4167 213.6655,74.1837 L213.6655,192.2977 L213.6655,186.2077 L213.6655,165.4227"/>
    <path fill="#B9C2C6" stroke="#000" stroke-linecap="round" stroke-linejoin="round" stroke-width="5" d="M195.395,210.810275 C205.466,210.810275 213.639,202.6602 213.666,192.5872 L213.666,186.2072 L0.499480263,186.2072 L0.499480263,192.3462 C0.438,197.2292 2.336,201.9342 5.771,205.4052 C9.207,208.8762 13.891,210.8242 18.774,210.810275 L195.395,210.810275 Z"/>
    <polygon fill="#73899D" stroke="#000" stroke-linecap="round" stroke-linejoin="round" stroke-width="5" points="125.356 234.978 88.813 234.978 91.859 210.978 122.31 210.978"/>
    <path fill="#DEE4E7" stroke="#000" stroke-linecap="round" stroke-linejoin="round" stroke-width="5" d="M146.6713,247.111 L67.4973,247.111 C67.5243,240.403 72.9693,234.978 79.6783,234.978 L134.4903,234.978 C141.1993,234.978 146.6453,240.403 146.6713,247.111 Z"/>
    <path fill="#DEE4E7" d="M195.8696,140.5783 C195.8446,147.3023 190.4136,152.7543 183.6886,152.8073 L31.4306,152.8073 C24.7146,152.7803 19.2756,147.3423 19.2496,140.6263 L19.2496,37.0423 L195.8696,37.0423 L195.8696,140.5783 Z"/>
    <g stroke="#000" stroke-linecap="round" stroke-linejoin="round" transform="translate(81 48)">
      <line x1="62.5" x2="62.5" y1="39" y2="21" stroke-width="5"/>
      <line x1="29.5" x2="29.5" y1="39" y2="21" stroke-width="5"/>
      <polygon stroke-width="5" points="46 30 18 46 74 46"/>
      <line x1="25" x2="68" y1="21.5" y2="21.5" stroke-width="6"/>
      <path stroke-width="5" d="M49.4109238,6.62045455 L42.8611143,6.62045455 L42.8611143,3.33327273 C42.8611143,1.52509091 44.3345905,0.0507272727 46.136019,0.0507272727 C47.9374476,0.0507272727 49.4109238,1.52509091 49.4109238,3.33327273 L49.4109238,6.62045455 Z"/>
      <polyline stroke-width="5" points="16.676 52.909 .311 52.909 .311 96.681 91.962 96.681 91.962 52.909 75.597 52.909"/>
      <path stroke-width="5" d="M33.3347905 96.6808909L33.3347905 87.1160727C33.3347905 84.3249818 31.2054095 82.1876182 28.4247429 82.1876182 25.6394571 82.1876182 23.5146952 84.3249818 23.5146952 87.1160727L23.5146952 96.6808909M51.810981 96.6808909L51.810981 87.1160727C51.810981 84.3249818 49.6816 82.1876182 46.9009333 82.1876182 44.1202667 82.1876182 41.9908857 84.3249818 41.9908857 87.1160727L41.9908857 96.6808909M70.2871714 96.6808909L70.2871714 87.1160727C70.2871714 84.3249818 68.1577905 82.1876182 65.3771238 82.1876182 62.5964571 82.1876182 60.4670762 84.3249818 60.4670762 87.1160727L60.4670762 96.6808909"/>
      <line x1="10.42" x2="10.42" y1="60.833" y2="64.116" stroke-width="5"/>
      <line x1="83.089" x2="83.089" y1="60.833" y2="64.116" stroke-width="5"/>
      <line x1="10.711" x2="81.558" y1="72.623" y2="72.623" stroke-width="5"/>
      <line x1="23.041" x2="23.041" y1="52.617" y2="69.336" stroke-width="5"/>
      <line x1="32.279" x2="32.279" y1="52.617" y2="69.336" stroke-width="5"/>
      <line x1="41.517" x2="41.517" y1="52.617" y2="69.336" stroke-width="5"/>
      <line x1="69.232" x2="69.232" y1="52.617" y2="69.336" stroke-width="5"/>
      <line x1="59.994" x2="59.994" y1="52.617" y2="69.336" stroke-width="5"/>
      <line x1="50.756" x2="50.756" y1="52.617" y2="69.336" stroke-width="5"/>
      <path stroke-width="6" d="M29.0021238,20.4035 C31.3393619,11.8262273 38.1293619,5.62277273 46.1341714,5.62277273 C54.148219,5.62277273 60.938219,11.8262273 63.2708381,20.4035"/>
    </g>
    <path stroke="#000" stroke-linecap="round" stroke-linejoin="round" stroke-width="5" d="M195.8696,140.5783 C195.8446,147.3023 190.4136,152.7543 183.6886,152.8073 L31.4306,152.8073 C24.7146,152.7803 19.2756,147.3423 19.2496,140.6263 L19.2496,37.0423 L195.8696,37.0423 L195.8696,140.5783 Z"/>
    <path fill="#73899D" d="M195.8696,37.0422 L19.2496,37.0422 L19.2496,12.6322 C19.2756,5.9242 24.7226,0.5002 31.4306,0.5002 L183.6886,0.5002 C190.3876,0.5262 195.8166,5.9352 195.8696,12.6322 L195.8696,36.8002 L195.8696,37.0422 Z"/>
    <path stroke="#000" stroke-linecap="round" stroke-linejoin="round" stroke-width="5" d="M195.8696,37.0422 L19.2496,37.0422 L19.2496,12.6322 C19.2756,5.9242 24.7226,0.5002 31.4306,0.5002 L183.6886,0.5002 C190.3876,0.5262 195.8166,5.9352 195.8696,12.6322 L195.8696,36.8002 L195.8696,37.0422 Z"/>
    <path stroke="#000" stroke-linecap="round" stroke-linejoin="round" stroke-width="5" d="M37.5209 12.6325C40.0119 12.6125 42.2679 14.1015 43.2309 16.3995 44.1939 18.6975 43.6709 21.3495 41.9099 23.1115 40.1479 24.8735 37.4959 25.3955 35.1979 24.4325 32.8989 23.4705 31.4109 21.2145 31.4299 18.7225 31.4569 15.3695 34.1679 12.6585 37.5209 12.6325zM61.8823 12.6325C64.3733 12.6125 66.6303 14.1015 67.5923 16.3995 68.5553 18.6975 68.0323 21.3495 66.2713 23.1115 64.5093 24.8735 61.8573 25.3955 59.5593 24.4325 57.2603 23.4705 55.7723 21.2145 55.7913 18.7225 55.8183 15.3695 58.5293 12.6585 61.8823 12.6325zM86.2436 12.6325C88.7346 12.6125 90.9916 14.1015 91.9536 16.3995 92.9166 18.6975 92.3936 21.3495 90.6326 23.1115 88.8706 24.8735 86.2186 25.3955 83.9206 24.4325 81.6226 23.4705 80.1336 21.2145 80.1526 18.7225 80.1796 15.3695 82.8906 12.6585 86.2436 12.6325zM61.8823 56.1349C61.8823 58.8039 59.7183 60.9679 57.0483 60.9679L42.5963 60.9679C41.2733 61.0349 39.9803 60.5549 39.0212945 59.6409 38.0613 58.7269 37.5193 57.4599 37.5212945 56.1349L37.5212945 54.1049C37.5193 52.7799 38.0613 51.5119 39.0212945 50.5979 39.9803 49.6849 41.2733 49.2049 42.5963 49.2709L56.8073 49.2709C59.4763 49.2709 61.6403 51.4349 61.6403 54.1049L61.8823 56.1349z"/>
    <line x1="37.521" x2="61.882" y1="73.536" y2="73.536" stroke="#000" stroke-linecap="round" stroke-linejoin="round" stroke-width="5"/>
    <line x1="37.521" x2="61.882" y1="85.765" y2="85.765" stroke="#000" stroke-linecap="round" stroke-linejoin="round" stroke-width="5"/>
    <line x1="37.521" x2="61.882" y1="97.945" y2="97.945" stroke="#000" stroke-linecap="round" stroke-linejoin="round" stroke-width="5"/>
    <line x1="37.521" x2="61.882" y1="110.078" y2="110.078" stroke="#000" stroke-linecap="round" stroke-linejoin="round" stroke-width="5"/>
    <line x1="37.521" x2="61.882" y1="122.258" y2="122.258" stroke="#000" stroke-linecap="round" stroke-linejoin="round" stroke-width="5"/>
    <line x1="37.521" x2="52.747" y1="134.44" y2="134.44" stroke="#000" stroke-linecap="round" stroke-linejoin="round" stroke-width="5"/>
    <path stroke="#000" stroke-linecap="round" stroke-linejoin="round" stroke-width="5" d="M107.0844,200.9499 C108.4724,200.9499 109.5984,199.8249 109.5984,198.4359 C109.5984,197.0489 108.4724,195.9229 107.0844,195.9229 C105.6954,195.9229 104.5704,197.0489 104.5704,198.4359 C104.5704,199.8249 105.6954,200.9499 107.0844,200.9499 Z"/>
    <path fill="#D90000" fill-rule="nonzero" d="M166.864425,75.5059603 L166.864425,74.3933775 C166.864425,73.6516556 167.02115,73.0520971 167.334599,72.594702 C167.648048,72.1373068 168.394794,71.4697572 169.574837,70.592053 C171.295734,69.3558499 172.463485,68.2432671 173.078091,67.2543046 C173.692697,66.2653422 174,65.0909492 174,63.7311258 C174,61.6913907 173.253254,60.0596026 171.759761,58.8357616 C170.266269,57.6119205 168.253435,57 165.721258,57 C162.648228,57 159.741142,57.7726269 157,59.3178808 L157,59.3178808 L159.009761,63.3788079 C161.369848,62.1673289 163.4718,61.5615894 165.315618,61.5615894 C166.37274,61.5615894 167.196312,61.7717439 167.786334,62.192053 C168.376356,62.612362 168.671367,63.2242826 168.671367,64.0278146 C168.671367,64.7448124 168.465474,65.393819 168.053688,65.9748344 C167.641902,66.5558499 166.790672,67.3099338 165.5,68.2370861 C164.160159,69.2260486 163.23825,70.1593819 162.734273,71.0370861 C162.230296,71.9147903 161.978308,72.9470199 161.978308,74.1337748 L161.978308,74.1337748 L161.978308,75.5059603 L166.864425,75.5059603 Z M164.633406,85 C165.641359,85 166.428055,84.7187638 166.993492,84.1562914 C167.55893,83.593819 167.841649,82.8242826 167.841649,81.8476821 C167.841649,80.8339956 167.562003,80.0551876 167.002711,79.5112583 C166.44342,78.9673289 165.653651,78.6953642 164.633406,78.6953642 C163.576283,78.6953642 162.77115,78.9611479 162.218004,79.4927152 C161.664859,80.0242826 161.388286,80.8092715 161.388286,81.8476821 C161.388286,82.8490066 161.671005,83.6247241 162.236443,84.1748344 C162.80188,84.7249448 163.600868,85 164.633406,85 Z" transform="rotate(-1 165.5 71)"/>
    <path fill="#2EBA09" fill-rule="nonzero" d="M89.8644252,84.8450331 L89.8644252,83.7721854 C89.8644252,83.0569536 90.0211497,82.4788079 90.3345987,82.0377483 C90.6480477,81.5966887 91.3947939,80.9529801 92.5748373,80.1066225 C94.2957339,78.9145695 95.4634852,77.8417219 96.0780911,76.8880795 C96.692697,75.9344371 97,74.8019868 97,73.4907285 C97,71.5238411 96.2532538,69.9503311 94.7597614,68.7701987 C93.266269,67.5900662 91.2534346,67 88.7212581,67 C85.6482285,67 82.7411424,67.7450331 80,69.2350993 L80,69.2350993 L82.0097614,73.1509934 C84.3698482,71.9827815 86.4718004,71.3986755 88.3156182,71.3986755 C89.3727404,71.3986755 90.1963124,71.6013245 90.7863341,72.0066225 C91.3763557,72.4119205 91.6713666,73.0019868 91.6713666,73.7768212 C91.6713666,74.4682119 91.4654736,75.0940397 91.0536876,75.6543046 C90.6419017,76.2145695 89.7906725,76.9417219 88.5,77.8357616 C87.1601591,78.789404 86.2382502,79.689404 85.7342733,80.5357616 C85.2302965,81.3821192 84.978308,82.3774834 84.978308,83.5218543 L84.978308,83.5218543 L84.978308,84.8450331 L89.8644252,84.8450331 Z M87.6334056,94 C88.6413594,94 89.428055,93.7288079 89.9934924,93.1864238 C90.5589299,92.6440397 90.8416486,91.9019868 90.8416486,90.9602649 C90.8416486,89.9827815 90.5620029,89.2317881 90.0027115,88.7072848 C89.4434201,88.1827815 88.6536515,87.9205298 87.6334056,87.9205298 C86.5762834,87.9205298 85.7711497,88.1768212 85.2180043,88.689404 C84.664859,89.2019868 84.3882863,89.9589404 84.3882863,90.9602649 C84.3882863,91.9258278 84.6710051,92.6738411 85.2364425,93.2043046 C85.80188,93.7347682 86.6008677,94 87.6334056,94 Z"/>
    <path fill="#DB2A1B" fill-rule="nonzero" d="M59.496,175.192 C59.9333333,175.192 60.3813333,175.12 60.84,174.976 C61.2986667,174.832 61.7253333,174.589333 62.12,174.248 L62.12,174.248 L61.192,172.712 C60.9786667,172.872 60.752,173.008 60.512,173.12 C60.272,173.232 60.024,173.288 59.768,173.288 C59.256,173.288 58.832,173.085333 58.496,172.68 C58.16,172.274667 57.992,171.725333 57.992,171.032 C57.992,170.338667 58.1573333,169.789333 58.488,169.384 C58.8186667,168.978667 59.272,168.776 59.848,168.776 C60.1893333,168.776 60.5466667,168.930667 60.92,169.24 L60.92,169.24 L62.024,167.72 C61.7253333,167.474667 61.3866667,167.272 61.008,167.112 C60.6293333,166.952 60.1946667,166.872 59.704,166.872 C59.16,166.872 58.6373333,166.965333 58.136,167.152 C57.6346667,167.338667 57.1946667,167.608 56.816,167.96 C56.4373333,168.312 56.136,168.746667 55.912,169.264 C55.688,169.781333 55.576,170.370667 55.576,171.032 C55.576,171.693333 55.6773333,172.282667 55.88,172.8 C56.0826667,173.317333 56.36,173.752 56.712,174.104 C57.064,174.456 57.4773333,174.725333 57.952,174.912 C58.4266667,175.098667 58.9413333,175.192 59.496,175.192 Z M66.92,175.192 C67.4213333,175.192 67.904,175.098667 68.368,174.912 C68.832,174.725333 69.2426667,174.456 69.6,174.104 C69.9573333,173.752 70.2426667,173.317333 70.456,172.8 C70.6693333,172.282667 70.776,171.693333 70.776,171.032 C70.776,170.370667 70.6693333,169.781333 70.456,169.264 C70.2426667,168.746667 69.9573333,168.312 69.6,167.96 C69.2426667,167.608 68.832,167.338667 68.368,167.152 C67.904,166.965333 67.4213333,166.872 66.92,166.872 C66.4186667,166.872 65.9333333,166.965333 65.464,167.152 C64.9946667,167.338667 64.5813333,167.608 64.224,167.96 C63.8666667,168.312 63.5813333,168.746667 63.368,169.264 C63.1546667,169.781333 63.048,170.370667 63.048,171.032 C63.048,171.693333 63.1546667,172.282667 63.368,172.8 C63.5813333,173.317333 63.8666667,173.752 64.224,174.104 C64.5813333,174.456 64.9946667,174.725333 65.464,174.912 C65.9333333,175.098667 66.4186667,175.192 66.92,175.192 Z M66.92,173.288 C66.4293333,173.288 66.064,173.085333 65.824,172.68 C65.584,172.274667 65.464,171.725333 65.464,171.032 C65.464,170.338667 65.584,169.789333 65.824,169.384 C66.064,168.978667 66.4293333,168.776 66.92,168.776 C67.4,168.776 67.7626667,168.978667 68.008,169.384 C68.2533333,169.789333 68.376,170.338667 68.376,171.032 C68.376,171.725333 68.2533333,172.274667 68.008,172.68 C67.7626667,173.085333 67.4,173.288 66.92,173.288 Z M74.744,175 L74.744,169.64 C75.2346667,169.128 75.6826667,168.872 76.088,168.872 C76.4293333,168.872 76.6773333,168.978667 76.832,169.192 C76.9866667,169.405333 77.064,169.8 77.064,170.376 L77.064,170.376 L77.064,175 L79.416,175 L79.416,169.64 C79.928,169.128 80.3813333,168.872 80.776,168.872 C81.1173333,168.872 81.3653333,168.978667 81.52,169.192 C81.6746667,169.405333 81.752,169.8 81.752,170.376 L81.752,170.376 L81.752,175 L84.104,175 L84.104,170.072 C84.104,169.08 83.904,168.298667 83.504,167.728 C83.104,167.157333 82.4773333,166.872 81.624,166.872 C81.0906667,166.872 80.6293333,167.002667 80.24,167.264 C79.8506667,167.525333 79.48,167.837333 79.128,168.2 C78.9253333,167.773333 78.6506667,167.445333 78.304,167.216 C77.9573333,166.986667 77.5013333,166.872 76.936,166.872 C76.4133333,166.872 75.9653333,166.992 75.592,167.232 C75.2186667,167.472 74.8666667,167.757333 74.536,168.088 L74.536,168.088 L74.472,168.088 L74.312,167.064 L72.392,167.064 L72.392,175 L74.744,175 Z M87.272,165.896 C87.6773333,165.896 88.0053333,165.781333 88.256,165.552 C88.5066667,165.322667 88.632,165.026667 88.632,164.664 C88.632,164.301333 88.5066667,164.008 88.256,163.784 C88.0053333,163.56 87.6773333,163.448 87.272,163.448 C86.8773333,163.448 86.552,163.56 86.296,163.784 C86.04,164.008 85.912,164.301333 85.912,164.664 C85.912,165.026667 86.04,165.322667 86.296,165.552 C86.552,165.781333 86.8773333,165.896 87.272,165.896 Z M88.456,175 L88.456,167.064 L86.104,167.064 L86.104,175 L88.456,175 Z M92.872,175 L92.872,169.64 C93.128,169.394667 93.3626667,169.205333 93.576,169.072 C93.7893333,168.938667 94.0453333,168.872 94.344,168.872 C94.6853333,168.872 94.9333333,168.978667 95.088,169.192 C95.2426667,169.405333 95.32,169.8 95.32,170.376 L95.32,170.376 L95.32,175 L97.672,175 L97.672,170.072 C97.672,169.069333 97.4773333,168.285333 97.088,167.72 C96.6986667,167.154667 96.072,166.872 95.208,166.872 C94.664,166.872 94.1893333,166.992 93.784,167.232 C93.3786667,167.472 93.0053333,167.752 92.664,168.072 L92.664,168.072 L92.6,168.072 L92.44,167.064 L90.52,167.064 L90.52,175 L92.872,175 Z M102.504,178.376 C103.186667,178.376 103.8,178.304 104.344,178.16 C104.888,178.016 105.352,177.818667 105.736,177.568 C106.12,177.317333 106.416,177.018667 106.624,176.672 C106.832,176.325333 106.936,175.944 106.936,175.528 C106.936,174.813333 106.677333,174.298667 106.16,173.984 C105.642667,173.669333 104.893333,173.512 103.912,173.512 L103.912,173.512 L102.632,173.512 C102.184,173.512 101.872,173.464 101.696,173.368 C101.52,173.272 101.432,173.122667 101.432,172.92 C101.432,172.781333 101.453333,172.669333 101.496,172.584 C101.538667,172.498667 101.613333,172.413333 101.72,172.328 C102.050667,172.434667 102.370667,172.488 102.68,172.488 C103.117333,172.488 103.525333,172.434667 103.904,172.328 C104.282667,172.221333 104.613333,172.058667 104.896,171.84 C105.178667,171.621333 105.4,171.344 105.56,171.008 C105.72,170.672 105.8,170.274667 105.8,169.816 C105.8,169.602667 105.776,169.405333 105.728,169.224 C105.68,169.042667 105.618667,168.893333 105.544,168.776 L105.544,168.776 L106.808,168.776 L106.808,167.064 L103.912,167.064 C103.56,166.936 103.149333,166.872 102.68,166.872 C102.253333,166.872 101.842667,166.930667 101.448,167.048 C101.053333,167.165333 100.704,167.344 100.4,167.584 C100.096,167.824 99.8533333,168.122667 99.672,168.48 C99.4906667,168.837333 99.4,169.256 99.4,169.736 C99.4,170.205333 99.5093333,170.618667 99.728,170.976 C99.9466667,171.333333 100.194667,171.608 100.472,171.8 L100.472,171.8 L100.472,171.864 C100.216,172.045333 100.002667,172.266667 99.832,172.528 C99.6613333,172.789333 99.576,173.064 99.576,173.352 C99.576,173.682667 99.6453333,173.954667 99.784,174.168 C99.9226667,174.381333 100.098667,174.557333 100.312,174.696 L100.312,174.696 L100.312,174.76 C99.5546667,175.186667 99.176,175.72 99.176,176.36 C99.176,176.712 99.2613333,177.016 99.432,177.272 C99.6026667,177.528 99.84,177.736 100.144,177.896 C100.448,178.056 100.8,178.176 101.2,178.256 C101.6,178.336 102.034667,178.376 102.504,178.376 Z M102.68,171.064 C102.370667,171.064 102.112,170.954667 101.904,170.736 C101.696,170.517333 101.592,170.184 101.592,169.736 C101.592,169.309333 101.696,168.989333 101.904,168.776 C102.112,168.562667 102.370667,168.456 102.68,168.456 C102.989333,168.456 103.248,168.565333 103.456,168.784 C103.664,169.002667 103.768,169.32 103.768,169.736 C103.768,170.184 103.664,170.517333 103.456,170.736 C103.248,170.954667 102.989333,171.064 102.68,171.064 Z M102.872,176.904 C102.338667,176.904 101.912,176.826667 101.592,176.672 C101.272,176.517333 101.112,176.290667 101.112,175.992 C101.112,175.725333 101.256,175.464 101.544,175.208 C101.672,175.24 101.821333,175.264 101.992,175.28 C102.162667,175.296 102.386667,175.304 102.664,175.304 L103.48,175.304 C103.874667,175.304 104.176,175.346667 104.384,175.432 C104.592,175.517333 104.696,175.682667 104.696,175.928 C104.696,176.205333 104.525333,176.437333 104.184,176.624 C103.842667,176.810667 103.405333,176.904 102.872,176.904 Z M113.752,175.192 C114.285333,175.192 114.754667,175.125333 115.16,174.992 C115.565333,174.858667 115.906667,174.677333 116.184,174.448 C116.461333,174.218667 116.669333,173.949333 116.808,173.64 C116.946667,173.330667 117.016,172.994667 117.016,172.632 C117.016,172.269333 116.952,171.957333 116.824,171.696 C116.696,171.434667 116.528,171.213333 116.32,171.032 C116.112,170.850667 115.882667,170.698667 115.632,170.576 C115.381333,170.453333 115.128,170.344 114.872,170.248 C114.669333,170.173333 114.474667,170.101333 114.288,170.032 C114.101333,169.962667 113.936,169.890667 113.792,169.816 C113.648,169.741333 113.533333,169.658667 113.448,169.568 C113.362667,169.477333 113.32,169.368 113.32,169.24 C113.32,168.824 113.618667,168.616 114.216,168.616 C114.493333,168.616 114.770667,168.674667 115.048,168.792 C115.325333,168.909333 115.608,169.074667 115.896,169.288 L115.896,169.288 L116.952,167.88 C116.610667,167.624 116.210667,167.392 115.752,167.184 C115.293333,166.976 114.76,166.872 114.152,166.872 C113.693333,166.872 113.277333,166.933333 112.904,167.056 C112.530667,167.178667 112.210667,167.346667 111.944,167.56 C111.677333,167.773333 111.472,168.034667 111.328,168.344 C111.184,168.653333 111.112,168.989333 111.112,169.352 C111.112,169.682667 111.176,169.973333 111.304,170.224 C111.432,170.474667 111.597333,170.693333 111.8,170.88 C112.002667,171.066667 112.226667,171.224 112.472,171.352 C112.717333,171.48 112.962667,171.592 113.208,171.688 C113.410667,171.773333 113.608,171.850667 113.8,171.92 C113.992,171.989333 114.165333,172.066667 114.32,172.152 C114.474667,172.237333 114.597333,172.330667 114.688,172.432 C114.778667,172.533333 114.824,172.648 114.824,172.776 C114.824,172.989333 114.744,173.154667 114.584,173.272 C114.424,173.389333 114.168,173.448 113.816,173.448 C113.474667,173.448 113.138667,173.378667 112.808,173.24 C112.477333,173.101333 112.130667,172.893333 111.768,172.616 L111.768,172.616 L110.712,174.088 C111.117333,174.418667 111.594667,174.685333 112.144,174.888 C112.693333,175.090667 113.229333,175.192 113.752,175.192 Z M121.912,175.192 C122.413333,175.192 122.896,175.098667 123.36,174.912 C123.824,174.725333 124.234667,174.456 124.592,174.104 C124.949333,173.752 125.234667,173.317333 125.448,172.8 C125.661333,172.282667 125.768,171.693333 125.768,171.032 C125.768,170.370667 125.661333,169.781333 125.448,169.264 C125.234667,168.746667 124.949333,168.312 124.592,167.96 C124.234667,167.608 123.824,167.338667 123.36,167.152 C122.896,166.965333 122.413333,166.872 121.912,166.872 C121.410667,166.872 120.925333,166.965333 120.456,167.152 C119.986667,167.338667 119.573333,167.608 119.216,167.96 C118.858667,168.312 118.573333,168.746667 118.36,169.264 C118.146667,169.781333 118.04,170.370667 118.04,171.032 C118.04,171.693333 118.146667,172.282667 118.36,172.8 C118.573333,173.317333 118.858667,173.752 119.216,174.104 C119.573333,174.456 119.986667,174.725333 120.456,174.912 C120.925333,175.098667 121.410667,175.192 121.912,175.192 Z M121.912,173.288 C121.421333,173.288 121.056,173.085333 120.816,172.68 C120.576,172.274667 120.456,171.725333 120.456,171.032 C120.456,170.338667 120.576,169.789333 120.816,169.384 C121.056,168.978667 121.421333,168.776 121.912,168.776 C122.392,168.776 122.754667,168.978667 123,169.384 C123.245333,169.789333 123.368,170.338667 123.368,171.032 C123.368,171.725333 123.245333,172.274667 123,172.68 C122.754667,173.085333 122.392,173.288 121.912,173.288 Z M130.792,175.192 C131.293333,175.192 131.776,175.098667 132.24,174.912 C132.704,174.725333 133.114667,174.456 133.472,174.104 C133.829333,173.752 134.114667,173.317333 134.328,172.8 C134.541333,172.282667 134.648,171.693333 134.648,171.032 C134.648,170.370667 134.541333,169.781333 134.328,169.264 C134.114667,168.746667 133.829333,168.312 133.472,167.96 C133.114667,167.608 132.704,167.338667 132.24,167.152 C131.776,166.965333 131.293333,166.872 130.792,166.872 C130.290667,166.872 129.805333,166.965333 129.336,167.152 C128.866667,167.338667 128.453333,167.608 128.096,167.96 C127.738667,168.312 127.453333,168.746667 127.24,169.264 C127.026667,169.781333 126.92,170.370667 126.92,171.032 C126.92,171.693333 127.026667,172.282667 127.24,172.8 C127.453333,173.317333 127.738667,173.752 128.096,174.104 C128.453333,174.456 128.866667,174.725333 129.336,174.912 C129.805333,175.098667 130.290667,175.192 130.792,175.192 Z M130.792,173.288 C130.301333,173.288 129.936,173.085333 129.696,172.68 C129.456,172.274667 129.336,171.725333 129.336,171.032 C129.336,170.338667 129.456,169.789333 129.696,169.384 C129.936,168.978667 130.301333,168.776 130.792,168.776 C131.272,168.776 131.634667,168.978667 131.88,169.384 C132.125333,169.789333 132.248,170.338667 132.248,171.032 C132.248,171.725333 132.125333,172.274667 131.88,172.68 C131.634667,173.085333 131.272,173.288 130.792,173.288 Z M138.616,175 L138.616,169.64 C138.872,169.394667 139.106667,169.205333 139.32,169.072 C139.533333,168.938667 139.789333,168.872 140.088,168.872 C140.429333,168.872 140.677333,168.978667 140.832,169.192 C140.986667,169.405333 141.064,169.8 141.064,170.376 L141.064,170.376 L141.064,175 L143.416,175 L143.416,170.072 C143.416,169.069333 143.221333,168.285333 142.832,167.72 C142.442667,167.154667 141.816,166.872 140.952,166.872 C140.408,166.872 139.933333,166.992 139.528,167.232 C139.122667,167.472 138.749333,167.752 138.408,168.072 L138.408,168.072 L138.344,168.072 L138.184,167.064 L136.264,167.064 L136.264,175 L138.616,175 Z M147.864,171.304 L148.2,166.408 L148.28,164.28 L145.912,164.28 L145.992,166.408 L146.328,171.304 L147.864,171.304 Z M147.096,175.192 C147.501333,175.192 147.84,175.050667 148.112,174.768 C148.384,174.485333 148.52,174.136 148.52,173.72 C148.52,173.293333 148.384,172.938667 148.112,172.656 C147.84,172.373333 147.501333,172.232 147.096,172.232 C146.690667,172.232 146.352,172.373333 146.08,172.656 C145.808,172.938667 145.672,173.293333 145.672,173.72 C145.672,174.136 145.808,174.485333 146.08,174.768 C146.352,175.050667 146.690667,175.192 147.096,175.192 Z"/>
  </g>
</svg>
