<?xml version="1.0" encoding="UTF-8"?>
<svg width="1105px" height="1105px" viewBox="0 0 1105 1105" version="1.1" xmlns="http://www.w3.org/2000/svg" xmlns:xlink="http://www.w3.org/1999/xlink">
    <title>tablet-touch</title>
    <g id="Page-1" stroke="none" stroke-width="1" fill="none" fill-rule="evenodd" opacity="0.0799999982" stroke-linecap="round" stroke-linejoin="round">
        <g id="Desktp-Startsite-2x" transform="translate(-168.000000, -55.000000)" stroke="#000000" stroke-width="45.9999997">
            <g id="tablet-touch" transform="translate(191.000000, 78.000000)">
                <path d="M276.92,782.92 L92.92,782.92 C42.1098028,782.92 0.919999995,741.730193 0.919999995,690.92 L0.919999995,92.92 C0.919999995,42.1098028 42.1098028,0.919999995 92.92,0.919999995 L966.92,0.919999995 C1017.73019,0.919999995 1058.92,42.1098028 1058.92,92.92 L1058.92,667.92" id="Path"></path>
                <line x1="184.919999" y1="782.873995" x2="184.919999" y2="0.873999995" id="Path"></line>
                <path d="M104.419999,380.373998 C107.477976,380.373973 110.410039,381.591889 112.568034,383.758517 C114.72603,385.925144 115.932231,388.862046 115.919999,391.919998 L115.919999,391.919998 C115.919999,398.271272 110.771274,403.419998 104.419999,403.419998 L104.419999,403.419998 C98.0687248,403.419998 92.9199995,398.271272 92.9199995,391.919998 L92.9199995,391.919998 C92.9199995,385.568723 98.0687248,380.419998 104.419999,380.419998" id="Path"></path>
                <line x1="104.419999" y1="380.373998" x2="104.419999" y2="380.373998" id="Path"></line>
                <path d="M559.957997,1058.92 L384.881998,848.331995 C360.467698,819.027214 364.432217,775.479295 393.736998,751.064996 C423.041779,726.650696 466.589698,730.615215 491.003997,759.919998 L598.919997,889.961995 L598.919997,437.919998 C598.919997,399.81235 629.812349,368.919998 667.919996,368.919998 C706.027644,368.919998 736.919996,399.81235 736.919996,437.919998 L736.919996,736.919998 L874.919995,736.919998 C976.540388,736.919998 1058.91999,819.299601 1058.91999,920.919998 L1058.91999,1058.92" id="Path"></path>
                <line x1="966.919994" y1="322.873998" x2="966.919994" y2="460.873997" id="Path"></line>
            </g>
        </g>
    </g>
</svg>