<?xml version="1.0" encoding="UTF-8"?>
<svg width="1446px" height="977px" viewBox="0 0 1446 977" version="1.1" xmlns="http://www.w3.org/2000/svg" xmlns:xlink="http://www.w3.org/1999/xlink">
    <title>11″ iPad Pro</title>
    <g id="11″-iPad-Pro" stroke="none" stroke-width="1" fill="none" fill-rule="evenodd">
        <rect fill="#313131" x="0" y="0" width="1446" height="977"></rect>
        <g id="couple-man-woman-copy" opacity="0.0608956473" transform="translate(27.000000, 32.000000)" stroke="#000000" stroke-linecap="round" stroke-linejoin="round" stroke-width="50.4000019">
            <g id="Group-2" transform="translate(0.168000, 277.200010)">
                <circle id="Oval" cx="252.000009" cy="151.200006" r="151.200006"></circle>
                <path d="M121.716005,74.4408028 C194.300229,149.628878 305.842569,172.045717 401.839215,130.737605" id="Path"></path>
                <path d="M252,352.800013 C112.824247,352.800013 0,465.624261 0,604.800013 L504.000019,604.800013 C504.000019,465.624261 391.175772,352.800013 252,352.800013 Z" id="Path"></path>
            </g>
            <g id="Group-2-Copy" transform="translate(882.168033, 277.200010)">
                <circle id="Oval" cx="252.000009" cy="151.200006" r="151.200006"></circle>
                <path d="M151.507285,78.523574 C216.804357,153.711649 317.148311,176.128489 403.507285,134.820376" id="Path" transform="translate(277.507290, 116.908064) rotate(-12.000000) translate(-277.507290, -116.908064) "></path>
                <path d="M252,352.800013 C112.824247,352.800013 0,465.624261 0,604.800013 L504.000019,604.800013 C504.000019,465.624261 391.175772,352.800013 252,352.800013 Z" id="Path"></path>
            </g>
            <g id="Group" transform="translate(428.568016, 0.000000)">
                <path d="M435.556816,309.556812 C415.423866,276.513325 405.386065,238.306615 406.677615,199.634408 L406.677615,154.677606 C406.677615,69.251523 337.426092,2.2382097e-14 252.000009,2.2382097e-14 C166.573927,2.2382097e-14 97.3224037,69.251523 97.3224037,154.677606 L97.3224037,199.634408 C98.6139542,238.306615 88.5761528,276.513325 68.4432026,309.556812" id="Path"></path>
                <path d="M97.3224037,180.230407 C156.723741,180.134023 213.159015,154.26096 252.000009,109.317604 C290.841004,154.26096 347.276278,180.134023 406.677615,180.230407" id="Path"></path>
                <path d="M116.222404,179.323207 C123.21398,249.080394 181.918524,302.195262 252.025209,302.195262 C322.131895,302.195262 380.836439,249.080394 387.828015,179.323207" id="Path"></path>
                <path d="M252,352.699213 C112.824247,352.699213 0,465.523461 0,604.699213 L504.000019,604.699213 C504.000019,465.523461 391.175772,352.699213 252,352.699213 Z" id="Path"></path>
            </g>
        </g>
    </g>
</svg>