<?xml version="1.0" encoding="utf-8"?>
<!-- Generator: Adobe Illustrator 24.3.0, SVG Export Plug-In . SVG Version: 6.00 Build 0)  -->
<svg version="1.1" id="Ebene_1" xmlns="http://www.w3.org/2000/svg" xmlns:xlink="http://www.w3.org/1999/xlink" x="0px" y="0px"
	 viewBox="0 0 1431 931" style="enable-background:new 0 0 1431 931;" xml:space="preserve">
<style type="text/css">
	.st0{opacity:6.000000e-02;fill:none;stroke:#000000;stroke-width:45;stroke-linecap:round;stroke-linejoin:round;}
</style>
<path class="st0" d="M274.9,293.4c83.5,0,151.1,67.8,151.1,151.3S358.3,596,274.9,596s-151.1-67.8-151.1-151.3
	S191.4,293.4,274.9,293.4z M144.7,367.9c72.5,75.3,184,97.7,280,56.3"/>
<path id="Path_1_" class="st0" d="M277.7,652.1c-139.1,0-251.9,112.9-251.9,252.2h503.8C529.6,765.1,416.8,652.1,277.7,652.1z"/>
<path class="st0" d="M1156.5,294.8c83.5,0,151.1,67.8,151.1,151.3s-67.7,151.3-151.1,151.3c-83.5,0-151.1-67.8-151.1-151.3
	S1073,294.8,1156.5,294.8z M1036.6,400.4c79.5,60,182.2,61.1,258.1,2.7"/>
<path id="Path_3_" class="st0" d="M1156.5,653.6c-139.1,0-251.9,112.9-254.7,251.2h503.8C1408.3,766.5,1295.6,653.6,1156.5,653.6z"
	/>
<path class="st0" d="M901,341.3c-20.1-33.1-30.2-71.3-28.9-110v-45c0-85.5-69.2-154.8-154.6-154.8S563,100.8,563,186.3v45
	c1.3,38.7-8.7,76.9-28.9,110 M563,211.9c59.4-0.1,115.8-26,154.6-71c38.8,45,95.2,70.9,154.6,71 M581.8,211
	c7,69.8,65.7,123,135.7,123s128.7-53.2,135.7-123"/>
<path id="Path_7_" class="st0" d="M717.6,387.3c-139.1,0-251.9,112.9-251.9,252.2h503.8C969.4,500.3,856.7,387.3,717.6,387.3z"/>
</svg>
