<?xml version="1.0" encoding="UTF-8"?>
<svg width="328px" height="378px" viewBox="0 0 328 378" version="1.1" xmlns="http://www.w3.org/2000/svg" xmlns:xlink="http://www.w3.org/1999/xlink">
    <title>voty_module_2</title>
    <defs>
        <linearGradient x1="0%" y1="28.239%" x2="100%" y2="68.781%" id="linearGradient-1">
            <stop stop-color="#BEF3FD" offset="0%"></stop>
            <stop stop-color="#BEF3FD" stop-opacity="0.662" offset="100%"></stop>
        </linearGradient>
    </defs>
    <g id="Page-1" stroke="none" stroke-width="1" fill="none" fill-rule="evenodd">
        <g id="voty_module_2" transform="translate(4.000000, 3.000000)">
            <path d="M319.99825,288.80955 C319.99825,303.94605 307.72825,316.21605 292.59175,316.21605 L28.27675,316.21605 C22.90075,316.21605 17.55625,314.86155 13.01725,311.98155 C4.83025,306.78405 0.13075,297.83505 0.247736733,288.44655 L0.247736733,114.94455 C0.247736733,99.79605 12.51325,87.50505 27.66025,87.46455 L54.34225,87.46455 L296.18725,87.46455 C309.33925,87.46455 319.99825,98.12505 319.99825,111.27555 L319.99825,288.44655 L319.99825,279.31155 L319.99825,248.13405" id="Path" stroke="#000000" stroke-width="7.5" fill="url(#linearGradient-1)" fill-rule="nonzero" stroke-linecap="round" stroke-linejoin="round"></path>
            <path d="M292.5925,316.215523 C307.699,316.215523 319.9585,303.9903 319.999,288.8808 L319.999,279.3108 L0.247047824,279.3108 L0.247047824,288.5193 C0.157,295.8438 3.004,302.9013 8.1565,308.1078 C13.3105,313.3143 20.3365,316.2363 27.661,316.215523 L292.5925,316.215523 Z" id="Path" stroke="#000000" stroke-width="7.5" fill="#B9C2C6" fill-rule="nonzero" stroke-linecap="round" stroke-linejoin="round"></path>
            <polygon id="Path" stroke="#000000" stroke-width="7.5" fill="#73899D" fill-rule="nonzero" stroke-linecap="round" stroke-linejoin="round" points="187.534 352.467 132.719 352.467 137.288 316.467 182.965 316.467"></polygon>
            <path d="M219.50695,370.6665 L100.74595,370.6665 C100.78645,360.6045 108.95395,352.467 119.01745,352.467 L201.23545,352.467 C211.29895,352.467 219.46795,360.6045 219.50695,370.6665 Z" id="Path" stroke="#000000" stroke-width="7.5" fill="#DEE4E7" fill-rule="nonzero" stroke-linecap="round" stroke-linejoin="round"></path>
            <path d="M293.3044,210.86745 C293.2669,220.95345 285.1204,229.13145 275.0329,229.21095 L46.6459,229.21095 C36.5719,229.17045 28.4134,221.01345 28.3744,210.93945 L28.3744,55.56345 L293.3044,55.56345 L293.3044,210.86745 Z" id="Path" fill="#F5FCFF" fill-rule="nonzero"></path>
            <path d="M293.3044,210.86745 C293.2669,220.95345 285.1204,229.13145 275.0329,229.21095 L46.6459,229.21095 C36.5719,229.17045 28.4134,221.01345 28.3744,210.93945 L28.3744,55.56345 L293.3044,55.56345 L293.3044,210.86745 Z" id="Path" stroke="#000000" stroke-width="7.5" stroke-linecap="round" stroke-linejoin="round"></path>
            <path d="M293.3044,55.5633 L28.3744,55.5633 L28.3744,18.9483 C28.4134,8.8863 36.5839,0.7503 46.6459,0.7503 L275.0329,0.7503 C285.0814,0.7893 293.2249,8.9028 293.3044,18.9483 L293.3044,55.2003 L293.3044,55.5633 Z" id="Path" fill="#73899D" fill-rule="nonzero"></path>
            <path d="M293.3044,55.5633 L28.3744,55.5633 L28.3744,18.9483 C28.4134,8.8863 36.5839,0.7503 46.6459,0.7503 L275.0329,0.7503 C285.0814,0.7893 293.2249,8.9028 293.3044,18.9483 L293.3044,55.2003 L293.3044,55.5633 Z" id="Path" stroke="#000000" stroke-width="7.5" stroke-linecap="round" stroke-linejoin="round"></path>
            <path d="M55.78135,18.94875 C59.51785,18.91875 62.90185,21.15225 64.34635,24.59925 C65.79085,28.04625 65.00635,32.02425 62.36485,34.66725 C59.72185,37.31025 55.74385,38.09325 52.29685,36.64875 C48.84835,35.20575 46.61635,31.82175 46.64485,28.08375 C46.68535,23.05425 50.75185,18.98775 55.78135,18.94875 Z M92.32345,18.94875 C96.05995,18.91875 99.44545,21.15225 100.88845,24.59925 C102.33295,28.04625 101.54845,32.02425 98.90695,34.66725 C96.26395,37.31025 92.28595,38.09325 88.83895,36.64875 C85.39045,35.20575 83.15845,31.82175 83.18695,28.08375 C83.22745,23.05425 87.29395,18.98775 92.32345,18.94875 Z M128.8654,18.94875 C132.6019,18.91875 135.9874,21.15225 137.4304,24.59925 C138.8749,28.04625 138.0904,32.02425 135.4489,34.66725 C132.8059,37.31025 128.8279,38.09325 125.3809,36.64875 C121.9339,35.20575 119.7004,31.82175 119.7289,28.08375 C119.7694,23.05425 123.8359,18.98775 128.8654,18.94875 Z" id="Shape" stroke="#000000" stroke-width="7.5" stroke-linecap="round" stroke-linejoin="round"></path>
            <path d="M206.5168,139.30545 C206.3008,143.21595 203.1778,146.34045 199.2673,146.55495 L177.5878,146.55495 C173.5363,146.52345 170.2048,143.35095 169.975296,139.30545 L169.975296,117.55395 C169.9738,115.56645 170.7868,113.66595 172.2253,112.29495 C173.6653,110.92395 175.6033,110.20395 177.5878,110.30445 L198.9043,110.30445 C202.9093,110.30445 206.1553,113.55045 206.1553,117.55395 L206.5168,139.30545 Z M265.898666,139.30545 C265.66915,143.35095 262.33765,146.52345 258.28615,146.55495 L236.96965,146.55495 C233.05765,146.34045 229.93465,143.21595 229.71865,139.30545 L229.71865,117.55395 C229.71865,113.55045 232.96465,110.30445 236.96965,110.30445 L258.28615,110.30445 C260.27065,110.20395 262.20865,110.92395 263.64865,112.29495 C265.08715,113.66595 265.90165,115.56645 265.898666,117.55395 L265.898666,139.30545 Z M206.5168,194.04585 C206.6158,196.03035 205.8973,197.96985 204.5263,199.40835 C203.1568,200.84835 201.2548,201.66135 199.2673,201.65985 L177.5878,201.65985 C175.5388,201.76485 173.5408,200.99535 172.0903,199.54485 C170.6383,198.09435 169.8688,196.09635 169.9753,194.04585 L169.9753,172.80285 C169.9753,168.58635 173.3713,165.15735 177.5878,165.11685 L198.9043,165.11685 C202.9783,165.34785 206.1613,168.72285 206.1553,172.80285 L206.5168,194.04585 Z M265.89865,194.04585 C266.00365,196.09635 265.23565,198.09435 263.78515,199.54485 C262.33315,200.99535 260.33515,201.76485 258.28615,201.65985 L236.96965,201.65985 C234.98215,201.66135 233.08015,200.84835 231.70915,199.40835 C230.33965,197.96985 229.61815,196.03035 229.71865,194.04585 L229.71865,172.80285 C229.71265,168.72285 232.89565,165.34785 236.96965,165.11685 L258.28615,165.11685 C262.50115,165.15735 265.89865,168.58635 265.89865,172.80285 L265.89865,194.04585 Z" id="Shape" stroke="#000000" stroke-width="7.5" fill="#B9C2C6" fill-rule="nonzero" stroke-linecap="round" stroke-linejoin="round"></path>
            <path d="M92.32345,84.20235 C92.32345,88.20585 89.07745,91.45185 85.07245,91.45185 L63.39445,91.45185 C61.40995,91.55235 59.47045,90.83235 58.03195,89.46135 C56.59195,88.09035 55.77895,86.18985 55.7819335,84.20235 L55.7819335,81.15735 C55.77895,79.16985 56.59195,77.26785 58.03195,75.89685 C59.47045,74.52735 61.40995,73.80735 63.39445,73.90635 L84.71095,73.90635 C88.71445,73.90635 91.96045,77.15235 91.96045,81.15735 L92.32345,84.20235 Z" id="Path" stroke="#000000" stroke-width="7.5" stroke-linecap="round" stroke-linejoin="round"></path>
            <line x1="55.781" y1="110.304" x2="147.281" y2="110.304" id="Path" stroke="#000000" stroke-width="7.5" stroke-linecap="round" stroke-linejoin="round"></line>
            <line x1="115" y1="82.5" x2="265.75" y2="83.25" id="Path" stroke="#000000" stroke-width="7.5" stroke-linecap="round" stroke-linejoin="round"></line>
            <line x1="55.781" y1="128.647" x2="147.281" y2="128.647" id="Path" stroke="#000000" stroke-width="7.5" stroke-linecap="round" stroke-linejoin="round"></line>
            <line x1="55.781" y1="146.918" x2="147.281" y2="146.918" id="Path" stroke="#000000" stroke-width="7.5" stroke-linecap="round" stroke-linejoin="round"></line>
            <line x1="55.781" y1="165.117" x2="147.281" y2="165.117" id="Path" stroke="#000000" stroke-width="7.5" stroke-linecap="round" stroke-linejoin="round"></line>
            <line x1="55.781" y1="183.388" x2="147.281" y2="183.388" id="Path" stroke="#000000" stroke-width="7.5" stroke-linecap="round" stroke-linejoin="round"></line>
            <line x1="55.781" y1="201.659" x2="112.781" y2="201.659" id="Path" stroke="#000000" stroke-width="7.5" stroke-linecap="round" stroke-linejoin="round"></line>
            <path d="M160.1266,301.42485 C162.2086,301.42485 163.8976,299.73735 163.8976,297.65385 C163.8976,295.57335 162.2086,293.88435 160.1266,293.88435 C158.0431,293.88435 156.3556,295.57335 156.3556,297.65385 C156.3556,299.73735 158.0431,301.42485 160.1266,301.42485 Z" id="Path" stroke="#000000" stroke-width="7.5" stroke-linecap="round" stroke-linejoin="round"></path>
            <path d="M242.856412,121.886103 L248.096526,127.948699 L265.190846,110.32363 C266.260054,109.225457 267.994055,109.225457 269.068802,110.32363 L272.362119,113.697454 C273.436866,114.801317 273.436866,116.582293 272.362119,117.680466 L250.684344,139.945506 C249.543117,141.117649 247.698317,141.117649 246.55709,139.945506 L235.66298,128.770668 C234.75997,127.843195 234.78213,126.32396 235.71284,125.419247 L239.48813,121.840583 C239.963067,121.378454 240.575855,121.1523 241.18548,121.161405 C241.791839,121.170461 242.39507,121.412262 242.856412,121.886103 Z" id="Path" fill="#2EBA09" fill-rule="nonzero"></path>
            <path d="M191.971067,201.0654 L191.971067,188.093655 L191.971067,188.093655 L205.025022,188.093655 C206.601054,188.093655 207.87868,186.816028 207.87868,185.239996 L207.87868,181.94533 C207.87868,180.369298 206.601054,179.091672 205.025022,179.091672 L191.971067,179.091672 L191.971067,179.091672 L191.971067,165.914402 C191.971067,164.33837 190.69344,163.060743 189.117408,163.060743 L185.822742,163.060743 C184.24671,163.060743 182.969084,164.33837 182.969084,165.914402 L182.969084,179.091672 L182.969084,179.091672 L169.915129,179.091672 C168.339097,179.091672 167.06147,180.369298 167.06147,181.94533 L167.06147,185.239996 C167.06147,186.816028 168.339097,188.093655 169.915129,188.093655 L182.969084,188.093655 L182.969084,188.093655 L182.969084,201.0654 C182.969084,202.641432 184.24671,203.919058 185.822742,203.919058 L189.117408,203.919058 C190.69344,203.919058 191.971067,202.641432 191.971067,201.0654 Z" id="Path" fill="#D90000" fill-rule="nonzero" transform="translate(187.470075, 183.489901) rotate(-44.000000) translate(-187.470075, -183.489901) "></path>
        </g>
    </g>
</svg>