<svg xmlns="http://www.w3.org/2000/svg" xmlns:xlink="http://www.w3.org/1999/xlink" width="534" height="431" viewBox="0 0 534 431">
  <defs>
    <path id="voty_screen_vote_now-a" d="M45.0738996,27.7293216 C50.4037801,27.6865905 55.2308416,30.8679204 57.2913293,35.7777229 C59.351817,40.6875254 58.2327775,46.3536683 54.4648451,50.1182775 C50.6947731,53.8828868 45.0204082,54.9981683 40.1034812,52.9406662 C35.1844145,50.8853006 32.0006079,46.0652334 32.0412614,40.7409393 C32.0990321,33.5770716 37.8996366,27.7848721 45.0738996,27.7293216 Z"/>
    <path id="voty_screen_vote_now-b" d="M97.1988894,27.7293216 C102.52877,27.6865905 107.357971,30.8679204 109.416319,35.7777229 C111.476807,40.6875254 110.357767,46.3536683 106.589835,50.1182775 C102.819763,53.8828868 97.145398,54.9981683 92.228471,52.9406662 C87.3094043,50.8853006 84.1255977,46.0652334 84.1662512,40.7409393 C84.2240219,33.5770716 90.0246264,27.7848721 97.1988894,27.7293216 Z"/>
    <path id="voty_screen_vote_now-c" d="M149.323665,27.7293216 C154.653546,27.6865905 159.482747,30.8679204 161.541095,35.7777229 C163.601583,40.6875254 162.482543,46.3536683 158.714611,50.1182775 C154.944539,53.8828868 149.270174,54.9981683 144.353247,52.9406662 C139.43632,50.8853006 136.250374,46.0652334 136.291027,40.7409393 C136.348798,33.5770716 142.149402,27.7848721 149.323665,27.7293216 Z"/>
    <path id="voty_screen_vote_now-d" d="M188.224354,59.6124173 C188.224354,64.0300451 183.891666,67.6108031 178.546029,67.6102641 L154.193476,67.2590776 L142.669498,85.3068602 L126.666119,67.0238146 L101.112968,67.6024565 C95.7673306,67.6019175 91.4334737,64.0202856 91.4330277,59.6026578 L91.4281816,11.6097213 C91.4281816,7.19209352 95.7608692,3.61187454 101.106507,3.61187454 L178.539567,3.61968214 C183.885205,3.62022114 188.219062,7.20185301 188.219508,11.6194808 L188.224354,59.6124173 Z"/>
    <path id="voty_screen_vote_now-e" d="M10.3490262,37.5981975 L44.9006483,18.5835761 C61.9497778,32.4477937 53.7528723,61.9266713 65.4352674,62.1241723 C73.0303646,62.2525739 87.2999176,56.6220599 108.243926,45.2326301 L113.620099,56.4432761 C104.475654,68.2500116 84.5337141,78.8590064 53.794279,88.2702603 C25.8218963,71.5767244 11.3401453,54.6860368 10.3490262,37.5981975 Z"/>
    <path id="voty_screen_vote_now-f" d="M82.4826745,-8.52637236e-14 C99.0757277,56.5186629 103.650139,94.1771583 96.2059076,112.975486 L96.2059076,112.975486 L38.5251477,112.975486 C39.4377255,99.2203081 42.3638257,84.6736957 46.3716525,70.4904836 C33.3087778,94.0354502 22.3286747,110.986595 13.4314118,121.344041 L2.84324749e-14,118.715327 C8.65190457,65.0995481 33.7066655,25.5277725 75.1642829,-1.70528852e-13 Z"/>
    <polygon id="voty_screen_vote_now-h" points="0 0 40.515 0 40.515 135.012 0 135.012"/>
    <path id="voty_screen_vote_now-j" d="M7.29213144,-3.27552304 L14.9580329,-6.57277888 C28.0070962,19.2097953 46.2422688,43.6655881 74.8391318,63.1695686 L69.2361247,75.1163468 C45.0614409,62.5751423 26.9559801,46.879239 10.6163059,34.6734875 C4.98728552,30.4686041 7.77323978,5.05455036 7.29213144,-3.27552304 Z"/>
    <path id="voty_screen_vote_now-k" d="M64.3901317,0.347540035 L64.369,0.721540035 L70.3540419,0.722050403 C71.7336496,8.84600002 76.0553075,117.837822 89.3074136,155.287658 L89.7117323,156.400425 L16.2931113,156.400425 C17.8848061,123.100383 30.4406457,83.0988984 43.1598262,49.6253048 C31.9127457,59.9301869 22.1102931,77.390309 13.7521078,102.006001 L13.7521078,102.006001 L3.73034936e-14,98.4715357 C10.2249519,54.3575606 31.2472622,21.9334056 63.0669309,1.19907079 L63.2744578,0.722050403 L63.806,0.721540035 L64.3901317,0.347540035 Z"/>
    <polygon id="voty_screen_vote_now-m" points="0 .049 141.292 .049 141.292 185.567 0 185.567"/>
  </defs>
  <g fill="none" fill-rule="evenodd">
    <g transform="translate(61)">
      <path fill="#F5FCFF" stroke="#DDE3E9" stroke-width="9.985" d="M387.277544,73.3622761 L387.277544,301.912648 C387.277544,310.775389 383.685208,318.799095 377.877187,324.607115 C372.069167,330.415136 364.045461,334.007472 355.18272,334.007472 L355.18272,334.007472 L37.0873523,334.007472 C28.2246113,334.007472 20.2009053,330.415136 14.3928845,324.607115 C8.58486374,318.799095 4.99252819,310.775389 4.99252819,301.912648 L4.99252819,301.912648 L4.99252819,73.3622761 L387.277544,73.3622761 Z"/>
      <path fill="#C5CFD6" stroke="#C5CFD6" stroke-width="9.985" d="M387.277544,4.99252819 L387.277544,41.2529839 C387.277544,50.1157248 383.685208,58.1394308 377.877187,63.9474516 C372.069167,69.7554724 364.045461,73.3478079 355.18272,73.3478079 L355.18272,73.3478079 L37.0873523,73.3478079 C28.2246113,73.3478079 20.2009053,69.7554724 14.3928845,63.9474516 C8.58486374,58.1394308 4.99252819,50.1157248 4.99252819,41.2529839 L4.99252819,41.2529839 L4.99252819,4.99252819 L387.277544,4.99252819 Z" transform="rotate(-180 196.135 39.17)"/>
      <use fill="#D8D8D8" xlink:href="#voty_screen_vote_now-a"/>
      <use fill="#98AAB2" xlink:href="#voty_screen_vote_now-a"/>
      <use fill="#D8D8D8" xlink:href="#voty_screen_vote_now-b"/>
      <use fill="#98AAB2" xlink:href="#voty_screen_vote_now-b"/>
      <use fill="#D8D8D8" xlink:href="#voty_screen_vote_now-c"/>
      <use fill="#98AAB2" xlink:href="#voty_screen_vote_now-c"/>
      <g stroke="#DDE3E9" stroke-linecap="round" stroke-linejoin="round" transform="translate(69.059 185.215)">
        <path stroke-width="10.013" d="M84.3425538,24.3333695 C75.652538,9.27757511 59.5739103,5.92027632e-15 42.1712769,5.92027632e-15 C24.7686435,5.92027632e-15 8.69001577,9.27757511 -5.92886712e-15,24.3333695" transform="translate(0 80.331)"/>
        <g transform="translate(5.518)">
          <path stroke-width="8.344" d="M9.5690319,26.7215976 C23.5634539,41.1281586 44.9854608,45.4452471 63.4547721,37.580968" transform="rotate(-23 36.512 34.092)"/>
          <path stroke-width="10.013" d="M9.23097349,38.3092821 C9.23938334,54.4186711 22.3185986,67.4847255 38.4442224,67.4931354 C54.5698463,67.5015371 67.635433,54.4491112 67.6270313,38.3397222 C67.6186214,22.2303331 54.5394062,9.16427871 38.4137823,9.15586885 C22.2881585,9.14746711 9.22257174,22.199893 9.23097349,38.3092821 Z" transform="rotate(-23 38.429 38.325)"/>
        </g>
      </g>
      <g stroke="#DDE3E9" stroke-linecap="round" stroke-linejoin="round" transform="translate(150.97 165.98)">
        <path stroke-width="9.203" d="M77.5190205,22.3647363 C69.5320497,8.52699501 54.7542251,0 38.7595102,0 C22.7647954,0 7.98697075,8.52699501 0,22.3647363" transform="translate(0 64.246)"/>
        <g transform="translate(16.156)">
          <path stroke-width="7.669" d="M1.66882774,14.9976867 C14.6653214,28.0362431 34.5683453,31.9352615 51.7336598,24.8054277"/>
          <path stroke-width="9.203" d="M0,26.6625542 C0,41.3878763 11.954554,53.3251084 26.7012438,53.3251084 C41.4479335,53.3251084 53.4024875,41.3878763 53.4024875,26.6625542 C53.4024875,11.9372321 41.4479335,0 26.7012438,0 C11.954554,0 0,11.9372321 0,26.6625542 Z"/>
        </g>
      </g>
      <g stroke="#DDE3E9" stroke-linecap="round" stroke-linejoin="round" transform="translate(233.65 194.157)">
        <path stroke-width="10.013" d="M84.3425538,95.7231053 C75.652538,80.6673109 59.5739103,71.3897358 42.1712769,71.3897358 C24.7686435,71.3897358 8.69001577,80.6673109 0,95.7231053"/>
        <g transform="rotate(-1 90.369 -396.422)">
          <path stroke-width="10.013" d="M69.0625695,58.3768836 C65.2925359,52.1998061 63.412829,45.0550747 63.6544298,37.825508 L63.6544298,29.4188501 C63.6544298,13.4485861 50.6876383,0.500583218 34.6942001,0.500583218 C18.698107,0.500583218 5.73131546,13.4485861 5.73131546,29.4188501 L5.73131546,37.825508 C5.9729162,45.0550747 4.09320932,52.1998061 0.323175755,58.3768836"/>
          <path stroke-width="8.344" d="M5.73264293,34.1969389 C16.851587,34.1783812 27.4209558,29.3401123 34.6928726,20.9387566 C41.9647895,29.3401123 52.5341582,34.1783812 63.6531023,34.1969389"/>
          <path stroke-width="10.013" d="M9.27169557,34.0275332 C10.5779326,47.0683248 21.5720938,57.0020199 34.6981825,57.0020199 C47.8242712,57.0020199 58.8157775,47.0683248 60.1246695,34.0275332"/>
        </g>
      </g>
      <g transform="translate(53.893 66.613)">
        <g stroke-linecap="round" stroke-linejoin="round" transform="scale(-1 1) rotate(-4 0 4048.56)">
          <use fill="#D8D8D8" xlink:href="#voty_screen_vote_now-d"/>
          <use fill="#FFF" stroke="#DDE3E9" stroke-width="8.344" xlink:href="#voty_screen_vote_now-d"/>
        </g>
        <path fill="#A9CCDC" fill-rule="nonzero" d="M145.480859,45.9398732 C145.343691,44.7206455 145.49229,43.6143093 145.926657,42.6208646 C146.361024,41.6274198 146.921128,40.7017099 147.60697,39.8437349 C148.292813,38.9857598 149.05867,38.1503631 149.904542,37.3375447 C150.750414,36.5247262 151.527702,35.6667512 152.236406,34.7636196 C152.945109,33.860488 153.550937,32.8783324 154.053888,31.8171527 C154.556839,30.7559731 154.808314,29.5480346 154.808314,28.1933372 C154.808314,26.0709779 154.453962,24.2534256 153.745259,22.7406801 C153.036555,21.2279347 152.064945,19.9974179 150.830429,19.0491297 C149.595913,18.1008415 148.155644,17.4009145 146.509623,16.9493487 C144.863601,16.4977829 143.103273,16.272 141.228637,16.272 C138.485268,16.272 135.959083,16.8590355 133.65008,18.0331066 C131.341078,19.2071777 129.340705,20.7425014 127.648961,22.6390778 L127.648961,22.6390778 L134.095878,28.4642767 C135.010334,27.6514582 135.879068,26.9741095 136.702079,26.4322305 C137.525089,25.8903516 138.530991,25.6194121 139.719784,25.6194121 C140.771409,25.6194121 141.674435,25.8790624 142.428861,26.3983631 C143.183288,26.9176638 143.560501,27.786928 143.560501,29.0061556 C143.560501,29.7286609 143.320456,30.439877 142.840367,31.139804 C142.360277,31.839731 141.777311,32.5735255 141.091469,33.3411873 C140.405627,34.1088492 139.662631,34.9216676 138.862482,35.7796427 C138.062332,36.6376177 137.353629,37.5746167 136.736371,38.5906398 C136.119113,39.6066628 135.650454,40.7242882 135.330394,41.9435159 C135.010334,43.1627435 134.964611,44.4948626 135.193226,45.9398732 L135.193226,45.9398732 L145.480859,45.9398732 Z M140.268458,63.28 C142.280262,63.28 143.926284,62.6026513 145.206522,61.2479539 C146.486761,59.8932565 147.126881,58.222463 147.126881,56.2355735 C147.126881,54.248684 146.486761,52.5778905 145.206522,51.2231931 C143.926284,49.8684957 142.280262,49.191147 140.268458,49.191147 C138.256654,49.191147 136.610633,49.8684957 135.330394,51.2231931 C134.050155,52.5778905 133.410036,54.248684 133.410036,56.2355735 C133.410036,58.222463 134.050155,59.8932565 135.330394,61.2479539 C136.610633,62.6026513 138.256654,63.28 140.268458,63.28 Z" transform="rotate(4 141.229 39.776)"/>
        <path fill="#FFF" stroke="#DDE3E9" stroke-linecap="round" stroke-linejoin="round" stroke-width="8.344" d="M273.440399,91.9444564 C273.440399,96.5461521 269.107746,100.276127 263.762108,100.275588 L244.403843,100.273636 L241.434563,118.945964 L220.206011,100.271196 L186.329047,100.26778 C180.98341,100.267241 176.649538,96.5363926 176.649073,91.934697 L176.644025,41.9420548 C176.644025,37.3403592 180.976679,33.6109237 186.322317,33.6109237 L263.755378,33.6187313 C269.101015,33.6192703 273.434887,37.3501187 273.435351,41.9518143 L273.440399,91.9444564 Z" transform="scale(-1 1) rotate(-4 0 6520.644)"/>
        <path fill="#FFF" stroke="#DDE3E9" stroke-linecap="round" stroke-linejoin="round" stroke-width="8.344" d="M102.2253,90.2994842 C102.2253,94.9012465 97.8933302,98.6309524 92.5477702,98.6300155 L73.1897851,98.6266225 L70.2891865,117.995891 L48.9923036,98.6223813 L15.1158296,98.6164437 C9.77026966,98.6155067 5.43618231,94.8842818 5.4353746,90.2825194 L5.42659974,40.2891529 C5.42659974,35.6873905 9.75856985,31.9576846 15.1041298,31.9586214 L92.5360704,31.9721934 C97.8816304,31.9731303 102.215718,35.7043553 102.216525,40.3061176 L102.2253,90.2994842 Z" transform="rotate(-7 53.826 74.977)"/>
        <path fill="#96CB6A" d="M39.9906885,61.0427014 L46.4537878,68.2161036 L67.5377337,47.3617187 C68.8564829,46.0623347 70.9951799,46.0623347 72.3207621,47.3617187 L76.382702,51.3537042 C77.7082842,52.6598207 77.7082842,54.7671117 76.382702,56.0664957 L49.645573,82.4110003 C48.2379961,83.7979075 45.9626412,83.7979075 44.5550642,82.4110003 L31.1183886,69.188676 C30.0046263,68.0912688 30.0319578,66.2936755 31.1798847,65.2231986 L35.8362867,60.9888409 C36.4220684,60.4420391 37.1778738,60.174449 37.9297786,60.1852222 C38.6776557,60.1959378 39.4216738,60.4820424 39.9906885,61.0427014 Z"/>
        <path fill="#D90000" fill-rule="nonzero" d="M231.298065,87.8738047 L231.285851,70.9369545 L231.285851,70.9369545 L248.354166,70.9492605 C250.413911,70.9507456 252.084869,69.2821958 252.086354,67.2224502 C252.086355,67.2206575 252.086355,67.2188647 252.086354,67.217072 L252.083253,62.9173529 C252.08177,60.8597074 250.414089,59.1920266 248.356443,59.190543 L231.277372,59.1782292 L231.277372,59.1782292 L231.264958,41.9621584 C231.263474,39.9045129 229.595793,38.2368321 227.538147,38.2353485 L223.224803,38.2322387 C221.165057,38.2307536 219.4941,39.8993034 219.492614,41.959049 C219.492613,41.9608417 219.492613,41.9626345 219.492614,41.9644272 L219.505021,59.1697415 L219.505021,59.1697415 L202.436707,59.1574354 C200.376961,59.1559504 198.706004,60.8245002 198.704519,62.8842457 C198.704517,62.8860385 198.704517,62.8878312 198.704519,62.889624 L198.707619,67.189343 C198.709103,69.2469885 200.376784,70.9146694 202.43443,70.9161529 L219.5135,70.9284667 L219.5135,70.9284667 L219.525721,87.8760735 C219.527205,89.933719 221.194886,91.6013998 223.252532,91.6028834 L227.565876,91.6059933 C229.625622,91.6074783 231.296579,89.9389285 231.298065,87.879183 C231.298066,87.8773902 231.298066,87.8755974 231.298065,87.8738047 Z" transform="rotate(-42 225.395 64.92)"/>
      </g>
    </g>
    <g transform="matrix(-1 0 0 1 96.68 116.28)">
      <path fill="#69A1AC" d="M65.4275078,0.422256238 C63.2445,-0.054643289 60.8341235,-0.018143646 58.6104662,0.0211972866 C46.6849987,0.183369353 34.9743924,5.82944886 27.3528497,14.8509804 C20.864577,22.5312047 19.0804695,32.0799047 17.7986727,41.7324211 C17.6715875,42.6908099 17.6170904,43.643079 17.5453956,44.6034349 C17.5299845,44.8095377 17.5069796,44.9933473 17.4824113,45.1664474 C16.9783138,45.6171196 16.7138693,46.1425396 17.0122628,46.7197585 C15.9017743,49.1499354 14.9623707,51.6417463 14.1563061,54.211802 C11.7838988,61.7766262 9.3706187,69.4852634 10.857226,77.44 C11.2045329,73.062447 11.9351057,68.5861046 12.8088449,64.280458 C12.8590983,64.0332659 12.9133719,63.7880407 12.9698791,63.5436898 C12.9756861,63.5178996 12.9810465,63.4921095 12.9868536,63.4665379 C13.2961912,62.1479609 13.6982184,60.8689435 14.1871282,59.6100337 C14.1922652,59.5962643 14.1971789,59.5827136 14.2025392,59.5691628 C14.2670869,59.4034938 14.3356549,59.238699 14.4033295,59.0739042 C14.543369,58.7327309 14.6872054,58.3922132 14.8397524,58.0534441 C14.8913459,57.938044 14.9409292,57.8215512 14.9885024,57.704184 C15.700314,55.9596322 16.000941,53.993897 16.6386008,52.1888038 C16.7911478,51.7783468 16.9506186,51.3694196 17.1176833,50.9626781 C17.1275106,50.938855 17.1375613,50.9150319 17.147612,50.8912088 C17.5992226,49.7966566 18.098183,48.7154366 18.6257321,47.6455818 C18.9125115,47.4300809 19.0657285,46.8954814 19.3129753,46.4096208 C19.3641221,46.3138912 19.7639158,45.6754753 19.8829605,45.3076376 C20.1936382,44.7065956 20.5031992,44.105335 20.8161104,43.5053858 C20.8067298,43.5088827 20.7973491,43.5123797 20.7879685,43.5158767 C21.101103,42.9397506 21.4151309,42.3660287 21.726702,41.7947109 C21.79527,41.669257 21.864508,41.5435846 21.9335227,41.4176936 C22.0454203,41.2172734 22.1573179,41.0170718 22.2689921,40.8173073 C23.3135928,38.9479573 24.4211778,37.1159812 25.5714224,35.3067354 C25.9819368,34.661107 26.9626599,33.7352837 27.1507193,33.0103178 C27.1576431,32.9832162 27.1592066,32.9583003 27.1634502,32.9322916 C29.6593692,29.4267959 32.5327471,26.1934084 35.9785671,23.6314394 C35.5620222,24.0816745 34.6766689,25.6096327 34.4425997,25.9121207 C33.7263212,26.8383811 32.9486219,27.7006032 32.1680191,28.5733162 C30.7700811,30.1366812 29.4051986,31.7496594 28.1924165,33.4553074 C25.9745663,36.5746063 24.0611401,39.8573885 22.2524643,43.2061761 C22.2352665,43.2258466 22.2165052,43.2444243 22.2002008,43.2645318 C21.2911726,44.3850927 20.7189538,46.0787199 20.0645428,47.3605786 C22.6542682,46.1611173 25.5178188,45.3797627 28.1756654,44.3147162 C30.8261415,43.2529481 33.4044761,42.0705345 35.8936947,40.6820182 C39.2021554,38.8367099 42.6341278,36.7531704 45.7601128,34.3953372 C49.3423987,32.1732301 52.3526892,29.1146912 55.0098658,25.9051268 C58.1537186,22.107634 61.0349137,18.2769199 62.8167877,13.6659441 C63.6920903,11.4001249 64.3806736,9.03748336 64.7889546,6.64730314 C64.8068225,6.54304967 64.829604,6.43005377 64.8543957,6.31268665 C65.2720573,5.48718275 65.6454959,4.64310119 65.9588538,3.77956771 C66.4564742,2.41006614 67.6317338,0.903526981 65.4275078,0.422256238"/>
      <path fill="#C1DEE2" d="M81.910753,30.4803475 C79.3863898,28.7685741 76.0294737,28.32 73.0086036,28.32 C61.2096519,28.32 50.1191856,32.6976311 40.5383271,39.2203959 C35.2884931,42.7944663 30.592119,47.3459025 26.4458962,52.0847441 C24.0526903,54.820216 21.9187267,57.779514 20.4079372,61.0707476 C19.3884556,63.2921804 18.6887141,65.6067396 18.2144212,67.9941402 C17.6363841,70.9036478 17.1772156,73.8721663 16.9694909,76.8300812 C16.8877244,77.9948524 16.2109059,84.1755391 18.1475428,84.280191 C18.1364358,84.4325587 18.1338363,84.5777805 18.1456522,84.7080191 C13.940586,91.2831099 11.3424912,98.9888563 8.93321563,106.294666 C6.83706314,112.652155 4.96919512,119.063353 3.75664061,125.640287 C2.16030351,134.299196 1.11175462,143.088343 0.613120827,151.871728 C0.506068169,153.759381 0.432572856,155.647956 0.369239274,157.538145 C0.315594785,159.150338 0.261241338,160.76253 0.208305807,162.374723 C0.149225974,164.181467 -0.16885985,166.261597 0.11850446,168.057737 C0.368530316,169.621983 1.72240378,169.385249 1.78219257,167.828609 C1.85450629,165.948793 1.84269032,164.065289 1.92492945,162.184091 C2.0343453,159.687428 2.14706963,157.190765 2.26924672,154.694794 C3.11976001,137.356 6.31054366,120.272151 12.1991488,103.893896 C14.582193,97.2660184 17.3128629,90.9917442 20.8224413,84.8606173 C23.9080629,79.4698911 27.6196944,74.2511261 31.413565,69.3905748 C35.1010919,64.6671775 38.9349004,60.0530423 43.4530898,56.0511438 C47.1195842,52.8037073 51.15261,49.974648 55.2983601,47.3422143 C60.5640275,43.9988853 65.8195332,40.7366961 71.5233366,38.1701886 C74.488199,36.8362224 77.509069,35.6419459 80.4970907,34.3619192 C81.0347172,34.1316389 81.6111001,33.9082739 82.1281668,33.6415729 C83.8530616,32.7520316 83.2851862,31.4123027 81.910753,30.4803475"/>
      <path fill="#89C5CC" d="M37.6366082,88.04 C32.8511428,88.04 28.5928256,88.6618151 24.1835452,90.5635946 C20.3774505,92.2049427 16.9088552,94.3778144 13.5411984,96.7434531 C8.80420132,100.070534 5.07303237,103.942845 2.46130304,109.073581 C0.90097985,112.138707 -0.243583238,116.475965 0.804265603,119.819146 C2.03865066,123.756728 5.42787361,127.04073 9.89162519,126.346899 C12.651872,125.918286 15.182228,124.091133 17.280149,122.37146 C19.7898281,120.314118 21.7988165,117.840347 23.4576326,115.092873 C26.1636305,110.611148 27.7537461,105.544595 30.0524326,100.861401 C31.1431914,98.6387055 32.1972655,96.4001277 33.503686,94.2877404 C34.1504487,93.2416638 34.8390096,92.2055954 35.820159,91.4282178 C36.3450839,91.0124415 38.558395,90.2927199 37.7119786,89.3589094 C50.1218616,89.5218693 61.1157147,99.0527412 63.4979978,110.85004 C63.7198848,111.949639 63.8933034,113.058158 64.0765047,114.164501 C64.1921171,114.863119 64.1454275,117.439365 64.7699569,117.885601 C66.1473012,118.870106 65.5683497,115.879388 65.5092095,115.448817 C65.3564677,114.335947 65.1934986,113.223946 65.0225256,112.113904 C64.0922902,106.076119 61.4043011,100.463248 56.9216514,96.1573195 C51.7955739,91.2334926 44.8792825,88.04 37.6366082,88.04" transform="matrix(-1 0 0 1 66.08 0)"/>
    </g>
    <g transform="translate(209 165)">
      <g transform="translate(11.796)">
        <path fill="#C1DEE2" d="M3.06776297,0.188903496 C11.0825991,19.2338129 24.7070712,32.4663296 31.9231402,52.2691789 C36.2022,64.0128502 37.9859027,76.7815481 38.094091,89.8590243 C38.1528687,96.9622273 38.0292248,104.06999 37.9959721,111.173193 C37.9636561,118.100184 37.7753803,124.982878 37.1873696,131.865572 C36.5965489,138.784745 35.9350076,145.621513 35.6432269,152.583356 C35.4160782,158.007821 35.3123392,164.317255 33.4736056,169.265199 C32.0114238,173.200168 28.2950839,173.776684 27.3089775,169.004301 C26.7610106,166.351349 26.8300919,163.389292 26.8905088,160.662728 C26.9680203,157.164544 27.1715174,153.671571 27.2752565,150.174038 C27.6923202,136.138959 27.1516127,122.101273 27.4342606,108.060656 C27.7103516,94.3424978 29.4736811,80.6393222 27.5225441,67.0126897 C25.9114276,55.7598716 21.8183019,46.0968707 17.1144506,36.8331969 C12.5888057,27.9206445 7.66319173,19.2246928 4.6048805,9.08679876 C3.72672835,6.17522815 3.04785819,3.15812574 2.72212229,0.0273486224 C2.86450002,-0.0387716184 2.97971358,0.0149714345 3.06776297,0.188903496 Z"/>
        <path fill="#89C5CC" d="M0.883408897,37.7621475 C2.47047515,38.9081939 3.35729489,40.5846449 4.4300057,42.2387632 C5.76398724,44.2952446 7.33229385,46.1518471 8.6659343,48.2098174 C11.4467964,52.5003262 13.8899848,57.0543623 16.4249249,61.518695 C21.2376274,69.9925149 24.8916658,79.0239112 26.7014603,88.827279 C28.5774251,98.9868553 29.0832534,109.473235 29.8701354,119.784303 C30.7047692,130.712873 31.5452015,141.721097 31.6557129,152.691727 C31.7051701,157.606811 31.970875,162.824504 31.3807987,167.704972 C31.0134507,170.743353 29.642291,173.332845 26.551042,173.308452 C19.984824,173.256169 16.9021021,165.983483 15.614167,160.018756 C13.7184192,151.235999 13.3401565,141.906832 13.6403109,132.92494 C14.0028837,122.094634 15.8826005,111.426986 16.6960871,100.638368 C17.5576666,89.217359 17.070939,77.9980899 13.144374,67.2444602 C11.1606265,61.8101384 8.85830597,56.5060914 6.79099272,51.1078742 C5.91065358,48.8094539 5.18960091,46.4485016 4.00058029,44.3082721 C2.67785454,41.9275924 1.03587368,39.766519 -2.765279e-14,37.2023379 C0.294355937,37.3891893 0.58905296,37.5756684 0.883408897,37.7621475 Z"/>
        <path fill="#C1DEE2" d="M76.5226165 14.9877061C76.7239361 14.8312446 76.9255036 14.6748162 77.1267981 14.5179855 76.5469314 16.9612332 75.4994761 18.9458748 74.6988045 21.1792969 73.9790803 23.1871526 73.6142749 25.4593065 73.1295116 27.6539954 71.9911892 32.8086118 70.6757553 37.8470414 69.6005881 43.0455704 67.4722426 53.3325025 67.8747839 64.4146543 69.2706482 75.8275767 70.5889415 86.6085182 72.6738398 97.3727757 73.6672939 108.151378 74.4908038 117.090339 74.8447606 126.308053 74.059232 134.836698 73.5254164 140.628802 71.7756091 147.544467 67.0078871 146.959905 64.7633377 146.684738 63.5924671 143.983146 63.1207433 140.933531 62.3630153 136.035016 62.2043964 130.884904 61.9090417 126.014021 61.2498881 115.14206 61.1185856 104.303535 60.9884386 93.5434627 60.8652152 83.3913152 60.5259522 73.0380271 61.2043039 63.141686 61.8585835 53.5922858 63.904986 44.9873711 66.8308952 37.0478345 68.3719577 32.8649269 69.8403041 28.5841446 71.571778 24.5974966 72.4021323 22.685254 73.4165757 20.9955032 74.2472782 19.0847706 74.9152531 17.5478584 75.446648 15.97078 76.5226165 14.9877061zM2.911589 69.234297C3.77986786 67.7766031 5.69110946 72.5839474 5.98198414 73.1885904 5.85895983 72.8878262 5.73544621 72.5874934 5.61084033 72.2874218 7.33429363 75.153193 8.91098058 78.13646 9.8912695 81.4224449 10.8613136 84.6753455 11.6945105 87.9939981 12.6047056 91.2700192 14.3125465 97.4165897 16.5157199 103.388705 18.0630622 109.590647 19.5707724 115.634143 19.9509296 121.575326 19.5859403 127.826505 19.2066044 134.32357 18.9745295 140.920317 19.4170689 147.413879 19.6284217 150.515232 20.6361578 153.404083 21.326847 156.389839 22.0183775 159.378538 22.5630309 162.407086 23.3805608 165.358729 23.568221 164.974217 23.5921263 166.259703 23.5917265 166.357284 23.5865907 167.09468 23.4836256 167.713023 23.2463819 168.412227 22.636749 170.210258 21.4962549 171.737781 19.7607696 172.233714 16.6244691 173.129807 13.712459 170.276945 12.7010596 167.264441 11.2501458 162.941962 10.4506332 158.165243 9.75917343 153.622114 9.12524739 149.456107 8.97523743 145.265232 9.16357218 141.041855 9.53456535 132.713126 11.0418026 124.493436 11.4495213 116.167243 11.8932717 107.102554 10.0972959 98.5855395 8.59358039 89.7618249 7.86927736 85.5102017 7.17709647 81.2986942 5.76754595 77.2480843 5.19686663 75.6078456 4.45281829 74.1603344 3.67268211 72.6456684 3.22878445 71.7839147 2.33109059 70.2467385 2.911589 69.234297z"/>
        <path fill="#69A1AC" d="M28.3573394,55.0749291 C27.9976065,65.459618 27.3773109,75.7655324 25.9928094,86.0407924 C24.579799,96.5267118 22.9568613,106.97663 21.5972764,117.471817 C20.2738023,127.687907 18.8865783,138.073666 19.0715223,148.432334 C19.2077299,156.06241 17.9425431,168.970022 26.4167173,172.735871 C34.9993107,176.549483 36.8403143,160.263479 37.4038796,154.887922 C38.4838557,144.574522 38.1342166,134.152406 37.6100907,123.782688 C37.0720076,113.139933 36.1737678,102.551357 35.0605237,91.947454 C33.8240344,80.1690625 32.853846,68.3375605 32.0751873,56.5256631 C31.6899404,50.6831617 31.5950336,44.8502844 31.701327,39.0063572 C31.8018025,33.4917859 31.5922805,27.9201832 29.6316568,22.6843524 C29.5289268,22.7588495 29.4268795,22.8333467 29.3241429,22.9074874"/>
        <path fill="#89C5CC" d="M72.6650097,87.9746597 C71.12151,90.2231964 69.5655987,92.4498544 68.1079624,94.8316525 C65.4998328,99.0930323 63.1413692,103.832264 62.4318605,109.92549 C60.9470799,122.677309 62.1382694,136.449969 62.4257711,149.592124 C62.4845767,152.277738 62.1449192,154.882302 63.2034332,157.438135 C64.1631616,159.755789 65.9574998,161.521999 67.6678827,161.512589 C71.3294068,161.491667 70.7707595,152.525366 70.7767934,148.578741 C70.7878347,141.661582 70.0121897,134.674311 70.0789486,127.763616 C70.1456044,120.917065 70.561965,114.051619 71.5546133,107.549161 C72.5595942,100.967642 74.031348,94.6476722 75.9736478,88.7498628 C76.243183,87.9313994 78.1774843,81.6069548 76.3499923,82.6969133"/>
        <path fill="#69A1AC" d="M56.4951029,19.9622301 C54.0877997,19.9622301 54.1025579,31.9631574 54.0301398,33.504619 C53.7686107,39.0673492 53.830046,44.6315677 53.6646168,50.1954142 C53.302526,62.3373538 52.8577207,74.5857037 51.0338813,86.5873752 C50.051946,93.0482682 48.9135051,99.4805122 47.6889175,105.892293 C46.4608977,112.322676 44.8124407,118.745247 44.0045149,125.257113 C43.2288512,131.517091 43.6671355,137.900223 43.7735319,144.191082 C43.8799282,150.519892 44.0710984,156.861353 44.9003035,163.134726 C45.1048591,164.683256 45.3447657,166.226206 45.6014898,167.765435 C45.8153121,169.04794 45.6907254,170.638514 46.052473,171.857396 C46.6325047,173.809616 49.1187471,174.44845 50.7929451,174.143358 C55.323027,173.316259 58.2166644,167.628144 59.7642165,163.472188 C61.7404428,158.165437 62.7889617,152.409234 63.8237519,146.816739 C64.996171,140.480859 65.6832855,134.048243 66.0055635,127.597768 C66.6607591,114.488089 65.8198847,101.364273 64.8808511,88.2966376 C64.3584794,81.0291097 63.7551091,73.7935793 62.8318634,66.5710711 C61.912393,59.3794443 60.7327664,52.2198149 59.9646535,45.0069804 C59.4065875,39.7653415 58.8567586,34.5166333 58.4953542,29.2549029 C58.4088643,28.0003028 58.3361029,19.9622301 56.4951029,19.9622301"/>
        <path fill="#89C5CC" d="M53.4813485,107.195999 C53.0889656,94.5961948 48.0241612,39.2520124 46.8718431,24.0155902 C46.583687,20.2019308 43.8094175,4.32331008 43.4495289,-1.13331106e-14 C42.473783,1.2219988 42.5571644,20.2430129 42.5678936,24.6136061 C42.5792359,28.9369162 42.0430815,33.1885264 41.7671873,37.4885824 C41.4860818,41.8762286 34.9995026,98.5416271 34.1577188,102.757581 C32.483041,111.144919 31.3622974,119.752007 30.4978289,128.327703 C29.6557385,136.68636 28.3464673,145.504673 29.4733418,153.907126 C29.7323758,155.841473 30.142232,157.744814 30.8095894,159.521809 C31.5305929,161.441816 32.0247501,163.217261 32.6035148,165.226408 C33.534811,168.462593 35.2196049,171.302684 37.8084121,172.638627 C43.1160034,175.377951 45.9659905,169.176879 47.4107565,163.77807 C49.7181516,155.156254 51.1990904,146.393752 51.8934241,137.339023 C52.6616362,127.321191 53.7955613,117.282818 53.4813485,107.195999"/>
      </g>
      <g transform="translate(0 144.272)">
        <rect width="82.571" height="82.571" x="9.074" fill="#A9CCDC" rx="1.815"/>
        <rect width="9.074" height="102.533" y="9.074" fill="#C5CFD6" rx="1.815"/>
        <rect width="9.074" height="102.533" x="45.369" y="9.074" fill="#C5CFD6" rx="1.815"/>
        <rect width="9.074" height="102.533" x="91.645" y="9.074" fill="#C5CFD6" rx="1.815"/>
      </g>
    </g>
    <g transform="translate(437.48 72.28)">
      <path fill="#69A1AC" d="M77.4275078,0.422256238 C75.2445,-0.054643289 72.8341235,-0.018143646 70.6104662,0.0211972866 C58.6849987,0.183369353 46.9743924,5.82944886 39.3528497,14.8509804 C32.864577,22.5312047 31.0804695,32.0799047 29.7986727,41.7324211 C29.6715875,42.6908099 29.6170904,43.643079 29.5453956,44.6034349 C29.5299845,44.8095377 29.5069796,44.9933473 29.4824113,45.1664474 C28.9783138,45.6171196 28.7138693,46.1425396 29.0122628,46.7197585 C27.9017743,49.1499354 26.9623707,51.6417463 26.1563061,54.211802 C23.7838988,61.7766262 21.3706187,69.4852634 22.857226,77.44 C23.2045329,73.062447 23.9351057,68.5861046 24.8088449,64.280458 C24.8590983,64.0332659 24.9133719,63.7880407 24.9698791,63.5436898 C24.9756861,63.5178996 24.9810465,63.4921095 24.9868536,63.4665379 C25.2961912,62.1479609 25.6982184,60.8689435 26.1871282,59.6100337 C26.1922652,59.5962643 26.1971789,59.5827136 26.2025392,59.5691628 C26.2670869,59.4034938 26.3356549,59.238699 26.4033295,59.0739042 C26.543369,58.7327309 26.6872054,58.3922132 26.8397524,58.0534441 C26.8913459,57.938044 26.9409292,57.8215512 26.9885024,57.704184 C27.700314,55.9596322 28.000941,53.993897 28.6386008,52.1888038 C28.7911478,51.7783468 28.9506186,51.3694196 29.1176833,50.9626781 C29.1275106,50.938855 29.1375613,50.9150319 29.147612,50.8912088 C29.5992226,49.7966566 30.098183,48.7154366 30.6257321,47.6455818 C30.9125115,47.4300809 31.0657285,46.8954814 31.3129753,46.4096208 C31.3641221,46.3138912 31.7639158,45.6754753 31.8829605,45.3076376 C32.1936382,44.7065956 32.5031992,44.105335 32.8161104,43.5053858 C32.8067298,43.5088827 32.7973491,43.5123797 32.7879685,43.5158767 C33.101103,42.9397506 33.4151309,42.3660287 33.726702,41.7947109 C33.79527,41.669257 33.864508,41.5435846 33.9335227,41.4176936 C34.0454203,41.2172734 34.1573179,41.0170718 34.2689921,40.8173073 C35.3135928,38.9479573 36.4211778,37.1159812 37.5714224,35.3067354 C37.9819368,34.661107 38.9626599,33.7352837 39.1507193,33.0103178 C39.1576431,32.9832162 39.1592066,32.9583003 39.1634502,32.9322916 C41.6593692,29.4267959 44.5327471,26.1934084 47.9785671,23.6314394 C47.5620222,24.0816745 46.6766689,25.6096327 46.4425997,25.9121207 C45.7263212,26.8383811 44.9486219,27.7006032 44.1680191,28.5733162 C42.7700811,30.1366812 41.4051986,31.7496594 40.1924165,33.4553074 C37.9745663,36.5746063 36.0611401,39.8573885 34.2524643,43.2061761 C34.2352665,43.2258466 34.2165052,43.2444243 34.2002008,43.2645318 C33.2911726,44.3850927 32.7189538,46.0787199 32.0645428,47.3605786 C34.6542682,46.1611173 37.5178188,45.3797627 40.1756654,44.3147162 C42.8261415,43.2529481 45.4044761,42.0705345 47.8936947,40.6820182 C51.2021554,38.8367099 54.6341278,36.7531704 57.7601128,34.3953372 C61.3423987,32.1732301 64.3526892,29.1146912 67.0098658,25.9051268 C70.1537186,22.107634 73.0349137,18.2769199 74.8167877,13.6659441 C75.6920903,11.4001249 76.3806736,9.03748336 76.7889546,6.64730314 C76.8068225,6.54304967 76.829604,6.43005377 76.8543957,6.31268665 C77.2720573,5.48718275 77.6454959,4.64310119 77.9588538,3.77956771 C78.4564742,2.41006614 79.6317338,0.903526981 77.4275078,0.422256238"/>
      <path fill="#C1DEE2" d="M81.910753,42.4803475 C79.3863898,40.7685741 76.0294737,40.32 73.0086036,40.32 C61.2096519,40.32 50.1191856,44.6976311 40.5383271,51.2203959 C35.2884931,54.7944663 30.592119,59.3459025 26.4458962,64.0847441 C24.0526903,66.820216 21.9187267,69.779514 20.4079372,73.0707476 C19.3884556,75.2921804 18.6887141,77.6067396 18.2144212,79.9941402 C17.6363841,82.9036478 17.1772156,85.8721663 16.9694909,88.8300812 C16.8877244,89.9948524 16.2109059,96.1755391 18.1475428,96.280191 C18.1364358,96.4325587 18.1338363,96.5777805 18.1456522,96.7080191 C13.940586,103.28311 11.3424912,110.988856 8.93321563,118.294666 C6.83706314,124.652155 4.96919512,131.063353 3.75664061,137.640287 C2.16030351,146.299196 1.11175462,155.088343 0.613120827,163.871728 C0.506068169,165.759381 0.432572856,167.647956 0.369239274,169.538145 C0.315594785,171.150338 0.261241338,172.76253 0.208305807,174.374723 C0.149225974,176.181467 -0.16885985,178.261597 0.11850446,180.057737 C0.368530316,181.621983 1.72240378,181.385249 1.78219257,179.828609 C1.85450629,177.948793 1.84269032,176.065289 1.92492945,174.184091 C2.0343453,171.687428 2.14706963,169.190765 2.26924672,166.694794 C3.11976001,149.356 6.31054366,132.272151 12.1991488,115.893896 C14.582193,109.266018 17.3128629,102.991744 20.8224413,96.8606173 C23.9080629,91.4698911 27.6196944,86.2511261 31.413565,81.3905748 C35.1010919,76.6671775 38.9349004,72.0530423 43.4530898,68.0511438 C47.1195842,64.8037073 51.15261,61.974648 55.2983601,59.3422143 C60.5640275,55.9988853 65.8195332,52.7366961 71.5233366,50.1701886 C74.488199,48.8362224 77.509069,47.6419459 80.4970907,46.3619192 C81.0347172,46.1316389 81.6111001,45.9082739 82.1281668,45.6415729 C83.8530616,44.7520316 83.2851862,43.4123027 81.910753,42.4803475"/>
      <path fill="#89C5CC" d="M43.6366082,103.04 C38.8511428,103.04 34.5928256,103.661815 30.1835452,105.563595 C26.3774505,107.204943 22.9088552,109.377814 19.5411984,111.743453 C14.8042013,115.070534 11.0730324,118.942845 8.46130304,124.073581 C6.90097985,127.138707 5.75641676,131.475965 6.8042656,134.819146 C8.03865066,138.756728 11.4278736,142.04073 15.8916252,141.346899 C18.651872,140.918286 21.182228,139.091133 23.280149,137.37146 C25.7898281,135.314118 27.7988165,132.840347 29.4576326,130.092873 C32.1636305,125.611148 33.7537461,120.544595 36.0524326,115.861401 C37.1431914,113.638705 38.1972655,111.400128 39.503686,109.28774 C40.1504487,108.241664 40.8390096,107.205595 41.820159,106.428218 C42.3450839,106.012441 44.558395,105.29272 43.7119786,104.358909 C56.1218616,104.521869 67.1157147,114.052741 69.4979978,125.85004 C69.7198848,126.949639 69.8933034,128.058158 70.0765047,129.164501 C70.1921171,129.863119 70.1454275,132.439365 70.7699569,132.885601 C72.1473012,133.870106 71.5683497,130.879388 71.5092095,130.448817 C71.3564677,129.335947 71.1934986,128.223946 71.0225256,127.113904 C70.0922902,121.076119 67.4043011,115.463248 62.9216514,111.15732 C57.7955739,106.233493 50.8792825,103.04 43.6366082,103.04" transform="matrix(-1 0 0 1 78.08 0)"/>
    </g>
    <g transform="translate(0 118)">
      <g transform="matrix(-1 0 0 1 533.127 0)">
        <g transform="rotate(-12 123.303 -260.532)">
          <path fill="#D4A181" d="M26.52394,6.34162172 C30.5535087,13.8407603 30.0746912,32.8629471 24.8668327,34.2032524 C22.7899879,34.7377534 18.3657385,33.4284771 13.8628397,30.7186571 L16.6890088,50.6833573 L0,50.6833573 L5.74587289,23.9468142 C2.54137657,20.1914534 0.372448726,15.5891291 0.734856232,10.4320609 C1.77899982,-4.42612939 22.4943714,-1.15751683 26.52394,6.34162172 Z" transform="translate(37.55 21.523)"/>
          <path fill="#191847" d="M71.46769,17.4687049 C71.1220953,16.2558183 70.1925329,15.2173346 68.9397919,14.9092456 C68.6360041,14.8345145 68.3222688,14.8043303 68.0096795,14.8169147 C67.8975525,14.821383 67.8661057,14.8536647 67.8137095,14.7753771 C67.7748364,14.717334 67.7739654,14.5755319 67.7579669,14.507321 C67.7081837,14.2952106 67.6459317,14.0857448 67.5691023,13.8817048 C67.3069838,13.1857803 66.8664983,12.5698759 66.335477,12.0510444 C65.3422416,11.0804068 64.0002025,10.4105174 62.6059048,10.2893244 C61.8427908,10.2230285 61.0852236,10.3468204 60.363779,10.5946777 C59.9902671,10.7229835 59.6280779,10.8827502 59.275332,11.0593873 C59.1691186,11.1125517 58.8245323,11.3729477 58.7179521,11.3560774 C58.6002326,11.3374744 58.3636476,11.0453895 58.2679317,10.9720719 C57.0848231,10.0657696 55.6238269,9.70944053 54.1501785,9.72009592 C52.4868403,9.73260306 50.8851582,9.81558692 49.49792,10.82799 C49.204263,11.0423346 48.9245875,11.2770147 48.6582975,11.5240969 C48.5180701,11.6541809 48.3822434,11.7891437 48.252697,11.9297147 C48.1745382,12.0145224 48.0984422,12.1012451 48.0251884,12.1902931 C47.9008678,12.3414423 47.9208086,12.3910958 47.7467965,12.2856334 C47.0791691,11.8806539 46.3055118,11.6912501 45.5262618,11.7868639 C45.0635434,11.843676 44.6133397,11.9823775 44.185873,12.164942 C44.040328,12.2270887 43.703443,12.4749916 43.5483173,12.4774082 C43.3944293,12.4797791 43.062266,12.2499777 42.903748,12.1915698 C42.047577,11.8760032 41.1247532,11.7982172 40.2248499,11.9440317 C39.2965711,12.0944969 38.3847033,12.4642767 37.5982104,12.9752657 C37.2199311,13.2210712 36.8898764,13.4934133 36.6247783,13.8589071 C36.5103135,14.0167132 36.4068505,14.1836384 36.2771207,14.3299544 C36.2011623,14.4156284 36.0507582,14.5035366 36.0100056,14.6119628 C36.0343929,14.5470347 34.9948123,14.1468884 34.8967127,14.1213093 C34.3740803,13.9850243 33.8419129,14.0126552 33.3301448,14.1808115 C32.3678061,14.4970164 31.540194,15.2061181 30.8600063,15.9331388 C30.5106525,16.3065661 30.2049394,16.7193424 29.9454339,17.1591113 C29.8210674,17.3697626 29.7073361,17.5864326 29.6032772,17.8077077 C29.5528521,17.9149027 29.5194341,18.0489992 29.4530106,18.1455705 C29.3673797,18.2700007 29.3098494,18.2723717 29.1547695,18.3266303 C28.3671765,18.6021185 27.6492158,19.068424 27.1024711,19.6985086 C26.5494461,20.3359796 26.1906033,21.1209978 26.0401533,21.9476903 C26.031306,21.9963863 26.0260343,22.1981921 25.9974754,22.2245463 C25.9583273,22.2608404 25.7999469,22.2447908 25.7400328,22.2518125 C25.5325567,22.2761149 25.3265476,22.3122721 25.1232889,22.3603298 C24.7485851,22.4488763 24.3838747,22.5791884 24.0388759,22.7496244 C22.6939946,23.4139969 21.7322519,24.6595299 21.2615573,26.0610452 C20.7676671,27.5318657 20.7764227,29.2169396 21.3667164,30.6603116 C21.4620655,30.8934415 21.5755218,31.1197321 21.7087814,31.3338031 C21.7906074,31.4652094 21.8170118,31.4655286 21.7638822,31.6034094 C21.7046557,31.7567928 21.5964711,31.9058446 21.5261511,32.0557171 C21.2967173,32.5448203 21.1363198,33.0635606 21.0350114,33.5933806 C20.8687922,34.462477 20.786416,35.375801 20.950389,36.2515086 C21.0265308,36.6581296 21.1591945,37.0556314 21.3615822,37.4177966 C21.4647701,37.6024585 21.5855151,37.7775909 21.721846,37.9395918 C21.7926244,38.0237156 21.8678036,38.1040549 21.9464208,38.1810202 C21.9913907,38.2249742 22.0503421,38.2634569 22.0885735,38.3125632 C22.1819056,38.4322971 22.2015255,38.3338564 22.1533926,38.5096727 C22.0860981,38.7554782 21.9335395,38.9980008 21.8401156,39.2371949 C21.7438497,39.4836844 21.6568436,39.7335478 21.5772637,39.9858735 C21.416087,40.496817 21.279802,41.0170163 21.1945837,41.5461524 C21.0309315,42.5620664 21.0596738,43.6445498 21.5409577,44.5769327 C21.7467377,44.9757568 22.0419533,45.3256112 22.4000168,45.5977709 C22.5752666,45.7309099 22.7650939,45.8456738 22.9642269,45.9399198 C23.0665439,45.9884334 23.1971905,46.009225 23.2438566,46.1080305 C23.2940983,46.2142681 23.2195151,46.4252386 23.2025081,46.5440149 C23.0545336,47.5773007 22.9803171,48.6622007 23.2879556,49.6747862 C23.5712984,50.6074427 24.1951476,51.4308979 25.005111,51.9760836 C26.5764005,53.0336719 28.6944349,52.9740329 30.3454418,52.1273696 C30.7757965,51.9066416 31.1784174,51.6326125 31.5375811,51.3093858 C32.4521535,52.5386412 34.3341528,52.4997482 35.6708285,52.1494834 C37.3361378,51.7131342 38.672401,50.5569684 39.4422994,49.0379079 C40.4950363,50.3174551 42.7043858,49.9023078 43.4344026,48.5141976 C43.6130906,48.1744654 43.7190748,47.8000349 43.7712418,47.4211361 C43.7987005,47.2218836 43.7811893,47.0208985 43.8018177,46.8232419 C43.8281304,46.5713722 43.9966416,46.3266154 44.0935035,46.0829529 C44.2821389,45.6087595 44.3992625,45.1189267 44.404305,44.6074361 C44.406918,44.3403831 44.3730415,44.0801238 44.3475998,43.8152138 C44.3247252,43.5767492 44.3909653,43.3545622 44.4286007,43.1191981 C44.0015008,43.1894152 43.4811604,43.0744233 43.0787687,42.9507682 C42.6838949,42.8294385 42.3140503,42.5098595 42.0353374,42.2180025 C41.388201,41.5402706 40.9928688,40.6518418 40.722499,39.7676077 C40.1289965,37.8268797 40.3722743,35.4984529 42.3273442,34.4333414 C43.2381118,33.9371709 45.9666565,33.9387984 47.0514211,34.1840228 C48.1920036,34.4418655 49.4850387,36.9546829 49.5486659,37.1908677 C49.5880433,37.337047 49.56824,37.51797 49.7027373,37.615362 C49.9983196,37.8295242 50.485792,37.4578751 50.7038115,37.2744443 C51.080028,36.9578745 51.3483808,36.5366631 51.5807943,36.1097066 C52.0871991,35.1795578 52.4954584,34.1820645 52.7838437,33.1637796 C53.0061722,32.3787158 53.1483249,31.5691672 53.4389106,30.8041199 C53.7280752,30.0428569 54.1839174,29.3624349 54.892664,28.9311924 C55.6636626,28.46206 56.5474299,28.2149779 57.3938368,27.9201572 C58.2328176,27.627981 59.0573125,27.2708769 59.7076578,26.6509145 C59.8506357,26.5145839 59.9895337,26.3697269 60.1046403,26.2092306 C60.195497,26.0825207 60.2852994,25.8399525 60.423739,25.7596131 C60.6389621,25.6346358 60.9530642,25.9596407 61.1391784,26.0776419 C62.0573722,26.6598968 62.82342,27.4719532 63.441264,28.3590597 C64.05567,29.2413332 64.5598195,30.0902763 64.9694999,31.0754588 C65.2733794,31.8061272 65.4630324,32.7418842 65.9974918,33.3406902 C66.2360939,33.6080624 68.0096795,33.7698153 68.584158,33.5363862 C69.1586365,33.3029572 69.8024724,32.6968358 69.9952794,32.3169794 C70.1926704,31.9281864 70.2398407,31.5010931 70.1554934,31.0754588 C70.1058935,30.8250482 70.0045851,30.5911432 69.9491634,30.3452009 C69.9024973,30.1386075 69.8601403,29.9433219 69.7594278,29.7540549 C69.5685461,29.3954005 69.2424338,29.1376033 68.8491644,29.0298155 C69.2584322,28.6530597 69.5975634,28.2023479 69.8322232,27.6985173 C70.0760511,27.1750807 70.282702,26.5385215 70.3413325,25.9640179 C70.3890071,25.4973933 70.3154324,25.0139439 70.0595942,24.6129312 C69.7911955,24.1922669 69.3157334,23.9178274 68.9043569,23.6554252 C69.5327444,23.1645437 70.0705502,22.5675615 70.5126859,21.9066087 C71.3725243,20.6212708 71.9043707,19.0010794 71.46769,17.4687049 Z"/>
        </g>
        <g transform="translate(9.127 141.68)">
          <polygon fill="#D4A181" points="93.18 0 127.31 86.25 150.202 159.167 159.241 159.167 124.245 0"/>
          <path fill="#F1C0A6" d="M86.3076458,0 C85.9442084,30.3087788 80.6439559,71.1146299 79.7971541,73.0039249 C79.2326197,74.263455 59.7439795,90.2805739 21.3312337,121.055282 L27.55708,127.707297 C72.8805616,101.321846 96.5909762,86.3695365 98.6883239,82.8503676 C101.834345,77.5716143 112.076708,28.9958355 120.299939,0 L86.3076458,0 Z"/>
          <path fill="#C1C1C1" d="M1.86216594,17.6367429 C1.08430556,19.71005 0.695375368,21.2613786 0.695375368,22.2907286 C0.695375368,23.5427368 0.904276006,25.3697281 1.32207728,27.7717026 C2.77675983,27.7717026 15.8502368,27.7717026 40.5425082,27.7717026 C41.5617082,24.407513 40.9733668,22.5912953 38.7774842,22.3230495 C36.5816016,22.0548037 34.7574446,21.8125992 33.3050132,21.596436 L15.075164,13.4821332 C14.7243058,13.3259625 14.3132777,13.4837878 14.157107,13.8346459 C14.1545417,13.8404091 14.152055,13.8462069 14.1496475,13.8520378 L12.9779387,16.6898873 L12.9779387,16.6898873 C10.9451257,17.6368725 9.2932541,18.1103652 8.02232389,18.1103652 C6.98951383,18.1103652 5.56311458,17.6938115 3.74312614,16.860704 L3.7431166,16.8607249 C3.04473102,16.5410359 2.21941854,16.8480302 1.89972957,17.5464157 C1.88615294,17.5760749 1.87362398,17.6062026 1.86216594,17.6367429 Z" transform="rotate(50 -97.303 88.212)"/>
          <path fill="#C1C1C1" d="M1.86216594,17.6367429 C1.08430556,19.71005 0.695375368,21.2613786 0.695375368,22.2907286 C0.695375368,23.5427368 0.904276006,25.3697281 1.32207728,27.7717026 C2.77675983,27.7717026 15.8502368,27.7717026 40.5425082,27.7717026 C41.5617082,24.407513 40.9733668,22.5912953 38.7774842,22.3230495 C36.5816016,22.0548037 34.7574446,21.8125992 33.3050132,21.596436 L15.075164,13.4821332 C14.7243058,13.3259625 14.3132777,13.4837878 14.157107,13.8346459 C14.1545417,13.8404091 14.152055,13.8462069 14.1496475,13.8520378 L12.9779387,16.6898873 L12.9779387,16.6898873 C10.9451257,17.6368725 9.2932541,18.1103652 8.02232389,18.1103652 C6.98951383,18.1103652 5.56311458,17.6938115 3.74312614,16.860704 L3.7431166,16.8607249 C3.04473102,16.5410359 2.21941854,16.8480302 1.89972957,17.5464157 C1.88615294,17.5760749 1.87362398,17.6062026 1.86216594,17.6367429 Z" transform="translate(144.638 138.164)"/>
          <polygon fill="#73899D" points="116.128 151.656 159.105 146.999 127.254 0 88.761 0"/>
          <path fill="#A9CCDC" d="M30.2209843,110.323421 L58.4115309,143.639384 C88.1040263,111.260357 105.414829,90.1330352 110.343938,80.2574201 C115.273047,70.381805 119.704065,43.6293316 123.636993,0 L80.3006582,0 C78.1522936,38.3831829 76.7041463,58.467853 75.9562163,60.2540103 C75.2082864,62.0401676 59.9632091,78.7299713 30.2209843,110.323421 Z"/>
        </g>
        <g transform="rotate(3 -778.31 192.382)">
          <path fill="#F1C0A6" d="M42.3008491,92.0540997 L59.462728,95.456624 C42.7213067,126.632049 33.5102843,143.594615 31.8296607,146.344322 L31.7353087,146.49628 C31.721184,146.518586 31.7078597,146.53938 31.6953357,146.558665 C28.877441,150.897596 31.5065938,158.849591 32.4777919,163.037166 C29.7594871,163.669439 28.7322485,162.195648 27.7434764,160.539102 L27.5389097,160.194392 C26.3766649,158.233405 25.1106332,156.203536 21.0775741,157.204288 C19.6700606,157.553545 18.3053694,158.012213 16.9701742,158.474206 L16.3997148,158.672097 C11.281133,160.449379 6.5730562,162.050638 1.51075395,157.388024 C0.703964657,156.644934 0.113356745,154.322244 2.86411014,153.130948 C9.71724,150.162995 19.8421622,144.605562 21.4839192,142.447942 C23.7227481,139.505642 30.6617247,122.707695 42.3008491,92.0540997 Z M192.419855,8.9362242 C192.299558,9.44088794 192.181052,9.94898351 192.067297,10.4549613 L191.933262,11.060763 C191.079318,14.987249 190.586482,18.6498351 191.859573,19.4149505 C193.361167,20.3173943 195.73068,17.7767693 197.687627,19.430327 C198.992257,20.5326988 194.719106,24.0890053 184.868172,30.0992465 L169.894673,54.4933208 L156.399757,46.3830037 L179.954706,23.0838665 C183.019235,16.2385888 186.368777,10.6444852 190.003332,6.30155567 C191.21647,5.33179887 193.526586,4.29331778 192.419855,8.9362242 Z"/>
          <use fill="#0CBBCD" transform="rotate(-24 91.38 -123.583)" xlink:href="#voty_screen_vote_now-e"/>
          <path fill="#DDE3E9" d="M74.5377858,118.833474 C103.575493,118.833474 124.935021,118.833474 138.616371,118.833474 C141.544436,118.833474 140.992698,114.608724 140.569429,112.476892 C135.684387,87.8729743 116.615039,61.3511414 116.615039,26.3280837 L98.1317588,23.4319527 C82.8437113,48.0006955 77.5568394,78.2497924 74.5377858,118.833474 Z"/>
          <g transform="translate(21.775 23.432)">
            <mask id="voty_screen_vote_now-g" fill="#fff">
              <use xlink:href="#voty_screen_vote_now-f"/>
            </mask>
            <g mask="url(#voty_screen_vote_now-g)">
              <g transform="translate(-73.7 -5.858)">
                <g transform="translate(135.471)">
                  <mask id="voty_screen_vote_now-i" fill="#fff">
                    <use xlink:href="#voty_screen_vote_now-h"/>
                  </mask>
                  <polyline fill="#0CBBCD" points="40.515 -.001 27.01 -.001 0 -.001 0 27.002 0 40.503 0 67.506 0 94.508 0 108.01 0 135.012 27.01 135.012 40.515 135.012" mask="url(#voty_screen_vote_now-i)"/>
                </g>
                <path fill="#FEFEFE" d="M166.824072 12.1789538C166.219052 12.1789538 165.658598 12.362571 165.192679 12.6771506 164.417497 13.2009998 163.907011 14.0880331 163.907011 15.0952277 163.907011 16.1024222 164.417497 16.9894556 165.192679 17.5146549 165.658598 17.8292344 166.219052 18.0128517 166.824072 18.0128517 167.828837 18.0128517 168.71611 17.5025037 169.241451 16.7261808 169.554765 16.2603871 169.739783 15.6987343 169.739783 15.0952277 169.739783 14.4903709 169.554765 13.9300682 169.241451 13.4642745 168.71611 12.6879516 167.828837 12.1789538 166.824072 12.1789538M166.824072 89.9477424C166.219052 89.9477424 165.658598 90.1313596 165.192679 90.4459392 164.417497 90.9697884 163.907011 91.8581718 163.907011 92.8653664 163.907011 93.4742736 164.094729 94.0399767 164.416146 94.5084707L166.824072 94.5084707 169.230647 94.5084707C169.233348 94.5044203 169.2374 94.5003699 169.241451 94.4963196 169.554765 94.0291757 169.739783 93.4688731 169.739783 92.8653664 169.739783 92.2605096 169.554765 91.6988568 169.241451 91.2344132 168.71611 90.4580903 167.828837 89.9477424 166.824072 89.9477424M166.824072 70.5053765C166.219052 70.5053765 165.658598 70.6889937 165.192679 71.0035733 164.417497 71.5274225 163.907011 72.4158059 163.907011 73.4230005 163.907011 74.4288449 164.417497 75.3158782 165.192679 75.8410776 165.658598 76.1556571 166.219052 76.3379242 166.824072 76.3379242 167.828837 76.3379242 168.71611 75.8289264 169.241451 75.0526035 169.554765 74.5868098 169.739783 74.0265072 169.739783 73.4230005 169.739783 72.8181437 169.554765 72.2564909 169.241451 71.7920473 168.71611 71.0157244 167.828837 70.5053765 166.824072 70.5053765M147.376458 12.1789538C145.765322 12.1789538 144.459397 13.4845264 144.459397 15.0952277 144.459397 16.7072791 145.765322 18.0128517 147.376458 18.0128517 148.986244 18.0128517 150.293519 16.7072791 150.293519 15.0952277 150.293519 13.4845264 148.986244 12.1789538 147.376458 12.1789538M137.652651 2.45912095C136.780234 2.45912095 136.006402 2.84930759 135.471608 3.45551452L135.471608 7.29257488C136.006402 7.89878181 136.780234 8.28896845 137.652651 8.28896845 139.262437 8.28896845 140.569712 6.98474597 140.569712 5.37269457 140.569712 3.76469356 139.262437 2.45912095 137.652651 2.45912095M157.100265 2.45912095C155.489129 2.45912095 154.183204 3.76469356 154.183204 5.37269457 154.183204 6.98474597 155.489129 8.28896845 157.100265 8.28896845 158.7087 8.28896845 160.017326 6.98474597 160.017326 5.37269457 160.017326 3.76469356 158.7087 2.45912095 157.100265 2.45912095M147.376458 89.9477424C145.765322 89.9477424 144.459397 91.253315 144.459397 92.8653664 144.459397 94.4760677 145.765322 95.7816403 147.376458 95.7816403 148.986244 95.7816403 150.293519 94.4760677 150.293519 92.8653664 150.293519 91.253315 148.986244 89.9477424 147.376458 89.9477424M147.376458 70.5053765C145.765322 70.5053765 144.459397 71.8109491 144.459397 73.4230005 144.459397 75.0337017 145.765322 76.3379242 147.376458 76.3379242 148.986244 76.3379242 150.293519 75.0337017 150.293519 73.4230005 150.293519 71.8109491 148.986244 70.5053765 147.376458 70.5053765M137.652651 80.2284496C136.780234 80.2284496 136.006402 80.6186362 135.471608 81.2248432L135.471608 85.0619035C136.006402 85.6681105 136.780234 86.0582971 137.652651 86.0582971 139.262437 86.0582971 140.569712 84.7527245 140.569712 83.1420232 140.569712 81.5340222 139.262437 80.2284496 137.652651 80.2284496M157.100265 80.2284496C155.489129 80.2284496 154.183204 81.5340222 154.183204 83.1420232 154.183204 84.7527245 155.489129 86.0582971 157.100265 86.0582971 158.7087 86.0582971 160.017326 84.7527245 160.017326 83.1420232 160.017326 81.5340222 158.7087 80.2284496 157.100265 80.2284496M137.652651 60.7860837C136.780234 60.7860837 136.006402 61.1762703 135.471608 61.7824773L135.471608 65.6195376C136.006402 66.2257445 136.780234 66.6159312 137.652651 66.6159312 139.262437 66.6159312 140.569712 65.3103586 140.569712 63.7023576 140.569712 62.0916563 139.262437 60.7860837 137.652651 60.7860837M157.100265 60.7860837C155.489129 60.7860837 154.183204 62.0916563 154.183204 63.7023576 154.183204 65.3103586 155.489129 66.6159312 157.100265 66.6159312 158.7087 66.6159312 160.017326 65.3103586 160.017326 63.7023576 160.017326 62.0916563 158.7087 60.7860837 157.100265 60.7860837M166.824072 128.832339C166.219052 128.832339 165.658598 129.015956 165.192679 129.330536 164.417497 129.854385 163.907011 130.742769 163.907011 131.748613 163.907011 132.755808 164.417497 133.644191 165.192679 134.16804 165.658598 134.48397 166.219052 134.666237 166.824072 134.666237 167.828837 134.666237 168.71611 134.155889 169.241451 133.380916 169.554765 132.913773 169.739783 132.35347 169.739783 131.748613 169.739783 131.145106 169.554765 130.583454 169.241451 130.11901 168.71611 129.342687 167.828837 128.832339 166.824072 128.832339M166.824072 109.389973C166.219052 109.389973 165.658598 109.573591 165.192679 109.88817 164.417497 110.412019 163.907011 111.300403 163.907011 112.306247 163.907011 113.313442 164.417497 114.200475 165.192679 114.725674 165.658598 115.040254 166.219052 115.222521 166.824072 115.222521 167.828837 115.222521 168.71611 114.713523 169.241451 113.9372 169.554765 113.471407 169.739783 112.911104 169.739783 112.306247 169.739783 111.70274 169.554765 111.141088 169.241451 110.676644 168.71611 109.900321 167.828837 109.389973 166.824072 109.389973M147.376458 128.832339C145.765322 128.832339 144.459397 130.137912 144.459397 131.748613 144.459397 133.360664 145.765322 134.666237 147.376458 134.666237 148.986244 134.666237 150.293519 133.360664 150.293519 131.748613 150.293519 130.137912 148.986244 128.832339 147.376458 128.832339M147.376458 109.389973C145.765322 109.389973 144.459397 110.695546 144.459397 112.306247 144.459397 113.918299 145.765322 115.222521 147.376458 115.222521 148.986244 115.222521 150.293519 113.918299 150.293519 112.306247 150.293519 110.695546 148.986244 109.389973 147.376458 109.389973M137.652651 119.113181C136.780234 119.113181 136.006402 119.503368 135.471608 120.109575L135.471608 123.946635C136.006402 124.552842 136.780234 124.943029 137.652651 124.943029 139.262437 124.943029 140.569712 123.637456 140.569712 122.026755 140.569712 120.418754 139.262437 119.113181 137.652651 119.113181M157.100265 119.113181C155.489129 119.113181 154.183204 120.418754 154.183204 122.026755 154.183204 123.637456 155.489129 124.943029 157.100265 124.943029 158.7087 124.943029 160.017326 123.637456 160.017326 122.026755 160.017326 120.418754 158.7087 119.113181 157.100265 119.113181M137.652651 99.6708155C136.780234 99.6708155 136.006402 100.061002 135.471608 100.667209L135.471608 104.504269C136.006402 105.110476 136.780234 105.500663 137.652651 105.500663 139.262437 105.500663 140.569712 104.19509 140.569712 102.587089 140.569712 100.976388 139.262437 99.6708155 137.652651 99.6708155M157.100265 99.6708155C155.489129 99.6708155 154.183204 100.976388 154.183204 102.587089 154.183204 104.19509 155.489129 105.500663 157.100265 105.500663 158.7087 105.500663 160.017326 104.19509 160.017326 102.587089 160.017326 100.976388 158.7087 99.6708155 157.100265 99.6708155M166.824072 51.0636856C166.219052 51.0636856 165.658598 51.2473029 165.192679 51.5618824 164.417497 52.0857316 163.907011 52.9727649 163.907011 53.9799595 163.907011 54.9871541 164.417497 55.8741874 165.192679 56.3993867 165.658598 56.7139663 166.219052 56.8975835 166.824072 56.8975835 167.828837 56.8975835 168.71611 56.3872356 169.241451 55.6109127 169.554765 55.1451189 169.739783 54.5834662 169.739783 53.9799595 169.739783 53.3751027 169.554765 52.8148001 169.241451 52.3490063 168.71611 51.5726834 167.828837 51.0636856 166.824072 51.0636856M147.376458 51.0636856C145.765322 51.0636856 144.459397 52.3692582 144.459397 53.9799595 144.459397 55.5906608 145.765322 56.8975835 147.376458 56.8975835 148.986244 56.8975835 150.293519 55.5906608 150.293519 53.9799595 150.293519 52.3692582 148.986244 51.0636856 147.376458 51.0636856M147.376458 31.6213197C145.765322 31.6213197 144.459397 32.9268923 144.459397 34.5375936 144.459397 36.1482948 145.765322 37.4538675 147.376458 37.4538675 148.986244 37.4538675 150.293519 36.1482948 150.293519 34.5375936 150.293519 32.9268923 148.986244 31.6213197 147.376458 31.6213197M137.652651 41.3438528C136.780234 41.3438528 136.006402 41.7340394 135.471608 42.3402464L135.471608 46.1773067C136.006402 46.7835136 136.780234 47.1737003 137.652651 47.1737003 139.262437 47.1737003 140.569712 45.8694778 140.569712 44.2574264 140.569712 42.6494254 139.262437 41.3438528 137.652651 41.3438528M157.100265 41.3438528C155.489129 41.3438528 154.183204 42.6494254 154.183204 44.2574264 154.183204 45.8694778 155.489129 47.1737003 157.100265 47.1737003 158.7087 47.1737003 160.017326 45.8694778 160.017326 44.2574264 160.017326 42.6494254 158.7087 41.3438528 157.100265 41.3438528M137.652651 21.9014869C136.780234 21.9014869 136.006402 22.2916735 135.471608 22.8978804L135.471608 26.7349408C136.006402 27.3411477 136.780234 27.7313344 137.652651 27.7313344 139.262437 27.7313344 140.569712 26.4271119 140.569712 24.8177607 140.569712 23.2070595 139.262437 21.9014869 137.652651 21.9014869M157.100265 21.9014869C155.489129 21.9014869 154.183204 23.2070595 154.183204 24.8177607 154.183204 26.4271119 155.489129 27.7313344 157.100265 27.7313344 158.7087 27.7313344 160.017326 26.4271119 160.017326 24.8177607 160.017326 23.2070595 158.7087 21.9014869 157.100265 21.9014869"/>
                <polyline fill="#302A36" points=".422 405.037 .422 270.025 135.471 270.025 135.471 405.037"/>
                <polyline fill="#E52A41" points=".422 405.037 .422 270.025 27.432 270.025 27.432 405.037"/>
                <polyline fill="#0CBBCD" points="54.442 405.037 54.442 270.025 81.452 270.025 81.452 405.037"/>
                <polygon fill="#0CBBCD" points="135.471 270.025 135.471 202.518 67.947 270.025"/>
                <polygon fill="#302A36" points=".422 135.013 135.471 135.013 135.471 0 .422 0"/>
                <polygon fill="#0CBBCD" points="135.471 135.013 67.928 135.013 .422 67.485 .438 0"/>
                <polygon fill="#0CBBCD" points="136.309 -.001 136.309 67.506 68.784 -.001"/>
              </g>
            </g>
          </g>
        </g>
      </g>
      <g transform="translate(0 3.466)">
        <g transform="translate(59.136)">
          <path fill="#F1C0A6" d="M27.5077252,6.59515995 C31.6867524,14.3941143 31.1901754,34.1768087 25.789155,35.5706994 C23.6352097,36.1265878 19.0466363,34.7648608 14.3765671,31.9465173 L17.3080119,52.7096794 L0,52.7096794 L5.95881062,24.9039978 C2.63555648,20.9985361 0.386269782,16.2122865 0.762112389,10.849135 C1.84498374,-4.60308618 23.328698,-1.20379439 27.5077252,6.59515995 Z" transform="translate(38.943 22.384)"/>
          <path fill="#191847" d="M59.6141981,20.4845528 C57.2491725,19.7625024 53.8159863,19.517632 52.3717469,19.6832848 C53.1932961,17.7125058 53.5192989,15.5168208 53.2535279,13.3789339 C52.99521,11.3015806 52.0681033,9.53277458 51.210669,7.67927957 C50.8154354,6.82493968 50.3675335,5.97525622 49.6997384,5.3217834 C49.0194664,4.65602923 48.1583331,4.21657793 47.2553523,4.00692182 C46.331282,3.79231825 45.3650328,3.81018733 44.4395271,4.00494284 C44.0301052,4.09108693 43.6627516,4.27850855 43.2612244,4.38269634 C42.8500357,4.48944517 42.6505695,4.23176955 42.3521154,3.97281342 C41.6328665,3.34885077 40.5784503,3.04082742 39.6685133,2.93058626 C38.6476083,2.80695784 37.5882786,2.96114413 36.6146316,3.29716431 C35.6669323,3.62427906 34.7564984,4.15546218 34.0713128,4.92930391 C33.7662338,5.27376389 33.4893108,5.66583594 33.309333,6.09871002 C33.23552,6.27635312 33.2233191,6.38158861 33.0462672,6.44666232 C32.8825205,6.50690499 32.6910042,6.50865115 32.5220128,6.56598354 C30.8879685,7.12009962 29.4908767,8.38420603 28.7301667,10.0072656 C28.2863502,10.9541522 28.0761184,12.6212848 28.1337003,14.4898666 C28.1912821,16.3584483 29.8764489,21.2341113 31.45258,23.0125213 C32.8594436,24.5999009 34.9273669,25.6474247 36.9230783,26.1059674 C35.5984193,27.6219289 34.7166383,29.5162842 34.0645774,31.4428852 C33.3563149,33.5356629 32.917964,35.7101611 32.7560944,37.9257523 C32.6023403,40.0308114 32.5880966,42.2569378 33.080993,44.3170622 C33.5420896,46.2436051 34.5281584,47.8240582 36.1742932,48.8267057 C36.928323,49.286005 37.7396035,49.6310471 38.5555767,49.9464043 C39.3597354,50.2571633 40.1663232,50.5593079 41.0086857,50.7336915 C42.602925,51.0636001 44.4398584,51.0069662 45.6679035,49.7364572 C46.1105055,49.2784383 46.5972738,48.7029026 46.9201849,48.1433734 C47.0362872,47.9421571 47.1062909,47.8105546 46.9652346,47.6138783 C46.7962431,47.3783207 46.5229087,47.1978256 46.3058311,47.0135471 C45.0679038,45.9628801 44.3016177,44.5602447 44.1084452,42.8933564 C43.9124571,41.2020801 44.366211,39.0190839 46.0085364,38.2809803 C48.0358267,37.3698319 50.2684353,38.4156678 52.0703116,39.3905512 C52.8361008,36.6844625 54.4084777,34.2479233 56.8736773,33.0066334 C59.6010041,31.6333917 62.7305759,31.4726864 65.5333167,30.2944331 C66.2636624,29.9873992 67.007534,29.6388649 67.5452592,29.0132725 C67.7699555,28.7518135 68.0335733,28.4126502 68.1232862,28.0668515 C68.2411551,27.612616 67.9485531,27.2317776 67.7225319,26.8776556 C66.5240782,25.0000053 61.9792237,21.2066032 59.6141981,20.4845528 Z"/>
        </g>
        <g transform="translate(0 135.023)">
          <polygon fill="#F1C0A6" points="92.309 0 118.726 91.142 131.152 159.573 143.623 159.573 131.174 0"/>
          <polygon fill="#000" fill-opacity=".1" points="92.309 0 118.726 91.142 131.152 159.573 143.623 159.573 131.174 0"/>
          <path fill="#F1C0A6" d="M80.4373462,0 C82.2806333,47.3478952 81.5536677,73.1727238 81.141118,77.4744859 C80.7285683,81.7762481 78.3864932,110.586567 62.4268887,161.01724 L75.3980071,161.01724 C96.5338785,112.637626 103.912209,83.8273072 106.336333,77.4744859 C108.760458,71.1216646 115.919979,45.296836 126.372563,0 L80.4373462,0 Z"/>
          <path fill="#64717D" d="M91.7422987,8.2087627e-14 C98.6137612,31.3622775 110.498446,81.4244388 127.396354,150.186484 L145.636866,150.186484 C146.984136,79.608821 141.252913,33.1569117 131.327867,8.2087627e-14 L91.7422987,8.2087627e-14 Z"/>
          <path fill="#73899D" d="M80.3451748,0 C82.1504334,47.3478952 77.4719912,93.9945399 62.9798944,150.923667 L82.4415173,150.923667 C103.616246,103.266103 118.792856,56.8496424 129.16506,0 L80.3451748,0 Z"/>
          <path fill="#191847" d="M0,26.7158649 L0.71570264,15.1630585 C4.90604099,16.3901291 10.154527,15.9087621 16.4611607,13.7189577 C23.2425144,18.5283977 31.7794039,21.8123728 42.0718293,23.570883 C42.8570065,23.7050684 43.3847711,24.4503368 43.2506188,25.2355196 C43.241973,25.2861228 43.2306317,25.3362284 43.2166432,25.3856223 L42.2264558,28.8820161 L42.2264558,28.8820161 L16.4611607,28.8820161 L1.43140528,28.8820161 L0,26.7158649 Z" transform="translate(60.578 143.688)"/>
          <path fill="#191847" d="M0,26.7158649 L0.71570264,15.1630585 C4.90604099,16.3901291 10.154527,15.9087621 16.4611607,13.7189577 C23.2425144,18.5283977 31.7794039,21.8123728 42.0718293,23.570883 C42.8570065,23.7050684 43.3847711,24.4503368 43.2506188,25.2355196 C43.241973,25.2861228 43.2306317,25.3362284 43.2166432,25.3856223 L42.2264558,28.8820161 L42.2264558,28.8820161 L16.4611607,28.8820161 L1.43140528,28.8820161 L0,26.7158649 Z" transform="translate(128.368 143.688)"/>
        </g>
        <g transform="translate(15.145 -2.888)">
          <path fill="#F1C0A6" d="M27.8345766,147.17268 L41.4812558,154.766175 L28.0166794,179.711815 C27.7579583,191.157142 26.8326084,196.591487 25.2406299,196.01485 C22.8526621,195.149894 23.8528859,191.855183 22.3344051,191.010246 C20.8819452,190.202046 17.3858777,193.151488 14.0845791,196.252636 L13.6358195,196.676122 C10.2078079,199.924861 9.95068926,197.424371 10.1792388,195.901298 C12.0954572,190.626998 15.224988,184.978833 19.567831,178.956805 L19.567831,178.956805 L27.8345766,147.17268 Z M151.271342,13.7204369 C151.239368,14.0059523 151.208174,14.2926009 151.178274,14.5790439 L151.120351,15.1512587 C150.766367,18.7685233 150.675081,22.2095564 151.89298,22.7531029 C153.271129,23.3681687 155.029467,20.943459 156.875677,22.153922 C158.106484,22.9608973 154.827825,26.4554326 147.039701,32.6375279 L136.804163,55.1014395 L124.418657,49.5738063 L142.103524,27.1459333 C144.003791,20.9617698 146.279052,15.8191437 148.929307,11.718055 C149.864297,10.7601089 151.729629,9.6280498 151.271342,13.7204369 Z"/>
          <use fill="#0061AA" transform="rotate(-90 89.627 18.065)" xlink:href="#voty_screen_vote_now-j"/>
          <path fill="#323337" d="M64.9050445,149.464433 C87.5773329,151.871268 105.422911,151.871268 118.441778,149.464433 C120.054729,149.166243 120.309193,146.462428 119.561189,144.627393 C107.912824,116.05112 99.9251395,91.1167149 99.9251395,71.2682791 C97.7878111,72.3471313 94.0472849,72.5088108 88.7035608,71.7533176 C74.3423834,92.2077688 67.7410616,115.676911 64.9050445,149.464433 Z"/>
          <g transform="translate(20.764 69.317)">
            <mask id="voty_screen_vote_now-l" fill="#fff">
              <use xlink:href="#voty_screen_vote_now-k"/>
            </mask>
            <g mask="url(#voty_screen_vote_now-l)">
              <g transform="translate(.87 -25.272)">
                <g transform="translate(0 .673)">
                  <mask id="voty_screen_vote_now-n" fill="#fff">
                    <use xlink:href="#voty_screen_vote_now-m"/>
                  </mask>
                  <path fill="#0671B5" d="M117.743448,169.683 L117.743448,169.683 C104.737919,169.683 94.1951766,159.127345 94.1951766,146.105888 L94.1951766,0.0488106073 L-7.21167161e-05,0.0488106073 L-7.21167161e-05,185.566665 L0.109545292,185.566665 L0.109545292,116.443336 C0.109545292,90.4372462 21.1373374,69.3490422 47.0971917,69.289834 L47.0971917,69.2883899 L47.0971917,39.8294555 C47.0971917,26.8079986 57.6406556,16.2523437 70.6461842,16.2523437 C83.6517127,16.2523437 94.1951766,26.8079986 94.1951766,39.8294555 L94.1951766,108.728949 C94.1951766,109.813469 94.1201753,110.879937 93.9788265,111.925466 C94.1201753,113.412168 94.1951766,114.919087 94.1951766,116.443336 L94.1951766,185.566665 L141.29244,185.566665 L141.29244,146.105888 C141.29244,159.127345 130.748977,169.683 117.743448,169.683" mask="url(#voty_screen_vote_now-n)"/>
                </g>
                <path fill="#154EA2" d="M47.1525773,69.962063 C47.1706065,69.962063 47.1886357,69.9613409 47.207386,69.9613409 L47.207386,69.962785 C71.6462988,70.0183829 91.7106115,88.7108237 93.9786823,112.598417 C94.120031,111.552888 94.1950324,110.48642 94.1950324,109.4019 L94.1950324,40.5024065 C94.1950324,27.4809495 83.6515685,16.9252947 70.6460399,16.9252947 C57.6405113,16.9252947 47.0970474,27.4809495 47.0970474,40.5024065 L47.0970474,69.9613409 L47.0977686,69.9613409 C47.1157978,69.9613409 47.133827,69.962063 47.1525773,69.962063"/>
                <path fill="#0061AA" stroke="#0061AA" stroke-width=".721" d="M47.0972638,69.962785 C21.1366883,70.0219931 0.109617409,91.1101972 0.109617409,117.116287 L0.109617409,186.239616 L47.0972638,186.239616 L47.0972638,109.4019 L47.0972638,69.962785 Z"/>
                <path fill="#00A5D3" stroke="#00A5D3" stroke-width=".721" d="M93.9787544,112.598273 C92.4203121,124.107034 82.5684476,132.97959 70.646112,132.97959 C58.4086265,132.97959 48.3526716,123.633369 47.2074581,111.681269 L47.2074581,186.239471 L94.1951045,186.239471 L94.1951045,117.116142 C94.1951045,115.591894 94.1201031,114.085697 93.9787544,112.598273"/>
                <path fill="#0671B5" stroke="#0671B5" stroke-width=".721" d="M47.2074581,69.962785 L47.2074581,111.681413 C48.3526716,123.633514 58.4086265,132.979012 70.646112,132.979012 C82.5684476,132.979012 92.4203121,124.107179 93.9787544,112.598417 C91.7099625,88.7108237 71.6463709,70.0183829 47.2074581,69.962785"/>
              </g>
            </g>
          </g>
        </g>
      </g>
    </g>
  </g>
</svg>
