<svg xmlns="http://www.w3.org/2000/svg" width="472" height="472" viewBox="0 0 472 472">
  <defs>
    <filter id="icon_fireworks-finale-a" width="104.6%" height="104.6%" x="-2.3%" y="-2.3%" filterUnits="objectBoundingBox">
      <feOffset dx="-2" dy="2" in="SourceAlpha" result="shadowOffsetOuter1"/>
      <feGaussianBlur in="shadowOffsetOuter1" result="shadowBlurOuter1" stdDeviation="1.5"/>
      <feColorMatrix in="shadowBlurOuter1" result="shadowMatrixOuter1" values="0 0 0 0 0   0 0 0 0 0   0 0 0 0 0  0 0 0 0.5 0"/>
      <feMerge>
        <feMergeNode in="shadowMatrixOuter1"/>
        <feMergeNode in="SourceGraphic"/>
      </feMerge>
    </filter>
  </defs>
  <g fill="none" fill-rule="evenodd" stroke-linecap="round" stroke-linejoin="round" stroke-width="22.149" filter="url(#icon_fireworks-finale-a)" transform="translate(8 8)">
    <g transform="translate(26 26)">
      <path stroke="#000" d="M0 276.5C0 302.181241 20.8187591 323 46.5 323 72.1812409 323 93 302.181241 93 276.5 93 250.818759 72.1812409 230 46.5 230 20.8187591 230 0 250.818759 0 276.5zM311 276.5C311 293.11285 319.862849 308.463756 334.25 316.770181 348.63715 325.076606 366.36285 325.076606 380.75 316.770181 395.137151 308.463756 404 293.11285 404 276.5 404 259.88715 395.137151 244.536244 380.75 236.229819 366.36285 227.923394 348.63715 227.923394 334.25 236.229819 319.862849 244.536244 311 259.88715 311 276.5L311 276.5zM156 276.5C156 302.181241 176.818759 323 202.5 323 228.181241 323 249 302.181241 249 276.5 249 250.818759 228.181241 230 202.5 230 176.818759 230 156 250.818759 156 276.5zM125 404C116.134986 379.957359 96.5940183 361.392098 72.1126215 353.753359 47.6312247 346.11462 20.9868639 350.269033 0 364.997226M279 404C287.861787 379.95823 307.402225 361.392572 331.884624 353.75354 356.367023 346.114508 383.013067 350.268995 404 364.997325"/>
      <path stroke="#000" d="M280 404C267.981687 371.541292 237.065944 350 202.5 350 167.934056 350 137.018313 371.541292 125 404M243 188C243 188 256.4 121.333333 310 108"/>
      <line x1="350" x2="404" y1="95" y2="95" stroke="#DB2A1B"/>
      <line x1="377" x2="377" y1="68" y2="122" stroke="#DB2A1B"/>
      <path stroke="#000" d="M161,188 C161,188 147.6,121.333333 94,108"/>
      <line x1="54" y1="95" y2="95" stroke="#96CB6A"/>
      <line x1="27" x2="27" y1="68" y2="122" stroke="#96CB6A"/>
      <line x1="178" x2="232" y1="27" y2="27" stroke="#E77A2D"/>
      <line x1="205" x2="205" y2="54" stroke="#E77A2D"/>
      <line x1="205" x2="205" y1="191" y2="111" stroke="#000"/>
    </g>
  </g>
</svg>
