<svg xmlns="http://www.w3.org/2000/svg" xmlns:xlink="http://www.w3.org/1999/xlink" width="547" height="532" viewBox="0 0 547 532">
  <defs>
    <path id="voty_screen_vote_yeah-a" d="M45.0738996,27.7293216 C50.4037801,27.6865905 55.2308416,30.8679204 57.2913293,35.7777229 C59.351817,40.6875254 58.2327775,46.3536683 54.4648451,50.1182775 C50.6947731,53.8828868 45.0204082,54.9981683 40.1034812,52.9406662 C35.1844145,50.8853006 32.0006079,46.0652334 32.0412614,40.7409393 C32.0990321,33.5770716 37.8996366,27.7848721 45.0738996,27.7293216 Z"/>
    <path id="voty_screen_vote_yeah-b" d="M97.1988894,27.7293216 C102.52877,27.6865905 107.357971,30.8679204 109.416319,35.7777229 C111.476807,40.6875254 110.357767,46.3536683 106.589835,50.1182775 C102.819763,53.8828868 97.145398,54.9981683 92.228471,52.9406662 C87.3094043,50.8853006 84.1255977,46.0652334 84.1662512,40.7409393 C84.2240219,33.5770716 90.0246264,27.7848721 97.1988894,27.7293216 Z"/>
    <path id="voty_screen_vote_yeah-c" d="M149.323665,27.7293216 C154.653546,27.6865905 159.482747,30.8679204 161.541095,35.7777229 C163.601583,40.6875254 162.482543,46.3536683 158.714611,50.1182775 C154.944539,53.8828868 149.270174,54.9981683 144.353247,52.9406662 C139.43632,50.8853006 136.250374,46.0652334 136.291027,40.7409393 C136.348798,33.5770716 142.149402,27.7848721 149.323665,27.7293216 Z"/>
    <path id="voty_screen_vote_yeah-d" d="M217.194331,59.6124173 C217.194331,64.0300451 212.861643,67.6108031 207.516006,67.6102641 L183.163453,67.2590776 L171.639474,85.3068602 L155.636096,67.0238146 L130.082945,67.6024565 C124.737308,67.6019175 120.403451,64.0202856 120.403005,59.6026578 L120.398158,11.6097213 C120.398158,7.19209352 124.730846,3.61187454 130.076483,3.61187454 L207.509544,3.61968214 C212.855182,3.62022114 217.189039,7.20185301 217.189485,11.6194808 L217.194331,59.6124173 Z"/>
    <path id="voty_screen_vote_yeah-e" d="M68.882339,0.00946470653 L94.6092673,1.80846678 C96.7142436,1.95566107 98.3013395,3.78140607 98.1541452,5.88638239 L97.4668842,15.6740551 C96.4935654,76.6095213 131.716259,92.1440076 123.873379,116.578393 C117.398718,136.750111 55.4255354,158.434624 44.7014586,138.661579 C40.3598326,130.656492 38.3903778,120.974651 38.1674064,110.448419 C35.4274084,118.536282 33.2592268,125.498323 31.6643832,131.335129 C28.9135309,141.402694 18.2490639,143.002979 18.2490639,146.881366 L18.2490639,146.881366 L4.19877908,143.002979 C5.15177679,137.734028 -1.47186694,135.168363 0.304104641,123.397069 C8.26144339,70.6551326 29.6412831,32.4240568 64.4436238,8.70384106 L64.8044234,3.55434266 C64.9516177,1.44936635 66.7773627,-0.137729577 68.882339,0.00946470653 Z"/>
    <path id="voty_screen_vote_yeah-g" d="M5.93109082,11.7767411 L17.6086978,4.13860768 C48.2222548,26.2578957 68.0812209,70.0751479 99.4925804,96.9355965 L91.7789698,109.370401 C36.795743,86.0537973 -3.26004443,59.7786794 5.93109082,11.7767411 Z"/>
    <path id="voty_screen_vote_yeah-i" d="M60.7985256,3.89419164 C61.7175166,3.89419164 62.5387414,3.9671268 63.2622002,4.11299711 L68.5420965,4.41478659 C87.8217639,69.8181776 93.1389812,113.454302 84.4937482,135.323159 L84.4937482,135.323159 L26.8941352,135.324515 C23.4240372,143.423713 20.1034387,150.238096 16.9323397,155.767666 L16.9323397,155.767666 L0.972620303,155.767666 C-0.529430884,107.155025 11.0174256,65.895011 35.6131896,31.9876229 C32.4955529,31.0924536 30.0262819,29.000234 28.2059888,25.712559 C20.3604026,11.5424578 23.1938109,3.74076751 31.5782544,1.17630786 C39.9626979,-1.38815179 47.4398658,3.89419164 60.7985256,3.89419164 Z"/>
    <polygon id="voty_screen_vote_yeah-k" points="0 .274 106.714 .274 106.714 107.09 0 107.09"/>
    <polygon id="voty_screen_vote_yeah-m" points="0 .246 106.714 .246 106.714 107.062 0 107.062"/>
    <polygon id="voty_screen_vote_yeah-o" points=".028 .274 106.743 .274 106.743 107.09 .028 107.09"/>
    <polygon id="voty_screen_vote_yeah-q" points=".028 .246 106.743 .246 106.743 107.062 .028 107.062"/>
    <polygon id="voty_screen_vote_yeah-s" points="0 .246 213.73 .246 213.73 214.18 0 214.18"/>
  </defs>
  <g fill="none" fill-rule="evenodd" transform="translate(7)">
    <g transform="translate(5.48 50.28)">
      <g transform="matrix(-1 0 0 1 84.2 0)">
        <path fill="#69A1AC" d="M65.4275078,0.422256238 C63.2445,-0.054643289 60.8341235,-0.018143646 58.6104662,0.0211972866 C46.6849987,0.183369353 34.9743924,5.82944886 27.3528497,14.8509804 C20.864577,22.5312047 19.0804695,32.0799047 17.7986727,41.7324211 C17.6715875,42.6908099 17.6170904,43.643079 17.5453956,44.6034349 C17.5299845,44.8095377 17.5069796,44.9933473 17.4824113,45.1664474 C16.9783138,45.6171196 16.7138693,46.1425396 17.0122628,46.7197585 C15.9017743,49.1499354 14.9623707,51.6417463 14.1563061,54.211802 C11.7838988,61.7766262 9.3706187,69.4852634 10.857226,77.44 C11.2045329,73.062447 11.9351057,68.5861046 12.8088449,64.280458 C12.8590983,64.0332659 12.9133719,63.7880407 12.9698791,63.5436898 C12.9756861,63.5178996 12.9810465,63.4921095 12.9868536,63.4665379 C13.2961912,62.1479609 13.6982184,60.8689435 14.1871282,59.6100337 C14.1922652,59.5962643 14.1971789,59.5827136 14.2025392,59.5691628 C14.2670869,59.4034938 14.3356549,59.238699 14.4033295,59.0739042 C14.543369,58.7327309 14.6872054,58.3922132 14.8397524,58.0534441 C14.8913459,57.938044 14.9409292,57.8215512 14.9885024,57.704184 C15.700314,55.9596322 16.000941,53.993897 16.6386008,52.1888038 C16.7911478,51.7783468 16.9506186,51.3694196 17.1176833,50.9626781 C17.1275106,50.938855 17.1375613,50.9150319 17.147612,50.8912088 C17.5992226,49.7966566 18.098183,48.7154366 18.6257321,47.6455818 C18.9125115,47.4300809 19.0657285,46.8954814 19.3129753,46.4096208 C19.3641221,46.3138912 19.7639158,45.6754753 19.8829605,45.3076376 C20.1936382,44.7065956 20.5031992,44.105335 20.8161104,43.5053858 C20.8067298,43.5088827 20.7973491,43.5123797 20.7879685,43.5158767 C21.101103,42.9397506 21.4151309,42.3660287 21.726702,41.7947109 C21.79527,41.669257 21.864508,41.5435846 21.9335227,41.4176936 C22.0454203,41.2172734 22.1573179,41.0170718 22.2689921,40.8173073 C23.3135928,38.9479573 24.4211778,37.1159812 25.5714224,35.3067354 C25.9819368,34.661107 26.9626599,33.7352837 27.1507193,33.0103178 C27.1576431,32.9832162 27.1592066,32.9583003 27.1634502,32.9322916 C29.6593692,29.4267959 32.5327471,26.1934084 35.9785671,23.6314394 C35.5620222,24.0816745 34.6766689,25.6096327 34.4425997,25.9121207 C33.7263212,26.8383811 32.9486219,27.7006032 32.1680191,28.5733162 C30.7700811,30.1366812 29.4051986,31.7496594 28.1924165,33.4553074 C25.9745663,36.5746063 24.0611401,39.8573885 22.2524643,43.2061761 C22.2352665,43.2258466 22.2165052,43.2444243 22.2002008,43.2645318 C21.2911726,44.3850927 20.7189538,46.0787199 20.0645428,47.3605786 C22.6542682,46.1611173 25.5178188,45.3797627 28.1756654,44.3147162 C30.8261415,43.2529481 33.4044761,42.0705345 35.8936947,40.6820182 C39.2021554,38.8367099 42.6341278,36.7531704 45.7601128,34.3953372 C49.3423987,32.1732301 52.3526892,29.1146912 55.0098658,25.9051268 C58.1537186,22.107634 61.0349137,18.2769199 62.8167877,13.6659441 C63.6920903,11.4001249 64.3806736,9.03748336 64.7889546,6.64730314 C64.8068225,6.54304967 64.829604,6.43005377 64.8543957,6.31268665 C65.2720573,5.48718275 65.6454959,4.64310119 65.9588538,3.77956771 C66.4564742,2.41006614 67.6317338,0.903526981 65.4275078,0.422256238"/>
        <path fill="#C1DEE2" d="M81.910753,30.4803475 C79.3863898,28.7685741 76.0294737,28.32 73.0086036,28.32 C61.2096519,28.32 50.1191856,32.6976311 40.5383271,39.2203959 C35.2884931,42.7944663 30.592119,47.3459025 26.4458962,52.0847441 C24.0526903,54.820216 21.9187267,57.779514 20.4079372,61.0707476 C19.3884556,63.2921804 18.6887141,65.6067396 18.2144212,67.9941402 C17.6363841,70.9036478 17.1772156,73.8721663 16.9694909,76.8300812 C16.8877244,77.9948524 16.2109059,84.1755391 18.1475428,84.280191 C18.1364358,84.4325587 18.1338363,84.5777805 18.1456522,84.7080191 C13.940586,91.2831099 11.3424912,98.9888563 8.93321563,106.294666 C6.83706314,112.652155 4.96919512,119.063353 3.75664061,125.640287 C2.16030351,134.299196 1.11175462,143.088343 0.613120827,151.871728 C0.506068169,153.759381 0.432572856,155.647956 0.369239274,157.538145 C0.315594785,159.150338 0.261241338,160.76253 0.208305807,162.374723 C0.149225974,164.181467 -0.16885985,166.261597 0.11850446,168.057737 C0.368530316,169.621983 1.72240378,169.385249 1.78219257,167.828609 C1.85450629,165.948793 1.84269032,164.065289 1.92492945,162.184091 C2.0343453,159.687428 2.14706963,157.190765 2.26924672,154.694794 C3.11976001,137.356 6.31054366,120.272151 12.1991488,103.893896 C14.582193,97.2660184 17.3128629,90.9917442 20.8224413,84.8606173 C23.9080629,79.4698911 27.6196944,74.2511261 31.413565,69.3905748 C35.1010919,64.6671775 38.9349004,60.0530423 43.4530898,56.0511438 C47.1195842,52.8037073 51.15261,49.974648 55.2983601,47.3422143 C60.5640275,43.9988853 65.8195332,40.7366961 71.5233366,38.1701886 C74.488199,36.8362224 77.509069,35.6419459 80.4970907,34.3619192 C81.0347172,34.1316389 81.6111001,33.9082739 82.1281668,33.6415729 C83.8530616,32.7520316 83.2851862,31.4123027 81.910753,30.4803475"/>
        <path fill="#89C5CC" d="M37.6366082,88.04 C32.8511428,88.04 28.5928256,88.6618151 24.1835452,90.5635946 C20.3774505,92.2049427 16.9088552,94.3778144 13.5411984,96.7434531 C8.80420132,100.070534 5.07303237,103.942845 2.46130304,109.073581 C0.90097985,112.138707 -0.243583238,116.475965 0.804265603,119.819146 C2.03865066,123.756728 5.42787361,127.04073 9.89162519,126.346899 C12.651872,125.918286 15.182228,124.091133 17.280149,122.37146 C19.7898281,120.314118 21.7988165,117.840347 23.4576326,115.092873 C26.1636305,110.611148 27.7537461,105.544595 30.0524326,100.861401 C31.1431914,98.6387055 32.1972655,96.4001277 33.503686,94.2877404 C34.1504487,93.2416638 34.8390096,92.2055954 35.820159,91.4282178 C36.3450839,91.0124415 38.558395,90.2927199 37.7119786,89.3589094 C50.1218616,89.5218693 61.1157147,99.0527412 63.4979978,110.85004 C63.7198848,111.949639 63.8933034,113.058158 64.0765047,114.164501 C64.1921171,114.863119 64.1454275,117.439365 64.7699569,117.885601 C66.1473012,118.870106 65.5683497,115.879388 65.5092095,115.448817 C65.3564677,114.335947 65.1934986,113.223946 65.0225256,112.113904 C64.0922902,106.076119 61.4043011,100.463248 56.9216514,96.1573195 C51.7955739,91.2334926 44.8792825,88.04 37.6366082,88.04" transform="matrix(-1 0 0 1 66.08 0)"/>
      </g>
      <g transform="matrix(1 0 0 -1 440 312)">
        <path fill="#69A1AC" d="M77.4275078,0.422256238 C75.2445,-0.054643289 72.8341235,-0.018143646 70.6104662,0.0211972866 C58.6849987,0.183369353 46.9743924,5.82944886 39.3528497,14.8509804 C32.864577,22.5312047 31.0804695,32.0799047 29.7986727,41.7324211 C29.6715875,42.6908099 29.6170904,43.643079 29.5453956,44.6034349 C29.5299845,44.8095377 29.5069796,44.9933473 29.4824113,45.1664474 C28.9783138,45.6171196 28.7138693,46.1425396 29.0122628,46.7197585 C27.9017743,49.1499354 26.9623707,51.6417463 26.1563061,54.211802 C23.7838988,61.7766262 21.3706187,69.4852634 22.857226,77.44 C23.2045329,73.062447 23.9351057,68.5861046 24.8088449,64.280458 C24.8590983,64.0332659 24.9133719,63.7880407 24.9698791,63.5436898 C24.9756861,63.5178996 24.9810465,63.4921095 24.9868536,63.4665379 C25.2961912,62.1479609 25.6982184,60.8689435 26.1871282,59.6100337 C26.1922652,59.5962643 26.1971789,59.5827136 26.2025392,59.5691628 C26.2670869,59.4034938 26.3356549,59.238699 26.4033295,59.0739042 C26.543369,58.7327309 26.6872054,58.3922132 26.8397524,58.0534441 C26.8913459,57.938044 26.9409292,57.8215512 26.9885024,57.704184 C27.700314,55.9596322 28.000941,53.993897 28.6386008,52.1888038 C28.7911478,51.7783468 28.9506186,51.3694196 29.1176833,50.9626781 C29.1275106,50.938855 29.1375613,50.9150319 29.147612,50.8912088 C29.5992226,49.7966566 30.098183,48.7154366 30.6257321,47.6455818 C30.9125115,47.4300809 31.0657285,46.8954814 31.3129753,46.4096208 C31.3641221,46.3138912 31.7639158,45.6754753 31.8829605,45.3076376 C32.1936382,44.7065956 32.5031992,44.105335 32.8161104,43.5053858 C32.8067298,43.5088827 32.7973491,43.5123797 32.7879685,43.5158767 C33.101103,42.9397506 33.4151309,42.3660287 33.726702,41.7947109 C33.79527,41.669257 33.864508,41.5435846 33.9335227,41.4176936 C34.0454203,41.2172734 34.1573179,41.0170718 34.2689921,40.8173073 C35.3135928,38.9479573 36.4211778,37.1159812 37.5714224,35.3067354 C37.9819368,34.661107 38.9626599,33.7352837 39.1507193,33.0103178 C39.1576431,32.9832162 39.1592066,32.9583003 39.1634502,32.9322916 C41.6593692,29.4267959 44.5327471,26.1934084 47.9785671,23.6314394 C47.5620222,24.0816745 46.6766689,25.6096327 46.4425997,25.9121207 C45.7263212,26.8383811 44.9486219,27.7006032 44.1680191,28.5733162 C42.7700811,30.1366812 41.4051986,31.7496594 40.1924165,33.4553074 C37.9745663,36.5746063 36.0611401,39.8573885 34.2524643,43.2061761 C34.2352665,43.2258466 34.2165052,43.2444243 34.2002008,43.2645318 C33.2911726,44.3850927 32.7189538,46.0787199 32.0645428,47.3605786 C34.6542682,46.1611173 37.5178188,45.3797627 40.1756654,44.3147162 C42.8261415,43.2529481 45.4044761,42.0705345 47.8936947,40.6820182 C51.2021554,38.8367099 54.6341278,36.7531704 57.7601128,34.3953372 C61.3423987,32.1732301 64.3526892,29.1146912 67.0098658,25.9051268 C70.1537186,22.107634 73.0349137,18.2769199 74.8167877,13.6659441 C75.6920903,11.4001249 76.3806736,9.03748336 76.7889546,6.64730314 C76.8068225,6.54304967 76.829604,6.43005377 76.8543957,6.31268665 C77.2720573,5.48718275 77.6454959,4.64310119 77.9588538,3.77956771 C78.4564742,2.41006614 79.6317338,0.903526981 77.4275078,0.422256238"/>
        <path fill="#C1DEE2" d="M81.910753,42.4803475 C79.3863898,40.7685741 76.0294737,40.32 73.0086036,40.32 C61.2096519,40.32 50.1191856,44.6976311 40.5383271,51.2203959 C35.2884931,54.7944663 30.592119,59.3459025 26.4458962,64.0847441 C24.0526903,66.820216 21.9187267,69.779514 20.4079372,73.0707476 C19.3884556,75.2921804 18.6887141,77.6067396 18.2144212,79.9941402 C17.6363841,82.9036478 17.1772156,85.8721663 16.9694909,88.8300812 C16.8877244,89.9948524 16.2109059,96.1755391 18.1475428,96.280191 C18.1364358,96.4325587 18.1338363,96.5777805 18.1456522,96.7080191 C13.940586,103.28311 11.3424912,110.988856 8.93321563,118.294666 C6.83706314,124.652155 4.96919512,131.063353 3.75664061,137.640287 C2.16030351,146.299196 1.11175462,155.088343 0.613120827,163.871728 C0.506068169,165.759381 0.432572856,167.647956 0.369239274,169.538145 C0.315594785,171.150338 0.261241338,172.76253 0.208305807,174.374723 C0.149225974,176.181467 -0.16885985,178.261597 0.11850446,180.057737 C0.368530316,181.621983 1.72240378,181.385249 1.78219257,179.828609 C1.85450629,177.948793 1.84269032,176.065289 1.92492945,174.184091 C2.0343453,171.687428 2.14706963,169.190765 2.26924672,166.694794 C3.11976001,149.356 6.31054366,132.272151 12.1991488,115.893896 C14.582193,109.266018 17.3128629,102.991744 20.8224413,96.8606173 C23.9080629,91.4698911 27.6196944,86.2511261 31.413565,81.3905748 C35.1010919,76.6671775 38.9349004,72.0530423 43.4530898,68.0511438 C47.1195842,64.8037073 51.15261,61.974648 55.2983601,59.3422143 C60.5640275,55.9988853 65.8195332,52.7366961 71.5233366,50.1701886 C74.488199,48.8362224 77.509069,47.6419459 80.4970907,46.3619192 C81.0347172,46.1316389 81.6111001,45.9082739 82.1281668,45.6415729 C83.8530616,44.7520316 83.2851862,43.4123027 81.910753,42.4803475"/>
        <path fill="#89C5CC" d="M43.6366082,103.04 C38.8511428,103.04 34.5928256,103.661815 30.1835452,105.563595 C26.3774505,107.204943 22.9088552,109.377814 19.5411984,111.743453 C14.8042013,115.070534 11.0730324,118.942845 8.46130304,124.073581 C6.90097985,127.138707 5.75641676,131.475965 6.8042656,134.819146 C8.03865066,138.756728 11.4278736,142.04073 15.8916252,141.346899 C18.651872,140.918286 21.182228,139.091133 23.280149,137.37146 C25.7898281,135.314118 27.7988165,132.840347 29.4576326,130.092873 C32.1636305,125.611148 33.7537461,120.544595 36.0524326,115.861401 C37.1431914,113.638705 38.1972655,111.400128 39.503686,109.28774 C40.1504487,108.241664 40.8390096,107.205595 41.820159,106.428218 C42.3450839,106.012441 44.558395,105.29272 43.7119786,104.358909 C56.1218616,104.521869 67.1157147,114.052741 69.4979978,125.85004 C69.7198848,126.949639 69.8933034,128.058158 70.0765047,129.164501 C70.1921171,129.863119 70.1454275,132.439365 70.7699569,132.885601 C72.1473012,133.870106 71.5683497,130.879388 71.5092095,130.448817 C71.3564677,129.335947 71.1934986,128.223946 71.0225256,127.113904 C70.0922902,121.076119 67.4043011,115.463248 62.9216514,111.15732 C57.7955739,106.233493 50.8792825,103.04 43.6366082,103.04" transform="matrix(-1 0 0 1 78.08 0)"/>
      </g>
    </g>
    <g transform="translate(80 38)">
      <path fill="#F5FCFF" stroke="#C5CFD6" stroke-width="9.985" d="M387.277544,73.3622761 L387.277544,301.912648 C387.277544,310.775389 383.685208,318.799095 377.877187,324.607115 C372.069167,330.415136 364.045461,334.007472 355.18272,334.007472 L355.18272,334.007472 L37.0873523,334.007472 C28.2246113,334.007472 20.2009053,330.415136 14.3928845,324.607115 C8.58486374,318.799095 4.99252819,310.775389 4.99252819,301.912648 L4.99252819,301.912648 L4.99252819,73.3622761 L387.277544,73.3622761 Z"/>
      <path fill="#C5CFD6" stroke="#C5CFD6" stroke-width="9.985" d="M387.277544,4.99252819 L387.277544,41.2529839 C387.277544,50.1157248 383.685208,58.1394308 377.877187,63.9474516 C372.069167,69.7554724 364.045461,73.3478079 355.18272,73.3478079 L355.18272,73.3478079 L37.0873523,73.3478079 C28.2246113,73.3478079 20.2009053,69.7554724 14.3928845,63.9474516 C8.58486374,58.1394308 4.99252819,50.1157248 4.99252819,41.2529839 L4.99252819,41.2529839 L4.99252819,4.99252819 L387.277544,4.99252819 Z" transform="rotate(-180 196.135 39.17)"/>
      <use fill="#D8D8D8" xlink:href="#voty_screen_vote_yeah-a"/>
      <use fill="#98AAB2" xlink:href="#voty_screen_vote_yeah-a"/>
      <use fill="#D8D8D8" xlink:href="#voty_screen_vote_yeah-b"/>
      <use fill="#98AAB2" xlink:href="#voty_screen_vote_yeah-b"/>
      <use fill="#D8D8D8" xlink:href="#voty_screen_vote_yeah-c"/>
      <use fill="#98AAB2" xlink:href="#voty_screen_vote_yeah-c"/>
      <g stroke="#DDE3E9" stroke-linecap="round" stroke-linejoin="round" transform="translate(74.49 185.215)">
        <path stroke-width="10.013" d="M84.3425538,24.3333695 C75.652538,9.27757511 59.5739103,5.92027632e-15 42.1712769,5.92027632e-15 C24.7686435,5.92027632e-15 8.69001577,9.27757511 -5.92886712e-15,24.3333695" transform="translate(0 80.331)"/>
        <g transform="translate(5.518)">
          <path stroke-width="8.344" d="M9.5690319,26.7215976 C23.5634539,41.1281586 44.9854608,45.4452471 63.4547721,37.580968" transform="rotate(-23 36.512 34.092)"/>
          <path stroke-width="10.013" d="M9.23097349,38.3092821 C9.23938334,54.4186711 22.3185986,67.4847255 38.4442224,67.4931354 C54.5698463,67.5015371 67.635433,54.4491112 67.6270313,38.3397222 C67.6186214,22.2303331 54.5394062,9.16427871 38.4137823,9.15586885 C22.2881585,9.14746711 9.22257174,22.199893 9.23097349,38.3092821 Z" transform="rotate(-23 38.429 38.325)"/>
        </g>
      </g>
      <g stroke="#DDE3E9" stroke-linecap="round" stroke-linejoin="round" transform="translate(150.97 165.98)">
        <path stroke-width="9.203" d="M77.5190205,22.3647363 C69.5320497,8.52699501 54.7542251,0 38.7595102,0 C22.7647954,0 7.98697075,8.52699501 0,22.3647363" transform="translate(0 64.246)"/>
        <g transform="translate(16.156)">
          <path stroke-width="7.669" d="M1.66882774,14.9976867 C14.6653214,28.0362431 34.5683453,31.9352615 51.7336598,24.8054277"/>
          <path stroke-width="9.203" d="M0,26.6625542 C0,41.3878763 11.954554,53.3251084 26.7012438,53.3251084 C41.4479335,53.3251084 53.4024875,41.3878763 53.4024875,26.6625542 C53.4024875,11.9372321 41.4479335,0 26.7012438,0 C11.954554,0 0,11.9372321 0,26.6625542 Z"/>
        </g>
      </g>
      <g stroke="#DDE3E9" stroke-linecap="round" stroke-linejoin="round" transform="translate(168.032 269.94)">
        <path stroke-width="7.669" d="M1.66882774,14.9976867 C14.6653214,28.0362431 34.5683453,31.9352615 51.7336598,24.8054277"/>
        <path stroke-width="9.203" d="M0,26.6625542 C0,41.3878763 11.954554,53.3251084 26.7012438,53.3251084 C41.4479335,53.3251084 53.4024875,41.3878763 53.4024875,26.6625542 C53.4024875,11.9372321 41.4479335,0 26.7012438,0 C11.954554,0 0,11.9372321 0,26.6625542 Z"/>
      </g>
      <g stroke="#DDE3E9" stroke-linecap="round" stroke-linejoin="round" transform="translate(318.313 169.597)">
        <path stroke-width="7.669" d="M1.66882774,14.9976867 C14.6653214,28.0362431 34.5683453,31.9352615 51.7336598,24.8054277"/>
        <path stroke-width="9.203" d="M0,26.6625542 C0,41.3878763 11.954554,53.3251084 26.7012438,53.3251084 C41.4479335,53.3251084 53.4024875,41.3878763 53.4024875,26.6625542 C53.4024875,11.9372321 41.4479335,0 26.7012438,0 C11.954554,0 0,11.9372321 0,26.6625542 Z"/>
      </g>
      <g stroke="#DDE3E9" stroke-linecap="round" stroke-linejoin="round" transform="translate(233.65 194.157)">
        <path stroke-width="10.013" d="M84.3425538,95.7231053 C75.652538,80.6673109 59.5739103,71.3897358 42.1712769,71.3897358 C24.7686435,71.3897358 8.69001577,80.6673109 0,95.7231053"/>
        <g transform="rotate(-1 90.369 -396.422)">
          <path stroke-width="10.013" d="M69.0625695,58.3768836 C65.2925359,52.1998061 63.412829,45.0550747 63.6544298,37.825508 L63.6544298,29.4188501 C63.6544298,13.4485861 50.6876383,0.500583218 34.6942001,0.500583218 C18.698107,0.500583218 5.73131546,13.4485861 5.73131546,29.4188501 L5.73131546,37.825508 C5.9729162,45.0550747 4.09320932,52.1998061 0.323175755,58.3768836"/>
          <path stroke-width="8.344" d="M5.73264293,34.1969389 C16.851587,34.1783812 27.4209558,29.3401123 34.6928726,20.9387566 C41.9647895,29.3401123 52.5341582,34.1783812 63.6531023,34.1969389"/>
          <path stroke-width="10.013" d="M9.27169557,34.0275332 C10.5779326,47.0683248 21.5720938,57.0020199 34.6981825,57.0020199 C47.8242712,57.0020199 58.8157775,47.0683248 60.1246695,34.0275332"/>
        </g>
      </g>
      <g stroke="#DDE3E9" stroke-linecap="round" stroke-linejoin="round" transform="rotate(-1 5254.425 -17733.421)">
        <path stroke-width="10.013" d="M69.0625695,58.3768836 C65.2925359,52.1998061 63.412829,45.0550747 63.6544298,37.825508 L63.6544298,29.4188501 C63.6544298,13.4485861 50.6876383,0.500583218 34.6942001,0.500583218 C18.698107,0.500583218 5.73131546,13.4485861 5.73131546,29.4188501 L5.73131546,37.825508 C5.9729162,45.0550747 4.09320932,52.1998061 0.323175755,58.3768836"/>
        <path stroke-width="8.344" d="M5.73264293,34.1969389 C16.851587,34.1783812 27.4209558,29.3401123 34.6928726,20.9387566 C41.9647895,29.3401123 52.5341582,34.1783812 63.6531023,34.1969389"/>
        <path stroke-width="10.013" d="M9.27169557,34.0275332 C10.5779326,47.0683248 21.5720938,57.0020199 34.6981825,57.0020199 C47.8242712,57.0020199 58.8157775,47.0683248 60.1246695,34.0275332"/>
      </g>
      <g stroke="#DDE3E9" stroke-linecap="round" stroke-linejoin="round" transform="rotate(-1 9404.41 -630.93)">
        <path stroke-width="10.013" d="M69.0625695,58.3768836 C65.2925359,52.1998061 63.412829,45.0550747 63.6544298,37.825508 L63.6544298,29.4188501 C63.6544298,13.4485861 50.6876383,0.500583218 34.6942001,0.500583218 C18.698107,0.500583218 5.73131546,13.4485861 5.73131546,29.4188501 L5.73131546,37.825508 C5.9729162,45.0550747 4.09320932,52.1998061 0.323175755,58.3768836"/>
        <path stroke-width="8.344" d="M5.73264293,34.1969389 C16.851587,34.1783812 27.4209558,29.3401123 34.6928726,20.9387566 C41.9647895,29.3401123 52.5341582,34.1783812 63.6531023,34.1969389"/>
        <path stroke-width="10.013" d="M9.27169557,34.0275332 C10.5779326,47.0683248 21.5720938,57.0020199 34.6981825,57.0020199 C47.8242712,57.0020199 58.8157775,47.0683248 60.1246695,34.0275332"/>
      </g>
      <g transform="translate(24.923 66.613)">
        <g stroke-linecap="round" stroke-linejoin="round" transform="scale(-1 1) rotate(-4 0 4878.151)">
          <use fill="#D8D8D8" xlink:href="#voty_screen_vote_yeah-d"/>
          <use fill="#FFF" stroke="#DDE3E9" stroke-width="8.344" xlink:href="#voty_screen_vote_yeah-d"/>
        </g>
        <path fill="#FFF" stroke="#DDE3E9" stroke-linecap="round" stroke-linejoin="round" stroke-width="8.344" d="M302.410376,91.9444564 C302.410376,96.5461521 298.077722,100.276127 292.732085,100.275588 L273.37382,100.273636 L270.40454,118.945964 L249.175988,100.271196 L215.299024,100.26778 C209.953387,100.267241 205.619515,96.5363926 205.61905,91.934697 L205.614002,41.9420548 C205.614002,37.3403592 209.946656,33.6109237 215.292293,33.6109237 L292.725354,33.6187313 C298.070992,33.6192703 302.404864,37.3501187 302.405328,41.9518143 L302.410376,91.9444564 Z" transform="scale(-1 1) rotate(-4 0 7350.236)"/>
        <path fill="#FFF" stroke="#DDE3E9" stroke-linecap="round" stroke-linejoin="round" stroke-width="8.344" d="M100.52585,235.680456 C100.52585,240.282152 96.1931959,244.012127 90.8475585,244.011588 L71.4892933,244.009636 L68.5200135,262.681964 L47.2914617,244.007196 L13.4144976,244.00378 C8.06886023,244.003241 3.73498826,240.272393 3.73452361,235.670697 L3.72947559,185.678055 C3.72947559,181.076359 8.06212954,177.346924 13.4077669,177.346924 L90.8408279,177.354731 C96.1864652,177.35527 100.520337,181.086119 100.520802,185.687814 L100.52585,235.680456 Z" transform="scale(-1 1) rotate(-4 0 1712.755)"/>
        <path fill="#FFF" stroke="#DDE3E9" stroke-linecap="round" stroke-linejoin="round" stroke-width="8.344" d="M131.195277,90.2994842 C131.195277,94.9012465 126.863307,98.6309524 121.517747,98.6300155 L102.159762,98.6266225 L99.2591634,117.995891 L77.9622805,98.6223813 L44.0858066,98.6164437 C38.7402466,98.6155067 34.4061592,94.8842818 34.4053515,90.2825194 L34.3965766,40.2891529 C34.3965766,35.6873905 38.7285468,31.9576846 44.0741067,31.9586214 L121.506047,31.9721934 C126.851607,31.9731303 131.185695,35.7043553 131.186502,40.3061176 L131.195277,90.2994842 Z" transform="rotate(-7 82.796 74.977)"/>
        <path fill="#FFF" stroke="#DDE3E9" stroke-linecap="round" stroke-linejoin="round" stroke-width="8.344" d="M371.102898,226.803484 C371.102898,231.405246 366.770928,235.134952 361.425368,235.134015 L342.067383,235.130623 L339.166785,254.499891 L317.869902,235.126381 L283.993428,235.120444 C278.647868,235.119507 274.31378,231.388282 274.312973,226.786519 L274.304198,176.793153 C274.304198,172.191391 278.636168,168.461685 283.981728,168.462621 L361.413669,168.476193 C366.759229,168.47713 371.093316,172.208355 371.094124,176.810118 L371.102898,226.803484 Z" transform="rotate(-7 322.704 211.481)"/>
        <path fill="#A9CCDC" d="M244.59115 63.7547014L251.05425 70.9281036 272.138196 50.0737187C273.456945 48.7743347 275.595642 48.7743347 276.921224 50.0737187L280.983164 54.0657042C282.308746 55.3718207 282.308746 57.4791117 280.983164 58.7784957L254.246035 85.1230003C252.838458 86.5099075 250.563103 86.5099075 249.155526 85.1230003L235.71885 71.900676C234.605088 70.8032688 234.63242 69.0056755 235.780347 67.9351986L240.436749 63.7008409C241.02253 63.1540391 241.778336 62.886449 242.530241 62.8972222 243.278118 62.9079378 244.022136 63.1940424 244.59115 63.7547014zM42.7066238 207.490701L49.1697231 214.664104 70.253669 193.809719C71.5724183 192.510335 73.7111153 192.510335 75.0366974 193.809719L79.0986373 197.801704C80.4242195 199.107821 80.4242195 201.215112 79.0986373 202.514496L52.3615084 228.859C50.9539314 230.245908 48.6785765 230.245908 47.2709995 228.859L33.8343239 215.636676C32.7205616 214.539269 32.7478932 212.741675 33.89582 211.671199L38.552222 207.436841C39.1380037 206.890039 39.8938091 206.622449 40.645714 206.633222 41.393591 206.643938 42.1376091 206.930042 42.7066238 207.490701z"/>
        <path fill="#FFF" stroke="#DDE3E9" stroke-linecap="round" stroke-linejoin="round" stroke-width="8.344" d="M220.932316,195.904456 C220.932316,200.506152 216.599662,204.236127 211.254025,204.235588 L191.89576,204.233636 L188.92648,222.905964 L167.697928,204.231196 L133.820964,204.22778 C128.475327,204.227241 124.141455,200.496393 124.14099,195.894697 L124.135942,145.902055 C124.135942,141.300359 128.468596,137.570924 133.814233,137.570924 L211.247294,137.578731 C216.592932,137.57927 220.926804,141.310119 220.927268,145.911814 L220.932316,195.904456 Z" transform="scale(-1 1) rotate(-4 0 5120.97)"/>
        <path fill="#A9CCDC" d="M163.11309,167.714701 L169.57619,174.888104 L190.660136,154.033719 C191.978885,152.734335 194.117582,152.734335 195.443164,154.033719 L199.505104,158.025704 C200.830686,159.331821 200.830686,161.439112 199.505104,162.738496 L172.767975,189.083 C171.360398,190.469908 169.085043,190.469908 167.677466,189.083 L154.24079,175.860676 C153.127028,174.763269 153.15436,172.965675 154.302287,171.895199 L158.958689,167.660841 C159.54447,167.114039 160.300276,166.846449 161.05218,166.857222 C161.800058,166.867938 162.544076,167.154042 163.11309,167.714701 Z"/>
        <path fill="#A9CCDC" fill-rule="nonzero" d="M87.3518763,87.8798596 L87.3398636,70.9382377 L87.3398636,70.9382377 L104.403555,70.9503406 C106.4633,70.9518015 108.134238,69.2832322 108.135699,67.2234866 C108.1357,67.2217234 108.1357,67.2199601 108.135699,67.2181969 L108.132648,62.9158138 C108.131189,60.8581337 106.463474,59.1904185 104.405794,59.188959 L87.331524,59.1768486 L87.331524,59.1768486 L87.3193134,41.9561225 C87.3178544,39.8984424 85.6501395,38.2307271 83.5924594,38.2292677 L79.2817809,38.2262102 C77.2220353,38.2247493 75.5510973,39.8933186 75.5496364,41.9530642 C75.5496351,41.9548274 75.5496351,41.9565907 75.5496364,41.9583539 L75.5618395,59.1685006 L75.5618395,59.1685006 L58.4981486,59.1563977 C56.438403,59.1549368 54.767465,60.8235062 54.766004,62.8832517 C54.7660028,62.885015 54.7660028,62.8867782 54.766004,62.8885414 L54.7690547,67.1909245 C54.7705137,69.2486046 56.4382286,70.9163198 58.4959087,70.9177793 L75.5701791,70.9298897 L75.5701791,70.9298897 L75.5821993,87.882091 C75.5836583,89.9397711 77.2513732,91.6074863 79.3090533,91.6089458 L83.6197318,91.6120033 C85.6794774,91.6134642 87.3504154,89.9448948 87.3518763,87.8851493 C87.3518776,87.883386 87.3518776,87.8816228 87.3518763,87.8798596 Z" transform="rotate(-51 81.45 64.92)"/>
        <path fill="#A9CCDC" fill-rule="nonzero" d="M327.259498,224.38386 L327.247485,207.442238 L327.247485,207.442238 L344.311176,207.454341 C346.370921,207.455802 348.041859,205.787232 348.04332,203.727487 C348.043322,203.725723 348.043322,203.72396 348.04332,203.722197 L348.04027,199.419814 C348.038811,197.362134 346.371096,195.694419 344.313416,195.692959 L327.239145,195.680849 L327.239145,195.680849 L327.226935,178.460122 C327.225476,176.402442 325.557761,174.734727 323.500081,174.733268 L319.189402,174.73021 C317.129657,174.728749 315.458719,176.397319 315.457258,178.457064 C315.457256,178.458827 315.457256,178.460591 315.457258,178.462354 L315.469461,195.672501 L315.469461,195.672501 L298.40577,195.660398 C296.346024,195.658937 294.675086,197.327506 294.673625,199.387252 C294.673624,199.389015 294.673624,199.390778 294.673625,199.392541 L294.676676,203.694925 C294.678135,205.752605 296.34585,207.42032 298.40353,207.421779 L315.4778,207.43389 L315.4778,207.43389 L315.489821,224.386091 C315.49128,226.443771 317.158994,228.111486 319.216675,228.112946 L323.527353,228.116003 C325.587099,228.117464 327.258037,226.448895 327.259498,224.389149 C327.259499,224.387386 327.259499,224.385623 327.259498,224.38386 Z" transform="rotate(-51 321.358 201.423)"/>
      </g>
      <path fill="#FFBB1D" d="M34.8609153,30.9693124 C35.4321347,30.0436885 35.4565946,28.8825322 34.9248583,27.9338228 C34.393122,26.9851134 33.3883151,26.3971609 32.2980963,26.3968 L22.0674168,26.3968 L22.0674168,0 L0.446757321,35.0256206 C-0.124956598,35.9507968 -0.149607943,37.1119381 0.382328231,38.0603955 C0.914264404,39.0088528 1.91948111,39.5960875 3.00957637,39.5952 L13.2402559,39.5952 L13.2402559,65.992 L34.8609153,30.9693124 Z" transform="translate(178.346 37.968)"/>
    </g>
    <g opacity=".5" transform="translate(29 .194)">
      <path fill="#69A1AC" d="M139.895458,87.4779549 C143.19406,82.77455 149.315322,70.8294454 153.958043,69.1487776 C156.948384,68.0662722 156.076508,79.2639615 156.113437,81.3991152 C156.257249,89.6596885 155.453053,97.8678834 154.459935,106.059102 C152.670736,120.831931 146.820211,133.988258 138.795781,146.561455 C134.66658,153.03113 129.823355,159.579253 123.115261,163.61602 C120.027519,165.475033 116.31219,165.786293 113.262851,167.387984 C109.71145,169.252562 111.645536,167.745246 110.045041,171.445985 C107.822414,176.583965 107.111492,183.212507 106.083118,188.694914 C101.361327,213.862144 89.9299601,346.902682 91.9117208,372.502565 C92.0877328,374.771626 88.9238186,375.314237 88.7658742,372.544188 C87.9263723,357.856611 95.1907733,256.145367 98.8557867,222.882865 C102.5208,189.620363 106.229626,160.234607 109.94846,148.726823 C114.459958,134.765435 122.607983,117.975788 129.390645,104.956189 C132.541141,98.9075779 135.975243,93.0673376 139.895458,87.4779549 Z"/>
      <path fill="#C1DEE2" d="M164.378835,250.61588 C172.96225,244.314279 182.253152,256.20728 174.486045,262.509851 C170.192205,265.99353 165.703245,264.75429 163.176083,261.851156 C161.535552,263.850878 160.000071,265.941781 158.524672,267.707867 C154.02951,273.089468 149.780903,278.599516 145.720465,284.238041 C137.285534,295.951939 130.05695,308.327422 122.498952,320.47661 C115.040195,332.467197 107.641079,344.519199 100.880563,356.813578 C95.1534458,367.229898 87.5199263,379.483863 85.5591398,390.903226 C88.5341729,366.684733 99.8230754,343.406473 113.266189,322.056016 C126.599916,300.880951 141.901916,277.75543 162.547472,261.044533 C160.44626,257.95456 160.38793,253.543859 164.378835,250.61588 Z"/>
      <path fill="#69A1AC" d="M1.50175647,191.551033 C6.30503404,192.490397 14.1535354,203.356159 18.1128685,207.496099 C22.8182697,212.415837 27.0872364,217.659577 31.1112399,223.153712 C39.7740954,234.979611 47.5214971,247.552996 54.1094238,260.664836 C64.8494694,282.039757 73.4536425,303.981854 79.698059,327.257947 C83.5204928,341.506084 85.9953605,356.273724 87.4621003,370.938237 C87.7391004,373.703877 90.638684,395.026433 86.4605615,395.601134 C82.7027808,396.118617 83.863419,379.41048 83.6821333,377.137762 C81.632895,351.49725 75.4939581,326.549247 66.9547531,302.38178 C65.0947919,297.117126 63.3668221,290.668866 60.3923052,285.931186 C58.2502363,282.51871 60.3769438,283.70875 56.6125394,282.417293 C53.3801983,281.307708 49.6974057,281.578842 46.3874153,280.220617 C39.1967882,277.271788 33.4391587,271.547233 28.3922023,265.789004 C18.5841971,254.598391 10.8118518,242.491898 6.76045659,228.152779 C4.51302262,220.202206 2.44774552,212.205387 1.30164354,204.008965 C1.00516692,201.890431 -1.59199835,190.945996 1.50175647,191.551033 Z"/>
      <path fill="#89C5CC" d="M20.4567688,10.7663476 C38.5497206,42.1440864 53.4177673,76.6117099 63.0181722,111.5222 C68.8348718,132.674087 72.9026643,154.379032 76.9443401,175.927188 C83.2021462,209.291822 89.1213128,242.653881 90.8050355,276.611169 C92.4989686,310.76525 95.8486068,350.157968 84.664956,383.053763 C90.2512456,349.655594 84.9327187,314.105842 83.9910235,280.500396 C83.5410099,264.4577 82.2369542,248.571849 80.526277,232.622899 C78.866235,217.15156 76.1541962,201.753892 73.628677,186.404158 C72.3984498,178.928559 71.106434,171.464209 69.7909826,164.003942 C69.3982752,161.778162 69.2323873,155.173496 67.820484,153.652968 C66.3994366,152.122428 59.1490651,151.498479 56.8727843,150.37546 C52.2891366,148.113562 47.9775973,144.900701 44.161773,141.505901 C36.8467878,134.998157 30.483119,126.494997 25.4604023,118.112816 C13.8391388,98.7177667 9.1929633,75.0487443 9.4277998,52.5868096 C9.4729206,48.2257168 16.4865382,1.26372523 13.6697566,0.617019757 C13.8393507,0.418399403 13.9997738,0.213317915 14.1510393,0 C16.2835844,3.57055129 18.3762289,7.16529974 20.4567688,10.7663476 Z"/>
      <path fill="#89C5CC" d="M215.73946,123.933032 C216.018628,123.530368 217.835569,120.729959 216.920614,120.908931 C218.783494,120.544538 214.358341,123.997484 219,121.878772 C216.796108,123.960207 218.068045,126.664023 218.097461,129.465406 C218.145453,134.013607 217.384471,138.524512 216.527856,142.975127 C215.174271,150.01019 213.157795,156.850327 210.230916,163.393781 C203.851691,177.653454 193.019441,191.380996 180.159548,200.296041 C173.810974,204.697756 167.589089,206.196377 160.348537,208.222761 C155.775098,209.50296 155.412417,211.868732 152.984825,216.306742 C147.930759,225.550167 142.966701,234.760344 138.509464,244.315644 C133.187227,255.725678 128.020619,267.148288 123.147008,278.75918 C106.728686,317.869854 93.3656949,358.389098 86.3478603,400.322581 C86.1760342,375.611307 91.8925838,350.16081 99.1034582,326.606856 C104.356146,309.44598 111.19416,292.903414 118.487569,276.528315 C120.25491,272.561255 122.933154,267.458271 123.683687,263.078464 C124.209209,260.009755 122.602531,257.058556 121.866904,253.825908 C118.999026,241.237379 119.204289,227.134169 121.722713,214.478329 C124.499468,200.522865 132.529716,194.04566 146.113918,192.068958 C151.081932,191.345901 157.396407,191.610906 161.951831,189.492638 C166.914898,187.185912 168.962238,179.603734 171.784419,174.736572 C179.364703,161.662347 188.371176,149.123366 198.713096,138.107247 C201.576675,135.056743 204.656189,132.242446 207.923208,129.633939 C209.983388,127.988115 214.33546,125.960464 215.73946,123.933032 Z"/>
      <path fill="#C1DEE2" d="M63.4169472,373.634409 L111.626064,373.634409 C113.793633,373.634409 115.550795,375.391571 115.550795,377.55914 C115.550795,377.750778 115.536759,377.942158 115.508799,378.131745 L111.782672,403.397949 C110.646775,411.100267 104.037354,416.806452 96.251729,416.806452 L78.7912818,416.806452 C71.0056564,416.806452 64.3962357,411.100267 63.2603383,403.397949 L59.5342113,378.131745 C59.2179701,375.987369 60.6999659,373.992645 62.8443417,373.676404 C63.0339289,373.648445 63.2253094,373.634409 63.4169472,373.634409 Z"/>
    </g>
    <g transform="translate(0 60)">
      <g transform="scale(-1 1) rotate(-3 136.037 9726.814)">
        <g transform="translate(86.124 42.983)">
          <path fill="#F1C0A6" d="M36.4336026,8.72451311 C41.9686665,19.0414849 41.310957,45.2113396 34.1573801,47.0552702 C31.3045644,47.7906218 25.2272424,45.9893235 19.041924,42.2611793 L22.924223,69.7278448 L0,69.7278448 L7.89111971,32.9431941 C3.49019745,27.7770584 0.51165585,21.4460155 1.00940735,14.3519523 C2.44365552,-6.08926638 30.8985387,-1.59245871 36.4336026,8.72451311 Z" transform="translate(51.58 29.61)"/>
          <path fill="#A64824" d="M78.958183,27.0983193 C75.8257392,26.1431433 71.2785314,25.8192125 69.3656563,26.038349 C70.4537868,23.4312723 70.8855731,20.5266753 70.5335631,17.6985372 C70.1914246,14.9504772 68.9634845,12.6105837 67.8278246,10.1586581 C67.3043432,9.02848091 66.7111033,7.90446352 65.826618,7.04000653 C64.925607,6.15930294 63.7850479,5.57796774 62.5890622,5.3006208 C61.3651438,5.01672902 60.0853602,5.04036742 58.8595407,5.29800286 C58.3172669,5.41195996 57.8307122,5.65989365 57.2988949,5.79772015 C56.7542812,5.93893455 56.4900909,5.59806423 56.0947926,5.25549995 C55.1421574,4.43008095 53.7455977,4.02260733 52.5403986,3.87677304 C51.1882241,3.7132292 49.7851565,3.91719701 48.4955745,4.3617067 C47.2403598,4.79443568 46.0345027,5.4971198 45.1269838,6.52080874 C44.7229109,6.97648314 44.3561302,7.49514194 44.1177521,8.06777637 C44.0199878,8.30277439 44.0038278,8.44198684 43.7693251,8.52807065 C43.5524448,8.60776362 43.2987841,8.61007356 43.0749573,8.68591663 C40.9106882,9.41893798 39.0602594,11.0911814 38.0527095,13.2382718 C37.4648806,14.4908759 37.1864315,16.696269 37.2626979,19.1681524 C37.3389643,21.6400357 39.5709444,28.0898848 41.6585083,30.4424829 C43.5218798,32.5423734 46.2608157,33.9281072 48.9041078,34.5346977 C47.1496153,36.5401117 45.9817085,39.0460899 45.1180629,41.594725 C44.179979,44.3631896 43.5993892,47.2397593 43.3849951,50.1706897 C43.18135,52.9554009 43.1624845,55.9002679 43.8153189,58.6255365 C44.426035,61.1740947 45.7320695,63.2648225 47.9123523,64.5911907 C48.9110544,65.1987822 49.9855843,65.6552266 51.0663295,66.072402 C52.1314265,66.4834945 53.1997409,66.8831914 54.3154385,67.1138775 C56.4269865,67.5503024 58.8599794,67.4753833 60.4865082,65.7946701 C61.0727284,65.1887725 61.7174463,64.4274159 62.1451377,63.6872337 C62.2989135,63.4210515 62.3916324,63.2469589 62.2048053,62.9867825 C61.9809785,62.6751715 61.6189508,62.4364006 61.3314345,62.1926248 C59.6918168,60.8027331 58.6768816,58.9472344 58.4210272,56.7421645 C58.1614436,54.5048324 58.7624345,51.6170209 60.9376718,50.6406088 C63.6227898,49.4352815 66.5798491,50.8187822 68.9664094,52.1084224 C69.9806866,48.5286295 72.0632782,45.3054146 75.328401,43.6633544 C78.9407078,41.8467396 83.0857824,41.634148 86.797974,40.0754767 C87.7653067,39.669312 88.7505544,39.2082478 89.462764,38.3806728 C89.7603711,38.0347976 90.1095294,37.5861301 90.2283528,37.1286847 C90.3844686,36.527792 89.9969213,36.0239938 89.6975592,35.5555377 C88.1102239,33.071658 82.0906267,28.0534952 78.958183,27.0983193 Z"/>
        </g>
        <g transform="translate(0 235.495)">
          <polygon fill="#F1C0A6" points="111.946 0 143.982 110.395 159.051 193.282 174.175 193.282 159.078 0"/>
          <polygon fill="#000" fill-opacity=".1" points="111.946 0 143.982 110.395 159.051 193.282 174.175 193.282 159.078 0"/>
          <path fill="#F1C0A6" d="M97.5483644,0 C99.7837644,57.3497281 98.9021552,88.6298282 98.4018459,93.8403003 C97.9015367,99.0507725 95.0612441,133.947021 75.7066359,195.030738 L91.4370329,195.030738 C117.069028,136.431349 126.016912,101.5351 128.956708,93.8403003 C131.896504,86.1455005 140.579033,54.8654004 153.255141,0 L97.5483644,0 Z"/>
          <path fill="#64717D" d="M111.258161,9.94279275e-14 C119.591354,37.9872871 134.004206,98.6246465 154.496718,181.912078 L176.617439,181.912078 C178.251307,96.4254952 171.300911,40.1610222 159.26456,9.94279275e-14 L111.258161,9.94279275e-14 Z"/>
          <path fill="#73899D" d="M97.4365859,0 C99.6258678,57.3497281 93.9522049,113.850073 76.3772797,182.804985 L99.9788724,182.804985 C125.657991,125.080173 144.063042,68.8586372 156.641672,0 L97.4365859,0 Z"/>
          <path fill="#191847" d="M0,32.3593601 L0.867950339,18.3661233 C5.94967757,19.8524019 12.3146467,19.2693504 19.9628578,16.6169687 C28.1865362,22.4421931 38.5390735,26.4198181 51.0204698,28.5498436 C51.9727192,28.7123719 52.6129342,29.6160639 52.4504265,30.5683168 C52.4399028,30.6299831 52.4260784,30.6910403 52.409013,30.7512254 L51.20907,34.983092 L51.20907,34.983092 L19.9628578,34.983092 L1.73590068,34.983092 L0,32.3593601 Z" transform="translate(73.464 174.04)"/>
          <path fill="#191847" d="M0,32.3593601 L0.867950339,18.3661233 C5.94967757,19.8524019 12.3146467,19.2693504 19.9628578,16.6169687 C28.1865362,22.4421931 38.5390735,26.4198181 51.0204698,28.5498436 C51.9727192,28.7123719 52.6129342,29.6160639 52.4504265,30.5683168 C52.4399028,30.6299831 52.4260784,30.6910403 52.409013,30.7512254 L51.20907,34.983092 L51.20907,34.983092 L19.9628578,34.983092 L1.73590068,34.983092 L0,32.3593601 Z" transform="translate(155.675 174.04)"/>
        </g>
        <g transform="rotate(12 -207.603 323.362)">
          <path fill="#F1C0A6" d="M37.0675455,119.569467 L57.9834077,119.647963 C42.0532208,171.259756 33.5969667,198.282873 32.6146453,200.717313 C30.4044221,206.194804 35.0815516,214.536928 37.0816778,219.019923 C34.2373866,220.292658 32.7672919,218.951703 31.3296136,217.355028 L31.0513977,217.043434 L31.0513977,217.043434 L30.7718295,216.729253 C29.0860394,214.844004 27.2104795,213.024208 23.0437735,214.962707 C21.3128408,215.767999 19.6774965,216.724177 18.0793023,217.653003 L17.5478666,217.961354 C12.4224063,220.927559 7.61524763,223.404147 1.17131031,219.42804 C0.105878417,218.770635 -1.06166136,216.29539 1.75926234,214.361117 C8.78721202,209.542136 18.9149133,201.108052 20.2833252,198.331908 C22.1493994,194.54614 27.7441395,168.291993 37.0675455,119.569467 L37.0675455,119.569467 Z M179.342554,16.5909189 C179.95054,25.0793157 180.510319,29.6048429 181.021889,30.1675005 C181.789244,31.0114869 181.746578,28.2906392 183.944151,29.7568034 C185.872279,31.0432009 184.423188,34.5249358 171.78746,41.8599226 L144.315472,74.9296199 L134.495371,65.6249878 C140.104662,54.9191256 145.540135,47.8997954 150.801789,44.5669969 C154.638754,42.1366148 160.394201,38.4910417 168.068131,33.6302775 C173.427637,24.8313644 172.443126,0.573626904 176.031423,0.973685442 C179.260971,0.53331754 180.364681,5.73906201 179.342554,16.5909189 Z"/>
          <path fill="#8532A4" d="M54.70685,46.6988775 L100.294806,38.6604908 C119.974634,83.0251956 159.889371,107.979792 171.546645,116.794201 C176.967795,120.893292 169.352617,126.515126 171.855164,128.22406 L161.845203,136.988847 C153.849824,134.799675 153.191039,131.063522 144.537823,127.105792 C135.884607,123.148062 89.9003765,88.0102232 54.70685,46.6988775 Z" transform="rotate(-80 114.125 87.825)"/>
          <g transform="translate(17.23 50.624)">
            <mask id="voty_screen_vote_yeah-f" fill="#fff">
              <use xlink:href="#voty_screen_vote_yeah-e"/>
            </mask>
            <g mask="url(#voty_screen_vote_yeah-f)">
              <g transform="translate(-92.652 -11.462)">
                <path fill="#8D2DB1" d="M280.486703,8.45883982 C270.773333,24.0106716 250.808523,34.7640425 233.297153,38.269529 C211.922921,42.5459816 187.436716,38.5265177 170.254612,51.942131 C157.83483,61.6394389 152.879767,77.9823141 149.964551,93.4698987 C147.049336,108.961499 145.262461,125.240127 136.826004,138.551338 C130.108159,149.140076 118.310771,157.375761 105.814696,156.404022 C93.3146047,155.428268 82.0111174,142.647096 85.4603876,130.596735 C87.8214713,122.320896 95.7158429,116.940195 103.48172,113.225905 C111.247597,109.515631 119.724209,106.564276 125.651011,100.324269 C136.428475,88.9886583 135.199747,70.8548931 130.646229,55.8933322 C126.09271,40.9317713 118.852857,26.1589365 119.884827,10.5549039 C119.973167,9.20972868 120.133785,7.84447621 120.390774,6.50331643 L145.186168,6.50331643 C145.334739,7.2220817 145.495357,7.93281607 145.676052,8.62748865 C149.563006,23.4525243 165.917928,32.6559321 181.224817,31.9010278 C196.531707,31.142108 210.449251,22.3161524 221.14239,11.3298855 C222.66023,9.77189146 224.149961,8.14563484 225.631662,6.50331643 L281.590951,6.50331643 C281.2657,7.14177273 280.904309,7.79629083 280.486703,8.45883982 L280.486703,8.45883982 Z M-0.000401544843,0.42794294 L-0.000401544843,193.892249 L8.22323686,193.892249 L8.22323686,176.156013 C13.2545938,172.819175 19.1492721,170.53037 24.995765,169.642956 C40.647983,167.257779 56.4568035,171.598479 72.265624,172.497939 C98.9282016,174.015779 125.020586,165.760017 151.032661,159.724798 C177.044736,153.685564 205.120751,149.975289 229.839852,160.082173 C235.935302,162.575766 241.741641,165.892527 248.106127,167.607123 C254.470612,169.329751 261.770698,169.229364 267.07109,165.310287 C272.375497,161.395225 274.399283,152.874443 269.950166,148.011735 C264.958964,142.558756 255.341965,144.180997 249.997403,139.077362 C246.062263,135.310871 245.829367,128.717505 248.519718,123.987307 C251.210068,119.249078 256.229379,116.22143 261.449462,114.671466 C271.961906,111.539417 283.261378,113.703743 293.902316,116.378032 C304.539239,119.052321 315.372919,122.248618 326.278877,121.124292 C337.192866,120.003982 348.403998,113.290152 350.961838,102.621106 C352.712574,95.3129896 350.186857,87.7278075 350.006162,80.2189189 C349.544385,61.1214461 366.854983,43.4293803 385.952456,43.4735502 C397.308144,43.4976429 404.005912,48.4808144 409.768081,54.9376555 L409.768081,29.1906001 C398.97054,31.3790195 387.562651,29.7487474 376.431828,29.6443458 C363.730964,29.5319132 349.59257,32.2945418 342.192099,42.6102288 C331.185755,57.9572727 339.863139,83.1783044 325.580189,95.5378547 C318.083347,102.026819 306.759782,102.026819 297.347571,98.8907541 C287.93536,95.7546889 279.655505,89.9925204 270.689009,85.7522068 C261.714481,81.5118933 251.238176,78.8215428 241.934382,82.2627821 C220.929572,90.0286594 218.094665,123.067769 196.772634,129.902062 C184.65401,133.780986 170.63608,126.223912 165.432059,114.611235 C160.224022,103.002573 163.026805,88.7878858 170.640095,78.5926623 C178.24937,68.3974387 190.038727,61.908474 202.321984,58.6037599 C214.613271,55.2990459 227.482783,54.9135628 240.20774,55.0099336 C257.915867,55.1424434 277.95697,55.2749532 290.240227,42.5178735 C295.677144,36.872153 298.736916,29.4275116 302.635916,22.6253419 C305.980785,16.7908953 310.036388,11.3820863 314.670215,6.50331643 L409.768081,6.50331643 L409.768081,0.42794294 L-0.000401544843,0.42794294 Z" transform="translate(0 .721)"/>
                <path fill="#A22161" d="M377.920355,0.257506186 C358.822882,0.213418766 341.516299,17.9095 341.978076,37.0029574 C342.158771,44.5118459 344.684488,52.1010435 342.929737,59.4051442 C340.371896,70.0741907 329.160764,76.7880205 318.250791,77.9083306 C307.340817,79.0366716 296.511153,75.8363592 285.870215,73.166086 C275.233292,70.4917973 263.929804,68.3274706 253.41736,71.455505 C248.197277,73.0094835 243.177967,76.0371316 240.487616,80.7713453 C237.797266,85.5015436 238.030162,92.0989254 241.969317,95.8614006 C247.313879,100.969051 256.926862,99.3427944 261.918065,104.799789 C266.371197,109.662497 264.347411,118.183278 259.043004,122.094325 C253.738596,126.013403 246.438511,126.113789 240.074025,124.395177 C233.709539,122.676565 227.907216,119.36382 221.80775,116.870227 C197.08865,106.759328 169.01665,110.473617 143.004575,116.512852 C116.9925,122.548071 90.9001156,130.799817 64.2335225,129.281978 C48.4287174,128.386533 32.6158815,124.045833 16.9636635,126.426994 C11.1171705,127.314408 5.22650769,129.603214 0.195150794,132.940051 L0.195150794,150.676287 L401.739995,150.676287 L401.739995,11.721694 C395.973811,5.26886835 389.276043,0.28168139 377.920355,0.257506186" transform="translate(8.03 43.936)"/>
                <path fill="#E72477" stroke="#E72477" stroke-width=".955" d="M140.106422,16.5060016 C136.207422,23.3041558 133.151666,30.7487972 127.710733,36.3985331 C115.427476,49.1556128 95.386373,49.023103 77.6782454,48.8905932 C64.9532893,48.7942225 52.0837771,49.1756901 39.7965048,52.4804041 C27.5092326,55.7891337 15.719876,62.2780983 8.11060121,72.4733219 C0.497310971,82.6685455 -2.30547204,96.883233 2.90256459,108.491894 C8.10658576,120.100556 22.1245163,127.661645 34.2431397,123.778707 C55.5651709,116.944413 58.4000775,83.9093191 79.4089037,76.1434418 C88.7086823,72.7022025 99.1890027,75.3925529 108.159515,79.628851 C117.126011,83.8691646 125.409881,89.6313331 134.822092,92.7714138 C144.230288,95.9034636 155.557868,95.907479 163.05471,89.4185143 C177.333645,77.058964 168.656261,51.8379324 179.66662,36.4908885 C187.063076,26.1752014 201.205486,23.4085574 213.902334,23.5250055 C225.033157,23.6253917 236.441046,25.2556637 247.242602,23.0672443 L247.242602,0.383976098 L152.140721,0.383976098 C147.510909,5.26274595 143.451291,10.6675396 140.106422,16.5060016" transform="translate(162.528 6.842)"/>
                <path fill="#1E2229" stroke="#000" stroke-width=".955" d="M221.141186,12.0522646 C210.448047,23.0345161 196.534518,31.8644872 181.227628,32.623407 C165.916723,33.3783113 149.561802,24.1749035 145.678863,9.34986783 C145.494153,8.65519525 145.33755,7.94446087 145.184963,7.2256956 L120.389569,7.2256956 C120.136596,8.56685538 119.975978,9.9280924 119.883622,11.2772831 C118.851652,26.8773003 126.091506,41.6541505 130.645024,56.6157114 C135.202558,71.5772723 136.42727,89.7110374 125.653822,101.046648 C119.723004,107.286655 111.246393,110.23801 103.480516,113.948284 C95.7186537,117.662574 87.8202666,123.043275 85.4591829,131.319114 C82.0139282,143.369475 93.3174155,156.150647 105.813491,157.126401 C118.309567,158.09814 130.11097,149.85844 136.824799,139.273718 C145.265272,125.962506 147.048131,109.679863 149.963347,94.1922779 C152.878562,78.7046933 157.833626,62.3578027 170.253408,52.6645101 C187.435512,39.2448815 211.921716,43.2683608 233.295948,38.9878928 C250.811334,35.4864217 270.772128,24.7290353 280.485498,9.18121899 C280.903105,8.51867 281.268511,7.8641519 281.593762,7.2256956 L225.630457,7.2256956 C224.148757,8.86801401 222.659025,10.4902552 221.141186,12.0522646"/>
              </g>
            </g>
          </g>
        </g>
      </g>
      <g transform="translate(0 20.604)">
        <g transform="rotate(-15 184.415 -229.7)">
          <path fill="#F1C0A6" d="M42.8097408,10.2430849 C49.31348,22.3558088 48.5406667,53.0807375 40.1351632,55.2456191 C36.7831038,56.1089596 29.6422699,53.9941599 22.37452,49.6171531 L26.9361241,81.864538 L0,81.864538 L9.27215005,38.677256 C4.10101958,32.6119066 0.601198166,25.1788826 1.18606077,16.8500252 C2.87131252,-7.14915225 36.3060016,-1.86963898 42.8097408,10.2430849 Z" transform="translate(60.606 34.764)"/>
          <path fill="#191847" d="M88.8129562,33.2174573 C96.3706745,33.8651879 103.119354,36.1678798 105.031985,37.5353919 C105.031985,44.6847726 103.645571,46.8059728 91.8037046,46.6189969 C88.8941361,48.1543543 86.6573673,50.798173 84.3276546,54.2642874 C85.3580013,68.6152178 88.0855261,75.79164 92.5096396,75.79164 C99.1458099,75.79164 104.776129,71.5821774 107.687921,71.5821774 C109.810519,71.5821774 109.336608,74.2362664 107.929639,76.2040847 C106.768845,77.8275981 101.115873,79.392471 101.115873,81.909462 C101.115873,83.2341941 102.353079,83.3222923 103.52517,83.3261526 L104.04382,83.326093 C104.886261,83.3294814 105.582189,83.3827194 105.582189,83.9719739 C105.582189,86.4412112 106.367138,91.0838188 102.078061,91.0838188 C97.7373721,91.0838188 85.2918482,89.5032661 83.1590225,83.0661211 C81.7826473,78.9120423 80.8926907,70.3042991 80.4891527,57.2428916 C80.2261161,57.2091377 79.9579572,57.1930334 79.6860339,57.1930334 C75.9669313,57.1930334 72.9520029,60.2055267 72.9520029,63.9216255 C72.9520029,65.808119 73.7289887,67.5132842 74.9806466,68.7350517 C73.4224831,70.9326124 71.6762288,73.2282589 69.675208,75.5970677 C62.1578061,71.0905751 56.5794664,57.8983819 63.9289469,45.2254229 C65.9603664,39.0171373 70.559216,35.7010587 75.990568,34.1612969 C80.3902431,32.3223853 84.9575222,32.1150463 88.8129562,33.2174573 Z"/>
        </g>
        <g transform="translate(0 188.744)">
          <polygon fill="#F1C0A6" points="138.456 0 189.169 128.421 223.183 236.989 236.614 236.989 184.615 0"/>
          <path fill="#F1C0A6" d="M150.994272,7.29060913 C150.449019,52.4172583 101.888277,110.854045 100.629663,113.667152 C99.7905874,115.542557 70.8290603,139.393708 13.745082,185.220606 L22.9951166,195.12369 C90.3472166,155.830748 125.581826,133.564261 128.698945,128.324228 C133.374623,120.464179 192.683901,63.9059844 204.908039,20.7328209 L150.994272,7.29060913 Z" transform="rotate(-14 109.327 101.207)"/>
          <path fill="#C1C1C1" d="M2.76613947,26.262232 C1.61087985,29.3481452 1.03325004,31.6572371 1.03325004,33.1895078 C1.03325004,35.0536701 1.34365303,37.7739466 1.96445901,41.3503371 C4.12595461,41.3503371 23.5516795,41.3503371 60.2416338,41.3503371 C61.756051,36.3412682 60.8818415,33.637033 57.6190055,33.2376317 C54.3561695,32.8382304 51.6456761,32.4776029 49.4875255,32.1557494 L22.4024542,20.0751485 C21.8805793,19.8423796 21.2688197,20.0767463 21.0360509,20.5986211 C21.0320188,20.6076612 21.0281166,20.6167586 21.0243456,20.6259107 L19.2837657,24.8502036 L19.2837657,24.8502036 C16.2632329,26.2602058 13.8087364,26.9652069 11.9202763,26.9652069 C10.3865408,26.9652069 8.26866524,26.3457154 5.56664957,25.1067326 L5.56665069,25.1067301 C4.52779306,24.6303721 3.29946809,25.0863682 2.82311009,26.1252258 C2.80248815,26.1701988 2.78348573,26.2158969 2.76613947,26.262232 Z" transform="rotate(50 -151.55 151.9)"/>
          <path fill="#C1C1C1" d="M2.76613947,26.262232 C1.61087985,29.3481452 1.03325004,31.6572371 1.03325004,33.1895078 C1.03325004,35.0536701 1.34365303,37.7739466 1.96445901,41.3503371 C4.12595461,41.3503371 23.5516795,41.3503371 60.2416338,41.3503371 C61.756051,36.3412682 60.8818415,33.637033 57.6190055,33.2376317 C54.3561695,32.8382304 51.6456761,32.4776029 49.4875255,32.1557494 L22.4024542,20.0751485 C21.8805793,19.8423796 21.2688197,20.0767463 21.0360509,20.5986211 C21.0320188,20.6076612 21.0281166,20.6167586 21.0243456,20.6259107 L19.2837657,24.8502036 L19.2837657,24.8502036 C16.2632329,26.2602058 13.8087364,26.9652069 11.9202763,26.9652069 C10.3865408,26.9652069 8.26866524,26.3457154 5.56664957,25.1067326 L5.56665069,25.1067301 C4.52779306,24.6303721 3.29946809,25.0863682 2.82311009,26.1252258 C2.80248815,26.1701988 2.78348573,26.2158969 2.76613947,26.262232 Z" transform="translate(214.916 205.718)"/>
          <polygon fill="#69A1AC" points="166.353 225.807 233.312 218.873 213.452 112.688 189.085 0 131.888 0 159.12 123.534"/>
          <path fill="#89C5CC" d="M53.2123771,180.237924 L105.224043,221.124511 C137.056411,168.077883 156.634648,134.202481 163.958753,119.498305 C171.282858,104.794128 177.866856,64.96136 183.710747,0 L119.317799,0 C116.125569,57.1501709 113.973784,87.0549949 112.862444,89.714472 C111.751104,92.3739492 91.8677483,122.548433 53.2123771,180.237924 Z"/>
        </g>
        <g transform="translate(38.16 31.547)">
          <path fill="#F1C0A6" d="M66.4376777,173.310893 L86.7629052,173.390899 C74.213015,213.94274 67.4379392,235.459293 66.4376777,237.940558 C64.1870892,243.523403 68.949637,252.02598 70.9862915,256.595202 C67.9460218,257.956929 66.4476834,256.383142 64.9108448,254.65385 L64.6306435,254.338339 C62.8957804,252.389752 60.9921067,250.457485 56.6920134,252.45995 C55.5318574,253.00021 54.4138728,253.607102 53.3210894,254.228816 L52.7767192,254.540668 C52.5055056,254.696972 52.2356903,254.853662 51.9670081,255.00993 L51.4310761,255.321662 C46.0852929,258.428545 41.1220571,261.150429 34.4200941,257.011168 C33.3352043,256.34112 32.1463418,253.818265 35.0187839,251.846788 C42.1750848,246.935119 52.4877479,238.338813 53.8811511,235.509272 C55.7813053,231.650688 59.9668142,210.917895 66.4376777,173.310893 L66.4376777,173.310893 Z M232.190172,44.4230717 C235.509104,44.436713 235.884302,49.8475102 233.315768,60.6554632 C232.725902,69.3091723 232.649022,73.9562593 233.085129,74.5967242 C233.739289,75.5574216 234.08185,72.8051771 236.090003,74.5967242 C237.851936,76.1686095 235.897327,79.4772232 222.116572,85.0881576 L183.897415,108.434174 L174.571359,96.6222821 L219.532438,76.2542668 C221.926874,73.3308403 223.776178,68.2686611 225.328695,63.0290941 L225.584743,62.1545267 C225.711435,61.7167581 225.836162,61.2785144 225.959068,60.8409305 L226.202493,59.9669789 C228.492768,51.6791875 230.160073,43.9027844 232.190172,44.4230717 Z"/>
          <g transform="rotate(-63 133.819 -6.25)">
            <mask id="voty_screen_vote_yeah-h" fill="#fff">
              <use xlink:href="#voty_screen_vote_yeah-g"/>
            </mask>
            <g mask="url(#voty_screen_vote_yeah-h)">
              <g transform="translate(-20.722 -105.487)">
                <polygon fill="#FCD436" points="0 272.744 181.656 180.938 0 180.938"/>
                <path fill="#FFADAC" d="M231.012563,183.166009 C231.012563,160.621689 249.18125,142.345695 271.593203,142.345695 L271.593203,92.6971528 C221.922106,92.6971528 181.655782,133.201294 181.655782,183.166009 C181.655782,233.130467 221.922106,273.634864 271.593203,273.634864 L271.593203,223.986066 C249.18125,223.986066 231.012563,205.710329 231.012563,183.166009"/>
                <polygon fill="#19191A" points="0 180.938 181.656 180.938 181.656 0 0 0"/>
                <path fill="#257555" d="M90.8278909,140.807773 C113.46168,140.807773 131.810204,159.17359 131.810204,181.82903 L181.655782,181.82903 C181.655782,131.618557 140.990639,90.9145152 90.8278909,90.9145152 C40.6651429,90.9145152 0,131.618557 0,181.82903 L49.8455781,181.82903 C49.8455781,159.17359 68.1941013,140.807773 90.8278909,140.807773"/>
              </g>
            </g>
          </g>
          <path fill="#DDE3E9" d="M87.5358273,193.736034 C121.258281,193.736034 146.063811,193.736034 161.952418,193.736034 C165.352876,193.736034 164.712125,188.821211 164.220568,186.341164 C158.547407,157.718428 136.40154,126.864504 136.40154,86.1207591 L114.936292,82.7515723 C97.1817745,111.333388 91.0419545,146.52339 87.5358273,193.736034 Z"/>
          <g transform="translate(54.467 78.857)">
            <mask id="voty_screen_vote_yeah-j" fill="#fff">
              <use xlink:href="#voty_screen_vote_yeah-i"/>
            </mask>
            <g mask="url(#voty_screen_vote_yeah-j)">
              <g transform="translate(-13.617 -55.492)">
                <g transform="translate(0 107.09)">
                  <mask id="voty_screen_vote_yeah-l" fill="#fff">
                    <use xlink:href="#voty_screen_vote_yeah-k"/>
                  </mask>
                  <path fill="#297D5B" d="M-6.04453296e-05,0.274229745 L-6.04453296e-05,107.090119 L106.714356,107.090119 C47.7774392,107.090119 -6.04453296e-05,59.2670529 -6.04453296e-05,0.274229745" mask="url(#voty_screen_vote_yeah-l)"/>
                </g>
                <mask id="voty_screen_vote_yeah-n" fill="#fff">
                  <use xlink:href="#voty_screen_vote_yeah-m"/>
                </mask>
                <path fill="#297D5B" d="M106.714295,0.245853849 L-0.000120890659,0.245853849 L-0.000120890659,107.062045 C-0.000120890659,48.0689198 47.777681,0.245853849 106.714295,0.245853849" mask="url(#voty_screen_vote_yeah-n)"/>
                <g transform="translate(106.988 107.09)">
                  <mask id="voty_screen_vote_yeah-p" fill="#fff">
                    <use xlink:href="#voty_screen_vote_yeah-o"/>
                  </mask>
                  <path fill="#297D5B" d="M0.0282884142,107.09021 L106.742704,107.09021 L106.742704,0.2743205 C106.742704,59.2671436 58.9652048,107.09021 0.0282884142,107.09021" mask="url(#voty_screen_vote_yeah-p)"/>
                </g>
                <g transform="translate(106.988)">
                  <mask id="voty_screen_vote_yeah-r" fill="#fff">
                    <use xlink:href="#voty_screen_vote_yeah-q"/>
                  </mask>
                  <path fill="#297D5B" d="M0.0282884142,0.245853849 C58.9652048,0.245853849 106.742704,48.0689198 106.742704,107.062045 L106.742704,0.245853849 L0.0282884142,0.245853849 Z" mask="url(#voty_screen_vote_yeah-r)"/>
                </g>
                <mask id="voty_screen_vote_yeah-t" fill="#fff">
                  <use xlink:href="#voty_screen_vote_yeah-s"/>
                </mask>
                <path fill="#FCD436" d="M106.865235,155.477895 C80.2350008,155.477895 58.6466821,133.868987 58.6466821,107.213356 C58.6466821,80.5574212 80.2350008,58.9488162 106.865235,58.9488162 C133.495469,58.9488162 155.083787,80.5574212 155.083787,107.213356 C155.083787,133.868987 133.495469,155.477895 106.865235,155.477895 M106.865235,0.246080414 C47.845259,0.246080414 -0.00012106165,48.1370915 -0.00012106165,107.213356 C-0.00012106165,166.28962 47.845259,214.180328 106.865235,214.180328 C165.885513,214.180328 213.73059,166.28962 213.73059,107.213356 C213.73059,48.1370915 165.885513,0.246080414 106.865235,0.246080414" mask="url(#voty_screen_vote_yeah-t)"/>
                <path fill="#FFAEAD" d="M58.3572182,107.09027 C58.3572182,80.2063201 80.1302039,58.4128746 106.988233,58.4128746 C133.846263,58.4128746 155.619248,80.2063201 155.619248,107.09027 C155.619248,133.973915 133.846263,155.767666 106.988233,155.767666 C80.1302039,155.767666 58.3572182,133.973915 58.3572182,107.09027"/>
              </g>
            </g>
          </g>
          <path fill="#000" fill-opacity=".1" d="M101.152512,214.18054 L79.4156315,214.181895 C83.4636195,204.733904 87.7150467,193.537534 92.1699131,180.592786 C94.0127578,196.018447 97.0067008,207.214745 101.152512,214.18054 Z"/>
        </g>
      </g>
    </g>
    <g opacity=".823" transform="translate(390 232)">
      <path fill="#69A1AC" d="M9.66608239,34.7590765 C27.8220954,65.2181609 48.9680792,94.7109287 61.6669927,128.013465 C61.1552581,124.08811 60.6126498,120.166821 60.0053113,116.251112 C56.783136,95.4939608 52.7784961,74.888274 48.5703013,54.3078477 C46.4272383,43.8292942 44.1606922,33.388715 41.8360144,22.9490285 C40.5857305,17.3418694 39.3507762,11.7312938 38.0747297,6.12947411 C37.7656434,4.77174082 37.500075,2.40189705 37.1131139,0 C49.4544417,40.4980268 61.3556428,81.0265908 70.0609489,122.498205 C71.2029691,127.940912 72.1754851,133.373948 72.9721087,138.797531 C73.2446236,137.560281 73.5126667,136.32282 73.8060515,135.08896 C77.32838,120.297535 82.6119866,105.623838 88.9030454,91.7935682 C91.9105445,85.1796013 95.3650814,78.710477 99.4324861,72.6825707 C101.968844,68.9251104 107.950363,64.4585528 110.26415,60.6103659 C97.6101502,83.819296 93.0410259,112.85848 85.7346013,138.090745 C83.9512447,144.248139 82.1568098,150.395537 80.3985804,156.553765 C91.4169779,134.456838 108.512262,116.301528 132.280766,108.433818 C103.509908,127.443708 86.2528659,160.734778 74.6239896,194.783191 C74.5856713,195.186986 74.5401131,195.590786 74.5007305,195.99522 C77.9226738,189.50079 82.2331262,183.626598 88.0751535,179.512399 C100.5787,170.704903 114.449219,173.270676 126.578109,180.825719 C117.058972,174.7747 99.8551158,180.284735 91.8456518,186.434852 C86.1117438,190.83738 81.21147,196.743705 76.9561067,202.505901 C75.9364709,203.887142 74.5453853,205.498732 73.0757853,207.218291 C71.0153457,220.593041 67.6576352,233.876127 62.9038427,247.053783 C63.6883429,243.271389 63.1211332,237.22209 63.338686,234.402799 C63.3623661,234.097562 63.3815744,233.792115 63.405042,233.48773 C62.6824361,236.372936 61.9842999,239.225348 61.3121167,242.031766 C62.6483211,236.676478 63.3745398,231.086005 63.9414488,225.437751 C64.0874582,223.010359 64.2298478,220.582969 64.3803291,218.155787 C64.3326359,213.54921 64.1429028,208.924428 63.8219956,204.292291 C62.6841161,199.790358 61.4100976,195.543936 60.3594214,192.012515 C56.5680272,179.270034 51.009967,167.062413 44.168981,155.673883 C37.927329,145.281255 30.4560741,135.867526 21.830979,127.353889 C17.1812731,122.765698 12.3151298,118.395827 7.51751903,113.965246 C5.7826756,112.363542 2.68181698,108.425343 0,106.372442 C19.5313401,117.140227 39.6344817,128.789423 53.8826329,146.138738 C52.2122006,139.72413 50.3978722,133.400296 48.4786353,127.20318 C38.7418726,95.7619974 26.4477258,63.1762492 9.66608239,34.7590765 Z"/>
      <path fill="#C5CFD6" d="M29.1795807,207.175023 C29.1795807,242.091804 31.9446492,270.397448 69.0583409,270.397448 C106.172033,270.397448 108.937101,242.091804 108.937101,207.175023"/>
    </g>
  </g>
</svg>
