<?xml version="1.0" encoding="UTF-8"?>
<svg width="1032px" height="892px" viewBox="0 0 1032 892" version="1.1" xmlns="http://www.w3.org/2000/svg" xmlns:xlink="http://www.w3.org/1999/xlink">
    <title>BG</title>
    <g id="Page-1" stroke="none" stroke-width="1" fill="none" fill-rule="evenodd" opacity="0.26186942" stroke-linecap="round" stroke-linejoin="round">
        <g id="iPhone-11-PRO-Startsite-" transform="translate(315.000000, -68.000000)" stroke="#A7AAAB" stroke-width="22.5000003">
            <g id="BG" transform="translate(-303.000000, 80.000000)">
                <g id="couple-man-woman" transform="translate(491.000000, 0.000000)">
                    <circle id="Oval" cx="112.650002" cy="67.650001" r="67.500001"></circle>
                    <path d="M54.4875008,33.3825005 C86.8911717,66.9486047 136.686858,76.9561221 179.542503,58.5150009" id="Path"></path>
                    <path d="M487.095007,138.390002 C478.107083,123.638446 473.625922,106.581879 474.202507,89.3175013 L474.202507,69.247501 C474.202507,31.1108578 443.286649,0.195000003 405.150006,0.195000003 C367.013363,0.195000003 336.097505,31.1108578 336.097505,69.247501 L336.097505,89.3175013 C336.67409,106.581879 332.192929,123.638446 323.205005,138.390002" id="Path"></path>
                    <path d="M336.097505,80.6550012 C362.615959,80.6119728 387.810277,69.0614986 405.150006,48.9975007 C422.489736,69.0614986 447.684054,80.6119728 474.202507,80.6550012" id="Path"></path>
                    <path d="M344.535005,80.2500012 C347.656244,111.391602 373.863629,135.103596 405.161256,135.103596 C436.458883,135.103596 462.666268,111.391602 465.787507,80.2500012" id="Path"></path>
                    <path d="M112.65,157.650002 C50.5179664,157.650002 0.150000002,208.017969 0.150000002,270.150002 L225.15,270.150002 C225.15,208.017969 174.782037,157.650002 112.65,157.650002 Z" id="Path"></path>
                    <path d="M405.150004,157.650002 C343.017971,157.650002 292.650004,208.017969 292.650004,270.150002 L517.650004,270.150002 C517.650004,208.017969 467.282041,157.650002 405.150004,157.650002 Z" id="Path"></path>
                </g>
                <g id="couple-man-woman-copy-2" transform="translate(491.000000, 598.000000)">
                    <circle id="Oval" cx="112.650002" cy="67.650001" r="67.500001"></circle>
                    <path d="M54.4875008,33.3825005 C86.8911717,66.9486047 136.686858,76.9561221 179.542503,58.5150009" id="Path"></path>
                    <path d="M487.095007,138.390002 C478.107083,123.638446 473.625922,106.581879 474.202507,89.3175013 L474.202507,69.247501 C474.202507,31.1108578 443.286649,0.195000003 405.150006,0.195000003 C367.013363,0.195000003 336.097505,31.1108578 336.097505,69.247501 L336.097505,89.3175013 C336.67409,106.581879 332.192929,123.638446 323.205005,138.390002" id="Path"></path>
                    <path d="M336.097505,80.6550012 C362.615959,80.6119728 387.810277,69.0614986 405.150006,48.9975007 C422.489736,69.0614986 447.684054,80.6119728 474.202507,80.6550012" id="Path"></path>
                    <path d="M344.535005,80.2500012 C347.656244,111.391602 373.863629,135.103596 405.161256,135.103596 C436.458883,135.103596 462.666268,111.391602 465.787507,80.2500012" id="Path"></path>
                    <path d="M112.65,157.650002 C50.5179664,157.650002 0.150000002,208.017969 0.150000002,270.150002 L225.15,270.150002 C225.15,208.017969 174.782037,157.650002 112.65,157.650002 Z" id="Path"></path>
                    <path d="M405.150004,157.650002 C343.017971,157.650002 292.650004,208.017969 292.650004,270.150002 L517.650004,270.150002 C517.650004,208.017969 467.282041,157.650002 405.150004,157.650002 Z" id="Path"></path>
                </g>
                <g id="couple-man-woman-copy" transform="translate(0.000000, 272.000000)">
                    <circle id="Oval" cx="112.650002" cy="67.650001" r="67.500001"></circle>
                    <path d="M54.4875008,33.3825005 C86.8911717,66.9486047 136.686858,76.9561221 179.542503,58.5150009" id="Path"></path>
                    <path d="M487.095007,138.390002 C478.107083,123.638446 473.625922,106.581879 474.202507,89.3175013 L474.202507,69.247501 C474.202507,31.1108578 443.286649,0.195000003 405.150006,0.195000003 C367.013363,0.195000003 336.097505,31.1108578 336.097505,69.247501 L336.097505,89.3175013 C336.67409,106.581879 332.192929,123.638446 323.205005,138.390002" id="Path"></path>
                    <path d="M336.097505,80.6550012 C362.615959,80.6119728 387.810277,69.0614986 405.150006,48.9975007 C422.489736,69.0614986 447.684054,80.6119728 474.202507,80.6550012" id="Path"></path>
                    <path d="M344.535005,80.2500012 C347.656244,111.391602 373.863629,135.103596 405.161256,135.103596 C436.458883,135.103596 462.666268,111.391602 465.787507,80.2500012" id="Path"></path>
                    <path d="M112.65,157.650002 C50.5179664,157.650002 0.150000002,208.017969 0.150000002,270.150002 L225.15,270.150002 C225.15,208.017969 174.782037,157.650002 112.65,157.650002 Z" id="Path"></path>
                    <path d="M405.150004,157.650002 C343.017971,157.650002 292.650004,208.017969 292.650004,270.150002 L517.650004,270.150002 C517.650004,208.017969 467.282041,157.650002 405.150004,157.650002 Z" id="Path"></path>
                </g>
            </g>
        </g>
    </g>
</svg>