<?xml version="1.0" encoding="UTF-8"?>
<svg width="218px" height="252px" viewBox="0 0 218 252" version="1.1" xmlns="http://www.w3.org/2000/svg" xmlns:xlink="http://www.w3.org/1999/xlink">
    <title>Modul 2</title>
    <g id="Modul-2" stroke="none" stroke-width="1" fill="none" fill-rule="evenodd">
        <g id="Modul-Icon" transform="translate(2.000000, 2.000000)">
            <path d="M213.6655,192.5397 C213.6655,202.6307 205.4855,210.8107 195.3945,210.8107 L19.1845,210.8107 C15.6005,210.8107 12.0375,209.9077 9.0115,207.9877 C3.5535,204.5227 0.4205,198.5567 0.49996718,192.2977 L0.49996718,76.6297 C0.49996718,66.5307 8.6755,58.3367 18.7735,58.3097 L36.5615,58.3097 L197.7915,58.3097 C206.5595,58.3097 213.6655,65.4167 213.6655,74.1837 L213.6655,192.2977 L213.6655,186.2077 L213.6655,165.4227" id="Stroke-1" stroke="#000000" stroke-width="5" stroke-linecap="round" stroke-linejoin="round"></path>
            <path d="M195.395,210.810275 C205.466,210.810275 213.639,202.6602 213.666,192.5872 L213.666,186.2072 L0.499480263,186.2072 L0.499480263,192.3462 C0.438,197.2292 2.336,201.9342 5.771,205.4052 C9.207,208.8762 13.891,210.8242 18.774,210.810275 L195.395,210.810275 Z" id="Stroke-3" stroke="#000000" stroke-width="5" fill="#B9C2C6" stroke-linecap="round" stroke-linejoin="round"></path>
            <polygon id="Stroke-5" stroke="#000000" stroke-width="5" stroke-linecap="round" stroke-linejoin="round" points="125.3559 234.9782 88.8129 234.9782 91.8589 210.5692 122.3099 210.5692"></polygon>
            <path d="M146.6713,247.111 L67.4973,247.111 C67.5243,240.403 72.9693,234.978 79.6783,234.978 L134.4903,234.978 C141.1993,234.978 146.6453,240.403 146.6713,247.111 Z" id="Stroke-7" stroke="#000000" stroke-width="5" stroke-linecap="round" stroke-linejoin="round"></path>
            <path d="M195.8696,140.5783 C195.8446,147.3023 190.4136,152.7543 183.6886,152.8073 L31.4306,152.8073 C24.7146,152.7803 19.2756,147.3423 19.2496,140.6263 L19.2496,37.0423 L195.8696,37.0423 L195.8696,140.5783 Z" id="Fill-9" fill="#B9C2C6"></path>
            <path d="M195.8696,140.5783 C195.8446,147.3023 190.4136,152.7543 183.6886,152.8073 L31.4306,152.8073 C24.7146,152.7803 19.2756,147.3423 19.2496,140.6263 L19.2496,37.0423 L195.8696,37.0423 L195.8696,140.5783 Z" id="Stroke-11" stroke="#000000" stroke-width="5" stroke-linecap="round" stroke-linejoin="round"></path>
            <path d="M195.8696,37.0422 L19.2496,37.0422 L19.2496,12.6322 C19.2756,5.9242 24.7226,0.5002 31.4306,0.5002 L183.6886,0.5002 C190.3876,0.5262 195.8166,5.9352 195.8696,12.6322 L195.8696,36.8002 L195.8696,37.0422 Z" id="Fill-13" fill="#8F969B"></path>
            <path d="M195.8696,37.0422 L19.2496,37.0422 L19.2496,12.6322 C19.2756,5.9242 24.7226,0.5002 31.4306,0.5002 L183.6886,0.5002 C190.3876,0.5262 195.8166,5.9352 195.8696,12.6322 L195.8696,36.8002 L195.8696,37.0422 Z" id="Stroke-15" stroke="#000000" stroke-width="5" stroke-linecap="round" stroke-linejoin="round"></path>
            <path d="M37.5209,12.6325 C40.0119,12.6125 42.2679,14.1015 43.2309,16.3995 C44.1939,18.6975 43.6709,21.3495 41.9099,23.1115 C40.1479,24.8735 37.4959,25.3955 35.1979,24.4325 C32.8989,23.4705 31.4109,21.2145 31.4299,18.7225 C31.4569,15.3695 34.1679,12.6585 37.5209,12.6325 Z" id="Stroke-17" stroke="#000000" stroke-width="5" stroke-linecap="round" stroke-linejoin="round"></path>
            <path d="M61.8823,12.6325 C64.3733,12.6125 66.6303,14.1015 67.5923,16.3995 C68.5553,18.6975 68.0323,21.3495 66.2713,23.1115 C64.5093,24.8735 61.8573,25.3955 59.5593,24.4325 C57.2603,23.4705 55.7723,21.2145 55.7913,18.7225 C55.8183,15.3695 58.5293,12.6585 61.8823,12.6325 Z" id="Stroke-19" stroke="#000000" stroke-width="5" stroke-linecap="round" stroke-linejoin="round"></path>
            <path d="M86.2436,12.6325 C88.7346,12.6125 90.9916,14.1015 91.9536,16.3995 C92.9166,18.6975 92.3936,21.3495 90.6326,23.1115 C88.8706,24.8735 86.2186,25.3955 83.9206,24.4325 C81.6226,23.4705 80.1336,21.2145 80.1526,18.7225 C80.1796,15.3695 82.8906,12.6585 86.2436,12.6325 Z" id="Stroke-21" stroke="#000000" stroke-width="5" stroke-linecap="round" stroke-linejoin="round"></path>
            <path d="M138.0112,92.8703 C137.8672,95.4773 135.7852,97.5603 133.1782,97.7033 L118.7252,97.7033 C116.0242,97.6823 113.8032,95.5673 113.650199,92.8703 L113.650199,78.3693 C113.6492,77.0443 114.1912,75.7773 115.150199,74.8633 C116.1102,73.9493 117.4022,73.4693 118.7252,73.5363 L132.9362,73.5363 C135.6062,73.5363 137.7702,75.7003 137.7702,78.3693 L138.0112,92.8703 Z" id="Stroke-25" stroke="#000000" stroke-width="5" stroke-linecap="round" stroke-linejoin="round"></path>
            <path d="M177.599106,92.8703 C177.4461,95.5673 175.2251,97.6823 172.5241,97.7033 L158.3131,97.7033 C155.7051,97.5603 153.6231,95.4773 153.4791,92.8703 L153.4791,78.3693 C153.4791,75.7003 155.6431,73.5363 158.3131,73.5363 L172.5241,73.5363 C173.8471,73.4693 175.1391,73.9493 176.0991,74.8633 C177.0581,75.7773 177.6011,77.0443 177.599106,78.3693 L177.599106,92.8703 Z" id="Stroke-27" stroke="#000000" stroke-width="5" stroke-linecap="round" stroke-linejoin="round"></path>
            <path d="M138.0112,129.3639 C138.0772,130.6869 137.5982,131.9799 136.6842,132.9389 C135.7712,133.8989 134.5032,134.4409 133.1782,134.4399 L118.7252,134.4399 C117.3592,134.5099 116.0272,133.9969 115.0602,133.0299 C114.0922,132.0629 113.5792,130.7309 113.6502,129.3639 L113.6502,115.2019 C113.6502,112.3909 115.9142,110.1049 118.7252,110.0779 L132.9362,110.0779 C135.6522,110.2319 137.7742,112.4819 137.7702,115.2019 L138.0112,129.3639 Z" id="Stroke-31" stroke="#000000" stroke-width="5" stroke-linecap="round" stroke-linejoin="round"></path>
            <path d="M177.5991,129.3639 C177.6691,130.7309 177.1571,132.0629 176.1901,133.0299 C175.2221,133.9969 173.8901,134.5099 172.5241,134.4399 L158.3131,134.4399 C156.9881,134.4409 155.7201,133.8989 154.8061,132.9389 C153.8931,131.9799 153.4121,130.6869 153.4791,129.3639 L153.4791,115.2019 C153.4751,112.4819 155.5971,110.2319 158.3131,110.0779 L172.5241,110.0779 C175.3341,110.1049 177.5991,112.3909 177.5991,115.2019 L177.5991,129.3639 Z" id="Stroke-33" stroke="#000000" stroke-width="5" stroke-linecap="round" stroke-linejoin="round"></path>
            <path d="M61.8823,56.1349 C61.8823,58.8039 59.7183,60.9679 57.0483,60.9679 L42.5963,60.9679 C41.2733,61.0349 39.9803,60.5549 39.0212945,59.6409 C38.0613,58.7269 37.5193,57.4599 37.5212945,56.1349 L37.5212945,54.1049 C37.5193,52.7799 38.0613,51.5119 39.0212945,50.5979 C39.9803,49.6849 41.2733,49.2049 42.5963,49.2709 L56.8073,49.2709 C59.4763,49.2709 61.6403,51.4349 61.6403,54.1049 L61.8823,56.1349 Z" id="Stroke-35" stroke="#000000" stroke-width="5" stroke-linecap="round" stroke-linejoin="round"></path>
            <line x1="37.5209" y1="73.5358" x2="98.5209" y2="73.5358" id="Stroke-39" stroke="#000000" stroke-width="5" stroke-linecap="round" stroke-linejoin="round"></line>
            <line x1="77" y1="55" x2="177.5" y2="55.5" id="Stroke-39-Copy" stroke="#000000" stroke-width="5" stroke-linecap="round" stroke-linejoin="round"></line>
            <line x1="37.5209" y1="85.7648" x2="98.5209" y2="85.7648" id="Stroke-41" stroke="#000000" stroke-width="5" stroke-linecap="round" stroke-linejoin="round"></line>
            <line x1="37.5209" y1="97.9455" x2="98.5209" y2="97.9455" id="Stroke-43" stroke="#000000" stroke-width="5" stroke-linecap="round" stroke-linejoin="round"></line>
            <line x1="37.5209" y1="110.0778" x2="98.5209" y2="110.0778" id="Stroke-45" stroke="#000000" stroke-width="5" stroke-linecap="round" stroke-linejoin="round"></line>
            <line x1="37.5209" y1="122.2585" x2="98.5209" y2="122.2585" id="Stroke-47" stroke="#000000" stroke-width="5" stroke-linecap="round" stroke-linejoin="round"></line>
            <line x1="37.5209" y1="134.4396" x2="75.5209" y2="134.4396" id="Stroke-49" stroke="#000000" stroke-width="5" stroke-linecap="round" stroke-linejoin="round"></line>
            <path d="M107.0844,200.9499 C108.4724,200.9499 109.5984,199.8249 109.5984,198.4359 C109.5984,197.0489 108.4724,195.9229 107.0844,195.9229 C105.6954,195.9229 104.5704,197.0489 104.5704,198.4359 C104.5704,199.8249 105.6954,200.9499 107.0844,200.9499 Z" id="Stroke-51" stroke="#000000" stroke-width="5" stroke-linecap="round" stroke-linejoin="round"></path>
            <g id="Group" transform="translate(106.000000, 103.000000)" fill="#FF0000" fill-rule="nonzero">
                <g id="+">
                    <path d="M23.4580078,32.6357422 L23.4580078,23.5444336 L23.4580078,23.5444336 L32.6069336,23.5444336 C33.7115031,23.5444336 34.6069336,22.6490031 34.6069336,21.5444336 L34.6069336,19.2353516 C34.6069336,18.1307821 33.7115031,17.2353516 32.6069336,17.2353516 L23.4580078,17.2353516 L23.4580078,17.2353516 L23.4580078,8 C23.4580078,6.8954305 22.5625773,6 21.4580078,6 L19.1489258,6 C18.0443563,6 17.1489258,6.8954305 17.1489258,8 L17.1489258,17.2353516 L17.1489258,17.2353516 L8,17.2353516 C6.8954305,17.2353516 6,18.1307821 6,19.2353516 L6,21.5444336 C6,22.6490031 6.8954305,23.5444336 8,23.5444336 L17.1489258,23.5444336 L17.1489258,23.5444336 L17.1489258,32.6357422 C17.1489258,33.7403117 18.0443563,34.6357422 19.1489258,34.6357422 L21.4580078,34.6357422 C22.5625773,34.6357422 23.4580078,33.7403117 23.4580078,32.6357422 Z" transform="translate(20.303467, 20.317871) rotate(-44.000000) translate(-20.303467, -20.317871) "></path>
                </g>
            </g>
            <g id="Group" transform="translate(145.000000, 65.000000)" fill="#FF0000" fill-rule="nonzero">
                <g id="+">
                    <path d="M23.4580078,32.6357422 L23.4580078,23.5444336 L23.4580078,23.5444336 L32.6069336,23.5444336 C33.7115031,23.5444336 34.6069336,22.6490031 34.6069336,21.5444336 L34.6069336,19.2353516 C34.6069336,18.1307821 33.7115031,17.2353516 32.6069336,17.2353516 L23.4580078,17.2353516 L23.4580078,17.2353516 L23.4580078,8 C23.4580078,6.8954305 22.5625773,6 21.4580078,6 L19.1489258,6 C18.0443563,6 17.1489258,6.8954305 17.1489258,8 L17.1489258,17.2353516 L17.1489258,17.2353516 L8,17.2353516 C6.8954305,17.2353516 6,18.1307821 6,19.2353516 L6,21.5444336 C6,22.6490031 6.8954305,23.5444336 8,23.5444336 L17.1489258,23.5444336 L17.1489258,23.5444336 L17.1489258,32.6357422 C17.1489258,33.7403117 18.0443563,34.6357422 19.1489258,34.6357422 L21.4580078,34.6357422 C22.5625773,34.6357422 23.4580078,33.7403117 23.4580078,32.6357422 Z" transform="translate(20.303467, 20.317871) rotate(-44.000000) translate(-20.303467, -20.317871) "></path>
                </g>
            </g>
        </g>
    </g>
</svg>