<?xml version="1.0" encoding="UTF-8"?>
<svg width="1351px" height="732px" viewBox="0 0 1351 732" version="1.1" xmlns="http://www.w3.org/2000/svg" xmlns:xlink="http://www.w3.org/1999/xlink">
    <title>couple-man-woman</title>
    <g id="Page-1" stroke="none" stroke-width="1" fill="none" fill-rule="evenodd" opacity="0.1" stroke-linecap="round" stroke-linejoin="round">
        <g id="Desktp-Startsite-2x" transform="translate(-46.000000, -120.000000)" stroke="#A7AAAB" stroke-width="56.25">
            <g id="couple-man-woman" transform="translate(74.000000, 148.000000)">
                <circle id="Oval" cx="281.625" cy="169.125" r="168.75"></circle>
                <path d="M136.21875,83.45625 C217.227926,167.371509 341.71714,192.390302 448.85625,146.2875" id="Path"></path>
                <path d="M1217.7375,345.975 C1195.26769,309.09611 1184.06479,266.454694 1185.50625,223.29375 L1185.50625,173.11875 C1185.50625,77.7771433 1108.21661,0.4875 1012.875,0.4875 C917.533393,0.4875 840.24375,77.7771433 840.24375,173.11875 L840.24375,223.29375 C841.685213,266.454694 830.48231,309.09611 808.0125,345.975" id="Path"></path>
                <path d="M840.24375,201.6375 C906.539883,201.529929 969.525677,172.653744 1012.875,122.49375 C1056.22432,172.653744 1119.21012,201.529929 1185.50625,201.6375" id="Path"></path>
                <path d="M861.3375,200.625 C869.140597,278.479001 934.659059,337.758985 1012.90313,337.758985 C1091.14719,337.758985 1156.66565,278.479001 1164.46875,200.625" id="Path"></path>
                <path d="M281.625,394.125 C126.294914,394.125 0.375,520.044914 0.375,675.375 L562.875,675.375 C562.875,520.044914 436.955086,394.125 281.625,394.125 Z" id="Path"></path>
                <path d="M1012.875,394.125 C857.544914,394.125 731.625,520.044914 731.625,675.375 L1294.125,675.375 C1294.125,520.044914 1168.20509,394.125 1012.875,394.125 Z" id="Path"></path>
            </g>
        </g>
    </g>
</svg>