<?xml version="1.0" encoding="UTF-8"?>
<svg width="420px" height="164px" viewBox="0 0 420 164" version="1.1" xmlns="http://www.w3.org/2000/svg" xmlns:xlink="http://www.w3.org/1999/xlink">
    <title>voty_logo</title>
    <defs>
        <polygon id="path-1" points="0.000989845095 0.341831325 295.289599 0.341831325 295.289599 126.882058 0.000989845095 126.882058"></polygon>
        <polygon id="path-3" points="0.391186781 0.0499903614 115.561643 0.0499903614 115.561643 138.313253 0.391186781 138.313253"></polygon>
    </defs>
    <g id="Page-1" stroke="none" stroke-width="1" fill="none" fill-rule="evenodd">
        <g id="voty_logo">
            <g id="Fill-1-Clipped" transform="translate(0.971429, 0.608986)">
                <mask id="mask-2" fill="white">
                    <use xlink:href="#path-1"></use>
                </mask>
                <g id="path-1"></g>
                <path d="M159.985693,101.068853 C145.640858,101.068853 135.336571,89.9800819 135.336571,74.8545398 C135.336571,59.7270217 145.640858,48.6362747 159.985693,48.6362747 C174.132559,48.6362747 184.436847,59.7270217 184.436847,74.8545398 C184.436847,89.9800819 174.132559,101.068853 159.985693,101.068853 L159.985693,101.068853 Z M159.985693,22.8230699 C130.488309,22.8230699 107.454614,46.2177687 107.454614,74.8545398 C107.454614,103.489335 130.488309,126.882058 159.985693,126.882058 C189.285108,126.882058 212.520732,103.489335 212.520732,74.8545398 C212.520732,46.2177687 189.285108,22.8230699 159.985693,22.8230699 L159.985693,22.8230699 Z M295.289599,47.9368048 L295.289599,23.7359373 L268.351954,23.7359373 L268.351954,0.341238554 L240.293805,0.341238554 L240.293805,23.7359373 L213.613521,23.7359373 L213.613521,47.9368048 L240.483856,47.9368048 L240.483856,126.111455 L295.289599,126.111455 L295.289599,100.902877 L268.351954,100.902877 L268.351954,47.9368048 L295.289599,47.9368048 Z M83.4488907,23.7359373 L57.5862181,72.7422988 L31.7235454,23.7359373 L0.000989845095,23.7359373 L57.5862181,126.182588 L115.171446,23.7359373 L83.4488907,23.7359373 Z" id="Fill-1" fill="#141412" fill-rule="nonzero" mask="url(#mask-2)"></path>
            </g>
            <g id="Fill-4-Clipped" transform="translate(303.864028, 24.319829)">
                <mask id="mask-4" fill="white">
                    <use xlink:href="#path-3"></use>
                </mask>
                <g id="path-3"></g>
                <polygon id="Fill-4" fill="#141412" fill-rule="nonzero" mask="url(#mask-4)" points="83.8390876 0.0499903614 57.5923551 46.5232434 32.1117627 0.0499903614 0.391186781 0.0499903614 42.0597059 74.1839181 6.01152723 138.313846 38.3477868 138.313846 115.561643 0.0499903614"></polygon>
            </g>
        </g>
    </g>
</svg>