<?xml version="1.0" encoding="UTF-8"?>
<svg width="218px" height="252px" viewBox="0 0 218 252" version="1.1" xmlns="http://www.w3.org/2000/svg" xmlns:xlink="http://www.w3.org/1999/xlink">
    <title>Modul 3</title>
    <g id="Modul-3" stroke="none" stroke-width="1" fill="none" fill-rule="evenodd">
        <g id="Modul-Icon" transform="translate(2.000000, 2.000000)">
            <path d="M213.6655,192.5397 C213.6655,202.6307 205.4855,210.8107 195.3945,210.8107 L19.1845,210.8107 C15.6005,210.8107 12.0375,209.9077 9.0115,207.9877 C3.5535,204.5227 0.4205,198.5567 0.49996718,192.2977 L0.49996718,76.6297 C0.49996718,66.5307 8.6755,58.3367 18.7735,58.3097 L36.5615,58.3097 L197.7915,58.3097 C206.5595,58.3097 213.6655,65.4167 213.6655,74.1837 L213.6655,192.2977 L213.6655,186.2077 L213.6655,165.4227" id="Stroke-1" stroke="#000000" stroke-width="5" stroke-linecap="round" stroke-linejoin="round"></path>
            <path d="M195.395,210.810275 C205.466,210.810275 213.639,202.6602 213.666,192.5872 L213.666,186.2072 L0.499480263,186.2072 L0.499480263,192.3462 C0.438,197.2292 2.336,201.9342 5.771,205.4052 C9.207,208.8762 13.891,210.8242 18.774,210.810275 L195.395,210.810275 Z" id="Stroke-3" stroke="#000000" stroke-width="5" fill="#B9C2C6" stroke-linecap="round" stroke-linejoin="round"></path>
            <polygon id="Stroke-5" stroke="#000000" stroke-width="5" fill="#DEE4E7" stroke-linecap="round" stroke-linejoin="round" points="125.3559 234.9782 88.8129 234.9782 91.8589 210.9782 122.3099 210.9782"></polygon>
            <path d="M146.6713,247.111 L67.4973,247.111 C67.5243,240.403 72.9693,234.978 79.6783,234.978 L134.4903,234.978 C141.1993,234.978 146.6453,240.403 146.6713,247.111 Z" id="Stroke-7" stroke="#000000" stroke-width="5" fill="#DEE4E7" stroke-linecap="round" stroke-linejoin="round"></path>
            <path d="M195.8696,140.5783 C195.8446,147.3023 190.4136,152.7543 183.6886,152.8073 L31.4306,152.8073 C24.7146,152.7803 19.2756,147.3423 19.2496,140.6263 L19.2496,37.0423 L195.8696,37.0423 L195.8696,140.5783 Z" id="Fill-9" fill="#DEE4E7"></path>
            <path d="M195.8696,140.5783 C195.8446,147.3023 190.4136,152.7543 183.6886,152.8073 L31.4306,152.8073 C24.7146,152.7803 19.2756,147.3423 19.2496,140.6263 L19.2496,37.0423 L195.8696,37.0423 L195.8696,140.5783 Z" id="Stroke-11" stroke="#000000" stroke-width="5" stroke-linecap="round" stroke-linejoin="round"></path>
            <path d="M195.8696,37.0422 L19.2496,37.0422 L19.2496,12.6322 C19.2756,5.9242 24.7226,0.5002 31.4306,0.5002 L183.6886,0.5002 C190.3876,0.5262 195.8166,5.9352 195.8696,12.6322 L195.8696,36.8002 L195.8696,37.0422 Z" id="Fill-13" fill="#ABB7BC"></path>
            <path d="M195.8696,37.0422 L19.2496,37.0422 L19.2496,12.6322 C19.2756,5.9242 24.7226,0.5002 31.4306,0.5002 L183.6886,0.5002 C190.3876,0.5262 195.8166,5.9352 195.8696,12.6322 L195.8696,36.8002 L195.8696,37.0422 Z" id="Stroke-15" stroke="#000000" stroke-width="5" stroke-linecap="round" stroke-linejoin="round"></path>
            <path d="M37.5209,12.6325 C40.0119,12.6125 42.2679,14.1015 43.2309,16.3995 C44.1939,18.6975 43.6709,21.3495 41.9099,23.1115 C40.1479,24.8735 37.4959,25.3955 35.1979,24.4325 C32.8989,23.4705 31.4109,21.2145 31.4299,18.7225 C31.4569,15.3695 34.1679,12.6585 37.5209,12.6325 Z" id="Stroke-17" stroke="#000000" stroke-width="5" stroke-linecap="round" stroke-linejoin="round"></path>
            <path d="M61.8823,12.6325 C64.3733,12.6125 66.6303,14.1015 67.5923,16.3995 C68.5553,18.6975 68.0323,21.3495 66.2713,23.1115 C64.5093,24.8735 61.8573,25.3955 59.5593,24.4325 C57.2603,23.4705 55.7723,21.2145 55.7913,18.7225 C55.8183,15.3695 58.5293,12.6585 61.8823,12.6325 Z" id="Stroke-19" stroke="#000000" stroke-width="5" stroke-linecap="round" stroke-linejoin="round"></path>
            <path d="M86.2436,12.6325 C88.7346,12.6125 90.9916,14.1015 91.9536,16.3995 C92.9166,18.6975 92.3936,21.3495 90.6326,23.1115 C88.8706,24.8735 86.2186,25.3955 83.9206,24.4325 C81.6226,23.4705 80.1336,21.2145 80.1526,18.7225 C80.1796,15.3695 82.8906,12.6585 86.2436,12.6325 Z" id="Stroke-21" stroke="#000000" stroke-width="5" stroke-linecap="round" stroke-linejoin="round"></path>
            <path d="M61.8823,56.1349 C61.8823,58.8039 59.7183,60.9679 57.0483,60.9679 L42.5963,60.9679 C41.2733,61.0349 39.9803,60.5549 39.0212945,59.6409 C38.0613,58.7269 37.5193,57.4599 37.5212945,56.1349 L37.5212945,54.1049 C37.5193,52.7799 38.0613,51.5119 39.0212945,50.5979 C39.9803,49.6849 41.2733,49.2049 42.5963,49.2709 L56.8073,49.2709 C59.4763,49.2709 61.6403,51.4349 61.6403,54.1049 L61.8823,56.1349 Z" id="Stroke-35" stroke="#000000" stroke-width="5" stroke-linecap="round" stroke-linejoin="round"></path>
            <line x1="37.5209" y1="73.5358" x2="61.8819" y2="73.5358" id="Stroke-39" stroke="#000000" stroke-width="5" stroke-linecap="round" stroke-linejoin="round"></line>
            <line x1="37.5209" y1="85.7648" x2="61.8819" y2="85.7648" id="Stroke-41" stroke="#000000" stroke-width="5" stroke-linecap="round" stroke-linejoin="round"></line>
            <line x1="37.5209" y1="97.9455" x2="61.8819" y2="97.9455" id="Stroke-43" stroke="#000000" stroke-width="5" stroke-linecap="round" stroke-linejoin="round"></line>
            <line x1="37.5209" y1="110.0778" x2="61.8819" y2="110.0778" id="Stroke-45" stroke="#000000" stroke-width="5" stroke-linecap="round" stroke-linejoin="round"></line>
            <line x1="37.5209" y1="122.2585" x2="61.8819" y2="122.2585" id="Stroke-47" stroke="#000000" stroke-width="5" stroke-linecap="round" stroke-linejoin="round"></line>
            <line x1="37.5209" y1="134.4396" x2="52.7469" y2="134.4396" id="Stroke-49" stroke="#000000" stroke-width="5" stroke-linecap="round" stroke-linejoin="round"></line>
            <path d="M107.0844,200.9499 C108.4724,200.9499 109.5984,199.8249 109.5984,198.4359 C109.5984,197.0489 108.4724,195.9229 107.0844,195.9229 C105.6954,195.9229 104.5704,197.0489 104.5704,198.4359 C104.5704,199.8249 105.6954,200.9499 107.0844,200.9499 Z" id="Stroke-51" stroke="#000000" stroke-width="5" stroke-linecap="round" stroke-linejoin="round"></path>
        </g>
        <g id="Content" transform="translate(88.000000, 47.000000)" stroke="#000000" stroke-width="4.27999973">
            <path d="M45.0012763,48.2252874 C49.2049884,48.2734621 52.6399965,44.8837157 52.6399965,40.6925177 L52.6399965,19.0971487 C52.6399965,14.9322278 49.2576995,11.5599995 45.0847356,11.5599995 L7.76526072,11.5599995 C3.59229684,11.5599995 0.2099998,14.9322278 0.2099998,19.0971487 L0.2099998,40.6925177 C0.2099998,44.8530591 3.59229684,48.2252874 7.76526072,48.2252874 L28.577369,48.2252874 C29.4031766,48.2252874 30.0708508,48.890974 30.0708508,49.7143233 L33.365296,58.8499963 L41.9176756,48.501197 L45.0012763,48.2252874 Z" id="Bubble-links" fill="#ABB7BC"></path>
            <path d="M50.5093575,35.7352879 C46.3009003,35.7834626 42.8699973,32.3980957 42.8699973,28.2025182 L42.8699973,7.60714916 C42.8699973,3.44660775 46.2525777,0.0699999332 50.4214983,0.0699999332 L87.748493,0.0699999332 C91.9218065,0.0699999332 95.299994,3.44660775 95.299994,7.60714916 L95.299994,28.2025182 C95.299994,32.3630596 91.9218065,35.7352879 87.748493,35.7352879 L66.930248,35.7352879 C66.1087641,35.7352879 65.436641,36.4009745 65.436641,37.2243238 L65.436641,46.3599968 L53.5932165,36.0111975 L50.5093575,35.7352879 Z" id="Bubble-rechts" fill="#B9C2C6"></path>
        </g>
        <g id="Haken-grün" transform="translate(145.000000, 55.000000)" fill="#2EBA09">
            <path d="M5.23760813,7.8820655 L8.73101763,11.740081 L20.1272308,0.524128225 C20.8400361,-0.174709408 21.9960363,-0.174709408 22.7125349,0.524128225 L24.908079,2.67110695 C25.6245775,3.3735655 25.6245775,4.50691358 24.908079,5.20575121 L10.4562291,19.3744127 C9.69541105,20.1203223 8.46554496,20.1203223 7.70472689,19.3744127 L0.441986777,12.2631521 C-0.160019748,11.6729421 -0.145246581,10.7061563 0.475226401,10.13043 L2.99208686,7.85309814 C3.30871132,7.55901593 3.71723638,7.41510001 4.12365306,7.4208941 C4.52789269,7.42665716 4.93004648,7.58053062 5.23760813,7.8820655 Z" id="Stroke-7"></path>
        </g>
        <g id="Group" transform="translate(89.059600, 57.000000)" fill="#D90000" fill-rule="nonzero">
            <g id="Kreuz">
                <path d="M23.4580078,32.6357422 L23.4580078,23.5444336 L23.4580078,23.5444336 L32.6069336,23.5444336 C33.7115031,23.5444336 34.6069336,22.6490031 34.6069336,21.5444336 L34.6069336,19.2353516 C34.6069336,18.1307821 33.7115031,17.2353516 32.6069336,17.2353516 L23.4580078,17.2353516 L23.4580078,17.2353516 L23.4580078,8 C23.4580078,6.8954305 22.5625773,6 21.4580078,6 L19.1489258,6 C18.0443563,6 17.1489258,6.8954305 17.1489258,8 L17.1489258,17.2353516 L17.1489258,17.2353516 L8,17.2353516 C6.8954305,17.2353516 6,18.1307821 6,19.2353516 L6,21.5444336 C6,22.6490031 6.8954305,23.5444336 8,23.5444336 L17.1489258,23.5444336 L17.1489258,23.5444336 L17.1489258,32.6357422 C17.1489258,33.7403117 18.0443563,34.6357422 19.1489258,34.6357422 L21.4580078,34.6357422 C22.5625773,34.6357422 23.4580078,33.7403117 23.4580078,32.6357422 Z" transform="translate(20.303467, 20.317871) rotate(-44.000000) translate(-20.303467, -20.317871) "></path>
            </g>
        </g>
        <g id="couple-man-woman" transform="translate(85.000000, 102.000000)" stroke="#000000" stroke-linecap="round" stroke-linejoin="round" stroke-width="4.28">
            <g id="Boy" transform="translate(0.791667, 0.791667)">
                <circle id="Oval" cx="18" cy="11" r="11"></circle>
                <path d="M8,6 C13.182307,11.876442 21.1461127,13.6284652 28,10.3999649" id="Path"></path>
                <path d="M18.5,26 C8.28273213,26 0,34.0588745 0,44 L37,44 C37,34.0588745 28.7172679,26 18.5,26 Z" id="Path"></path>
            </g>
            <g id="Girl" transform="translate(55.375000, 1.798833)">
                <path d="M30.9671667,22.0088333 C29.5357566,19.6595114 28.8220902,16.9430953 28.9139167,14.1935833 L28.9139167,10.99725 C28.9139167,4.92363653 23.9902801,-7.10542736e-15 17.9166667,-7.10542736e-15 C11.8430532,-7.10542736e-15 6.91941667,4.92363653 6.91941667,10.99725 L6.91941667,14.1935833 C7.01124318,16.9430953 6.29757676,19.6595114 4.86616667,22.0088333" id="Path"></path>
                <path d="M6.91941667,12.814 C11.1427259,12.8071473 15.1551542,10.9676274 17.9166667,7.77225 C20.6781791,10.9676274 24.6906075,12.8071473 28.9139167,12.814" id="Path"></path>
                <path d="M8.26316667,12.7495 C8.76025286,17.7090882 12.9340215,21.4854427 17.9184583,21.4854427 C22.9028951,21.4854427 27.0766638,17.7090882 27.57375,12.7495" id="Path"></path>
                <path d="M17.9166667,25.0761667 C8.0215649,25.0761667 7.46069873e-14,33.0977316 7.46069873e-14,42.9928333 L35.8333333,42.9928333 C35.8333333,33.0977316 27.8117684,25.0761667 17.9166667,25.0761667 Z" id="Path"></path>
            </g>
        </g>
    </g>
</svg>