<svg xmlns="http://www.w3.org/2000/svg" xmlns:xlink="http://www.w3.org/1999/xlink" width="202" height="155" viewBox="0 0 202 155">
  <defs>
    <linearGradient id="voty_now-a" x1="50%" x2="50%" y1="0%" y2="100%">
      <stop offset="0%"/>
      <stop offset="100%"/>
    </linearGradient>
    <path id="voty_now-b" d="M112.608284,35.586321 C112.608284,38.2372878 110.011535,40.386321 106.808284,40.386321 L95.2082839,40.386321 L88.3017099,51.2172817 L80.7082839,40.386321 L60.4082839,40.386321 C57.2050323,40.386321 54.6082839,38.2372878 54.6082839,35.586321 L54.6082839,6.78632097 C54.6082839,4.13535417 57.2050323,1.98632097 60.4082839,1.98632097 L106.808284,1.98632097 C110.011535,1.98632097 112.608284,4.13535417 112.608284,6.78632097 L112.608284,35.586321 Z"/>
  </defs>
  <g fill="none" fill-rule="evenodd">
    <g stroke-linecap="round" stroke-linejoin="round" transform="translate(18 18)">
      <path stroke="#000" stroke-width="6" d="M50.54,14.6022736 C45.3327425,5.56740366 35.6980586,3.55271368e-15 25.27,3.55271368e-15 C14.8419414,3.55271368e-15 5.20725751,5.56740366 -3.55271368e-15,14.6022736" transform="translate(8.917 119.195)"/>
      <path stroke="#000" stroke-width="5.515" d="M46.4511817,13.4209115 C41.665205,5.11698613 32.8099923,0 23.2255909,0 C13.6411895,0 4.78597675,5.11698613 0,13.4209115" transform="translate(58 95)"/>
      <g stroke="#000" transform="translate(11.68 70.447)">
        <path stroke-width="5" d="M6.27631011,16.5868461 C14.6594422,25.2258269 27.4974956,27.8092068 38.5696434,23.0851795" transform="rotate(-23 22.423 21.003)"/>
        <path stroke-width="6" d="M6.07002663,23.5407316 C6.07002663,33.2057148 13.9050435,41.0407316 23.5700266,41.0407316 C33.2350098,41.0407316 41.0700266,33.2057148 41.0700266,23.5407316 C41.0700266,13.8757485 33.2350098,6.04073164 23.5700266,6.04073164 C13.9050435,6.04073164 6.07002663,13.8757485 6.07002663,23.5407316 Z" transform="rotate(-23 23.57 23.54)"/>
      </g>
      <g stroke="#000" transform="translate(67.68 56.447)">
        <path stroke-width="4.595" d="M1,9 C8.78779821,16.8243404 20.7141484,19.1641123 31,14.8855522"/>
        <path stroke-width="5.515" d="M0,16 C0,24.836556 7.163444,32 16,32 C24.836556,32 32,24.836556 32,16 C32,7.163444 24.836556,0 16,0 C7.163444,0 0,7.163444 0,16 Z"/>
      </g>
      <path stroke="url(#voty_now-a)" stroke-width="6" d="M158.083333,133.7975 C152.876076,124.76263 143.241392,119.195226 132.813333,119.195226 C122.385275,119.195226 112.750591,124.76263 107.543333,133.7975"/>
      <path fill="#FFF" stroke="#000" stroke-width="5" d="M61.0839758,53.9992672 C61.0839758,56.7606909 58.4872274,58.9992672 55.2839758,58.9992672 L43.6839758,58.9992672 L41.9437957,70.6226755 L29.1839758,58.9992672 L8.88397582,58.9992672 C5.68072427,58.9992672 3.08397582,56.7606909 3.08397582,53.9992672 L3.08397582,23.9992672 C3.08397582,21.2378434 5.68072427,18.9992672 8.88397582,18.9992672 L55.2839758,18.9992672 C58.4872274,18.9992672 61.0839758,21.2378434 61.0839758,23.9992672 L61.0839758,53.9992672 Z" transform="rotate(-7 32.084 44.811)"/>
      <path stroke="#78C539" stroke-width="5.833" d="M42.8763517,30.87782 L31.577185,45.94532 C31.0693934,46.6221618 30.2926957,47.0451232 29.44863,47.1044541 C28.6045643,47.163785 27.776335,46.8536367 27.1788517,46.2544867 L21.3455183,40.4211534" transform="rotate(-6 32.11 38.995)"/>
      <path fill="#FFF" stroke="#000" stroke-width="5" d="M163.678938,54.9887883 C163.678938,57.750212 161.08219,59.9887883 157.878938,59.9887883 L146.278938,59.9887883 L144.498535,71.1940138 L131.778938,59.9887883 L111.478938,59.9887883 C108.275686,59.9887883 105.678938,57.750212 105.678938,54.9887883 L105.678938,24.9887883 C105.678938,22.2273645 108.275686,19.9887883 111.478938,19.9887883 L157.878938,19.9887883 C161.08219,19.9887883 163.678938,22.2273645 163.678938,24.9887883 L163.678938,54.9887883 Z" transform="scale(-1 1) rotate(-4 0 3902.292)"/>
      <g transform="scale(-1 1) rotate(-4 0 2420.83)">
        <use fill="#D8D8D8" xlink:href="#voty_now-b"/>
        <use fill="#FFF" stroke="#000" stroke-width="5" xlink:href="#voty_now-b"/>
      </g>
    </g>
    <g stroke="#010204" stroke-linecap="round" stroke-linejoin="round" transform="rotate(-1 5522.96 -7383.262)">
      <path stroke-width="6" d="M41.3838816,35.0315326 C39.1247907,31.3247144 37.9984271,27.0372144 38.1431998,22.6988053 L38.1431998,17.6540326 C38.1431998,8.07039626 30.3731998,0.300396257 20.7895634,0.300396257 C11.2043362,0.300396257 3.43433617,8.07039626 3.43433617,17.6540326 L3.43433617,22.6988053 C3.5791089,27.0372144 2.45274526,31.3247144 0.193654353,35.0315326"/>
      <path stroke-width="5" d="M3.43513163,20.5213281 C10.0978589,20.5101917 16.431268,17.6067826 20.788768,12.5651917 C25.146268,17.6067826 31.4796771,20.5101917 38.1424044,20.5213281"/>
      <path stroke-width="6" d="M5.55581344,20.419669 C6.33854072,28.2453508 12.9264953,34.2064872 20.7919498,34.2064872 C28.6574044,34.2064872 35.243768,28.2453508 36.0280862,20.419669"/>
    </g>
    <path stroke="#E02212" stroke-linecap="round" stroke-linejoin="round" stroke-width="5.833" d="M17.5,0 L0,17.5 M0,0 L17.5,17.5" transform="translate(144.167 47.863)"/>
    <path fill="#888" fill-rule="nonzero" d="M103.331,42.972 C103.257,42.306 103.337167,41.7016667 103.5715,41.159 C103.805833,40.6163333 104.108,40.1106667 104.478,39.642 C104.848,39.1733333 105.261167,38.717 105.7175,38.273 C106.173833,37.829 106.593167,37.3603333 106.9755,36.867 C107.357833,36.3736667 107.684667,35.8371667 107.956,35.2575 C108.227333,34.6778333 108.363,34.018 108.363,33.278 C108.363,32.1186667 108.171833,31.1258333 107.7895,30.2995 C107.407167,29.4731667 106.883,28.801 106.217,28.283 C105.551,27.765 104.774,27.3826667 103.886,27.136 C102.998,26.8893333 102.048333,26.766 101.037,26.766 C99.557,26.766 98.1941667,27.0866667 96.9485,27.728 C95.7028333,28.3693333 94.6236667,29.208 93.711,30.244 L93.711,30.244 L97.189,33.426 C97.6823333,32.982 98.151,32.612 98.595,32.316 C99.039,32.02 99.5816667,31.872 100.223,31.872 C100.790333,31.872 101.2775,32.0138333 101.6845,32.2975 C102.0915,32.5811667 102.295,33.056 102.295,33.722 C102.295,34.1166667 102.1655,34.5051667 101.9065,34.8875 C101.6475,35.2698333 101.333,35.6706667 100.963,36.09 C100.593,36.5093333 100.192167,36.9533333 99.7605,37.422 C99.3288333,37.8906667 98.9465,38.4025 98.6135,38.9575 C98.2805,39.5125 98.0276667,40.123 97.855,40.789 C97.6823333,41.455 97.6576667,42.1826667 97.781,42.972 L97.781,42.972 L103.331,42.972 Z M100.519,52.444 C101.604333,52.444 102.492333,52.074 103.183,51.334 C103.873667,50.594 104.219,49.6813333 104.219,48.596 C104.219,47.5106667 103.873667,46.598 103.183,45.858 C102.492333,45.118 101.604333,44.748 100.519,44.748 C99.4336667,44.748 98.5456667,45.118 97.855,45.858 C97.1643333,46.598 96.819,47.5106667 96.819,48.596 C96.819,49.6813333 97.1643333,50.594 97.855,51.334 C98.5456667,52.074 99.4336667,52.444 100.519,52.444 Z"/>
  </g>
</svg>
