<?xml version="1.0" encoding="UTF-8"?>
<svg width="328px" height="378px" viewBox="0 0 328 378" version="1.1" xmlns="http://www.w3.org/2000/svg" xmlns:xlink="http://www.w3.org/1999/xlink">
    <title>Modul Icon</title>
    <g id="Desktop-/-Schüler" stroke="none" stroke-width="1" fill="none" fill-rule="evenodd">
        <g id="Startseite-Desktop-" transform="translate(-556.000000, -392.000000)">
            <g id="Container-Module" transform="translate(157.000000, 298.000000)">
                <g id="Container-Modul-2" transform="translate(326.000000, 79.000000)">
                    <g id="Modul-Icon" transform="translate(73.500000, 15.000000)">
                        <g transform="translate(3.000000, 3.000000)">
                            <path d="M320.49825,288.80955 C320.49825,303.94605 308.22825,316.21605 293.09175,316.21605 L28.77675,316.21605 C23.40075,316.21605 18.05625,314.86155 13.51725,311.98155 C5.33025,306.78405 0.63075,297.83505 0.749950771,288.44655 L0.749950771,114.94455 C0.749950771,99.79605 13.01325,87.50505 28.16025,87.46455 L54.84225,87.46455 L296.68725,87.46455 C309.83925,87.46455 320.49825,98.12505 320.49825,111.27555 L320.49825,288.44655 L320.49825,279.31155 L320.49825,248.13405" id="Stroke-1" stroke="#000000" stroke-width="7.5" fill="#FFFFFF" stroke-linecap="round" stroke-linejoin="round"></path>
                            <path d="M293.0925,316.215412 C308.199,316.215412 320.4585,303.9903 320.499,288.8808 L320.499,279.3108 L0.749220394,279.3108 L0.749220394,288.5193 C0.657,295.8438 3.504,302.9013 8.6565,308.1078 C13.8105,313.3143 20.8365,316.2363 28.161,316.215412 L293.0925,316.215412 Z" id="Stroke-3" stroke="#000000" stroke-width="7.5" fill="#B9C2C6" stroke-linecap="round" stroke-linejoin="round"></path>
                            <polygon id="Stroke-5" stroke="#000000" stroke-width="7.5" fill="#DEE4E7" stroke-linecap="round" stroke-linejoin="round" points="188.03385 352.4673 133.21935 352.4673 137.78835 316.4673 183.46485 316.4673"></polygon>
                            <path d="M220.00695,370.6665 L101.24595,370.6665 C101.28645,360.6045 109.45395,352.467 119.51745,352.467 L201.73545,352.467 C211.79895,352.467 219.96795,360.6045 220.00695,370.6665 Z" id="Stroke-7" stroke="#000000" stroke-width="7.5" fill="#DEE4E7" stroke-linecap="round" stroke-linejoin="round"></path>
                            <path d="M293.8044,210.86745 C293.7669,220.95345 285.6204,229.13145 275.5329,229.21095 L47.1459,229.21095 C37.0719,229.17045 28.9134,221.01345 28.8744,210.93945 L28.8744,55.56345 L293.8044,55.56345 L293.8044,210.86745 Z" id="Fill-9" fill="#E3EAED"></path>
                            <path d="M293.8044,210.86745 C293.7669,220.95345 285.6204,229.13145 275.5329,229.21095 L47.1459,229.21095 C37.0719,229.17045 28.9134,221.01345 28.8744,210.93945 L28.8744,55.56345 L293.8044,55.56345 L293.8044,210.86745 Z" id="Stroke-11" stroke="#000000" stroke-width="7.5" stroke-linecap="round" stroke-linejoin="round"></path>
                            <path d="M293.8044,55.5633 L28.8744,55.5633 L28.8744,18.9483 C28.9134,8.8863 37.0839,0.7503 47.1459,0.7503 L275.5329,0.7503 C285.5814,0.7893 293.7249,8.9028 293.8044,18.9483 L293.8044,55.2003 L293.8044,55.5633 Z" id="Fill-13" fill="#ABB7BC"></path>
                            <path d="M293.8044,55.5633 L28.8744,55.5633 L28.8744,18.9483 C28.9134,8.8863 37.0839,0.7503 47.1459,0.7503 L275.5329,0.7503 C285.5814,0.7893 293.7249,8.9028 293.8044,18.9483 L293.8044,55.2003 L293.8044,55.5633 Z" id="Stroke-15" stroke="#000000" stroke-width="7.5" stroke-linecap="round" stroke-linejoin="round"></path>
                            <path d="M56.28135,18.94875 C60.01785,18.91875 63.40185,21.15225 64.84635,24.59925 C66.29085,28.04625 65.50635,32.02425 62.86485,34.66725 C60.22185,37.31025 56.24385,38.09325 52.79685,36.64875 C49.34835,35.20575 47.11635,31.82175 47.14485,28.08375 C47.18535,23.05425 51.25185,18.98775 56.28135,18.94875 Z" id="Stroke-17" stroke="#000000" stroke-width="7.5" stroke-linecap="round" stroke-linejoin="round"></path>
                            <path d="M92.82345,18.94875 C96.55995,18.91875 99.94545,21.15225 101.38845,24.59925 C102.83295,28.04625 102.04845,32.02425 99.40695,34.66725 C96.76395,37.31025 92.78595,38.09325 89.33895,36.64875 C85.89045,35.20575 83.65845,31.82175 83.68695,28.08375 C83.72745,23.05425 87.79395,18.98775 92.82345,18.94875 Z" id="Stroke-19" stroke="#000000" stroke-width="7.5" stroke-linecap="round" stroke-linejoin="round"></path>
                            <path d="M129.3654,18.94875 C133.1019,18.91875 136.4874,21.15225 137.9304,24.59925 C139.3749,28.04625 138.5904,32.02425 135.9489,34.66725 C133.3059,37.31025 129.3279,38.09325 125.8809,36.64875 C122.4339,35.20575 120.2004,31.82175 120.2289,28.08375 C120.2694,23.05425 124.3359,18.98775 129.3654,18.94875 Z" id="Stroke-21" stroke="#000000" stroke-width="7.5" stroke-linecap="round" stroke-linejoin="round"></path>
                            <path d="M207.0168,139.30545 C206.8008,143.21595 203.6778,146.34045 199.7673,146.55495 L178.0878,146.55495 C174.0363,146.52345 170.7048,143.35095 170.475298,139.30545 L170.475298,117.55395 C170.4738,115.56645 171.2868,113.66595 172.7253,112.29495 C174.1653,110.92395 176.1033,110.20395 178.0878,110.30445 L199.4043,110.30445 C203.4093,110.30445 206.6553,113.55045 206.6553,117.55395 L207.0168,139.30545 Z" id="Stroke-25" stroke="#000000" stroke-width="7.5" fill="#B9C2C6" stroke-linecap="round" stroke-linejoin="round"></path>
                            <path d="M266.398658,139.30545 C266.16915,143.35095 262.83765,146.52345 258.78615,146.55495 L237.46965,146.55495 C233.55765,146.34045 230.43465,143.21595 230.21865,139.30545 L230.21865,117.55395 C230.21865,113.55045 233.46465,110.30445 237.46965,110.30445 L258.78615,110.30445 C260.77065,110.20395 262.70865,110.92395 264.14865,112.29495 C265.58715,113.66595 266.40165,115.56645 266.398658,117.55395 L266.398658,139.30545 Z" id="Stroke-27" stroke="#000000" stroke-width="7.5" fill="#B9C2C6" stroke-linecap="round" stroke-linejoin="round"></path>
                            <path d="M207.0168,194.04585 C207.1158,196.03035 206.3973,197.96985 205.0263,199.40835 C203.6568,200.84835 201.7548,201.66135 199.7673,201.65985 L178.0878,201.65985 C176.0388,201.76485 174.0408,200.99535 172.5903,199.54485 C171.1383,198.09435 170.3688,196.09635 170.4753,194.04585 L170.4753,172.80285 C170.4753,168.58635 173.8713,165.15735 178.0878,165.11685 L199.4043,165.11685 C203.4783,165.34785 206.6613,168.72285 206.6553,172.80285 L207.0168,194.04585 Z" id="Stroke-31" stroke="#000000" stroke-width="7.5" fill="#B9C2C6" stroke-linecap="round" stroke-linejoin="round"></path>
                            <path d="M266.39865,194.04585 C266.50365,196.09635 265.73565,198.09435 264.28515,199.54485 C262.83315,200.99535 260.83515,201.76485 258.78615,201.65985 L237.46965,201.65985 C235.48215,201.66135 233.58015,200.84835 232.20915,199.40835 C230.83965,197.96985 230.11815,196.03035 230.21865,194.04585 L230.21865,172.80285 C230.21265,168.72285 233.39565,165.34785 237.46965,165.11685 L258.78615,165.11685 C263.00115,165.15735 266.39865,168.58635 266.39865,172.80285 L266.39865,194.04585 Z" id="Stroke-33" stroke="#000000" stroke-width="7.5" fill="#B9C2C6" stroke-linecap="round" stroke-linejoin="round"></path>
                            <path d="M92.82345,84.20235 C92.82345,88.20585 89.57745,91.45185 85.57245,91.45185 L63.89445,91.45185 C61.90995,91.55235 59.97045,90.83235 58.53195,89.46135 C57.09195,88.09035 56.27895,86.18985 56.2819417,84.20235 L56.2819417,81.15735 C56.27895,79.16985 57.09195,77.26785 58.53195,75.89685 C59.97045,74.52735 61.90995,73.80735 63.89445,73.90635 L85.21095,73.90635 C89.21445,73.90635 92.46045,77.15235 92.46045,81.15735 L92.82345,84.20235 Z" id="Stroke-35" stroke="#000000" stroke-width="7.5" stroke-linecap="round" stroke-linejoin="round"></path>
                            <line x1="56.28135" y1="110.3037" x2="147.78135" y2="110.3037" id="Stroke-39" stroke="#000000" stroke-width="7.5" stroke-linecap="round" stroke-linejoin="round"></line>
                            <line x1="115.5" y1="82.5" x2="266.25" y2="83.25" id="Stroke-39-Copy" stroke="#000000" stroke-width="7.5" stroke-linecap="round" stroke-linejoin="round"></line>
                            <line x1="56.28135" y1="128.6472" x2="147.78135" y2="128.6472" id="Stroke-41" stroke="#000000" stroke-width="7.5" stroke-linecap="round" stroke-linejoin="round"></line>
                            <line x1="56.28135" y1="146.91825" x2="147.78135" y2="146.91825" id="Stroke-43" stroke="#000000" stroke-width="7.5" stroke-linecap="round" stroke-linejoin="round"></line>
                            <line x1="56.28135" y1="165.1167" x2="147.78135" y2="165.1167" id="Stroke-45" stroke="#000000" stroke-width="7.5" stroke-linecap="round" stroke-linejoin="round"></line>
                            <line x1="56.28135" y1="183.38775" x2="147.78135" y2="183.38775" id="Stroke-47" stroke="#000000" stroke-width="7.5" stroke-linecap="round" stroke-linejoin="round"></line>
                            <line x1="56.28135" y1="201.6594" x2="113.28135" y2="201.6594" id="Stroke-49" stroke="#000000" stroke-width="7.5" stroke-linecap="round" stroke-linejoin="round"></line>
                            <path d="M160.6266,301.42485 C162.7086,301.42485 164.3976,299.73735 164.3976,297.65385 C164.3976,295.57335 162.7086,293.88435 160.6266,293.88435 C158.5431,293.88435 156.8556,295.57335 156.8556,297.65385 C156.8556,299.73735 158.5431,301.42485 160.6266,301.42485 Z" id="Stroke-51" stroke="#000000" stroke-width="7.5" stroke-linecap="round" stroke-linejoin="round"></path>
                        </g>
                        <g id="Haken-grün" transform="translate(238.500000, 112.500000)" fill="#2EBA09">
                            <path d="M7.8564122,12.3861029 L13.0965264,18.4486988 L30.1908462,0.823630068 C31.2600541,-0.274543356 32.9940545,-0.274543356 34.0688023,0.823630068 L37.3621185,4.19745377 C38.4368663,5.30131722 38.4368663,7.08229277 37.3621185,8.18046619 L15.6843437,30.4455056 C14.5431166,31.6176493 12.6983174,31.6176493 11.5570903,30.4455056 L0.662980165,19.2706676 C-0.240029622,18.3431947 -0.217869872,16.82396 0.712839601,15.9192471 L4.48813029,12.3405828 C4.96306698,11.8784536 5.57585456,11.6523 6.18547959,11.661405 C6.79183904,11.6704612 7.39506972,11.9122624 7.8564122,12.3861029 Z" id="Stroke-7"></path>
                        </g>
                        <g id="Group" transform="translate(162.000000, 157.500000)" fill="#D90000" fill-rule="nonzero">
                            <g id="Kreuz">
                                <path d="M33.4705721,46.5656321 L33.4705721,33.593887 L33.4705721,33.593887 L46.5245272,33.593887 C48.1005593,33.593887 49.3781857,32.3162605 49.3781857,30.7402284 L49.3781857,27.4455626 C49.3781857,25.8695305 48.1005593,24.5919041 46.5245272,24.5919041 L33.4705721,24.5919041 L33.4705721,24.5919041 L33.4705721,11.4146341 C33.4705721,9.83860206 32.1929457,8.56097561 30.6169136,8.56097561 L27.3222478,8.56097561 C25.7462157,8.56097561 24.4685892,9.83860206 24.4685892,11.4146341 L24.4685892,24.5919041 L24.4685892,24.5919041 L11.4146341,24.5919041 C9.83860206,24.5919041 8.56097561,25.8695305 8.56097561,27.4455626 L8.56097561,30.7402284 C8.56097561,32.3162605 9.83860206,33.593887 11.4146341,33.593887 L24.4685892,33.593887 L24.4685892,33.593887 L24.4685892,46.5656321 C24.4685892,48.1416642 25.7462157,49.4192907 27.3222478,49.4192907 L30.6169136,49.4192907 C32.1929457,49.4192907 33.4705721,48.1416642 33.4705721,46.5656321 Z" transform="translate(28.969581, 28.990133) rotate(-44.000000) translate(-28.969581, -28.990133) "></path>
                            </g>
                        </g>
                    </g>
                </g>
            </g>
        </g>
    </g>
</svg>