<?xml version="1.0" standalone="no"?>
<!DOCTYPE svg PUBLIC "-//W3C//DTD SVG 20010904//EN"
 "http://www.w3.org/TR/2001/REC-SVG-20010904/DTD/svg10.dtd">
<svg version="1.0" xmlns="http://www.w3.org/2000/svg"
 width="700.000000pt" height="700.000000pt" viewBox="0 0 700.000000 700.000000"
 preserveAspectRatio="xMidYMid meet">
<metadata>
Created by potrace 1.11, written by Peter Selinger 2001-2013
</metadata>
<g transform="translate(0.000000,700.000000) scale(0.100000,-0.100000)"
fill="#000000" stroke="none">
<path d="M0 3500 l0 -3500 3500 0 3500 0 0 3500 0 3500 -3500 0 -3500 0 0
-3500z m2970 1159 c488 -896 524 -959 536 -937 7 12 251 444 542 958 l530 935
657 3 657 2 -27 -47 c-14 -27 -549 -978 -1188 -2115 l-1161 -2068 -663 0 -664
0 25 43 c13 23 162 287 331 587 296 527 306 545 292 570 -55 95 -1697 3022
-1697 3026 0 2 294 4 653 4 l654 0 523 -961z"/>
</g>
</svg>
