<svg xmlns="http://www.w3.org/2000/svg" width="684" height="345" viewBox="0 0 684 345">
  <g fill="none" fill-rule="evenodd" stroke-linecap="round" stroke-linejoin="round">
    <g stroke-width="5.175" transform="rotate(-17 913.977 -4.244)">
      <path stroke="#000" d="M21.2382,73.6782 C5.45376917,65.355709 -2.62229844,47.3430741 1.66448697,30.0215389 C5.95127238,12.7000036 21.4962442,0.53317429 39.34035,0.53317429 C57.1844558,0.53317429 72.7294276,12.7000036 77.016213,30.0215389 C81.3029984,47.3430741 73.2269308,65.355709 57.4425,73.6782"/>
      <path stroke="#10B696" d="M26.3925,25.09875 C27.1070184,25.09875 27.68625,25.6779816 27.68625,26.3925 C27.68625,27.1070184 27.1070184,27.68625 26.3925,27.68625 C25.6779816,27.68625 25.09875,27.1070184 25.09875,26.3925 C25.09875,25.6779816 25.6779816,25.09875 26.3925,25.09875"/>
      <path stroke="#000" d="M16.0425 26.3925C16.0425 32.1086472 20.6763528 36.7425 26.3925 36.7425 32.1086472 36.7425 36.7425 32.1086472 36.7425 26.3925 36.7425 20.6763528 32.1086472 16.0425 26.3925 16.0425 20.6763528 16.0425 16.0425 20.6763528 16.0425 26.3925zM61.73085 28.98C60.6348273 25.8776144 57.7019732 23.8032462 54.411675 23.8032462 51.1213768 23.8032462 48.1885227 25.8776144 47.0925 28.98M49.68 65.6397C57.3963802 62.2596413 62.9919327 55.3443102 64.6875 47.0925L13.9725 47.0925C15.6680673 55.3443102 21.2636198 62.2596413 28.98 65.6397"/>
      <path stroke="#9E1616" d="M39.33,78.1425 L39.33,78.1425 C33.6138528,78.1425 28.98,73.5086472 28.98,67.7925 L28.98,62.6175 C28.98,59.7594264 31.2969264,57.4425 34.155,57.4425 L44.505,57.4425 C47.3630736,57.4425 49.68,59.7594264 49.68,62.6175 L49.68,67.7925 C49.68,73.5086472 45.0461472,78.1425 39.33,78.1425 Z"/>
    </g>
    <g stroke-width="7.5" transform="rotate(18 287.163 1816.667)">
      <path stroke="#000" d="M0.75,57 C0.75,88.0660172 25.9339828,113.25 57,113.25 C88.0660172,113.25 113.25,88.0660172 113.25,57 C113.25,25.9339828 88.0660172,0.75 57,0.75 C25.9339828,0.75 0.75,25.9339828 0.75,57 Z"/>
      <path stroke="#1C88FF" d="M89.465 45.75C87.8765613 41.253789 83.6260481 38.2474583 78.8575 38.2474583 74.0889519 38.2474583 69.8384387 41.253789 68.25 45.75M45.75 45.75C44.1615613 41.253789 39.9110481 38.2474583 35.1425 38.2474583 30.3739519 38.2474583 26.1234387 41.253789 24.535 45.75"/>
      <path stroke="#000" d="M82.5,67.5 C73.0536309,82.3036668 53.941356,87.5644014 38.25,79.68"/>
      <line x1="77.625" x2="87" y1="62.625" y2="72" stroke="#000"/>
      <path stroke="#000" d="M50.425,83.07 C50.3039485,83.7485198 50.23873,84.435822 50.23,85.125 C50.1763211,90.9083336 53.9145768,96.0451744 59.4341418,97.7726668 C64.9537069,99.5001592 70.9534987,97.4110953 74.2065222,92.6290804 C77.4595458,87.8470655 77.198992,81.4993256 73.565,77"/>
    </g>
    <g stroke-width="10.65" transform="translate(0 26.761)">
      <path stroke="#000" d="M134.6597,43.6437 C126.309968,20.3595046 105.399099,3.8862516 80.8072185,1.21956507 C56.2153385,-1.44712146 32.2594029,10.160879 19.1126736,31.114048 C5.96594431,52.0672169 5.93624968,78.687353 19.0362,99.6698 L0.065,139.515 L39.9031,120.5438 C47.2421171,125.114443 55.4246849,128.163892 63.965,129.5111"/>
      <line x1="53.315" x2="53.315" y1="43.665" y2="54.315" stroke="#147FF4"/>
      <line x1="95.915" x2="95.915" y1="43.665" y2="54.315" stroke="#147FF4"/>
      <path stroke="#000" d="M64.0005 95.14C54.753645 91.8681702 47.5130315 84.5438502 44.3477 75.26M121.7022 70.2895994C136.660673 70.2214813 150.263356 78.9481469 156.43664 92.5735335 162.609925 106.19892 160.201528 122.179762 150.2868 133.3806L155.0509 160.815 130.2009 145.4932C115.936752 148.767879 101.057909 143.579025 91.9235131 132.14433 82.7891176 120.709635 81.015231 105.052128 87.3600034 91.863751 93.7047759 78.6753735 107.045688 70.2895994 121.6809 70.2895994L121.7022 70.2895994z"/>
      <path stroke="#CF2828" d="M106.565 104.9025C105.094542 104.9025 103.9025 106.094542 103.9025 107.565 103.9025 109.035458 105.094542 110.2275 106.565 110.2275 108.035458 110.2275 109.2275 109.035458 109.2275 107.565 109.2275 106.094542 108.035458 104.9025 106.565 104.9025M133.19 104.9025C131.719542 104.9025 130.5275 106.094542 130.5275 107.565 130.5275 109.035458 131.719542 110.2275 133.19 110.2275 134.660458 110.2275 135.8525 109.035458 135.8525 107.565 135.8525 106.094542 134.660458 104.9025 133.19 104.9025"/>
    </g>
    <g stroke-width="14.061" opacity=".928" transform="rotate(-11 839.227 -1317.039)">
      <path stroke="#B90808" d="M162.467552,133.8956 C151.782416,155.432182 129.815157,169.052754 105.7736,169.048101"/>
      <path stroke="#000" d="M199.054274 56.5601C180.787705 21.9813578 144.889968.345981377 105.782974.345981377 66.6759804.345981377 30.7782427 21.9813578 12.511674 56.5601M4.131318 77.595356C-7.74079076 120.524554 8.63810388 166.283848 45.055283 191.928576 81.4724621 217.573304 130.074738 217.573304 166.491917 191.928576 202.909096 166.283848 219.287991 120.524554 207.415882 77.595356"/>
      <path stroke="#000" d="M105.7736,56.5601 C106.715644,86.6412817 83.1242067,111.805481 53.04485,112.8041 C22.9654933,111.805481 -0.625944024,86.6412817 0.3161,56.5601 L105.7736,56.5601 Z"/>
      <path stroke="#000" d="M211.2311,56.5601 C212.173144,86.6412817 188.581707,111.805481 158.50235,112.8041 C128.422993,111.805481 104.831556,86.6412817 105.7736,56.5601 L211.2311,56.5601 Z"/>
    </g>
  </g>
</svg>
