<svg xmlns="http://www.w3.org/2000/svg" width="734" height="476" viewBox="0 0 734 476">
  <defs>
    <linearGradient id="chaty-toolbox-screen-a" x1="50%" x2="50%" y1="0%" y2="100%">
      <stop offset="0%" stop-color="#0F97E4"/>
      <stop offset="100%" stop-color="#1F6CBB"/>
    </linearGradient>
  </defs>
  <g fill="none" fill-rule="evenodd">
    <g transform="translate(-84 -57)">
      <g transform="matrix(-1 0 0 1 842 65)">
        <path fill="#89C5CC" d="M130.225393,1.3341544 C129.69196,0.946240028 128.426405,0.808691352 127.837645,0.692486436 C125.390395,0.210049702 122.869376,0 120.374455,0 C112.681258,0.0115188546 104.863142,0.766681412 97.297649,2.07373262 C92.4943162,2.90342894 86.6874473,5.69573482 81.9091681,4.17931149 C73.5847599,1.53708951 65.1716202,1.66684602 57.2738193,5.43893212 C50.0531616,8.88815149 44.5716416,15.4389919 41.3727834,22.517328 C40.8901535,23.5858712 38.9321447,27.5185437 38.3778337,30.1695742 C38.1408684,30.7116379 37.9132981,31.2574284 37.7079977,31.8113498 C37.1255014,33.3840122 36.6032034,34.9844554 36.1177898,36.5879477 C35.9104016,37.2719644 35.3887995,38.7822895 36.0081802,39.0743264 C35.0185628,40.9007424 34.1413387,42.7830588 33.4106086,44.7263573 C31.2855757,50.3780494 28.9622018,56.5775648 28.2154652,62.5677079 C27.9388317,64.785765 27.9283927,67.0166962 28.1851921,69.2391575 C28.3122,70.3375142 28.259657,72.5464239 29.0043058,73.3815409 C30.5847707,75.1537506 31.3962291,72.6727926 31.2180702,71.4910936 C29.8575202,62.4847044 32.4846691,54.0271548 35.5982754,45.5611355 C37.611611,40.0866304 40.9197307,35.0783002 44.6255764,30.5425818 C47.6247017,26.8711163 50.8420021,23.9798838 54.9532291,21.5456788 C59.9806525,18.5690712 65.3556946,16.162647 70.6813255,13.7487694 C74.1839587,12.1605226 77.6907674,10.6149633 81.2911792,9.24659115 C82.0918507,8.94201908 83.3514902,8.16144728 84.2391534,8.15839818 C86.1164339,8.15162238 88.7766396,9.53693404 90.5898943,10.0522334 C96.5540441,11.7478765 102.594399,13.9188419 108.758281,14.7847887 C112.711879,15.3407428 116.415985,14.714998 120.11348,13.3977831 C120.491372,13.2636223 121.124671,12.9177179 121.900637,12.4237623 C124.645747,11.3677543 127.242622,10.0386818 129.50371,8.12147008 C130.806498,7.01667641 131.988541,5.58901602 133.066542,4.2823036 C133.389107,3.89167891 133.531773,3.44379874 133.536645,3.0182787 C133.780917,2.89055493 133.94307,2.7414874 133.979606,2.56734942 C134.248585,1.28130318 131.795767,1.25758789 130.225393,1.3341544"/>
        <path fill="#69A1AC" d="M120.980481,37.6597754 C117.569531,36.9146199 113.803318,36.9716506 110.328853,37.0331208 C91.6953105,37.2865146 73.3974882,46.1085139 61.4888276,60.2046569 C51.3509016,72.2050073 48.5632336,87.1248511 46.5604261,102.206908 C46.3618554,103.70439 46.2767038,105.192311 46.1646806,106.692867 C46.1406008,107.014903 46.1046557,107.302105 46.0662677,107.572574 C45.2786154,108.276749 44.8654207,109.097718 45.3316606,109.999623 C43.5965223,113.796774 42.1287042,117.690229 40.8692283,121.705941 C37.1623418,133.525979 33.3915917,145.570724 35.7144157,158 C36.2570826,151.160073 37.3986026,144.165788 38.7638201,137.438216 C38.842341,137.051978 38.9271436,136.668814 39.0154361,136.287015 C39.0245096,136.246718 39.0328852,136.206421 39.0419587,136.166465 C39.5252987,134.106189 40.1534663,132.107724 40.9173878,130.140678 C40.9254144,130.119163 40.933092,130.09799 40.9414675,130.076817 C41.0423233,129.817959 41.1494608,129.560467 41.2552023,129.302975 C41.474014,128.769892 41.6987584,128.237833 41.9371131,127.708506 C42.0177279,127.528194 42.0952019,127.346174 42.1695351,127.162788 C43.2817406,124.436925 43.7514703,121.365464 44.7478138,118.545006 C44.9861685,117.903667 45.2353416,117.264718 45.4963801,116.629185 C45.5117353,116.591961 45.5274395,116.554737 45.5431437,116.517514 C46.2487852,114.807276 47.028411,113.11787 47.8527064,111.446222 C48.3007992,111.109501 48.5402008,110.27419 48.9265239,109.515033 C49.0064407,109.365455 49.6311184,108.36793 49.8171258,107.793184 C50.3025597,106.854056 50.7862487,105.914586 51.2751725,104.977165 C51.2605152,104.982629 51.245858,104.988093 51.2312007,104.993557 C51.7204735,104.09336 52.2111421,103.19692 52.6979719,102.304236 C52.8051094,102.108214 52.9132938,101.911851 53.0211292,101.715146 C53.1959692,101.40199 53.3708092,101.089175 53.5453002,100.777043 C55.1774888,97.8561833 56.9080904,94.9937206 58.7053475,92.1667741 C59.3467763,91.1579797 60.8791561,89.7113808 61.1729989,88.5786215 C61.1838174,88.5362754 61.1862603,88.4973442 61.1928909,88.4567056 C65.0927644,82.9793686 69.5824173,77.9272006 74.9665111,73.9241241 C74.3156597,74.6276165 72.9322952,77.015051 72.5665621,77.4876886 C71.4473769,78.9349705 70.2322217,80.2821925 69.0125298,81.6458066 C66.8282517,84.0885644 64.6956229,86.6088429 62.8006508,89.2739178 C59.3352599,94.1478223 56.3455314,99.2771696 53.5194755,104.50965 C53.4926039,104.540385 53.4632894,104.569413 53.4378137,104.600831 C52.0174571,106.351707 51.1233653,108.998 50.1008482,111.000904 C54.147294,109.126746 58.6215918,107.905879 62.7744772,106.241744 C66.9158461,104.582731 70.9444939,102.73521 74.8338979,100.565653 C80.0033678,97.6823592 85.3658246,94.4268287 90.2501762,90.7427143 C95.8474979,87.2706721 100.551077,82.491705 104.702915,77.4767606 C109.615185,71.5431781 114.117053,65.5576874 116.901231,58.3530376 C118.268891,54.8126952 119.344803,51.1210677 119.982742,47.3864112 C120.01066,47.2235151 120.046256,47.046959 120.084993,46.8635729 C120.73759,45.573723 121.321087,44.2548456 121.810709,42.9055746 C122.588241,40.7657283 124.424584,38.4117609 120.980481,37.6597754"/>
        <path fill="#C1DEE2" d="M127.985552,103.375543 C124.041234,100.700897 118.796053,100 114.075943,100 C95.6400811,100 78.3112274,106.840049 63.3411361,117.031869 C55.1382704,122.616354 47.8001859,129.727973 41.3217129,137.132413 C37.5823286,141.406588 34.2480105,146.030491 31.8874019,151.173043 C30.2944619,154.644032 29.2011157,158.260531 28.4600331,161.990844 C27.5568501,166.53695 26.8393994,171.17526 26.5148296,175.797002 C26.3870694,177.616957 25.3295404,187.27428 28.3555356,187.437799 C28.3381809,187.675873 28.3341192,187.902782 28.3525816,188.10628 C21.7821656,198.379859 17.7226426,210.420088 13.9581494,221.835416 C10.6829112,231.768992 7.76436737,241.786488 5.86975096,252.062949 C3.37547423,265.592494 1.7371166,279.325536 0.958001292,293.049575 C0.790731513,295.999033 0.675895087,298.949932 0.576936366,301.903351 C0.493116852,304.422403 0.408189591,306.941454 0.325477824,309.460505 C0.233165584,312.283542 -0.263843516,315.533745 0.185163219,318.340214 C0.575828619,320.784349 2.69125591,320.414451 2.7846759,317.982202 C2.89766608,315.04499 2.87920363,312.102015 3.00770227,309.162642 C3.17866454,305.261606 3.35479629,301.360571 3.545698,297.460615 C4.87462501,270.36875 9.86022447,243.675236 19.0611701,218.084213 C22.7846766,207.728154 27.0513483,197.9246 32.5350646,188.344715 C37.3563483,179.921705 43.1557724,171.767384 49.0836952,164.172773 C54.845456,156.792465 60.8357819,149.582879 67.8954528,143.329912 C73.6243504,138.255793 79.9259531,133.835387 86.4036876,129.72221 C94.631293,124.498258 102.843021,119.401088 111.755213,115.39092 C116.387811,113.306598 121.10792,111.44054 125.776704,109.440499 C126.616746,109.080686 127.517344,108.731678 128.325261,108.314958 C131.020409,106.925049 130.133103,104.831723 127.985552,103.375543"/>
        <path fill="#89C5CC" d="M68.1822003,198 C60.7049106,198 54.05129,198.971586 47.1617895,201.943116 C41.2147665,204.507723 35.7950863,207.902835 30.5331226,211.599146 C23.1315646,216.797709 17.3016131,222.848195 13.220786,230.86497 C10.782781,235.65423 8.99440119,242.431196 10.631665,247.654916 C12.5603917,253.807388 17.8560525,258.93864 24.8306644,257.85453 C29.14355,257.184822 33.0972312,254.329896 36.3752328,251.642906 C40.2966064,248.428309 43.4356508,244.563042 46.0275509,240.270114 C50.2556727,233.267419 52.7402283,225.35093 56.3319259,218.033439 C58.0362366,214.560477 59.6832274,211.062699 61.7245094,207.762094 C62.735076,206.1276 63.8109525,204.508743 65.3439984,203.29409 C66.1641936,202.64444 69.6224922,201.519875 68.2999665,200.060796 C87.6904088,200.315421 104.868304,215.207408 108.590622,233.640687 C108.93732,235.358811 109.208287,237.090872 109.494539,238.819534 C109.675183,239.911123 109.60223,243.936508 110.578058,244.633752 C112.730158,246.17204 111.825546,241.499044 111.73314,240.826277 C111.494481,239.087417 111.239842,237.349916 110.972696,235.615475 C109.519203,226.181436 105.319221,217.411324 98.3150803,210.683312 C90.3055843,202.989832 79.4988788,198 68.1822003,198" transform="matrix(-1 0 0 1 122 0)"/>
      </g>
      <g transform="translate(185 68)">
        <g transform="translate(0 10)">
          <path fill="#C1DEE2" d="M106.879629,153.034846 C105.589409,142.760932 104.223578,132.545861 101.723883,122.471619 C100.250487,116.534998 98.3622338,110.723311 96.6466,104.854176 C96.8003879,105.590398 96.9364859,106.33136 97.0546087,107.074274 C96.4577177,105.323796 95.2111512,103.64945 94.4941401,101.905108 C93.694386,99.9596984 93.051273,97.9389938 92.4404012,95.9302807 C91.2477604,92.0099018 90.1224553,88.08283 88.7803064,84.2073495 C87.2846549,79.8895784 85.5624588,75.6434774 83.9575295,71.3636328 C82.5954081,67.7313285 81.319739,63.9177575 79.5464704,60.4513818 C78.5800889,58.5620258 77.7135698,56.5326762 76.7648782,54.606788 C76.4473162,53.9623154 73.7225028,46.7626838 73.7430459,46.7626838 C74.1935674,46.7626838 75.883237,49.9630158 76.1631367,50.4331936 C76.9811513,51.806358 77.6761927,53.2352968 78.3786525,54.6670242 C78.6819484,52.9670221 79.1621433,51.3027156 79.9185287,49.7399184 C80.151921,49.2574703 81.7902329,45.6996247 82.3237827,45.6996247 C82.5902723,45.6996247 80.1276688,52.4182026 79.8163838,53.0080163 C79.5635896,53.4871179 79.0899571,54.0945006 78.9250417,54.6042781 C78.6585521,55.4275075 78.7957914,55.2217001 79.0157737,55.9643356 C79.418932,57.3255085 80.31113,58.6585154 80.8726413,59.9655872 C81.1807877,60.6633243 81.9403116,63.0817 82.6792924,64.1648378 C84.5820966,67.8841502 85.9342317,72.4191624 87.3828053,76.4298957 C87.6943756,74.459388 88.2330612,72.5594348 88.979175,70.7052167 C89.1560739,70.2648782 90.5638465,66.1791284 90.9692874,66.1791284 C91.4255153,66.1791284 89.6784962,72.7228537 89.4411093,73.2881267 C89.0002887,74.3380788 88.3072446,75.3542874 87.9406074,76.4229239 C87.5383051,77.5958584 88.2450447,78.6516668 88.6952808,79.851373 C90.3515679,84.265076 91.8035653,88.7228407 93.1303069,93.2405628 C100.835394,89.8659359 102.367567,79.933919 102.870302,72.6096318 C103.232374,67.3308687 102.415215,61.9553371 101.134125,56.8346943 C99.424483,50.0006635 96.5481644,43.4028371 93.4963734,37.0506967 C89.9404207,29.6491619 85.050308,23.0385074 79.1541543,17.2438316 C76.0704074,14.2130536 72.5583941,11.5863607 68.9913138,9.12503877 C67.2488599,7.92254384 65.4587574,6.9244619 63.4247056,6.2554486 C62.5076847,5.95426713 61.5664115,5.73618943 60.6148667,5.56914526 C59.8918639,5.44225862 58.4167555,4.77185097 57.8172966,4.94279934 C52.9223335,6.29700049 49.2428368,8.5494475 46.3901998,12.7367066 C43.6896387,16.7003106 42.0133792,21.4388991 41.0815216,26.0874121 C40.0440952,31.2638293 39.7938689,36.4829138 40.684355,41.6925167 C41.3637038,45.6672756 42.5355162,49.5639504 43.7090405,53.4224197 C47.8827127,67.1459767 55.1983372,81.8589706 68.3250899,89.3871131 C72.5740867,91.8241732 77.2887271,93.2486501 82.1286233,94.0038347 C83.2690504,94.1817549 84.4083363,94.35103 85.5624588,94.4160072 C86.3405285,94.4600689 88.8984292,93.9433196 89.4613671,94.2788023 C90.2331598,94.7386618 90.6765482,97.3475068 91.0129414,98.2934398 C93.5688449,105.483032 95.8545496,112.754055 97.9285462,120.090055 C100.134932,127.895117 101.887657,135.776032 103.347644,143.744792 C103.968502,147.134199 104.573382,150.518029 105.088386,153.925841 C105.208506,154.718674 105.084391,157.212345 105.858181,157.912592 C106.347506,158.35544 107.039124,158.173894 107.330151,157.631768 C107.83631,156.689181 107.011733,154.08675 106.879629,153.034846" transform="rotate(-37 73.816 81.538)"/>
          <path fill="#89C5CC" d="M70.9325822,117.893485 C70.5926387,116.648876 70.3885192,115.362027 70.4829053,114.059913 C70.5068855,113.730778 70.7829457,111.340049 71.0501812,111.340049 C71.6725156,111.340049 70.815367,117.510191 70.9325822,117.893485 M60.1018661,123.278691 C60.1395791,123.293811 60.8247929,124.610827 61.0495701,124.993222 C61.5270808,125.80666 62.0363005,126.600376 62.5594045,127.374588 C61.5779277,126.098989 60.6973942,124.868313 60.1018661,123.278691 M96.862736,84.0951831 C97.4456931,83.6034537 97.126762,82.374981 96.4353071,83.0532358 C95.8770683,83.6028157 95.8604437,83.5483681 95.1587078,83.513275 C94.5888755,83.4847751 93.9827314,83.3078206 93.4100554,83.2374216 C92.1953611,83.0881162 90.9874479,83.0249486 89.7653162,83.1102355 C87.1456188,83.2927199 84.5965763,83.9167398 82.1706875,84.8872247 C77.9373038,86.5810538 73.6638897,88.7759705 70.2960824,91.832477 C64.94119,96.6923458 60.6408701,103.34473 58.1034211,109.977972 C56.531734,114.085997 55.685626,118.209122 57.1142535,122.481766 C57.8280204,124.61713 58.9578415,126.64913 60.5975585,128.253418 C61.0262999,128.672622 61.5913198,128.997393 61.9924992,129.43744 C62.6093618,130.113993 62.4680522,129.897266 62.0670915,130.862647 C61.6291628,131.916717 61.1951715,132.972064 60.7640239,134.028899 C59.6355153,136.796153 58.5245064,139.594672 57.7050854,142.466142 C57.4351533,143.411104 57.2275637,144.37053 57.0770668,145.340377 C56.9628816,146.073717 56.3000824,148.863728 56.8769145,149.613445 C57.8365515,150.861272 58.245387,148.945187 58.2762302,148.289689 C58.3031359,147.715438 58.3532286,147.13991 58.4249772,146.569062 C58.605661,145.131732 58.932467,143.720775 59.3570522,142.334489 C59.8157617,140.836331 60.3779379,139.366247 60.9366142,137.901055 C61.457885,136.534762 62.0034365,135.177402 62.5597066,133.824508 C62.8685754,133.072877 63.1811628,132.322734 63.4937503,131.572592 C63.6004982,131.316305 63.6554033,130.780975 63.9380226,131.00068 C64.5557602,129.398944 65.5615525,127.877815 66.3954108,126.374127 C67.4169527,124.532482 68.4592755,122.694664 69.6332832,120.940007 C70.4800474,119.674527 71.3718733,118.435633 72.3476974,117.259906 C72.9179672,116.572931 73.5276112,115.927217 74.1753169,115.308302 C74.531216,114.96843 75.7463479,113.510469 76.2365568,113.510469 C76.0259047,113.510469 75.0730489,115.362111 74.9245206,115.580752 C74.3310638,116.455741 73.686858,117.289257 73.0293087,118.119582 C71.8091457,119.66049 70.6769185,121.257334 69.6527516,122.927768 C69.9482769,123.103659 71.1771897,122.293326 71.5435886,122.137002 C72.3654158,121.786709 73.2102113,121.487247 74.0757877,121.256271 C75.6004445,120.84919 77.4639383,120.385535 78.9691269,120.385535 C78.5255108,120.385535 77.4958752,121.109517 77.0341032,121.306252 C76.2940869,121.621239 75.5352584,121.908578 74.7659301,122.148487 C74.0556631,122.369893 73.3324901,122.538766 72.6045047,122.694239 C71.8760819,122.849499 70.5598896,122.855455 69.8970904,123.243393 C69.85706,123.266789 69.8986216,123.642392 69.741781,123.742992 C69.5838467,123.844443 69.1314808,123.811264 69.0947315,123.839126 C68.5520237,124.246632 68.1725001,125.427463 67.8459129,126.008308 C66.9984924,127.514335 66.1729465,129.032061 65.339307,130.54532 C65.0809684,131.014079 64.7373191,131.334809 64.9645958,131.714878 C65.2071846,132.120045 66.3531929,132.371439 66.8009651,132.519043 C68.4636505,133.06756 70.1484291,133.249193 71.881988,132.961217 C75.1290478,132.422271 77.9473661,131.016844 80.4883151,129.027382 C90.2207445,121.407278 98.2032091,111.818554 100.640035,99.6437856 C101.648671,94.6033466 102.735399,86.7422696 96.862736,84.0951831" transform="scale(-1 1) rotate(58 0 -25.919)"/>
        </g>
        <rect width="228.704" height="434.393" x="109.28" y=".18" fill="#EAEEF3" rx="11.507"/>
        <circle cx="222.913" cy="385.668" r="21.576" fill="#FFF"/>
        <g fill="#FFF" transform="translate(201.337 23.194)">
          <circle cx="2.877" cy="2.877" r="2.877"/>
          <rect width="30.206" height="5.754" x="12.945" rx="2.877"/>
        </g>
        <g transform="translate(129.417 40.455)">
          <rect width="188.429" height="77.673" fill="#FFF" rx="5.754"/>
          <g fill="#DDE3E9" transform="translate(56.097 23.302)">
            <rect width="105.002" height="11.651" rx="4.315"/>
            <rect width="70.481" height="11.651" y="19.418" rx="4.315"/>
          </g>
          <circle cx="30.206" cy="38.836" r="17.261" fill="#C5CFD6"/>
          <g transform="translate(0 89.18)">
            <rect width="188.429" height="60.412" fill="#FFF" rx="5.754"/>
            <g fill="#DDE3E9" transform="translate(13.097 18.124)">
              <rect width="105.002" height="9.062" rx="4.315"/>
              <rect width="70.481" height="9.062" y="15.103" rx="4.315"/>
            </g>
          </g>
          <g transform="translate(0 161.1)">
            <rect width="188.429" height="60.412" fill="#FFF" rx="5.754"/>
            <g fill="#DDE3E9" transform="translate(56.097 18.124)">
              <rect width="105.002" height="9.062" rx="4.315"/>
              <rect width="70.481" height="9.062" y="15.103" rx="4.315"/>
            </g>
            <circle cx="30.206" cy="30.206" r="17.261" fill="#AFB9C5"/>
          </g>
          <g transform="translate(0 233.019)">
            <rect width="188.429" height="60.412" fill="#FFF" rx="5.754"/>
            <g fill="#DDE3E9" transform="translate(56.097 18.124)">
              <rect width="105.002" height="9.062" rx="4.315"/>
              <rect width="70.481" height="9.062" y="15.103" rx="4.315"/>
            </g>
          </g>
        </g>
      </g>
      <g transform="translate(333 101)">
        <g fill="#89C5CC" transform="translate(12 220.342)">
          <path d="M15.2551084,0 C13.5903152,0 11.9305976,0.0334287465 10.2678943,0.119932959 C9.00048979,0.186203982 7.06370469,-0.0765342353 5.99126256,0.713439826 C4.87702146,1.53391029 4.95375242,3.21355818 5.12781527,4.39969221 C6.04798973,10.6722739 8.29378865,16.2343482 12.9919928,20.6783188 C20.2259016,27.5212418 28.5188172,30.9981247 38.3320209,32.5464035 C45.2252681,33.6340107 51.5888627,32.1238524 56.6632576,27.2218493 C60.3708261,34.1031861 63.1835982,41.7181959 64.5949106,49.4038752 C65.291162,53.1962785 65.5037396,56.9429372 65.3813283,60.8045439 C65.3025074,63.2779779 65.1660636,65.7455472 64.9009387,68.2072519 C64.7859916,69.2769717 64.240515,70.8962133 64.6594004,71.906993 C65.1508369,73.0940068 66.808166,73.2089547 67.5521877,72.1967088 C68.1714095,71.3542458 68.0576566,69.6998161 68.1848449,68.7028184 C68.3956312,67.0466292 68.5908921,65.3892672 68.73062,63.725454 C68.9575287,61.0323872 69.1253217,58.3316964 69.1137097,55.6283664 C69.084717,49.5545978 67.7343117,43.4570772 65.8870959,37.6914981 C62.3434389,26.6303951 56.5936921,16.7999977 47.6513997,9.08704758 C42.1530439,4.34427087 35.860209,2.42358412 28.7206465,1.3925712 C24.2756246,0.750680622 19.7580517,0 15.2551084,0"/>
          <path d="M40.929475,43.9814516 C22.9612954,43.9814516 10.8597059,58.462863 5.13788991,73.5138595 C2.98099037,79.1871341 2.47545785,85.4168474 1.64418347,91.3739144 C1.3772929,93.285583 1.47616306,96.1986699 0.700208884,97.9017097 C0.418605493,98.5193081 -0.226993087,98.7413692 0.081681895,99.5827434 C0.26853472,100.092312 0.635178216,100.404398 1.18573197,100.505569 C2.31597087,100.713626 3.91407747,99.4827159 4.88306385,98.996868 C12.9203836,94.9660451 18.2011093,88.7334739 22.5090232,81.1079481 C25.1794002,76.3815053 27.8889133,71.4750131 29.4752497,66.2861574 C30.4442361,63.1164285 31.0083256,59.7780818 31.3396583,56.4897489 C31.4700139,55.1948213 31.5962499,53.8690281 31.5885993,52.5660983 C31.5809486,51.2734571 30.9794885,50.5901263 30.5472258,49.4649597 C36.5427003,47.1954784 43.3100094,46.5770226 49.3831676,48.9288123 C55.0002283,51.1039819 59.6662523,55.3074237 62.2789551,60.5883046 C62.9578046,61.9609679 63.4812868,63.4090804 63.8626431,64.8860581 C64.1121725,65.853467 64.1242371,67.1086693 64.5868081,67.9831956 C65.7085136,70.103493 68.0684501,68.6859603 67.8418726,66.7122746 C67.2101041,61.2064747 64.0603834,55.6789544 60.0346614,51.8510445 C54.9572669,47.0234311 48.0749035,43.9814516 40.929475,43.9814516"/>
        </g>
        <g fill="#89C5CC" transform="matrix(-1 0 0 1 322.66 87.742)">
          <path d="M15.2551084,0 C13.5903152,0 11.9305976,0.0334287465 10.2678943,0.119932959 C9.00048979,0.186203982 7.06370469,-0.0765342353 5.99126256,0.713439826 C4.87702146,1.53391029 4.95375242,3.21355818 5.12781527,4.39969221 C6.04798973,10.6722739 8.29378865,16.2343482 12.9919928,20.6783188 C20.2259016,27.5212418 28.5188172,30.9981247 38.3320209,32.5464035 C45.2252681,33.6340107 51.5888627,32.1238524 56.6632576,27.2218493 C60.3708261,34.1031861 63.1835982,41.7181959 64.5949106,49.4038752 C65.291162,53.1962785 65.5037396,56.9429372 65.3813283,60.8045439 C65.3025074,63.2779779 65.1660636,65.7455472 64.9009387,68.2072519 C64.7859916,69.2769717 64.240515,70.8962133 64.6594004,71.906993 C65.1508369,73.0940068 66.808166,73.2089547 67.5521877,72.1967088 C68.1714095,71.3542458 68.0576566,69.6998161 68.1848449,68.7028184 C68.3956312,67.0466292 68.5908921,65.3892672 68.73062,63.725454 C68.9575287,61.0323872 69.1253217,58.3316964 69.1137097,55.6283664 C69.084717,49.5545978 67.7343117,43.4570772 65.8870959,37.6914981 C62.3434389,26.6303951 56.5936921,16.7999977 47.6513997,9.08704758 C42.1530439,4.34427087 35.860209,2.42358412 28.7206465,1.3925712 C24.2756246,0.750680622 19.7580517,0 15.2551084,0"/>
          <path d="M40.929475,43.9814516 C22.9612954,43.9814516 10.8597059,58.462863 5.13788991,73.5138595 C2.98099037,79.1871341 2.47545785,85.4168474 1.64418347,91.3739144 C1.3772929,93.285583 1.47616306,96.1986699 0.700208884,97.9017097 C0.418605493,98.5193081 -0.226993087,98.7413692 0.081681895,99.5827434 C0.26853472,100.092312 0.635178216,100.404398 1.18573197,100.505569 C2.31597087,100.713626 3.91407747,99.4827159 4.88306385,98.996868 C12.9203836,94.9660451 18.2011093,88.7334739 22.5090232,81.1079481 C25.1794002,76.3815053 27.8889133,71.4750131 29.4752497,66.2861574 C30.4442361,63.1164285 31.0083256,59.7780818 31.3396583,56.4897489 C31.4700139,55.1948213 31.5962499,53.8690281 31.5885993,52.5660983 C31.5809486,51.2734571 30.9794885,50.5901263 30.5472258,49.4649597 C36.5427003,47.1954784 43.3100094,46.5770226 49.3831676,48.9288123 C55.0002283,51.1039819 59.6662523,55.3074237 62.2789551,60.5883046 C62.9578046,61.9609679 63.4812868,63.4090804 63.8626431,64.8860581 C64.1121725,65.853467 64.1242371,67.1086693 64.5868081,67.9831956 C65.7085136,70.103493 68.0684501,68.6859603 67.8418726,66.7122746 C67.2101041,61.2064747 64.0603834,55.6789544 60.0346614,51.8510445 C54.9572669,47.0234311 48.0749035,43.9814516 40.929475,43.9814516"/>
        </g>
        <rect width="199.801" height="379.497" x="72.317" fill="#DDE3E9" rx="10.053"/>
        <circle cx="171.59" cy="336.772" r="18.849" fill="#FFF"/>
        <g fill="#FFF" transform="translate(152.74 20.106)">
          <circle cx="2.513" cy="2.513" r="2.513"/>
          <rect width="26.389" height="5.026" x="11.31" rx="2.513"/>
        </g>
        <g transform="translate(.91 35.185)">
          <rect width="164.616" height="67.857" x="89" fill="#FFF" rx="5.026"/>
          <g fill="#DDE3E9" transform="translate(100.31 20.357)">
            <rect width="91.733" height="10.179" rx="3.77"/>
            <rect width="61.574" height="10.179" y="16.964" rx="3.77"/>
          </g>
          <g transform="translate(.227 25.132)">
            <g transform="translate(227)">
              <circle cx="8.796" cy="8.796" r="8.796" fill="#DDE3E9"/>
              <circle cx="8.796" cy="8.796" r="3.77" fill="#F2F2F2"/>
            </g>
            <g transform="translate(0 201)">
              <circle cx="8.796" cy="8.796" r="8.796" fill="#DDE3E9"/>
              <circle cx="8.796" cy="8.796" r="3.77" fill="#F2F2F2"/>
            </g>
          </g>
          <g transform="translate(89 77.91)">
            <rect width="164.616" height="52.778" fill="#FFF" rx="5.026"/>
            <g fill="#DDE3E9" transform="translate(49.008 15.833)">
              <rect width="91.733" height="7.917" rx="3.77"/>
              <rect width="61.574" height="7.917" y="13.194" rx="3.77"/>
            </g>
            <circle cx="26.389" cy="26.389" r="15.079" fill="#C5CFD6"/>
          </g>
          <g transform="translate(89 140.74)">
            <rect width="164.616" height="52.778" fill="#FFF" rx="5.026"/>
            <g fill="#DDE3E9" transform="translate(11.31 15.833)">
              <rect width="91.733" height="7.917" rx="3.77"/>
              <rect width="61.574" height="7.917" y="13.194" rx="3.77"/>
            </g>
            <g transform="translate(138.227 17.593)">
              <circle cx="8.796" cy="8.796" r="8.796" fill="#DDE3E9"/>
              <circle cx="8.796" cy="8.796" r="3.77" fill="#F2F2F2"/>
            </g>
          </g>
          <g transform="translate(89 203.571)">
            <rect width="164.616" height="52.778" fill="#FFF" rx="5.026"/>
            <g fill="#DDE3E9" transform="translate(49.008 15.833)">
              <rect width="91.733" height="7.917" rx="3.77"/>
              <rect width="61.574" height="7.917" y="13.194" rx="3.77"/>
            </g>
            <circle cx="26.389" cy="26.389" r="15.079" fill="#C5CFD6"/>
          </g>
        </g>
      </g>
      <g transform="matrix(-1 0 0 1 968 0)">
        <g transform="translate(99.22 88.251)">
          <path fill="#D4A181" d="M46.1534431,11.0421959 C53.1651641,24.0998901 52.3319893,57.2218142 43.2699647,59.5555884 C39.65606,60.4862896 31.9573891,58.2064605 24.1219186,53.4879061 L29.04,88.2511737 L0,88.2511737 L9.9967016,41.6950485 C4.42148767,35.1564398 0.648142598,27.1433876 1.27869936,18.1645745 C3.09557957,-7.70689107 39.1417221,-2.01549827 46.1534431,11.0421959 Z" transform="translate(65.34 37.477)"/>
          <path fill="#191847" d="M73.1059474,84.9961804 C69.4611416,68.7953668 59.0776846,57.7518151 60.6634875,50.5107442 C61.7206895,45.6833637 64.5384497,42.6813852 69.1167681,41.5048088 C71.484631,31.9342323 79.1214747,27.863493 92.0272993,29.2925911 C111.386036,31.4362382 123.201532,39.4685346 118.099003,57.1430918 C113.408579,57.1430918 107.746236,55.4483172 99.9163912,58.352012 C97.4320132,59.2733426 95.6551132,62.1304698 94.5856912,66.9233935 L91.0474154,66.9233935 C87.6133697,61.2355034 84.2273786,59.145359 80.8894422,60.6529603 C77.5515058,62.1605616 76.7927386,65.8225312 78.6131406,71.6388691 L76.870182,84.9961804 L73.1059474,84.9961804 Z"/>
        </g>
        <g transform="translate(0 314.32)">
          <path fill="#C5CFD6" d="M210.54,0 C221.232233,-2.09573521e-14 229.9,8.66776724 229.9,19.36 L229.9,130.546103 C229.9,141.238336 221.232233,149.906103 210.54,149.906103 L71.39,149.906103 C60.6977672,149.906103 52.03,141.238336 52.03,130.546103 L52.03,19.36 C52.03,8.66776724 60.6977672,1.96413129e-15 71.39,0 L210.54,0 Z M191.18,33.8497653 L90.75,33.8497653 C88.0769418,33.8497653 85.91,36.0167071 85.91,38.6897653 L85.91,38.6897653 L85.91,111.216338 C85.91,113.889396 88.0769418,116.056338 90.75,116.056338 L90.75,116.056338 L191.18,116.056338 C193.853058,116.056338 196.02,113.889396 196.02,111.216338 L196.02,111.216338 L196.02,38.6897653 C196.02,36.0167071 193.853058,33.8497653 191.18,33.8497653 L191.18,33.8497653 Z" transform="translate(12.1 50.775)"/>
          <path fill="#D4A181" d="M361.982346,194.63615 C338.126145,165.530399 321.984469,143.952697 313.557319,129.903043 C299.127991,105.846625 287.318277,84.4408563 283.591425,76.263949 C274.704269,56.7650646 304.051094,47.6346205 310.692947,56.7295469 C320.745655,70.4950793 342.214673,113.811334 375.1,186.678311 L361.982346,194.63615 Z"/>
          <path fill="#69A1AC" d="M313.096656,186.173709 L268.698889,74.5139439 C259.203089,54.1591132 305.060067,40.7793882 312.038762,50.2521185 C327.882559,71.7581489 365.539603,156.596319 370.26,163.003684 L313.096656,186.173709 Z"/>
          <path fill="#D4A181" d="M228.952994,187.617485 C227.742049,172.37949 225.502937,119.627871 227.776971,95.209656 C228.430438,88.1928402 229.118643,81.4086803 229.811982,75.0445157 C231.87283,56.1279667 266.952703,56.7105863 264.159053,74.6826208 C257.20176,119.44009 244.963141,182.166177 244.08555,187.585986 C242.855568,195.182079 229.714036,197.19409 228.952994,187.617485 Z" transform="rotate(39 245.558 127.547)"/>
          <path fill="#C1C1C1" d="M3.240399,30.7092737 C1.88679967,34.3195099 1.21,37.0208166 1.21,38.8131936 C1.21,40.9932227 1.57350119,44.1744273 2.30050356,48.3568075 C4.83174922,48.3568075 27.5804801,48.3568075 70.5466963,48.3568075 C72.3201729,42.4989935 71.2964194,39.3365482 67.4754356,38.8694717 C63.6544519,38.4023951 60.4802958,37.9806623 57.9529674,37.6042734 L26.232224,23.4756276 C25.6217744,23.203729 24.9064899,23.4781788 24.6345913,24.0886284 C24.630046,24.0988332 24.6256422,24.1091005 24.6213813,24.1194273 L22.5824878,29.0608637 L22.5824878,29.0608637 C19.0452563,30.709779 16.1708884,31.5342367 13.9593842,31.5342367 C12.1623803,31.5342367 9.68062301,30.8090478 6.51411231,29.3586702 L6.51410456,29.3586871 C5.29898577,28.8021182 3.86274918,29.3359785 3.30618034,30.5510973 C3.28239331,30.6030299 3.26045245,30.6557884 3.240399,30.7092737 Z" transform="rotate(30 -137.605 455.718)"/>
          <path fill="#C1C1C1" d="M3.240399,30.7092737 C1.88679967,34.3195099 1.21,37.0208166 1.21,38.8131936 C1.21,40.9932227 1.57350119,44.1744273 2.30050356,48.3568075 C4.83174922,48.3568075 27.5804801,48.3568075 70.5466963,48.3568075 C72.3201729,42.4989935 71.2964194,39.3365482 67.4754356,38.8694717 C63.6544519,38.4023951 60.4802958,37.9806623 57.9529674,37.6042734 L26.232224,23.4756276 C25.6217744,23.203729 24.9064899,23.4781788 24.6345913,24.0886284 C24.630046,24.0988332 24.6256422,24.1091005 24.6213813,24.1194273 L22.5824878,29.0608637 L22.5824878,29.0608637 C19.0452563,30.709779 16.1708884,31.5342367 13.9593842,31.5342367 C12.1623803,31.5342367 9.68062301,30.8090478 6.51411231,29.3586702 L6.51410456,29.3586871 C5.29898577,28.8021182 3.86274918,29.3359785 3.30618034,30.5510973 C3.28239331,30.6030299 3.26045245,30.6557884 3.240399,30.7092737 Z" transform="translate(348.48 159.577)"/>
          <path fill="#89C5CC" d="M252.72313,80.0910256 C215.821979,74.0847268 191.105088,69.9776428 178.572456,67.7697738 C142.849516,61.4764767 132.432402,42.270294 138.591556,0.365370327 L204.410467,0.365370327 C213.120542,2.87843125 249.514615,18.4208978 313.592685,46.9927699 C325.121594,52.7107738 322.974532,69.5703324 320.867252,75.1248111 C320.781309,75.351344 301.345778,108.625124 262.560659,174.94615 L208.718015,140.67659 L252.824247,84.1292244 C253.98905,81.7852488 253.955345,80.4391826 252.72313,80.0910256 Z"/>
        </g>
        <g transform="translate(26.62 187.383)">
          <path fill="#D4A181" d="M180.323023,119.841207 L202.589136,162.197265 C210.759685,169.318734 217.07983,176.305193 221.549571,183.156641 C222.378023,185.240852 222.838125,188.868367 216.885824,185.37965 C216.372695,185.078898 215.856105,184.77879 215.339259,184.482533 L214.719125,184.129079 C209.450428,181.14392 204.288405,178.692949 202.633449,180.18044 C200.751342,181.872096 203.263385,186.216049 200.150359,188.219037 C198.075009,189.554363 194.962689,182.15363 190.813399,166.016838 L163.408415,135.044226 L180.323023,119.841207 Z M211.84021,99.8671106 L245.528173,133.868238 C255.425684,138.291827 263.514137,143.126829 269.79353,148.373241 C271.195691,150.124382 272.697219,153.458992 265.984092,151.861446 C259.270965,150.2639 252.137852,148.885167 250.833018,151.05269 C249.528185,153.220212 253.201646,156.64056 250.810786,159.465376 C249.216878,161.348586 244.074854,155.180372 235.384713,140.960734 L200.113592,119.346769 L211.84021,99.8671106 Z"/>
          <path fill="#256D41" d="M145.20722,27.3933451 C175.636452,59.7752057 212.756352,80.8997262 263.385569,99.6308159 L252.132991,122.107447 C199.890205,117.202616 171.960729,113.280465 150.075893,80.8456369 C144.583243,72.7051525 134.766794,44.6920797 128.885232,30.1451241 L145.20722,27.3933451 Z" transform="rotate(26 196.135 74.75)"/>
          <path fill="#F2F2F2" d="M108.9,137.816901 L202.07,137.816901 C180.965435,73.5088527 170.184422,29.3718059 169.726961,5.40576094 C169.703639,4.18394882 167.445098,2.03094327 166.44587,2.31289851 C159.138623,4.3748068 151.319293,3.60384063 142.987878,0 C120.900157,35.4919707 113.26184,79.1897728 108.9,137.816901 Z"/>
          <path fill="#0A6B54" d="M150.919384,-2.27170766e-13 C159.302707,25.2192998 166.106837,50.4104061 170.408756,73.3136827 C176.844721,96.1351653 186.531149,123.379349 204.949701,150.869271 L182.612637,162.396408 C178.509806,158.801167 174.482757,155.17692 170.561697,151.524728 C166.271086,161.703609 158.997361,167.563551 148.113041,167.563551 L148.113041,167.563551 L98.4348635,167.563551 C90.544822,114.586227 111.281395,41.1318352 130.505706,4.082033 C131.239824,2.66721264 132.802836,-2.27170766e-13 136.484371,-2.27170766e-13 L136.484371,-2.27170766e-13 Z"/>
          <polygon fill="#49821B" points="119.798 137.809 151.24 137.822 151.242 142.661 119.8 142.647" transform="rotate(-52 135.52 140.235)"/>
        </g>
      </g>
      <g transform="translate(0 130.967)">
        <g transform="translate(89.158)">
          <path fill="#D4A181" d="M41.4728836,9.9312363 C47.7735249,21.6751908 47.0248449,51.4647054 38.8818274,53.5636776 C35.6344535,54.4007319 28.7166383,52.3503288 21.6758625,48.1065999 L26.0949663,79.372189 L0,79.372189 L8.98308573,37.5003045 C3.97317239,31.6195091 0.582405732,24.4125774 1.14902262,16.3370297 C2.78164753,-6.93149778 35.1722423,-1.81271821 41.4728836,9.9312363 Z" transform="translate(58.714 33.706)"/>
          <path fill="#EDBA09" d="M89.8792131,30.8463989 C86.3135081,29.7591087 81.1373574,29.3903737 78.9599047,29.6398198 C80.198539,26.6721477 80.6900474,23.3658039 80.2893495,20.1464945 C79.8998884,17.018339 78.5021069,14.3548053 77.2093692,11.5637438 C76.613483,10.2772471 75.9381896,8.99776229 74.9313674,8.0137387 C73.9057339,7.01122139 72.6074194,6.34947933 71.2460121,6.0337714 C69.8528085,5.71061339 68.3960128,5.73752131 67.0006451,6.03079137 C66.3833672,6.16051034 65.8295152,6.44273676 65.22414,6.5996266 C64.6041986,6.76037294 64.3034671,6.37235545 63.8534935,5.9824097 C62.7690954,5.04282362 61.1793717,4.57899064 59.8074766,4.41298542 C58.2682773,4.22682116 56.6711456,4.45900059 55.2031962,4.96499224 C53.7743677,5.45757374 52.4017235,6.25744898 51.368682,7.42272854 C50.9087201,7.94142914 50.4912085,8.53182576 50.2198593,9.1836636 C50.1085728,9.45116516 50.0901777,9.60963266 49.8232399,9.70762308 C49.5763621,9.79833871 49.2876165,9.80096815 49.0328312,9.88730139 C46.5692133,10.7217099 44.4628441,12.6252482 43.3159358,15.0693114 C42.6468019,16.4951684 42.3298393,19.0055985 42.4166544,21.8193781 C42.5034696,24.6331578 45.044164,31.9751119 47.4204675,34.6531075 C49.5415694,37.0434426 52.6593388,38.6208428 55.6682356,39.3113334 C53.6710719,41.5941244 52.3416272,44.4467147 51.3585272,47.347862 C50.2906931,50.4992442 49.6297996,53.7736842 49.3857517,57.1100036 C49.1539396,60.2798795 49.1324647,63.6320632 49.8755953,66.7342749 C50.5707821,69.6353346 52.0574596,72.0152395 54.5393062,73.5250632 C55.676143,74.2166932 56.8992954,74.7362703 58.1295229,75.2111469 C59.3419379,75.6790993 60.5580153,76.1340799 61.8280296,76.3966731 C64.2316344,76.8934617 67.0011445,76.8081803 68.8526452,74.8950007 C69.5199479,74.205299 70.2538394,73.338636 70.7406865,72.4960762 C70.9157318,72.1930772 71.021275,71.9949052 70.8086071,71.6987428 C70.5538218,71.3440315 70.1417206,71.0722352 69.8144368,70.7947417 C67.9480368,69.2126085 66.7927217,67.1004681 66.5014791,64.590406 C66.2059914,62.0436193 66.8901078,58.7563828 69.3662111,57.6449191 C72.4227188,56.272878 75.7887811,57.8477364 78.5054364,59.315752 C79.6600024,55.2408233 82.0306458,51.5717923 85.7473811,49.702612 C89.8593208,47.6347338 94.5777177,47.3927378 98.8033577,45.6184802 C99.9044862,45.1561373 101.026008,44.6313013 101.836726,43.6892611 C102.175496,43.2955465 102.572948,42.7848218 102.708206,42.2641053 C102.885915,41.5801007 102.444765,41.0066201 102.103997,40.47337 C100.29711,37.6459346 93.444918,31.9336892 89.8792131,30.8463989 Z"/>
        </g>
        <g transform="translate(0 203.323)">
          <ellipse cx="126.126" cy="79.916" fill="#C5CFD6" rx="83.721" ry="79.916" transform="translate(10.873 29.357)"/>
          <path fill="#D4A181" d="M281.706283,40.7753731 C287.227387,55.0720647 296.865984,102.045027 308.447495,172.995938 L295.209367,176.85847 C281.278151,146.024762 271.203235,119.176017 267.159202,105.010555 C260.234835,80.755845 254.967193,59.4131168 253.635817,51.4427212 C250.460981,32.4362906 278.058474,31.3295082 281.706283,40.7753731 Z M239.941663,80.6329626 C230.672065,81.967058 220.511994,83.3111757 210.301938,84.5983104 L207.637864,84.932748 C174.336579,89.0959587 141.280931,92.5912988 137.613753,93.0954492 C130.760811,94.0375671 125.582292,83.2688815 133.615302,80.0936512 C140.389696,77.4159176 156.147153,71.7159839 172.676721,66.2836706 L174.55085,65.6700117 L174.55085,65.6700117 L176.428929,65.0597001 C189.896321,60.7003285 203.464042,56.6805493 212.747074,54.7572744 C218.950728,53.4719906 224.96349,52.2778169 230.616542,51.1986159 C247.419413,47.9908486 256.124877,78.3038483 239.941663,80.6329626 Z"/>
          <path fill="#7BA459" d="M180.014152,0 C246.901738,17.0440601 281.08124,27.9669208 282.552658,32.7685824 C282.569097,32.8222285 282.584117,32.8759477 282.597718,32.9297398 C282.632078,32.9709238 282.664042,33.0138934 282.695468,33.0571123 C295.951174,51.2875096 303.889962,140.289763 306.495617,146.95395 L281.094683,150.743419 C277.596732,137.772362 271.329167,126.217886 264.777973,114.727729 L263.683907,112.813066 C263.135988,111.855801 262.587058,110.89846 262.038556,109.940262 L260.942548,108.022491 C250.544003,89.7883946 240.646234,71.0563669 241.116931,46.458837 C240.893969,45.1930768 240.837619,43.9927133 240.929496,42.8571851 L171.791861,7.66182721 L171.791861,0 L180.014152,0 Z"/>
          <path fill="#84B35E" d="M183.688733,-1.13686838e-13 C189.69705,1.72596152 211.339625,10.5003899 233.147985,19.5969457 L235.25847,20.4780374 C247.918254,25.7679116 260.4657,31.0932366 269.872643,35.1372385 C287.166329,42.5717159 281.715781,69.3716708 271.922733,76.3480533 C271.869,76.7756682 271.692665,77.0672539 271.378152,77.1976085 C218.694156,99.0332811 177.016281,87.5761594 163.093539,91.2368823 L156.653649,70.9222219 L177.534998,63.758977 C171.209528,62.4927605 165.384445,61.3626825 160.4,60.4884136 C128.201622,54.8408367 118.812301,37.6052932 124.363769,-1.13686838e-13 L183.688733,-1.13686838e-13 Z"/>
          <path fill="#C1C1C1" d="M2.91190663,27.6192648 C1.69549572,30.8664427 1.08729026,33.2960821 1.08729026,34.9081832 C1.08729026,36.8688787 1.4139277,39.7300211 2.06720258,43.4916104 C4.34174699,43.4916104 24.7834607,43.4916104 63.3923437,43.4916104 C64.9859667,38.2231533 64.066035,35.3788829 60.6325488,34.9587991 C57.1990625,34.5387153 54.3468071,34.1594132 52.0757826,33.8208929 L23.5724449,21.1139629 C23.023984,20.8694563 22.3811568,21.1158599 22.1366502,21.6643208 C22.1324673,21.6737034 22.1284177,21.6831449 22.1245024,21.6926423 L20.2923298,26.137039 L20.2923298,26.137039 C17.1138195,27.6200563 14.53095,28.3615649 12.543721,28.3615649 C10.9291447,28.3615649 8.69940118,27.7094895 5.8544904,26.4053386 L5.85449634,26.4053256 C4.76274748,25.9048511 3.47199543,26.3841737 2.97152094,27.4759226 C2.94994976,27.5229786 2.93006565,27.5707898 2.91190663,27.6192648 Z" transform="rotate(64 31.044 160.323)"/>
          <path fill="#C1C1C1" d="M2.91190663,27.6192648 C1.69549572,30.8664427 1.08729026,33.2960821 1.08729026,34.9081832 C1.08729026,36.8688787 1.4139277,39.7300211 2.06720258,43.4916104 C4.34174699,43.4916104 24.7834607,43.4916104 63.3923437,43.4916104 C64.9859667,38.2231533 64.066035,35.3788829 60.6325488,34.9587991 C57.1990625,34.5387153 54.3468071,34.1594132 52.0757826,33.8208929 L23.5724449,21.1139629 C23.023984,20.8694563 22.3811568,21.1158599 22.1366502,21.6643208 C22.1324673,21.6737034 22.1284177,21.6831449 22.1245024,21.6926423 L20.2923298,26.137039 L20.2923298,26.137039 C17.1138195,27.6200563 14.53095,28.3615649 12.543721,28.3615649 C10.9291447,28.3615649 8.69940118,27.7094895 5.8544904,26.4053386 L5.85449634,26.4053256 C4.76274748,25.9048511 3.47199543,26.3841737 2.97152094,27.4759226 C2.94994976,27.5229786 2.93006565,27.5707898 2.91190663,27.6192648 Z" transform="translate(285.957 143.522)"/>
        </g>
        <g transform="translate(23.92 89.158)">
          <path fill="#D4A181" d="M74.2705449,101.139622 L96.9920754,101.228975 C82.9625787,146.518603 75.3887352,170.548995 74.2705449,173.320153 C71.7546167,179.555258 77.0786591,189.051215 79.355431,194.154271 C71.9400609,197.472429 72.7301765,185.183938 63.3758866,189.535886 C54.8377245,193.508143 48.3427659,200.705605 38.4781533,194.618837 C37.2653572,193.870504 35.9363302,191.052898 39.1474274,188.851087 C47.1474416,183.365574 58.6759468,173.764937 60.2336294,170.604813 C62.3578079,166.295419 67.0367797,143.140356 74.2705449,101.139622 L74.2705449,101.139622 Z M210.982597,96.9020387 L241.783251,126.94933 C250.745106,130.772037 258.08807,134.993077 263.812142,139.612451 C265.0994,141.16518 266.50079,144.140288 260.444305,142.80897 L259.782386,142.664681 C253.927152,141.399714 247.916038,140.421309 246.819126,142.319301 C245.68082,144.288914 249.03493,147.307062 246.931201,149.884779 C245.528714,151.603258 240.812043,146.137115 232.781186,133.486351 L200.752578,114.603076 L210.982597,96.9020387 Z"/>
          <path fill="#0968AB" d="M132.67006,10.0378635 L141.895665,7.61193333 C161.545428,46.4838389 192.901085,80.6226852 235.962635,110.028472 L208.826917,149.57314 C164.549225,106.21277 135.553097,60.0168903 132.67006,10.0378635 Z" transform="rotate(5 184.316 78.593)"/>
          <path fill="#DDE3E9" d="M97.8561234,123.95109 L181.577474,123.95109 C162.181161,76.7900343 152.483004,36.7272772 152.483004,3.76281835 L127.228409,0 C107.38067,31.9211098 101.775616,71.2224591 97.8561234,123.95109 Z"/>
          <path fill="url(#chaty-toolbox-screen-a)" d="M128.352171,0 C130.324764,0.0679264319 133.329275,0.190309386 137.365705,0.367148863 L137.365705,0.367148863 L143.468122,17.8064222 C144.113622,39.0689734 147.883246,81.9187514 154.776994,146.355756 L154.776994,146.355756 L99.8959586,146.355444 C100.039828,150.805944 100.27705,155.298019 100.607625,159.831668 L100.607625,159.831668 L59.8009643,159.831668 C65.904921,90.9670124 88.1958075,37.6897897 126.673624,5.68434189e-14 L126.673624,5.68434189e-14 L126.692964,0.018 L126.703655,0 Z"/>
          <path fill="#000" fill-opacity=".1" d="M115.252768,146.784185 L99.9101045,146.784235 C99.2384597,126.826424 100.441879,107.70367 103.520361,89.4159715 C105.083616,117.155939 108.994043,136.278289 115.252768,146.784185 Z"/>
          <polygon fill="#FFF" fill-opacity=".2" points="112.111 113.078 139.173 100.497 139.173 113.078"/>
        </g>
      </g>
    </g>
    <g transform="translate(537 -117)">
      <ellipse cx="49.5" cy="187.173" fill="#F2F2F2" rx="42.5" ry="22.5"/>
      <path fill="#DDE3E9" d="M99,202.673469 C99,175.059232 76.8380951,152.673469 49.5,152.673469 C22.1619049,152.673469 -7.10542736e-15,175.059232 -7.10542736e-15,202.673469"/>
      <rect width="5" height="160" x="47" fill="#DDE3E9"/>
    </g>
    <g opacity=".7" transform="translate(20 -92)">
      <g transform="translate(0 113)">
        <ellipse cx="37" cy="27.842" fill="#F2F2F2" rx="31.768" ry="18.158"/>
        <path fill="#DDE3E9" d="M74,40.3508772 C74,18.0657031 57.4345357,0 37,0 C16.5654643,0 -7.10542736e-15,18.0657031 -7.10542736e-15,40.3508772"/>
      </g>
      <rect width="5" height="136" x="35" fill="#DDE3E9"/>
    </g>
  </g>
</svg>
