<svg xmlns="http://www.w3.org/2000/svg" width="498" height="136" viewBox="0 0 498 136">
  <g fill="none" fill-rule="evenodd" stroke="#FFF" stroke-linecap="round" stroke-linejoin="round" transform="translate(0 2)">
    <g stroke-width="5.405" transform="translate(129 24)">
      <polygon points="54.595 75.757 27.568 75.757 30.27 59.541 51.892 59.541"/>
      <line x1="19.459" x2="62.703" y1="75.757" y2="75.757"/>
      <line x1=".541" x2="81.622" y1="48.73" y2="48.73"/>
      <polygon points=".541 .081 81.622 .081 81.622 59.541 .541 59.541"/>
      <path d="M16.7567568 21.7027027C16.7567568 27.6733486 21.5969216 32.5135135 27.5675676 32.5135135 33.5382135 32.5135135 38.3783784 27.6733486 38.3783784 21.7027027 38.3783784 15.7320568 33.5382135 10.8918919 27.5675676 10.8918919 21.5969216 10.8918919 16.7567568 15.7320568 16.7567568 21.7027027zM40.8108108 48.7297297C39.5246589 42.4380681 33.9893425 37.9198185 27.5675676 37.9198185 21.1457927 37.9198185 15.6104763 42.4380681 14.3243243 48.7297297"/>
      <polygon points="49.189 10.892 70.811 10.892 70.811 24.405 49.189 24.405"/>
    </g>
    <g stroke-width="7.5" transform="translate(255 16)">
      <path d="M7,14 C7,21.7319865 13.2680135,28 21,28 C28.7319865,28 35,21.7319865 35,14 C35,6.2680135 28.7319865,0 21,0 C13.2680135,0 7,6.2680135 7,14 Z"/>
      <line x1="20.5" x2="20.5" y1="34" y2="62"/>
      <path d="M30.75 103L34.1666667 68.5 41 68.5 41 54.6999998C41 43.2677055 31.8218373 34 20.5 34 9.17816275 34 0 43.2677055 0 54.6999998L0 68.5 6.83333333 68.5 10.25 103 30.75 103zM98.7542209 35.89817L62 26.6232463 62 9.37933753 98.7542209.1044138C99.7747018-.155125871 100.856735.0751742904 101.686518.728524641 102.516301 1.38187499 103.000982 2.38516635 103 3.44743291L103 32.5505525C102.998791 33.6123222 102.513773 34.6145106 101.684809 35.2681135 100.855846 35.9217164 99.7750966 36.1540701 98.7542209 35.89817L98.7542209 35.89817z"/>
      <line x1="61.5" x2="61.5" y1="2" y2="33"/>
      <path d="M76,30 L76,32.8469333 C76,39.2680618 80.0280139,44.9688864 86,47 L86,47"/>
    </g>
    <path stroke-width="6.75" d="M100.71,16.695 L91.26,12.645 L96.21,1.845 L84.69,5.67 C81.0207276,2.24968089 76.2059001,0.323749915 71.19,0.27 C60.0165007,0.294747598 50.9647476,9.34650066 50.94,20.52 L50.94,25.02 C35.01,28.305 21.105,19.62 8.19,4.77 C5.94,16.77 8.19,25.77 14.94,31.77 L0.135,29.52 C1.31545716,39.3568865 9.36968558,46.9373368 19.26,47.52 L6.885,52.02 C11.385,61.02 19.575,62.415 30.51,63.27 C21.5721869,69.3660756 10.9510786,72.5130706 0.135,72.27 C57.555,97.785 91.26,60.3 91.26,27.27 L91.26,23.535 L100.71,16.695 Z" transform="matrix(-1 0 0 1 492 49)"/>
    <g stroke-width="6.9" transform="translate(4.035 41.947)">
      <path d="M17.2621053,76.8115263 C19.2191568,76.8401435 21.1638157,77.1209832 23.0458386,77.6467895 L36.5362667,81.4163684 C38.5246185,81.9723027 40.5824244,82.2552632 42.650393,82.2552632 L60.7848842,82.2552632 C72.2238761,82.2552632 81.8033008,73.7789628 82.9472,62.6447368 L84.0608842,44.1236842 C84.4670686,36.3271962 79.1797279,29.3383731 71.4391298,27.4402105 L66.0377614,26.2853684 C63.553695,25.6828227 61.8093231,23.5014422 61.8094737,20.9977895 L61.8094737,8.71578947 C61.8094737,4.20304172 58.0698731,0.544736842 53.4568421,0.544736842 C48.8438111,0.544736842 45.1042105,4.20304172 45.1042105,8.71578947 L45.1042105,14.3592632 C45.1042105,29.4017557 32.6388754,41.5961053 17.2621053,41.5961053 L17.2621053,76.8115263 Z"/>
      <polygon points=".557 33.229 17.262 33.229 17.262 82.255 .557 82.255"/>
    </g>
    <path stroke-width="6.842" d="M22.324229,1.12834718 L28.4827639,13.594703 L40.3360111,14.7945122 C40.9122112,14.843435 41.4079231,15.2303513 41.6056412,15.7854922 C41.8033593,16.3406331 41.666961,16.9625755 41.2562942,17.3784272 L31.5012927,27.2571068 L35.1180055,40.6806771 C35.2691584,41.262269 35.0723645,41.880364 34.6152399,42.2597758 C34.1581152,42.6391877 33.5256834,42.7093472 32.9995137,42.4390182 L20.9824561,36.3591074 L8.98196368,42.4314958 C8.45579394,42.7018249 7.82336214,42.6316654 7.36623751,42.2522535 C6.90911289,41.8728416 6.71231902,41.2547467 6.86347184,40.6731548 L10.4801847,27.2495845 L0.717820868,17.3709049 C0.30715415,16.9550532 0.170755809,16.3331108 0.368473916,15.7779699 C0.566192024,15.222829 1.06190393,14.8359127 1.63810403,14.7869898 L13.4913512,13.5871807 L19.6406833,1.12834718 C19.8985356,0.613792051 20.4166753,0.290090434 20.9824561,0.290090434 C21.548237,0.290090434 22.0663766,0.613792051 22.324229,1.12834718 Z" transform="translate(334.018 74.061)"/>
    <path stroke-width="6.842" d="M22.324229,1.12834718 L28.4827639,13.594703 L40.3360111,14.7945122 C40.9122112,14.843435 41.4079231,15.2303513 41.6056412,15.7854922 C41.8033593,16.3406331 41.666961,16.9625755 41.2562942,17.3784272 L31.5012927,27.2571068 L35.1180055,40.6806771 C35.2691584,41.262269 35.0723645,41.880364 34.6152399,42.2597758 C34.1581152,42.6391877 33.5256834,42.7093472 32.9995137,42.4390182 L20.9824561,36.3591074 L8.98196368,42.4314958 C8.45579394,42.7018249 7.82336214,42.6316654 7.36623751,42.2522535 C6.90911289,41.8728416 6.71231902,41.2547467 6.86347184,40.6731548 L10.4801847,27.2495845 L0.717820868,17.3709049 C0.30715415,16.9550532 0.170755809,16.3331108 0.368473916,15.7779699 C0.566192024,15.222829 1.06190393,14.8359127 1.63810403,14.7869898 L13.4913512,13.5871807 L19.6406833,1.12834718 C19.8985356,0.613792051 20.4166753,0.290090434 20.9824561,0.290090434 C21.548237,0.290090434 22.0663766,0.613792051 22.324229,1.12834718 Z" transform="translate(77.018 2.061)"/>
  </g>
</svg>
