<svg xmlns="http://www.w3.org/2000/svg" width="647" height="120" viewBox="0 0 647 120">
  <g fill="none" fill-rule="evenodd" stroke="#FFF" stroke-linecap="round" stroke-linejoin="round" transform="translate(0 2)">
    <g stroke-width="5.405" transform="translate(205 38)">
      <polygon points="54.595 75.757 27.568 75.757 30.27 59.541 51.892 59.541"/>
      <line x1="19.459" x2="62.703" y1="75.757" y2="75.757"/>
      <line x1=".541" x2="81.622" y1="48.73" y2="48.73"/>
      <polygon points=".541 .081 81.622 .081 81.622 59.541 .541 59.541"/>
      <path d="M16.7567568 21.7027027C16.7567568 27.6733486 21.5969216 32.5135135 27.5675676 32.5135135 33.5382135 32.5135135 38.3783784 27.6733486 38.3783784 21.7027027 38.3783784 15.7320568 33.5382135 10.8918919 27.5675676 10.8918919 21.5969216 10.8918919 16.7567568 15.7320568 16.7567568 21.7027027zM40.8108108 48.7297297C39.5246589 42.4380681 33.9893425 37.9198185 27.5675676 37.9198185 21.1457927 37.9198185 15.6104763 42.4380681 14.3243243 48.7297297"/>
      <polygon points="49.189 10.892 70.811 10.892 70.811 24.405 49.189 24.405"/>
    </g>
    <g stroke-width="6.525" transform="translate(431.342 19.21)">
      <path d="M6.07894737,12.1578947 C6.07894737,18.8725146 11.5222223,24.3157895 18.2368421,24.3157895 C24.951462,24.3157895 30.3947368,18.8725146 30.3947368,12.1578947 C30.3947368,5.44327488 24.951462,0 18.2368421,0 C11.5222223,0 6.07894737,5.44327488 6.07894737,12.1578947 Z"/>
      <line x1="17.803" x2="17.803" y1="29.526" y2="53.842"/>
      <path d="M26.7039474 89.4473684L29.6710526 59.486842 35.6052632 59.486842 35.6052632 47.5026314C35.6052632 37.5745864 27.6347534 29.5263158 17.8026316 29.5263158 7.97050975 29.5263158 0 37.5745864 0 47.5026314L0 59.486842 5.93421053 59.486842 8.90131579 89.4473684 26.7039474 89.4473684zM79.6812971 31.1747266L47.7631579 23.1201876 47.7631579 8.14521417 79.6812971.0906751422C80.5675042-.134714572 81.5071643.0652829364 82.2277652.632666135 82.9483662 1.20004933 83.3692737 2.07132867 83.3684211 2.99382332L83.3684211 28.2675851C83.3673713 29.1896482 82.9461709 30.0599697 82.2262816 30.6275723 81.5063923 31.1951748 80.567847 31.3969556 79.6812971 31.1747266L79.6812971 31.1747266z"/>
      <line x1="47.329" x2="47.329" y1="1.737" y2="28.658"/>
      <path d="M59.9210526,26.0526316 L59.9210526,28.5249684 C59.9210526,34.1012116 63.4190647,39.0519277 68.6052632,40.8157895 L68.6052632,40.8157895"/>
    </g>
    <path stroke-width="5.665" d="M84.5244643,14.098 L76.5932143,10.678 L80.7476786,1.558 L71.0791071,4.788 C67.9995392,1.89973053 63.9585233,0.273388817 59.74875,0.228 C50.3709916,0.248897971 42.7739846,7.89260056 42.7532143,17.328 L42.7532143,21.128 C29.3833929,23.902 17.713125,16.568 6.87375,4.028 C4.98535714,14.1613333 6.87375,21.7613333 12.5389286,26.828 L0.113303571,24.928 C1.10404441,33.2347042 7.86384326,39.6359733 16.1646429,40.128 L5.77848214,43.928 C9.55526786,51.528 16.4290179,52.706 25.6066071,53.428 C18.1052283,58.5757972 9.19108383,61.2332596 0.113303571,61.028 C48.3050893,82.574 76.5932143,50.92 76.5932143,23.028 L76.5932143,19.874 L84.5244643,14.098 Z" transform="matrix(-1 0 0 1 641.964 46.222)"/>
    <g stroke-width="5.775" transform="translate(87.114 45.026)">
      <path d="M13.3218421,58.8888368 C14.8321754,58.9107767 16.3329447,59.1260871 17.7853754,59.5292053 L28.1964667,62.4192158 C29.7309556,62.845432 31.3190449,63.0623684 32.9149772,63.0623684 L46.9100737,63.0623684 C55.7379913,63.0623684 63.1308082,56.5638715 64.0136,48.0276316 L64.8730737,33.8281579 C65.1865421,27.8508505 61.1060944,22.4927527 55.1323719,21.0374947 L50.9639246,20.1521158 C49.0468733,19.690164 47.7006733,18.0177724 47.7007895,16.0983053 L47.7007895,6.68210526 C47.7007895,3.22233198 44.8147934,0.417631579 41.2547368,0.417631579 C37.6946803,0.417631579 34.8086842,3.22233198 34.8086842,6.68210526 L34.8086842,11.0087684 C34.8086842,22.541346 25.1886973,31.8903474 13.3218421,31.8903474 L13.3218421,58.8888368 Z"/>
      <polygon points=".43 25.476 13.322 25.476 13.322 63.062 .43 63.062"/>
    </g>
    <path stroke-width="6.842" d="M22.324229,1.12834718 L28.4827639,13.594703 L40.3360111,14.7945122 C40.9122112,14.843435 41.4079231,15.2303513 41.6056412,15.7854922 C41.8033593,16.3406331 41.666961,16.9625755 41.2562942,17.3784272 L31.5012927,27.2571068 L35.1180055,40.6806771 C35.2691584,41.262269 35.0723645,41.880364 34.6152399,42.2597758 C34.1581152,42.6391877 33.5256834,42.7093472 32.9995137,42.4390182 L20.9824561,36.3591074 L8.98196368,42.4314958 C8.45579394,42.7018249 7.82336214,42.6316654 7.36623751,42.2522535 C6.90911289,41.8728416 6.71231902,41.2547467 6.86347184,40.6731548 L10.4801847,27.2495845 L0.717820868,17.3709049 C0.30715415,16.9550532 0.170755809,16.3331108 0.368473916,15.7779699 C0.566192024,15.222829 1.06190393,14.8359127 1.63810403,14.7869898 L13.4913512,13.5871807 L19.6406833,1.12834718 C19.8985356,0.613792051 20.4166753,0.290090434 20.9824561,0.290090434 C21.548237,0.290090434 22.0663766,0.613792051 22.324229,1.12834718 Z" transform="translate(507.018 65.061)"/>
    <path stroke-width="6.842" d="M22.324229,1.12834718 L28.4827639,13.594703 L40.3360111,14.7945122 C40.9122112,14.843435 41.4079231,15.2303513 41.6056412,15.7854922 C41.8033593,16.3406331 41.666961,16.9625755 41.2562942,17.3784272 L31.5012927,27.2571068 L35.1180055,40.6806771 C35.2691584,41.262269 35.0723645,41.880364 34.6152399,42.2597758 C34.1581152,42.6391877 33.5256834,42.7093472 32.9995137,42.4390182 L20.9824561,36.3591074 L8.98196368,42.4314958 C8.45579394,42.7018249 7.82336214,42.6316654 7.36623751,42.2522535 C6.90911289,41.8728416 6.71231902,41.2547467 6.86347184,40.6731548 L10.4801847,27.2495845 L0.717820868,17.3709049 C0.30715415,16.9550532 0.170755809,16.3331108 0.368473916,15.7779699 C0.566192024,15.222829 1.06190393,14.8359127 1.63810403,14.7869898 L13.4913512,13.5871807 L19.6406833,1.12834718 C19.8985356,0.613792051 20.4166753,0.290090434 20.9824561,0.290090434 C21.548237,0.290090434 22.0663766,0.613792051 22.324229,1.12834718 Z" transform="translate(148.018 6.061)"/>
    <g stroke-width="5.1" transform="translate(3.398 35.71)">
      <path d="M54.9839806,19.9917355 C39.9373786,22.4686777 36.576699,19.1209091 33.2160194,15.7528099 C29.8553398,19.1107438 26.5048544,22.4585124 11.4446602,19.9917355"/>
      <path d="M52.5237864 30.7635537L54.9635922 19.8358678C56.8063401 11.8378706 51.9705946 3.82010044 44.0218447 1.69421488 40.4832053.853328524 36.8533568.454948925 33.2160194.508264463 29.5843571.456355563 25.9603031.854725579 22.4271845 1.69421488 14.4751919 3.82012048 9.63854004 11.8423889 11.4854369 19.8426446L13.9252427 30.7703306M7.73058252 63.163719L7.73058252 66.5894215C7.66966523 67.9183249 8.47963722 69.1332684 9.73203883 69.5915702L33.2160194 76.7479339 33.2160194 46.8179339 11.2135922 38.7738017C10.3295243 38.5356212 9.38453248 38.7469387 8.68712569 39.3387657 7.9897189 39.9305928 7.62939443 40.8269811 7.72378641 41.7352893L7.72378641 47.9564463M58.7456311 62.6656198L58.7456311 66.5894215C58.8070447 67.9174438 57.9986316 69.1321112 56.7475728 69.5915702L33.2160194 76.7479339 33.2160194 46.8179339 55.2558252 38.7738017C56.1398932 38.5356212 57.084885 38.7469387 57.7822918 39.3387657 58.4796986 39.9305928 58.840023 40.8269811 58.7456311 41.7352893L58.7456311 48.4782645"/>
      <path d="M12.7834951 60.1649587C12.7834951 61.8591736 10.8703883 63.2145455 8.53252427 63.1942149 3.85 63.1738843.067961165 60.4258678.084894435 57.061157L.084894435 54.0115702C.084894435 50.6434711 3.90776699 47.9327273 8.58009709 47.9529442 10.9213592 47.9529442 12.8106796 49.3389256 12.8039018 51.0229752L12.7834951 60.1649587zM51.0796117 60.1649587C51.0796117 61.8591736 52.9927184 63.2145455 55.3373786 63.1942149 60.026699 63.1738843 63.815534 60.4258678 63.7986006 57.061157L63.7986006 54.0115702C63.7986006 50.6434711 59.968932 47.9327273 55.2796117 47.9529442 52.9383495 47.9529442 51.042233 49.3389256 51.0523863 51.0229752L51.0796117 60.1649587z"/>
      <line x1="25.57" x2="25.57" y1="31.004" y2="33.545"/>
      <line x1="40.862" x2="40.862" y1="31.004" y2="33.545"/>
    </g>
    <g stroke-width="5.7" transform="translate(313.78 23.032)">
      <path d="M85.6280488 87.3669355L74.2865854 70.3104839 74.2865854 50.4112903C74.2865854 42.8306452 59.9207317 34.7231452 54.4390244 30.5120968M61.7353659 55.3159677L47.9441463 44.2330645C46.0201412 42.3040541 42.9007125 42.3040541 40.9767073 44.2330645 39.0527022 46.1620749 39.0527022 49.2896187 40.9767073 51.218629L54.3369512 66.3306452 54.3369512 75.8064516C54.3369512 80.2828226 60.7146341 87.3479839 60.7146341 87.3479839"/>
      <line x1="54.439" x2="54.439" y1="27.669" y2="49.452"/>
      <line x1="20.415" x2="37.427" y1="2.085" y2="2.085"/>
      <path d="M54.3369512,73.0622581 C53.4638922,78.0429934 49.1508946,81.6768703 44.1069512,81.6814523 L19.4052439,81.6814523 C16.6647003,81.6824575 14.036114,80.5913942 12.0982569,78.6484958 C10.1603998,76.7055974 9.07216742,74.070173 9.07317004,71.3225 L9.07317004,56.0967742"/>
      <line x1="9.073" x2="31.756" y1="64.625" y2="64.625"/>
      <path d="M.567073171 39.0403226C.567073171 42.1803286 3.10594624 44.7258065 6.23780488 44.7258065 9.36966352 44.7258065 11.9085366 42.1803286 11.9085366 39.0403226 11.9085366 35.9003165 9.36966352 33.3548387 6.23780488 33.3548387 3.10594624 33.3548387.567073171 35.9003165.567073171 39.0403226zM.567073171 7.77016129C.567073171 10.9101673 3.10594624 13.4556452 6.23780488 13.4556452 9.36966352 13.4556452 11.9085366 10.9101673 11.9085366 7.77016129 11.9085366 4.63015525 9.36966352 2.08467742 6.23780488 2.08467742 3.10594624 2.08467742.567073171 4.63015525.567073171 7.77016129zM43.097561 10.6129032C43.097561 15.3229123 46.9058706 19.141129 51.6036585 19.141129 56.3014465 19.141129 60.1097561 15.3229123 60.1097561 10.6129032 60.1097561 5.90289417 56.3014465 2.08467742 51.6036585 2.08467742 46.9058706 2.08467742 43.097561 5.90289417 43.097561 10.6129032L43.097561 10.6129032z"/>
      <line x1="10.85" x2="21.658" y1="11.079" y2="21.916"/>
      <line x1="44.527" x2="35.718" y1="15.343" y2="21.23"/>
      <line x1="11.599" x2="21.957" y1="37.187" y2="31.255"/>
      <path d="M20.4146341,26.3579032 C20.4146341,29.4047449 22.0358871,32.2201427 24.6676829,33.7435636 C27.2994786,35.2669844 30.5419848,35.2669844 33.1737805,33.7435636 C35.8055763,32.2201427 37.4268293,29.4047449 37.4268293,26.3579032 C37.4268293,23.3110615 35.8055764,20.4956636 33.1737806,18.9722428 C30.5419848,17.4488219 27.2994786,17.4488219 24.6676828,18.9722428 C22.035887,20.4956636 20.4146341,23.3110615 20.4146341,26.3579032 L20.4146341,26.3579032 Z"/>
    </g>
    <path stroke-width="7.5" d="M21.6048387,37.7562832 L3.43403226,18.7297345 C0.158799769,15.4441374 -0.652877291,10.4221982 1.41947581,6.26544248 L1.41947581,6.26544248 C2.96522354,3.16261615 5.90230802,0.994837399 9.31330616,0.439230187 C12.7243043,-0.116377024 16.193409,1.00791687 18.6370161,3.4609292 L21.6048387,6.43858407 L24.5726613,3.4609292 C27.0162684,1.00791687 30.4853731,-0.116377024 33.8963713,0.439230187 C37.3073694,0.994837399 40.2444539,3.16261615 41.7902016,6.26544248 L41.7902016,6.26544248 C43.8596545,10.4204281 43.0489641,15.4386864 39.7775403,18.7240265 L21.6048387,37.7562832 Z" transform="translate(381.895 1.903)"/>
  </g>
</svg>
