<?xml version="1.0" encoding="utf-8"?>
<!-- Generator: Adobe Illustrator 19.0.0, SVG Export Plug-In . SVG Version: 6.00 Build 0)  -->
<svg version="1.1" id="Layer_1" xmlns="http://www.w3.org/2000/svg" xmlns:xlink="http://www.w3.org/1999/xlink" x="0px" y="0px"
	 viewBox="51 267.6 713.8 259.4" style="enable-background:new 51 267.6 713.8 259.4;" xml:space="preserve">
<style type="text/css">
	.st0{fill:#00C19F;}
	.st1{fill:#3F4443;}
</style>
<g>
	<path class="st0" d="M138.8,393.8c40.7-9.7,40.7-49.6,40.7-57.8v-60.3c0-5.6-2.6-8.1-7.8-8.1H59.6c-5.6,0-8.1,2.6-8.1,8.1V289
		c0,5.2,2.6,7.8,8.1,7.8h87.3v44c0,6.3,0,39.2-42.2,39.2H89.4c-5.5,0-8.1,2.6-8.1,8.1v14.1c0,5.2,2.6,8.1,8.1,8.1h15.2
		c43.3,0,43.3,34.4,43.3,41.8v45.1H59.1c-5.6,0-8.1,2.6-8.1,8.1v13.3c0,5.2,2.6,7.8,8.1,7.8h113.6c5.2,0,7.8-2.6,7.8-8.1v-61.7
		C180.6,447,180.6,403.6,138.8,393.8z"/>
	<path class="st1" d="M244.1,379.9c-3.3,0-6-2.7-6-5.9s2.7-5.9,6-5.9h5.3v-63.6h-14.8l-1.5,4.6c-1.3,3.7-3.2,6.1-6.7,6.1
		c-3.4,0-5.8-2.5-5.8-5.7v-10.9c0-3.3,2.9-5.9,6.2-5.9h62.7c3.3,0,6.2,2.7,6.2,5.9v10.9c0,3.2-2.4,5.7-5.8,5.7
		c-3.5,0-5.5-2.4-6.7-6.1l-1.5-4.6H267v63.6h5.3c3.3,0,6,2.7,6,5.9c0,3.2-2.7,5.9-6,5.9L244.1,379.9L244.1,379.9z M305.3,351.2
		c0.3,11.1,6.7,17.9,17.7,17.9c8.1,0,13.5-3.8,16.7-3.8s5.7,2.7,5.7,5.9c0,2.1-1.1,4.1-2.9,5.1c-4.8,2.7-11.8,5.2-21.3,5.2
		c-20.4,0-33.3-11.8-33.3-32.2c0-20.9,13-35.5,31.4-35.5c15.1,0,27.6,9.6,27.6,28v3.2c0,4.4-1.6,6.2-6.2,6.2H305.3L305.3,351.2z
		 M331,340.8c-0.8-9.4-5.2-14.1-12.3-14.1c-8.5,0-12.5,6.6-13.2,14.1C305.5,340.8,331,340.8,331,340.8z M404.6,364.5
		c0,4.3,1.4,4.6,4.3,4.8c3.3,0.3,4.1,1.8,4.1,5.1c0,5.2-3.7,7-11.4,7c-6.2,0-10.3-1.1-12.4-6.6c-4,3.7-8.4,6.7-16.7,6.7
		c-12.8,0-20.1-8-20.1-19.9c0-14.2,8.9-21.3,28.9-21.3c2.5,0,4.7,0.3,6.6,0.4v-7.2c0-5.3-4.9-7-10.1-7c-7.3,0-12.8,3.7-16.1,3.7
		c-2.7,0-5.4-2.5-5.4-6.1c0-2.1,1.1-3.9,2.7-5.1c3.5-2.7,12.3-5.2,22-5.2c16,0,23.8,5.7,23.8,21L404.6,364.5L404.6,364.5z
		 M387.8,350.8c-1.8-0.1-4-0.3-5.5-0.3c-11,0-13.5,4.9-13.5,10.1c0,5.9,3.8,9.1,9.5,9.1c3.5,0,7.1-1.6,9.5-3.4V350.8z M467.3,331.1
		c0,3.6-3.4,5.9-7.2,5.9c-3.3,0-6.3-2-7.2-5.6l-1.1-4.7h-2.4c-9.6,0-16.7,5.2-16.7,20.9c0,13.9,7,20.8,18.2,20.8
		c5.3,0,8.6-1.5,11.7-1.5c3.2,0,5.4,2.1,5.4,5.7c0,5.6-6.8,8.9-20.1,8.9c-20.9,0-32.3-10.9-32.3-32.4c0-23.8,14.3-35.2,35-35.2
		c10.9,0,16.8,2.8,16.8,8L467.3,331.1L467.3,331.1z M518.8,379.9c-3.3,0-6-2.7-6-5.9s2.7-5.9,6-5.9h3.3v-32c0-6.1-3-9.1-8.6-9.1
		c-4.8,0-11.1,3.6-14.9,6.2v34.9h3.3c3.3,0,6.7,2.7,6.7,5.9s-3.4,5.9-6.7,5.9h-23.4c-3.3,0-6-2.7-6-5.9s2.7-5.9,6-5.9h3.3v-68.4
		l-6.6-2.1c-1.9-0.5-3.3-2.3-3.3-4.4c0-2.1,1.4-3.8,3.8-4.7c2.5-0.9,12.4-3.9,17.1-3.9c3.9,0,5.8,1.9,5.8,5.9v31.7
		c5.1-4.1,12.5-8.2,20.8-8.2c9,0,19.6,4.1,19.6,21.7v32.6h3.3c3.3,0,6,2.7,6,5.9c0,3.2-2.7,5.9-6,5.9L518.8,379.9L518.8,379.9z
		 M585.5,379.9c-3.3,0-6-2.7-6-5.9s2.7-5.9,6-5.9h5.3v-63.6h-5.3c-3.3,0-6-2.7-6-5.9c0-3.2,2.7-5.9,6-5.9h52.9
		c3.3,0,6.2,2.7,6.2,5.9v10.9c0,3.2-2.4,5.7-5.8,5.7c-3.5,0-5.5-2.4-6.7-6.1l-1.5-4.6h-22.4v26.2h16.6c3.3-4.4,4.6-5.9,7.8-5.9
		c3.2,0,6,2.7,6,5.9v11.8c0,3.3-2.7,5.9-6,5.9s-4.9-1.9-7.8-6.1h-16.6V368h6.6c3.3,0,6,2.7,6,5.9c0,3.2-2.7,5.9-6,5.9L585.5,379.9
		L585.5,379.9z M646.3,348.2c0-21.1,13.2-34.3,32.7-34.3s32.6,12.1,32.6,33.2c0,20.6-13.5,34.3-32.7,34.3
		C659.3,381.5,646.3,368.8,646.3,348.2z M694.5,347.6c0-12.3-5.7-20.9-15.6-20.9c-9.9,0-15.5,8.7-15.5,20.9c0,12.2,5.3,21,15.6,21
		C689.3,368.6,694.5,359.8,694.5,347.6z M720.5,379.9c-3.3,0-6-2.7-6-5.9s2.7-5.9,6-5.9h3.3v-39l-6-2.1c-1.9-0.6-3.3-2.3-3.3-4.4
		s1.4-3.8,3.8-4.7c2.5-0.9,11.8-3.9,16.5-3.9c3.9,0,5.8,1.9,5.8,5.9v5.4c4.2-5.9,8.7-11.4,15.8-11.4c4.8,0,8.4,3.9,8.4,8.7
		c0,5.9-3.7,8.6-8.5,8.6c-3.4,0-4.8-1.4-8.6-1.4c-2.2,0-5.2,1.9-7.1,3.4V368h4.7c3.3,0,6,2.7,6,5.9c0,3.2-2.7,5.9-6,5.9L720.5,379.9
		L720.5,379.9z M227.8,497.2c-3.3,0-5.9-2.7-5.9-6c0-3.3,2.7-6,5.9-6h5.3v-63.5h-5.3c-3.3,0-5.9-2.7-5.9-6c0-3.3,2.7-6,5.9-6h32.7
		c21,0,32.7,5.2,32.7,21.7c0,11.6-7.1,17.1-16.8,19.8v0.3c11.5,1.9,18.9,8.4,18.9,20.4c0,18.1-13.9,25.3-35.5,25.3H227.8
		L227.8,497.2z M258.6,446.5c11.5,0,17.3-4,17.3-12.9c0-8.5-5.2-11.9-13.7-11.9h-11.7v24.8C250.6,446.5,258.6,446.5,258.6,446.5z
		 M259.5,485.3c10.8,0,18.2-3.3,18.2-13.9c0-11.1-8.2-13.4-18.5-13.4h-8.7v27.4h9V485.3z M371.3,485.7c2,0.8,3.4,2.5,3.4,4.6
		s-1.4,3.9-3.8,4.7c-2.5,0.9-11.6,3.8-16.2,3.8c-4.9,0-5.8-3.2-5.8-6.6v-3c-4.9,4.2-12.8,9.6-21.9,9.6c-9,0-18.1-3.9-18.1-21.4v-31
		l-6.6-2.1c-2-0.6-2.9-2.3-2.9-4.4s0.9-3.8,3.3-4.7c2.5-0.9,12.5-3.9,17.2-3.9c3.4,0,5.8,2.1,5.8,5.5v40.5c0,5.7,2.4,8.5,7.7,8.5
		c5.2,0,11-3.7,14.9-6.5v-32.8l-6.7-2.1c-1.9-0.6-2.9-2.3-2.9-4.4c0-2.1,1-3.8,3.4-4.7c2.5-0.9,12.5-3.9,17.2-3.9
		c3.6,0,5.8,2.1,5.8,5.3v47.1L371.3,485.7z M386,497.2c-3.3,0-5.9-2.7-5.9-6c0-3.3,2.7-6,5.9-6h3.3v-68.3l-6.6-2.1
		c-1.9-0.6-3.3-2.3-3.3-4.4c0-2.1,1.4-3.8,3.8-4.7c2.5-0.9,12.4-3.9,17.1-3.9c3.9,0,5.8,1.9,5.8,6v77.6h3.3c3.3,0,5.9,2.7,5.9,6
		c0,3.3-2.7,6-5.9,6L386,497.2L386,497.2z M463.5,485.3c12.3,0.5,19.4,8.2,19.4,17.9c0,14.6-15.8,23.8-34.8,23.8
		c-17,0-30.8-7.2-30.8-18.1c0-7.2,5.6-12.3,11-14.6c-2.8-2.3-4.2-5.5-4.2-8.7c0-4.2,2.3-9,7.1-13.2c-5.3-3.9-9-10-9-17.7
		c0-13.5,10.8-23.5,26.2-23.5c3.7,0,7,0.6,9.9,1.5h19.3c3.3,0,6,2.7,6,6c0,3.3-2.7,6-6,6H472c1.7,2.9,2.5,6.5,2.5,10.1
		c0,13.7-12,23.3-26.2,23.3c-2.9,0-5.2-0.4-7.3-1c-1.1,1.5-1.8,2.7-1.8,3.9c0,2.1,1.7,3.5,8,3.8L463.5,485.3z M432,506.3
		c0,5.1,7.7,8.6,17.1,8.6c9.1,0,18.2-3.3,18.2-9.8c0-3.5-2.9-5.7-7-6c-6.8-0.4-13.6-0.6-20.4-0.9c-1.1-0.1-2.3-0.3-3.3-0.5
		C433.8,499.8,432,503,432,506.3z M458.8,454.9c0-7-4-11.1-10.4-11.1c-6.3,0-10.5,4-10.5,11.1c0,6.8,4.2,11.4,10.5,11.4
		C454.5,466.3,458.8,461.7,458.8,454.9z M536.3,481.7c0,4.3,1.4,4.6,4.3,4.8c3.3,0.3,4,1.8,4,5.1c0,5.2-3.7,7-11.4,7
		c-6.2,0-10.3-1.1-12.4-6.6c-4,3.7-8.4,6.7-16.7,6.7c-12.8,0-20.1-8-20.1-19.9c0-14.2,8.9-21.3,28.9-21.3c2.5,0,4.7,0.3,6.6,0.4
		v-7.2c0-5.3-4.9-7-10.1-7c-7.3,0-12.8,3.7-16.1,3.7c-2.7,0-5.5-2.5-5.5-6.1c0-2.1,1.1-3.9,2.7-5.1c3.5-2.7,12.3-5.2,22-5.2
		c16,0,23.8,5.7,23.8,21V481.7L536.3,481.7z M519.5,468c-1.8-0.1-4-0.3-5.5-0.3c-11,0-13.5,4.9-13.5,10.1c0,6,3.8,9.1,9.5,9.1
		c3.5,0,7.1-1.6,9.5-3.4V468z M555.3,497.2c-3.3,0-6-2.7-6-6c0-3.3,2.7-6,6-6h3.3v-39l-6-2.1c-1.9-0.6-3.3-2.3-3.3-4.4
		s1.4-3.8,3.8-4.7c2.5-0.9,11.8-3.9,16.5-3.9c3.9,0,5.8,1.9,5.8,6v5.5c4.2-6,8.7-11.4,15.8-11.4c4.8,0,8.4,3.9,8.4,8.7
		c0,6-3.7,8.6-8.5,8.6c-3.4,0-4.8-1.4-8.6-1.4c-2.2,0-5.2,1.9-7.1,3.4v34.8h4.7c3.3,0,6,2.7,6,6c0,3.3-2.7,6-6,6L555.3,497.2
		L555.3,497.2z M609.7,497.2c-3.3,0-6-2.7-6-6c0-3.3,2.7-6,6-6h3.3v-39l-6-2.1c-1.9-0.6-3.3-2.3-3.3-4.4s1.4-3.8,3.8-4.7
		c2.5-0.9,11.8-3.9,16.5-3.9c3.9,0,5.8,1.9,5.8,6v48.3h3.4c3.3,0,6,2.7,6,6c0,3.3-2.7,6-6,6L609.7,497.2L609.7,497.2z M621.5,424.2
		c-5.5,0-9.8-4.2-9.8-9.5c0-5.3,4.3-9.6,9.8-9.6s9.6,4.3,9.6,9.6C631,420.1,627,424.2,621.5,424.2z M695,481.7
		c0,4.3,1.4,4.6,4.3,4.8c3.3,0.3,4,1.8,4,5.1c0,5.2-3.7,7-11.4,7c-6.2,0-10.3-1.1-12.4-6.6c-4,3.7-8.4,6.7-16.7,6.7
		c-12.8,0-20.1-8-20.1-19.9c0-14.2,8.9-21.3,28.9-21.3c2.5,0,4.7,0.3,6.6,0.4v-7.2c0-5.3-4.9-7-10.1-7c-7.3,0-12.8,3.7-16.1,3.7
		c-2.7,0-5.5-2.5-5.5-6.1c0-2.1,1.1-3.9,2.7-5.1c3.5-2.7,12.3-5.2,22-5.2c16,0,23.8,5.7,23.8,21V481.7L695,481.7z M678.2,468
		c-1.8-0.1-4-0.3-5.5-0.3c-11,0-13.5,4.9-13.5,10.1c0,6,3.8,9.1,9.5,9.1c3.5,0,7.1-1.6,9.5-3.4V468z"/>
</g>
</svg>
